G04 EAGLE Gerber X2 export*
G04 #@! %TF.Part,Single*
G04 #@! %TF.FileFunction,Copper,L2,Bot,Mixed*
G04 #@! %TF.FilePolarity,Positive*
G04 #@! %TF.GenerationSoftware,Autodesk,EAGLE,9.0.0*
G04 #@! %TF.CreationDate,2019-08-08T19:13:39Z*
G75*
%MOMM*%
%FSLAX34Y34*%
%LPD*%
%AMOC8*
5,1,8,0,0,1.08239X$1,22.5*%
G01*
%ADD10C,1.879600*%
%ADD11C,1.676400*%
%ADD12P,1.924489X8X22.500000*%
%ADD13C,0.609600*%


D10*
X219202Y88900D02*
X237998Y88900D01*
X237998Y114300D02*
X219202Y114300D01*
X219202Y139700D02*
X237998Y139700D01*
X237998Y165100D02*
X219202Y165100D01*
X219202Y190500D02*
X237998Y190500D01*
X237998Y215900D02*
X219202Y215900D01*
X219202Y241300D02*
X237998Y241300D01*
X237998Y266700D02*
X219202Y266700D01*
D11*
X12700Y97282D02*
X12700Y80518D01*
X38100Y80518D02*
X38100Y97282D01*
X63500Y97282D02*
X63500Y80518D01*
X88900Y80518D02*
X88900Y97282D01*
X114300Y97282D02*
X114300Y80518D01*
X139700Y80518D02*
X139700Y97282D01*
X165100Y97282D02*
X165100Y80518D01*
X190500Y80518D02*
X190500Y97282D01*
X190500Y258318D02*
X190500Y275082D01*
X165100Y275082D02*
X165100Y258318D01*
X139700Y258318D02*
X139700Y275082D01*
X114300Y275082D02*
X114300Y258318D01*
X88900Y258318D02*
X88900Y275082D01*
X63500Y275082D02*
X63500Y258318D01*
X38100Y258318D02*
X38100Y275082D01*
X12700Y275082D02*
X12700Y258318D01*
D12*
X190500Y266700D03*
D13*
X228600Y266700D01*
X165100Y266700D02*
X165100Y254000D01*
X177800Y241300D01*
X228600Y241300D01*
X228600Y215900D02*
X177800Y215900D01*
X139700Y254000D01*
X139700Y266700D01*
X165100Y190500D02*
X228600Y190500D01*
X165100Y190500D02*
X114300Y241300D01*
X114300Y266700D01*
X165100Y165100D02*
X228600Y165100D01*
X165100Y165100D02*
X88900Y241300D01*
X88900Y266700D01*
X165100Y139700D02*
X228600Y139700D01*
X165100Y139700D02*
X63500Y241300D01*
X63500Y266700D01*
X165100Y114300D02*
X228600Y114300D01*
X165100Y114300D02*
X165100Y88900D01*
X38100Y228600D02*
X38100Y266700D01*
X38100Y228600D02*
X152400Y114300D01*
X165100Y114300D01*
X190500Y88900D02*
X228600Y88900D01*
X12700Y266700D02*
X12700Y279400D01*
X25400Y292100D01*
X241300Y292100D01*
X254000Y279400D01*
X254000Y101600D01*
X241300Y88900D01*
X228600Y88900D01*
M02*
