M48
;GenerationSoftware,Autodesk,EAGLE,9.0.0*%
;CreationDate,2019-08-08T19:13:39Z*%
FMAT,2
ICI,OFF
METRIC,TZ,000.000
T3C0.600
T2C0.813
T1C1.016
%
G90
M71
T1
X22860Y8890
X22860Y11430
X22860Y13970
X22860Y16510
X22860Y19050
X22860Y21590
X22860Y24130
X22860Y26670
T2
X1270Y8890
X3810Y8890
X6350Y8890
X8890Y8890
X11430Y8890
X13970Y8890
X16510Y8890
X19050Y8890
X19050Y26670
X16510Y26670
X13970Y26670
X11430Y26670
X8890Y26670
X6350Y26670
X3810Y26670
X1270Y26670
T3
X19050Y26670
M30