G04 EAGLE Gerber X2 export*
G04 #@! %TF.Part,Single*
G04 #@! %TF.FileFunction,Legend,Bot,1*
G04 #@! %TF.FilePolarity,Positive*
G04 #@! %TF.GenerationSoftware,Autodesk,EAGLE,9.0.0*
G04 #@! %TF.CreationDate,2019-08-08T19:13:39Z*
G75*
%MOMM*%
%FSLAX34Y34*%
%LPD*%
%AMOC8*
5,1,8,0,0,1.08239X$1,22.5*%
G01*
%ADD10C,0.127000*%


D10*
X140335Y114925D02*
X140335Y124458D01*
X142242Y126365D01*
X146055Y126365D01*
X147962Y124458D01*
X147962Y114925D01*
X152029Y124458D02*
X153936Y126365D01*
X157749Y126365D01*
X159655Y124458D01*
X159655Y122552D01*
X157749Y120645D01*
X153936Y120645D01*
X152029Y118739D01*
X152029Y116832D01*
X153936Y114925D01*
X157749Y114925D01*
X159655Y116832D01*
X155842Y113019D02*
X155842Y128272D01*
X163723Y126365D02*
X171349Y126365D01*
X163723Y126365D02*
X171349Y118739D01*
X171349Y116832D01*
X169443Y114925D01*
X165630Y114925D01*
X163723Y116832D01*
X62865Y231142D02*
X62865Y240675D01*
X62865Y231142D02*
X60958Y229235D01*
X57145Y229235D01*
X55239Y231142D01*
X55239Y240675D01*
X51171Y231142D02*
X49264Y229235D01*
X45451Y229235D01*
X43545Y231142D01*
X43545Y233048D01*
X45451Y234955D01*
X49264Y234955D01*
X51171Y236862D01*
X51171Y238768D01*
X49264Y240675D01*
X45451Y240675D01*
X43545Y238768D01*
X47358Y242581D02*
X47358Y227328D01*
X39477Y238768D02*
X37570Y240675D01*
X33757Y240675D01*
X31851Y238768D01*
X31851Y236862D01*
X33757Y234955D01*
X35664Y234955D01*
X33757Y234955D02*
X31851Y233048D01*
X31851Y231142D01*
X33757Y229235D01*
X37570Y229235D01*
X39477Y231142D01*
M02*
