G04 EAGLE Gerber X2 export*
G04 #@! %TF.Part,Single*
G04 #@! %TF.FileFunction,Soldermask,Top,1*
G04 #@! %TF.FilePolarity,Negative*
G04 #@! %TF.GenerationSoftware,Autodesk,EAGLE,9.0.0*
G04 #@! %TF.CreationDate,2019-08-08T19:13:39Z*
G75*
%MOMM*%
%FSLAX34Y34*%
%LPD*%
%AMOC8*
5,1,8,0,0,1.08239X$1,22.5*%
G01*
%ADD10C,1.727200*%
%ADD11C,1.524000*%
%ADD12P,2.144431X8X22.500000*%


D10*
X220980Y88900D02*
X236220Y88900D01*
X236220Y114300D02*
X220980Y114300D01*
X220980Y139700D02*
X236220Y139700D01*
X236220Y165100D02*
X220980Y165100D01*
X220980Y190500D02*
X236220Y190500D01*
X236220Y215900D02*
X220980Y215900D01*
X220980Y241300D02*
X236220Y241300D01*
X236220Y266700D02*
X220980Y266700D01*
D11*
X12700Y95504D02*
X12700Y82296D01*
X38100Y82296D02*
X38100Y95504D01*
X63500Y95504D02*
X63500Y82296D01*
X88900Y82296D02*
X88900Y95504D01*
X114300Y95504D02*
X114300Y82296D01*
X139700Y82296D02*
X139700Y95504D01*
X165100Y95504D02*
X165100Y82296D01*
X190500Y82296D02*
X190500Y95504D01*
X190500Y260096D02*
X190500Y273304D01*
X165100Y273304D02*
X165100Y260096D01*
X139700Y260096D02*
X139700Y273304D01*
X114300Y273304D02*
X114300Y260096D01*
X88900Y260096D02*
X88900Y273304D01*
X63500Y273304D02*
X63500Y260096D01*
X38100Y260096D02*
X38100Y273304D01*
X12700Y273304D02*
X12700Y260096D01*
D12*
X190500Y266700D03*
M02*
