G04 EAGLE Gerber X2 export*
G04 #@! %TF.Part,Single*
G04 #@! %TF.FileFunction,Copper,L2,Bot,Mixed*
G04 #@! %TF.FilePolarity,Positive*
G04 #@! %TF.GenerationSoftware,Autodesk,EAGLE,9.0.0*
G04 #@! %TF.CreationDate,2019-08-08T19:01:50Z*
G75*
%MOMM*%
%FSLAX34Y34*%
%LPD*%
%AMOC8*
5,1,8,0,0,1.08239X$1,22.5*%
G01*
%ADD10C,1.320800*%
%ADD11C,1.524000*%
%ADD12P,3.436588X8X22.500000*%
%ADD13P,2.336880X8X22.500000*%
%ADD14P,1.429621X8X202.500000*%
%ADD15C,1.016000*%
%ADD16C,0.609600*%


D10*
X95504Y203200D02*
X82296Y203200D01*
X82296Y177800D02*
X95504Y177800D01*
X95504Y152400D02*
X82296Y152400D01*
X82296Y127000D02*
X95504Y127000D01*
X95504Y101600D02*
X82296Y101600D01*
X82296Y76200D02*
X95504Y76200D01*
X95504Y50800D02*
X82296Y50800D01*
X82296Y25400D02*
X95504Y25400D01*
D11*
X728980Y25400D02*
X744220Y25400D01*
X744220Y50800D02*
X728980Y50800D01*
X728980Y76200D02*
X744220Y76200D01*
X744220Y101600D02*
X728980Y101600D01*
X728980Y127000D02*
X744220Y127000D01*
X744220Y152400D02*
X728980Y152400D01*
X728980Y177800D02*
X744220Y177800D01*
X744220Y203200D02*
X728980Y203200D01*
D12*
X165100Y203200D03*
X165100Y25400D03*
D13*
X228600Y177800D03*
D14*
X431800Y177800D03*
X330200Y177800D03*
X495300Y152400D03*
X469900Y152400D03*
D13*
X228600Y152400D03*
D14*
X431800Y152400D03*
X330200Y152400D03*
X571500Y152400D03*
X546100Y152400D03*
D13*
X228600Y127000D03*
D14*
X431800Y127000D03*
X330200Y127000D03*
X647700Y152400D03*
X622300Y152400D03*
D13*
X228600Y101600D03*
D14*
X431800Y101600D03*
X330200Y101600D03*
X495300Y76200D03*
X469900Y76200D03*
D13*
X228600Y76200D03*
D14*
X431800Y76200D03*
X330200Y76200D03*
X571500Y76200D03*
X546100Y76200D03*
D13*
X228600Y50800D03*
D14*
X431800Y50800D03*
X330200Y50800D03*
X647700Y76200D03*
X622300Y76200D03*
D15*
X165100Y203200D02*
X88900Y203200D01*
D16*
X165100Y203200D02*
X736600Y203200D01*
D15*
X165100Y25400D02*
X88900Y25400D01*
D16*
X165100Y25400D02*
X736600Y25400D01*
X228600Y177800D02*
X88900Y177800D01*
X228600Y177800D02*
X330200Y177800D01*
X342900Y190500D01*
X698500Y190500D01*
X711200Y177800D01*
X736600Y177800D01*
X228600Y152400D02*
X88900Y152400D01*
X228600Y152400D02*
X330200Y152400D01*
X342900Y165100D01*
X698500Y165100D01*
X711200Y152400D01*
X736600Y152400D01*
X228600Y127000D02*
X88900Y127000D01*
X228600Y127000D02*
X330200Y127000D01*
X342900Y139700D01*
X698500Y139700D01*
X711200Y127000D01*
X736600Y127000D01*
X228600Y101600D02*
X88900Y101600D01*
X228600Y101600D02*
X330200Y101600D01*
X342900Y114300D01*
X698500Y114300D01*
X711200Y101600D01*
X736600Y101600D01*
X228600Y76200D02*
X88900Y76200D01*
X228600Y76200D02*
X330200Y76200D01*
X342900Y88900D01*
X698500Y88900D01*
X711200Y76200D01*
X736600Y76200D01*
X228600Y50800D02*
X88900Y50800D01*
X228600Y50800D02*
X330200Y50800D01*
X342900Y63500D01*
X698500Y63500D01*
X711200Y50800D01*
X736600Y50800D01*
M02*
