M48
;GenerationSoftware,Autodesk,EAGLE,9.0.0*%
;CreationDate,2019-08-08T19:01:50Z*%
FMAT,2
ICI,OFF
METRIC,TZ,000.000
T3C0.813
T2C1.016
T1C1.118
%
G90
M71
T1
X16510Y20320
X16510Y2540
T2
X73660Y12700
X22860Y15240
X73660Y15240
X73660Y17780
X73660Y20320
X22860Y17780
X73660Y2540
X73660Y5080
X73660Y7620
X73660Y10160
X22860Y12700
X22860Y10160
X22860Y7620
X22860Y5080
T3
X8890Y7620
X8890Y20320
X8890Y2540
X8890Y5080
X43180Y17780
X33020Y17780
X49530Y15240
X46990Y15240
X43180Y15240
X33020Y15240
X57150Y15240
X54610Y15240
X8890Y17780
X43180Y12700
X33020Y12700
X64770Y15240
X62230Y15240
X8890Y15240
X43180Y10160
X33020Y10160
X49530Y7620
X46990Y7620
X8890Y12700
X43180Y7620
X33020Y7620
X57150Y7620
X54610Y7620
X8890Y10160
X43180Y5080
X33020Y5080
X64770Y7620
X62230Y7620
M30