G04 EAGLE Gerber X2 export*
G04 #@! %TF.Part,Single*
G04 #@! %TF.FileFunction,Legend,Top,1*
G04 #@! %TF.FilePolarity,Positive*
G04 #@! %TF.GenerationSoftware,Autodesk,EAGLE,9.0.0*
G04 #@! %TF.CreationDate,2019-08-08T19:01:50Z*
G75*
%MOMM*%
%FSLAX34Y34*%
%LPD*%
%AMOC8*
5,1,8,0,0,1.08239X$1,22.5*%
G01*
%ADD10C,0.127000*%
%ADD11C,0.152400*%
%ADD12C,0.660400*%
%ADD13R,0.762000X0.660400*%
%ADD14R,0.660400X0.660400*%
%ADD15R,0.863600X0.609600*%
%ADD16C,0.203200*%
%ADD17C,0.254000*%


D10*
X59062Y172085D02*
X51435Y172085D01*
X59062Y179712D01*
X59062Y181618D01*
X57155Y183525D01*
X53342Y183525D01*
X51435Y181618D01*
X53342Y31125D02*
X51435Y29218D01*
X53342Y31125D02*
X57155Y31125D01*
X59062Y29218D01*
X59062Y27312D01*
X57155Y25405D01*
X59062Y23498D01*
X59062Y21592D01*
X57155Y19685D01*
X53342Y19685D01*
X51435Y21592D01*
X51435Y23498D01*
X53342Y25405D01*
X51435Y27312D01*
X51435Y29218D01*
X53342Y25405D02*
X57155Y25405D01*
X51435Y156218D02*
X53342Y158125D01*
X57155Y158125D01*
X59062Y156218D01*
X59062Y154312D01*
X57155Y152405D01*
X55248Y152405D01*
X57155Y152405D02*
X59062Y150498D01*
X59062Y148592D01*
X57155Y146685D01*
X53342Y146685D01*
X51435Y148592D01*
X57155Y132725D02*
X57155Y121285D01*
X51435Y127005D02*
X57155Y132725D01*
X59062Y127005D02*
X51435Y127005D01*
X51435Y107325D02*
X59062Y107325D01*
X51435Y107325D02*
X51435Y101605D01*
X55248Y103512D01*
X57155Y103512D01*
X59062Y101605D01*
X59062Y97792D01*
X57155Y95885D01*
X53342Y95885D01*
X51435Y97792D01*
X59062Y81925D02*
X55248Y80018D01*
X51435Y76205D01*
X51435Y72392D01*
X53342Y70485D01*
X57155Y70485D01*
X59062Y72392D01*
X59062Y74298D01*
X57155Y76205D01*
X51435Y76205D01*
X51435Y56525D02*
X59062Y56525D01*
X59062Y54618D01*
X51435Y46992D01*
X51435Y45085D01*
X51435Y205112D02*
X55248Y208925D01*
X55248Y197485D01*
X51435Y197485D02*
X59062Y197485D01*
D11*
X751840Y12700D02*
X779780Y12700D01*
X751840Y12700D02*
X751840Y38100D01*
X779780Y38100D02*
X779780Y12700D01*
X779780Y63500D02*
X751840Y63500D01*
X779780Y63500D02*
X779780Y88900D01*
X779780Y38100D02*
X751840Y38100D01*
X751840Y63500D01*
X779780Y63500D02*
X779780Y38100D01*
D12*
X787400Y76200D02*
X834390Y76200D01*
X834390Y50800D02*
X787400Y50800D01*
X787400Y25400D02*
X834390Y25400D01*
D11*
X751840Y63500D02*
X751840Y88900D01*
X751840Y114300D01*
X779780Y114300D01*
X751840Y114300D02*
X751840Y139700D01*
X779780Y139700D01*
X779780Y114300D01*
X779780Y88900D02*
X751840Y88900D01*
X779780Y88900D02*
X779780Y114300D01*
X751840Y139700D02*
X751840Y165100D01*
X779780Y165100D02*
X779780Y139700D01*
X779780Y190500D02*
X751840Y190500D01*
X751840Y215900D01*
X779780Y215900D01*
X779780Y190500D01*
X779780Y165100D02*
X751840Y165100D01*
X751840Y190500D01*
X779780Y190500D02*
X779780Y165100D01*
D12*
X787400Y203200D02*
X834390Y203200D01*
X834390Y177800D02*
X787400Y177800D01*
X787400Y152400D02*
X834390Y152400D01*
X834390Y127000D02*
X787400Y127000D01*
X787400Y101600D02*
X834390Y101600D01*
D10*
X757555Y205112D02*
X761368Y208925D01*
X761368Y197485D01*
X757555Y197485D02*
X765182Y197485D01*
X765182Y172085D02*
X757555Y172085D01*
X765182Y179712D01*
X765182Y181618D01*
X763275Y183525D01*
X759462Y183525D01*
X757555Y181618D01*
X759462Y158125D02*
X757555Y156218D01*
X759462Y158125D02*
X763275Y158125D01*
X765182Y156218D01*
X765182Y154312D01*
X763275Y152405D01*
X761368Y152405D01*
X763275Y152405D02*
X765182Y150498D01*
X765182Y148592D01*
X763275Y146685D01*
X759462Y146685D01*
X757555Y148592D01*
X763275Y132725D02*
X763275Y121285D01*
X757555Y127005D02*
X763275Y132725D01*
X765182Y127005D02*
X757555Y127005D01*
X757555Y107325D02*
X765182Y107325D01*
X757555Y107325D02*
X757555Y101605D01*
X761368Y103512D01*
X763275Y103512D01*
X765182Y101605D01*
X765182Y97792D01*
X763275Y95885D01*
X759462Y95885D01*
X757555Y97792D01*
X765182Y81925D02*
X761368Y80018D01*
X757555Y76205D01*
X757555Y72392D01*
X759462Y70485D01*
X763275Y70485D01*
X765182Y72392D01*
X765182Y74298D01*
X763275Y76205D01*
X757555Y76205D01*
X757555Y56525D02*
X765182Y56525D01*
X765182Y54618D01*
X757555Y46992D01*
X757555Y45085D01*
X759462Y31125D02*
X757555Y29218D01*
X759462Y31125D02*
X763275Y31125D01*
X765182Y29218D01*
X765182Y27312D01*
X763275Y25405D01*
X765182Y23498D01*
X765182Y21592D01*
X763275Y19685D01*
X759462Y19685D01*
X757555Y21592D01*
X757555Y23498D01*
X759462Y25405D01*
X757555Y27312D01*
X757555Y29218D01*
X759462Y25405D02*
X763275Y25405D01*
D13*
X783590Y76200D03*
X783590Y50800D03*
X783590Y25400D03*
X783590Y203200D03*
X783590Y177800D03*
X783590Y152400D03*
X783590Y127000D03*
X783590Y101600D03*
D14*
X748538Y25400D03*
X748538Y50800D03*
X748538Y76200D03*
X748538Y101600D03*
X748538Y127000D03*
X748538Y152400D03*
X748538Y177800D03*
X748538Y203200D03*
D11*
X180340Y193040D02*
X180340Y187960D01*
X175260Y187960D01*
X154940Y187960D02*
X149860Y187960D01*
X149860Y193040D01*
X149860Y213360D02*
X149860Y218440D01*
X154940Y218440D01*
X175260Y218440D02*
X180340Y218440D01*
X180340Y213360D01*
X180340Y15240D02*
X180340Y10160D01*
X175260Y10160D01*
X154940Y10160D02*
X149860Y10160D01*
X149860Y15240D01*
X149860Y35560D02*
X149860Y40640D01*
X154940Y40640D01*
X175260Y40640D02*
X180340Y40640D01*
X180340Y35560D01*
X240030Y166370D02*
X240030Y171450D01*
X240030Y166370D02*
X234950Y166370D01*
X240030Y184150D02*
X240030Y189230D01*
X234950Y189230D01*
X222250Y189230D02*
X217170Y189230D01*
X217170Y184150D01*
X217170Y171450D02*
X217170Y166370D01*
X222250Y166370D01*
X410210Y166370D02*
X410310Y166372D01*
X410409Y166378D01*
X410509Y166388D01*
X410607Y166401D01*
X410706Y166419D01*
X410803Y166440D01*
X410899Y166465D01*
X410995Y166494D01*
X411089Y166527D01*
X411182Y166563D01*
X411273Y166603D01*
X411363Y166647D01*
X411451Y166694D01*
X411537Y166744D01*
X411621Y166798D01*
X411703Y166855D01*
X411782Y166915D01*
X411860Y166979D01*
X411934Y167045D01*
X412006Y167114D01*
X412075Y167186D01*
X412141Y167260D01*
X412205Y167338D01*
X412265Y167417D01*
X412322Y167499D01*
X412376Y167583D01*
X412426Y167669D01*
X412473Y167757D01*
X412517Y167847D01*
X412557Y167938D01*
X412593Y168031D01*
X412626Y168125D01*
X412655Y168221D01*
X412680Y168317D01*
X412701Y168414D01*
X412719Y168513D01*
X412732Y168611D01*
X412742Y168711D01*
X412748Y168810D01*
X412750Y168910D01*
X412750Y186690D02*
X412748Y186790D01*
X412742Y186889D01*
X412732Y186989D01*
X412719Y187087D01*
X412701Y187186D01*
X412680Y187283D01*
X412655Y187379D01*
X412626Y187475D01*
X412593Y187569D01*
X412557Y187662D01*
X412517Y187753D01*
X412473Y187843D01*
X412426Y187931D01*
X412376Y188017D01*
X412322Y188101D01*
X412265Y188183D01*
X412205Y188262D01*
X412141Y188340D01*
X412075Y188414D01*
X412006Y188486D01*
X411934Y188555D01*
X411860Y188621D01*
X411782Y188685D01*
X411703Y188745D01*
X411621Y188802D01*
X411537Y188856D01*
X411451Y188906D01*
X411363Y188953D01*
X411273Y188997D01*
X411182Y189037D01*
X411089Y189073D01*
X410995Y189106D01*
X410899Y189135D01*
X410803Y189160D01*
X410706Y189181D01*
X410607Y189199D01*
X410509Y189212D01*
X410409Y189222D01*
X410310Y189228D01*
X410210Y189230D01*
X351790Y189230D02*
X351690Y189228D01*
X351591Y189222D01*
X351491Y189212D01*
X351393Y189199D01*
X351294Y189181D01*
X351197Y189160D01*
X351101Y189135D01*
X351005Y189106D01*
X350911Y189073D01*
X350818Y189037D01*
X350727Y188997D01*
X350637Y188953D01*
X350549Y188906D01*
X350463Y188856D01*
X350379Y188802D01*
X350297Y188745D01*
X350218Y188685D01*
X350140Y188621D01*
X350066Y188555D01*
X349994Y188486D01*
X349925Y188414D01*
X349859Y188340D01*
X349795Y188262D01*
X349735Y188183D01*
X349678Y188101D01*
X349624Y188017D01*
X349574Y187931D01*
X349527Y187843D01*
X349483Y187753D01*
X349443Y187662D01*
X349407Y187569D01*
X349374Y187475D01*
X349345Y187379D01*
X349320Y187283D01*
X349299Y187186D01*
X349281Y187087D01*
X349268Y186989D01*
X349258Y186889D01*
X349252Y186790D01*
X349250Y186690D01*
X349250Y168910D02*
X349252Y168810D01*
X349258Y168711D01*
X349268Y168611D01*
X349281Y168513D01*
X349299Y168414D01*
X349320Y168317D01*
X349345Y168221D01*
X349374Y168125D01*
X349407Y168031D01*
X349443Y167938D01*
X349483Y167847D01*
X349527Y167757D01*
X349574Y167669D01*
X349624Y167583D01*
X349678Y167499D01*
X349735Y167417D01*
X349795Y167338D01*
X349859Y167260D01*
X349925Y167186D01*
X349994Y167114D01*
X350066Y167045D01*
X350140Y166979D01*
X350218Y166915D01*
X350297Y166855D01*
X350379Y166798D01*
X350463Y166744D01*
X350549Y166694D01*
X350637Y166647D01*
X350727Y166603D01*
X350818Y166563D01*
X350911Y166527D01*
X351005Y166494D01*
X351101Y166465D01*
X351197Y166440D01*
X351294Y166419D01*
X351393Y166401D01*
X351491Y166388D01*
X351591Y166378D01*
X351690Y166372D01*
X351790Y166370D01*
X412750Y168910D02*
X412750Y186690D01*
X410210Y166370D02*
X406400Y166370D01*
X405130Y167640D01*
X406400Y189230D02*
X410210Y189230D01*
X406400Y189230D02*
X405130Y187960D01*
X356870Y167640D02*
X355600Y166370D01*
X356870Y167640D02*
X405130Y167640D01*
X356870Y187960D02*
X355600Y189230D01*
X356870Y187960D02*
X405130Y187960D01*
X355600Y166370D02*
X351790Y166370D01*
X351790Y189230D02*
X355600Y189230D01*
X349250Y186690D02*
X349250Y168910D01*
D10*
X369159Y179712D02*
X372972Y183525D01*
X372972Y172085D01*
X369159Y172085D02*
X376786Y172085D01*
X380853Y181618D02*
X382760Y183525D01*
X386573Y183525D01*
X388480Y181618D01*
X388480Y179712D01*
X386573Y177805D01*
X388480Y175898D01*
X388480Y173992D01*
X386573Y172085D01*
X382760Y172085D01*
X380853Y173992D01*
X380853Y175898D01*
X382760Y177805D01*
X380853Y179712D01*
X380853Y181618D01*
X382760Y177805D02*
X386573Y177805D01*
X392547Y173992D02*
X392547Y181618D01*
X394454Y183525D01*
X398267Y183525D01*
X400173Y181618D01*
X400173Y173992D01*
X398267Y172085D01*
X394454Y172085D01*
X392547Y173992D01*
X400173Y181618D01*
D15*
X344932Y177800D03*
X417068Y177800D03*
D16*
X457200Y171450D02*
X457200Y133350D01*
D17*
X457674Y132734D01*
X458163Y132129D01*
X458667Y131537D01*
X459185Y130957D01*
X459717Y130390D01*
X460263Y129836D01*
X460822Y129296D01*
X461395Y128770D01*
X461980Y128257D01*
X462577Y127760D01*
X463186Y127277D01*
X463807Y126809D01*
X464440Y126356D01*
X465083Y125919D01*
X465737Y125498D01*
X466401Y125094D01*
X467074Y124705D01*
X467757Y124333D01*
X468449Y123978D01*
X469149Y123640D01*
X469857Y123319D01*
X470573Y123016D01*
X471297Y122730D01*
X472026Y122462D01*
X472763Y122212D01*
X473505Y121981D01*
X474253Y121767D01*
X475005Y121572D01*
X475763Y121395D01*
X476524Y121237D01*
X477289Y121097D01*
X478057Y120977D01*
X478828Y120875D01*
X479601Y120792D01*
X480376Y120728D01*
X481152Y120683D01*
X481929Y120657D01*
X482707Y120650D01*
X483484Y120662D01*
X484261Y120693D01*
X485037Y120744D01*
X485812Y120813D01*
X486584Y120901D01*
X487354Y121008D01*
X488122Y121134D01*
X488886Y121278D01*
X489646Y121442D01*
X490402Y121624D01*
X491153Y121824D01*
X491900Y122042D01*
X492640Y122279D01*
X493375Y122534D01*
X494103Y122807D01*
X494824Y123098D01*
X495538Y123406D01*
X496244Y123731D01*
X496942Y124074D01*
X497632Y124434D01*
X498312Y124810D01*
X498983Y125203D01*
X499644Y125613D01*
X500295Y126038D01*
X500935Y126479D01*
X501564Y126936D01*
X502182Y127408D01*
X502788Y127895D01*
X503382Y128397D01*
X503964Y128913D01*
X504533Y129443D01*
X505088Y129987D01*
X505631Y130545D01*
X506159Y131115D01*
X506673Y131698D01*
X507173Y132294D01*
X507658Y132902D01*
X508128Y133521D01*
X508582Y134152D01*
X509021Y134794D01*
X509445Y135446D01*
X509852Y136109D01*
X510243Y136781D01*
X510617Y137463D01*
X510974Y138153D01*
X511314Y138852D01*
X511638Y139560D01*
X511943Y140274D01*
X512232Y140997D01*
X512502Y141726D01*
X512754Y142461D01*
X512989Y143203D01*
X513205Y143950D01*
X513403Y144702D01*
X513582Y145458D01*
X513743Y146219D01*
X513885Y146983D01*
X514008Y147751D01*
X514112Y148522D01*
X514198Y149295D01*
X514264Y150069D01*
X514312Y150845D01*
X514340Y151622D01*
X514350Y152400D01*
X514340Y153178D01*
X514312Y153955D01*
X514264Y154731D01*
X514198Y155505D01*
X514112Y156278D01*
X514008Y157049D01*
X513885Y157817D01*
X513743Y158581D01*
X513582Y159342D01*
X513403Y160098D01*
X513205Y160850D01*
X512989Y161597D01*
X512754Y162339D01*
X512502Y163074D01*
X512232Y163803D01*
X511943Y164526D01*
X511638Y165240D01*
X511314Y165948D01*
X510974Y166647D01*
X510617Y167337D01*
X510243Y168019D01*
X509852Y168691D01*
X509445Y169354D01*
X509021Y170006D01*
X508582Y170648D01*
X508128Y171279D01*
X507658Y171898D01*
X507173Y172506D01*
X506673Y173102D01*
X506159Y173685D01*
X505631Y174255D01*
X505088Y174813D01*
X504533Y175357D01*
X503964Y175887D01*
X503382Y176403D01*
X502788Y176905D01*
X502182Y177392D01*
X501564Y177864D01*
X500935Y178321D01*
X500295Y178762D01*
X499644Y179187D01*
X498983Y179597D01*
X498312Y179990D01*
X497632Y180366D01*
X496942Y180726D01*
X496244Y181069D01*
X495538Y181394D01*
X494824Y181702D01*
X494103Y181993D01*
X493375Y182266D01*
X492640Y182521D01*
X491900Y182758D01*
X491153Y182976D01*
X490402Y183176D01*
X489646Y183358D01*
X488886Y183522D01*
X488122Y183666D01*
X487354Y183792D01*
X486584Y183899D01*
X485812Y183987D01*
X485037Y184056D01*
X484261Y184107D01*
X483484Y184138D01*
X482707Y184150D01*
X481929Y184143D01*
X481152Y184117D01*
X480376Y184072D01*
X479601Y184008D01*
X478828Y183925D01*
X478057Y183823D01*
X477289Y183703D01*
X476524Y183563D01*
X475763Y183405D01*
X475005Y183228D01*
X474253Y183033D01*
X473505Y182819D01*
X472763Y182588D01*
X472026Y182338D01*
X471297Y182070D01*
X470573Y181784D01*
X469857Y181481D01*
X469149Y181160D01*
X468449Y180822D01*
X467757Y180467D01*
X467074Y180095D01*
X466401Y179706D01*
X465737Y179302D01*
X465083Y178881D01*
X464440Y178444D01*
X463807Y177991D01*
X463186Y177523D01*
X462577Y177040D01*
X461980Y176543D01*
X461395Y176030D01*
X460822Y175504D01*
X460263Y174964D01*
X459717Y174410D01*
X459185Y173843D01*
X458667Y173263D01*
X458163Y172671D01*
X457674Y172066D01*
X457200Y171450D01*
D11*
X457200Y152400D02*
X457208Y153023D01*
X457231Y153646D01*
X457269Y154269D01*
X457322Y154890D01*
X457391Y155509D01*
X457475Y156127D01*
X457574Y156742D01*
X457688Y157355D01*
X457817Y157965D01*
X457961Y158572D01*
X458120Y159175D01*
X458294Y159773D01*
X458482Y160368D01*
X458685Y160957D01*
X458902Y161541D01*
X459133Y162120D01*
X459379Y162693D01*
X459639Y163260D01*
X459912Y163820D01*
X460199Y164373D01*
X460500Y164920D01*
X460814Y165458D01*
X461141Y165989D01*
X461481Y166511D01*
X461833Y167026D01*
X462199Y167531D01*
X462576Y168027D01*
X462966Y168514D01*
X463367Y168991D01*
X463780Y169458D01*
X464204Y169914D01*
X464639Y170361D01*
X465086Y170796D01*
X465542Y171220D01*
X466009Y171633D01*
X466486Y172034D01*
X466973Y172424D01*
X467469Y172801D01*
X467974Y173167D01*
X468489Y173519D01*
X469011Y173859D01*
X469542Y174186D01*
X470080Y174500D01*
X470627Y174801D01*
X471180Y175088D01*
X471740Y175361D01*
X472307Y175621D01*
X472880Y175867D01*
X473459Y176098D01*
X474043Y176315D01*
X474632Y176518D01*
X475227Y176706D01*
X475825Y176880D01*
X476428Y177039D01*
X477035Y177183D01*
X477645Y177312D01*
X478258Y177426D01*
X478873Y177525D01*
X479491Y177609D01*
X480110Y177678D01*
X480731Y177731D01*
X481354Y177769D01*
X481977Y177792D01*
X482600Y177800D01*
X483223Y177792D01*
X483846Y177769D01*
X484469Y177731D01*
X485090Y177678D01*
X485709Y177609D01*
X486327Y177525D01*
X486942Y177426D01*
X487555Y177312D01*
X488165Y177183D01*
X488772Y177039D01*
X489375Y176880D01*
X489973Y176706D01*
X490568Y176518D01*
X491157Y176315D01*
X491741Y176098D01*
X492320Y175867D01*
X492893Y175621D01*
X493460Y175361D01*
X494020Y175088D01*
X494573Y174801D01*
X495120Y174500D01*
X495658Y174186D01*
X496189Y173859D01*
X496711Y173519D01*
X497226Y173167D01*
X497731Y172801D01*
X498227Y172424D01*
X498714Y172034D01*
X499191Y171633D01*
X499658Y171220D01*
X500114Y170796D01*
X500561Y170361D01*
X500996Y169914D01*
X501420Y169458D01*
X501833Y168991D01*
X502234Y168514D01*
X502624Y168027D01*
X503001Y167531D01*
X503367Y167026D01*
X503719Y166511D01*
X504059Y165989D01*
X504386Y165458D01*
X504700Y164920D01*
X505001Y164373D01*
X505288Y163820D01*
X505561Y163260D01*
X505821Y162693D01*
X506067Y162120D01*
X506298Y161541D01*
X506515Y160957D01*
X506718Y160368D01*
X506906Y159773D01*
X507080Y159175D01*
X507239Y158572D01*
X507383Y157965D01*
X507512Y157355D01*
X507626Y156742D01*
X507725Y156127D01*
X507809Y155509D01*
X507878Y154890D01*
X507931Y154269D01*
X507969Y153646D01*
X507992Y153023D01*
X508000Y152400D01*
X507992Y151777D01*
X507969Y151154D01*
X507931Y150531D01*
X507878Y149910D01*
X507809Y149291D01*
X507725Y148673D01*
X507626Y148058D01*
X507512Y147445D01*
X507383Y146835D01*
X507239Y146228D01*
X507080Y145625D01*
X506906Y145027D01*
X506718Y144432D01*
X506515Y143843D01*
X506298Y143259D01*
X506067Y142680D01*
X505821Y142107D01*
X505561Y141540D01*
X505288Y140980D01*
X505001Y140427D01*
X504700Y139880D01*
X504386Y139342D01*
X504059Y138811D01*
X503719Y138289D01*
X503367Y137774D01*
X503001Y137269D01*
X502624Y136773D01*
X502234Y136286D01*
X501833Y135809D01*
X501420Y135342D01*
X500996Y134886D01*
X500561Y134439D01*
X500114Y134004D01*
X499658Y133580D01*
X499191Y133167D01*
X498714Y132766D01*
X498227Y132376D01*
X497731Y131999D01*
X497226Y131633D01*
X496711Y131281D01*
X496189Y130941D01*
X495658Y130614D01*
X495120Y130300D01*
X494573Y129999D01*
X494020Y129712D01*
X493460Y129439D01*
X492893Y129179D01*
X492320Y128933D01*
X491741Y128702D01*
X491157Y128485D01*
X490568Y128282D01*
X489973Y128094D01*
X489375Y127920D01*
X488772Y127761D01*
X488165Y127617D01*
X487555Y127488D01*
X486942Y127374D01*
X486327Y127275D01*
X485709Y127191D01*
X485090Y127122D01*
X484469Y127069D01*
X483846Y127031D01*
X483223Y127008D01*
X482600Y127000D01*
X481977Y127008D01*
X481354Y127031D01*
X480731Y127069D01*
X480110Y127122D01*
X479491Y127191D01*
X478873Y127275D01*
X478258Y127374D01*
X477645Y127488D01*
X477035Y127617D01*
X476428Y127761D01*
X475825Y127920D01*
X475227Y128094D01*
X474632Y128282D01*
X474043Y128485D01*
X473459Y128702D01*
X472880Y128933D01*
X472307Y129179D01*
X471740Y129439D01*
X471180Y129712D01*
X470627Y129999D01*
X470080Y130300D01*
X469542Y130614D01*
X469011Y130941D01*
X468489Y131281D01*
X467974Y131633D01*
X467469Y131999D01*
X466973Y132376D01*
X466486Y132766D01*
X466009Y133167D01*
X465542Y133580D01*
X465086Y134004D01*
X464639Y134439D01*
X464204Y134886D01*
X463780Y135342D01*
X463367Y135809D01*
X462966Y136286D01*
X462576Y136773D01*
X462199Y137269D01*
X461833Y137774D01*
X461481Y138289D01*
X461141Y138811D01*
X460814Y139342D01*
X460500Y139880D01*
X460199Y140427D01*
X459912Y140980D01*
X459639Y141540D01*
X459379Y142107D01*
X459133Y142680D01*
X458902Y143259D01*
X458685Y143843D01*
X458482Y144432D01*
X458294Y145027D01*
X458120Y145625D01*
X457961Y146228D01*
X457817Y146835D01*
X457688Y147445D01*
X457574Y148058D01*
X457475Y148673D01*
X457391Y149291D01*
X457322Y149910D01*
X457269Y150531D01*
X457231Y151154D01*
X457208Y151777D01*
X457200Y152400D01*
X240030Y146050D02*
X240030Y140970D01*
X234950Y140970D01*
X240030Y158750D02*
X240030Y163830D01*
X234950Y163830D01*
X222250Y163830D02*
X217170Y163830D01*
X217170Y158750D01*
X217170Y146050D02*
X217170Y140970D01*
X222250Y140970D01*
X410210Y140970D02*
X410310Y140972D01*
X410409Y140978D01*
X410509Y140988D01*
X410607Y141001D01*
X410706Y141019D01*
X410803Y141040D01*
X410899Y141065D01*
X410995Y141094D01*
X411089Y141127D01*
X411182Y141163D01*
X411273Y141203D01*
X411363Y141247D01*
X411451Y141294D01*
X411537Y141344D01*
X411621Y141398D01*
X411703Y141455D01*
X411782Y141515D01*
X411860Y141579D01*
X411934Y141645D01*
X412006Y141714D01*
X412075Y141786D01*
X412141Y141860D01*
X412205Y141938D01*
X412265Y142017D01*
X412322Y142099D01*
X412376Y142183D01*
X412426Y142269D01*
X412473Y142357D01*
X412517Y142447D01*
X412557Y142538D01*
X412593Y142631D01*
X412626Y142725D01*
X412655Y142821D01*
X412680Y142917D01*
X412701Y143014D01*
X412719Y143113D01*
X412732Y143211D01*
X412742Y143311D01*
X412748Y143410D01*
X412750Y143510D01*
X412750Y161290D02*
X412748Y161390D01*
X412742Y161489D01*
X412732Y161589D01*
X412719Y161687D01*
X412701Y161786D01*
X412680Y161883D01*
X412655Y161979D01*
X412626Y162075D01*
X412593Y162169D01*
X412557Y162262D01*
X412517Y162353D01*
X412473Y162443D01*
X412426Y162531D01*
X412376Y162617D01*
X412322Y162701D01*
X412265Y162783D01*
X412205Y162862D01*
X412141Y162940D01*
X412075Y163014D01*
X412006Y163086D01*
X411934Y163155D01*
X411860Y163221D01*
X411782Y163285D01*
X411703Y163345D01*
X411621Y163402D01*
X411537Y163456D01*
X411451Y163506D01*
X411363Y163553D01*
X411273Y163597D01*
X411182Y163637D01*
X411089Y163673D01*
X410995Y163706D01*
X410899Y163735D01*
X410803Y163760D01*
X410706Y163781D01*
X410607Y163799D01*
X410509Y163812D01*
X410409Y163822D01*
X410310Y163828D01*
X410210Y163830D01*
X351790Y163830D02*
X351690Y163828D01*
X351591Y163822D01*
X351491Y163812D01*
X351393Y163799D01*
X351294Y163781D01*
X351197Y163760D01*
X351101Y163735D01*
X351005Y163706D01*
X350911Y163673D01*
X350818Y163637D01*
X350727Y163597D01*
X350637Y163553D01*
X350549Y163506D01*
X350463Y163456D01*
X350379Y163402D01*
X350297Y163345D01*
X350218Y163285D01*
X350140Y163221D01*
X350066Y163155D01*
X349994Y163086D01*
X349925Y163014D01*
X349859Y162940D01*
X349795Y162862D01*
X349735Y162783D01*
X349678Y162701D01*
X349624Y162617D01*
X349574Y162531D01*
X349527Y162443D01*
X349483Y162353D01*
X349443Y162262D01*
X349407Y162169D01*
X349374Y162075D01*
X349345Y161979D01*
X349320Y161883D01*
X349299Y161786D01*
X349281Y161687D01*
X349268Y161589D01*
X349258Y161489D01*
X349252Y161390D01*
X349250Y161290D01*
X349250Y143510D02*
X349252Y143410D01*
X349258Y143311D01*
X349268Y143211D01*
X349281Y143113D01*
X349299Y143014D01*
X349320Y142917D01*
X349345Y142821D01*
X349374Y142725D01*
X349407Y142631D01*
X349443Y142538D01*
X349483Y142447D01*
X349527Y142357D01*
X349574Y142269D01*
X349624Y142183D01*
X349678Y142099D01*
X349735Y142017D01*
X349795Y141938D01*
X349859Y141860D01*
X349925Y141786D01*
X349994Y141714D01*
X350066Y141645D01*
X350140Y141579D01*
X350218Y141515D01*
X350297Y141455D01*
X350379Y141398D01*
X350463Y141344D01*
X350549Y141294D01*
X350637Y141247D01*
X350727Y141203D01*
X350818Y141163D01*
X350911Y141127D01*
X351005Y141094D01*
X351101Y141065D01*
X351197Y141040D01*
X351294Y141019D01*
X351393Y141001D01*
X351491Y140988D01*
X351591Y140978D01*
X351690Y140972D01*
X351790Y140970D01*
X412750Y143510D02*
X412750Y161290D01*
X410210Y140970D02*
X406400Y140970D01*
X405130Y142240D01*
X406400Y163830D02*
X410210Y163830D01*
X406400Y163830D02*
X405130Y162560D01*
X356870Y142240D02*
X355600Y140970D01*
X356870Y142240D02*
X405130Y142240D01*
X356870Y162560D02*
X355600Y163830D01*
X356870Y162560D02*
X405130Y162560D01*
X355600Y140970D02*
X351790Y140970D01*
X351790Y163830D02*
X355600Y163830D01*
X349250Y161290D02*
X349250Y143510D01*
D10*
X369159Y154312D02*
X372972Y158125D01*
X372972Y146685D01*
X369159Y146685D02*
X376786Y146685D01*
X380853Y156218D02*
X382760Y158125D01*
X386573Y158125D01*
X388480Y156218D01*
X388480Y154312D01*
X386573Y152405D01*
X388480Y150498D01*
X388480Y148592D01*
X386573Y146685D01*
X382760Y146685D01*
X380853Y148592D01*
X380853Y150498D01*
X382760Y152405D01*
X380853Y154312D01*
X380853Y156218D01*
X382760Y152405D02*
X386573Y152405D01*
X392547Y148592D02*
X392547Y156218D01*
X394454Y158125D01*
X398267Y158125D01*
X400173Y156218D01*
X400173Y148592D01*
X398267Y146685D01*
X394454Y146685D01*
X392547Y148592D01*
X400173Y156218D01*
D15*
X344932Y152400D03*
X417068Y152400D03*
D16*
X533400Y171450D02*
X533400Y133350D01*
D17*
X533874Y132734D01*
X534363Y132129D01*
X534867Y131537D01*
X535385Y130957D01*
X535917Y130390D01*
X536463Y129836D01*
X537022Y129296D01*
X537595Y128770D01*
X538180Y128257D01*
X538777Y127760D01*
X539386Y127277D01*
X540007Y126809D01*
X540640Y126356D01*
X541283Y125919D01*
X541937Y125498D01*
X542601Y125094D01*
X543274Y124705D01*
X543957Y124333D01*
X544649Y123978D01*
X545349Y123640D01*
X546057Y123319D01*
X546773Y123016D01*
X547497Y122730D01*
X548226Y122462D01*
X548963Y122212D01*
X549705Y121981D01*
X550453Y121767D01*
X551205Y121572D01*
X551963Y121395D01*
X552724Y121237D01*
X553489Y121097D01*
X554257Y120977D01*
X555028Y120875D01*
X555801Y120792D01*
X556576Y120728D01*
X557352Y120683D01*
X558129Y120657D01*
X558907Y120650D01*
X559684Y120662D01*
X560461Y120693D01*
X561237Y120744D01*
X562012Y120813D01*
X562784Y120901D01*
X563554Y121008D01*
X564322Y121134D01*
X565086Y121278D01*
X565846Y121442D01*
X566602Y121624D01*
X567353Y121824D01*
X568100Y122042D01*
X568840Y122279D01*
X569575Y122534D01*
X570303Y122807D01*
X571024Y123098D01*
X571738Y123406D01*
X572444Y123731D01*
X573142Y124074D01*
X573832Y124434D01*
X574512Y124810D01*
X575183Y125203D01*
X575844Y125613D01*
X576495Y126038D01*
X577135Y126479D01*
X577764Y126936D01*
X578382Y127408D01*
X578988Y127895D01*
X579582Y128397D01*
X580164Y128913D01*
X580733Y129443D01*
X581288Y129987D01*
X581831Y130545D01*
X582359Y131115D01*
X582873Y131698D01*
X583373Y132294D01*
X583858Y132902D01*
X584328Y133521D01*
X584782Y134152D01*
X585221Y134794D01*
X585645Y135446D01*
X586052Y136109D01*
X586443Y136781D01*
X586817Y137463D01*
X587174Y138153D01*
X587514Y138852D01*
X587838Y139560D01*
X588143Y140274D01*
X588432Y140997D01*
X588702Y141726D01*
X588954Y142461D01*
X589189Y143203D01*
X589405Y143950D01*
X589603Y144702D01*
X589782Y145458D01*
X589943Y146219D01*
X590085Y146983D01*
X590208Y147751D01*
X590312Y148522D01*
X590398Y149295D01*
X590464Y150069D01*
X590512Y150845D01*
X590540Y151622D01*
X590550Y152400D01*
X590540Y153178D01*
X590512Y153955D01*
X590464Y154731D01*
X590398Y155505D01*
X590312Y156278D01*
X590208Y157049D01*
X590085Y157817D01*
X589943Y158581D01*
X589782Y159342D01*
X589603Y160098D01*
X589405Y160850D01*
X589189Y161597D01*
X588954Y162339D01*
X588702Y163074D01*
X588432Y163803D01*
X588143Y164526D01*
X587838Y165240D01*
X587514Y165948D01*
X587174Y166647D01*
X586817Y167337D01*
X586443Y168019D01*
X586052Y168691D01*
X585645Y169354D01*
X585221Y170006D01*
X584782Y170648D01*
X584328Y171279D01*
X583858Y171898D01*
X583373Y172506D01*
X582873Y173102D01*
X582359Y173685D01*
X581831Y174255D01*
X581288Y174813D01*
X580733Y175357D01*
X580164Y175887D01*
X579582Y176403D01*
X578988Y176905D01*
X578382Y177392D01*
X577764Y177864D01*
X577135Y178321D01*
X576495Y178762D01*
X575844Y179187D01*
X575183Y179597D01*
X574512Y179990D01*
X573832Y180366D01*
X573142Y180726D01*
X572444Y181069D01*
X571738Y181394D01*
X571024Y181702D01*
X570303Y181993D01*
X569575Y182266D01*
X568840Y182521D01*
X568100Y182758D01*
X567353Y182976D01*
X566602Y183176D01*
X565846Y183358D01*
X565086Y183522D01*
X564322Y183666D01*
X563554Y183792D01*
X562784Y183899D01*
X562012Y183987D01*
X561237Y184056D01*
X560461Y184107D01*
X559684Y184138D01*
X558907Y184150D01*
X558129Y184143D01*
X557352Y184117D01*
X556576Y184072D01*
X555801Y184008D01*
X555028Y183925D01*
X554257Y183823D01*
X553489Y183703D01*
X552724Y183563D01*
X551963Y183405D01*
X551205Y183228D01*
X550453Y183033D01*
X549705Y182819D01*
X548963Y182588D01*
X548226Y182338D01*
X547497Y182070D01*
X546773Y181784D01*
X546057Y181481D01*
X545349Y181160D01*
X544649Y180822D01*
X543957Y180467D01*
X543274Y180095D01*
X542601Y179706D01*
X541937Y179302D01*
X541283Y178881D01*
X540640Y178444D01*
X540007Y177991D01*
X539386Y177523D01*
X538777Y177040D01*
X538180Y176543D01*
X537595Y176030D01*
X537022Y175504D01*
X536463Y174964D01*
X535917Y174410D01*
X535385Y173843D01*
X534867Y173263D01*
X534363Y172671D01*
X533874Y172066D01*
X533400Y171450D01*
D11*
X533400Y152400D02*
X533408Y153023D01*
X533431Y153646D01*
X533469Y154269D01*
X533522Y154890D01*
X533591Y155509D01*
X533675Y156127D01*
X533774Y156742D01*
X533888Y157355D01*
X534017Y157965D01*
X534161Y158572D01*
X534320Y159175D01*
X534494Y159773D01*
X534682Y160368D01*
X534885Y160957D01*
X535102Y161541D01*
X535333Y162120D01*
X535579Y162693D01*
X535839Y163260D01*
X536112Y163820D01*
X536399Y164373D01*
X536700Y164920D01*
X537014Y165458D01*
X537341Y165989D01*
X537681Y166511D01*
X538033Y167026D01*
X538399Y167531D01*
X538776Y168027D01*
X539166Y168514D01*
X539567Y168991D01*
X539980Y169458D01*
X540404Y169914D01*
X540839Y170361D01*
X541286Y170796D01*
X541742Y171220D01*
X542209Y171633D01*
X542686Y172034D01*
X543173Y172424D01*
X543669Y172801D01*
X544174Y173167D01*
X544689Y173519D01*
X545211Y173859D01*
X545742Y174186D01*
X546280Y174500D01*
X546827Y174801D01*
X547380Y175088D01*
X547940Y175361D01*
X548507Y175621D01*
X549080Y175867D01*
X549659Y176098D01*
X550243Y176315D01*
X550832Y176518D01*
X551427Y176706D01*
X552025Y176880D01*
X552628Y177039D01*
X553235Y177183D01*
X553845Y177312D01*
X554458Y177426D01*
X555073Y177525D01*
X555691Y177609D01*
X556310Y177678D01*
X556931Y177731D01*
X557554Y177769D01*
X558177Y177792D01*
X558800Y177800D01*
X559423Y177792D01*
X560046Y177769D01*
X560669Y177731D01*
X561290Y177678D01*
X561909Y177609D01*
X562527Y177525D01*
X563142Y177426D01*
X563755Y177312D01*
X564365Y177183D01*
X564972Y177039D01*
X565575Y176880D01*
X566173Y176706D01*
X566768Y176518D01*
X567357Y176315D01*
X567941Y176098D01*
X568520Y175867D01*
X569093Y175621D01*
X569660Y175361D01*
X570220Y175088D01*
X570773Y174801D01*
X571320Y174500D01*
X571858Y174186D01*
X572389Y173859D01*
X572911Y173519D01*
X573426Y173167D01*
X573931Y172801D01*
X574427Y172424D01*
X574914Y172034D01*
X575391Y171633D01*
X575858Y171220D01*
X576314Y170796D01*
X576761Y170361D01*
X577196Y169914D01*
X577620Y169458D01*
X578033Y168991D01*
X578434Y168514D01*
X578824Y168027D01*
X579201Y167531D01*
X579567Y167026D01*
X579919Y166511D01*
X580259Y165989D01*
X580586Y165458D01*
X580900Y164920D01*
X581201Y164373D01*
X581488Y163820D01*
X581761Y163260D01*
X582021Y162693D01*
X582267Y162120D01*
X582498Y161541D01*
X582715Y160957D01*
X582918Y160368D01*
X583106Y159773D01*
X583280Y159175D01*
X583439Y158572D01*
X583583Y157965D01*
X583712Y157355D01*
X583826Y156742D01*
X583925Y156127D01*
X584009Y155509D01*
X584078Y154890D01*
X584131Y154269D01*
X584169Y153646D01*
X584192Y153023D01*
X584200Y152400D01*
X584192Y151777D01*
X584169Y151154D01*
X584131Y150531D01*
X584078Y149910D01*
X584009Y149291D01*
X583925Y148673D01*
X583826Y148058D01*
X583712Y147445D01*
X583583Y146835D01*
X583439Y146228D01*
X583280Y145625D01*
X583106Y145027D01*
X582918Y144432D01*
X582715Y143843D01*
X582498Y143259D01*
X582267Y142680D01*
X582021Y142107D01*
X581761Y141540D01*
X581488Y140980D01*
X581201Y140427D01*
X580900Y139880D01*
X580586Y139342D01*
X580259Y138811D01*
X579919Y138289D01*
X579567Y137774D01*
X579201Y137269D01*
X578824Y136773D01*
X578434Y136286D01*
X578033Y135809D01*
X577620Y135342D01*
X577196Y134886D01*
X576761Y134439D01*
X576314Y134004D01*
X575858Y133580D01*
X575391Y133167D01*
X574914Y132766D01*
X574427Y132376D01*
X573931Y131999D01*
X573426Y131633D01*
X572911Y131281D01*
X572389Y130941D01*
X571858Y130614D01*
X571320Y130300D01*
X570773Y129999D01*
X570220Y129712D01*
X569660Y129439D01*
X569093Y129179D01*
X568520Y128933D01*
X567941Y128702D01*
X567357Y128485D01*
X566768Y128282D01*
X566173Y128094D01*
X565575Y127920D01*
X564972Y127761D01*
X564365Y127617D01*
X563755Y127488D01*
X563142Y127374D01*
X562527Y127275D01*
X561909Y127191D01*
X561290Y127122D01*
X560669Y127069D01*
X560046Y127031D01*
X559423Y127008D01*
X558800Y127000D01*
X558177Y127008D01*
X557554Y127031D01*
X556931Y127069D01*
X556310Y127122D01*
X555691Y127191D01*
X555073Y127275D01*
X554458Y127374D01*
X553845Y127488D01*
X553235Y127617D01*
X552628Y127761D01*
X552025Y127920D01*
X551427Y128094D01*
X550832Y128282D01*
X550243Y128485D01*
X549659Y128702D01*
X549080Y128933D01*
X548507Y129179D01*
X547940Y129439D01*
X547380Y129712D01*
X546827Y129999D01*
X546280Y130300D01*
X545742Y130614D01*
X545211Y130941D01*
X544689Y131281D01*
X544174Y131633D01*
X543669Y131999D01*
X543173Y132376D01*
X542686Y132766D01*
X542209Y133167D01*
X541742Y133580D01*
X541286Y134004D01*
X540839Y134439D01*
X540404Y134886D01*
X539980Y135342D01*
X539567Y135809D01*
X539166Y136286D01*
X538776Y136773D01*
X538399Y137269D01*
X538033Y137774D01*
X537681Y138289D01*
X537341Y138811D01*
X537014Y139342D01*
X536700Y139880D01*
X536399Y140427D01*
X536112Y140980D01*
X535839Y141540D01*
X535579Y142107D01*
X535333Y142680D01*
X535102Y143259D01*
X534885Y143843D01*
X534682Y144432D01*
X534494Y145027D01*
X534320Y145625D01*
X534161Y146228D01*
X534017Y146835D01*
X533888Y147445D01*
X533774Y148058D01*
X533675Y148673D01*
X533591Y149291D01*
X533522Y149910D01*
X533469Y150531D01*
X533431Y151154D01*
X533408Y151777D01*
X533400Y152400D01*
X240030Y120650D02*
X240030Y115570D01*
X234950Y115570D01*
X240030Y133350D02*
X240030Y138430D01*
X234950Y138430D01*
X222250Y138430D02*
X217170Y138430D01*
X217170Y133350D01*
X217170Y120650D02*
X217170Y115570D01*
X222250Y115570D01*
X410210Y115570D02*
X410310Y115572D01*
X410409Y115578D01*
X410509Y115588D01*
X410607Y115601D01*
X410706Y115619D01*
X410803Y115640D01*
X410899Y115665D01*
X410995Y115694D01*
X411089Y115727D01*
X411182Y115763D01*
X411273Y115803D01*
X411363Y115847D01*
X411451Y115894D01*
X411537Y115944D01*
X411621Y115998D01*
X411703Y116055D01*
X411782Y116115D01*
X411860Y116179D01*
X411934Y116245D01*
X412006Y116314D01*
X412075Y116386D01*
X412141Y116460D01*
X412205Y116538D01*
X412265Y116617D01*
X412322Y116699D01*
X412376Y116783D01*
X412426Y116869D01*
X412473Y116957D01*
X412517Y117047D01*
X412557Y117138D01*
X412593Y117231D01*
X412626Y117325D01*
X412655Y117421D01*
X412680Y117517D01*
X412701Y117614D01*
X412719Y117713D01*
X412732Y117811D01*
X412742Y117911D01*
X412748Y118010D01*
X412750Y118110D01*
X412750Y135890D02*
X412748Y135990D01*
X412742Y136089D01*
X412732Y136189D01*
X412719Y136287D01*
X412701Y136386D01*
X412680Y136483D01*
X412655Y136579D01*
X412626Y136675D01*
X412593Y136769D01*
X412557Y136862D01*
X412517Y136953D01*
X412473Y137043D01*
X412426Y137131D01*
X412376Y137217D01*
X412322Y137301D01*
X412265Y137383D01*
X412205Y137462D01*
X412141Y137540D01*
X412075Y137614D01*
X412006Y137686D01*
X411934Y137755D01*
X411860Y137821D01*
X411782Y137885D01*
X411703Y137945D01*
X411621Y138002D01*
X411537Y138056D01*
X411451Y138106D01*
X411363Y138153D01*
X411273Y138197D01*
X411182Y138237D01*
X411089Y138273D01*
X410995Y138306D01*
X410899Y138335D01*
X410803Y138360D01*
X410706Y138381D01*
X410607Y138399D01*
X410509Y138412D01*
X410409Y138422D01*
X410310Y138428D01*
X410210Y138430D01*
X351790Y138430D02*
X351690Y138428D01*
X351591Y138422D01*
X351491Y138412D01*
X351393Y138399D01*
X351294Y138381D01*
X351197Y138360D01*
X351101Y138335D01*
X351005Y138306D01*
X350911Y138273D01*
X350818Y138237D01*
X350727Y138197D01*
X350637Y138153D01*
X350549Y138106D01*
X350463Y138056D01*
X350379Y138002D01*
X350297Y137945D01*
X350218Y137885D01*
X350140Y137821D01*
X350066Y137755D01*
X349994Y137686D01*
X349925Y137614D01*
X349859Y137540D01*
X349795Y137462D01*
X349735Y137383D01*
X349678Y137301D01*
X349624Y137217D01*
X349574Y137131D01*
X349527Y137043D01*
X349483Y136953D01*
X349443Y136862D01*
X349407Y136769D01*
X349374Y136675D01*
X349345Y136579D01*
X349320Y136483D01*
X349299Y136386D01*
X349281Y136287D01*
X349268Y136189D01*
X349258Y136089D01*
X349252Y135990D01*
X349250Y135890D01*
X349250Y118110D02*
X349252Y118010D01*
X349258Y117911D01*
X349268Y117811D01*
X349281Y117713D01*
X349299Y117614D01*
X349320Y117517D01*
X349345Y117421D01*
X349374Y117325D01*
X349407Y117231D01*
X349443Y117138D01*
X349483Y117047D01*
X349527Y116957D01*
X349574Y116869D01*
X349624Y116783D01*
X349678Y116699D01*
X349735Y116617D01*
X349795Y116538D01*
X349859Y116460D01*
X349925Y116386D01*
X349994Y116314D01*
X350066Y116245D01*
X350140Y116179D01*
X350218Y116115D01*
X350297Y116055D01*
X350379Y115998D01*
X350463Y115944D01*
X350549Y115894D01*
X350637Y115847D01*
X350727Y115803D01*
X350818Y115763D01*
X350911Y115727D01*
X351005Y115694D01*
X351101Y115665D01*
X351197Y115640D01*
X351294Y115619D01*
X351393Y115601D01*
X351491Y115588D01*
X351591Y115578D01*
X351690Y115572D01*
X351790Y115570D01*
X412750Y118110D02*
X412750Y135890D01*
X410210Y115570D02*
X406400Y115570D01*
X405130Y116840D01*
X406400Y138430D02*
X410210Y138430D01*
X406400Y138430D02*
X405130Y137160D01*
X356870Y116840D02*
X355600Y115570D01*
X356870Y116840D02*
X405130Y116840D01*
X356870Y137160D02*
X355600Y138430D01*
X356870Y137160D02*
X405130Y137160D01*
X355600Y115570D02*
X351790Y115570D01*
X351790Y138430D02*
X355600Y138430D01*
X349250Y135890D02*
X349250Y118110D01*
D10*
X369159Y128912D02*
X372972Y132725D01*
X372972Y121285D01*
X369159Y121285D02*
X376786Y121285D01*
X380853Y130818D02*
X382760Y132725D01*
X386573Y132725D01*
X388480Y130818D01*
X388480Y128912D01*
X386573Y127005D01*
X388480Y125098D01*
X388480Y123192D01*
X386573Y121285D01*
X382760Y121285D01*
X380853Y123192D01*
X380853Y125098D01*
X382760Y127005D01*
X380853Y128912D01*
X380853Y130818D01*
X382760Y127005D02*
X386573Y127005D01*
X392547Y123192D02*
X392547Y130818D01*
X394454Y132725D01*
X398267Y132725D01*
X400173Y130818D01*
X400173Y123192D01*
X398267Y121285D01*
X394454Y121285D01*
X392547Y123192D01*
X400173Y130818D01*
D15*
X344932Y127000D03*
X417068Y127000D03*
D16*
X609600Y133350D02*
X609600Y171450D01*
D17*
X610074Y172066D01*
X610563Y172671D01*
X611067Y173263D01*
X611585Y173843D01*
X612117Y174410D01*
X612663Y174964D01*
X613222Y175504D01*
X613795Y176030D01*
X614380Y176543D01*
X614977Y177040D01*
X615586Y177523D01*
X616207Y177991D01*
X616840Y178444D01*
X617483Y178881D01*
X618137Y179302D01*
X618801Y179706D01*
X619474Y180095D01*
X620157Y180467D01*
X620849Y180822D01*
X621549Y181160D01*
X622257Y181481D01*
X622973Y181784D01*
X623697Y182070D01*
X624426Y182338D01*
X625163Y182588D01*
X625905Y182819D01*
X626653Y183033D01*
X627405Y183228D01*
X628163Y183405D01*
X628924Y183563D01*
X629689Y183703D01*
X630457Y183823D01*
X631228Y183925D01*
X632001Y184008D01*
X632776Y184072D01*
X633552Y184117D01*
X634329Y184143D01*
X635107Y184150D01*
X635884Y184138D01*
X636661Y184107D01*
X637437Y184056D01*
X638212Y183987D01*
X638984Y183899D01*
X639754Y183792D01*
X640522Y183666D01*
X641286Y183522D01*
X642046Y183358D01*
X642802Y183176D01*
X643553Y182976D01*
X644300Y182758D01*
X645040Y182521D01*
X645775Y182266D01*
X646503Y181993D01*
X647224Y181702D01*
X647938Y181394D01*
X648644Y181069D01*
X649342Y180726D01*
X650032Y180366D01*
X650712Y179990D01*
X651383Y179597D01*
X652044Y179187D01*
X652695Y178762D01*
X653335Y178321D01*
X653964Y177864D01*
X654582Y177392D01*
X655188Y176905D01*
X655782Y176403D01*
X656364Y175887D01*
X656933Y175357D01*
X657488Y174813D01*
X658031Y174255D01*
X658559Y173685D01*
X659073Y173102D01*
X659573Y172506D01*
X660058Y171898D01*
X660528Y171279D01*
X660982Y170648D01*
X661421Y170006D01*
X661845Y169354D01*
X662252Y168691D01*
X662643Y168019D01*
X663017Y167337D01*
X663374Y166647D01*
X663714Y165948D01*
X664038Y165240D01*
X664343Y164526D01*
X664632Y163803D01*
X664902Y163074D01*
X665154Y162339D01*
X665389Y161597D01*
X665605Y160850D01*
X665803Y160098D01*
X665982Y159342D01*
X666143Y158581D01*
X666285Y157817D01*
X666408Y157049D01*
X666512Y156278D01*
X666598Y155505D01*
X666664Y154731D01*
X666712Y153955D01*
X666740Y153178D01*
X666750Y152400D01*
X666740Y151622D01*
X666712Y150845D01*
X666664Y150069D01*
X666598Y149295D01*
X666512Y148522D01*
X666408Y147751D01*
X666285Y146983D01*
X666143Y146219D01*
X665982Y145458D01*
X665803Y144702D01*
X665605Y143950D01*
X665389Y143203D01*
X665154Y142461D01*
X664902Y141726D01*
X664632Y140997D01*
X664343Y140274D01*
X664038Y139560D01*
X663714Y138852D01*
X663374Y138153D01*
X663017Y137463D01*
X662643Y136781D01*
X662252Y136109D01*
X661845Y135446D01*
X661421Y134794D01*
X660982Y134152D01*
X660528Y133521D01*
X660058Y132902D01*
X659573Y132294D01*
X659073Y131698D01*
X658559Y131115D01*
X658031Y130545D01*
X657488Y129987D01*
X656933Y129443D01*
X656364Y128913D01*
X655782Y128397D01*
X655188Y127895D01*
X654582Y127408D01*
X653964Y126936D01*
X653335Y126479D01*
X652695Y126038D01*
X652044Y125613D01*
X651383Y125203D01*
X650712Y124810D01*
X650032Y124434D01*
X649342Y124074D01*
X648644Y123731D01*
X647938Y123406D01*
X647224Y123098D01*
X646503Y122807D01*
X645775Y122534D01*
X645040Y122279D01*
X644300Y122042D01*
X643553Y121824D01*
X642802Y121624D01*
X642046Y121442D01*
X641286Y121278D01*
X640522Y121134D01*
X639754Y121008D01*
X638984Y120901D01*
X638212Y120813D01*
X637437Y120744D01*
X636661Y120693D01*
X635884Y120662D01*
X635107Y120650D01*
X634329Y120657D01*
X633552Y120683D01*
X632776Y120728D01*
X632001Y120792D01*
X631228Y120875D01*
X630457Y120977D01*
X629689Y121097D01*
X628924Y121237D01*
X628163Y121395D01*
X627405Y121572D01*
X626653Y121767D01*
X625905Y121981D01*
X625163Y122212D01*
X624426Y122462D01*
X623697Y122730D01*
X622973Y123016D01*
X622257Y123319D01*
X621549Y123640D01*
X620849Y123978D01*
X620157Y124333D01*
X619474Y124705D01*
X618801Y125094D01*
X618137Y125498D01*
X617483Y125919D01*
X616840Y126356D01*
X616207Y126809D01*
X615586Y127277D01*
X614977Y127760D01*
X614380Y128257D01*
X613795Y128770D01*
X613222Y129296D01*
X612663Y129836D01*
X612117Y130390D01*
X611585Y130957D01*
X611067Y131537D01*
X610563Y132129D01*
X610074Y132734D01*
X609600Y133350D01*
D11*
X609600Y152400D02*
X609608Y153023D01*
X609631Y153646D01*
X609669Y154269D01*
X609722Y154890D01*
X609791Y155509D01*
X609875Y156127D01*
X609974Y156742D01*
X610088Y157355D01*
X610217Y157965D01*
X610361Y158572D01*
X610520Y159175D01*
X610694Y159773D01*
X610882Y160368D01*
X611085Y160957D01*
X611302Y161541D01*
X611533Y162120D01*
X611779Y162693D01*
X612039Y163260D01*
X612312Y163820D01*
X612599Y164373D01*
X612900Y164920D01*
X613214Y165458D01*
X613541Y165989D01*
X613881Y166511D01*
X614233Y167026D01*
X614599Y167531D01*
X614976Y168027D01*
X615366Y168514D01*
X615767Y168991D01*
X616180Y169458D01*
X616604Y169914D01*
X617039Y170361D01*
X617486Y170796D01*
X617942Y171220D01*
X618409Y171633D01*
X618886Y172034D01*
X619373Y172424D01*
X619869Y172801D01*
X620374Y173167D01*
X620889Y173519D01*
X621411Y173859D01*
X621942Y174186D01*
X622480Y174500D01*
X623027Y174801D01*
X623580Y175088D01*
X624140Y175361D01*
X624707Y175621D01*
X625280Y175867D01*
X625859Y176098D01*
X626443Y176315D01*
X627032Y176518D01*
X627627Y176706D01*
X628225Y176880D01*
X628828Y177039D01*
X629435Y177183D01*
X630045Y177312D01*
X630658Y177426D01*
X631273Y177525D01*
X631891Y177609D01*
X632510Y177678D01*
X633131Y177731D01*
X633754Y177769D01*
X634377Y177792D01*
X635000Y177800D01*
X635623Y177792D01*
X636246Y177769D01*
X636869Y177731D01*
X637490Y177678D01*
X638109Y177609D01*
X638727Y177525D01*
X639342Y177426D01*
X639955Y177312D01*
X640565Y177183D01*
X641172Y177039D01*
X641775Y176880D01*
X642373Y176706D01*
X642968Y176518D01*
X643557Y176315D01*
X644141Y176098D01*
X644720Y175867D01*
X645293Y175621D01*
X645860Y175361D01*
X646420Y175088D01*
X646973Y174801D01*
X647520Y174500D01*
X648058Y174186D01*
X648589Y173859D01*
X649111Y173519D01*
X649626Y173167D01*
X650131Y172801D01*
X650627Y172424D01*
X651114Y172034D01*
X651591Y171633D01*
X652058Y171220D01*
X652514Y170796D01*
X652961Y170361D01*
X653396Y169914D01*
X653820Y169458D01*
X654233Y168991D01*
X654634Y168514D01*
X655024Y168027D01*
X655401Y167531D01*
X655767Y167026D01*
X656119Y166511D01*
X656459Y165989D01*
X656786Y165458D01*
X657100Y164920D01*
X657401Y164373D01*
X657688Y163820D01*
X657961Y163260D01*
X658221Y162693D01*
X658467Y162120D01*
X658698Y161541D01*
X658915Y160957D01*
X659118Y160368D01*
X659306Y159773D01*
X659480Y159175D01*
X659639Y158572D01*
X659783Y157965D01*
X659912Y157355D01*
X660026Y156742D01*
X660125Y156127D01*
X660209Y155509D01*
X660278Y154890D01*
X660331Y154269D01*
X660369Y153646D01*
X660392Y153023D01*
X660400Y152400D01*
X660392Y151777D01*
X660369Y151154D01*
X660331Y150531D01*
X660278Y149910D01*
X660209Y149291D01*
X660125Y148673D01*
X660026Y148058D01*
X659912Y147445D01*
X659783Y146835D01*
X659639Y146228D01*
X659480Y145625D01*
X659306Y145027D01*
X659118Y144432D01*
X658915Y143843D01*
X658698Y143259D01*
X658467Y142680D01*
X658221Y142107D01*
X657961Y141540D01*
X657688Y140980D01*
X657401Y140427D01*
X657100Y139880D01*
X656786Y139342D01*
X656459Y138811D01*
X656119Y138289D01*
X655767Y137774D01*
X655401Y137269D01*
X655024Y136773D01*
X654634Y136286D01*
X654233Y135809D01*
X653820Y135342D01*
X653396Y134886D01*
X652961Y134439D01*
X652514Y134004D01*
X652058Y133580D01*
X651591Y133167D01*
X651114Y132766D01*
X650627Y132376D01*
X650131Y131999D01*
X649626Y131633D01*
X649111Y131281D01*
X648589Y130941D01*
X648058Y130614D01*
X647520Y130300D01*
X646973Y129999D01*
X646420Y129712D01*
X645860Y129439D01*
X645293Y129179D01*
X644720Y128933D01*
X644141Y128702D01*
X643557Y128485D01*
X642968Y128282D01*
X642373Y128094D01*
X641775Y127920D01*
X641172Y127761D01*
X640565Y127617D01*
X639955Y127488D01*
X639342Y127374D01*
X638727Y127275D01*
X638109Y127191D01*
X637490Y127122D01*
X636869Y127069D01*
X636246Y127031D01*
X635623Y127008D01*
X635000Y127000D01*
X634377Y127008D01*
X633754Y127031D01*
X633131Y127069D01*
X632510Y127122D01*
X631891Y127191D01*
X631273Y127275D01*
X630658Y127374D01*
X630045Y127488D01*
X629435Y127617D01*
X628828Y127761D01*
X628225Y127920D01*
X627627Y128094D01*
X627032Y128282D01*
X626443Y128485D01*
X625859Y128702D01*
X625280Y128933D01*
X624707Y129179D01*
X624140Y129439D01*
X623580Y129712D01*
X623027Y129999D01*
X622480Y130300D01*
X621942Y130614D01*
X621411Y130941D01*
X620889Y131281D01*
X620374Y131633D01*
X619869Y131999D01*
X619373Y132376D01*
X618886Y132766D01*
X618409Y133167D01*
X617942Y133580D01*
X617486Y134004D01*
X617039Y134439D01*
X616604Y134886D01*
X616180Y135342D01*
X615767Y135809D01*
X615366Y136286D01*
X614976Y136773D01*
X614599Y137269D01*
X614233Y137774D01*
X613881Y138289D01*
X613541Y138811D01*
X613214Y139342D01*
X612900Y139880D01*
X612599Y140427D01*
X612312Y140980D01*
X612039Y141540D01*
X611779Y142107D01*
X611533Y142680D01*
X611302Y143259D01*
X611085Y143843D01*
X610882Y144432D01*
X610694Y145027D01*
X610520Y145625D01*
X610361Y146228D01*
X610217Y146835D01*
X610088Y147445D01*
X609974Y148058D01*
X609875Y148673D01*
X609791Y149291D01*
X609722Y149910D01*
X609669Y150531D01*
X609631Y151154D01*
X609608Y151777D01*
X609600Y152400D01*
X240030Y95250D02*
X240030Y90170D01*
X234950Y90170D01*
X240030Y107950D02*
X240030Y113030D01*
X234950Y113030D01*
X222250Y113030D02*
X217170Y113030D01*
X217170Y107950D01*
X217170Y95250D02*
X217170Y90170D01*
X222250Y90170D01*
X410210Y90170D02*
X410310Y90172D01*
X410409Y90178D01*
X410509Y90188D01*
X410607Y90201D01*
X410706Y90219D01*
X410803Y90240D01*
X410899Y90265D01*
X410995Y90294D01*
X411089Y90327D01*
X411182Y90363D01*
X411273Y90403D01*
X411363Y90447D01*
X411451Y90494D01*
X411537Y90544D01*
X411621Y90598D01*
X411703Y90655D01*
X411782Y90715D01*
X411860Y90779D01*
X411934Y90845D01*
X412006Y90914D01*
X412075Y90986D01*
X412141Y91060D01*
X412205Y91138D01*
X412265Y91217D01*
X412322Y91299D01*
X412376Y91383D01*
X412426Y91469D01*
X412473Y91557D01*
X412517Y91647D01*
X412557Y91738D01*
X412593Y91831D01*
X412626Y91925D01*
X412655Y92021D01*
X412680Y92117D01*
X412701Y92214D01*
X412719Y92313D01*
X412732Y92411D01*
X412742Y92511D01*
X412748Y92610D01*
X412750Y92710D01*
X412750Y110490D02*
X412748Y110590D01*
X412742Y110689D01*
X412732Y110789D01*
X412719Y110887D01*
X412701Y110986D01*
X412680Y111083D01*
X412655Y111179D01*
X412626Y111275D01*
X412593Y111369D01*
X412557Y111462D01*
X412517Y111553D01*
X412473Y111643D01*
X412426Y111731D01*
X412376Y111817D01*
X412322Y111901D01*
X412265Y111983D01*
X412205Y112062D01*
X412141Y112140D01*
X412075Y112214D01*
X412006Y112286D01*
X411934Y112355D01*
X411860Y112421D01*
X411782Y112485D01*
X411703Y112545D01*
X411621Y112602D01*
X411537Y112656D01*
X411451Y112706D01*
X411363Y112753D01*
X411273Y112797D01*
X411182Y112837D01*
X411089Y112873D01*
X410995Y112906D01*
X410899Y112935D01*
X410803Y112960D01*
X410706Y112981D01*
X410607Y112999D01*
X410509Y113012D01*
X410409Y113022D01*
X410310Y113028D01*
X410210Y113030D01*
X351790Y113030D02*
X351690Y113028D01*
X351591Y113022D01*
X351491Y113012D01*
X351393Y112999D01*
X351294Y112981D01*
X351197Y112960D01*
X351101Y112935D01*
X351005Y112906D01*
X350911Y112873D01*
X350818Y112837D01*
X350727Y112797D01*
X350637Y112753D01*
X350549Y112706D01*
X350463Y112656D01*
X350379Y112602D01*
X350297Y112545D01*
X350218Y112485D01*
X350140Y112421D01*
X350066Y112355D01*
X349994Y112286D01*
X349925Y112214D01*
X349859Y112140D01*
X349795Y112062D01*
X349735Y111983D01*
X349678Y111901D01*
X349624Y111817D01*
X349574Y111731D01*
X349527Y111643D01*
X349483Y111553D01*
X349443Y111462D01*
X349407Y111369D01*
X349374Y111275D01*
X349345Y111179D01*
X349320Y111083D01*
X349299Y110986D01*
X349281Y110887D01*
X349268Y110789D01*
X349258Y110689D01*
X349252Y110590D01*
X349250Y110490D01*
X349250Y92710D02*
X349252Y92610D01*
X349258Y92511D01*
X349268Y92411D01*
X349281Y92313D01*
X349299Y92214D01*
X349320Y92117D01*
X349345Y92021D01*
X349374Y91925D01*
X349407Y91831D01*
X349443Y91738D01*
X349483Y91647D01*
X349527Y91557D01*
X349574Y91469D01*
X349624Y91383D01*
X349678Y91299D01*
X349735Y91217D01*
X349795Y91138D01*
X349859Y91060D01*
X349925Y90986D01*
X349994Y90914D01*
X350066Y90845D01*
X350140Y90779D01*
X350218Y90715D01*
X350297Y90655D01*
X350379Y90598D01*
X350463Y90544D01*
X350549Y90494D01*
X350637Y90447D01*
X350727Y90403D01*
X350818Y90363D01*
X350911Y90327D01*
X351005Y90294D01*
X351101Y90265D01*
X351197Y90240D01*
X351294Y90219D01*
X351393Y90201D01*
X351491Y90188D01*
X351591Y90178D01*
X351690Y90172D01*
X351790Y90170D01*
X412750Y92710D02*
X412750Y110490D01*
X410210Y90170D02*
X406400Y90170D01*
X405130Y91440D01*
X406400Y113030D02*
X410210Y113030D01*
X406400Y113030D02*
X405130Y111760D01*
X356870Y91440D02*
X355600Y90170D01*
X356870Y91440D02*
X405130Y91440D01*
X356870Y111760D02*
X355600Y113030D01*
X356870Y111760D02*
X405130Y111760D01*
X355600Y90170D02*
X351790Y90170D01*
X351790Y113030D02*
X355600Y113030D01*
X349250Y110490D02*
X349250Y92710D01*
D10*
X369159Y103512D02*
X372972Y107325D01*
X372972Y95885D01*
X369159Y95885D02*
X376786Y95885D01*
X380853Y105418D02*
X382760Y107325D01*
X386573Y107325D01*
X388480Y105418D01*
X388480Y103512D01*
X386573Y101605D01*
X388480Y99698D01*
X388480Y97792D01*
X386573Y95885D01*
X382760Y95885D01*
X380853Y97792D01*
X380853Y99698D01*
X382760Y101605D01*
X380853Y103512D01*
X380853Y105418D01*
X382760Y101605D02*
X386573Y101605D01*
X392547Y97792D02*
X392547Y105418D01*
X394454Y107325D01*
X398267Y107325D01*
X400173Y105418D01*
X400173Y97792D01*
X398267Y95885D01*
X394454Y95885D01*
X392547Y97792D01*
X400173Y105418D01*
D15*
X344932Y101600D03*
X417068Y101600D03*
D16*
X457200Y95250D02*
X457200Y57150D01*
D17*
X457674Y56534D01*
X458163Y55929D01*
X458667Y55337D01*
X459185Y54757D01*
X459717Y54190D01*
X460263Y53636D01*
X460822Y53096D01*
X461395Y52570D01*
X461980Y52057D01*
X462577Y51560D01*
X463186Y51077D01*
X463807Y50609D01*
X464440Y50156D01*
X465083Y49719D01*
X465737Y49298D01*
X466401Y48894D01*
X467074Y48505D01*
X467757Y48133D01*
X468449Y47778D01*
X469149Y47440D01*
X469857Y47119D01*
X470573Y46816D01*
X471297Y46530D01*
X472026Y46262D01*
X472763Y46012D01*
X473505Y45781D01*
X474253Y45567D01*
X475005Y45372D01*
X475763Y45195D01*
X476524Y45037D01*
X477289Y44897D01*
X478057Y44777D01*
X478828Y44675D01*
X479601Y44592D01*
X480376Y44528D01*
X481152Y44483D01*
X481929Y44457D01*
X482707Y44450D01*
X483484Y44462D01*
X484261Y44493D01*
X485037Y44544D01*
X485812Y44613D01*
X486584Y44701D01*
X487354Y44808D01*
X488122Y44934D01*
X488886Y45078D01*
X489646Y45242D01*
X490402Y45424D01*
X491153Y45624D01*
X491900Y45842D01*
X492640Y46079D01*
X493375Y46334D01*
X494103Y46607D01*
X494824Y46898D01*
X495538Y47206D01*
X496244Y47531D01*
X496942Y47874D01*
X497632Y48234D01*
X498312Y48610D01*
X498983Y49003D01*
X499644Y49413D01*
X500295Y49838D01*
X500935Y50279D01*
X501564Y50736D01*
X502182Y51208D01*
X502788Y51695D01*
X503382Y52197D01*
X503964Y52713D01*
X504533Y53243D01*
X505088Y53787D01*
X505631Y54345D01*
X506159Y54915D01*
X506673Y55498D01*
X507173Y56094D01*
X507658Y56702D01*
X508128Y57321D01*
X508582Y57952D01*
X509021Y58594D01*
X509445Y59246D01*
X509852Y59909D01*
X510243Y60581D01*
X510617Y61263D01*
X510974Y61953D01*
X511314Y62652D01*
X511638Y63360D01*
X511943Y64074D01*
X512232Y64797D01*
X512502Y65526D01*
X512754Y66261D01*
X512989Y67003D01*
X513205Y67750D01*
X513403Y68502D01*
X513582Y69258D01*
X513743Y70019D01*
X513885Y70783D01*
X514008Y71551D01*
X514112Y72322D01*
X514198Y73095D01*
X514264Y73869D01*
X514312Y74645D01*
X514340Y75422D01*
X514350Y76200D01*
X514340Y76978D01*
X514312Y77755D01*
X514264Y78531D01*
X514198Y79305D01*
X514112Y80078D01*
X514008Y80849D01*
X513885Y81617D01*
X513743Y82381D01*
X513582Y83142D01*
X513403Y83898D01*
X513205Y84650D01*
X512989Y85397D01*
X512754Y86139D01*
X512502Y86874D01*
X512232Y87603D01*
X511943Y88326D01*
X511638Y89040D01*
X511314Y89748D01*
X510974Y90447D01*
X510617Y91137D01*
X510243Y91819D01*
X509852Y92491D01*
X509445Y93154D01*
X509021Y93806D01*
X508582Y94448D01*
X508128Y95079D01*
X507658Y95698D01*
X507173Y96306D01*
X506673Y96902D01*
X506159Y97485D01*
X505631Y98055D01*
X505088Y98613D01*
X504533Y99157D01*
X503964Y99687D01*
X503382Y100203D01*
X502788Y100705D01*
X502182Y101192D01*
X501564Y101664D01*
X500935Y102121D01*
X500295Y102562D01*
X499644Y102987D01*
X498983Y103397D01*
X498312Y103790D01*
X497632Y104166D01*
X496942Y104526D01*
X496244Y104869D01*
X495538Y105194D01*
X494824Y105502D01*
X494103Y105793D01*
X493375Y106066D01*
X492640Y106321D01*
X491900Y106558D01*
X491153Y106776D01*
X490402Y106976D01*
X489646Y107158D01*
X488886Y107322D01*
X488122Y107466D01*
X487354Y107592D01*
X486584Y107699D01*
X485812Y107787D01*
X485037Y107856D01*
X484261Y107907D01*
X483484Y107938D01*
X482707Y107950D01*
X481929Y107943D01*
X481152Y107917D01*
X480376Y107872D01*
X479601Y107808D01*
X478828Y107725D01*
X478057Y107623D01*
X477289Y107503D01*
X476524Y107363D01*
X475763Y107205D01*
X475005Y107028D01*
X474253Y106833D01*
X473505Y106619D01*
X472763Y106388D01*
X472026Y106138D01*
X471297Y105870D01*
X470573Y105584D01*
X469857Y105281D01*
X469149Y104960D01*
X468449Y104622D01*
X467757Y104267D01*
X467074Y103895D01*
X466401Y103506D01*
X465737Y103102D01*
X465083Y102681D01*
X464440Y102244D01*
X463807Y101791D01*
X463186Y101323D01*
X462577Y100840D01*
X461980Y100343D01*
X461395Y99830D01*
X460822Y99304D01*
X460263Y98764D01*
X459717Y98210D01*
X459185Y97643D01*
X458667Y97063D01*
X458163Y96471D01*
X457674Y95866D01*
X457200Y95250D01*
D11*
X457200Y76200D02*
X457208Y76823D01*
X457231Y77446D01*
X457269Y78069D01*
X457322Y78690D01*
X457391Y79309D01*
X457475Y79927D01*
X457574Y80542D01*
X457688Y81155D01*
X457817Y81765D01*
X457961Y82372D01*
X458120Y82975D01*
X458294Y83573D01*
X458482Y84168D01*
X458685Y84757D01*
X458902Y85341D01*
X459133Y85920D01*
X459379Y86493D01*
X459639Y87060D01*
X459912Y87620D01*
X460199Y88173D01*
X460500Y88720D01*
X460814Y89258D01*
X461141Y89789D01*
X461481Y90311D01*
X461833Y90826D01*
X462199Y91331D01*
X462576Y91827D01*
X462966Y92314D01*
X463367Y92791D01*
X463780Y93258D01*
X464204Y93714D01*
X464639Y94161D01*
X465086Y94596D01*
X465542Y95020D01*
X466009Y95433D01*
X466486Y95834D01*
X466973Y96224D01*
X467469Y96601D01*
X467974Y96967D01*
X468489Y97319D01*
X469011Y97659D01*
X469542Y97986D01*
X470080Y98300D01*
X470627Y98601D01*
X471180Y98888D01*
X471740Y99161D01*
X472307Y99421D01*
X472880Y99667D01*
X473459Y99898D01*
X474043Y100115D01*
X474632Y100318D01*
X475227Y100506D01*
X475825Y100680D01*
X476428Y100839D01*
X477035Y100983D01*
X477645Y101112D01*
X478258Y101226D01*
X478873Y101325D01*
X479491Y101409D01*
X480110Y101478D01*
X480731Y101531D01*
X481354Y101569D01*
X481977Y101592D01*
X482600Y101600D01*
X483223Y101592D01*
X483846Y101569D01*
X484469Y101531D01*
X485090Y101478D01*
X485709Y101409D01*
X486327Y101325D01*
X486942Y101226D01*
X487555Y101112D01*
X488165Y100983D01*
X488772Y100839D01*
X489375Y100680D01*
X489973Y100506D01*
X490568Y100318D01*
X491157Y100115D01*
X491741Y99898D01*
X492320Y99667D01*
X492893Y99421D01*
X493460Y99161D01*
X494020Y98888D01*
X494573Y98601D01*
X495120Y98300D01*
X495658Y97986D01*
X496189Y97659D01*
X496711Y97319D01*
X497226Y96967D01*
X497731Y96601D01*
X498227Y96224D01*
X498714Y95834D01*
X499191Y95433D01*
X499658Y95020D01*
X500114Y94596D01*
X500561Y94161D01*
X500996Y93714D01*
X501420Y93258D01*
X501833Y92791D01*
X502234Y92314D01*
X502624Y91827D01*
X503001Y91331D01*
X503367Y90826D01*
X503719Y90311D01*
X504059Y89789D01*
X504386Y89258D01*
X504700Y88720D01*
X505001Y88173D01*
X505288Y87620D01*
X505561Y87060D01*
X505821Y86493D01*
X506067Y85920D01*
X506298Y85341D01*
X506515Y84757D01*
X506718Y84168D01*
X506906Y83573D01*
X507080Y82975D01*
X507239Y82372D01*
X507383Y81765D01*
X507512Y81155D01*
X507626Y80542D01*
X507725Y79927D01*
X507809Y79309D01*
X507878Y78690D01*
X507931Y78069D01*
X507969Y77446D01*
X507992Y76823D01*
X508000Y76200D01*
X507992Y75577D01*
X507969Y74954D01*
X507931Y74331D01*
X507878Y73710D01*
X507809Y73091D01*
X507725Y72473D01*
X507626Y71858D01*
X507512Y71245D01*
X507383Y70635D01*
X507239Y70028D01*
X507080Y69425D01*
X506906Y68827D01*
X506718Y68232D01*
X506515Y67643D01*
X506298Y67059D01*
X506067Y66480D01*
X505821Y65907D01*
X505561Y65340D01*
X505288Y64780D01*
X505001Y64227D01*
X504700Y63680D01*
X504386Y63142D01*
X504059Y62611D01*
X503719Y62089D01*
X503367Y61574D01*
X503001Y61069D01*
X502624Y60573D01*
X502234Y60086D01*
X501833Y59609D01*
X501420Y59142D01*
X500996Y58686D01*
X500561Y58239D01*
X500114Y57804D01*
X499658Y57380D01*
X499191Y56967D01*
X498714Y56566D01*
X498227Y56176D01*
X497731Y55799D01*
X497226Y55433D01*
X496711Y55081D01*
X496189Y54741D01*
X495658Y54414D01*
X495120Y54100D01*
X494573Y53799D01*
X494020Y53512D01*
X493460Y53239D01*
X492893Y52979D01*
X492320Y52733D01*
X491741Y52502D01*
X491157Y52285D01*
X490568Y52082D01*
X489973Y51894D01*
X489375Y51720D01*
X488772Y51561D01*
X488165Y51417D01*
X487555Y51288D01*
X486942Y51174D01*
X486327Y51075D01*
X485709Y50991D01*
X485090Y50922D01*
X484469Y50869D01*
X483846Y50831D01*
X483223Y50808D01*
X482600Y50800D01*
X481977Y50808D01*
X481354Y50831D01*
X480731Y50869D01*
X480110Y50922D01*
X479491Y50991D01*
X478873Y51075D01*
X478258Y51174D01*
X477645Y51288D01*
X477035Y51417D01*
X476428Y51561D01*
X475825Y51720D01*
X475227Y51894D01*
X474632Y52082D01*
X474043Y52285D01*
X473459Y52502D01*
X472880Y52733D01*
X472307Y52979D01*
X471740Y53239D01*
X471180Y53512D01*
X470627Y53799D01*
X470080Y54100D01*
X469542Y54414D01*
X469011Y54741D01*
X468489Y55081D01*
X467974Y55433D01*
X467469Y55799D01*
X466973Y56176D01*
X466486Y56566D01*
X466009Y56967D01*
X465542Y57380D01*
X465086Y57804D01*
X464639Y58239D01*
X464204Y58686D01*
X463780Y59142D01*
X463367Y59609D01*
X462966Y60086D01*
X462576Y60573D01*
X462199Y61069D01*
X461833Y61574D01*
X461481Y62089D01*
X461141Y62611D01*
X460814Y63142D01*
X460500Y63680D01*
X460199Y64227D01*
X459912Y64780D01*
X459639Y65340D01*
X459379Y65907D01*
X459133Y66480D01*
X458902Y67059D01*
X458685Y67643D01*
X458482Y68232D01*
X458294Y68827D01*
X458120Y69425D01*
X457961Y70028D01*
X457817Y70635D01*
X457688Y71245D01*
X457574Y71858D01*
X457475Y72473D01*
X457391Y73091D01*
X457322Y73710D01*
X457269Y74331D01*
X457231Y74954D01*
X457208Y75577D01*
X457200Y76200D01*
X240030Y69850D02*
X240030Y64770D01*
X234950Y64770D01*
X240030Y82550D02*
X240030Y87630D01*
X234950Y87630D01*
X222250Y87630D02*
X217170Y87630D01*
X217170Y82550D01*
X217170Y69850D02*
X217170Y64770D01*
X222250Y64770D01*
X410210Y64770D02*
X410310Y64772D01*
X410409Y64778D01*
X410509Y64788D01*
X410607Y64801D01*
X410706Y64819D01*
X410803Y64840D01*
X410899Y64865D01*
X410995Y64894D01*
X411089Y64927D01*
X411182Y64963D01*
X411273Y65003D01*
X411363Y65047D01*
X411451Y65094D01*
X411537Y65144D01*
X411621Y65198D01*
X411703Y65255D01*
X411782Y65315D01*
X411860Y65379D01*
X411934Y65445D01*
X412006Y65514D01*
X412075Y65586D01*
X412141Y65660D01*
X412205Y65738D01*
X412265Y65817D01*
X412322Y65899D01*
X412376Y65983D01*
X412426Y66069D01*
X412473Y66157D01*
X412517Y66247D01*
X412557Y66338D01*
X412593Y66431D01*
X412626Y66525D01*
X412655Y66621D01*
X412680Y66717D01*
X412701Y66814D01*
X412719Y66913D01*
X412732Y67011D01*
X412742Y67111D01*
X412748Y67210D01*
X412750Y67310D01*
X412750Y85090D02*
X412748Y85190D01*
X412742Y85289D01*
X412732Y85389D01*
X412719Y85487D01*
X412701Y85586D01*
X412680Y85683D01*
X412655Y85779D01*
X412626Y85875D01*
X412593Y85969D01*
X412557Y86062D01*
X412517Y86153D01*
X412473Y86243D01*
X412426Y86331D01*
X412376Y86417D01*
X412322Y86501D01*
X412265Y86583D01*
X412205Y86662D01*
X412141Y86740D01*
X412075Y86814D01*
X412006Y86886D01*
X411934Y86955D01*
X411860Y87021D01*
X411782Y87085D01*
X411703Y87145D01*
X411621Y87202D01*
X411537Y87256D01*
X411451Y87306D01*
X411363Y87353D01*
X411273Y87397D01*
X411182Y87437D01*
X411089Y87473D01*
X410995Y87506D01*
X410899Y87535D01*
X410803Y87560D01*
X410706Y87581D01*
X410607Y87599D01*
X410509Y87612D01*
X410409Y87622D01*
X410310Y87628D01*
X410210Y87630D01*
X351790Y87630D02*
X351690Y87628D01*
X351591Y87622D01*
X351491Y87612D01*
X351393Y87599D01*
X351294Y87581D01*
X351197Y87560D01*
X351101Y87535D01*
X351005Y87506D01*
X350911Y87473D01*
X350818Y87437D01*
X350727Y87397D01*
X350637Y87353D01*
X350549Y87306D01*
X350463Y87256D01*
X350379Y87202D01*
X350297Y87145D01*
X350218Y87085D01*
X350140Y87021D01*
X350066Y86955D01*
X349994Y86886D01*
X349925Y86814D01*
X349859Y86740D01*
X349795Y86662D01*
X349735Y86583D01*
X349678Y86501D01*
X349624Y86417D01*
X349574Y86331D01*
X349527Y86243D01*
X349483Y86153D01*
X349443Y86062D01*
X349407Y85969D01*
X349374Y85875D01*
X349345Y85779D01*
X349320Y85683D01*
X349299Y85586D01*
X349281Y85487D01*
X349268Y85389D01*
X349258Y85289D01*
X349252Y85190D01*
X349250Y85090D01*
X349250Y67310D02*
X349252Y67210D01*
X349258Y67111D01*
X349268Y67011D01*
X349281Y66913D01*
X349299Y66814D01*
X349320Y66717D01*
X349345Y66621D01*
X349374Y66525D01*
X349407Y66431D01*
X349443Y66338D01*
X349483Y66247D01*
X349527Y66157D01*
X349574Y66069D01*
X349624Y65983D01*
X349678Y65899D01*
X349735Y65817D01*
X349795Y65738D01*
X349859Y65660D01*
X349925Y65586D01*
X349994Y65514D01*
X350066Y65445D01*
X350140Y65379D01*
X350218Y65315D01*
X350297Y65255D01*
X350379Y65198D01*
X350463Y65144D01*
X350549Y65094D01*
X350637Y65047D01*
X350727Y65003D01*
X350818Y64963D01*
X350911Y64927D01*
X351005Y64894D01*
X351101Y64865D01*
X351197Y64840D01*
X351294Y64819D01*
X351393Y64801D01*
X351491Y64788D01*
X351591Y64778D01*
X351690Y64772D01*
X351790Y64770D01*
X412750Y67310D02*
X412750Y85090D01*
X410210Y64770D02*
X406400Y64770D01*
X405130Y66040D01*
X406400Y87630D02*
X410210Y87630D01*
X406400Y87630D02*
X405130Y86360D01*
X356870Y66040D02*
X355600Y64770D01*
X356870Y66040D02*
X405130Y66040D01*
X356870Y86360D02*
X355600Y87630D01*
X356870Y86360D02*
X405130Y86360D01*
X355600Y64770D02*
X351790Y64770D01*
X351790Y87630D02*
X355600Y87630D01*
X349250Y85090D02*
X349250Y67310D01*
D10*
X369159Y78112D02*
X372972Y81925D01*
X372972Y70485D01*
X369159Y70485D02*
X376786Y70485D01*
X380853Y80018D02*
X382760Y81925D01*
X386573Y81925D01*
X388480Y80018D01*
X388480Y78112D01*
X386573Y76205D01*
X388480Y74298D01*
X388480Y72392D01*
X386573Y70485D01*
X382760Y70485D01*
X380853Y72392D01*
X380853Y74298D01*
X382760Y76205D01*
X380853Y78112D01*
X380853Y80018D01*
X382760Y76205D02*
X386573Y76205D01*
X392547Y72392D02*
X392547Y80018D01*
X394454Y81925D01*
X398267Y81925D01*
X400173Y80018D01*
X400173Y72392D01*
X398267Y70485D01*
X394454Y70485D01*
X392547Y72392D01*
X400173Y80018D01*
D15*
X344932Y76200D03*
X417068Y76200D03*
D16*
X533400Y95250D02*
X533400Y57150D01*
D17*
X533874Y56534D01*
X534363Y55929D01*
X534867Y55337D01*
X535385Y54757D01*
X535917Y54190D01*
X536463Y53636D01*
X537022Y53096D01*
X537595Y52570D01*
X538180Y52057D01*
X538777Y51560D01*
X539386Y51077D01*
X540007Y50609D01*
X540640Y50156D01*
X541283Y49719D01*
X541937Y49298D01*
X542601Y48894D01*
X543274Y48505D01*
X543957Y48133D01*
X544649Y47778D01*
X545349Y47440D01*
X546057Y47119D01*
X546773Y46816D01*
X547497Y46530D01*
X548226Y46262D01*
X548963Y46012D01*
X549705Y45781D01*
X550453Y45567D01*
X551205Y45372D01*
X551963Y45195D01*
X552724Y45037D01*
X553489Y44897D01*
X554257Y44777D01*
X555028Y44675D01*
X555801Y44592D01*
X556576Y44528D01*
X557352Y44483D01*
X558129Y44457D01*
X558907Y44450D01*
X559684Y44462D01*
X560461Y44493D01*
X561237Y44544D01*
X562012Y44613D01*
X562784Y44701D01*
X563554Y44808D01*
X564322Y44934D01*
X565086Y45078D01*
X565846Y45242D01*
X566602Y45424D01*
X567353Y45624D01*
X568100Y45842D01*
X568840Y46079D01*
X569575Y46334D01*
X570303Y46607D01*
X571024Y46898D01*
X571738Y47206D01*
X572444Y47531D01*
X573142Y47874D01*
X573832Y48234D01*
X574512Y48610D01*
X575183Y49003D01*
X575844Y49413D01*
X576495Y49838D01*
X577135Y50279D01*
X577764Y50736D01*
X578382Y51208D01*
X578988Y51695D01*
X579582Y52197D01*
X580164Y52713D01*
X580733Y53243D01*
X581288Y53787D01*
X581831Y54345D01*
X582359Y54915D01*
X582873Y55498D01*
X583373Y56094D01*
X583858Y56702D01*
X584328Y57321D01*
X584782Y57952D01*
X585221Y58594D01*
X585645Y59246D01*
X586052Y59909D01*
X586443Y60581D01*
X586817Y61263D01*
X587174Y61953D01*
X587514Y62652D01*
X587838Y63360D01*
X588143Y64074D01*
X588432Y64797D01*
X588702Y65526D01*
X588954Y66261D01*
X589189Y67003D01*
X589405Y67750D01*
X589603Y68502D01*
X589782Y69258D01*
X589943Y70019D01*
X590085Y70783D01*
X590208Y71551D01*
X590312Y72322D01*
X590398Y73095D01*
X590464Y73869D01*
X590512Y74645D01*
X590540Y75422D01*
X590550Y76200D01*
X590540Y76978D01*
X590512Y77755D01*
X590464Y78531D01*
X590398Y79305D01*
X590312Y80078D01*
X590208Y80849D01*
X590085Y81617D01*
X589943Y82381D01*
X589782Y83142D01*
X589603Y83898D01*
X589405Y84650D01*
X589189Y85397D01*
X588954Y86139D01*
X588702Y86874D01*
X588432Y87603D01*
X588143Y88326D01*
X587838Y89040D01*
X587514Y89748D01*
X587174Y90447D01*
X586817Y91137D01*
X586443Y91819D01*
X586052Y92491D01*
X585645Y93154D01*
X585221Y93806D01*
X584782Y94448D01*
X584328Y95079D01*
X583858Y95698D01*
X583373Y96306D01*
X582873Y96902D01*
X582359Y97485D01*
X581831Y98055D01*
X581288Y98613D01*
X580733Y99157D01*
X580164Y99687D01*
X579582Y100203D01*
X578988Y100705D01*
X578382Y101192D01*
X577764Y101664D01*
X577135Y102121D01*
X576495Y102562D01*
X575844Y102987D01*
X575183Y103397D01*
X574512Y103790D01*
X573832Y104166D01*
X573142Y104526D01*
X572444Y104869D01*
X571738Y105194D01*
X571024Y105502D01*
X570303Y105793D01*
X569575Y106066D01*
X568840Y106321D01*
X568100Y106558D01*
X567353Y106776D01*
X566602Y106976D01*
X565846Y107158D01*
X565086Y107322D01*
X564322Y107466D01*
X563554Y107592D01*
X562784Y107699D01*
X562012Y107787D01*
X561237Y107856D01*
X560461Y107907D01*
X559684Y107938D01*
X558907Y107950D01*
X558129Y107943D01*
X557352Y107917D01*
X556576Y107872D01*
X555801Y107808D01*
X555028Y107725D01*
X554257Y107623D01*
X553489Y107503D01*
X552724Y107363D01*
X551963Y107205D01*
X551205Y107028D01*
X550453Y106833D01*
X549705Y106619D01*
X548963Y106388D01*
X548226Y106138D01*
X547497Y105870D01*
X546773Y105584D01*
X546057Y105281D01*
X545349Y104960D01*
X544649Y104622D01*
X543957Y104267D01*
X543274Y103895D01*
X542601Y103506D01*
X541937Y103102D01*
X541283Y102681D01*
X540640Y102244D01*
X540007Y101791D01*
X539386Y101323D01*
X538777Y100840D01*
X538180Y100343D01*
X537595Y99830D01*
X537022Y99304D01*
X536463Y98764D01*
X535917Y98210D01*
X535385Y97643D01*
X534867Y97063D01*
X534363Y96471D01*
X533874Y95866D01*
X533400Y95250D01*
D11*
X533400Y76200D02*
X533408Y76823D01*
X533431Y77446D01*
X533469Y78069D01*
X533522Y78690D01*
X533591Y79309D01*
X533675Y79927D01*
X533774Y80542D01*
X533888Y81155D01*
X534017Y81765D01*
X534161Y82372D01*
X534320Y82975D01*
X534494Y83573D01*
X534682Y84168D01*
X534885Y84757D01*
X535102Y85341D01*
X535333Y85920D01*
X535579Y86493D01*
X535839Y87060D01*
X536112Y87620D01*
X536399Y88173D01*
X536700Y88720D01*
X537014Y89258D01*
X537341Y89789D01*
X537681Y90311D01*
X538033Y90826D01*
X538399Y91331D01*
X538776Y91827D01*
X539166Y92314D01*
X539567Y92791D01*
X539980Y93258D01*
X540404Y93714D01*
X540839Y94161D01*
X541286Y94596D01*
X541742Y95020D01*
X542209Y95433D01*
X542686Y95834D01*
X543173Y96224D01*
X543669Y96601D01*
X544174Y96967D01*
X544689Y97319D01*
X545211Y97659D01*
X545742Y97986D01*
X546280Y98300D01*
X546827Y98601D01*
X547380Y98888D01*
X547940Y99161D01*
X548507Y99421D01*
X549080Y99667D01*
X549659Y99898D01*
X550243Y100115D01*
X550832Y100318D01*
X551427Y100506D01*
X552025Y100680D01*
X552628Y100839D01*
X553235Y100983D01*
X553845Y101112D01*
X554458Y101226D01*
X555073Y101325D01*
X555691Y101409D01*
X556310Y101478D01*
X556931Y101531D01*
X557554Y101569D01*
X558177Y101592D01*
X558800Y101600D01*
X559423Y101592D01*
X560046Y101569D01*
X560669Y101531D01*
X561290Y101478D01*
X561909Y101409D01*
X562527Y101325D01*
X563142Y101226D01*
X563755Y101112D01*
X564365Y100983D01*
X564972Y100839D01*
X565575Y100680D01*
X566173Y100506D01*
X566768Y100318D01*
X567357Y100115D01*
X567941Y99898D01*
X568520Y99667D01*
X569093Y99421D01*
X569660Y99161D01*
X570220Y98888D01*
X570773Y98601D01*
X571320Y98300D01*
X571858Y97986D01*
X572389Y97659D01*
X572911Y97319D01*
X573426Y96967D01*
X573931Y96601D01*
X574427Y96224D01*
X574914Y95834D01*
X575391Y95433D01*
X575858Y95020D01*
X576314Y94596D01*
X576761Y94161D01*
X577196Y93714D01*
X577620Y93258D01*
X578033Y92791D01*
X578434Y92314D01*
X578824Y91827D01*
X579201Y91331D01*
X579567Y90826D01*
X579919Y90311D01*
X580259Y89789D01*
X580586Y89258D01*
X580900Y88720D01*
X581201Y88173D01*
X581488Y87620D01*
X581761Y87060D01*
X582021Y86493D01*
X582267Y85920D01*
X582498Y85341D01*
X582715Y84757D01*
X582918Y84168D01*
X583106Y83573D01*
X583280Y82975D01*
X583439Y82372D01*
X583583Y81765D01*
X583712Y81155D01*
X583826Y80542D01*
X583925Y79927D01*
X584009Y79309D01*
X584078Y78690D01*
X584131Y78069D01*
X584169Y77446D01*
X584192Y76823D01*
X584200Y76200D01*
X584192Y75577D01*
X584169Y74954D01*
X584131Y74331D01*
X584078Y73710D01*
X584009Y73091D01*
X583925Y72473D01*
X583826Y71858D01*
X583712Y71245D01*
X583583Y70635D01*
X583439Y70028D01*
X583280Y69425D01*
X583106Y68827D01*
X582918Y68232D01*
X582715Y67643D01*
X582498Y67059D01*
X582267Y66480D01*
X582021Y65907D01*
X581761Y65340D01*
X581488Y64780D01*
X581201Y64227D01*
X580900Y63680D01*
X580586Y63142D01*
X580259Y62611D01*
X579919Y62089D01*
X579567Y61574D01*
X579201Y61069D01*
X578824Y60573D01*
X578434Y60086D01*
X578033Y59609D01*
X577620Y59142D01*
X577196Y58686D01*
X576761Y58239D01*
X576314Y57804D01*
X575858Y57380D01*
X575391Y56967D01*
X574914Y56566D01*
X574427Y56176D01*
X573931Y55799D01*
X573426Y55433D01*
X572911Y55081D01*
X572389Y54741D01*
X571858Y54414D01*
X571320Y54100D01*
X570773Y53799D01*
X570220Y53512D01*
X569660Y53239D01*
X569093Y52979D01*
X568520Y52733D01*
X567941Y52502D01*
X567357Y52285D01*
X566768Y52082D01*
X566173Y51894D01*
X565575Y51720D01*
X564972Y51561D01*
X564365Y51417D01*
X563755Y51288D01*
X563142Y51174D01*
X562527Y51075D01*
X561909Y50991D01*
X561290Y50922D01*
X560669Y50869D01*
X560046Y50831D01*
X559423Y50808D01*
X558800Y50800D01*
X558177Y50808D01*
X557554Y50831D01*
X556931Y50869D01*
X556310Y50922D01*
X555691Y50991D01*
X555073Y51075D01*
X554458Y51174D01*
X553845Y51288D01*
X553235Y51417D01*
X552628Y51561D01*
X552025Y51720D01*
X551427Y51894D01*
X550832Y52082D01*
X550243Y52285D01*
X549659Y52502D01*
X549080Y52733D01*
X548507Y52979D01*
X547940Y53239D01*
X547380Y53512D01*
X546827Y53799D01*
X546280Y54100D01*
X545742Y54414D01*
X545211Y54741D01*
X544689Y55081D01*
X544174Y55433D01*
X543669Y55799D01*
X543173Y56176D01*
X542686Y56566D01*
X542209Y56967D01*
X541742Y57380D01*
X541286Y57804D01*
X540839Y58239D01*
X540404Y58686D01*
X539980Y59142D01*
X539567Y59609D01*
X539166Y60086D01*
X538776Y60573D01*
X538399Y61069D01*
X538033Y61574D01*
X537681Y62089D01*
X537341Y62611D01*
X537014Y63142D01*
X536700Y63680D01*
X536399Y64227D01*
X536112Y64780D01*
X535839Y65340D01*
X535579Y65907D01*
X535333Y66480D01*
X535102Y67059D01*
X534885Y67643D01*
X534682Y68232D01*
X534494Y68827D01*
X534320Y69425D01*
X534161Y70028D01*
X534017Y70635D01*
X533888Y71245D01*
X533774Y71858D01*
X533675Y72473D01*
X533591Y73091D01*
X533522Y73710D01*
X533469Y74331D01*
X533431Y74954D01*
X533408Y75577D01*
X533400Y76200D01*
X240030Y44450D02*
X240030Y39370D01*
X234950Y39370D01*
X240030Y57150D02*
X240030Y62230D01*
X234950Y62230D01*
X222250Y62230D02*
X217170Y62230D01*
X217170Y57150D01*
X217170Y44450D02*
X217170Y39370D01*
X222250Y39370D01*
X410210Y39370D02*
X410310Y39372D01*
X410409Y39378D01*
X410509Y39388D01*
X410607Y39401D01*
X410706Y39419D01*
X410803Y39440D01*
X410899Y39465D01*
X410995Y39494D01*
X411089Y39527D01*
X411182Y39563D01*
X411273Y39603D01*
X411363Y39647D01*
X411451Y39694D01*
X411537Y39744D01*
X411621Y39798D01*
X411703Y39855D01*
X411782Y39915D01*
X411860Y39979D01*
X411934Y40045D01*
X412006Y40114D01*
X412075Y40186D01*
X412141Y40260D01*
X412205Y40338D01*
X412265Y40417D01*
X412322Y40499D01*
X412376Y40583D01*
X412426Y40669D01*
X412473Y40757D01*
X412517Y40847D01*
X412557Y40938D01*
X412593Y41031D01*
X412626Y41125D01*
X412655Y41221D01*
X412680Y41317D01*
X412701Y41414D01*
X412719Y41513D01*
X412732Y41611D01*
X412742Y41711D01*
X412748Y41810D01*
X412750Y41910D01*
X412750Y59690D02*
X412748Y59790D01*
X412742Y59889D01*
X412732Y59989D01*
X412719Y60087D01*
X412701Y60186D01*
X412680Y60283D01*
X412655Y60379D01*
X412626Y60475D01*
X412593Y60569D01*
X412557Y60662D01*
X412517Y60753D01*
X412473Y60843D01*
X412426Y60931D01*
X412376Y61017D01*
X412322Y61101D01*
X412265Y61183D01*
X412205Y61262D01*
X412141Y61340D01*
X412075Y61414D01*
X412006Y61486D01*
X411934Y61555D01*
X411860Y61621D01*
X411782Y61685D01*
X411703Y61745D01*
X411621Y61802D01*
X411537Y61856D01*
X411451Y61906D01*
X411363Y61953D01*
X411273Y61997D01*
X411182Y62037D01*
X411089Y62073D01*
X410995Y62106D01*
X410899Y62135D01*
X410803Y62160D01*
X410706Y62181D01*
X410607Y62199D01*
X410509Y62212D01*
X410409Y62222D01*
X410310Y62228D01*
X410210Y62230D01*
X351790Y62230D02*
X351690Y62228D01*
X351591Y62222D01*
X351491Y62212D01*
X351393Y62199D01*
X351294Y62181D01*
X351197Y62160D01*
X351101Y62135D01*
X351005Y62106D01*
X350911Y62073D01*
X350818Y62037D01*
X350727Y61997D01*
X350637Y61953D01*
X350549Y61906D01*
X350463Y61856D01*
X350379Y61802D01*
X350297Y61745D01*
X350218Y61685D01*
X350140Y61621D01*
X350066Y61555D01*
X349994Y61486D01*
X349925Y61414D01*
X349859Y61340D01*
X349795Y61262D01*
X349735Y61183D01*
X349678Y61101D01*
X349624Y61017D01*
X349574Y60931D01*
X349527Y60843D01*
X349483Y60753D01*
X349443Y60662D01*
X349407Y60569D01*
X349374Y60475D01*
X349345Y60379D01*
X349320Y60283D01*
X349299Y60186D01*
X349281Y60087D01*
X349268Y59989D01*
X349258Y59889D01*
X349252Y59790D01*
X349250Y59690D01*
X349250Y41910D02*
X349252Y41810D01*
X349258Y41711D01*
X349268Y41611D01*
X349281Y41513D01*
X349299Y41414D01*
X349320Y41317D01*
X349345Y41221D01*
X349374Y41125D01*
X349407Y41031D01*
X349443Y40938D01*
X349483Y40847D01*
X349527Y40757D01*
X349574Y40669D01*
X349624Y40583D01*
X349678Y40499D01*
X349735Y40417D01*
X349795Y40338D01*
X349859Y40260D01*
X349925Y40186D01*
X349994Y40114D01*
X350066Y40045D01*
X350140Y39979D01*
X350218Y39915D01*
X350297Y39855D01*
X350379Y39798D01*
X350463Y39744D01*
X350549Y39694D01*
X350637Y39647D01*
X350727Y39603D01*
X350818Y39563D01*
X350911Y39527D01*
X351005Y39494D01*
X351101Y39465D01*
X351197Y39440D01*
X351294Y39419D01*
X351393Y39401D01*
X351491Y39388D01*
X351591Y39378D01*
X351690Y39372D01*
X351790Y39370D01*
X412750Y41910D02*
X412750Y59690D01*
X410210Y39370D02*
X406400Y39370D01*
X405130Y40640D01*
X406400Y62230D02*
X410210Y62230D01*
X406400Y62230D02*
X405130Y60960D01*
X356870Y40640D02*
X355600Y39370D01*
X356870Y40640D02*
X405130Y40640D01*
X356870Y60960D02*
X355600Y62230D01*
X356870Y60960D02*
X405130Y60960D01*
X355600Y39370D02*
X351790Y39370D01*
X351790Y62230D02*
X355600Y62230D01*
X349250Y59690D02*
X349250Y41910D01*
D10*
X369159Y52712D02*
X372972Y56525D01*
X372972Y45085D01*
X369159Y45085D02*
X376786Y45085D01*
X380853Y54618D02*
X382760Y56525D01*
X386573Y56525D01*
X388480Y54618D01*
X388480Y52712D01*
X386573Y50805D01*
X388480Y48898D01*
X388480Y46992D01*
X386573Y45085D01*
X382760Y45085D01*
X380853Y46992D01*
X380853Y48898D01*
X382760Y50805D01*
X380853Y52712D01*
X380853Y54618D01*
X382760Y50805D02*
X386573Y50805D01*
X392547Y46992D02*
X392547Y54618D01*
X394454Y56525D01*
X398267Y56525D01*
X400173Y54618D01*
X400173Y46992D01*
X398267Y45085D01*
X394454Y45085D01*
X392547Y46992D01*
X400173Y54618D01*
D15*
X344932Y50800D03*
X417068Y50800D03*
D16*
X609600Y57150D02*
X609600Y95250D01*
D17*
X610074Y95866D01*
X610563Y96471D01*
X611067Y97063D01*
X611585Y97643D01*
X612117Y98210D01*
X612663Y98764D01*
X613222Y99304D01*
X613795Y99830D01*
X614380Y100343D01*
X614977Y100840D01*
X615586Y101323D01*
X616207Y101791D01*
X616840Y102244D01*
X617483Y102681D01*
X618137Y103102D01*
X618801Y103506D01*
X619474Y103895D01*
X620157Y104267D01*
X620849Y104622D01*
X621549Y104960D01*
X622257Y105281D01*
X622973Y105584D01*
X623697Y105870D01*
X624426Y106138D01*
X625163Y106388D01*
X625905Y106619D01*
X626653Y106833D01*
X627405Y107028D01*
X628163Y107205D01*
X628924Y107363D01*
X629689Y107503D01*
X630457Y107623D01*
X631228Y107725D01*
X632001Y107808D01*
X632776Y107872D01*
X633552Y107917D01*
X634329Y107943D01*
X635107Y107950D01*
X635884Y107938D01*
X636661Y107907D01*
X637437Y107856D01*
X638212Y107787D01*
X638984Y107699D01*
X639754Y107592D01*
X640522Y107466D01*
X641286Y107322D01*
X642046Y107158D01*
X642802Y106976D01*
X643553Y106776D01*
X644300Y106558D01*
X645040Y106321D01*
X645775Y106066D01*
X646503Y105793D01*
X647224Y105502D01*
X647938Y105194D01*
X648644Y104869D01*
X649342Y104526D01*
X650032Y104166D01*
X650712Y103790D01*
X651383Y103397D01*
X652044Y102987D01*
X652695Y102562D01*
X653335Y102121D01*
X653964Y101664D01*
X654582Y101192D01*
X655188Y100705D01*
X655782Y100203D01*
X656364Y99687D01*
X656933Y99157D01*
X657488Y98613D01*
X658031Y98055D01*
X658559Y97485D01*
X659073Y96902D01*
X659573Y96306D01*
X660058Y95698D01*
X660528Y95079D01*
X660982Y94448D01*
X661421Y93806D01*
X661845Y93154D01*
X662252Y92491D01*
X662643Y91819D01*
X663017Y91137D01*
X663374Y90447D01*
X663714Y89748D01*
X664038Y89040D01*
X664343Y88326D01*
X664632Y87603D01*
X664902Y86874D01*
X665154Y86139D01*
X665389Y85397D01*
X665605Y84650D01*
X665803Y83898D01*
X665982Y83142D01*
X666143Y82381D01*
X666285Y81617D01*
X666408Y80849D01*
X666512Y80078D01*
X666598Y79305D01*
X666664Y78531D01*
X666712Y77755D01*
X666740Y76978D01*
X666750Y76200D01*
X666740Y75422D01*
X666712Y74645D01*
X666664Y73869D01*
X666598Y73095D01*
X666512Y72322D01*
X666408Y71551D01*
X666285Y70783D01*
X666143Y70019D01*
X665982Y69258D01*
X665803Y68502D01*
X665605Y67750D01*
X665389Y67003D01*
X665154Y66261D01*
X664902Y65526D01*
X664632Y64797D01*
X664343Y64074D01*
X664038Y63360D01*
X663714Y62652D01*
X663374Y61953D01*
X663017Y61263D01*
X662643Y60581D01*
X662252Y59909D01*
X661845Y59246D01*
X661421Y58594D01*
X660982Y57952D01*
X660528Y57321D01*
X660058Y56702D01*
X659573Y56094D01*
X659073Y55498D01*
X658559Y54915D01*
X658031Y54345D01*
X657488Y53787D01*
X656933Y53243D01*
X656364Y52713D01*
X655782Y52197D01*
X655188Y51695D01*
X654582Y51208D01*
X653964Y50736D01*
X653335Y50279D01*
X652695Y49838D01*
X652044Y49413D01*
X651383Y49003D01*
X650712Y48610D01*
X650032Y48234D01*
X649342Y47874D01*
X648644Y47531D01*
X647938Y47206D01*
X647224Y46898D01*
X646503Y46607D01*
X645775Y46334D01*
X645040Y46079D01*
X644300Y45842D01*
X643553Y45624D01*
X642802Y45424D01*
X642046Y45242D01*
X641286Y45078D01*
X640522Y44934D01*
X639754Y44808D01*
X638984Y44701D01*
X638212Y44613D01*
X637437Y44544D01*
X636661Y44493D01*
X635884Y44462D01*
X635107Y44450D01*
X634329Y44457D01*
X633552Y44483D01*
X632776Y44528D01*
X632001Y44592D01*
X631228Y44675D01*
X630457Y44777D01*
X629689Y44897D01*
X628924Y45037D01*
X628163Y45195D01*
X627405Y45372D01*
X626653Y45567D01*
X625905Y45781D01*
X625163Y46012D01*
X624426Y46262D01*
X623697Y46530D01*
X622973Y46816D01*
X622257Y47119D01*
X621549Y47440D01*
X620849Y47778D01*
X620157Y48133D01*
X619474Y48505D01*
X618801Y48894D01*
X618137Y49298D01*
X617483Y49719D01*
X616840Y50156D01*
X616207Y50609D01*
X615586Y51077D01*
X614977Y51560D01*
X614380Y52057D01*
X613795Y52570D01*
X613222Y53096D01*
X612663Y53636D01*
X612117Y54190D01*
X611585Y54757D01*
X611067Y55337D01*
X610563Y55929D01*
X610074Y56534D01*
X609600Y57150D01*
D11*
X609600Y76200D02*
X609608Y76823D01*
X609631Y77446D01*
X609669Y78069D01*
X609722Y78690D01*
X609791Y79309D01*
X609875Y79927D01*
X609974Y80542D01*
X610088Y81155D01*
X610217Y81765D01*
X610361Y82372D01*
X610520Y82975D01*
X610694Y83573D01*
X610882Y84168D01*
X611085Y84757D01*
X611302Y85341D01*
X611533Y85920D01*
X611779Y86493D01*
X612039Y87060D01*
X612312Y87620D01*
X612599Y88173D01*
X612900Y88720D01*
X613214Y89258D01*
X613541Y89789D01*
X613881Y90311D01*
X614233Y90826D01*
X614599Y91331D01*
X614976Y91827D01*
X615366Y92314D01*
X615767Y92791D01*
X616180Y93258D01*
X616604Y93714D01*
X617039Y94161D01*
X617486Y94596D01*
X617942Y95020D01*
X618409Y95433D01*
X618886Y95834D01*
X619373Y96224D01*
X619869Y96601D01*
X620374Y96967D01*
X620889Y97319D01*
X621411Y97659D01*
X621942Y97986D01*
X622480Y98300D01*
X623027Y98601D01*
X623580Y98888D01*
X624140Y99161D01*
X624707Y99421D01*
X625280Y99667D01*
X625859Y99898D01*
X626443Y100115D01*
X627032Y100318D01*
X627627Y100506D01*
X628225Y100680D01*
X628828Y100839D01*
X629435Y100983D01*
X630045Y101112D01*
X630658Y101226D01*
X631273Y101325D01*
X631891Y101409D01*
X632510Y101478D01*
X633131Y101531D01*
X633754Y101569D01*
X634377Y101592D01*
X635000Y101600D01*
X635623Y101592D01*
X636246Y101569D01*
X636869Y101531D01*
X637490Y101478D01*
X638109Y101409D01*
X638727Y101325D01*
X639342Y101226D01*
X639955Y101112D01*
X640565Y100983D01*
X641172Y100839D01*
X641775Y100680D01*
X642373Y100506D01*
X642968Y100318D01*
X643557Y100115D01*
X644141Y99898D01*
X644720Y99667D01*
X645293Y99421D01*
X645860Y99161D01*
X646420Y98888D01*
X646973Y98601D01*
X647520Y98300D01*
X648058Y97986D01*
X648589Y97659D01*
X649111Y97319D01*
X649626Y96967D01*
X650131Y96601D01*
X650627Y96224D01*
X651114Y95834D01*
X651591Y95433D01*
X652058Y95020D01*
X652514Y94596D01*
X652961Y94161D01*
X653396Y93714D01*
X653820Y93258D01*
X654233Y92791D01*
X654634Y92314D01*
X655024Y91827D01*
X655401Y91331D01*
X655767Y90826D01*
X656119Y90311D01*
X656459Y89789D01*
X656786Y89258D01*
X657100Y88720D01*
X657401Y88173D01*
X657688Y87620D01*
X657961Y87060D01*
X658221Y86493D01*
X658467Y85920D01*
X658698Y85341D01*
X658915Y84757D01*
X659118Y84168D01*
X659306Y83573D01*
X659480Y82975D01*
X659639Y82372D01*
X659783Y81765D01*
X659912Y81155D01*
X660026Y80542D01*
X660125Y79927D01*
X660209Y79309D01*
X660278Y78690D01*
X660331Y78069D01*
X660369Y77446D01*
X660392Y76823D01*
X660400Y76200D01*
X660392Y75577D01*
X660369Y74954D01*
X660331Y74331D01*
X660278Y73710D01*
X660209Y73091D01*
X660125Y72473D01*
X660026Y71858D01*
X659912Y71245D01*
X659783Y70635D01*
X659639Y70028D01*
X659480Y69425D01*
X659306Y68827D01*
X659118Y68232D01*
X658915Y67643D01*
X658698Y67059D01*
X658467Y66480D01*
X658221Y65907D01*
X657961Y65340D01*
X657688Y64780D01*
X657401Y64227D01*
X657100Y63680D01*
X656786Y63142D01*
X656459Y62611D01*
X656119Y62089D01*
X655767Y61574D01*
X655401Y61069D01*
X655024Y60573D01*
X654634Y60086D01*
X654233Y59609D01*
X653820Y59142D01*
X653396Y58686D01*
X652961Y58239D01*
X652514Y57804D01*
X652058Y57380D01*
X651591Y56967D01*
X651114Y56566D01*
X650627Y56176D01*
X650131Y55799D01*
X649626Y55433D01*
X649111Y55081D01*
X648589Y54741D01*
X648058Y54414D01*
X647520Y54100D01*
X646973Y53799D01*
X646420Y53512D01*
X645860Y53239D01*
X645293Y52979D01*
X644720Y52733D01*
X644141Y52502D01*
X643557Y52285D01*
X642968Y52082D01*
X642373Y51894D01*
X641775Y51720D01*
X641172Y51561D01*
X640565Y51417D01*
X639955Y51288D01*
X639342Y51174D01*
X638727Y51075D01*
X638109Y50991D01*
X637490Y50922D01*
X636869Y50869D01*
X636246Y50831D01*
X635623Y50808D01*
X635000Y50800D01*
X634377Y50808D01*
X633754Y50831D01*
X633131Y50869D01*
X632510Y50922D01*
X631891Y50991D01*
X631273Y51075D01*
X630658Y51174D01*
X630045Y51288D01*
X629435Y51417D01*
X628828Y51561D01*
X628225Y51720D01*
X627627Y51894D01*
X627032Y52082D01*
X626443Y52285D01*
X625859Y52502D01*
X625280Y52733D01*
X624707Y52979D01*
X624140Y53239D01*
X623580Y53512D01*
X623027Y53799D01*
X622480Y54100D01*
X621942Y54414D01*
X621411Y54741D01*
X620889Y55081D01*
X620374Y55433D01*
X619869Y55799D01*
X619373Y56176D01*
X618886Y56566D01*
X618409Y56967D01*
X617942Y57380D01*
X617486Y57804D01*
X617039Y58239D01*
X616604Y58686D01*
X616180Y59142D01*
X615767Y59609D01*
X615366Y60086D01*
X614976Y60573D01*
X614599Y61069D01*
X614233Y61574D01*
X613881Y62089D01*
X613541Y62611D01*
X613214Y63142D01*
X612900Y63680D01*
X612599Y64227D01*
X612312Y64780D01*
X612039Y65340D01*
X611779Y65907D01*
X611533Y66480D01*
X611302Y67059D01*
X611085Y67643D01*
X610882Y68232D01*
X610694Y68827D01*
X610520Y69425D01*
X610361Y70028D01*
X610217Y70635D01*
X610088Y71245D01*
X609974Y71858D01*
X609875Y72473D01*
X609791Y73091D01*
X609722Y73710D01*
X609669Y74331D01*
X609631Y74954D01*
X609608Y75577D01*
X609600Y76200D01*
M02*
