G04 EAGLE Gerber X2 export*
G04 #@! %TF.Part,Single*
G04 #@! %TF.FileFunction,Legend,Bot,1*
G04 #@! %TF.FilePolarity,Positive*
G04 #@! %TF.GenerationSoftware,Autodesk,EAGLE,9.0.0*
G04 #@! %TF.CreationDate,2019-08-08T19:01:50Z*
G75*
%MOMM*%
%FSLAX34Y34*%
%LPD*%
%AMOC8*
5,1,8,0,0,1.08239X$1,22.5*%
G01*
%ADD10C,0.152400*%
%ADD11C,0.050800*%


D10*
X78740Y215900D02*
X73660Y215900D01*
X0Y215900D01*
X0Y194310D01*
X0Y190500D01*
X0Y186690D01*
X0Y168910D01*
X0Y165100D01*
X0Y161290D01*
X0Y143510D01*
X0Y139700D01*
X0Y135890D01*
X0Y118110D01*
X0Y114300D01*
X0Y110490D01*
X0Y92710D01*
X0Y88900D02*
X73660Y88900D01*
X73660Y194310D02*
X73660Y215900D01*
X73660Y194310D02*
X73660Y190500D01*
X73660Y186690D01*
X73660Y168910D01*
X73660Y165100D01*
X73660Y161290D01*
X73660Y143510D01*
X73660Y139700D01*
X73660Y135890D01*
X73660Y118110D01*
X73660Y114300D01*
X73660Y110490D01*
X73660Y92710D01*
X73660Y88900D01*
X73660Y114300D02*
X0Y114300D01*
X0Y139700D02*
X73660Y139700D01*
X73660Y165100D02*
X0Y165100D01*
X0Y190500D02*
X73660Y190500D01*
D11*
X73660Y194310D02*
X0Y194310D01*
X0Y186690D02*
X73660Y186690D01*
X73660Y168910D02*
X0Y168910D01*
X0Y161290D02*
X73660Y161290D01*
X73660Y143510D02*
X0Y143510D01*
X0Y135890D02*
X73660Y135890D01*
X73660Y118110D02*
X0Y118110D01*
X0Y110490D02*
X73660Y110490D01*
D10*
X73660Y92710D02*
X0Y92710D01*
X0Y88900D01*
X0Y85090D01*
D11*
X73660Y85090D01*
D10*
X78740Y12700D02*
X78740Y215900D01*
X0Y85090D02*
X0Y67310D01*
X0Y63500D02*
X73660Y63500D01*
X73660Y85090D02*
X73660Y88900D01*
X73660Y85090D02*
X73660Y67310D01*
X73660Y63500D01*
D11*
X73660Y67310D02*
X0Y67310D01*
D10*
X0Y63500D01*
X0Y59690D01*
X0Y41910D01*
X0Y38100D01*
X73660Y38100D01*
D11*
X73660Y59690D02*
X0Y59690D01*
D10*
X73660Y59690D02*
X73660Y63500D01*
X73660Y59690D02*
X73660Y41910D01*
X73660Y38100D01*
X0Y38100D02*
X0Y34290D01*
X0Y12700D01*
X73660Y12700D01*
X78740Y12700D01*
X73660Y34290D02*
X73660Y38100D01*
X73660Y34290D02*
X73660Y12700D01*
D11*
X73660Y34290D02*
X0Y34290D01*
X0Y41910D02*
X73660Y41910D01*
M02*
