M48
;GenerationSoftware,Autodesk,EAGLE,9.0.0*%
;CreationDate,2019-08-08T19:18:53Z*%
FMAT,2
ICI,OFF
METRIC,TZ,000.000
T2C0.813
T1C0.914
%
G90
M71
T1
X17780Y11430
X17780Y3810
T2
X8890Y20320
X8890Y17780
X8890Y15240
X8890Y12700
X8890Y10160
X8890Y7620
X8890Y5080
X8890Y2540
X29210Y3810
X31750Y3810
X44450Y3810
X46990Y3810
X34290Y3810
X36830Y3810
X41910Y3810
X39370Y3810
X46990Y11430
X44450Y11430
X41910Y11430
X39370Y11430
X36830Y11430
X34290Y11430
X31750Y11430
X29210Y11430
X3810Y35560
X3810Y33020
X3810Y30480
X3810Y27940
X3810Y25400
X8890Y25400
X8890Y27940
X8890Y30480
X8890Y33020
X8890Y35560
X35560Y34290
X35560Y31750
X35560Y29210
X35560Y21590
X35560Y19050
X43180Y19050
X43180Y21590
X43180Y24130
X43180Y26670
X43180Y31750
X43180Y34290
X11430Y35560
X11430Y33020
X11430Y30480
X11430Y27940
X11430Y25400
X19050Y25400
X19050Y27940
X19050Y30480
X19050Y33020
X19050Y35560
X21590Y20320
X24130Y20320
X26670Y20320
X29210Y20320
X31750Y20320
X31750Y35560
X29210Y35560
X26670Y35560
X24130Y35560
X21590Y35560
X58420Y31750
X58420Y29210
X58420Y26670
X58420Y24130
X58420Y21590
X58420Y19050
X73660Y21590
X73660Y19050
X73660Y13970
X73660Y16510
X73660Y24130
X73660Y26670
X73660Y31750
X46990Y34290
X46990Y31750
X46990Y29210
X46990Y21590
X46990Y19050
X54610Y19050
X54610Y21590
X54610Y24130
X54610Y26670
X54610Y31750
X54610Y34290
X46990Y26670
X46990Y24130
X54610Y29210
M30