G04 EAGLE Gerber X2 export*
G04 #@! %TF.Part,Single*
G04 #@! %TF.FileFunction,Soldermask,Bot,1*
G04 #@! %TF.FilePolarity,Negative*
G04 #@! %TF.GenerationSoftware,Autodesk,EAGLE,9.0.0*
G04 #@! %TF.CreationDate,2019-08-08T19:18:53Z*
G75*
%MOMM*%
%FSLAX34Y34*%
%LPD*%
%AMOC8*
5,1,8,0,0,1.08239X$1,22.5*%
G01*
%ADD10P,1.759533X8X292.500000*%
%ADD11C,1.524000*%
%ADD12C,1.524000*%


D10*
X177800Y114300D03*
X177800Y38100D03*
D11*
X95504Y203200D02*
X82296Y203200D01*
X82296Y177800D02*
X95504Y177800D01*
X95504Y152400D02*
X82296Y152400D01*
X82296Y127000D02*
X95504Y127000D01*
X95504Y101600D02*
X82296Y101600D01*
X82296Y76200D02*
X95504Y76200D01*
X95504Y50800D02*
X82296Y50800D01*
X82296Y25400D02*
X95504Y25400D01*
X292100Y31496D02*
X292100Y44704D01*
X317500Y44704D02*
X317500Y31496D01*
X444500Y31496D02*
X444500Y44704D01*
X469900Y44704D02*
X469900Y31496D01*
X342900Y31496D02*
X342900Y44704D01*
X368300Y44704D02*
X368300Y31496D01*
X419100Y31496D02*
X419100Y44704D01*
X393700Y44704D02*
X393700Y31496D01*
X469900Y107696D02*
X469900Y120904D01*
X444500Y120904D02*
X444500Y107696D01*
X419100Y107696D02*
X419100Y120904D01*
X393700Y120904D02*
X393700Y107696D01*
X368300Y107696D02*
X368300Y120904D01*
X342900Y120904D02*
X342900Y107696D01*
X317500Y107696D02*
X317500Y120904D01*
X292100Y120904D02*
X292100Y107696D01*
X44704Y355600D02*
X31496Y355600D01*
X31496Y330200D02*
X44704Y330200D01*
X44704Y304800D02*
X31496Y304800D01*
X31496Y279400D02*
X44704Y279400D01*
X44704Y254000D02*
X31496Y254000D01*
X82296Y254000D02*
X95504Y254000D01*
X95504Y279400D02*
X82296Y279400D01*
X82296Y304800D02*
X95504Y304800D01*
X95504Y330200D02*
X82296Y330200D01*
X82296Y355600D02*
X95504Y355600D01*
X348996Y342900D02*
X362204Y342900D01*
X362204Y317500D02*
X348996Y317500D01*
X348996Y292100D02*
X362204Y292100D01*
X362204Y215900D02*
X348996Y215900D01*
X348996Y190500D02*
X362204Y190500D01*
X425196Y190500D02*
X438404Y190500D01*
X438404Y215900D02*
X425196Y215900D01*
X425196Y241300D02*
X438404Y241300D01*
X438404Y266700D02*
X425196Y266700D01*
X425196Y317500D02*
X438404Y317500D01*
X438404Y342900D02*
X425196Y342900D01*
D12*
X114300Y355600D03*
X114300Y330200D03*
X114300Y304800D03*
X114300Y279400D03*
X114300Y254000D03*
X190500Y254000D03*
X190500Y279400D03*
X190500Y304800D03*
X190500Y330200D03*
X190500Y355600D03*
D11*
X215900Y209804D02*
X215900Y196596D01*
X241300Y196596D02*
X241300Y209804D01*
X266700Y209804D02*
X266700Y196596D01*
X292100Y196596D02*
X292100Y209804D01*
X317500Y209804D02*
X317500Y196596D01*
X317500Y348996D02*
X317500Y362204D01*
X292100Y362204D02*
X292100Y348996D01*
X266700Y348996D02*
X266700Y362204D01*
X241300Y362204D02*
X241300Y348996D01*
X215900Y348996D02*
X215900Y362204D01*
X577596Y317500D02*
X590804Y317500D01*
X590804Y292100D02*
X577596Y292100D01*
X577596Y266700D02*
X590804Y266700D01*
X590804Y241300D02*
X577596Y241300D01*
X577596Y215900D02*
X590804Y215900D01*
X590804Y190500D02*
X577596Y190500D01*
X729996Y215900D02*
X743204Y215900D01*
X743204Y190500D02*
X729996Y190500D01*
X729996Y139700D02*
X743204Y139700D01*
X743204Y165100D02*
X729996Y165100D01*
X729996Y241300D02*
X743204Y241300D01*
X743204Y266700D02*
X729996Y266700D01*
X729996Y317500D02*
X743204Y317500D01*
X476504Y342900D02*
X463296Y342900D01*
X463296Y317500D02*
X476504Y317500D01*
X476504Y292100D02*
X463296Y292100D01*
X463296Y215900D02*
X476504Y215900D01*
X476504Y190500D02*
X463296Y190500D01*
X539496Y190500D02*
X552704Y190500D01*
X552704Y215900D02*
X539496Y215900D01*
X539496Y241300D02*
X552704Y241300D01*
X552704Y266700D02*
X539496Y266700D01*
X539496Y317500D02*
X552704Y317500D01*
X552704Y342900D02*
X539496Y342900D01*
X476504Y266700D02*
X463296Y266700D01*
X463296Y241300D02*
X476504Y241300D01*
X539496Y292100D02*
X552704Y292100D01*
M02*
