G04 EAGLE Gerber X2 export*
G04 #@! %TF.Part,Single*
G04 #@! %TF.FileFunction,Copper,L2,Bot,Mixed*
G04 #@! %TF.FilePolarity,Positive*
G04 #@! %TF.GenerationSoftware,Autodesk,EAGLE,9.0.0*
G04 #@! %TF.CreationDate,2019-08-08T19:03:24Z*
G75*
%MOMM*%
%FSLAX34Y34*%
%LPD*%
%AMOC8*
5,1,8,0,0,1.08239X$1,22.5*%
G01*
%ADD10P,1.814519X8X112.500000*%
%ADD11P,1.814519X8X292.500000*%
%ADD12P,1.814519X8X202.500000*%
%ADD13C,1.676400*%
%ADD14P,1.814519X8X22.500000*%
%ADD15C,1.676400*%
%ADD16C,1.879600*%
%ADD17C,1.016000*%

G36*
X432126Y-2537D02*
X432126Y-2537D01*
X432144Y-2539D01*
X432326Y-2518D01*
X432509Y-2499D01*
X432526Y-2494D01*
X432543Y-2492D01*
X432718Y-2435D01*
X432894Y-2381D01*
X432909Y-2373D01*
X432926Y-2367D01*
X433086Y-2277D01*
X433248Y-2189D01*
X433261Y-2178D01*
X433277Y-2169D01*
X433416Y-2049D01*
X433557Y-1932D01*
X433568Y-1918D01*
X433582Y-1906D01*
X433694Y-1761D01*
X433809Y-1618D01*
X433817Y-1602D01*
X433828Y-1588D01*
X433910Y-1423D01*
X433995Y-1261D01*
X434000Y-1244D01*
X434008Y-1228D01*
X434055Y-1049D01*
X434106Y-874D01*
X434108Y-856D01*
X434112Y-839D01*
X434139Y-508D01*
X434139Y61977D01*
X434138Y61986D01*
X434139Y61995D01*
X434118Y62187D01*
X434099Y62378D01*
X434097Y62386D01*
X434096Y62395D01*
X434038Y62578D01*
X433981Y62763D01*
X433977Y62771D01*
X433974Y62779D01*
X433881Y62947D01*
X433789Y63117D01*
X433784Y63124D01*
X433779Y63131D01*
X433655Y63278D01*
X433532Y63426D01*
X433525Y63432D01*
X433519Y63438D01*
X433368Y63557D01*
X433218Y63678D01*
X433210Y63682D01*
X433203Y63688D01*
X433030Y63776D01*
X432861Y63864D01*
X432852Y63866D01*
X432844Y63870D01*
X432658Y63922D01*
X432474Y63975D01*
X432465Y63976D01*
X432456Y63978D01*
X432263Y63992D01*
X432072Y64008D01*
X432064Y64007D01*
X432055Y64008D01*
X431862Y63983D01*
X431673Y63961D01*
X431664Y63958D01*
X431655Y63957D01*
X431472Y63896D01*
X431290Y63836D01*
X431282Y63832D01*
X431274Y63829D01*
X431107Y63733D01*
X430939Y63638D01*
X430932Y63633D01*
X430925Y63628D01*
X430672Y63413D01*
X426815Y59557D01*
X426758Y59526D01*
X426683Y59464D01*
X426601Y59410D01*
X426528Y59336D01*
X426447Y59270D01*
X426386Y59194D01*
X426317Y59125D01*
X426259Y59038D01*
X426194Y58957D01*
X426148Y58871D01*
X426094Y58789D01*
X426055Y58693D01*
X426007Y58601D01*
X425979Y58507D01*
X425942Y58417D01*
X425923Y58314D01*
X425893Y58214D01*
X425885Y58117D01*
X425867Y58021D01*
X425868Y57917D01*
X425859Y57813D01*
X425870Y57716D01*
X425871Y57619D01*
X425892Y57517D01*
X425904Y57413D01*
X425934Y57320D01*
X425954Y57225D01*
X426002Y57107D01*
X426027Y57030D01*
X426053Y56984D01*
X426080Y56918D01*
X426862Y55383D01*
X427443Y53596D01*
X427483Y53339D01*
X406908Y53339D01*
X406890Y53337D01*
X406873Y53339D01*
X406690Y53318D01*
X406508Y53299D01*
X406491Y53294D01*
X406473Y53292D01*
X406298Y53235D01*
X406123Y53181D01*
X406107Y53173D01*
X406090Y53167D01*
X405930Y53077D01*
X405769Y52989D01*
X405755Y52978D01*
X405739Y52969D01*
X405600Y52849D01*
X405459Y52732D01*
X405448Y52718D01*
X405435Y52706D01*
X405322Y52561D01*
X405207Y52418D01*
X405199Y52402D01*
X405188Y52388D01*
X405106Y52223D01*
X405066Y52147D01*
X404914Y52061D01*
X404752Y51973D01*
X404739Y51962D01*
X404723Y51953D01*
X404584Y51833D01*
X404443Y51715D01*
X404432Y51702D01*
X404418Y51690D01*
X404306Y51545D01*
X404191Y51402D01*
X404183Y51386D01*
X404172Y51372D01*
X404090Y51207D01*
X404005Y51044D01*
X404000Y51027D01*
X403992Y51011D01*
X403944Y50833D01*
X403894Y50658D01*
X403892Y50640D01*
X403888Y50623D01*
X403861Y50292D01*
X403861Y38861D01*
X396062Y38861D01*
X394206Y39155D01*
X392419Y39736D01*
X390745Y40589D01*
X389224Y41694D01*
X387896Y43022D01*
X386791Y44543D01*
X386262Y45582D01*
X386191Y45692D01*
X386128Y45807D01*
X386083Y45861D01*
X386044Y45921D01*
X385953Y46015D01*
X385869Y46115D01*
X385814Y46159D01*
X385764Y46210D01*
X385656Y46284D01*
X385554Y46366D01*
X385491Y46398D01*
X385433Y46439D01*
X385312Y46490D01*
X385196Y46550D01*
X385128Y46569D01*
X385062Y46597D01*
X384934Y46624D01*
X384809Y46659D01*
X384738Y46665D01*
X384668Y46679D01*
X384537Y46680D01*
X384407Y46691D01*
X384337Y46682D01*
X384266Y46683D01*
X384137Y46658D01*
X384008Y46642D01*
X383940Y46620D01*
X383870Y46606D01*
X383749Y46556D01*
X383625Y46515D01*
X383564Y46480D01*
X383498Y46453D01*
X383389Y46381D01*
X383276Y46316D01*
X383222Y46269D01*
X383163Y46230D01*
X383071Y46137D01*
X382972Y46051D01*
X382929Y45995D01*
X382879Y45945D01*
X382806Y45836D01*
X382727Y45732D01*
X382689Y45660D01*
X382656Y45609D01*
X382627Y45539D01*
X382575Y45437D01*
X381220Y42167D01*
X364233Y25180D01*
X360683Y23709D01*
X358632Y22859D01*
X337706Y22859D01*
X337679Y22857D01*
X337653Y22859D01*
X337479Y22837D01*
X337305Y22819D01*
X337280Y22812D01*
X337253Y22808D01*
X337088Y22753D01*
X336921Y22701D01*
X336897Y22688D01*
X336872Y22680D01*
X336720Y22593D01*
X336566Y22509D01*
X336546Y22492D01*
X336523Y22479D01*
X336426Y22397D01*
X335664Y22081D01*
X335615Y22055D01*
X335563Y22036D01*
X335438Y21960D01*
X335309Y21891D01*
X335266Y21856D01*
X335219Y21827D01*
X335112Y21728D01*
X334999Y21635D01*
X334964Y21592D01*
X334923Y21554D01*
X334837Y21436D01*
X334745Y21322D01*
X334719Y21273D01*
X334687Y21228D01*
X334626Y21095D01*
X334558Y20966D01*
X334543Y20912D01*
X334519Y20862D01*
X334486Y20719D01*
X334445Y20579D01*
X334440Y20524D01*
X334428Y20470D01*
X334423Y20323D01*
X334410Y20178D01*
X334417Y20123D01*
X334415Y20067D01*
X334439Y19923D01*
X334456Y19778D01*
X334473Y19725D01*
X334482Y19670D01*
X334534Y19534D01*
X334579Y19395D01*
X334606Y19346D01*
X334626Y19294D01*
X334737Y19111D01*
X334775Y19043D01*
X334787Y19030D01*
X334798Y19011D01*
X335224Y18425D01*
X336004Y16893D01*
X336536Y15258D01*
X336619Y14731D01*
X317500Y14731D01*
X298381Y14731D01*
X298464Y15258D01*
X298996Y16893D01*
X299776Y18425D01*
X300202Y19011D01*
X300230Y19059D01*
X300265Y19102D01*
X300331Y19232D01*
X300405Y19358D01*
X300423Y19411D01*
X300448Y19460D01*
X300488Y19601D01*
X300536Y19739D01*
X300543Y19794D01*
X300558Y19848D01*
X300569Y19993D01*
X300589Y20138D01*
X300585Y20194D01*
X300589Y20249D01*
X300572Y20394D01*
X300562Y20540D01*
X300547Y20594D01*
X300541Y20649D01*
X300495Y20788D01*
X300456Y20929D01*
X300432Y20978D01*
X300414Y21031D01*
X300342Y21158D01*
X300276Y21289D01*
X300242Y21333D01*
X300215Y21381D01*
X300119Y21491D01*
X300029Y21606D01*
X299987Y21643D01*
X299950Y21684D01*
X299835Y21773D01*
X299724Y21869D01*
X299675Y21896D01*
X299631Y21930D01*
X299440Y22028D01*
X299372Y22066D01*
X299356Y22071D01*
X299336Y22081D01*
X298614Y22380D01*
X293398Y27596D01*
X292834Y28959D01*
X292828Y28970D01*
X292824Y28983D01*
X292733Y29147D01*
X292644Y29314D01*
X292635Y29324D01*
X292629Y29336D01*
X292508Y29478D01*
X292387Y29624D01*
X292377Y29632D01*
X292368Y29643D01*
X292221Y29759D01*
X292075Y29878D01*
X292063Y29884D01*
X292052Y29892D01*
X291884Y29977D01*
X291718Y30065D01*
X291705Y30068D01*
X291693Y30075D01*
X291512Y30125D01*
X291332Y30178D01*
X291318Y30179D01*
X291306Y30183D01*
X291117Y30196D01*
X290931Y30212D01*
X290917Y30211D01*
X290904Y30212D01*
X290717Y30188D01*
X290531Y30167D01*
X290518Y30163D01*
X290505Y30161D01*
X290327Y30102D01*
X290147Y30044D01*
X290136Y30038D01*
X290123Y30033D01*
X289960Y29939D01*
X289796Y29848D01*
X289786Y29839D01*
X289774Y29832D01*
X289521Y29618D01*
X279461Y19557D01*
X264099Y19557D01*
X255296Y28360D01*
X255286Y28369D01*
X255277Y28379D01*
X255130Y28496D01*
X254985Y28615D01*
X254973Y28622D01*
X254962Y28630D01*
X254795Y28716D01*
X254629Y28804D01*
X254616Y28808D01*
X254604Y28814D01*
X254423Y28866D01*
X254243Y28919D01*
X254230Y28920D01*
X254217Y28924D01*
X254030Y28938D01*
X253842Y28955D01*
X253829Y28954D01*
X253815Y28955D01*
X253631Y28932D01*
X253442Y28912D01*
X253429Y28908D01*
X253416Y28906D01*
X253239Y28848D01*
X253058Y28790D01*
X253046Y28784D01*
X253034Y28780D01*
X252870Y28687D01*
X252706Y28596D01*
X252695Y28587D01*
X252684Y28580D01*
X252542Y28457D01*
X252399Y28335D01*
X252390Y28325D01*
X252380Y28316D01*
X252266Y28167D01*
X252149Y28019D01*
X252143Y28007D01*
X252135Y27997D01*
X251983Y27701D01*
X251940Y27596D01*
X246724Y22380D01*
X239908Y19557D01*
X232532Y19557D01*
X225666Y22401D01*
X225656Y22409D01*
X225521Y22519D01*
X225497Y22532D01*
X225476Y22548D01*
X225319Y22626D01*
X225165Y22708D01*
X225140Y22716D01*
X225115Y22728D01*
X224946Y22773D01*
X224779Y22823D01*
X224753Y22825D01*
X224727Y22832D01*
X224396Y22859D01*
X198006Y22859D01*
X197979Y22857D01*
X197953Y22859D01*
X197779Y22837D01*
X197605Y22819D01*
X197580Y22812D01*
X197553Y22808D01*
X197388Y22753D01*
X197221Y22701D01*
X197197Y22688D01*
X197172Y22680D01*
X197020Y22593D01*
X196866Y22509D01*
X196846Y22492D01*
X196823Y22479D01*
X196726Y22397D01*
X195964Y22081D01*
X195915Y22055D01*
X195863Y22036D01*
X195738Y21960D01*
X195609Y21891D01*
X195566Y21856D01*
X195519Y21827D01*
X195412Y21728D01*
X195299Y21635D01*
X195264Y21592D01*
X195223Y21554D01*
X195137Y21436D01*
X195045Y21322D01*
X195019Y21273D01*
X194987Y21228D01*
X194926Y21095D01*
X194858Y20966D01*
X194842Y20912D01*
X194819Y20862D01*
X194786Y20720D01*
X194745Y20579D01*
X194740Y20524D01*
X194728Y20470D01*
X194723Y20324D01*
X194710Y20178D01*
X194717Y20123D01*
X194715Y20067D01*
X194739Y19923D01*
X194756Y19778D01*
X194773Y19725D01*
X194782Y19670D01*
X194834Y19534D01*
X194879Y19395D01*
X194906Y19346D01*
X194926Y19294D01*
X195037Y19111D01*
X195075Y19043D01*
X195087Y19030D01*
X195098Y19011D01*
X195524Y18425D01*
X196304Y16893D01*
X196836Y15258D01*
X196919Y14731D01*
X177800Y14731D01*
X158681Y14731D01*
X158764Y15258D01*
X159296Y16893D01*
X160076Y18425D01*
X160502Y19011D01*
X160530Y19059D01*
X160565Y19102D01*
X160631Y19232D01*
X160705Y19358D01*
X160723Y19411D01*
X160749Y19460D01*
X160788Y19601D01*
X160836Y19739D01*
X160843Y19794D01*
X160858Y19848D01*
X160869Y19994D01*
X160889Y20138D01*
X160885Y20194D01*
X160889Y20249D01*
X160872Y20394D01*
X160862Y20540D01*
X160847Y20594D01*
X160841Y20649D01*
X160795Y20788D01*
X160756Y20929D01*
X160732Y20978D01*
X160714Y21031D01*
X160642Y21158D01*
X160576Y21289D01*
X160542Y21332D01*
X160515Y21381D01*
X160418Y21491D01*
X160329Y21606D01*
X160287Y21642D01*
X160250Y21684D01*
X160134Y21774D01*
X160024Y21869D01*
X159975Y21896D01*
X159931Y21930D01*
X159740Y22028D01*
X159673Y22066D01*
X159656Y22071D01*
X159636Y22081D01*
X158863Y22401D01*
X158854Y22409D01*
X158719Y22519D01*
X158695Y22532D01*
X158674Y22548D01*
X158517Y22626D01*
X158363Y22708D01*
X158338Y22716D01*
X158313Y22728D01*
X158144Y22773D01*
X157977Y22823D01*
X157951Y22825D01*
X157925Y22832D01*
X157594Y22859D01*
X149368Y22859D01*
X143767Y25180D01*
X114080Y54867D01*
X111755Y60478D01*
X111749Y60490D01*
X111745Y60503D01*
X111654Y60668D01*
X111565Y60833D01*
X111557Y60843D01*
X111550Y60855D01*
X111428Y60999D01*
X111309Y61143D01*
X111298Y61152D01*
X111290Y61162D01*
X111142Y61279D01*
X110996Y61397D01*
X110984Y61403D01*
X110974Y61412D01*
X110806Y61497D01*
X110640Y61584D01*
X110627Y61588D01*
X110615Y61594D01*
X110434Y61644D01*
X110253Y61697D01*
X110240Y61698D01*
X110227Y61702D01*
X110038Y61716D01*
X109852Y61732D01*
X109839Y61730D01*
X109825Y61731D01*
X109638Y61708D01*
X109452Y61687D01*
X109439Y61682D01*
X109426Y61681D01*
X109248Y61621D01*
X109069Y61563D01*
X109057Y61557D01*
X109044Y61553D01*
X108881Y61458D01*
X108717Y61367D01*
X108707Y61358D01*
X108695Y61352D01*
X108442Y61137D01*
X107786Y60480D01*
X107064Y60181D01*
X107015Y60155D01*
X106963Y60136D01*
X106838Y60060D01*
X106709Y59991D01*
X106666Y59956D01*
X106619Y59927D01*
X106512Y59828D01*
X106399Y59735D01*
X106364Y59692D01*
X106323Y59654D01*
X106237Y59536D01*
X106145Y59422D01*
X106119Y59373D01*
X106087Y59328D01*
X106026Y59195D01*
X105958Y59066D01*
X105942Y59012D01*
X105919Y58962D01*
X105886Y58820D01*
X105845Y58679D01*
X105840Y58624D01*
X105828Y58570D01*
X105823Y58424D01*
X105810Y58278D01*
X105817Y58223D01*
X105815Y58167D01*
X105839Y58023D01*
X105856Y57878D01*
X105873Y57825D01*
X105882Y57770D01*
X105934Y57634D01*
X105979Y57495D01*
X106006Y57446D01*
X106026Y57394D01*
X106137Y57211D01*
X106175Y57143D01*
X106187Y57130D01*
X106198Y57111D01*
X106624Y56525D01*
X107404Y54993D01*
X107936Y53358D01*
X108019Y52831D01*
X88900Y52831D01*
X69781Y52831D01*
X69864Y53358D01*
X70396Y54993D01*
X71176Y56525D01*
X71602Y57111D01*
X71630Y57159D01*
X71665Y57202D01*
X71731Y57332D01*
X71805Y57458D01*
X71823Y57511D01*
X71849Y57560D01*
X71888Y57701D01*
X71936Y57839D01*
X71943Y57894D01*
X71958Y57948D01*
X71970Y58094D01*
X71989Y58238D01*
X71985Y58294D01*
X71989Y58349D01*
X71972Y58494D01*
X71962Y58640D01*
X71947Y58694D01*
X71941Y58749D01*
X71895Y58888D01*
X71856Y59029D01*
X71832Y59078D01*
X71814Y59131D01*
X71742Y59258D01*
X71676Y59389D01*
X71642Y59432D01*
X71615Y59481D01*
X71518Y59591D01*
X71429Y59706D01*
X71387Y59742D01*
X71350Y59784D01*
X71234Y59874D01*
X71124Y59969D01*
X71075Y59996D01*
X71031Y60030D01*
X70840Y60128D01*
X70773Y60166D01*
X70756Y60171D01*
X70736Y60181D01*
X70014Y60480D01*
X64798Y65696D01*
X61975Y72512D01*
X61975Y79888D01*
X64798Y86704D01*
X65558Y87464D01*
X65570Y87478D01*
X65583Y87489D01*
X65697Y87633D01*
X65813Y87775D01*
X65822Y87791D01*
X65833Y87805D01*
X65916Y87969D01*
X66002Y88131D01*
X66007Y88148D01*
X66015Y88164D01*
X66064Y88341D01*
X66117Y88517D01*
X66118Y88535D01*
X66123Y88552D01*
X66137Y88735D01*
X66153Y88918D01*
X66151Y88936D01*
X66153Y88953D01*
X66130Y89135D01*
X66110Y89318D01*
X66104Y89335D01*
X66102Y89353D01*
X66044Y89526D01*
X65988Y89702D01*
X65980Y89718D01*
X65974Y89734D01*
X65882Y89894D01*
X65793Y90054D01*
X65782Y90068D01*
X65773Y90083D01*
X65558Y90336D01*
X64798Y91096D01*
X61975Y97912D01*
X61975Y105288D01*
X64798Y112104D01*
X65558Y112864D01*
X65570Y112878D01*
X65583Y112889D01*
X65697Y113033D01*
X65813Y113175D01*
X65822Y113191D01*
X65833Y113205D01*
X65916Y113369D01*
X66002Y113531D01*
X66007Y113548D01*
X66015Y113564D01*
X66064Y113741D01*
X66117Y113917D01*
X66118Y113935D01*
X66123Y113952D01*
X66137Y114135D01*
X66153Y114318D01*
X66151Y114336D01*
X66153Y114353D01*
X66130Y114535D01*
X66110Y114718D01*
X66104Y114735D01*
X66102Y114753D01*
X66044Y114926D01*
X65988Y115102D01*
X65980Y115118D01*
X65974Y115134D01*
X65882Y115294D01*
X65793Y115454D01*
X65782Y115468D01*
X65773Y115483D01*
X65558Y115736D01*
X64798Y116496D01*
X61975Y123312D01*
X61975Y130688D01*
X64798Y137504D01*
X65558Y138264D01*
X65570Y138278D01*
X65583Y138289D01*
X65697Y138433D01*
X65813Y138575D01*
X65822Y138591D01*
X65833Y138605D01*
X65916Y138769D01*
X66002Y138931D01*
X66007Y138948D01*
X66015Y138964D01*
X66064Y139141D01*
X66117Y139317D01*
X66118Y139335D01*
X66123Y139352D01*
X66137Y139535D01*
X66153Y139718D01*
X66151Y139736D01*
X66153Y139753D01*
X66130Y139935D01*
X66110Y140118D01*
X66104Y140135D01*
X66102Y140153D01*
X66044Y140326D01*
X65988Y140502D01*
X65980Y140518D01*
X65974Y140534D01*
X65882Y140694D01*
X65793Y140854D01*
X65782Y140868D01*
X65773Y140883D01*
X65558Y141136D01*
X64798Y141896D01*
X61975Y148712D01*
X61975Y156088D01*
X64798Y162904D01*
X65558Y163664D01*
X65570Y163677D01*
X65583Y163689D01*
X65697Y163833D01*
X65813Y163975D01*
X65822Y163991D01*
X65833Y164005D01*
X65916Y164169D01*
X66002Y164331D01*
X66007Y164348D01*
X66015Y164364D01*
X66064Y164541D01*
X66117Y164717D01*
X66118Y164735D01*
X66123Y164752D01*
X66137Y164935D01*
X66153Y165118D01*
X66151Y165136D01*
X66153Y165153D01*
X66130Y165335D01*
X66110Y165518D01*
X66104Y165535D01*
X66102Y165553D01*
X66044Y165726D01*
X65988Y165902D01*
X65980Y165918D01*
X65974Y165934D01*
X65883Y166092D01*
X65793Y166254D01*
X65782Y166268D01*
X65773Y166283D01*
X65558Y166536D01*
X64798Y167296D01*
X61975Y174112D01*
X61975Y181488D01*
X64798Y188304D01*
X65558Y189064D01*
X65570Y189078D01*
X65583Y189089D01*
X65697Y189233D01*
X65813Y189375D01*
X65822Y189391D01*
X65833Y189405D01*
X65916Y189569D01*
X66002Y189731D01*
X66007Y189748D01*
X66015Y189764D01*
X66064Y189941D01*
X66117Y190117D01*
X66118Y190135D01*
X66123Y190152D01*
X66137Y190335D01*
X66153Y190518D01*
X66151Y190536D01*
X66153Y190553D01*
X66130Y190735D01*
X66110Y190918D01*
X66104Y190935D01*
X66102Y190953D01*
X66044Y191126D01*
X65988Y191302D01*
X65980Y191318D01*
X65974Y191334D01*
X65882Y191494D01*
X65793Y191654D01*
X65782Y191668D01*
X65773Y191683D01*
X65558Y191936D01*
X64798Y192696D01*
X61975Y199512D01*
X61975Y206888D01*
X64798Y213704D01*
X65558Y214464D01*
X65570Y214478D01*
X65583Y214489D01*
X65697Y214633D01*
X65813Y214775D01*
X65822Y214791D01*
X65833Y214805D01*
X65916Y214969D01*
X66002Y215131D01*
X66007Y215148D01*
X66015Y215164D01*
X66064Y215341D01*
X66117Y215517D01*
X66118Y215535D01*
X66123Y215552D01*
X66137Y215735D01*
X66153Y215918D01*
X66151Y215936D01*
X66153Y215953D01*
X66130Y216135D01*
X66110Y216318D01*
X66104Y216335D01*
X66102Y216353D01*
X66044Y216526D01*
X65988Y216702D01*
X65980Y216718D01*
X65974Y216734D01*
X65882Y216894D01*
X65793Y217054D01*
X65782Y217068D01*
X65773Y217083D01*
X65558Y217336D01*
X64798Y218096D01*
X61975Y224912D01*
X61975Y232288D01*
X64798Y239104D01*
X70014Y244320D01*
X76830Y247143D01*
X85048Y247143D01*
X85074Y247145D01*
X85101Y247143D01*
X85275Y247165D01*
X85448Y247183D01*
X85474Y247190D01*
X85501Y247194D01*
X85666Y247250D01*
X85833Y247301D01*
X85857Y247314D01*
X85882Y247322D01*
X86034Y247409D01*
X86187Y247493D01*
X86208Y247510D01*
X86231Y247523D01*
X86484Y247738D01*
X92967Y254220D01*
X98568Y256541D01*
X115176Y256541D01*
X115203Y256543D01*
X115229Y256541D01*
X115403Y256563D01*
X115577Y256581D01*
X115602Y256588D01*
X115629Y256592D01*
X115795Y256648D01*
X115962Y256699D01*
X115985Y256712D01*
X116010Y256720D01*
X116162Y256807D01*
X116316Y256891D01*
X116336Y256908D01*
X116359Y256921D01*
X116612Y257136D01*
X119319Y259843D01*
X134681Y259843D01*
X137388Y257136D01*
X137408Y257119D01*
X137426Y257098D01*
X137564Y256991D01*
X137699Y256881D01*
X137723Y256868D01*
X137744Y256852D01*
X137901Y256774D01*
X138055Y256692D01*
X138080Y256684D01*
X138104Y256672D01*
X138274Y256627D01*
X138441Y256577D01*
X138467Y256575D01*
X138493Y256568D01*
X138824Y256541D01*
X165976Y256541D01*
X166003Y256543D01*
X166029Y256541D01*
X166203Y256563D01*
X166377Y256581D01*
X166402Y256588D01*
X166429Y256592D01*
X166594Y256647D01*
X166762Y256699D01*
X166785Y256712D01*
X166810Y256720D01*
X166962Y256807D01*
X167116Y256891D01*
X167136Y256908D01*
X167159Y256921D01*
X167412Y257136D01*
X170119Y259843D01*
X185481Y259843D01*
X188188Y257136D01*
X188208Y257119D01*
X188226Y257098D01*
X188364Y256991D01*
X188499Y256881D01*
X188523Y256868D01*
X188544Y256852D01*
X188701Y256774D01*
X188855Y256692D01*
X188880Y256684D01*
X188905Y256672D01*
X189074Y256627D01*
X189241Y256577D01*
X189267Y256575D01*
X189293Y256568D01*
X189624Y256541D01*
X305676Y256541D01*
X305703Y256543D01*
X305729Y256541D01*
X305903Y256563D01*
X306077Y256581D01*
X306102Y256588D01*
X306129Y256592D01*
X306294Y256647D01*
X306462Y256699D01*
X306485Y256712D01*
X306510Y256720D01*
X306662Y256807D01*
X306816Y256891D01*
X306836Y256908D01*
X306859Y256921D01*
X307112Y257136D01*
X309819Y259843D01*
X325181Y259843D01*
X327888Y257136D01*
X327908Y257119D01*
X327926Y257098D01*
X328064Y256991D01*
X328199Y256881D01*
X328223Y256868D01*
X328244Y256852D01*
X328401Y256774D01*
X328555Y256692D01*
X328580Y256684D01*
X328605Y256672D01*
X328774Y256627D01*
X328941Y256577D01*
X328967Y256575D01*
X328993Y256568D01*
X329324Y256541D01*
X356476Y256541D01*
X356503Y256543D01*
X356529Y256541D01*
X356703Y256563D01*
X356877Y256581D01*
X356902Y256588D01*
X356929Y256592D01*
X357095Y256648D01*
X357262Y256699D01*
X357285Y256712D01*
X357310Y256720D01*
X357462Y256807D01*
X357616Y256891D01*
X357636Y256908D01*
X357659Y256921D01*
X357912Y257136D01*
X360619Y259843D01*
X375981Y259843D01*
X378688Y257136D01*
X378708Y257119D01*
X378726Y257098D01*
X378864Y256991D01*
X378999Y256881D01*
X379023Y256868D01*
X379044Y256852D01*
X379201Y256774D01*
X379355Y256692D01*
X379380Y256684D01*
X379404Y256672D01*
X379574Y256627D01*
X379741Y256577D01*
X379767Y256575D01*
X379793Y256568D01*
X380124Y256541D01*
X396732Y256541D01*
X402333Y254220D01*
X406906Y249647D01*
X407800Y248754D01*
X407821Y248737D01*
X407838Y248716D01*
X407976Y248610D01*
X408111Y248499D01*
X408135Y248486D01*
X408156Y248470D01*
X408312Y248392D01*
X408467Y248310D01*
X408493Y248302D01*
X408517Y248290D01*
X408686Y248245D01*
X408853Y248195D01*
X408880Y248193D01*
X408906Y248186D01*
X409236Y248159D01*
X419689Y248159D01*
X426877Y245181D01*
X430672Y241387D01*
X430679Y241381D01*
X430684Y241374D01*
X430834Y241254D01*
X430983Y241131D01*
X430991Y241127D01*
X430998Y241122D01*
X431168Y241033D01*
X431339Y240943D01*
X431348Y240940D01*
X431355Y240936D01*
X431540Y240883D01*
X431725Y240828D01*
X431734Y240827D01*
X431742Y240825D01*
X431934Y240809D01*
X432126Y240792D01*
X432135Y240793D01*
X432144Y240792D01*
X432333Y240814D01*
X432526Y240835D01*
X432535Y240838D01*
X432543Y240839D01*
X432725Y240898D01*
X432910Y240957D01*
X432918Y240961D01*
X432926Y240964D01*
X433095Y241059D01*
X433262Y241151D01*
X433269Y241157D01*
X433277Y241162D01*
X433423Y241288D01*
X433569Y241412D01*
X433575Y241419D01*
X433582Y241425D01*
X433699Y241576D01*
X433819Y241728D01*
X433823Y241736D01*
X433828Y241743D01*
X433914Y241915D01*
X434001Y242087D01*
X434004Y242095D01*
X434008Y242103D01*
X434058Y242289D01*
X434109Y242475D01*
X434110Y242484D01*
X434112Y242492D01*
X434139Y242823D01*
X434139Y263908D01*
X434137Y263926D01*
X434139Y263944D01*
X434118Y264126D01*
X434099Y264309D01*
X434094Y264326D01*
X434092Y264343D01*
X434035Y264518D01*
X433981Y264694D01*
X433973Y264709D01*
X433967Y264726D01*
X433877Y264886D01*
X433789Y265048D01*
X433778Y265061D01*
X433769Y265077D01*
X433649Y265216D01*
X433532Y265357D01*
X433518Y265368D01*
X433506Y265382D01*
X433361Y265494D01*
X433218Y265609D01*
X433202Y265617D01*
X433188Y265628D01*
X433023Y265710D01*
X432861Y265795D01*
X432844Y265800D01*
X432828Y265808D01*
X432649Y265855D01*
X432474Y265906D01*
X432456Y265908D01*
X432439Y265912D01*
X432108Y265939D01*
X12192Y265939D01*
X12174Y265937D01*
X12156Y265939D01*
X11974Y265918D01*
X11791Y265899D01*
X11774Y265894D01*
X11757Y265892D01*
X11582Y265835D01*
X11406Y265781D01*
X11391Y265773D01*
X11374Y265767D01*
X11214Y265677D01*
X11052Y265589D01*
X11039Y265578D01*
X11023Y265569D01*
X10884Y265449D01*
X10743Y265332D01*
X10732Y265318D01*
X10718Y265306D01*
X10606Y265161D01*
X10491Y265018D01*
X10483Y265002D01*
X10472Y264988D01*
X10390Y264823D01*
X10305Y264661D01*
X10300Y264644D01*
X10292Y264628D01*
X10245Y264449D01*
X10194Y264274D01*
X10192Y264256D01*
X10188Y264239D01*
X10161Y263908D01*
X10161Y-508D01*
X10163Y-526D01*
X10161Y-544D01*
X10182Y-726D01*
X10201Y-909D01*
X10206Y-926D01*
X10208Y-943D01*
X10265Y-1118D01*
X10319Y-1294D01*
X10327Y-1309D01*
X10333Y-1326D01*
X10423Y-1486D01*
X10511Y-1648D01*
X10522Y-1661D01*
X10531Y-1677D01*
X10651Y-1816D01*
X10768Y-1957D01*
X10782Y-1968D01*
X10794Y-1982D01*
X10939Y-2094D01*
X11082Y-2209D01*
X11098Y-2217D01*
X11112Y-2228D01*
X11277Y-2310D01*
X11439Y-2395D01*
X11456Y-2400D01*
X11472Y-2408D01*
X11651Y-2455D01*
X11826Y-2506D01*
X11844Y-2508D01*
X11861Y-2512D01*
X12192Y-2539D01*
X432108Y-2539D01*
X432126Y-2537D01*
G37*
G36*
X148871Y64052D02*
X148871Y64052D01*
X148880Y64051D01*
X149069Y64073D01*
X149262Y64094D01*
X149271Y64097D01*
X149279Y64098D01*
X149461Y64158D01*
X149646Y64216D01*
X149654Y64220D01*
X149662Y64223D01*
X149831Y64318D01*
X149998Y64411D01*
X150005Y64417D01*
X150013Y64421D01*
X150159Y64547D01*
X150305Y64671D01*
X150311Y64678D01*
X150318Y64684D01*
X150435Y64836D01*
X150555Y64987D01*
X150559Y64995D01*
X150564Y65002D01*
X150650Y65174D01*
X150737Y65346D01*
X150740Y65355D01*
X150744Y65363D01*
X150794Y65549D01*
X150845Y65734D01*
X150846Y65743D01*
X150848Y65752D01*
X150875Y66082D01*
X150875Y67188D01*
X153698Y74004D01*
X158662Y78968D01*
X158679Y78988D01*
X158700Y79006D01*
X158807Y79144D01*
X158917Y79279D01*
X158930Y79303D01*
X158946Y79324D01*
X159024Y79481D01*
X159106Y79635D01*
X159114Y79660D01*
X159126Y79685D01*
X159171Y79854D01*
X159221Y80021D01*
X159223Y80047D01*
X159230Y80073D01*
X159257Y80404D01*
X159257Y96581D01*
X161964Y99288D01*
X161981Y99308D01*
X162002Y99326D01*
X162109Y99464D01*
X162219Y99599D01*
X162232Y99623D01*
X162248Y99644D01*
X162326Y99801D01*
X162408Y99955D01*
X162416Y99980D01*
X162428Y100004D01*
X162473Y100174D01*
X162523Y100341D01*
X162525Y100367D01*
X162532Y100393D01*
X162559Y100724D01*
X162559Y104632D01*
X164880Y110233D01*
X194567Y139920D01*
X199195Y141838D01*
X200168Y142241D01*
X224396Y142241D01*
X224423Y142243D01*
X224449Y142241D01*
X224623Y142263D01*
X224797Y142281D01*
X224822Y142288D01*
X224849Y142292D01*
X225015Y142348D01*
X225182Y142399D01*
X225205Y142412D01*
X225230Y142420D01*
X225382Y142507D01*
X225536Y142591D01*
X225556Y142608D01*
X225579Y142621D01*
X225832Y142836D01*
X228539Y145543D01*
X243901Y145543D01*
X252704Y136740D01*
X252714Y136731D01*
X252723Y136721D01*
X252870Y136604D01*
X253015Y136485D01*
X253027Y136478D01*
X253038Y136470D01*
X253205Y136384D01*
X253371Y136296D01*
X253384Y136292D01*
X253396Y136286D01*
X253577Y136234D01*
X253757Y136181D01*
X253770Y136180D01*
X253783Y136176D01*
X253970Y136162D01*
X254158Y136145D01*
X254171Y136146D01*
X254185Y136145D01*
X254369Y136168D01*
X254558Y136188D01*
X254571Y136192D01*
X254584Y136194D01*
X254761Y136252D01*
X254942Y136310D01*
X254954Y136316D01*
X254966Y136320D01*
X255130Y136413D01*
X255294Y136504D01*
X255305Y136513D01*
X255316Y136520D01*
X255458Y136643D01*
X255601Y136765D01*
X255610Y136775D01*
X255620Y136784D01*
X255734Y136933D01*
X255851Y137081D01*
X255857Y137093D01*
X255865Y137103D01*
X256017Y137399D01*
X256060Y137504D01*
X261276Y142720D01*
X268142Y145564D01*
X268155Y145565D01*
X268328Y145583D01*
X268354Y145590D01*
X268380Y145594D01*
X268546Y145649D01*
X268713Y145701D01*
X268737Y145714D01*
X268762Y145722D01*
X268914Y145809D01*
X269067Y145893D01*
X269088Y145910D01*
X269111Y145923D01*
X269364Y146138D01*
X275847Y152620D01*
X281448Y154941D01*
X356476Y154941D01*
X356503Y154943D01*
X356529Y154941D01*
X356703Y154963D01*
X356877Y154981D01*
X356902Y154988D01*
X356929Y154992D01*
X357095Y155048D01*
X357262Y155099D01*
X357285Y155112D01*
X357310Y155120D01*
X357462Y155207D01*
X357616Y155291D01*
X357636Y155308D01*
X357659Y155321D01*
X357912Y155536D01*
X360619Y158243D01*
X376440Y158243D01*
X376490Y158228D01*
X376503Y158227D01*
X376516Y158223D01*
X376702Y158209D01*
X376891Y158191D01*
X376904Y158193D01*
X376918Y158192D01*
X377102Y158214D01*
X377291Y158235D01*
X377304Y158239D01*
X377317Y158240D01*
X377496Y158299D01*
X377675Y158356D01*
X377687Y158363D01*
X377700Y158367D01*
X377864Y158461D01*
X378027Y158551D01*
X378037Y158560D01*
X378049Y158566D01*
X378192Y158690D01*
X378334Y158811D01*
X378343Y158822D01*
X378353Y158831D01*
X378468Y158980D01*
X378584Y159127D01*
X378590Y159139D01*
X378598Y159150D01*
X378750Y159445D01*
X380421Y163479D01*
X380605Y163664D01*
X380617Y163677D01*
X380630Y163689D01*
X380744Y163833D01*
X380860Y163975D01*
X380869Y163991D01*
X380880Y164005D01*
X380963Y164169D01*
X381049Y164331D01*
X381054Y164348D01*
X381062Y164364D01*
X381112Y164541D01*
X381164Y164717D01*
X381165Y164734D01*
X381170Y164752D01*
X381184Y164935D01*
X381200Y165118D01*
X381198Y165135D01*
X381200Y165153D01*
X381177Y165336D01*
X381157Y165518D01*
X381152Y165535D01*
X381149Y165553D01*
X381091Y165727D01*
X381035Y165902D01*
X381027Y165917D01*
X381021Y165934D01*
X380929Y166094D01*
X380841Y166254D01*
X380829Y166268D01*
X380820Y166283D01*
X380605Y166536D01*
X380421Y166721D01*
X377443Y173909D01*
X377443Y181690D01*
X378877Y185151D01*
X378880Y185164D01*
X378887Y185175D01*
X378938Y185355D01*
X378993Y185536D01*
X378994Y185549D01*
X378998Y185562D01*
X379013Y185750D01*
X379031Y185937D01*
X379030Y185950D01*
X379031Y185964D01*
X379009Y186150D01*
X378990Y186337D01*
X378985Y186350D01*
X378984Y186363D01*
X378926Y186542D01*
X378870Y186722D01*
X378863Y186733D01*
X378859Y186746D01*
X378766Y186911D01*
X378676Y187075D01*
X378668Y187085D01*
X378661Y187097D01*
X378538Y187239D01*
X378417Y187383D01*
X378407Y187391D01*
X378398Y187402D01*
X378250Y187516D01*
X378102Y187634D01*
X378090Y187640D01*
X378080Y187648D01*
X377912Y187732D01*
X377744Y187818D01*
X377731Y187822D01*
X377719Y187828D01*
X377537Y187877D01*
X377357Y187928D01*
X377344Y187929D01*
X377331Y187932D01*
X377000Y187959D01*
X338074Y187959D01*
X338056Y187957D01*
X338038Y187959D01*
X337856Y187938D01*
X337673Y187919D01*
X337656Y187914D01*
X337639Y187912D01*
X337464Y187855D01*
X337288Y187801D01*
X337273Y187793D01*
X337256Y187787D01*
X337096Y187697D01*
X336934Y187609D01*
X336921Y187598D01*
X336905Y187589D01*
X336766Y187469D01*
X336625Y187352D01*
X336614Y187338D01*
X336600Y187326D01*
X336488Y187181D01*
X336373Y187038D01*
X336365Y187022D01*
X336354Y187008D01*
X336272Y186843D01*
X336187Y186681D01*
X336182Y186664D01*
X336174Y186648D01*
X336127Y186469D01*
X336076Y186294D01*
X336074Y186276D01*
X336070Y186259D01*
X336043Y185928D01*
X336043Y182819D01*
X325181Y171957D01*
X309819Y171957D01*
X298957Y182819D01*
X298957Y198181D01*
X301664Y200888D01*
X301681Y200908D01*
X301702Y200926D01*
X301809Y201064D01*
X301919Y201199D01*
X301932Y201223D01*
X301948Y201244D01*
X302026Y201401D01*
X302108Y201555D01*
X302116Y201580D01*
X302128Y201605D01*
X302173Y201774D01*
X302223Y201941D01*
X302225Y201967D01*
X302232Y201993D01*
X302259Y202324D01*
X302259Y204076D01*
X302257Y204103D01*
X302259Y204129D01*
X302237Y204303D01*
X302219Y204477D01*
X302212Y204502D01*
X302208Y204529D01*
X302153Y204694D01*
X302101Y204862D01*
X302088Y204885D01*
X302080Y204910D01*
X301993Y205062D01*
X301909Y205216D01*
X301892Y205236D01*
X301879Y205259D01*
X301664Y205512D01*
X298957Y208219D01*
X298957Y224028D01*
X298955Y224046D01*
X298957Y224064D01*
X298936Y224246D01*
X298917Y224429D01*
X298912Y224446D01*
X298910Y224463D01*
X298853Y224638D01*
X298799Y224814D01*
X298791Y224829D01*
X298785Y224846D01*
X298695Y225006D01*
X298607Y225168D01*
X298596Y225181D01*
X298587Y225197D01*
X298467Y225336D01*
X298350Y225477D01*
X298336Y225488D01*
X298324Y225502D01*
X298179Y225614D01*
X298036Y225729D01*
X298020Y225737D01*
X298006Y225748D01*
X297841Y225830D01*
X297679Y225915D01*
X297662Y225920D01*
X297646Y225928D01*
X297467Y225975D01*
X297292Y226026D01*
X297274Y226028D01*
X297257Y226032D01*
X296926Y226059D01*
X198374Y226059D01*
X198356Y226057D01*
X198338Y226059D01*
X198156Y226038D01*
X197973Y226019D01*
X197956Y226014D01*
X197939Y226012D01*
X197764Y225955D01*
X197588Y225901D01*
X197573Y225893D01*
X197556Y225887D01*
X197396Y225797D01*
X197234Y225709D01*
X197221Y225698D01*
X197205Y225689D01*
X197066Y225569D01*
X196925Y225452D01*
X196914Y225438D01*
X196900Y225426D01*
X196788Y225281D01*
X196673Y225138D01*
X196665Y225122D01*
X196654Y225108D01*
X196572Y224943D01*
X196487Y224781D01*
X196482Y224764D01*
X196474Y224748D01*
X196427Y224569D01*
X196376Y224394D01*
X196374Y224376D01*
X196370Y224359D01*
X196343Y224028D01*
X196343Y208219D01*
X193636Y205512D01*
X193619Y205492D01*
X193598Y205474D01*
X193491Y205336D01*
X193381Y205201D01*
X193368Y205177D01*
X193352Y205156D01*
X193274Y204999D01*
X193192Y204845D01*
X193184Y204820D01*
X193172Y204796D01*
X193127Y204626D01*
X193077Y204459D01*
X193075Y204433D01*
X193068Y204407D01*
X193041Y204076D01*
X193041Y202324D01*
X193043Y202297D01*
X193041Y202271D01*
X193063Y202097D01*
X193081Y201923D01*
X193088Y201898D01*
X193092Y201871D01*
X193148Y201705D01*
X193199Y201538D01*
X193212Y201515D01*
X193220Y201490D01*
X193307Y201338D01*
X193391Y201184D01*
X193408Y201164D01*
X193421Y201141D01*
X193636Y200888D01*
X196343Y198181D01*
X196343Y182819D01*
X185481Y171957D01*
X170119Y171957D01*
X159257Y182819D01*
X159257Y198181D01*
X161964Y200888D01*
X161981Y200908D01*
X162002Y200926D01*
X162109Y201064D01*
X162219Y201199D01*
X162232Y201223D01*
X162248Y201244D01*
X162326Y201401D01*
X162408Y201555D01*
X162416Y201580D01*
X162428Y201604D01*
X162473Y201774D01*
X162523Y201941D01*
X162525Y201967D01*
X162532Y201993D01*
X162559Y202324D01*
X162559Y204076D01*
X162557Y204103D01*
X162559Y204129D01*
X162537Y204303D01*
X162519Y204477D01*
X162512Y204502D01*
X162508Y204529D01*
X162452Y204695D01*
X162401Y204862D01*
X162388Y204885D01*
X162380Y204910D01*
X162293Y205062D01*
X162209Y205216D01*
X162192Y205236D01*
X162179Y205259D01*
X161964Y205512D01*
X159257Y208219D01*
X159257Y224028D01*
X159255Y224046D01*
X159257Y224064D01*
X159236Y224246D01*
X159217Y224429D01*
X159212Y224446D01*
X159210Y224463D01*
X159153Y224638D01*
X159099Y224814D01*
X159091Y224829D01*
X159085Y224846D01*
X158995Y225006D01*
X158907Y225168D01*
X158896Y225181D01*
X158887Y225197D01*
X158767Y225336D01*
X158650Y225477D01*
X158636Y225488D01*
X158624Y225502D01*
X158479Y225614D01*
X158336Y225729D01*
X158320Y225737D01*
X158306Y225748D01*
X158141Y225830D01*
X157979Y225915D01*
X157962Y225920D01*
X157946Y225928D01*
X157767Y225975D01*
X157592Y226026D01*
X157574Y226028D01*
X157557Y226032D01*
X157226Y226059D01*
X138824Y226059D01*
X138797Y226057D01*
X138771Y226059D01*
X138597Y226037D01*
X138423Y226019D01*
X138398Y226012D01*
X138371Y226008D01*
X138205Y225952D01*
X138038Y225901D01*
X138015Y225888D01*
X137990Y225880D01*
X137838Y225793D01*
X137684Y225709D01*
X137664Y225692D01*
X137641Y225679D01*
X137388Y225464D01*
X134681Y222757D01*
X119319Y222757D01*
X118367Y223710D01*
X118357Y223718D01*
X118348Y223728D01*
X118200Y223846D01*
X118055Y223965D01*
X118044Y223971D01*
X118033Y223979D01*
X117866Y224065D01*
X117700Y224153D01*
X117687Y224157D01*
X117675Y224163D01*
X117495Y224214D01*
X117314Y224268D01*
X117300Y224269D01*
X117288Y224273D01*
X117102Y224287D01*
X116913Y224305D01*
X116899Y224303D01*
X116886Y224304D01*
X116702Y224282D01*
X116513Y224261D01*
X116500Y224257D01*
X116486Y224256D01*
X116309Y224197D01*
X116129Y224140D01*
X116117Y224133D01*
X116104Y224129D01*
X115941Y224036D01*
X115776Y223945D01*
X115766Y223936D01*
X115755Y223930D01*
X115613Y223806D01*
X115469Y223684D01*
X115461Y223674D01*
X115451Y223665D01*
X115337Y223517D01*
X115220Y223369D01*
X115214Y223356D01*
X115206Y223346D01*
X115054Y223051D01*
X113002Y218096D01*
X112242Y217336D01*
X112230Y217323D01*
X112217Y217311D01*
X112103Y217167D01*
X111987Y217025D01*
X111978Y217009D01*
X111967Y216995D01*
X111884Y216831D01*
X111798Y216669D01*
X111793Y216652D01*
X111785Y216636D01*
X111736Y216459D01*
X111683Y216283D01*
X111682Y216265D01*
X111677Y216248D01*
X111663Y216065D01*
X111647Y215882D01*
X111649Y215864D01*
X111647Y215847D01*
X111670Y215665D01*
X111690Y215482D01*
X111696Y215465D01*
X111698Y215447D01*
X111756Y215274D01*
X111812Y215098D01*
X111820Y215082D01*
X111826Y215066D01*
X111918Y214907D01*
X112007Y214746D01*
X112018Y214732D01*
X112027Y214717D01*
X112242Y214464D01*
X113002Y213704D01*
X115825Y206888D01*
X115825Y199512D01*
X113002Y192696D01*
X112242Y191936D01*
X112230Y191923D01*
X112217Y191911D01*
X112103Y191767D01*
X111987Y191625D01*
X111978Y191609D01*
X111967Y191595D01*
X111884Y191431D01*
X111798Y191269D01*
X111793Y191252D01*
X111785Y191236D01*
X111736Y191059D01*
X111683Y190883D01*
X111682Y190865D01*
X111677Y190848D01*
X111663Y190665D01*
X111647Y190482D01*
X111649Y190464D01*
X111647Y190447D01*
X111670Y190265D01*
X111690Y190082D01*
X111696Y190065D01*
X111698Y190047D01*
X111756Y189874D01*
X111812Y189698D01*
X111820Y189682D01*
X111826Y189666D01*
X111918Y189507D01*
X112007Y189346D01*
X112018Y189332D01*
X112027Y189317D01*
X112242Y189064D01*
X113002Y188304D01*
X115825Y181488D01*
X115825Y174112D01*
X113002Y167296D01*
X112242Y166536D01*
X112230Y166522D01*
X112217Y166511D01*
X112103Y166367D01*
X111987Y166225D01*
X111978Y166209D01*
X111967Y166195D01*
X111884Y166031D01*
X111798Y165869D01*
X111793Y165852D01*
X111785Y165836D01*
X111736Y165659D01*
X111683Y165483D01*
X111682Y165465D01*
X111677Y165448D01*
X111663Y165265D01*
X111647Y165082D01*
X111649Y165064D01*
X111647Y165047D01*
X111670Y164865D01*
X111690Y164682D01*
X111696Y164665D01*
X111698Y164647D01*
X111756Y164474D01*
X111812Y164298D01*
X111820Y164282D01*
X111826Y164266D01*
X111918Y164106D01*
X112007Y163946D01*
X112018Y163932D01*
X112027Y163917D01*
X112242Y163664D01*
X113002Y162904D01*
X115054Y157949D01*
X115060Y157937D01*
X115064Y157925D01*
X115155Y157760D01*
X115244Y157594D01*
X115253Y157584D01*
X115259Y157572D01*
X115381Y157429D01*
X115501Y157284D01*
X115511Y157276D01*
X115520Y157265D01*
X115667Y157148D01*
X115813Y157030D01*
X115825Y157024D01*
X115836Y157016D01*
X116004Y156930D01*
X116170Y156843D01*
X116183Y156839D01*
X116195Y156833D01*
X116376Y156783D01*
X116556Y156730D01*
X116569Y156729D01*
X116582Y156725D01*
X116771Y156712D01*
X116957Y156695D01*
X116970Y156697D01*
X116984Y156696D01*
X117173Y156720D01*
X117357Y156741D01*
X117370Y156745D01*
X117383Y156746D01*
X117562Y156807D01*
X117741Y156864D01*
X117752Y156870D01*
X117765Y156875D01*
X117928Y156968D01*
X118092Y157060D01*
X118102Y157069D01*
X118114Y157076D01*
X118367Y157290D01*
X119319Y158243D01*
X134681Y158243D01*
X145543Y147381D01*
X145543Y132019D01*
X142836Y129312D01*
X142819Y129292D01*
X142798Y129274D01*
X142691Y129136D01*
X142581Y129001D01*
X142568Y128977D01*
X142552Y128956D01*
X142474Y128799D01*
X142392Y128645D01*
X142384Y128620D01*
X142372Y128596D01*
X142327Y128426D01*
X142277Y128259D01*
X142275Y128233D01*
X142268Y128207D01*
X142241Y127876D01*
X142241Y70654D01*
X142243Y70628D01*
X142241Y70601D01*
X142263Y70427D01*
X142281Y70254D01*
X142288Y70228D01*
X142292Y70202D01*
X142347Y70036D01*
X142399Y69869D01*
X142412Y69845D01*
X142420Y69820D01*
X142507Y69669D01*
X142591Y69515D01*
X142608Y69494D01*
X142621Y69471D01*
X142836Y69218D01*
X147408Y64646D01*
X147415Y64640D01*
X147420Y64633D01*
X147570Y64513D01*
X147719Y64391D01*
X147727Y64387D01*
X147734Y64381D01*
X147904Y64293D01*
X148075Y64202D01*
X148084Y64200D01*
X148091Y64196D01*
X148277Y64142D01*
X148461Y64087D01*
X148470Y64087D01*
X148478Y64084D01*
X148670Y64069D01*
X148862Y64051D01*
X148871Y64052D01*
G37*
G36*
X253900Y47246D02*
X253900Y47246D01*
X253913Y47245D01*
X254101Y47269D01*
X254287Y47290D01*
X254299Y47294D01*
X254313Y47296D01*
X254491Y47356D01*
X254670Y47413D01*
X254682Y47420D01*
X254694Y47424D01*
X254858Y47518D01*
X255021Y47609D01*
X255032Y47618D01*
X255043Y47625D01*
X255296Y47840D01*
X258284Y50827D01*
X258304Y50851D01*
X258327Y50872D01*
X258431Y51007D01*
X258539Y51139D01*
X258553Y51166D01*
X258572Y51191D01*
X258724Y51486D01*
X258860Y51813D01*
X278894Y71847D01*
X278894Y71848D01*
X283467Y76420D01*
X289068Y78741D01*
X296926Y78741D01*
X296944Y78743D01*
X296962Y78741D01*
X297144Y78762D01*
X297327Y78781D01*
X297344Y78786D01*
X297361Y78788D01*
X297536Y78845D01*
X297712Y78899D01*
X297727Y78907D01*
X297744Y78913D01*
X297904Y79003D01*
X298066Y79091D01*
X298079Y79102D01*
X298095Y79111D01*
X298234Y79231D01*
X298375Y79348D01*
X298386Y79362D01*
X298400Y79374D01*
X298512Y79519D01*
X298627Y79662D01*
X298635Y79678D01*
X298646Y79692D01*
X298728Y79857D01*
X298813Y80019D01*
X298818Y80036D01*
X298826Y80052D01*
X298873Y80231D01*
X298924Y80406D01*
X298926Y80424D01*
X298930Y80441D01*
X298957Y80772D01*
X298957Y96581D01*
X309819Y107443D01*
X325181Y107443D01*
X336043Y96581D01*
X336043Y80404D01*
X336045Y80377D01*
X336043Y80351D01*
X336065Y80177D01*
X336083Y80003D01*
X336090Y79978D01*
X336094Y79951D01*
X336149Y79786D01*
X336201Y79619D01*
X336214Y79595D01*
X336222Y79570D01*
X336309Y79418D01*
X336393Y79264D01*
X336410Y79244D01*
X336423Y79221D01*
X336638Y78968D01*
X341602Y74004D01*
X344425Y67188D01*
X344425Y59812D01*
X342908Y56149D01*
X342904Y56136D01*
X342898Y56125D01*
X342846Y55944D01*
X342791Y55764D01*
X342790Y55751D01*
X342786Y55738D01*
X342771Y55550D01*
X342753Y55363D01*
X342755Y55350D01*
X342753Y55336D01*
X342775Y55149D01*
X342795Y54963D01*
X342799Y54950D01*
X342800Y54937D01*
X342859Y54757D01*
X342915Y54578D01*
X342921Y54567D01*
X342925Y54554D01*
X343018Y54389D01*
X343108Y54225D01*
X343117Y54215D01*
X343123Y54203D01*
X343246Y54061D01*
X343367Y53917D01*
X343378Y53909D01*
X343386Y53898D01*
X343535Y53783D01*
X343682Y53666D01*
X343694Y53660D01*
X343704Y53652D01*
X343873Y53568D01*
X344040Y53482D01*
X344053Y53478D01*
X344065Y53472D01*
X344248Y53423D01*
X344427Y53372D01*
X344441Y53371D01*
X344454Y53368D01*
X344784Y53341D01*
X348446Y53341D01*
X348472Y53343D01*
X348499Y53341D01*
X348673Y53363D01*
X348846Y53381D01*
X348872Y53388D01*
X348898Y53392D01*
X349064Y53447D01*
X349231Y53499D01*
X349255Y53512D01*
X349280Y53520D01*
X349432Y53607D01*
X349585Y53691D01*
X349606Y53708D01*
X349629Y53721D01*
X349882Y53936D01*
X352464Y56518D01*
X352481Y56539D01*
X352502Y56556D01*
X352609Y56694D01*
X352719Y56829D01*
X352732Y56853D01*
X352748Y56874D01*
X352826Y57031D01*
X352908Y57185D01*
X352916Y57211D01*
X352928Y57235D01*
X352973Y57404D01*
X353023Y57571D01*
X353025Y57598D01*
X353032Y57624D01*
X353059Y57954D01*
X353059Y122428D01*
X353057Y122446D01*
X353059Y122464D01*
X353038Y122646D01*
X353019Y122829D01*
X353014Y122846D01*
X353012Y122863D01*
X352955Y123038D01*
X352901Y123214D01*
X352893Y123229D01*
X352887Y123246D01*
X352797Y123406D01*
X352709Y123568D01*
X352698Y123581D01*
X352689Y123597D01*
X352569Y123736D01*
X352452Y123877D01*
X352438Y123888D01*
X352426Y123902D01*
X352281Y124014D01*
X352138Y124129D01*
X352122Y124137D01*
X352108Y124148D01*
X351943Y124230D01*
X351781Y124315D01*
X351764Y124320D01*
X351748Y124328D01*
X351569Y124375D01*
X351394Y124426D01*
X351376Y124428D01*
X351359Y124432D01*
X351028Y124459D01*
X292155Y124459D01*
X292133Y124457D01*
X292111Y124459D01*
X291934Y124437D01*
X291755Y124419D01*
X291733Y124413D01*
X291711Y124410D01*
X291542Y124354D01*
X291370Y124301D01*
X291350Y124291D01*
X291329Y124284D01*
X291174Y124195D01*
X291016Y124109D01*
X290999Y124095D01*
X290979Y124084D01*
X290844Y123966D01*
X290707Y123852D01*
X290693Y123834D01*
X290676Y123820D01*
X290566Y123678D01*
X290454Y123538D01*
X290444Y123518D01*
X290430Y123500D01*
X290279Y123205D01*
X287500Y116496D01*
X282284Y111280D01*
X275468Y108457D01*
X268092Y108457D01*
X261276Y111280D01*
X256060Y116496D01*
X256017Y116601D01*
X256010Y116613D01*
X256006Y116626D01*
X255916Y116790D01*
X255827Y116956D01*
X255818Y116967D01*
X255812Y116978D01*
X255690Y117122D01*
X255570Y117267D01*
X255560Y117275D01*
X255551Y117285D01*
X255404Y117402D01*
X255258Y117520D01*
X255246Y117527D01*
X255235Y117535D01*
X255068Y117620D01*
X254901Y117707D01*
X254888Y117711D01*
X254876Y117717D01*
X254695Y117768D01*
X254515Y117821D01*
X254501Y117822D01*
X254488Y117825D01*
X254300Y117839D01*
X254113Y117855D01*
X254100Y117854D01*
X254087Y117855D01*
X253899Y117831D01*
X253713Y117810D01*
X253701Y117806D01*
X253687Y117804D01*
X253509Y117744D01*
X253330Y117687D01*
X253318Y117680D01*
X253306Y117676D01*
X253142Y117582D01*
X252979Y117491D01*
X252968Y117482D01*
X252957Y117475D01*
X252704Y117260D01*
X243901Y108457D01*
X228539Y108457D01*
X225832Y111164D01*
X225812Y111181D01*
X225794Y111202D01*
X225656Y111309D01*
X225521Y111419D01*
X225497Y111432D01*
X225476Y111448D01*
X225319Y111526D01*
X225165Y111608D01*
X225140Y111616D01*
X225116Y111628D01*
X224946Y111673D01*
X224779Y111723D01*
X224753Y111725D01*
X224727Y111732D01*
X224396Y111759D01*
X210354Y111759D01*
X210328Y111757D01*
X210301Y111759D01*
X210127Y111737D01*
X209954Y111719D01*
X209928Y111712D01*
X209902Y111708D01*
X209736Y111653D01*
X209569Y111601D01*
X209545Y111588D01*
X209520Y111580D01*
X209368Y111493D01*
X209215Y111409D01*
X209194Y111392D01*
X209171Y111379D01*
X208918Y111164D01*
X196775Y99021D01*
X196763Y99007D01*
X196750Y98996D01*
X196636Y98851D01*
X196520Y98710D01*
X196511Y98694D01*
X196500Y98680D01*
X196417Y98516D01*
X196331Y98354D01*
X196326Y98337D01*
X196318Y98321D01*
X196269Y98144D01*
X196216Y97968D01*
X196215Y97950D01*
X196210Y97933D01*
X196197Y97750D01*
X196180Y97567D01*
X196182Y97549D01*
X196181Y97531D01*
X196203Y97351D01*
X196223Y97167D01*
X196229Y97150D01*
X196231Y97132D01*
X196289Y96959D01*
X196343Y96790D01*
X196343Y80404D01*
X196345Y80377D01*
X196343Y80351D01*
X196365Y80177D01*
X196383Y80003D01*
X196390Y79978D01*
X196394Y79951D01*
X196449Y79786D01*
X196501Y79619D01*
X196514Y79595D01*
X196522Y79570D01*
X196609Y79418D01*
X196693Y79264D01*
X196710Y79244D01*
X196723Y79221D01*
X196938Y78968D01*
X201902Y74004D01*
X204725Y67188D01*
X204725Y59812D01*
X203208Y56149D01*
X203204Y56136D01*
X203198Y56125D01*
X203146Y55944D01*
X203091Y55764D01*
X203090Y55751D01*
X203086Y55738D01*
X203071Y55550D01*
X203053Y55363D01*
X203055Y55350D01*
X203053Y55336D01*
X203075Y55149D01*
X203095Y54963D01*
X203099Y54950D01*
X203100Y54937D01*
X203159Y54757D01*
X203215Y54578D01*
X203221Y54567D01*
X203225Y54554D01*
X203318Y54389D01*
X203408Y54225D01*
X203417Y54215D01*
X203423Y54203D01*
X203546Y54061D01*
X203667Y53917D01*
X203678Y53909D01*
X203686Y53898D01*
X203835Y53783D01*
X203982Y53666D01*
X203994Y53660D01*
X204004Y53652D01*
X204173Y53568D01*
X204340Y53482D01*
X204353Y53478D01*
X204365Y53472D01*
X204548Y53423D01*
X204727Y53372D01*
X204741Y53371D01*
X204754Y53368D01*
X205084Y53341D01*
X224396Y53341D01*
X224423Y53343D01*
X224449Y53341D01*
X224623Y53363D01*
X224797Y53381D01*
X224822Y53388D01*
X224849Y53392D01*
X225014Y53447D01*
X225181Y53499D01*
X225205Y53512D01*
X225230Y53520D01*
X225382Y53607D01*
X225536Y53691D01*
X225556Y53708D01*
X225579Y53721D01*
X225676Y53803D01*
X232247Y56525D01*
X232248Y56525D01*
X232532Y56643D01*
X239908Y56643D01*
X246724Y53820D01*
X251940Y48604D01*
X251983Y48499D01*
X251990Y48487D01*
X251994Y48474D01*
X252085Y48310D01*
X252173Y48144D01*
X252182Y48133D01*
X252188Y48122D01*
X252310Y47978D01*
X252430Y47833D01*
X252440Y47825D01*
X252449Y47815D01*
X252596Y47698D01*
X252742Y47580D01*
X252754Y47573D01*
X252765Y47565D01*
X252932Y47480D01*
X253099Y47393D01*
X253112Y47389D01*
X253124Y47383D01*
X253305Y47332D01*
X253485Y47279D01*
X253499Y47278D01*
X253512Y47275D01*
X253700Y47261D01*
X253887Y47245D01*
X253900Y47246D01*
G37*
G36*
X377013Y218442D02*
X377013Y218442D01*
X377027Y218441D01*
X377213Y218462D01*
X377401Y218481D01*
X377413Y218485D01*
X377427Y218486D01*
X377606Y218544D01*
X377785Y218599D01*
X377797Y218605D01*
X377810Y218609D01*
X377975Y218701D01*
X378139Y218791D01*
X378150Y218799D01*
X378162Y218806D01*
X378305Y218929D01*
X378449Y219048D01*
X378457Y219059D01*
X378467Y219067D01*
X378583Y219216D01*
X378701Y219362D01*
X378707Y219374D01*
X378716Y219385D01*
X378800Y219553D01*
X378887Y219719D01*
X378890Y219732D01*
X378896Y219744D01*
X378946Y219924D01*
X378998Y220106D01*
X378999Y220120D01*
X379003Y220133D01*
X379015Y220319D01*
X379031Y220508D01*
X379029Y220521D01*
X379030Y220534D01*
X379006Y220720D01*
X378984Y220907D01*
X378980Y220920D01*
X378978Y220933D01*
X378877Y221249D01*
X378750Y221555D01*
X378744Y221567D01*
X378739Y221580D01*
X378648Y221745D01*
X378560Y221910D01*
X378551Y221920D01*
X378544Y221932D01*
X378422Y222076D01*
X378303Y222220D01*
X378293Y222229D01*
X378284Y222239D01*
X378136Y222356D01*
X377991Y222474D01*
X377979Y222480D01*
X377968Y222489D01*
X377801Y222573D01*
X377634Y222661D01*
X377621Y222665D01*
X377609Y222671D01*
X377428Y222721D01*
X377248Y222774D01*
X377234Y222775D01*
X377221Y222779D01*
X377033Y222792D01*
X376847Y222808D01*
X376833Y222807D01*
X376819Y222808D01*
X376633Y222784D01*
X376447Y222763D01*
X376434Y222759D01*
X376420Y222757D01*
X360619Y222757D01*
X357912Y225464D01*
X357892Y225481D01*
X357874Y225502D01*
X357736Y225609D01*
X357601Y225719D01*
X357577Y225732D01*
X357556Y225748D01*
X357399Y225826D01*
X357245Y225908D01*
X357220Y225916D01*
X357196Y225928D01*
X357026Y225973D01*
X356859Y226023D01*
X356833Y226025D01*
X356807Y226032D01*
X356476Y226059D01*
X338074Y226059D01*
X338056Y226057D01*
X338038Y226059D01*
X337856Y226038D01*
X337673Y226019D01*
X337656Y226014D01*
X337639Y226012D01*
X337464Y225955D01*
X337288Y225901D01*
X337273Y225893D01*
X337256Y225887D01*
X337096Y225797D01*
X336934Y225709D01*
X336921Y225698D01*
X336905Y225689D01*
X336766Y225569D01*
X336625Y225452D01*
X336614Y225438D01*
X336600Y225426D01*
X336488Y225281D01*
X336373Y225138D01*
X336365Y225122D01*
X336354Y225108D01*
X336272Y224943D01*
X336187Y224781D01*
X336182Y224764D01*
X336174Y224748D01*
X336127Y224569D01*
X336076Y224394D01*
X336074Y224376D01*
X336070Y224359D01*
X336043Y224028D01*
X336043Y220472D01*
X336045Y220454D01*
X336043Y220436D01*
X336064Y220254D01*
X336083Y220071D01*
X336088Y220054D01*
X336090Y220037D01*
X336147Y219862D01*
X336201Y219686D01*
X336209Y219671D01*
X336215Y219654D01*
X336305Y219494D01*
X336393Y219332D01*
X336404Y219319D01*
X336413Y219303D01*
X336533Y219164D01*
X336650Y219023D01*
X336664Y219012D01*
X336676Y218998D01*
X336821Y218886D01*
X336964Y218771D01*
X336980Y218763D01*
X336994Y218752D01*
X337159Y218670D01*
X337321Y218585D01*
X337338Y218580D01*
X337354Y218572D01*
X337533Y218525D01*
X337708Y218474D01*
X337726Y218472D01*
X337743Y218468D01*
X338074Y218441D01*
X377000Y218441D01*
X377013Y218442D01*
G37*
%LPC*%
G36*
X408939Y38861D02*
X408939Y38861D01*
X408939Y48261D01*
X427483Y48261D01*
X427443Y48004D01*
X426862Y46217D01*
X426009Y44543D01*
X424904Y43022D01*
X423576Y41694D01*
X422055Y40589D01*
X420381Y39736D01*
X418594Y39155D01*
X416738Y38861D01*
X408939Y38861D01*
G37*
%LPD*%
%LPC*%
G36*
X90931Y39877D02*
X90931Y39877D01*
X90931Y48769D01*
X108019Y48769D01*
X107936Y48242D01*
X107404Y46607D01*
X106624Y45075D01*
X105613Y43684D01*
X104398Y42469D01*
X103007Y41458D01*
X101475Y40678D01*
X99840Y40146D01*
X98142Y39877D01*
X90931Y39877D01*
G37*
%LPD*%
%LPC*%
G36*
X319531Y1777D02*
X319531Y1777D01*
X319531Y10669D01*
X336619Y10669D01*
X336536Y10142D01*
X336004Y8507D01*
X335224Y6975D01*
X334213Y5584D01*
X332998Y4369D01*
X331607Y3358D01*
X330075Y2578D01*
X328440Y2046D01*
X326742Y1777D01*
X319531Y1777D01*
G37*
%LPD*%
%LPC*%
G36*
X179831Y1777D02*
X179831Y1777D01*
X179831Y10669D01*
X196919Y10669D01*
X196836Y10142D01*
X196304Y8507D01*
X195524Y6975D01*
X194513Y5584D01*
X193298Y4369D01*
X191907Y3358D01*
X190375Y2578D01*
X188740Y2046D01*
X187042Y1777D01*
X179831Y1777D01*
G37*
%LPD*%
%LPC*%
G36*
X79658Y39877D02*
X79658Y39877D01*
X77960Y40146D01*
X76325Y40678D01*
X74793Y41458D01*
X73402Y42469D01*
X72187Y43684D01*
X71176Y45075D01*
X70396Y46607D01*
X69864Y48242D01*
X69781Y48769D01*
X86869Y48769D01*
X86869Y39877D01*
X79658Y39877D01*
G37*
%LPD*%
%LPC*%
G36*
X308258Y1777D02*
X308258Y1777D01*
X306560Y2046D01*
X304925Y2578D01*
X303393Y3358D01*
X302002Y4369D01*
X300787Y5584D01*
X299776Y6975D01*
X298996Y8507D01*
X298464Y10142D01*
X298381Y10669D01*
X315469Y10669D01*
X315469Y1777D01*
X308258Y1777D01*
G37*
%LPD*%
%LPC*%
G36*
X168558Y1777D02*
X168558Y1777D01*
X166860Y2046D01*
X165225Y2578D01*
X163693Y3358D01*
X162302Y4369D01*
X161087Y5584D01*
X160076Y6975D01*
X159296Y8507D01*
X158764Y10142D01*
X158681Y10669D01*
X175769Y10669D01*
X175769Y1777D01*
X168558Y1777D01*
G37*
%LPD*%
D10*
X127000Y139700D03*
X127000Y241300D03*
X368300Y139700D03*
X368300Y241300D03*
X177800Y88900D03*
X177800Y190500D03*
X317500Y88900D03*
X317500Y190500D03*
D11*
X177800Y241300D03*
X177800Y215900D03*
X317500Y241300D03*
X317500Y215900D03*
D12*
X236220Y127000D03*
D13*
X271780Y127000D03*
D14*
X271780Y38100D03*
D13*
X236220Y38100D03*
D15*
X186182Y63500D02*
X169418Y63500D01*
X169418Y12700D02*
X186182Y12700D01*
X186182Y38100D02*
X169418Y38100D01*
X309118Y63500D02*
X325882Y63500D01*
X325882Y12700D02*
X309118Y12700D01*
X309118Y38100D02*
X325882Y38100D01*
X97282Y228600D02*
X80518Y228600D01*
X80518Y203200D02*
X97282Y203200D01*
X97282Y177800D02*
X80518Y177800D01*
X80518Y152400D02*
X97282Y152400D01*
X97282Y127000D02*
X80518Y127000D01*
X80518Y101600D02*
X97282Y101600D01*
X97282Y76200D02*
X80518Y76200D01*
X80518Y50800D02*
X97282Y50800D01*
D16*
X397002Y50800D02*
X415798Y50800D01*
X415798Y76200D02*
X397002Y76200D01*
X397002Y101600D02*
X415798Y101600D01*
X415798Y127000D02*
X397002Y127000D01*
X397002Y152400D02*
X415798Y152400D01*
X415798Y177800D02*
X397002Y177800D01*
X397002Y203200D02*
X415798Y203200D01*
X415798Y228600D02*
X397002Y228600D01*
D17*
X127000Y139700D02*
X127000Y63500D01*
X152400Y38100D01*
X177800Y38100D01*
X236220Y38100D01*
X284480Y139700D02*
X368300Y139700D01*
X284480Y139700D02*
X271780Y127000D01*
X317500Y38100D02*
X355600Y38100D01*
X368300Y50800D01*
X368300Y139700D01*
X177800Y88900D02*
X177800Y63500D01*
X203200Y127000D02*
X236220Y127000D01*
X203200Y127000D02*
X177800Y101600D01*
X177800Y88900D01*
X177800Y190500D02*
X177800Y215900D01*
X317500Y88900D02*
X317500Y63500D01*
X271780Y43180D02*
X271780Y38100D01*
X271780Y43180D02*
X292100Y63500D01*
X317500Y63500D01*
X317500Y203200D02*
X317500Y215900D01*
X317500Y203200D02*
X317500Y190500D01*
X406400Y177800D02*
X406400Y203200D01*
X317500Y203200D01*
X177800Y241300D02*
X127000Y241300D01*
X177800Y241300D02*
X368300Y241300D01*
X317500Y241300D01*
X127000Y241300D02*
X101600Y241300D01*
X88900Y228600D01*
X393700Y241300D02*
X406400Y228600D01*
X393700Y241300D02*
X368300Y241300D01*
X177800Y12700D02*
X101600Y12700D01*
X88900Y25400D01*
X88900Y50800D01*
X177800Y12700D02*
X317500Y12700D01*
X393700Y12700D01*
X406400Y25400D01*
X406400Y50800D01*
M02*
