M48
;GenerationSoftware,Autodesk,EAGLE,9.0.0*%
;CreationDate,2019-08-08T19:03:24Z*%
FMAT,2
ICI,OFF
METRIC,TZ,000.000
T2C0.813
T1C1.016
%
G90
M71
T1
X40640Y22860
X40640Y5080
X40640Y7620
X40640Y10160
X40640Y12700
X40640Y15240
X40640Y17780
X40640Y20320
T2
X17780Y24130
X17780Y21590
X31750Y24130
X31750Y21590
X23622Y12700
X27178Y12700
X27178Y3810
X23622Y3810
X17780Y6350
X17780Y1270
X17780Y3810
X12700Y13970
X31750Y1270
X31750Y3810
X8890Y22860
X8890Y20320
X8890Y17780
X8890Y15240
X8890Y12700
X8890Y10160
X8890Y7620
X8890Y5080
X12700Y24130
X36830Y13970
X36830Y24130
X17780Y8890
X17780Y19050
X31750Y8890
X31750Y19050
X31750Y6350
M30