G04 EAGLE Gerber X2 export*
G04 #@! %TF.Part,Single*
G04 #@! %TF.FileFunction,Legend,Top,1*
G04 #@! %TF.FilePolarity,Positive*
G04 #@! %TF.GenerationSoftware,Autodesk,EAGLE,9.0.0*
G04 #@! %TF.CreationDate,2019-08-08T19:03:24Z*
G75*
%MOMM*%
%FSLAX34Y34*%
%LPD*%
%AMOC8*
5,1,8,0,0,1.08239X$1,22.5*%
G01*
%ADD10C,0.152400*%
%ADD11C,0.127000*%
%ADD12R,0.609600X0.863600*%
%ADD13C,0.203200*%
%ADD14C,0.254000*%
%ADD15C,0.050800*%
%ADD16C,0.660400*%
%ADD17R,0.762000X0.660400*%
%ADD18R,0.660400X0.660400*%


D10*
X115570Y161290D02*
X115572Y161190D01*
X115578Y161091D01*
X115588Y160991D01*
X115601Y160893D01*
X115619Y160794D01*
X115640Y160697D01*
X115665Y160601D01*
X115694Y160505D01*
X115727Y160411D01*
X115763Y160318D01*
X115803Y160227D01*
X115847Y160137D01*
X115894Y160049D01*
X115944Y159963D01*
X115998Y159879D01*
X116055Y159797D01*
X116115Y159718D01*
X116179Y159640D01*
X116245Y159566D01*
X116314Y159494D01*
X116386Y159425D01*
X116460Y159359D01*
X116538Y159295D01*
X116617Y159235D01*
X116699Y159178D01*
X116783Y159124D01*
X116869Y159074D01*
X116957Y159027D01*
X117047Y158983D01*
X117138Y158943D01*
X117231Y158907D01*
X117325Y158874D01*
X117421Y158845D01*
X117517Y158820D01*
X117614Y158799D01*
X117713Y158781D01*
X117811Y158768D01*
X117911Y158758D01*
X118010Y158752D01*
X118110Y158750D01*
X135890Y158750D02*
X135990Y158752D01*
X136089Y158758D01*
X136189Y158768D01*
X136287Y158781D01*
X136386Y158799D01*
X136483Y158820D01*
X136579Y158845D01*
X136675Y158874D01*
X136769Y158907D01*
X136862Y158943D01*
X136953Y158983D01*
X137043Y159027D01*
X137131Y159074D01*
X137217Y159124D01*
X137301Y159178D01*
X137383Y159235D01*
X137462Y159295D01*
X137540Y159359D01*
X137614Y159425D01*
X137686Y159494D01*
X137755Y159566D01*
X137821Y159640D01*
X137885Y159718D01*
X137945Y159797D01*
X138002Y159879D01*
X138056Y159963D01*
X138106Y160049D01*
X138153Y160137D01*
X138197Y160227D01*
X138237Y160318D01*
X138273Y160411D01*
X138306Y160505D01*
X138335Y160601D01*
X138360Y160697D01*
X138381Y160794D01*
X138399Y160893D01*
X138412Y160991D01*
X138422Y161091D01*
X138428Y161190D01*
X138430Y161290D01*
X138430Y219710D02*
X138428Y219810D01*
X138422Y219909D01*
X138412Y220009D01*
X138399Y220107D01*
X138381Y220206D01*
X138360Y220303D01*
X138335Y220399D01*
X138306Y220495D01*
X138273Y220589D01*
X138237Y220682D01*
X138197Y220773D01*
X138153Y220863D01*
X138106Y220951D01*
X138056Y221037D01*
X138002Y221121D01*
X137945Y221203D01*
X137885Y221282D01*
X137821Y221360D01*
X137755Y221434D01*
X137686Y221506D01*
X137614Y221575D01*
X137540Y221641D01*
X137462Y221705D01*
X137383Y221765D01*
X137301Y221822D01*
X137217Y221876D01*
X137131Y221926D01*
X137043Y221973D01*
X136953Y222017D01*
X136862Y222057D01*
X136769Y222093D01*
X136675Y222126D01*
X136579Y222155D01*
X136483Y222180D01*
X136386Y222201D01*
X136287Y222219D01*
X136189Y222232D01*
X136089Y222242D01*
X135990Y222248D01*
X135890Y222250D01*
X118110Y222250D02*
X118010Y222248D01*
X117911Y222242D01*
X117811Y222232D01*
X117713Y222219D01*
X117614Y222201D01*
X117517Y222180D01*
X117421Y222155D01*
X117325Y222126D01*
X117231Y222093D01*
X117138Y222057D01*
X117047Y222017D01*
X116957Y221973D01*
X116869Y221926D01*
X116783Y221876D01*
X116699Y221822D01*
X116617Y221765D01*
X116538Y221705D01*
X116460Y221641D01*
X116386Y221575D01*
X116314Y221506D01*
X116245Y221434D01*
X116179Y221360D01*
X116115Y221282D01*
X116055Y221203D01*
X115998Y221121D01*
X115944Y221037D01*
X115894Y220951D01*
X115847Y220863D01*
X115803Y220773D01*
X115763Y220682D01*
X115727Y220589D01*
X115694Y220495D01*
X115665Y220399D01*
X115640Y220303D01*
X115619Y220206D01*
X115601Y220107D01*
X115588Y220009D01*
X115578Y219909D01*
X115572Y219810D01*
X115570Y219710D01*
X118110Y158750D02*
X135890Y158750D01*
X115570Y161290D02*
X115570Y165100D01*
X116840Y166370D01*
X138430Y165100D02*
X138430Y161290D01*
X138430Y165100D02*
X137160Y166370D01*
X116840Y214630D02*
X115570Y215900D01*
X116840Y214630D02*
X116840Y166370D01*
X137160Y214630D02*
X138430Y215900D01*
X137160Y214630D02*
X137160Y166370D01*
X115570Y215900D02*
X115570Y219710D01*
X138430Y219710D02*
X138430Y215900D01*
X135890Y222250D02*
X118110Y222250D01*
D11*
X121275Y172342D02*
X125089Y168529D01*
X121275Y172342D02*
X132715Y172342D01*
X132715Y168529D02*
X132715Y176156D01*
X130808Y180223D02*
X123182Y180223D01*
X121275Y182130D01*
X121275Y185943D01*
X123182Y187849D01*
X130808Y187849D01*
X132715Y185943D01*
X132715Y182130D01*
X130808Y180223D01*
X123182Y187849D01*
X121275Y191917D02*
X132715Y191917D01*
X128902Y191917D02*
X132715Y197637D01*
X128902Y191917D02*
X125089Y197637D01*
D12*
X127000Y226568D03*
X127000Y154432D03*
D10*
X356870Y161290D02*
X356872Y161190D01*
X356878Y161091D01*
X356888Y160991D01*
X356901Y160893D01*
X356919Y160794D01*
X356940Y160697D01*
X356965Y160601D01*
X356994Y160505D01*
X357027Y160411D01*
X357063Y160318D01*
X357103Y160227D01*
X357147Y160137D01*
X357194Y160049D01*
X357244Y159963D01*
X357298Y159879D01*
X357355Y159797D01*
X357415Y159718D01*
X357479Y159640D01*
X357545Y159566D01*
X357614Y159494D01*
X357686Y159425D01*
X357760Y159359D01*
X357838Y159295D01*
X357917Y159235D01*
X357999Y159178D01*
X358083Y159124D01*
X358169Y159074D01*
X358257Y159027D01*
X358347Y158983D01*
X358438Y158943D01*
X358531Y158907D01*
X358625Y158874D01*
X358721Y158845D01*
X358817Y158820D01*
X358914Y158799D01*
X359013Y158781D01*
X359111Y158768D01*
X359211Y158758D01*
X359310Y158752D01*
X359410Y158750D01*
X377190Y158750D02*
X377290Y158752D01*
X377389Y158758D01*
X377489Y158768D01*
X377587Y158781D01*
X377686Y158799D01*
X377783Y158820D01*
X377879Y158845D01*
X377975Y158874D01*
X378069Y158907D01*
X378162Y158943D01*
X378253Y158983D01*
X378343Y159027D01*
X378431Y159074D01*
X378517Y159124D01*
X378601Y159178D01*
X378683Y159235D01*
X378762Y159295D01*
X378840Y159359D01*
X378914Y159425D01*
X378986Y159494D01*
X379055Y159566D01*
X379121Y159640D01*
X379185Y159718D01*
X379245Y159797D01*
X379302Y159879D01*
X379356Y159963D01*
X379406Y160049D01*
X379453Y160137D01*
X379497Y160227D01*
X379537Y160318D01*
X379573Y160411D01*
X379606Y160505D01*
X379635Y160601D01*
X379660Y160697D01*
X379681Y160794D01*
X379699Y160893D01*
X379712Y160991D01*
X379722Y161091D01*
X379728Y161190D01*
X379730Y161290D01*
X379730Y219710D02*
X379728Y219810D01*
X379722Y219909D01*
X379712Y220009D01*
X379699Y220107D01*
X379681Y220206D01*
X379660Y220303D01*
X379635Y220399D01*
X379606Y220495D01*
X379573Y220589D01*
X379537Y220682D01*
X379497Y220773D01*
X379453Y220863D01*
X379406Y220951D01*
X379356Y221037D01*
X379302Y221121D01*
X379245Y221203D01*
X379185Y221282D01*
X379121Y221360D01*
X379055Y221434D01*
X378986Y221506D01*
X378914Y221575D01*
X378840Y221641D01*
X378762Y221705D01*
X378683Y221765D01*
X378601Y221822D01*
X378517Y221876D01*
X378431Y221926D01*
X378343Y221973D01*
X378253Y222017D01*
X378162Y222057D01*
X378069Y222093D01*
X377975Y222126D01*
X377879Y222155D01*
X377783Y222180D01*
X377686Y222201D01*
X377587Y222219D01*
X377489Y222232D01*
X377389Y222242D01*
X377290Y222248D01*
X377190Y222250D01*
X359410Y222250D02*
X359310Y222248D01*
X359211Y222242D01*
X359111Y222232D01*
X359013Y222219D01*
X358914Y222201D01*
X358817Y222180D01*
X358721Y222155D01*
X358625Y222126D01*
X358531Y222093D01*
X358438Y222057D01*
X358347Y222017D01*
X358257Y221973D01*
X358169Y221926D01*
X358083Y221876D01*
X357999Y221822D01*
X357917Y221765D01*
X357838Y221705D01*
X357760Y221641D01*
X357686Y221575D01*
X357614Y221506D01*
X357545Y221434D01*
X357479Y221360D01*
X357415Y221282D01*
X357355Y221203D01*
X357298Y221121D01*
X357244Y221037D01*
X357194Y220951D01*
X357147Y220863D01*
X357103Y220773D01*
X357063Y220682D01*
X357027Y220589D01*
X356994Y220495D01*
X356965Y220399D01*
X356940Y220303D01*
X356919Y220206D01*
X356901Y220107D01*
X356888Y220009D01*
X356878Y219909D01*
X356872Y219810D01*
X356870Y219710D01*
X359410Y158750D02*
X377190Y158750D01*
X356870Y161290D02*
X356870Y165100D01*
X358140Y166370D01*
X379730Y165100D02*
X379730Y161290D01*
X379730Y165100D02*
X378460Y166370D01*
X358140Y214630D02*
X356870Y215900D01*
X358140Y214630D02*
X358140Y166370D01*
X378460Y214630D02*
X379730Y215900D01*
X378460Y214630D02*
X378460Y166370D01*
X356870Y215900D02*
X356870Y219710D01*
X379730Y219710D02*
X379730Y215900D01*
X377190Y222250D02*
X359410Y222250D01*
D11*
X362575Y172342D02*
X366389Y168529D01*
X362575Y172342D02*
X374015Y172342D01*
X374015Y168529D02*
X374015Y176156D01*
X372108Y180223D02*
X364482Y180223D01*
X362575Y182130D01*
X362575Y185943D01*
X364482Y187849D01*
X372108Y187849D01*
X374015Y185943D01*
X374015Y182130D01*
X372108Y180223D01*
X364482Y187849D01*
X362575Y191917D02*
X374015Y191917D01*
X370202Y191917D02*
X374015Y197637D01*
X370202Y191917D02*
X366389Y197637D01*
D12*
X368300Y226568D03*
X368300Y154432D03*
D10*
X168910Y107950D02*
X168810Y107952D01*
X168711Y107958D01*
X168611Y107968D01*
X168513Y107981D01*
X168414Y107999D01*
X168317Y108020D01*
X168221Y108045D01*
X168125Y108074D01*
X168031Y108107D01*
X167938Y108143D01*
X167847Y108183D01*
X167757Y108227D01*
X167669Y108274D01*
X167583Y108324D01*
X167499Y108378D01*
X167417Y108435D01*
X167338Y108495D01*
X167260Y108559D01*
X167186Y108625D01*
X167114Y108694D01*
X167045Y108766D01*
X166979Y108840D01*
X166915Y108918D01*
X166855Y108997D01*
X166798Y109079D01*
X166744Y109163D01*
X166694Y109249D01*
X166647Y109337D01*
X166603Y109427D01*
X166563Y109518D01*
X166527Y109611D01*
X166494Y109705D01*
X166465Y109801D01*
X166440Y109897D01*
X166419Y109994D01*
X166401Y110093D01*
X166388Y110191D01*
X166378Y110291D01*
X166372Y110390D01*
X166370Y110490D01*
X186690Y107950D02*
X186790Y107952D01*
X186889Y107958D01*
X186989Y107968D01*
X187087Y107981D01*
X187186Y107999D01*
X187283Y108020D01*
X187379Y108045D01*
X187475Y108074D01*
X187569Y108107D01*
X187662Y108143D01*
X187753Y108183D01*
X187843Y108227D01*
X187931Y108274D01*
X188017Y108324D01*
X188101Y108378D01*
X188183Y108435D01*
X188262Y108495D01*
X188340Y108559D01*
X188414Y108625D01*
X188486Y108694D01*
X188555Y108766D01*
X188621Y108840D01*
X188685Y108918D01*
X188745Y108997D01*
X188802Y109079D01*
X188856Y109163D01*
X188906Y109249D01*
X188953Y109337D01*
X188997Y109427D01*
X189037Y109518D01*
X189073Y109611D01*
X189106Y109705D01*
X189135Y109801D01*
X189160Y109897D01*
X189181Y109994D01*
X189199Y110093D01*
X189212Y110191D01*
X189222Y110291D01*
X189228Y110390D01*
X189230Y110490D01*
X189230Y168910D02*
X189228Y169010D01*
X189222Y169109D01*
X189212Y169209D01*
X189199Y169307D01*
X189181Y169406D01*
X189160Y169503D01*
X189135Y169599D01*
X189106Y169695D01*
X189073Y169789D01*
X189037Y169882D01*
X188997Y169973D01*
X188953Y170063D01*
X188906Y170151D01*
X188856Y170237D01*
X188802Y170321D01*
X188745Y170403D01*
X188685Y170482D01*
X188621Y170560D01*
X188555Y170634D01*
X188486Y170706D01*
X188414Y170775D01*
X188340Y170841D01*
X188262Y170905D01*
X188183Y170965D01*
X188101Y171022D01*
X188017Y171076D01*
X187931Y171126D01*
X187843Y171173D01*
X187753Y171217D01*
X187662Y171257D01*
X187569Y171293D01*
X187475Y171326D01*
X187379Y171355D01*
X187283Y171380D01*
X187186Y171401D01*
X187087Y171419D01*
X186989Y171432D01*
X186889Y171442D01*
X186790Y171448D01*
X186690Y171450D01*
X168910Y171450D02*
X168810Y171448D01*
X168711Y171442D01*
X168611Y171432D01*
X168513Y171419D01*
X168414Y171401D01*
X168317Y171380D01*
X168221Y171355D01*
X168125Y171326D01*
X168031Y171293D01*
X167938Y171257D01*
X167847Y171217D01*
X167757Y171173D01*
X167669Y171126D01*
X167583Y171076D01*
X167499Y171022D01*
X167417Y170965D01*
X167338Y170905D01*
X167260Y170841D01*
X167186Y170775D01*
X167114Y170706D01*
X167045Y170634D01*
X166979Y170560D01*
X166915Y170482D01*
X166855Y170403D01*
X166798Y170321D01*
X166744Y170237D01*
X166694Y170151D01*
X166647Y170063D01*
X166603Y169973D01*
X166563Y169882D01*
X166527Y169789D01*
X166494Y169695D01*
X166465Y169599D01*
X166440Y169503D01*
X166419Y169406D01*
X166401Y169307D01*
X166388Y169209D01*
X166378Y169109D01*
X166372Y169010D01*
X166370Y168910D01*
X168910Y107950D02*
X186690Y107950D01*
X166370Y110490D02*
X166370Y114300D01*
X167640Y115570D01*
X189230Y114300D02*
X189230Y110490D01*
X189230Y114300D02*
X187960Y115570D01*
X167640Y163830D02*
X166370Y165100D01*
X167640Y163830D02*
X167640Y115570D01*
X187960Y163830D02*
X189230Y165100D01*
X187960Y163830D02*
X187960Y115570D01*
X166370Y165100D02*
X166370Y168910D01*
X189230Y168910D02*
X189230Y165100D01*
X186690Y171450D02*
X168910Y171450D01*
D11*
X172075Y119636D02*
X173982Y117729D01*
X172075Y119636D02*
X172075Y123449D01*
X173982Y125356D01*
X175889Y125356D01*
X177795Y123449D01*
X177795Y121542D01*
X177795Y123449D02*
X179702Y125356D01*
X181608Y125356D01*
X183515Y123449D01*
X183515Y119636D01*
X181608Y117729D01*
X173982Y129423D02*
X172075Y131330D01*
X172075Y135143D01*
X173982Y137049D01*
X175889Y137049D01*
X177795Y135143D01*
X177795Y133236D01*
X177795Y135143D02*
X179702Y137049D01*
X181608Y137049D01*
X183515Y135143D01*
X183515Y131330D01*
X181608Y129423D01*
X181608Y141117D02*
X173982Y141117D01*
X172075Y143024D01*
X172075Y146837D01*
X173982Y148743D01*
X181608Y148743D01*
X183515Y146837D01*
X183515Y143024D01*
X181608Y141117D01*
X173982Y148743D01*
D12*
X177800Y175768D03*
X177800Y103632D03*
D10*
X306070Y110490D02*
X306072Y110390D01*
X306078Y110291D01*
X306088Y110191D01*
X306101Y110093D01*
X306119Y109994D01*
X306140Y109897D01*
X306165Y109801D01*
X306194Y109705D01*
X306227Y109611D01*
X306263Y109518D01*
X306303Y109427D01*
X306347Y109337D01*
X306394Y109249D01*
X306444Y109163D01*
X306498Y109079D01*
X306555Y108997D01*
X306615Y108918D01*
X306679Y108840D01*
X306745Y108766D01*
X306814Y108694D01*
X306886Y108625D01*
X306960Y108559D01*
X307038Y108495D01*
X307117Y108435D01*
X307199Y108378D01*
X307283Y108324D01*
X307369Y108274D01*
X307457Y108227D01*
X307547Y108183D01*
X307638Y108143D01*
X307731Y108107D01*
X307825Y108074D01*
X307921Y108045D01*
X308017Y108020D01*
X308114Y107999D01*
X308213Y107981D01*
X308311Y107968D01*
X308411Y107958D01*
X308510Y107952D01*
X308610Y107950D01*
X326390Y107950D02*
X326490Y107952D01*
X326589Y107958D01*
X326689Y107968D01*
X326787Y107981D01*
X326886Y107999D01*
X326983Y108020D01*
X327079Y108045D01*
X327175Y108074D01*
X327269Y108107D01*
X327362Y108143D01*
X327453Y108183D01*
X327543Y108227D01*
X327631Y108274D01*
X327717Y108324D01*
X327801Y108378D01*
X327883Y108435D01*
X327962Y108495D01*
X328040Y108559D01*
X328114Y108625D01*
X328186Y108694D01*
X328255Y108766D01*
X328321Y108840D01*
X328385Y108918D01*
X328445Y108997D01*
X328502Y109079D01*
X328556Y109163D01*
X328606Y109249D01*
X328653Y109337D01*
X328697Y109427D01*
X328737Y109518D01*
X328773Y109611D01*
X328806Y109705D01*
X328835Y109801D01*
X328860Y109897D01*
X328881Y109994D01*
X328899Y110093D01*
X328912Y110191D01*
X328922Y110291D01*
X328928Y110390D01*
X328930Y110490D01*
X328930Y168910D02*
X328928Y169010D01*
X328922Y169109D01*
X328912Y169209D01*
X328899Y169307D01*
X328881Y169406D01*
X328860Y169503D01*
X328835Y169599D01*
X328806Y169695D01*
X328773Y169789D01*
X328737Y169882D01*
X328697Y169973D01*
X328653Y170063D01*
X328606Y170151D01*
X328556Y170237D01*
X328502Y170321D01*
X328445Y170403D01*
X328385Y170482D01*
X328321Y170560D01*
X328255Y170634D01*
X328186Y170706D01*
X328114Y170775D01*
X328040Y170841D01*
X327962Y170905D01*
X327883Y170965D01*
X327801Y171022D01*
X327717Y171076D01*
X327631Y171126D01*
X327543Y171173D01*
X327453Y171217D01*
X327362Y171257D01*
X327269Y171293D01*
X327175Y171326D01*
X327079Y171355D01*
X326983Y171380D01*
X326886Y171401D01*
X326787Y171419D01*
X326689Y171432D01*
X326589Y171442D01*
X326490Y171448D01*
X326390Y171450D01*
X308610Y171450D02*
X308510Y171448D01*
X308411Y171442D01*
X308311Y171432D01*
X308213Y171419D01*
X308114Y171401D01*
X308017Y171380D01*
X307921Y171355D01*
X307825Y171326D01*
X307731Y171293D01*
X307638Y171257D01*
X307547Y171217D01*
X307457Y171173D01*
X307369Y171126D01*
X307283Y171076D01*
X307199Y171022D01*
X307117Y170965D01*
X307038Y170905D01*
X306960Y170841D01*
X306886Y170775D01*
X306814Y170706D01*
X306745Y170634D01*
X306679Y170560D01*
X306615Y170482D01*
X306555Y170403D01*
X306498Y170321D01*
X306444Y170237D01*
X306394Y170151D01*
X306347Y170063D01*
X306303Y169973D01*
X306263Y169882D01*
X306227Y169789D01*
X306194Y169695D01*
X306165Y169599D01*
X306140Y169503D01*
X306119Y169406D01*
X306101Y169307D01*
X306088Y169209D01*
X306078Y169109D01*
X306072Y169010D01*
X306070Y168910D01*
X308610Y107950D02*
X326390Y107950D01*
X306070Y110490D02*
X306070Y114300D01*
X307340Y115570D01*
X328930Y114300D02*
X328930Y110490D01*
X328930Y114300D02*
X327660Y115570D01*
X307340Y163830D02*
X306070Y165100D01*
X307340Y163830D02*
X307340Y115570D01*
X327660Y163830D02*
X328930Y165100D01*
X327660Y163830D02*
X327660Y115570D01*
X306070Y165100D02*
X306070Y168910D01*
X328930Y168910D02*
X328930Y165100D01*
X326390Y171450D02*
X308610Y171450D01*
D11*
X311775Y119636D02*
X313682Y117729D01*
X311775Y119636D02*
X311775Y123449D01*
X313682Y125356D01*
X315589Y125356D01*
X317495Y123449D01*
X317495Y121542D01*
X317495Y123449D02*
X319402Y125356D01*
X321308Y125356D01*
X323215Y123449D01*
X323215Y119636D01*
X321308Y117729D01*
X313682Y129423D02*
X311775Y131330D01*
X311775Y135143D01*
X313682Y137049D01*
X315589Y137049D01*
X317495Y135143D01*
X317495Y133236D01*
X317495Y135143D02*
X319402Y137049D01*
X321308Y137049D01*
X323215Y135143D01*
X323215Y131330D01*
X321308Y129423D01*
X321308Y141117D02*
X313682Y141117D01*
X311775Y143024D01*
X311775Y146837D01*
X313682Y148743D01*
X321308Y148743D01*
X323215Y146837D01*
X323215Y143024D01*
X321308Y141117D01*
X313682Y148743D01*
D12*
X317500Y175768D03*
X317500Y103632D03*
D13*
X196850Y203200D02*
X158750Y203200D01*
D14*
X158134Y203674D01*
X157529Y204163D01*
X156937Y204667D01*
X156357Y205185D01*
X155790Y205717D01*
X155236Y206263D01*
X154696Y206822D01*
X154170Y207395D01*
X153657Y207980D01*
X153160Y208577D01*
X152677Y209186D01*
X152209Y209807D01*
X151756Y210440D01*
X151319Y211083D01*
X150898Y211737D01*
X150494Y212401D01*
X150105Y213074D01*
X149733Y213757D01*
X149378Y214449D01*
X149040Y215149D01*
X148719Y215857D01*
X148416Y216573D01*
X148130Y217297D01*
X147862Y218026D01*
X147612Y218763D01*
X147381Y219505D01*
X147167Y220253D01*
X146972Y221005D01*
X146795Y221763D01*
X146637Y222524D01*
X146497Y223289D01*
X146377Y224057D01*
X146275Y224828D01*
X146192Y225601D01*
X146128Y226376D01*
X146083Y227152D01*
X146057Y227929D01*
X146050Y228707D01*
X146062Y229484D01*
X146093Y230261D01*
X146144Y231037D01*
X146213Y231812D01*
X146301Y232584D01*
X146408Y233354D01*
X146534Y234122D01*
X146678Y234886D01*
X146842Y235646D01*
X147024Y236402D01*
X147224Y237153D01*
X147442Y237900D01*
X147679Y238640D01*
X147934Y239375D01*
X148207Y240103D01*
X148498Y240824D01*
X148806Y241538D01*
X149131Y242244D01*
X149474Y242942D01*
X149834Y243632D01*
X150210Y244312D01*
X150603Y244983D01*
X151013Y245644D01*
X151438Y246295D01*
X151879Y246935D01*
X152336Y247564D01*
X152808Y248182D01*
X153295Y248788D01*
X153797Y249382D01*
X154313Y249964D01*
X154843Y250533D01*
X155387Y251088D01*
X155945Y251631D01*
X156515Y252159D01*
X157098Y252673D01*
X157694Y253173D01*
X158302Y253658D01*
X158921Y254128D01*
X159552Y254582D01*
X160194Y255021D01*
X160846Y255445D01*
X161509Y255852D01*
X162181Y256243D01*
X162863Y256617D01*
X163553Y256974D01*
X164252Y257314D01*
X164960Y257638D01*
X165674Y257943D01*
X166397Y258232D01*
X167126Y258502D01*
X167861Y258754D01*
X168603Y258989D01*
X169350Y259205D01*
X170102Y259403D01*
X170858Y259582D01*
X171619Y259743D01*
X172383Y259885D01*
X173151Y260008D01*
X173922Y260112D01*
X174695Y260198D01*
X175469Y260264D01*
X176245Y260312D01*
X177022Y260340D01*
X177800Y260350D01*
X178578Y260340D01*
X179355Y260312D01*
X180131Y260264D01*
X180905Y260198D01*
X181678Y260112D01*
X182449Y260008D01*
X183217Y259885D01*
X183981Y259743D01*
X184742Y259582D01*
X185498Y259403D01*
X186250Y259205D01*
X186997Y258989D01*
X187739Y258754D01*
X188474Y258502D01*
X189203Y258232D01*
X189926Y257943D01*
X190640Y257638D01*
X191348Y257314D01*
X192047Y256974D01*
X192737Y256617D01*
X193419Y256243D01*
X194091Y255852D01*
X194754Y255445D01*
X195406Y255021D01*
X196048Y254582D01*
X196679Y254128D01*
X197298Y253658D01*
X197906Y253173D01*
X198502Y252673D01*
X199085Y252159D01*
X199655Y251631D01*
X200213Y251088D01*
X200757Y250533D01*
X201287Y249964D01*
X201803Y249382D01*
X202305Y248788D01*
X202792Y248182D01*
X203264Y247564D01*
X203721Y246935D01*
X204162Y246295D01*
X204587Y245644D01*
X204997Y244983D01*
X205390Y244312D01*
X205766Y243632D01*
X206126Y242942D01*
X206469Y242244D01*
X206794Y241538D01*
X207102Y240824D01*
X207393Y240103D01*
X207666Y239375D01*
X207921Y238640D01*
X208158Y237900D01*
X208376Y237153D01*
X208576Y236402D01*
X208758Y235646D01*
X208922Y234886D01*
X209066Y234122D01*
X209192Y233354D01*
X209299Y232584D01*
X209387Y231812D01*
X209456Y231037D01*
X209507Y230261D01*
X209538Y229484D01*
X209550Y228707D01*
X209543Y227929D01*
X209517Y227152D01*
X209472Y226376D01*
X209408Y225601D01*
X209325Y224828D01*
X209223Y224057D01*
X209103Y223289D01*
X208963Y222524D01*
X208805Y221763D01*
X208628Y221005D01*
X208433Y220253D01*
X208219Y219505D01*
X207988Y218763D01*
X207738Y218026D01*
X207470Y217297D01*
X207184Y216573D01*
X206881Y215857D01*
X206560Y215149D01*
X206222Y214449D01*
X205867Y213757D01*
X205495Y213074D01*
X205106Y212401D01*
X204702Y211737D01*
X204281Y211083D01*
X203844Y210440D01*
X203391Y209807D01*
X202923Y209186D01*
X202440Y208577D01*
X201943Y207980D01*
X201430Y207395D01*
X200904Y206822D01*
X200364Y206263D01*
X199810Y205717D01*
X199243Y205185D01*
X198663Y204667D01*
X198071Y204163D01*
X197466Y203674D01*
X196850Y203200D01*
D10*
X152400Y228600D02*
X152408Y229223D01*
X152431Y229846D01*
X152469Y230469D01*
X152522Y231090D01*
X152591Y231709D01*
X152675Y232327D01*
X152774Y232942D01*
X152888Y233555D01*
X153017Y234165D01*
X153161Y234772D01*
X153320Y235375D01*
X153494Y235973D01*
X153682Y236568D01*
X153885Y237157D01*
X154102Y237741D01*
X154333Y238320D01*
X154579Y238893D01*
X154839Y239460D01*
X155112Y240020D01*
X155399Y240573D01*
X155700Y241120D01*
X156014Y241658D01*
X156341Y242189D01*
X156681Y242711D01*
X157033Y243226D01*
X157399Y243731D01*
X157776Y244227D01*
X158166Y244714D01*
X158567Y245191D01*
X158980Y245658D01*
X159404Y246114D01*
X159839Y246561D01*
X160286Y246996D01*
X160742Y247420D01*
X161209Y247833D01*
X161686Y248234D01*
X162173Y248624D01*
X162669Y249001D01*
X163174Y249367D01*
X163689Y249719D01*
X164211Y250059D01*
X164742Y250386D01*
X165280Y250700D01*
X165827Y251001D01*
X166380Y251288D01*
X166940Y251561D01*
X167507Y251821D01*
X168080Y252067D01*
X168659Y252298D01*
X169243Y252515D01*
X169832Y252718D01*
X170427Y252906D01*
X171025Y253080D01*
X171628Y253239D01*
X172235Y253383D01*
X172845Y253512D01*
X173458Y253626D01*
X174073Y253725D01*
X174691Y253809D01*
X175310Y253878D01*
X175931Y253931D01*
X176554Y253969D01*
X177177Y253992D01*
X177800Y254000D01*
X178423Y253992D01*
X179046Y253969D01*
X179669Y253931D01*
X180290Y253878D01*
X180909Y253809D01*
X181527Y253725D01*
X182142Y253626D01*
X182755Y253512D01*
X183365Y253383D01*
X183972Y253239D01*
X184575Y253080D01*
X185173Y252906D01*
X185768Y252718D01*
X186357Y252515D01*
X186941Y252298D01*
X187520Y252067D01*
X188093Y251821D01*
X188660Y251561D01*
X189220Y251288D01*
X189773Y251001D01*
X190320Y250700D01*
X190858Y250386D01*
X191389Y250059D01*
X191911Y249719D01*
X192426Y249367D01*
X192931Y249001D01*
X193427Y248624D01*
X193914Y248234D01*
X194391Y247833D01*
X194858Y247420D01*
X195314Y246996D01*
X195761Y246561D01*
X196196Y246114D01*
X196620Y245658D01*
X197033Y245191D01*
X197434Y244714D01*
X197824Y244227D01*
X198201Y243731D01*
X198567Y243226D01*
X198919Y242711D01*
X199259Y242189D01*
X199586Y241658D01*
X199900Y241120D01*
X200201Y240573D01*
X200488Y240020D01*
X200761Y239460D01*
X201021Y238893D01*
X201267Y238320D01*
X201498Y237741D01*
X201715Y237157D01*
X201918Y236568D01*
X202106Y235973D01*
X202280Y235375D01*
X202439Y234772D01*
X202583Y234165D01*
X202712Y233555D01*
X202826Y232942D01*
X202925Y232327D01*
X203009Y231709D01*
X203078Y231090D01*
X203131Y230469D01*
X203169Y229846D01*
X203192Y229223D01*
X203200Y228600D01*
X203192Y227977D01*
X203169Y227354D01*
X203131Y226731D01*
X203078Y226110D01*
X203009Y225491D01*
X202925Y224873D01*
X202826Y224258D01*
X202712Y223645D01*
X202583Y223035D01*
X202439Y222428D01*
X202280Y221825D01*
X202106Y221227D01*
X201918Y220632D01*
X201715Y220043D01*
X201498Y219459D01*
X201267Y218880D01*
X201021Y218307D01*
X200761Y217740D01*
X200488Y217180D01*
X200201Y216627D01*
X199900Y216080D01*
X199586Y215542D01*
X199259Y215011D01*
X198919Y214489D01*
X198567Y213974D01*
X198201Y213469D01*
X197824Y212973D01*
X197434Y212486D01*
X197033Y212009D01*
X196620Y211542D01*
X196196Y211086D01*
X195761Y210639D01*
X195314Y210204D01*
X194858Y209780D01*
X194391Y209367D01*
X193914Y208966D01*
X193427Y208576D01*
X192931Y208199D01*
X192426Y207833D01*
X191911Y207481D01*
X191389Y207141D01*
X190858Y206814D01*
X190320Y206500D01*
X189773Y206199D01*
X189220Y205912D01*
X188660Y205639D01*
X188093Y205379D01*
X187520Y205133D01*
X186941Y204902D01*
X186357Y204685D01*
X185768Y204482D01*
X185173Y204294D01*
X184575Y204120D01*
X183972Y203961D01*
X183365Y203817D01*
X182755Y203688D01*
X182142Y203574D01*
X181527Y203475D01*
X180909Y203391D01*
X180290Y203322D01*
X179669Y203269D01*
X179046Y203231D01*
X178423Y203208D01*
X177800Y203200D01*
X177177Y203208D01*
X176554Y203231D01*
X175931Y203269D01*
X175310Y203322D01*
X174691Y203391D01*
X174073Y203475D01*
X173458Y203574D01*
X172845Y203688D01*
X172235Y203817D01*
X171628Y203961D01*
X171025Y204120D01*
X170427Y204294D01*
X169832Y204482D01*
X169243Y204685D01*
X168659Y204902D01*
X168080Y205133D01*
X167507Y205379D01*
X166940Y205639D01*
X166380Y205912D01*
X165827Y206199D01*
X165280Y206500D01*
X164742Y206814D01*
X164211Y207141D01*
X163689Y207481D01*
X163174Y207833D01*
X162669Y208199D01*
X162173Y208576D01*
X161686Y208966D01*
X161209Y209367D01*
X160742Y209780D01*
X160286Y210204D01*
X159839Y210639D01*
X159404Y211086D01*
X158980Y211542D01*
X158567Y212009D01*
X158166Y212486D01*
X157776Y212973D01*
X157399Y213469D01*
X157033Y213974D01*
X156681Y214489D01*
X156341Y215011D01*
X156014Y215542D01*
X155700Y216080D01*
X155399Y216627D01*
X155112Y217180D01*
X154839Y217740D01*
X154579Y218307D01*
X154333Y218880D01*
X154102Y219459D01*
X153885Y220043D01*
X153682Y220632D01*
X153494Y221227D01*
X153320Y221825D01*
X153161Y222428D01*
X153017Y223035D01*
X152888Y223645D01*
X152774Y224258D01*
X152675Y224873D01*
X152591Y225491D01*
X152522Y226110D01*
X152469Y226731D01*
X152431Y227354D01*
X152408Y227977D01*
X152400Y228600D01*
D13*
X298450Y203200D02*
X336550Y203200D01*
D14*
X337166Y203674D01*
X337771Y204163D01*
X338363Y204667D01*
X338943Y205185D01*
X339510Y205717D01*
X340064Y206263D01*
X340604Y206822D01*
X341130Y207395D01*
X341643Y207980D01*
X342140Y208577D01*
X342623Y209186D01*
X343091Y209807D01*
X343544Y210440D01*
X343981Y211083D01*
X344402Y211737D01*
X344806Y212401D01*
X345195Y213074D01*
X345567Y213757D01*
X345922Y214449D01*
X346260Y215149D01*
X346581Y215857D01*
X346884Y216573D01*
X347170Y217297D01*
X347438Y218026D01*
X347688Y218763D01*
X347919Y219505D01*
X348133Y220253D01*
X348328Y221005D01*
X348505Y221763D01*
X348663Y222524D01*
X348803Y223289D01*
X348923Y224057D01*
X349025Y224828D01*
X349108Y225601D01*
X349172Y226376D01*
X349217Y227152D01*
X349243Y227929D01*
X349250Y228707D01*
X349238Y229484D01*
X349207Y230261D01*
X349156Y231037D01*
X349087Y231812D01*
X348999Y232584D01*
X348892Y233354D01*
X348766Y234122D01*
X348622Y234886D01*
X348458Y235646D01*
X348276Y236402D01*
X348076Y237153D01*
X347858Y237900D01*
X347621Y238640D01*
X347366Y239375D01*
X347093Y240103D01*
X346802Y240824D01*
X346494Y241538D01*
X346169Y242244D01*
X345826Y242942D01*
X345466Y243632D01*
X345090Y244312D01*
X344697Y244983D01*
X344287Y245644D01*
X343862Y246295D01*
X343421Y246935D01*
X342964Y247564D01*
X342492Y248182D01*
X342005Y248788D01*
X341503Y249382D01*
X340987Y249964D01*
X340457Y250533D01*
X339913Y251088D01*
X339355Y251631D01*
X338785Y252159D01*
X338202Y252673D01*
X337606Y253173D01*
X336998Y253658D01*
X336379Y254128D01*
X335748Y254582D01*
X335106Y255021D01*
X334454Y255445D01*
X333791Y255852D01*
X333119Y256243D01*
X332437Y256617D01*
X331747Y256974D01*
X331048Y257314D01*
X330340Y257638D01*
X329626Y257943D01*
X328903Y258232D01*
X328174Y258502D01*
X327439Y258754D01*
X326697Y258989D01*
X325950Y259205D01*
X325198Y259403D01*
X324442Y259582D01*
X323681Y259743D01*
X322917Y259885D01*
X322149Y260008D01*
X321378Y260112D01*
X320605Y260198D01*
X319831Y260264D01*
X319055Y260312D01*
X318278Y260340D01*
X317500Y260350D01*
X316722Y260340D01*
X315945Y260312D01*
X315169Y260264D01*
X314395Y260198D01*
X313622Y260112D01*
X312851Y260008D01*
X312083Y259885D01*
X311319Y259743D01*
X310558Y259582D01*
X309802Y259403D01*
X309050Y259205D01*
X308303Y258989D01*
X307561Y258754D01*
X306826Y258502D01*
X306097Y258232D01*
X305374Y257943D01*
X304660Y257638D01*
X303952Y257314D01*
X303253Y256974D01*
X302563Y256617D01*
X301881Y256243D01*
X301209Y255852D01*
X300546Y255445D01*
X299894Y255021D01*
X299252Y254582D01*
X298621Y254128D01*
X298002Y253658D01*
X297394Y253173D01*
X296798Y252673D01*
X296215Y252159D01*
X295645Y251631D01*
X295087Y251088D01*
X294543Y250533D01*
X294013Y249964D01*
X293497Y249382D01*
X292995Y248788D01*
X292508Y248182D01*
X292036Y247564D01*
X291579Y246935D01*
X291138Y246295D01*
X290713Y245644D01*
X290303Y244983D01*
X289910Y244312D01*
X289534Y243632D01*
X289174Y242942D01*
X288831Y242244D01*
X288506Y241538D01*
X288198Y240824D01*
X287907Y240103D01*
X287634Y239375D01*
X287379Y238640D01*
X287142Y237900D01*
X286924Y237153D01*
X286724Y236402D01*
X286542Y235646D01*
X286378Y234886D01*
X286234Y234122D01*
X286108Y233354D01*
X286001Y232584D01*
X285913Y231812D01*
X285844Y231037D01*
X285793Y230261D01*
X285762Y229484D01*
X285750Y228707D01*
X285757Y227929D01*
X285783Y227152D01*
X285828Y226376D01*
X285892Y225601D01*
X285975Y224828D01*
X286077Y224057D01*
X286197Y223289D01*
X286337Y222524D01*
X286495Y221763D01*
X286672Y221005D01*
X286867Y220253D01*
X287081Y219505D01*
X287312Y218763D01*
X287562Y218026D01*
X287830Y217297D01*
X288116Y216573D01*
X288419Y215857D01*
X288740Y215149D01*
X289078Y214449D01*
X289433Y213757D01*
X289805Y213074D01*
X290194Y212401D01*
X290598Y211737D01*
X291019Y211083D01*
X291456Y210440D01*
X291909Y209807D01*
X292377Y209186D01*
X292860Y208577D01*
X293357Y207980D01*
X293870Y207395D01*
X294396Y206822D01*
X294936Y206263D01*
X295490Y205717D01*
X296057Y205185D01*
X296637Y204667D01*
X297229Y204163D01*
X297834Y203674D01*
X298450Y203200D01*
D10*
X292100Y228600D02*
X292108Y229223D01*
X292131Y229846D01*
X292169Y230469D01*
X292222Y231090D01*
X292291Y231709D01*
X292375Y232327D01*
X292474Y232942D01*
X292588Y233555D01*
X292717Y234165D01*
X292861Y234772D01*
X293020Y235375D01*
X293194Y235973D01*
X293382Y236568D01*
X293585Y237157D01*
X293802Y237741D01*
X294033Y238320D01*
X294279Y238893D01*
X294539Y239460D01*
X294812Y240020D01*
X295099Y240573D01*
X295400Y241120D01*
X295714Y241658D01*
X296041Y242189D01*
X296381Y242711D01*
X296733Y243226D01*
X297099Y243731D01*
X297476Y244227D01*
X297866Y244714D01*
X298267Y245191D01*
X298680Y245658D01*
X299104Y246114D01*
X299539Y246561D01*
X299986Y246996D01*
X300442Y247420D01*
X300909Y247833D01*
X301386Y248234D01*
X301873Y248624D01*
X302369Y249001D01*
X302874Y249367D01*
X303389Y249719D01*
X303911Y250059D01*
X304442Y250386D01*
X304980Y250700D01*
X305527Y251001D01*
X306080Y251288D01*
X306640Y251561D01*
X307207Y251821D01*
X307780Y252067D01*
X308359Y252298D01*
X308943Y252515D01*
X309532Y252718D01*
X310127Y252906D01*
X310725Y253080D01*
X311328Y253239D01*
X311935Y253383D01*
X312545Y253512D01*
X313158Y253626D01*
X313773Y253725D01*
X314391Y253809D01*
X315010Y253878D01*
X315631Y253931D01*
X316254Y253969D01*
X316877Y253992D01*
X317500Y254000D01*
X318123Y253992D01*
X318746Y253969D01*
X319369Y253931D01*
X319990Y253878D01*
X320609Y253809D01*
X321227Y253725D01*
X321842Y253626D01*
X322455Y253512D01*
X323065Y253383D01*
X323672Y253239D01*
X324275Y253080D01*
X324873Y252906D01*
X325468Y252718D01*
X326057Y252515D01*
X326641Y252298D01*
X327220Y252067D01*
X327793Y251821D01*
X328360Y251561D01*
X328920Y251288D01*
X329473Y251001D01*
X330020Y250700D01*
X330558Y250386D01*
X331089Y250059D01*
X331611Y249719D01*
X332126Y249367D01*
X332631Y249001D01*
X333127Y248624D01*
X333614Y248234D01*
X334091Y247833D01*
X334558Y247420D01*
X335014Y246996D01*
X335461Y246561D01*
X335896Y246114D01*
X336320Y245658D01*
X336733Y245191D01*
X337134Y244714D01*
X337524Y244227D01*
X337901Y243731D01*
X338267Y243226D01*
X338619Y242711D01*
X338959Y242189D01*
X339286Y241658D01*
X339600Y241120D01*
X339901Y240573D01*
X340188Y240020D01*
X340461Y239460D01*
X340721Y238893D01*
X340967Y238320D01*
X341198Y237741D01*
X341415Y237157D01*
X341618Y236568D01*
X341806Y235973D01*
X341980Y235375D01*
X342139Y234772D01*
X342283Y234165D01*
X342412Y233555D01*
X342526Y232942D01*
X342625Y232327D01*
X342709Y231709D01*
X342778Y231090D01*
X342831Y230469D01*
X342869Y229846D01*
X342892Y229223D01*
X342900Y228600D01*
X342892Y227977D01*
X342869Y227354D01*
X342831Y226731D01*
X342778Y226110D01*
X342709Y225491D01*
X342625Y224873D01*
X342526Y224258D01*
X342412Y223645D01*
X342283Y223035D01*
X342139Y222428D01*
X341980Y221825D01*
X341806Y221227D01*
X341618Y220632D01*
X341415Y220043D01*
X341198Y219459D01*
X340967Y218880D01*
X340721Y218307D01*
X340461Y217740D01*
X340188Y217180D01*
X339901Y216627D01*
X339600Y216080D01*
X339286Y215542D01*
X338959Y215011D01*
X338619Y214489D01*
X338267Y213974D01*
X337901Y213469D01*
X337524Y212973D01*
X337134Y212486D01*
X336733Y212009D01*
X336320Y211542D01*
X335896Y211086D01*
X335461Y210639D01*
X335014Y210204D01*
X334558Y209780D01*
X334091Y209367D01*
X333614Y208966D01*
X333127Y208576D01*
X332631Y208199D01*
X332126Y207833D01*
X331611Y207481D01*
X331089Y207141D01*
X330558Y206814D01*
X330020Y206500D01*
X329473Y206199D01*
X328920Y205912D01*
X328360Y205639D01*
X327793Y205379D01*
X327220Y205133D01*
X326641Y204902D01*
X326057Y204685D01*
X325468Y204482D01*
X324873Y204294D01*
X324275Y204120D01*
X323672Y203961D01*
X323065Y203817D01*
X322455Y203688D01*
X321842Y203574D01*
X321227Y203475D01*
X320609Y203391D01*
X319990Y203322D01*
X319369Y203269D01*
X318746Y203231D01*
X318123Y203208D01*
X317500Y203200D01*
X316877Y203208D01*
X316254Y203231D01*
X315631Y203269D01*
X315010Y203322D01*
X314391Y203391D01*
X313773Y203475D01*
X313158Y203574D01*
X312545Y203688D01*
X311935Y203817D01*
X311328Y203961D01*
X310725Y204120D01*
X310127Y204294D01*
X309532Y204482D01*
X308943Y204685D01*
X308359Y204902D01*
X307780Y205133D01*
X307207Y205379D01*
X306640Y205639D01*
X306080Y205912D01*
X305527Y206199D01*
X304980Y206500D01*
X304442Y206814D01*
X303911Y207141D01*
X303389Y207481D01*
X302874Y207833D01*
X302369Y208199D01*
X301873Y208576D01*
X301386Y208966D01*
X300909Y209367D01*
X300442Y209780D01*
X299986Y210204D01*
X299539Y210639D01*
X299104Y211086D01*
X298680Y211542D01*
X298267Y212009D01*
X297866Y212486D01*
X297476Y212973D01*
X297099Y213469D01*
X296733Y213974D01*
X296381Y214489D01*
X296041Y215011D01*
X295714Y215542D01*
X295400Y216080D01*
X295099Y216627D01*
X294812Y217180D01*
X294539Y217740D01*
X294279Y218307D01*
X294033Y218880D01*
X293802Y219459D01*
X293585Y220043D01*
X293382Y220632D01*
X293194Y221227D01*
X293020Y221825D01*
X292861Y222428D01*
X292717Y223035D01*
X292588Y223645D01*
X292474Y224258D01*
X292375Y224873D01*
X292291Y225491D01*
X292222Y226110D01*
X292169Y226731D01*
X292131Y227354D01*
X292108Y227977D01*
X292100Y228600D01*
X288290Y115570D02*
X280670Y115570D01*
X284480Y119380D02*
X284480Y111760D01*
X213360Y127000D02*
X213372Y127997D01*
X213409Y128994D01*
X213470Y129990D01*
X213556Y130983D01*
X213666Y131975D01*
X213800Y132963D01*
X213958Y133948D01*
X214141Y134928D01*
X214347Y135904D01*
X214578Y136875D01*
X214832Y137839D01*
X215110Y138797D01*
X215411Y139748D01*
X215736Y140691D01*
X216083Y141626D01*
X216454Y142552D01*
X216847Y143469D01*
X217262Y144376D01*
X217699Y145272D01*
X218159Y146158D01*
X218640Y147031D01*
X219142Y147893D01*
X219665Y148742D01*
X220209Y149578D01*
X220773Y150401D01*
X221358Y151209D01*
X221962Y152003D01*
X222585Y152782D01*
X223227Y153545D01*
X223888Y154292D01*
X224567Y155023D01*
X225263Y155737D01*
X225977Y156433D01*
X226708Y157112D01*
X227455Y157773D01*
X228218Y158415D01*
X228997Y159038D01*
X229791Y159642D01*
X230599Y160227D01*
X231422Y160791D01*
X232258Y161335D01*
X233107Y161858D01*
X233969Y162360D01*
X234842Y162841D01*
X235728Y163301D01*
X236624Y163738D01*
X237531Y164153D01*
X238448Y164546D01*
X239374Y164917D01*
X240309Y165264D01*
X241252Y165589D01*
X242203Y165890D01*
X243161Y166168D01*
X244125Y166422D01*
X245096Y166653D01*
X246072Y166859D01*
X247052Y167042D01*
X248037Y167200D01*
X249025Y167334D01*
X250017Y167444D01*
X251010Y167530D01*
X252006Y167591D01*
X253003Y167628D01*
X254000Y167640D01*
X254997Y167628D01*
X255994Y167591D01*
X256990Y167530D01*
X257983Y167444D01*
X258975Y167334D01*
X259963Y167200D01*
X260948Y167042D01*
X261928Y166859D01*
X262904Y166653D01*
X263875Y166422D01*
X264839Y166168D01*
X265797Y165890D01*
X266748Y165589D01*
X267691Y165264D01*
X268626Y164917D01*
X269552Y164546D01*
X270469Y164153D01*
X271376Y163738D01*
X272272Y163301D01*
X273158Y162841D01*
X274031Y162360D01*
X274893Y161858D01*
X275742Y161335D01*
X276578Y160791D01*
X277401Y160227D01*
X278209Y159642D01*
X279003Y159038D01*
X279782Y158415D01*
X280545Y157773D01*
X281292Y157112D01*
X282023Y156433D01*
X282737Y155737D01*
X283433Y155023D01*
X284112Y154292D01*
X284773Y153545D01*
X285415Y152782D01*
X286038Y152003D01*
X286642Y151209D01*
X287227Y150401D01*
X287791Y149578D01*
X288335Y148742D01*
X288858Y147893D01*
X289360Y147031D01*
X289841Y146158D01*
X290301Y145272D01*
X290738Y144376D01*
X291153Y143469D01*
X291546Y142552D01*
X291917Y141626D01*
X292264Y140691D01*
X292589Y139748D01*
X292890Y138797D01*
X293168Y137839D01*
X293422Y136875D01*
X293653Y135904D01*
X293859Y134928D01*
X294042Y133948D01*
X294200Y132963D01*
X294334Y131975D01*
X294444Y130983D01*
X294530Y129990D01*
X294591Y128994D01*
X294628Y127997D01*
X294640Y127000D01*
X294628Y126003D01*
X294591Y125006D01*
X294530Y124010D01*
X294444Y123017D01*
X294334Y122025D01*
X294200Y121037D01*
X294042Y120052D01*
X293859Y119072D01*
X293653Y118096D01*
X293422Y117125D01*
X293168Y116161D01*
X292890Y115203D01*
X292589Y114252D01*
X292264Y113309D01*
X291917Y112374D01*
X291546Y111448D01*
X291153Y110531D01*
X290738Y109624D01*
X290301Y108728D01*
X289841Y107842D01*
X289360Y106969D01*
X288858Y106107D01*
X288335Y105258D01*
X287791Y104422D01*
X287227Y103599D01*
X286642Y102791D01*
X286038Y101997D01*
X285415Y101218D01*
X284773Y100455D01*
X284112Y99708D01*
X283433Y98977D01*
X282737Y98263D01*
X282023Y97567D01*
X281292Y96888D01*
X280545Y96227D01*
X279782Y95585D01*
X279003Y94962D01*
X278209Y94358D01*
X277401Y93773D01*
X276578Y93209D01*
X275742Y92665D01*
X274893Y92142D01*
X274031Y91640D01*
X273158Y91159D01*
X272272Y90699D01*
X271376Y90262D01*
X270469Y89847D01*
X269552Y89454D01*
X268626Y89083D01*
X267691Y88736D01*
X266748Y88411D01*
X265797Y88110D01*
X264839Y87832D01*
X263875Y87578D01*
X262904Y87347D01*
X261928Y87141D01*
X260948Y86958D01*
X259963Y86800D01*
X258975Y86666D01*
X257983Y86556D01*
X256990Y86470D01*
X255994Y86409D01*
X254997Y86372D01*
X254000Y86360D01*
X253003Y86372D01*
X252006Y86409D01*
X251010Y86470D01*
X250017Y86556D01*
X249025Y86666D01*
X248037Y86800D01*
X247052Y86958D01*
X246072Y87141D01*
X245096Y87347D01*
X244125Y87578D01*
X243161Y87832D01*
X242203Y88110D01*
X241252Y88411D01*
X240309Y88736D01*
X239374Y89083D01*
X238448Y89454D01*
X237531Y89847D01*
X236624Y90262D01*
X235728Y90699D01*
X234842Y91159D01*
X233969Y91640D01*
X233107Y92142D01*
X232258Y92665D01*
X231422Y93209D01*
X230599Y93773D01*
X229791Y94358D01*
X228997Y94962D01*
X228218Y95585D01*
X227455Y96227D01*
X226708Y96888D01*
X225977Y97567D01*
X225263Y98263D01*
X224567Y98977D01*
X223888Y99708D01*
X223227Y100455D01*
X222585Y101218D01*
X221962Y101997D01*
X221358Y102791D01*
X220773Y103599D01*
X220209Y104422D01*
X219665Y105258D01*
X219142Y106107D01*
X218640Y106969D01*
X218159Y107842D01*
X217699Y108728D01*
X217262Y109624D01*
X216847Y110531D01*
X216454Y111448D01*
X216083Y112374D01*
X215736Y113309D01*
X215411Y114252D01*
X215110Y115203D01*
X214832Y116161D01*
X214578Y117125D01*
X214347Y118096D01*
X214141Y119072D01*
X213958Y120052D01*
X213800Y121037D01*
X213666Y122025D01*
X213556Y123017D01*
X213470Y124010D01*
X213409Y125006D01*
X213372Y126003D01*
X213360Y127000D01*
D11*
X242413Y153042D02*
X246226Y156855D01*
X246226Y145415D01*
X242413Y145415D02*
X250040Y145415D01*
X254107Y147322D02*
X254107Y154948D01*
X256014Y156855D01*
X259827Y156855D01*
X261734Y154948D01*
X261734Y147322D01*
X259827Y145415D01*
X256014Y145415D01*
X254107Y147322D01*
X261734Y154948D01*
X265801Y153042D02*
X265801Y147322D01*
X267708Y145415D01*
X273427Y145415D01*
X273427Y153042D01*
D10*
X227330Y49530D02*
X219710Y49530D01*
X223520Y45720D02*
X223520Y53340D01*
X213360Y38100D02*
X213372Y39097D01*
X213409Y40094D01*
X213470Y41090D01*
X213556Y42083D01*
X213666Y43075D01*
X213800Y44063D01*
X213958Y45048D01*
X214141Y46028D01*
X214347Y47004D01*
X214578Y47975D01*
X214832Y48939D01*
X215110Y49897D01*
X215411Y50848D01*
X215736Y51791D01*
X216083Y52726D01*
X216454Y53652D01*
X216847Y54569D01*
X217262Y55476D01*
X217699Y56372D01*
X218159Y57258D01*
X218640Y58131D01*
X219142Y58993D01*
X219665Y59842D01*
X220209Y60678D01*
X220773Y61501D01*
X221358Y62309D01*
X221962Y63103D01*
X222585Y63882D01*
X223227Y64645D01*
X223888Y65392D01*
X224567Y66123D01*
X225263Y66837D01*
X225977Y67533D01*
X226708Y68212D01*
X227455Y68873D01*
X228218Y69515D01*
X228997Y70138D01*
X229791Y70742D01*
X230599Y71327D01*
X231422Y71891D01*
X232258Y72435D01*
X233107Y72958D01*
X233969Y73460D01*
X234842Y73941D01*
X235728Y74401D01*
X236624Y74838D01*
X237531Y75253D01*
X238448Y75646D01*
X239374Y76017D01*
X240309Y76364D01*
X241252Y76689D01*
X242203Y76990D01*
X243161Y77268D01*
X244125Y77522D01*
X245096Y77753D01*
X246072Y77959D01*
X247052Y78142D01*
X248037Y78300D01*
X249025Y78434D01*
X250017Y78544D01*
X251010Y78630D01*
X252006Y78691D01*
X253003Y78728D01*
X254000Y78740D01*
X254997Y78728D01*
X255994Y78691D01*
X256990Y78630D01*
X257983Y78544D01*
X258975Y78434D01*
X259963Y78300D01*
X260948Y78142D01*
X261928Y77959D01*
X262904Y77753D01*
X263875Y77522D01*
X264839Y77268D01*
X265797Y76990D01*
X266748Y76689D01*
X267691Y76364D01*
X268626Y76017D01*
X269552Y75646D01*
X270469Y75253D01*
X271376Y74838D01*
X272272Y74401D01*
X273158Y73941D01*
X274031Y73460D01*
X274893Y72958D01*
X275742Y72435D01*
X276578Y71891D01*
X277401Y71327D01*
X278209Y70742D01*
X279003Y70138D01*
X279782Y69515D01*
X280545Y68873D01*
X281292Y68212D01*
X282023Y67533D01*
X282737Y66837D01*
X283433Y66123D01*
X284112Y65392D01*
X284773Y64645D01*
X285415Y63882D01*
X286038Y63103D01*
X286642Y62309D01*
X287227Y61501D01*
X287791Y60678D01*
X288335Y59842D01*
X288858Y58993D01*
X289360Y58131D01*
X289841Y57258D01*
X290301Y56372D01*
X290738Y55476D01*
X291153Y54569D01*
X291546Y53652D01*
X291917Y52726D01*
X292264Y51791D01*
X292589Y50848D01*
X292890Y49897D01*
X293168Y48939D01*
X293422Y47975D01*
X293653Y47004D01*
X293859Y46028D01*
X294042Y45048D01*
X294200Y44063D01*
X294334Y43075D01*
X294444Y42083D01*
X294530Y41090D01*
X294591Y40094D01*
X294628Y39097D01*
X294640Y38100D01*
X294628Y37103D01*
X294591Y36106D01*
X294530Y35110D01*
X294444Y34117D01*
X294334Y33125D01*
X294200Y32137D01*
X294042Y31152D01*
X293859Y30172D01*
X293653Y29196D01*
X293422Y28225D01*
X293168Y27261D01*
X292890Y26303D01*
X292589Y25352D01*
X292264Y24409D01*
X291917Y23474D01*
X291546Y22548D01*
X291153Y21631D01*
X290738Y20724D01*
X290301Y19828D01*
X289841Y18942D01*
X289360Y18069D01*
X288858Y17207D01*
X288335Y16358D01*
X287791Y15522D01*
X287227Y14699D01*
X286642Y13891D01*
X286038Y13097D01*
X285415Y12318D01*
X284773Y11555D01*
X284112Y10808D01*
X283433Y10077D01*
X282737Y9363D01*
X282023Y8667D01*
X281292Y7988D01*
X280545Y7327D01*
X279782Y6685D01*
X279003Y6062D01*
X278209Y5458D01*
X277401Y4873D01*
X276578Y4309D01*
X275742Y3765D01*
X274893Y3242D01*
X274031Y2740D01*
X273158Y2259D01*
X272272Y1799D01*
X271376Y1362D01*
X270469Y947D01*
X269552Y554D01*
X268626Y183D01*
X267691Y-164D01*
X266748Y-489D01*
X265797Y-790D01*
X264839Y-1068D01*
X263875Y-1322D01*
X262904Y-1553D01*
X261928Y-1759D01*
X260948Y-1942D01*
X259963Y-2100D01*
X258975Y-2234D01*
X257983Y-2344D01*
X256990Y-2430D01*
X255994Y-2491D01*
X254997Y-2528D01*
X254000Y-2540D01*
X253003Y-2528D01*
X252006Y-2491D01*
X251010Y-2430D01*
X250017Y-2344D01*
X249025Y-2234D01*
X248037Y-2100D01*
X247052Y-1942D01*
X246072Y-1759D01*
X245096Y-1553D01*
X244125Y-1322D01*
X243161Y-1068D01*
X242203Y-790D01*
X241252Y-489D01*
X240309Y-164D01*
X239374Y183D01*
X238448Y554D01*
X237531Y947D01*
X236624Y1362D01*
X235728Y1799D01*
X234842Y2259D01*
X233969Y2740D01*
X233107Y3242D01*
X232258Y3765D01*
X231422Y4309D01*
X230599Y4873D01*
X229791Y5458D01*
X228997Y6062D01*
X228218Y6685D01*
X227455Y7327D01*
X226708Y7988D01*
X225977Y8667D01*
X225263Y9363D01*
X224567Y10077D01*
X223888Y10808D01*
X223227Y11555D01*
X222585Y12318D01*
X221962Y13097D01*
X221358Y13891D01*
X220773Y14699D01*
X220209Y15522D01*
X219665Y16358D01*
X219142Y17207D01*
X218640Y18069D01*
X218159Y18942D01*
X217699Y19828D01*
X217262Y20724D01*
X216847Y21631D01*
X216454Y22548D01*
X216083Y23474D01*
X215736Y24409D01*
X215411Y25352D01*
X215110Y26303D01*
X214832Y27261D01*
X214578Y28225D01*
X214347Y29196D01*
X214141Y30172D01*
X213958Y31152D01*
X213800Y32137D01*
X213666Y33125D01*
X213556Y34117D01*
X213470Y35110D01*
X213409Y36106D01*
X213372Y37103D01*
X213360Y38100D01*
D11*
X231775Y15882D02*
X235588Y19695D01*
X235588Y8255D01*
X231775Y8255D02*
X239402Y8255D01*
X243469Y10162D02*
X243469Y17788D01*
X245376Y19695D01*
X249189Y19695D01*
X251095Y17788D01*
X251095Y10162D01*
X249189Y8255D01*
X245376Y8255D01*
X243469Y10162D01*
X251095Y17788D01*
X255163Y15882D02*
X255163Y10162D01*
X257070Y8255D01*
X262789Y8255D01*
X262789Y15882D01*
X161290Y17150D02*
X161290Y59050D01*
X189159Y62230D02*
X189743Y61947D01*
X190319Y61649D01*
X190888Y61338D01*
X191449Y61013D01*
X192002Y60674D01*
X192547Y60322D01*
X193083Y59957D01*
X193610Y59579D01*
X194127Y59188D01*
X194635Y58785D01*
X195133Y58369D01*
X195621Y57942D01*
X196098Y57503D01*
X196565Y57052D01*
X197020Y56590D01*
X197464Y56117D01*
X197896Y55634D01*
X198317Y55140D01*
X198725Y54636D01*
X199121Y54122D01*
X199504Y53599D01*
X199875Y53067D01*
X200232Y52525D01*
X200576Y51976D01*
X200907Y51418D01*
X201224Y50852D01*
X201527Y50279D01*
X201816Y49698D01*
X202091Y49111D01*
X202352Y48517D01*
X202598Y47917D01*
X202829Y47311D01*
X203046Y46699D01*
X203247Y46083D01*
X203434Y45462D01*
X203605Y44836D01*
X203761Y44207D01*
X203902Y43574D01*
X204028Y42937D01*
X204137Y42298D01*
X204232Y41657D01*
X204310Y41013D01*
X204373Y40367D01*
X204421Y39720D01*
X204452Y39073D01*
X204468Y38424D01*
X204468Y37776D01*
X204452Y37127D01*
X204421Y36480D01*
X204373Y35833D01*
X204310Y35187D01*
X204232Y34543D01*
X204137Y33902D01*
X204028Y33263D01*
X203902Y32626D01*
X203761Y31993D01*
X203605Y31364D01*
X203434Y30738D01*
X203247Y30117D01*
X203046Y29501D01*
X202829Y28889D01*
X202598Y28283D01*
X202352Y27683D01*
X202091Y27089D01*
X201816Y26502D01*
X201527Y25921D01*
X201224Y25348D01*
X200907Y24782D01*
X200576Y24224D01*
X200232Y23675D01*
X199875Y23133D01*
X199504Y22601D01*
X199121Y22078D01*
X198725Y21564D01*
X198317Y21060D01*
X197896Y20566D01*
X197464Y20083D01*
X197020Y19610D01*
X196565Y19148D01*
X196098Y18697D01*
X195621Y18258D01*
X195133Y17831D01*
X194635Y17415D01*
X194127Y17012D01*
X193610Y16621D01*
X193083Y16243D01*
X192547Y15878D01*
X192002Y15526D01*
X191449Y15187D01*
X190888Y14862D01*
X190319Y14551D01*
X189743Y14253D01*
X189159Y13970D01*
X161290Y59050D02*
X161771Y59420D01*
X162260Y59779D01*
X162757Y60127D01*
X163262Y60464D01*
X163775Y60789D01*
X164295Y61102D01*
X164822Y61404D01*
X165355Y61693D01*
X165895Y61970D01*
X166441Y62235D01*
X176530Y52140D02*
X176530Y49460D01*
X176530Y26740D02*
X176530Y24060D01*
X166682Y13853D02*
X166109Y14124D01*
X165543Y14409D01*
X164984Y14706D01*
X164432Y15017D01*
X163888Y15342D01*
X163352Y15678D01*
X162823Y16028D01*
X162303Y16390D01*
X161792Y16764D01*
X161290Y17150D01*
X156845Y5665D02*
X145405Y5665D01*
X145405Y11385D01*
X147312Y13292D01*
X149219Y13292D01*
X151125Y11385D01*
X153032Y13292D01*
X154938Y13292D01*
X156845Y11385D01*
X156845Y5665D01*
X151125Y5665D02*
X151125Y11385D01*
X145405Y23079D02*
X147312Y24986D01*
X145405Y23079D02*
X145405Y19266D01*
X147312Y17359D01*
X154938Y17359D01*
X156845Y19266D01*
X156845Y23079D01*
X154938Y24986D01*
X145405Y29053D02*
X145405Y36679D01*
X145405Y29053D02*
X151125Y29053D01*
X149219Y32866D01*
X149219Y34773D01*
X151125Y36679D01*
X154938Y36679D01*
X156845Y34773D01*
X156845Y30960D01*
X154938Y29053D01*
X156845Y46467D02*
X145405Y46467D01*
X151125Y40747D01*
X151125Y48373D01*
X145405Y52441D02*
X145405Y60067D01*
X147312Y60067D01*
X154938Y52441D01*
X156845Y52441D01*
X300990Y59050D02*
X300990Y17150D01*
X328859Y13970D02*
X329443Y14253D01*
X330019Y14551D01*
X330588Y14862D01*
X331149Y15187D01*
X331702Y15526D01*
X332247Y15878D01*
X332783Y16243D01*
X333310Y16621D01*
X333827Y17012D01*
X334335Y17415D01*
X334833Y17831D01*
X335321Y18258D01*
X335798Y18697D01*
X336265Y19148D01*
X336720Y19610D01*
X337164Y20083D01*
X337596Y20566D01*
X338017Y21060D01*
X338425Y21564D01*
X338821Y22078D01*
X339204Y22601D01*
X339575Y23133D01*
X339932Y23675D01*
X340276Y24224D01*
X340607Y24782D01*
X340924Y25348D01*
X341227Y25921D01*
X341516Y26502D01*
X341791Y27089D01*
X342052Y27683D01*
X342298Y28283D01*
X342529Y28889D01*
X342746Y29501D01*
X342947Y30117D01*
X343134Y30738D01*
X343305Y31364D01*
X343461Y31993D01*
X343602Y32626D01*
X343728Y33263D01*
X343837Y33902D01*
X343932Y34543D01*
X344010Y35187D01*
X344073Y35833D01*
X344121Y36480D01*
X344152Y37127D01*
X344168Y37776D01*
X344168Y38424D01*
X344152Y39073D01*
X344121Y39720D01*
X344073Y40367D01*
X344010Y41013D01*
X343932Y41657D01*
X343837Y42298D01*
X343728Y42937D01*
X343602Y43574D01*
X343461Y44207D01*
X343305Y44836D01*
X343134Y45462D01*
X342947Y46083D01*
X342746Y46699D01*
X342529Y47311D01*
X342298Y47917D01*
X342052Y48517D01*
X341791Y49111D01*
X341516Y49698D01*
X341227Y50279D01*
X340924Y50852D01*
X340607Y51418D01*
X340276Y51976D01*
X339932Y52525D01*
X339575Y53067D01*
X339204Y53599D01*
X338821Y54122D01*
X338425Y54636D01*
X338017Y55140D01*
X337596Y55634D01*
X337164Y56117D01*
X336720Y56590D01*
X336265Y57052D01*
X335798Y57503D01*
X335321Y57942D01*
X334833Y58369D01*
X334335Y58785D01*
X333827Y59188D01*
X333310Y59579D01*
X332783Y59957D01*
X332247Y60322D01*
X331702Y60674D01*
X331149Y61013D01*
X330588Y61338D01*
X330019Y61649D01*
X329443Y61947D01*
X328859Y62230D01*
X306141Y62235D02*
X305595Y61970D01*
X305055Y61693D01*
X304522Y61404D01*
X303995Y61102D01*
X303475Y60789D01*
X302962Y60464D01*
X302457Y60127D01*
X301960Y59779D01*
X301471Y59420D01*
X300990Y59050D01*
X316230Y52140D02*
X316230Y49460D01*
X316230Y26740D02*
X316230Y24060D01*
X306382Y13853D02*
X305809Y14124D01*
X305243Y14409D01*
X304684Y14706D01*
X304132Y15017D01*
X303588Y15342D01*
X303052Y15678D01*
X302523Y16028D01*
X302003Y16390D01*
X301492Y16764D01*
X300990Y17150D01*
X348605Y5665D02*
X360045Y5665D01*
X348605Y5665D02*
X348605Y11385D01*
X350512Y13292D01*
X352419Y13292D01*
X354325Y11385D01*
X356232Y13292D01*
X358138Y13292D01*
X360045Y11385D01*
X360045Y5665D01*
X354325Y5665D02*
X354325Y11385D01*
X348605Y23079D02*
X350512Y24986D01*
X348605Y23079D02*
X348605Y19266D01*
X350512Y17359D01*
X358138Y17359D01*
X360045Y19266D01*
X360045Y23079D01*
X358138Y24986D01*
X348605Y29053D02*
X348605Y36679D01*
X348605Y29053D02*
X354325Y29053D01*
X352419Y32866D01*
X352419Y34773D01*
X354325Y36679D01*
X358138Y36679D01*
X360045Y34773D01*
X360045Y30960D01*
X358138Y29053D01*
X360045Y46467D02*
X348605Y46467D01*
X354325Y40747D01*
X354325Y48373D01*
X348605Y52441D02*
X348605Y60067D01*
X350512Y60067D01*
X358138Y52441D01*
X360045Y52441D01*
D10*
X78740Y38100D02*
X73660Y38100D01*
X0Y38100D01*
X0Y59690D01*
X0Y63500D01*
X0Y67310D01*
X0Y85090D01*
X0Y88900D01*
X0Y92710D01*
X0Y110490D01*
X0Y114300D01*
X0Y118110D01*
X0Y135890D01*
X0Y139700D01*
X0Y143510D01*
X0Y161290D01*
X0Y165100D02*
X73660Y165100D01*
X73660Y59690D02*
X73660Y38100D01*
X73660Y59690D02*
X73660Y63500D01*
X73660Y67310D01*
X73660Y85090D01*
X73660Y88900D01*
X73660Y92710D01*
X73660Y110490D01*
X73660Y114300D01*
X73660Y118110D01*
X73660Y135890D01*
X73660Y139700D01*
X73660Y143510D01*
X73660Y161290D01*
X73660Y165100D01*
X73660Y139700D02*
X0Y139700D01*
X0Y114300D02*
X73660Y114300D01*
X73660Y88900D02*
X0Y88900D01*
X0Y63500D02*
X73660Y63500D01*
D15*
X73660Y59690D02*
X0Y59690D01*
X0Y67310D02*
X73660Y67310D01*
X73660Y85090D02*
X0Y85090D01*
X0Y92710D02*
X73660Y92710D01*
X73660Y110490D02*
X0Y110490D01*
X0Y118110D02*
X73660Y118110D01*
X73660Y135890D02*
X0Y135890D01*
X0Y143510D02*
X73660Y143510D01*
D10*
X73660Y161290D02*
X0Y161290D01*
X0Y165100D01*
X0Y168910D01*
D15*
X73660Y168910D01*
D10*
X78740Y241300D02*
X78740Y38100D01*
X0Y168910D02*
X0Y186690D01*
X0Y190500D02*
X73660Y190500D01*
X73660Y168910D02*
X73660Y165100D01*
X73660Y168910D02*
X73660Y186690D01*
X73660Y190500D01*
D15*
X73660Y186690D02*
X0Y186690D01*
D10*
X0Y190500D01*
X0Y194310D01*
X0Y212090D01*
X0Y215900D01*
X73660Y215900D01*
D15*
X73660Y194310D02*
X0Y194310D01*
D10*
X73660Y194310D02*
X73660Y190500D01*
X73660Y194310D02*
X73660Y212090D01*
X73660Y215900D01*
X0Y215900D02*
X0Y219710D01*
X0Y241300D01*
X73660Y241300D01*
X78740Y241300D01*
X73660Y219710D02*
X73660Y215900D01*
X73660Y219710D02*
X73660Y241300D01*
D15*
X73660Y219710D02*
X0Y219710D01*
X0Y212090D02*
X73660Y212090D01*
D11*
X59062Y197485D02*
X51435Y197485D01*
X59062Y205112D01*
X59062Y207018D01*
X57155Y208925D01*
X53342Y208925D01*
X51435Y207018D01*
X53342Y56525D02*
X51435Y54618D01*
X53342Y56525D02*
X57155Y56525D01*
X59062Y54618D01*
X59062Y52712D01*
X57155Y50805D01*
X59062Y48898D01*
X59062Y46992D01*
X57155Y45085D01*
X53342Y45085D01*
X51435Y46992D01*
X51435Y48898D01*
X53342Y50805D01*
X51435Y52712D01*
X51435Y54618D01*
X53342Y50805D02*
X57155Y50805D01*
X51435Y181618D02*
X53342Y183525D01*
X57155Y183525D01*
X59062Y181618D01*
X59062Y179712D01*
X57155Y177805D01*
X55248Y177805D01*
X57155Y177805D02*
X59062Y175898D01*
X59062Y173992D01*
X57155Y172085D01*
X53342Y172085D01*
X51435Y173992D01*
X57155Y158125D02*
X57155Y146685D01*
X51435Y152405D02*
X57155Y158125D01*
X59062Y152405D02*
X51435Y152405D01*
X51435Y132725D02*
X59062Y132725D01*
X51435Y132725D02*
X51435Y127005D01*
X55248Y128912D01*
X57155Y128912D01*
X59062Y127005D01*
X59062Y123192D01*
X57155Y121285D01*
X53342Y121285D01*
X51435Y123192D01*
X59062Y107325D02*
X55248Y105418D01*
X51435Y101605D01*
X51435Y97792D01*
X53342Y95885D01*
X57155Y95885D01*
X59062Y97792D01*
X59062Y99698D01*
X57155Y101605D01*
X51435Y101605D01*
X51435Y81925D02*
X59062Y81925D01*
X59062Y80018D01*
X51435Y72392D01*
X51435Y70485D01*
X51435Y230512D02*
X55248Y234325D01*
X55248Y222885D01*
X51435Y222885D02*
X59062Y222885D01*
D10*
X421640Y38100D02*
X449580Y38100D01*
X421640Y38100D02*
X421640Y63500D01*
X449580Y63500D02*
X449580Y38100D01*
X449580Y88900D02*
X421640Y88900D01*
X449580Y88900D02*
X449580Y114300D01*
X449580Y63500D02*
X421640Y63500D01*
X421640Y88900D01*
X449580Y88900D02*
X449580Y63500D01*
D16*
X457200Y101600D02*
X504190Y101600D01*
X504190Y76200D02*
X457200Y76200D01*
X457200Y50800D02*
X504190Y50800D01*
D10*
X421640Y88900D02*
X421640Y114300D01*
X421640Y139700D01*
X449580Y139700D01*
X421640Y139700D02*
X421640Y165100D01*
X449580Y165100D01*
X449580Y139700D01*
X449580Y114300D02*
X421640Y114300D01*
X449580Y114300D02*
X449580Y139700D01*
X421640Y165100D02*
X421640Y190500D01*
X449580Y190500D02*
X449580Y165100D01*
X449580Y215900D02*
X421640Y215900D01*
X421640Y241300D01*
X449580Y241300D01*
X449580Y215900D01*
X449580Y190500D02*
X421640Y190500D01*
X421640Y215900D01*
X449580Y215900D02*
X449580Y190500D01*
D16*
X457200Y228600D02*
X504190Y228600D01*
X504190Y203200D02*
X457200Y203200D01*
X457200Y177800D02*
X504190Y177800D01*
X504190Y152400D02*
X457200Y152400D01*
X457200Y127000D02*
X504190Y127000D01*
D11*
X427355Y230512D02*
X431168Y234325D01*
X431168Y222885D01*
X427355Y222885D02*
X434982Y222885D01*
X434982Y197485D02*
X427355Y197485D01*
X434982Y205112D01*
X434982Y207018D01*
X433075Y208925D01*
X429262Y208925D01*
X427355Y207018D01*
X429262Y183525D02*
X427355Y181618D01*
X429262Y183525D02*
X433075Y183525D01*
X434982Y181618D01*
X434982Y179712D01*
X433075Y177805D01*
X431168Y177805D01*
X433075Y177805D02*
X434982Y175898D01*
X434982Y173992D01*
X433075Y172085D01*
X429262Y172085D01*
X427355Y173992D01*
X433075Y158125D02*
X433075Y146685D01*
X427355Y152405D02*
X433075Y158125D01*
X434982Y152405D02*
X427355Y152405D01*
X427355Y132725D02*
X434982Y132725D01*
X427355Y132725D02*
X427355Y127005D01*
X431168Y128912D01*
X433075Y128912D01*
X434982Y127005D01*
X434982Y123192D01*
X433075Y121285D01*
X429262Y121285D01*
X427355Y123192D01*
X434982Y107325D02*
X431168Y105418D01*
X427355Y101605D01*
X427355Y97792D01*
X429262Y95885D01*
X433075Y95885D01*
X434982Y97792D01*
X434982Y99698D01*
X433075Y101605D01*
X427355Y101605D01*
X427355Y81925D02*
X434982Y81925D01*
X434982Y80018D01*
X427355Y72392D01*
X427355Y70485D01*
X429262Y56525D02*
X427355Y54618D01*
X429262Y56525D02*
X433075Y56525D01*
X434982Y54618D01*
X434982Y52712D01*
X433075Y50805D01*
X434982Y48898D01*
X434982Y46992D01*
X433075Y45085D01*
X429262Y45085D01*
X427355Y46992D01*
X427355Y48898D01*
X429262Y50805D01*
X427355Y52712D01*
X427355Y54618D01*
X429262Y50805D02*
X433075Y50805D01*
D17*
X453390Y101600D03*
X453390Y76200D03*
X453390Y50800D03*
X453390Y228600D03*
X453390Y203200D03*
X453390Y177800D03*
X453390Y152400D03*
X453390Y127000D03*
D18*
X418338Y50800D03*
X418338Y76200D03*
X418338Y101600D03*
X418338Y127000D03*
X418338Y152400D03*
X418338Y177800D03*
X418338Y203200D03*
X418338Y228600D03*
M02*
