G04 EAGLE Gerber X2 export*
G04 #@! %TF.Part,Single*
G04 #@! %TF.FileFunction,Soldermask,Bot,1*
G04 #@! %TF.FilePolarity,Negative*
G04 #@! %TF.GenerationSoftware,Autodesk,EAGLE,9.0.0*
G04 #@! %TF.CreationDate,2019-08-08T19:03:24Z*
G75*
%MOMM*%
%FSLAX34Y34*%
%LPD*%
%AMOC8*
5,1,8,0,0,1.08239X$1,22.5*%
G01*
%ADD10P,2.034460X8X112.500000*%
%ADD11P,2.034460X8X292.500000*%
%ADD12P,2.034460X8X202.500000*%
%ADD13C,1.879600*%
%ADD14P,2.034460X8X22.500000*%
%ADD15C,1.879600*%
%ADD16C,2.082800*%


D10*
X127000Y139700D03*
X127000Y241300D03*
X368300Y139700D03*
X368300Y241300D03*
X177800Y88900D03*
X177800Y190500D03*
X317500Y88900D03*
X317500Y190500D03*
D11*
X177800Y241300D03*
X177800Y215900D03*
X317500Y241300D03*
X317500Y215900D03*
D12*
X236220Y127000D03*
D13*
X271780Y127000D03*
D14*
X271780Y38100D03*
D13*
X236220Y38100D03*
D15*
X186182Y63500D02*
X169418Y63500D01*
X169418Y12700D02*
X186182Y12700D01*
X186182Y38100D02*
X169418Y38100D01*
X309118Y63500D02*
X325882Y63500D01*
X325882Y12700D02*
X309118Y12700D01*
X309118Y38100D02*
X325882Y38100D01*
X97282Y228600D02*
X80518Y228600D01*
X80518Y203200D02*
X97282Y203200D01*
X97282Y177800D02*
X80518Y177800D01*
X80518Y152400D02*
X97282Y152400D01*
X97282Y127000D02*
X80518Y127000D01*
X80518Y101600D02*
X97282Y101600D01*
X97282Y76200D02*
X80518Y76200D01*
X80518Y50800D02*
X97282Y50800D01*
D16*
X397002Y50800D02*
X415798Y50800D01*
X415798Y76200D02*
X397002Y76200D01*
X397002Y101600D02*
X415798Y101600D01*
X415798Y127000D02*
X397002Y127000D01*
X397002Y152400D02*
X415798Y152400D01*
X415798Y177800D02*
X397002Y177800D01*
X397002Y203200D02*
X415798Y203200D01*
X415798Y228600D02*
X397002Y228600D01*
M02*
