G04 EAGLE Gerber X2 export*
G04 #@! %TF.Part,Single*
G04 #@! %TF.FileFunction,Copper,L2,Bot,Mixed*
G04 #@! %TF.FilePolarity,Positive*
G04 #@! %TF.GenerationSoftware,Autodesk,EAGLE,9.0.0*
G04 #@! %TF.CreationDate,2019-08-08T19:13:13Z*
G75*
%MOMM*%
%FSLAX34Y34*%
%LPD*%
%AMOC8*
5,1,8,0,0,1.08239X$1,22.5*%
G01*
%ADD10C,1.320800*%
%ADD11C,1.524000*%
%ADD12C,1.016000*%

G36*
X274410Y23878D02*
X274410Y23878D01*
X274419Y23877D01*
X274611Y23898D01*
X274802Y23917D01*
X274810Y23919D01*
X274819Y23920D01*
X275001Y23978D01*
X275187Y24035D01*
X275195Y24039D01*
X275203Y24042D01*
X275371Y24135D01*
X275541Y24227D01*
X275547Y24232D01*
X275555Y24237D01*
X275702Y24361D01*
X275850Y24484D01*
X275855Y24491D01*
X275862Y24497D01*
X275981Y24648D01*
X276102Y24798D01*
X276106Y24806D01*
X276112Y24813D01*
X276200Y24986D01*
X276288Y25155D01*
X276290Y25164D01*
X276294Y25172D01*
X276346Y25358D01*
X276399Y25542D01*
X276400Y25551D01*
X276402Y25560D01*
X276416Y25753D01*
X276432Y25944D01*
X276431Y25952D01*
X276432Y25961D01*
X276407Y26154D01*
X276385Y26343D01*
X276382Y26352D01*
X276381Y26361D01*
X276320Y26542D01*
X276260Y26726D01*
X276256Y26734D01*
X276253Y26742D01*
X276157Y26909D01*
X276062Y27077D01*
X276057Y27084D01*
X276052Y27091D01*
X275837Y27344D01*
X272852Y30330D01*
X270763Y35372D01*
X270763Y40828D01*
X272852Y45870D01*
X276345Y49364D01*
X276357Y49378D01*
X276370Y49389D01*
X276484Y49533D01*
X276600Y49675D01*
X276609Y49691D01*
X276620Y49705D01*
X276703Y49869D01*
X276789Y50031D01*
X276794Y50048D01*
X276802Y50064D01*
X276852Y50241D01*
X276904Y50417D01*
X276905Y50435D01*
X276910Y50452D01*
X276924Y50635D01*
X276940Y50818D01*
X276938Y50836D01*
X276940Y50853D01*
X276917Y51035D01*
X276897Y51218D01*
X276891Y51235D01*
X276889Y51253D01*
X276831Y51427D01*
X276775Y51602D01*
X276767Y51618D01*
X276761Y51634D01*
X276669Y51794D01*
X276580Y51954D01*
X276569Y51968D01*
X276560Y51983D01*
X276345Y52236D01*
X272852Y55730D01*
X270763Y60772D01*
X270763Y66228D01*
X272852Y71270D01*
X276345Y74764D01*
X276357Y74778D01*
X276370Y74789D01*
X276484Y74933D01*
X276600Y75075D01*
X276609Y75091D01*
X276620Y75105D01*
X276703Y75269D01*
X276789Y75431D01*
X276794Y75448D01*
X276802Y75464D01*
X276852Y75641D01*
X276904Y75817D01*
X276905Y75835D01*
X276910Y75852D01*
X276924Y76035D01*
X276940Y76218D01*
X276938Y76236D01*
X276940Y76253D01*
X276917Y76435D01*
X276897Y76618D01*
X276891Y76635D01*
X276889Y76653D01*
X276831Y76826D01*
X276775Y77002D01*
X276767Y77018D01*
X276761Y77034D01*
X276669Y77194D01*
X276580Y77354D01*
X276569Y77368D01*
X276560Y77383D01*
X276345Y77636D01*
X272852Y81130D01*
X270763Y86172D01*
X270763Y91628D01*
X272852Y96670D01*
X276345Y100164D01*
X276357Y100178D01*
X276370Y100189D01*
X276484Y100333D01*
X276600Y100475D01*
X276609Y100491D01*
X276620Y100505D01*
X276703Y100669D01*
X276789Y100831D01*
X276794Y100848D01*
X276802Y100864D01*
X276852Y101041D01*
X276904Y101217D01*
X276905Y101235D01*
X276910Y101252D01*
X276924Y101435D01*
X276940Y101618D01*
X276938Y101636D01*
X276940Y101653D01*
X276917Y101835D01*
X276897Y102018D01*
X276891Y102035D01*
X276889Y102053D01*
X276831Y102227D01*
X276775Y102402D01*
X276767Y102418D01*
X276761Y102434D01*
X276669Y102594D01*
X276580Y102754D01*
X276569Y102768D01*
X276560Y102783D01*
X276345Y103036D01*
X272852Y106530D01*
X270763Y111572D01*
X270763Y117028D01*
X272852Y122070D01*
X276345Y125564D01*
X276357Y125578D01*
X276370Y125589D01*
X276484Y125733D01*
X276600Y125875D01*
X276609Y125891D01*
X276620Y125905D01*
X276703Y126069D01*
X276789Y126231D01*
X276794Y126248D01*
X276802Y126264D01*
X276852Y126441D01*
X276904Y126617D01*
X276905Y126635D01*
X276910Y126652D01*
X276924Y126835D01*
X276940Y127018D01*
X276938Y127036D01*
X276940Y127053D01*
X276917Y127235D01*
X276897Y127418D01*
X276891Y127435D01*
X276889Y127453D01*
X276831Y127627D01*
X276775Y127802D01*
X276767Y127818D01*
X276761Y127834D01*
X276669Y127994D01*
X276580Y128154D01*
X276569Y128168D01*
X276560Y128183D01*
X276345Y128436D01*
X272852Y131930D01*
X270763Y136972D01*
X270763Y142428D01*
X272852Y147470D01*
X276345Y150964D01*
X276357Y150978D01*
X276370Y150989D01*
X276484Y151133D01*
X276600Y151275D01*
X276609Y151291D01*
X276620Y151305D01*
X276703Y151469D01*
X276789Y151631D01*
X276794Y151648D01*
X276802Y151664D01*
X276852Y151841D01*
X276904Y152017D01*
X276905Y152035D01*
X276910Y152052D01*
X276924Y152235D01*
X276940Y152418D01*
X276938Y152436D01*
X276940Y152453D01*
X276917Y152635D01*
X276897Y152818D01*
X276891Y152835D01*
X276889Y152853D01*
X276831Y153027D01*
X276775Y153202D01*
X276767Y153218D01*
X276761Y153234D01*
X276669Y153394D01*
X276580Y153554D01*
X276569Y153568D01*
X276560Y153583D01*
X276345Y153836D01*
X272852Y157330D01*
X270763Y162372D01*
X270763Y167828D01*
X272852Y172870D01*
X275837Y175856D01*
X275843Y175863D01*
X275850Y175868D01*
X275970Y176018D01*
X276092Y176167D01*
X276097Y176175D01*
X276102Y176182D01*
X276191Y176352D01*
X276281Y176523D01*
X276284Y176532D01*
X276288Y176539D01*
X276341Y176723D01*
X276396Y176909D01*
X276397Y176918D01*
X276399Y176926D01*
X276415Y177117D01*
X276432Y177310D01*
X276431Y177319D01*
X276432Y177328D01*
X276410Y177517D01*
X276389Y177710D01*
X276386Y177719D01*
X276385Y177727D01*
X276326Y177909D01*
X276267Y178094D01*
X276263Y178102D01*
X276260Y178110D01*
X276165Y178279D01*
X276072Y178446D01*
X276067Y178453D01*
X276062Y178461D01*
X275936Y178607D01*
X275812Y178753D01*
X275805Y178759D01*
X275799Y178766D01*
X275648Y178883D01*
X275496Y179003D01*
X275488Y179007D01*
X275481Y179012D01*
X275309Y179098D01*
X275137Y179185D01*
X275129Y179188D01*
X275121Y179192D01*
X274935Y179242D01*
X274749Y179293D01*
X274740Y179294D01*
X274732Y179296D01*
X274401Y179323D01*
X170099Y179323D01*
X170090Y179322D01*
X170081Y179323D01*
X169889Y179302D01*
X169698Y179283D01*
X169690Y179281D01*
X169681Y179280D01*
X169499Y179222D01*
X169313Y179165D01*
X169305Y179161D01*
X169297Y179158D01*
X169129Y179065D01*
X168959Y178973D01*
X168953Y178968D01*
X168945Y178963D01*
X168798Y178839D01*
X168650Y178716D01*
X168645Y178709D01*
X168638Y178703D01*
X168519Y178552D01*
X168398Y178402D01*
X168394Y178394D01*
X168388Y178387D01*
X168300Y178214D01*
X168212Y178045D01*
X168210Y178036D01*
X168206Y178028D01*
X168154Y177842D01*
X168101Y177658D01*
X168100Y177649D01*
X168098Y177640D01*
X168084Y177447D01*
X168068Y177256D01*
X168069Y177248D01*
X168068Y177239D01*
X168093Y177046D01*
X168115Y176857D01*
X168118Y176848D01*
X168119Y176839D01*
X168180Y176656D01*
X168240Y176474D01*
X168244Y176466D01*
X168247Y176458D01*
X168343Y176291D01*
X168438Y176123D01*
X168443Y176116D01*
X168448Y176109D01*
X168663Y175856D01*
X171648Y172870D01*
X173737Y167828D01*
X173737Y162372D01*
X171648Y157330D01*
X168155Y153836D01*
X168143Y153823D01*
X168130Y153811D01*
X168016Y153667D01*
X167900Y153525D01*
X167891Y153509D01*
X167880Y153495D01*
X167797Y153331D01*
X167711Y153169D01*
X167706Y153152D01*
X167698Y153136D01*
X167648Y152959D01*
X167596Y152783D01*
X167595Y152765D01*
X167590Y152748D01*
X167576Y152565D01*
X167560Y152382D01*
X167562Y152364D01*
X167560Y152347D01*
X167583Y152165D01*
X167603Y151982D01*
X167609Y151965D01*
X167611Y151947D01*
X167669Y151774D01*
X167725Y151598D01*
X167733Y151582D01*
X167739Y151566D01*
X167831Y151406D01*
X167920Y151246D01*
X167931Y151232D01*
X167940Y151217D01*
X168155Y150964D01*
X171648Y147470D01*
X173737Y142428D01*
X173737Y136972D01*
X171648Y131930D01*
X168155Y128436D01*
X168143Y128423D01*
X168130Y128411D01*
X168016Y128267D01*
X167900Y128125D01*
X167891Y128109D01*
X167880Y128095D01*
X167797Y127931D01*
X167711Y127769D01*
X167706Y127752D01*
X167698Y127736D01*
X167648Y127559D01*
X167596Y127383D01*
X167595Y127365D01*
X167590Y127348D01*
X167576Y127165D01*
X167560Y126982D01*
X167562Y126964D01*
X167560Y126947D01*
X167583Y126765D01*
X167603Y126582D01*
X167609Y126565D01*
X167611Y126547D01*
X167669Y126374D01*
X167725Y126198D01*
X167733Y126182D01*
X167739Y126166D01*
X167831Y126006D01*
X167920Y125846D01*
X167931Y125832D01*
X167940Y125817D01*
X168155Y125564D01*
X171648Y122070D01*
X173737Y117028D01*
X173737Y111572D01*
X171648Y106530D01*
X168155Y103036D01*
X168143Y103023D01*
X168130Y103011D01*
X168016Y102867D01*
X167900Y102725D01*
X167891Y102709D01*
X167880Y102695D01*
X167797Y102531D01*
X167711Y102369D01*
X167706Y102352D01*
X167698Y102336D01*
X167648Y102159D01*
X167596Y101983D01*
X167595Y101965D01*
X167590Y101948D01*
X167576Y101765D01*
X167560Y101582D01*
X167562Y101564D01*
X167560Y101547D01*
X167583Y101365D01*
X167603Y101182D01*
X167609Y101165D01*
X167611Y101147D01*
X167669Y100974D01*
X167725Y100798D01*
X167733Y100782D01*
X167739Y100766D01*
X167831Y100606D01*
X167920Y100446D01*
X167931Y100432D01*
X167940Y100417D01*
X168155Y100164D01*
X171648Y96670D01*
X173737Y91628D01*
X173737Y86172D01*
X171648Y81130D01*
X168155Y77636D01*
X168143Y77623D01*
X168130Y77611D01*
X168016Y77467D01*
X167900Y77325D01*
X167891Y77309D01*
X167880Y77295D01*
X167797Y77131D01*
X167711Y76969D01*
X167706Y76952D01*
X167698Y76936D01*
X167648Y76759D01*
X167596Y76583D01*
X167595Y76565D01*
X167590Y76548D01*
X167576Y76365D01*
X167560Y76182D01*
X167562Y76164D01*
X167560Y76147D01*
X167583Y75965D01*
X167603Y75782D01*
X167609Y75765D01*
X167611Y75747D01*
X167669Y75574D01*
X167725Y75398D01*
X167733Y75382D01*
X167739Y75366D01*
X167831Y75206D01*
X167920Y75046D01*
X167931Y75032D01*
X167940Y75017D01*
X168155Y74764D01*
X171648Y71270D01*
X173737Y66228D01*
X173737Y60772D01*
X171648Y55730D01*
X168155Y52236D01*
X168143Y52223D01*
X168130Y52211D01*
X168016Y52067D01*
X167900Y51925D01*
X167891Y51909D01*
X167880Y51895D01*
X167797Y51731D01*
X167711Y51569D01*
X167706Y51552D01*
X167698Y51536D01*
X167648Y51359D01*
X167596Y51183D01*
X167595Y51165D01*
X167590Y51148D01*
X167576Y50965D01*
X167560Y50782D01*
X167562Y50764D01*
X167560Y50747D01*
X167583Y50565D01*
X167603Y50382D01*
X167609Y50365D01*
X167611Y50347D01*
X167669Y50174D01*
X167725Y49998D01*
X167733Y49982D01*
X167739Y49966D01*
X167831Y49806D01*
X167920Y49646D01*
X167931Y49632D01*
X167940Y49617D01*
X168155Y49364D01*
X171648Y45870D01*
X173737Y40828D01*
X173737Y35372D01*
X171648Y30330D01*
X168663Y27344D01*
X168657Y27337D01*
X168650Y27332D01*
X168530Y27182D01*
X168408Y27033D01*
X168403Y27025D01*
X168398Y27018D01*
X168309Y26848D01*
X168219Y26677D01*
X168216Y26668D01*
X168212Y26661D01*
X168159Y26476D01*
X168104Y26291D01*
X168103Y26282D01*
X168101Y26274D01*
X168085Y26083D01*
X168068Y25890D01*
X168069Y25881D01*
X168068Y25872D01*
X168090Y25683D01*
X168111Y25490D01*
X168114Y25481D01*
X168115Y25473D01*
X168174Y25291D01*
X168233Y25106D01*
X168237Y25098D01*
X168240Y25090D01*
X168335Y24921D01*
X168428Y24754D01*
X168433Y24747D01*
X168438Y24739D01*
X168564Y24593D01*
X168688Y24447D01*
X168695Y24441D01*
X168701Y24434D01*
X168852Y24317D01*
X169004Y24197D01*
X169012Y24193D01*
X169019Y24188D01*
X169191Y24102D01*
X169363Y24015D01*
X169371Y24012D01*
X169379Y24008D01*
X169565Y23958D01*
X169751Y23907D01*
X169760Y23906D01*
X169768Y23904D01*
X170099Y23877D01*
X274401Y23877D01*
X274410Y23878D01*
G37*
G36*
X92982Y10163D02*
X92982Y10163D01*
X93000Y10161D01*
X93182Y10182D01*
X93365Y10201D01*
X93382Y10206D01*
X93399Y10208D01*
X93574Y10265D01*
X93750Y10319D01*
X93765Y10327D01*
X93782Y10333D01*
X93942Y10423D01*
X94104Y10511D01*
X94117Y10522D01*
X94133Y10531D01*
X94272Y10651D01*
X94413Y10768D01*
X94424Y10782D01*
X94438Y10794D01*
X94550Y10939D01*
X94665Y11082D01*
X94673Y11098D01*
X94684Y11112D01*
X94766Y11277D01*
X94851Y11439D01*
X94856Y11456D01*
X94864Y11472D01*
X94911Y11651D01*
X94962Y11826D01*
X94964Y11844D01*
X94968Y11861D01*
X94995Y12192D01*
X94995Y15226D01*
X96929Y19894D01*
X100502Y23467D01*
X100637Y23523D01*
X100645Y23528D01*
X100654Y23530D01*
X100822Y23622D01*
X100992Y23714D01*
X100999Y23719D01*
X101007Y23724D01*
X101153Y23847D01*
X101303Y23970D01*
X101308Y23977D01*
X101315Y23983D01*
X101435Y24133D01*
X101556Y24283D01*
X101560Y24291D01*
X101566Y24298D01*
X101654Y24470D01*
X101743Y24639D01*
X101746Y24648D01*
X101750Y24656D01*
X101803Y24842D01*
X101856Y25026D01*
X101857Y25035D01*
X101860Y25043D01*
X101875Y25235D01*
X101891Y25427D01*
X101890Y25436D01*
X101891Y25445D01*
X101867Y25637D01*
X101846Y25827D01*
X101843Y25835D01*
X101842Y25844D01*
X101781Y26028D01*
X101723Y26210D01*
X101718Y26218D01*
X101716Y26226D01*
X101620Y26394D01*
X101526Y26562D01*
X101521Y26568D01*
X101516Y26576D01*
X101390Y26721D01*
X101265Y26867D01*
X101257Y26873D01*
X101252Y26880D01*
X101101Y26995D01*
X100948Y27116D01*
X100939Y27120D01*
X100932Y27125D01*
X100637Y27277D01*
X100502Y27333D01*
X96929Y30906D01*
X94995Y35574D01*
X94995Y40626D01*
X96929Y45294D01*
X100502Y48867D01*
X100637Y48923D01*
X100645Y48928D01*
X100654Y48930D01*
X100822Y49022D01*
X100992Y49114D01*
X100999Y49119D01*
X101007Y49124D01*
X101153Y49247D01*
X101303Y49370D01*
X101308Y49377D01*
X101315Y49383D01*
X101435Y49533D01*
X101556Y49683D01*
X101560Y49691D01*
X101566Y49698D01*
X101654Y49870D01*
X101743Y50039D01*
X101746Y50048D01*
X101750Y50056D01*
X101803Y50242D01*
X101856Y50426D01*
X101857Y50435D01*
X101860Y50443D01*
X101875Y50635D01*
X101891Y50827D01*
X101890Y50836D01*
X101891Y50845D01*
X101867Y51037D01*
X101846Y51227D01*
X101843Y51235D01*
X101842Y51244D01*
X101781Y51428D01*
X101723Y51610D01*
X101718Y51618D01*
X101716Y51626D01*
X101620Y51794D01*
X101526Y51962D01*
X101521Y51968D01*
X101516Y51976D01*
X101390Y52121D01*
X101265Y52267D01*
X101257Y52273D01*
X101252Y52280D01*
X101101Y52395D01*
X100948Y52516D01*
X100939Y52520D01*
X100932Y52525D01*
X100637Y52677D01*
X100502Y52733D01*
X96929Y56306D01*
X94995Y60974D01*
X94995Y66026D01*
X96929Y70694D01*
X100502Y74267D01*
X100637Y74323D01*
X100645Y74328D01*
X100654Y74330D01*
X100822Y74422D01*
X100992Y74514D01*
X100999Y74519D01*
X101007Y74524D01*
X101153Y74647D01*
X101303Y74770D01*
X101308Y74777D01*
X101315Y74783D01*
X101435Y74933D01*
X101556Y75083D01*
X101560Y75091D01*
X101566Y75098D01*
X101654Y75270D01*
X101743Y75439D01*
X101746Y75448D01*
X101750Y75456D01*
X101803Y75642D01*
X101856Y75826D01*
X101857Y75835D01*
X101860Y75843D01*
X101875Y76035D01*
X101891Y76227D01*
X101890Y76236D01*
X101891Y76245D01*
X101867Y76437D01*
X101846Y76627D01*
X101843Y76635D01*
X101842Y76644D01*
X101782Y76826D01*
X101723Y77010D01*
X101718Y77018D01*
X101716Y77026D01*
X101620Y77194D01*
X101526Y77362D01*
X101521Y77368D01*
X101516Y77376D01*
X101390Y77521D01*
X101265Y77667D01*
X101257Y77673D01*
X101252Y77680D01*
X101101Y77795D01*
X100948Y77916D01*
X100939Y77920D01*
X100932Y77925D01*
X100637Y78077D01*
X100502Y78133D01*
X96929Y81706D01*
X94995Y86374D01*
X94995Y91426D01*
X96929Y96094D01*
X100502Y99667D01*
X100566Y99694D01*
X100637Y99723D01*
X100645Y99728D01*
X100654Y99730D01*
X100822Y99822D01*
X100992Y99914D01*
X100999Y99919D01*
X101007Y99924D01*
X101153Y100047D01*
X101303Y100170D01*
X101308Y100177D01*
X101315Y100183D01*
X101435Y100333D01*
X101556Y100483D01*
X101560Y100491D01*
X101566Y100498D01*
X101654Y100670D01*
X101743Y100839D01*
X101746Y100848D01*
X101750Y100856D01*
X101803Y101042D01*
X101856Y101226D01*
X101857Y101235D01*
X101860Y101243D01*
X101875Y101435D01*
X101891Y101627D01*
X101890Y101636D01*
X101891Y101645D01*
X101867Y101837D01*
X101846Y102027D01*
X101843Y102035D01*
X101842Y102044D01*
X101781Y102228D01*
X101723Y102410D01*
X101718Y102418D01*
X101716Y102426D01*
X101620Y102594D01*
X101526Y102762D01*
X101521Y102768D01*
X101516Y102776D01*
X101390Y102921D01*
X101265Y103067D01*
X101257Y103073D01*
X101252Y103080D01*
X101101Y103195D01*
X100948Y103316D01*
X100939Y103320D01*
X100932Y103325D01*
X100637Y103477D01*
X100502Y103533D01*
X96929Y107106D01*
X94995Y111774D01*
X94995Y116826D01*
X96929Y121494D01*
X100502Y125067D01*
X100637Y125123D01*
X100645Y125128D01*
X100654Y125130D01*
X100822Y125222D01*
X100992Y125314D01*
X100999Y125319D01*
X101007Y125324D01*
X101153Y125447D01*
X101303Y125570D01*
X101308Y125577D01*
X101315Y125583D01*
X101435Y125733D01*
X101556Y125883D01*
X101560Y125891D01*
X101566Y125898D01*
X101654Y126070D01*
X101743Y126239D01*
X101746Y126248D01*
X101750Y126256D01*
X101803Y126442D01*
X101856Y126626D01*
X101857Y126635D01*
X101860Y126643D01*
X101875Y126835D01*
X101891Y127027D01*
X101890Y127036D01*
X101891Y127045D01*
X101867Y127237D01*
X101846Y127427D01*
X101843Y127435D01*
X101842Y127444D01*
X101781Y127628D01*
X101723Y127810D01*
X101718Y127818D01*
X101716Y127826D01*
X101620Y127994D01*
X101526Y128162D01*
X101521Y128168D01*
X101516Y128176D01*
X101390Y128321D01*
X101265Y128467D01*
X101257Y128473D01*
X101252Y128480D01*
X101101Y128595D01*
X100948Y128716D01*
X100939Y128720D01*
X100932Y128725D01*
X100637Y128877D01*
X100502Y128933D01*
X96929Y132506D01*
X94995Y137174D01*
X94995Y142226D01*
X96929Y146894D01*
X100502Y150467D01*
X100637Y150523D01*
X100645Y150528D01*
X100654Y150530D01*
X100822Y150622D01*
X100992Y150714D01*
X100999Y150719D01*
X101007Y150724D01*
X101153Y150847D01*
X101303Y150970D01*
X101308Y150977D01*
X101315Y150983D01*
X101435Y151133D01*
X101556Y151283D01*
X101560Y151291D01*
X101566Y151298D01*
X101654Y151470D01*
X101743Y151639D01*
X101746Y151648D01*
X101750Y151656D01*
X101803Y151842D01*
X101856Y152026D01*
X101857Y152035D01*
X101860Y152043D01*
X101875Y152235D01*
X101891Y152427D01*
X101890Y152436D01*
X101891Y152445D01*
X101867Y152637D01*
X101846Y152827D01*
X101843Y152835D01*
X101842Y152844D01*
X101781Y153028D01*
X101723Y153210D01*
X101718Y153218D01*
X101716Y153226D01*
X101620Y153394D01*
X101526Y153562D01*
X101521Y153568D01*
X101516Y153576D01*
X101390Y153721D01*
X101265Y153867D01*
X101257Y153873D01*
X101252Y153880D01*
X101101Y153995D01*
X100948Y154116D01*
X100939Y154120D01*
X100932Y154125D01*
X100637Y154277D01*
X100502Y154333D01*
X96929Y157906D01*
X94995Y162574D01*
X94995Y167626D01*
X96929Y172294D01*
X100502Y175867D01*
X100637Y175923D01*
X100645Y175928D01*
X100654Y175930D01*
X100822Y176022D01*
X100992Y176114D01*
X100999Y176119D01*
X101007Y176124D01*
X101153Y176247D01*
X101303Y176370D01*
X101308Y176377D01*
X101315Y176383D01*
X101435Y176533D01*
X101556Y176683D01*
X101560Y176691D01*
X101566Y176698D01*
X101654Y176870D01*
X101743Y177039D01*
X101746Y177048D01*
X101750Y177056D01*
X101803Y177242D01*
X101856Y177426D01*
X101857Y177435D01*
X101860Y177443D01*
X101875Y177635D01*
X101891Y177827D01*
X101890Y177836D01*
X101891Y177845D01*
X101867Y178037D01*
X101846Y178227D01*
X101843Y178235D01*
X101842Y178244D01*
X101781Y178428D01*
X101723Y178610D01*
X101718Y178618D01*
X101716Y178626D01*
X101620Y178794D01*
X101526Y178962D01*
X101521Y178968D01*
X101516Y178976D01*
X101391Y179120D01*
X101265Y179267D01*
X101257Y179273D01*
X101252Y179280D01*
X101101Y179395D01*
X100948Y179516D01*
X100939Y179520D01*
X100932Y179525D01*
X100637Y179677D01*
X100502Y179733D01*
X96929Y183306D01*
X94995Y187974D01*
X94995Y193026D01*
X96929Y197694D01*
X98206Y198972D01*
X98212Y198979D01*
X98219Y198984D01*
X98340Y199135D01*
X98461Y199283D01*
X98465Y199291D01*
X98471Y199298D01*
X98559Y199468D01*
X98650Y199639D01*
X98652Y199648D01*
X98657Y199655D01*
X98710Y199840D01*
X98765Y200025D01*
X98765Y200034D01*
X98768Y200042D01*
X98784Y200233D01*
X98801Y200426D01*
X98800Y200435D01*
X98801Y200444D01*
X98779Y200633D01*
X98758Y200826D01*
X98755Y200835D01*
X98754Y200843D01*
X98695Y201025D01*
X98636Y201210D01*
X98632Y201218D01*
X98629Y201226D01*
X98535Y201393D01*
X98441Y201562D01*
X98436Y201569D01*
X98431Y201577D01*
X98306Y201722D01*
X98181Y201869D01*
X98174Y201875D01*
X98168Y201882D01*
X98017Y201998D01*
X97865Y202119D01*
X97857Y202123D01*
X97850Y202128D01*
X97679Y202213D01*
X97506Y202301D01*
X97497Y202304D01*
X97489Y202308D01*
X97304Y202357D01*
X97118Y202409D01*
X97109Y202410D01*
X97101Y202412D01*
X96770Y202439D01*
X37592Y202439D01*
X37574Y202437D01*
X37556Y202439D01*
X37374Y202418D01*
X37191Y202399D01*
X37174Y202394D01*
X37157Y202392D01*
X36982Y202335D01*
X36806Y202281D01*
X36791Y202273D01*
X36774Y202267D01*
X36614Y202177D01*
X36452Y202089D01*
X36439Y202078D01*
X36423Y202069D01*
X36284Y201949D01*
X36143Y201832D01*
X36132Y201818D01*
X36118Y201806D01*
X36006Y201661D01*
X35891Y201518D01*
X35883Y201502D01*
X35872Y201488D01*
X35790Y201323D01*
X35705Y201161D01*
X35700Y201144D01*
X35692Y201128D01*
X35645Y200949D01*
X35594Y200774D01*
X35592Y200756D01*
X35588Y200739D01*
X35561Y200408D01*
X35561Y12192D01*
X35563Y12174D01*
X35561Y12156D01*
X35582Y11974D01*
X35601Y11791D01*
X35606Y11774D01*
X35608Y11757D01*
X35665Y11582D01*
X35719Y11406D01*
X35727Y11391D01*
X35733Y11374D01*
X35823Y11214D01*
X35911Y11052D01*
X35922Y11039D01*
X35931Y11023D01*
X36051Y10884D01*
X36168Y10743D01*
X36182Y10732D01*
X36194Y10718D01*
X36339Y10606D01*
X36482Y10491D01*
X36498Y10483D01*
X36512Y10472D01*
X36677Y10390D01*
X36839Y10305D01*
X36856Y10300D01*
X36872Y10292D01*
X37051Y10245D01*
X37226Y10194D01*
X37244Y10192D01*
X37261Y10188D01*
X37592Y10161D01*
X92964Y10161D01*
X92982Y10163D01*
G37*
G36*
X355926Y10163D02*
X355926Y10163D01*
X355944Y10161D01*
X356126Y10182D01*
X356309Y10201D01*
X356326Y10206D01*
X356343Y10208D01*
X356518Y10265D01*
X356694Y10319D01*
X356709Y10327D01*
X356726Y10333D01*
X356886Y10423D01*
X357048Y10511D01*
X357061Y10522D01*
X357077Y10531D01*
X357216Y10651D01*
X357357Y10768D01*
X357368Y10782D01*
X357382Y10794D01*
X357494Y10939D01*
X357609Y11082D01*
X357617Y11098D01*
X357628Y11112D01*
X357710Y11277D01*
X357795Y11439D01*
X357800Y11456D01*
X357808Y11472D01*
X357855Y11651D01*
X357906Y11826D01*
X357908Y11844D01*
X357912Y11861D01*
X357939Y12192D01*
X357939Y200408D01*
X357937Y200426D01*
X357939Y200444D01*
X357918Y200626D01*
X357899Y200809D01*
X357894Y200826D01*
X357892Y200843D01*
X357835Y201018D01*
X357781Y201194D01*
X357773Y201209D01*
X357767Y201226D01*
X357677Y201386D01*
X357589Y201548D01*
X357578Y201561D01*
X357569Y201577D01*
X357449Y201716D01*
X357332Y201857D01*
X357318Y201868D01*
X357306Y201882D01*
X357161Y201994D01*
X357018Y202109D01*
X357002Y202117D01*
X356988Y202128D01*
X356823Y202210D01*
X356661Y202295D01*
X356644Y202300D01*
X356628Y202308D01*
X356449Y202355D01*
X356274Y202406D01*
X356256Y202408D01*
X356239Y202412D01*
X355908Y202439D01*
X350183Y202439D01*
X350174Y202438D01*
X350165Y202439D01*
X349973Y202418D01*
X349782Y202399D01*
X349774Y202397D01*
X349765Y202396D01*
X349583Y202338D01*
X349397Y202281D01*
X349389Y202277D01*
X349381Y202274D01*
X349213Y202181D01*
X349043Y202089D01*
X349037Y202084D01*
X349029Y202079D01*
X348881Y201954D01*
X348734Y201832D01*
X348729Y201825D01*
X348722Y201819D01*
X348602Y201667D01*
X348482Y201518D01*
X348478Y201510D01*
X348472Y201503D01*
X348384Y201330D01*
X348296Y201161D01*
X348294Y201152D01*
X348290Y201144D01*
X348238Y200959D01*
X348185Y200774D01*
X348184Y200765D01*
X348182Y200756D01*
X348168Y200564D01*
X348152Y200372D01*
X348153Y200364D01*
X348152Y200355D01*
X348177Y200164D01*
X348199Y199973D01*
X348202Y199964D01*
X348203Y199955D01*
X348264Y199774D01*
X348324Y199590D01*
X348328Y199582D01*
X348331Y199574D01*
X348427Y199406D01*
X348522Y199239D01*
X348528Y199232D01*
X348532Y199225D01*
X348747Y198972D01*
X349448Y198270D01*
X351537Y193228D01*
X351537Y187772D01*
X349448Y182730D01*
X345955Y179236D01*
X345943Y179222D01*
X345930Y179211D01*
X345816Y179067D01*
X345700Y178925D01*
X345691Y178909D01*
X345680Y178895D01*
X345597Y178731D01*
X345511Y178569D01*
X345506Y178552D01*
X345498Y178536D01*
X345448Y178359D01*
X345396Y178183D01*
X345395Y178165D01*
X345390Y178148D01*
X345376Y177965D01*
X345360Y177782D01*
X345362Y177764D01*
X345360Y177747D01*
X345383Y177565D01*
X345403Y177382D01*
X345409Y177365D01*
X345411Y177347D01*
X345469Y177173D01*
X345525Y176998D01*
X345533Y176982D01*
X345539Y176966D01*
X345631Y176806D01*
X345720Y176646D01*
X345731Y176632D01*
X345740Y176617D01*
X345955Y176364D01*
X349448Y172870D01*
X351537Y167828D01*
X351537Y162372D01*
X349448Y157330D01*
X345955Y153836D01*
X345943Y153822D01*
X345930Y153811D01*
X345816Y153667D01*
X345700Y153525D01*
X345691Y153509D01*
X345680Y153495D01*
X345597Y153331D01*
X345511Y153169D01*
X345506Y153152D01*
X345498Y153136D01*
X345448Y152959D01*
X345396Y152783D01*
X345395Y152765D01*
X345390Y152748D01*
X345376Y152565D01*
X345360Y152382D01*
X345362Y152364D01*
X345360Y152347D01*
X345383Y152165D01*
X345403Y151982D01*
X345409Y151965D01*
X345411Y151947D01*
X345469Y151773D01*
X345525Y151598D01*
X345533Y151582D01*
X345539Y151566D01*
X345631Y151406D01*
X345720Y151246D01*
X345731Y151232D01*
X345740Y151217D01*
X345955Y150964D01*
X349448Y147470D01*
X351537Y142428D01*
X351537Y136972D01*
X349448Y131930D01*
X345955Y128436D01*
X345943Y128422D01*
X345930Y128411D01*
X345816Y128267D01*
X345700Y128125D01*
X345691Y128109D01*
X345680Y128095D01*
X345597Y127931D01*
X345511Y127769D01*
X345506Y127752D01*
X345498Y127736D01*
X345448Y127559D01*
X345396Y127383D01*
X345395Y127365D01*
X345390Y127348D01*
X345376Y127165D01*
X345360Y126982D01*
X345362Y126964D01*
X345360Y126947D01*
X345383Y126765D01*
X345403Y126582D01*
X345409Y126565D01*
X345411Y126547D01*
X345469Y126373D01*
X345525Y126198D01*
X345533Y126182D01*
X345539Y126166D01*
X345631Y126006D01*
X345720Y125846D01*
X345731Y125832D01*
X345740Y125817D01*
X345955Y125564D01*
X349448Y122070D01*
X351537Y117028D01*
X351537Y111572D01*
X349448Y106530D01*
X345955Y103036D01*
X345943Y103022D01*
X345930Y103011D01*
X345816Y102867D01*
X345700Y102725D01*
X345691Y102709D01*
X345680Y102695D01*
X345597Y102531D01*
X345511Y102369D01*
X345506Y102352D01*
X345498Y102336D01*
X345448Y102159D01*
X345396Y101983D01*
X345395Y101965D01*
X345390Y101948D01*
X345376Y101765D01*
X345360Y101582D01*
X345362Y101564D01*
X345360Y101547D01*
X345383Y101365D01*
X345403Y101182D01*
X345409Y101165D01*
X345411Y101147D01*
X345469Y100973D01*
X345525Y100798D01*
X345533Y100782D01*
X345539Y100766D01*
X345631Y100606D01*
X345720Y100446D01*
X345731Y100432D01*
X345740Y100417D01*
X345955Y100164D01*
X349448Y96670D01*
X351537Y91628D01*
X351537Y86172D01*
X349448Y81130D01*
X345955Y77636D01*
X345943Y77622D01*
X345930Y77611D01*
X345816Y77467D01*
X345700Y77325D01*
X345691Y77309D01*
X345680Y77295D01*
X345597Y77131D01*
X345511Y76969D01*
X345506Y76952D01*
X345498Y76936D01*
X345448Y76759D01*
X345396Y76583D01*
X345395Y76565D01*
X345390Y76548D01*
X345376Y76365D01*
X345360Y76182D01*
X345362Y76164D01*
X345360Y76147D01*
X345383Y75965D01*
X345403Y75782D01*
X345409Y75765D01*
X345411Y75747D01*
X345469Y75573D01*
X345525Y75398D01*
X345533Y75382D01*
X345539Y75366D01*
X345631Y75206D01*
X345720Y75046D01*
X345731Y75032D01*
X345740Y75017D01*
X345955Y74764D01*
X349448Y71270D01*
X351537Y66228D01*
X351537Y60772D01*
X349448Y55730D01*
X345955Y52236D01*
X345943Y52222D01*
X345930Y52211D01*
X345816Y52067D01*
X345700Y51925D01*
X345691Y51909D01*
X345680Y51895D01*
X345597Y51731D01*
X345511Y51569D01*
X345506Y51552D01*
X345498Y51536D01*
X345448Y51359D01*
X345396Y51183D01*
X345395Y51165D01*
X345390Y51148D01*
X345376Y50965D01*
X345360Y50782D01*
X345362Y50764D01*
X345360Y50747D01*
X345383Y50565D01*
X345403Y50382D01*
X345409Y50365D01*
X345411Y50347D01*
X345469Y50173D01*
X345525Y49998D01*
X345533Y49982D01*
X345539Y49966D01*
X345631Y49806D01*
X345720Y49646D01*
X345731Y49632D01*
X345740Y49617D01*
X345955Y49364D01*
X349448Y45870D01*
X351537Y40828D01*
X351537Y35372D01*
X349448Y30330D01*
X345955Y26836D01*
X345943Y26822D01*
X345930Y26811D01*
X345816Y26667D01*
X345700Y26525D01*
X345691Y26509D01*
X345680Y26495D01*
X345597Y26331D01*
X345511Y26169D01*
X345506Y26152D01*
X345498Y26136D01*
X345448Y25959D01*
X345396Y25783D01*
X345395Y25765D01*
X345390Y25748D01*
X345376Y25565D01*
X345360Y25382D01*
X345362Y25364D01*
X345360Y25347D01*
X345383Y25165D01*
X345403Y24982D01*
X345409Y24965D01*
X345411Y24947D01*
X345469Y24773D01*
X345525Y24598D01*
X345533Y24582D01*
X345539Y24566D01*
X345631Y24406D01*
X345720Y24246D01*
X345731Y24232D01*
X345740Y24217D01*
X345955Y23964D01*
X349448Y20470D01*
X351537Y15428D01*
X351537Y12192D01*
X351539Y12174D01*
X351537Y12156D01*
X351558Y11974D01*
X351577Y11791D01*
X351582Y11774D01*
X351584Y11757D01*
X351641Y11582D01*
X351695Y11406D01*
X351703Y11391D01*
X351709Y11374D01*
X351799Y11214D01*
X351887Y11052D01*
X351898Y11039D01*
X351907Y11023D01*
X352027Y10884D01*
X352144Y10743D01*
X352158Y10732D01*
X352170Y10718D01*
X352315Y10606D01*
X352458Y10491D01*
X352474Y10483D01*
X352488Y10472D01*
X352653Y10390D01*
X352815Y10305D01*
X352832Y10300D01*
X352848Y10292D01*
X353027Y10245D01*
X353202Y10194D01*
X353220Y10192D01*
X353237Y10188D01*
X353568Y10161D01*
X355908Y10161D01*
X355926Y10163D01*
G37*
D10*
X120904Y190500D02*
X107696Y190500D01*
X107696Y165100D02*
X120904Y165100D01*
X120904Y139700D02*
X107696Y139700D01*
X107696Y114300D02*
X120904Y114300D01*
X120904Y88900D02*
X107696Y88900D01*
X107696Y63500D02*
X120904Y63500D01*
X120904Y38100D02*
X107696Y38100D01*
X107696Y12700D02*
X120904Y12700D01*
D11*
X322580Y12700D02*
X337820Y12700D01*
X337820Y38100D02*
X322580Y38100D01*
X322580Y63500D02*
X337820Y63500D01*
X337820Y88900D02*
X322580Y88900D01*
X322580Y114300D02*
X337820Y114300D01*
X337820Y139700D02*
X322580Y139700D01*
X322580Y165100D02*
X337820Y165100D01*
X337820Y190500D02*
X322580Y190500D01*
X160020Y190500D02*
X144780Y190500D01*
X144780Y165100D02*
X160020Y165100D01*
X160020Y139700D02*
X144780Y139700D01*
X144780Y114300D02*
X160020Y114300D01*
X160020Y88900D02*
X144780Y88900D01*
X144780Y63500D02*
X160020Y63500D01*
X160020Y38100D02*
X144780Y38100D01*
X144780Y12700D02*
X160020Y12700D01*
X284480Y190500D02*
X299720Y190500D01*
X299720Y165100D02*
X284480Y165100D01*
X284480Y139700D02*
X299720Y139700D01*
X299720Y114300D02*
X284480Y114300D01*
X284480Y88900D02*
X299720Y88900D01*
X299720Y63500D02*
X284480Y63500D01*
X284480Y38100D02*
X299720Y38100D01*
X299720Y12700D02*
X284480Y12700D01*
D12*
X292100Y190500D02*
X114300Y190500D01*
X152400Y190500D02*
X292100Y190500D01*
X330200Y190500D02*
X152400Y190500D01*
X152400Y165100D02*
X114300Y165100D01*
X114300Y139700D02*
X152400Y139700D01*
X152400Y114300D02*
X114300Y114300D01*
X114300Y88900D02*
X152400Y88900D01*
X152400Y63500D02*
X114300Y63500D01*
X114300Y38100D02*
X152400Y38100D01*
X152400Y12700D02*
X114300Y12700D01*
X152400Y12700D02*
X292100Y12700D01*
X330200Y12700D01*
X330200Y165100D02*
X292100Y165100D01*
X292100Y139700D02*
X330200Y139700D01*
X330200Y114300D02*
X292100Y114300D01*
X292100Y88900D02*
X330200Y88900D01*
X330200Y63500D02*
X292100Y63500D01*
X292100Y38100D02*
X330200Y38100D01*
M02*
