G04 EAGLE Gerber X2 export*
G04 #@! %TF.Part,Single*
G04 #@! %TF.FileFunction,Copper,L1,Top,Mixed*
G04 #@! %TF.FilePolarity,Positive*
G04 #@! %TF.GenerationSoftware,Autodesk,EAGLE,9.0.0*
G04 #@! %TF.CreationDate,2019-08-08T19:13:13Z*
G75*
%MOMM*%
%FSLAX34Y34*%
%LPD*%
%AMOC8*
5,1,8,0,0,1.08239X$1,22.5*%
G01*
%ADD10C,1.320800*%
%ADD11C,1.524000*%


D10*
X120904Y190500D02*
X107696Y190500D01*
X107696Y165100D02*
X120904Y165100D01*
X120904Y139700D02*
X107696Y139700D01*
X107696Y114300D02*
X120904Y114300D01*
X120904Y88900D02*
X107696Y88900D01*
X107696Y63500D02*
X120904Y63500D01*
X120904Y38100D02*
X107696Y38100D01*
X107696Y12700D02*
X120904Y12700D01*
D11*
X322580Y12700D02*
X337820Y12700D01*
X337820Y38100D02*
X322580Y38100D01*
X322580Y63500D02*
X337820Y63500D01*
X337820Y88900D02*
X322580Y88900D01*
X322580Y114300D02*
X337820Y114300D01*
X337820Y139700D02*
X322580Y139700D01*
X322580Y165100D02*
X337820Y165100D01*
X337820Y190500D02*
X322580Y190500D01*
X160020Y190500D02*
X144780Y190500D01*
X144780Y165100D02*
X160020Y165100D01*
X160020Y139700D02*
X144780Y139700D01*
X144780Y114300D02*
X160020Y114300D01*
X160020Y88900D02*
X144780Y88900D01*
X144780Y63500D02*
X160020Y63500D01*
X160020Y38100D02*
X144780Y38100D01*
X144780Y12700D02*
X160020Y12700D01*
X284480Y190500D02*
X299720Y190500D01*
X299720Y165100D02*
X284480Y165100D01*
X284480Y139700D02*
X299720Y139700D01*
X299720Y114300D02*
X284480Y114300D01*
X284480Y88900D02*
X299720Y88900D01*
X299720Y63500D02*
X284480Y63500D01*
X284480Y38100D02*
X299720Y38100D01*
X299720Y12700D02*
X284480Y12700D01*
M02*
