M48
;GenerationSoftware,Autodesk,EAGLE,9.0.0*%
;CreationDate,2019-08-08T19:13:13Z*%
FMAT,2
ICI,OFF
METRIC,TZ,000.000
T2C0.813
T1C1.016
%
G90
M71
T1
X33020Y1270
X33020Y3810
X33020Y6350
X33020Y8890
X33020Y11430
X33020Y13970
X33020Y16510
X33020Y19050
X15240Y19050
X15240Y16510
X15240Y13970
X15240Y11430
X15240Y8890
X15240Y6350
X15240Y3810
X15240Y1270
X29210Y19050
X29210Y16510
X29210Y13970
X29210Y11430
X29210Y8890
X29210Y6350
X29210Y3810
X29210Y1270
T2
X11430Y19050
X11430Y16510
X11430Y13970
X11430Y11430
X11430Y8890
X11430Y6350
X11430Y3810
X11430Y1270
M30