M48
;GenerationSoftware,Autodesk,EAGLE,9.0.0*%
;CreationDate,2019-08-08T19:06:15Z*%
FMAT,2
ICI,OFF
METRIC,TZ,000.000
T3C0.813
T2C1.016
T1C1.499
%
G90
M71
T1
X25959Y13360
X26492Y5867
X21793Y2616
X19202Y9068
X16688Y10465
T2
X33020Y2540
X33020Y5080
X33020Y7620
X33020Y10160
X33020Y12700
X33020Y15240
X33020Y17780
X33020Y20320
T3
X11430Y20320
X11430Y17780
X11430Y15240
X11430Y12700
X11430Y10160
X11430Y7620
X11430Y5080
X11430Y2540
M30