G04 EAGLE Gerber X2 export*
G04 #@! %TF.Part,Single*
G04 #@! %TF.FileFunction,Legend,Top,1*
G04 #@! %TF.FilePolarity,Positive*
G04 #@! %TF.GenerationSoftware,Autodesk,EAGLE,9.0.0*
G04 #@! %TF.CreationDate,2019-08-08T19:06:15Z*
G75*
%MOMM*%
%FSLAX34Y34*%
%LPD*%
%AMOC8*
5,1,8,0,0,1.08239X$1,22.5*%
G01*
%ADD10C,0.152400*%
%ADD11C,0.127000*%
%ADD12C,0.050800*%
%ADD13C,0.660400*%
%ADD14R,0.762000X0.660400*%
%ADD15R,0.660400X0.660400*%


D10*
X274320Y5080D02*
X246380Y5080D01*
X274320Y147320D02*
X157480Y147320D01*
X185420Y5080D02*
X185420Y-25400D01*
X246380Y-25400D02*
X246380Y5080D01*
X185420Y5080D01*
X157480Y5080D01*
X185420Y-25400D02*
X190500Y-30480D01*
X241300Y-30480D02*
X246380Y-25400D01*
X241300Y-30480D02*
X190500Y-30480D01*
X185420Y-25400D02*
X246380Y-25400D01*
X274320Y5080D02*
X274320Y48260D01*
X274320Y69850D02*
X274320Y147320D01*
X157480Y147320D02*
X157480Y114300D01*
X157480Y95250D02*
X157480Y5080D01*
D11*
X165725Y11432D02*
X167632Y9525D01*
X165725Y11432D02*
X165725Y15245D01*
X167632Y17152D01*
X169539Y17152D01*
X171445Y15245D01*
X171445Y13338D01*
X171445Y15245D02*
X173352Y17152D01*
X175258Y17152D01*
X177165Y15245D01*
X177165Y11432D01*
X175258Y9525D01*
X180978Y21219D02*
X177165Y25032D01*
X175258Y25032D01*
X175258Y23126D01*
X177165Y23126D01*
X177165Y25032D01*
X165725Y29015D02*
X165725Y36641D01*
X165725Y29015D02*
X171445Y29015D01*
X169539Y32828D01*
X169539Y34735D01*
X171445Y36641D01*
X175258Y36641D01*
X177165Y34735D01*
X177165Y30922D01*
X175258Y29015D01*
X177165Y40709D02*
X169539Y40709D01*
X169539Y42616D01*
X171445Y44522D01*
X177165Y44522D01*
X171445Y44522D02*
X169539Y46429D01*
X171445Y48335D01*
X177165Y48335D01*
X177165Y52403D02*
X169539Y52403D01*
X169539Y54310D01*
X171445Y56216D01*
X177165Y56216D01*
X171445Y56216D02*
X169539Y58123D01*
X171445Y60029D01*
X177165Y60029D01*
D10*
X104140Y12700D02*
X99060Y12700D01*
X25400Y12700D01*
X25400Y34290D01*
X25400Y38100D01*
X25400Y41910D01*
X25400Y59690D01*
X25400Y63500D01*
X25400Y67310D01*
X25400Y85090D01*
X25400Y88900D01*
X25400Y92710D01*
X25400Y110490D01*
X25400Y114300D01*
X25400Y118110D01*
X25400Y135890D01*
X25400Y139700D02*
X99060Y139700D01*
X99060Y34290D02*
X99060Y12700D01*
X99060Y34290D02*
X99060Y38100D01*
X99060Y41910D01*
X99060Y59690D01*
X99060Y63500D01*
X99060Y67310D01*
X99060Y85090D01*
X99060Y88900D01*
X99060Y92710D01*
X99060Y110490D01*
X99060Y114300D01*
X99060Y118110D01*
X99060Y135890D01*
X99060Y139700D01*
X99060Y114300D02*
X25400Y114300D01*
X25400Y88900D02*
X99060Y88900D01*
X99060Y63500D02*
X25400Y63500D01*
X25400Y38100D02*
X99060Y38100D01*
D12*
X99060Y34290D02*
X25400Y34290D01*
X25400Y41910D02*
X99060Y41910D01*
X99060Y59690D02*
X25400Y59690D01*
X25400Y67310D02*
X99060Y67310D01*
X99060Y85090D02*
X25400Y85090D01*
X25400Y92710D02*
X99060Y92710D01*
X99060Y110490D02*
X25400Y110490D01*
X25400Y118110D02*
X99060Y118110D01*
D10*
X99060Y135890D02*
X25400Y135890D01*
X25400Y139700D01*
X25400Y143510D01*
D12*
X99060Y143510D01*
D10*
X104140Y215900D02*
X104140Y12700D01*
X25400Y143510D02*
X25400Y161290D01*
X25400Y165100D02*
X99060Y165100D01*
X99060Y143510D02*
X99060Y139700D01*
X99060Y143510D02*
X99060Y161290D01*
X99060Y165100D01*
D12*
X99060Y161290D02*
X25400Y161290D01*
D10*
X25400Y165100D01*
X25400Y168910D01*
X25400Y186690D01*
X25400Y190500D01*
X99060Y190500D01*
D12*
X99060Y168910D02*
X25400Y168910D01*
D10*
X99060Y168910D02*
X99060Y165100D01*
X99060Y168910D02*
X99060Y186690D01*
X99060Y190500D01*
X25400Y190500D02*
X25400Y194310D01*
X25400Y215900D01*
X99060Y215900D01*
X104140Y215900D01*
X99060Y194310D02*
X99060Y190500D01*
X99060Y194310D02*
X99060Y215900D01*
D12*
X99060Y194310D02*
X25400Y194310D01*
X25400Y186690D02*
X99060Y186690D01*
D11*
X84462Y172085D02*
X76835Y172085D01*
X84462Y179712D01*
X84462Y181618D01*
X82555Y183525D01*
X78742Y183525D01*
X76835Y181618D01*
X78742Y31125D02*
X76835Y29218D01*
X78742Y31125D02*
X82555Y31125D01*
X84462Y29218D01*
X84462Y27312D01*
X82555Y25405D01*
X84462Y23498D01*
X84462Y21592D01*
X82555Y19685D01*
X78742Y19685D01*
X76835Y21592D01*
X76835Y23498D01*
X78742Y25405D01*
X76835Y27312D01*
X76835Y29218D01*
X78742Y25405D02*
X82555Y25405D01*
X76835Y156218D02*
X78742Y158125D01*
X82555Y158125D01*
X84462Y156218D01*
X84462Y154312D01*
X82555Y152405D01*
X80648Y152405D01*
X82555Y152405D02*
X84462Y150498D01*
X84462Y148592D01*
X82555Y146685D01*
X78742Y146685D01*
X76835Y148592D01*
X82555Y132725D02*
X82555Y121285D01*
X76835Y127005D02*
X82555Y132725D01*
X84462Y127005D02*
X76835Y127005D01*
X76835Y107325D02*
X84462Y107325D01*
X76835Y107325D02*
X76835Y101605D01*
X80648Y103512D01*
X82555Y103512D01*
X84462Y101605D01*
X84462Y97792D01*
X82555Y95885D01*
X78742Y95885D01*
X76835Y97792D01*
X84462Y81925D02*
X80648Y80018D01*
X76835Y76205D01*
X76835Y72392D01*
X78742Y70485D01*
X82555Y70485D01*
X84462Y72392D01*
X84462Y74298D01*
X82555Y76205D01*
X76835Y76205D01*
X76835Y56525D02*
X84462Y56525D01*
X84462Y54618D01*
X76835Y46992D01*
X76835Y45085D01*
X76835Y205112D02*
X80648Y208925D01*
X80648Y197485D01*
X76835Y197485D02*
X84462Y197485D01*
D10*
X345440Y12700D02*
X373380Y12700D01*
X345440Y12700D02*
X345440Y38100D01*
X373380Y38100D02*
X373380Y12700D01*
X373380Y63500D02*
X345440Y63500D01*
X373380Y63500D02*
X373380Y88900D01*
X373380Y38100D02*
X345440Y38100D01*
X345440Y63500D01*
X373380Y63500D02*
X373380Y38100D01*
D13*
X381000Y76200D02*
X427990Y76200D01*
X427990Y50800D02*
X381000Y50800D01*
X381000Y25400D02*
X427990Y25400D01*
D10*
X345440Y63500D02*
X345440Y88900D01*
X345440Y114300D01*
X373380Y114300D01*
X345440Y114300D02*
X345440Y139700D01*
X373380Y139700D01*
X373380Y114300D01*
X373380Y88900D02*
X345440Y88900D01*
X373380Y88900D02*
X373380Y114300D01*
X345440Y139700D02*
X345440Y165100D01*
X373380Y165100D02*
X373380Y139700D01*
X373380Y190500D02*
X345440Y190500D01*
X345440Y215900D01*
X373380Y215900D01*
X373380Y190500D01*
X373380Y165100D02*
X345440Y165100D01*
X345440Y190500D01*
X373380Y190500D02*
X373380Y165100D01*
D13*
X381000Y203200D02*
X427990Y203200D01*
X427990Y177800D02*
X381000Y177800D01*
X381000Y152400D02*
X427990Y152400D01*
X427990Y127000D02*
X381000Y127000D01*
X381000Y101600D02*
X427990Y101600D01*
D11*
X351155Y205112D02*
X354968Y208925D01*
X354968Y197485D01*
X351155Y197485D02*
X358782Y197485D01*
X358782Y172085D02*
X351155Y172085D01*
X358782Y179712D01*
X358782Y181618D01*
X356875Y183525D01*
X353062Y183525D01*
X351155Y181618D01*
X353062Y158125D02*
X351155Y156218D01*
X353062Y158125D02*
X356875Y158125D01*
X358782Y156218D01*
X358782Y154312D01*
X356875Y152405D01*
X354968Y152405D01*
X356875Y152405D02*
X358782Y150498D01*
X358782Y148592D01*
X356875Y146685D01*
X353062Y146685D01*
X351155Y148592D01*
X356875Y132725D02*
X356875Y121285D01*
X351155Y127005D02*
X356875Y132725D01*
X358782Y127005D02*
X351155Y127005D01*
X351155Y107325D02*
X358782Y107325D01*
X351155Y107325D02*
X351155Y101605D01*
X354968Y103512D01*
X356875Y103512D01*
X358782Y101605D01*
X358782Y97792D01*
X356875Y95885D01*
X353062Y95885D01*
X351155Y97792D01*
X358782Y81925D02*
X354968Y80018D01*
X351155Y76205D01*
X351155Y72392D01*
X353062Y70485D01*
X356875Y70485D01*
X358782Y72392D01*
X358782Y74298D01*
X356875Y76205D01*
X351155Y76205D01*
X351155Y56525D02*
X358782Y56525D01*
X358782Y54618D01*
X351155Y46992D01*
X351155Y45085D01*
X353062Y31125D02*
X351155Y29218D01*
X353062Y31125D02*
X356875Y31125D01*
X358782Y29218D01*
X358782Y27312D01*
X356875Y25405D01*
X358782Y23498D01*
X358782Y21592D01*
X356875Y19685D01*
X353062Y19685D01*
X351155Y21592D01*
X351155Y23498D01*
X353062Y25405D01*
X351155Y27312D01*
X351155Y29218D01*
X353062Y25405D02*
X356875Y25405D01*
D14*
X377190Y76200D03*
X377190Y50800D03*
X377190Y25400D03*
X377190Y203200D03*
X377190Y177800D03*
X377190Y152400D03*
X377190Y127000D03*
X377190Y101600D03*
D15*
X342138Y25400D03*
X342138Y50800D03*
X342138Y76200D03*
X342138Y101600D03*
X342138Y127000D03*
X342138Y152400D03*
X342138Y177800D03*
X342138Y203200D03*
M02*
