G04 EAGLE Gerber X2 export*
G04 #@! %TF.Part,Single*
G04 #@! %TF.FileFunction,Copper,L2,Bot,Mixed*
G04 #@! %TF.FilePolarity,Positive*
G04 #@! %TF.GenerationSoftware,Autodesk,EAGLE,9.0.0*
G04 #@! %TF.CreationDate,2019-08-08T19:07:24Z*
G75*
%MOMM*%
%FSLAX34Y34*%
%LPD*%
%AMOC8*
5,1,8,0,0,1.08239X$1,22.5*%
G01*
%ADD10C,1.676400*%
%ADD11P,1.814519X8X22.500000*%
%ADD12P,1.814519X8X112.500000*%
%ADD13C,0.406400*%

G36*
X470226Y-2537D02*
X470226Y-2537D01*
X470244Y-2539D01*
X470426Y-2518D01*
X470609Y-2499D01*
X470626Y-2494D01*
X470643Y-2492D01*
X470818Y-2435D01*
X470994Y-2381D01*
X471009Y-2373D01*
X471026Y-2367D01*
X471186Y-2277D01*
X471348Y-2189D01*
X471361Y-2178D01*
X471377Y-2169D01*
X471516Y-2049D01*
X471657Y-1932D01*
X471668Y-1918D01*
X471682Y-1906D01*
X471794Y-1761D01*
X471909Y-1618D01*
X471917Y-1602D01*
X471928Y-1588D01*
X472010Y-1423D01*
X472095Y-1261D01*
X472100Y-1244D01*
X472108Y-1228D01*
X472155Y-1049D01*
X472206Y-874D01*
X472208Y-856D01*
X472212Y-839D01*
X472239Y-508D01*
X472239Y263908D01*
X472237Y263926D01*
X472239Y263944D01*
X472218Y264126D01*
X472199Y264309D01*
X472194Y264326D01*
X472192Y264343D01*
X472135Y264518D01*
X472081Y264694D01*
X472073Y264709D01*
X472067Y264726D01*
X471977Y264886D01*
X471889Y265048D01*
X471878Y265061D01*
X471869Y265077D01*
X471749Y265216D01*
X471632Y265357D01*
X471618Y265368D01*
X471606Y265382D01*
X471461Y265494D01*
X471318Y265609D01*
X471302Y265617D01*
X471288Y265628D01*
X471123Y265710D01*
X470961Y265795D01*
X470944Y265800D01*
X470928Y265808D01*
X470749Y265855D01*
X470574Y265906D01*
X470556Y265908D01*
X470539Y265912D01*
X470208Y265939D01*
X12192Y265939D01*
X12174Y265937D01*
X12156Y265939D01*
X11974Y265918D01*
X11791Y265899D01*
X11774Y265894D01*
X11757Y265892D01*
X11582Y265835D01*
X11406Y265781D01*
X11391Y265773D01*
X11374Y265767D01*
X11214Y265677D01*
X11052Y265589D01*
X11039Y265578D01*
X11023Y265569D01*
X10884Y265449D01*
X10743Y265332D01*
X10732Y265318D01*
X10718Y265306D01*
X10606Y265161D01*
X10491Y265018D01*
X10483Y265002D01*
X10472Y264988D01*
X10390Y264823D01*
X10305Y264661D01*
X10300Y264644D01*
X10292Y264628D01*
X10245Y264449D01*
X10194Y264274D01*
X10192Y264256D01*
X10188Y264239D01*
X10161Y263908D01*
X10161Y-508D01*
X10163Y-526D01*
X10161Y-544D01*
X10182Y-726D01*
X10201Y-909D01*
X10206Y-926D01*
X10208Y-943D01*
X10265Y-1118D01*
X10319Y-1294D01*
X10327Y-1309D01*
X10333Y-1326D01*
X10423Y-1486D01*
X10511Y-1648D01*
X10522Y-1661D01*
X10531Y-1677D01*
X10651Y-1816D01*
X10768Y-1957D01*
X10782Y-1968D01*
X10794Y-1982D01*
X10939Y-2094D01*
X11082Y-2209D01*
X11098Y-2217D01*
X11112Y-2228D01*
X11277Y-2310D01*
X11439Y-2395D01*
X11456Y-2400D01*
X11472Y-2408D01*
X11651Y-2455D01*
X11826Y-2506D01*
X11844Y-2508D01*
X11861Y-2512D01*
X12192Y-2539D01*
X470208Y-2539D01*
X470226Y-2537D01*
G37*
%LPC*%
G36*
X284419Y19557D02*
X284419Y19557D01*
X278664Y25312D01*
X278648Y25326D01*
X278635Y25341D01*
X278631Y25343D01*
X278626Y25350D01*
X278488Y25457D01*
X278353Y25567D01*
X278329Y25580D01*
X278308Y25596D01*
X278151Y25674D01*
X277997Y25756D01*
X277972Y25764D01*
X277947Y25776D01*
X277778Y25821D01*
X277611Y25871D01*
X277585Y25873D01*
X277559Y25880D01*
X277228Y25907D01*
X213475Y25907D01*
X208993Y27763D01*
X205278Y31479D01*
X196579Y40178D01*
X192863Y43893D01*
X191007Y48375D01*
X191007Y142125D01*
X192863Y146607D01*
X203571Y157314D01*
X203582Y157328D01*
X203595Y157339D01*
X203709Y157483D01*
X203826Y157625D01*
X203834Y157641D01*
X203845Y157655D01*
X203929Y157819D01*
X204014Y157981D01*
X204019Y157998D01*
X204027Y158014D01*
X204077Y158191D01*
X204129Y158367D01*
X204131Y158385D01*
X204135Y158402D01*
X204149Y158585D01*
X204165Y158768D01*
X204164Y158786D01*
X204165Y158803D01*
X204142Y158985D01*
X204122Y159168D01*
X204117Y159185D01*
X204114Y159203D01*
X204056Y159377D01*
X204001Y159552D01*
X203992Y159568D01*
X203986Y159584D01*
X203894Y159744D01*
X203806Y159904D01*
X203794Y159918D01*
X203785Y159933D01*
X203571Y160186D01*
X192863Y170893D01*
X191007Y175375D01*
X191007Y192925D01*
X192863Y197407D01*
X208993Y213537D01*
X212436Y214963D01*
X213475Y215393D01*
X213728Y215393D01*
X213755Y215395D01*
X213781Y215393D01*
X213955Y215415D01*
X214129Y215433D01*
X214154Y215440D01*
X214181Y215444D01*
X214347Y215500D01*
X214514Y215551D01*
X214537Y215564D01*
X214562Y215572D01*
X214714Y215659D01*
X214868Y215743D01*
X214888Y215760D01*
X214911Y215773D01*
X215164Y215988D01*
X220919Y221743D01*
X236281Y221743D01*
X247143Y210881D01*
X247143Y195519D01*
X245084Y193460D01*
X245078Y193453D01*
X245071Y193448D01*
X244951Y193298D01*
X244829Y193149D01*
X244824Y193141D01*
X244819Y193134D01*
X244730Y192964D01*
X244640Y192793D01*
X244637Y192784D01*
X244633Y192777D01*
X244580Y192592D01*
X244525Y192407D01*
X244524Y192398D01*
X244522Y192390D01*
X244506Y192199D01*
X244489Y192006D01*
X244490Y191997D01*
X244489Y191988D01*
X244511Y191799D01*
X244532Y191606D01*
X244535Y191597D01*
X244536Y191589D01*
X244595Y191407D01*
X244654Y191222D01*
X244658Y191214D01*
X244661Y191206D01*
X244756Y191037D01*
X244849Y190870D01*
X244854Y190863D01*
X244859Y190855D01*
X244985Y190709D01*
X245109Y190563D01*
X245116Y190557D01*
X245122Y190550D01*
X245273Y190433D01*
X245425Y190313D01*
X245433Y190309D01*
X245440Y190304D01*
X245612Y190218D01*
X245784Y190131D01*
X245792Y190128D01*
X245800Y190124D01*
X245986Y190074D01*
X246172Y190023D01*
X246181Y190022D01*
X246189Y190020D01*
X246520Y189993D01*
X271526Y189993D01*
X271544Y189995D01*
X271562Y189993D01*
X271744Y190014D01*
X271927Y190033D01*
X271944Y190038D01*
X271961Y190040D01*
X272136Y190097D01*
X272312Y190151D01*
X272327Y190159D01*
X272344Y190165D01*
X272504Y190255D01*
X272666Y190343D01*
X272679Y190354D01*
X272695Y190363D01*
X272834Y190483D01*
X272975Y190600D01*
X272986Y190614D01*
X273000Y190626D01*
X273112Y190771D01*
X273227Y190914D01*
X273235Y190930D01*
X273246Y190944D01*
X273328Y191109D01*
X273413Y191271D01*
X273418Y191288D01*
X273426Y191304D01*
X273473Y191483D01*
X273524Y191658D01*
X273526Y191676D01*
X273530Y191693D01*
X273557Y192024D01*
X273557Y198181D01*
X277140Y201764D01*
X277152Y201777D01*
X277165Y201789D01*
X277279Y201933D01*
X277395Y202075D01*
X277404Y202091D01*
X277415Y202105D01*
X277498Y202269D01*
X277584Y202431D01*
X277589Y202448D01*
X277597Y202464D01*
X277647Y202641D01*
X277699Y202817D01*
X277700Y202835D01*
X277705Y202852D01*
X277719Y203035D01*
X277735Y203218D01*
X277733Y203236D01*
X277735Y203253D01*
X277712Y203435D01*
X277692Y203618D01*
X277686Y203635D01*
X277684Y203653D01*
X277626Y203826D01*
X277570Y204002D01*
X277562Y204018D01*
X277556Y204034D01*
X277464Y204194D01*
X277375Y204354D01*
X277364Y204368D01*
X277355Y204383D01*
X277140Y204636D01*
X273557Y208219D01*
X273557Y223581D01*
X284419Y234443D01*
X299781Y234443D01*
X310643Y223581D01*
X310643Y208219D01*
X307060Y204636D01*
X307048Y204622D01*
X307035Y204611D01*
X306921Y204467D01*
X306805Y204325D01*
X306796Y204309D01*
X306785Y204295D01*
X306702Y204131D01*
X306616Y203969D01*
X306611Y203952D01*
X306603Y203936D01*
X306553Y203759D01*
X306501Y203583D01*
X306500Y203565D01*
X306495Y203548D01*
X306481Y203365D01*
X306465Y203182D01*
X306467Y203164D01*
X306465Y203147D01*
X306488Y202965D01*
X306508Y202782D01*
X306514Y202765D01*
X306516Y202747D01*
X306574Y202573D01*
X306630Y202398D01*
X306638Y202382D01*
X306644Y202366D01*
X306736Y202206D01*
X306825Y202046D01*
X306836Y202032D01*
X306845Y202017D01*
X307060Y201764D01*
X310643Y198181D01*
X310643Y182819D01*
X299781Y171957D01*
X291642Y171957D01*
X291615Y171955D01*
X291588Y171957D01*
X291415Y171935D01*
X291241Y171917D01*
X291216Y171910D01*
X291189Y171906D01*
X291023Y171851D01*
X290856Y171799D01*
X290833Y171786D01*
X290807Y171778D01*
X290656Y171691D01*
X290502Y171607D01*
X290482Y171590D01*
X290458Y171577D01*
X290205Y171362D01*
X286307Y167463D01*
X281825Y165607D01*
X262940Y165607D01*
X262931Y165606D01*
X262922Y165607D01*
X262730Y165586D01*
X262539Y165567D01*
X262531Y165565D01*
X262522Y165564D01*
X262339Y165506D01*
X262154Y165449D01*
X262146Y165445D01*
X262138Y165442D01*
X261969Y165349D01*
X261800Y165257D01*
X261793Y165252D01*
X261785Y165247D01*
X261639Y165123D01*
X261491Y165000D01*
X261485Y164993D01*
X261478Y164987D01*
X261359Y164836D01*
X261239Y164686D01*
X261234Y164678D01*
X261229Y164671D01*
X261141Y164498D01*
X261053Y164329D01*
X261051Y164320D01*
X261047Y164312D01*
X260995Y164126D01*
X260942Y163942D01*
X260941Y163933D01*
X260939Y163924D01*
X260924Y163731D01*
X260909Y163540D01*
X260910Y163532D01*
X260909Y163523D01*
X260933Y163330D01*
X260956Y163141D01*
X260958Y163132D01*
X260960Y163123D01*
X261021Y162940D01*
X261081Y162758D01*
X261085Y162750D01*
X261088Y162742D01*
X261184Y162575D01*
X261278Y162407D01*
X261284Y162400D01*
X261289Y162393D01*
X261503Y162140D01*
X264337Y159307D01*
X266193Y154825D01*
X266193Y149975D01*
X264337Y145493D01*
X251922Y133079D01*
X248803Y129960D01*
X248798Y129953D01*
X248791Y129948D01*
X248671Y129798D01*
X248548Y129649D01*
X248544Y129641D01*
X248539Y129634D01*
X248450Y129464D01*
X248360Y129293D01*
X248357Y129284D01*
X248353Y129277D01*
X248300Y129092D01*
X248245Y128907D01*
X248244Y128898D01*
X248242Y128890D01*
X248226Y128699D01*
X248209Y128506D01*
X248209Y128497D01*
X248209Y128488D01*
X248231Y128299D01*
X248252Y128106D01*
X248255Y128097D01*
X248256Y128089D01*
X248315Y127907D01*
X248373Y127722D01*
X248378Y127714D01*
X248381Y127706D01*
X248476Y127537D01*
X248568Y127370D01*
X248574Y127363D01*
X248578Y127355D01*
X248704Y127209D01*
X248829Y127063D01*
X248836Y127057D01*
X248842Y127050D01*
X248993Y126933D01*
X249145Y126813D01*
X249153Y126809D01*
X249160Y126804D01*
X249332Y126718D01*
X249504Y126631D01*
X249512Y126628D01*
X249520Y126624D01*
X249706Y126574D01*
X249891Y126523D01*
X249900Y126522D01*
X249909Y126520D01*
X250240Y126493D01*
X274180Y126493D01*
X274189Y126494D01*
X274198Y126493D01*
X274390Y126514D01*
X274581Y126533D01*
X274589Y126535D01*
X274598Y126536D01*
X274780Y126594D01*
X274966Y126651D01*
X274974Y126655D01*
X274982Y126658D01*
X275150Y126751D01*
X275320Y126843D01*
X275326Y126848D01*
X275334Y126853D01*
X275481Y126977D01*
X275629Y127100D01*
X275634Y127107D01*
X275641Y127113D01*
X275760Y127264D01*
X275881Y127414D01*
X275885Y127422D01*
X275891Y127429D01*
X275979Y127602D01*
X276067Y127771D01*
X276069Y127780D01*
X276073Y127788D01*
X276125Y127974D01*
X276178Y128158D01*
X276179Y128167D01*
X276181Y128176D01*
X276195Y128369D01*
X276211Y128560D01*
X276210Y128568D01*
X276211Y128577D01*
X276186Y128770D01*
X276164Y128959D01*
X276161Y128968D01*
X276160Y128977D01*
X276099Y129160D01*
X276039Y129342D01*
X276035Y129350D01*
X276032Y129358D01*
X275937Y129524D01*
X275841Y129693D01*
X275835Y129700D01*
X275831Y129707D01*
X275616Y129960D01*
X273557Y132019D01*
X273557Y147381D01*
X284419Y158243D01*
X299781Y158243D01*
X310643Y147381D01*
X310643Y141224D01*
X310645Y141206D01*
X310643Y141188D01*
X310664Y141006D01*
X310683Y140823D01*
X310688Y140806D01*
X310690Y140789D01*
X310747Y140614D01*
X310801Y140438D01*
X310809Y140423D01*
X310815Y140406D01*
X310905Y140246D01*
X310993Y140084D01*
X311004Y140071D01*
X311013Y140055D01*
X311133Y139916D01*
X311250Y139775D01*
X311264Y139764D01*
X311276Y139750D01*
X311421Y139638D01*
X311564Y139523D01*
X311580Y139515D01*
X311594Y139504D01*
X311759Y139422D01*
X311921Y139337D01*
X311938Y139332D01*
X311954Y139324D01*
X312133Y139277D01*
X312308Y139226D01*
X312326Y139224D01*
X312343Y139220D01*
X312674Y139193D01*
X355346Y139193D01*
X355364Y139195D01*
X355382Y139193D01*
X355564Y139214D01*
X355747Y139233D01*
X355764Y139238D01*
X355781Y139240D01*
X355956Y139297D01*
X356132Y139351D01*
X356147Y139359D01*
X356164Y139365D01*
X356324Y139455D01*
X356486Y139543D01*
X356499Y139554D01*
X356515Y139563D01*
X356654Y139683D01*
X356795Y139800D01*
X356806Y139814D01*
X356820Y139826D01*
X356932Y139971D01*
X357047Y140114D01*
X357055Y140130D01*
X357066Y140144D01*
X357148Y140309D01*
X357233Y140471D01*
X357238Y140488D01*
X357246Y140504D01*
X357293Y140683D01*
X357344Y140858D01*
X357346Y140876D01*
X357350Y140893D01*
X357377Y141224D01*
X357377Y144224D01*
X363776Y150623D01*
X366269Y150623D01*
X366269Y141224D01*
X366270Y141206D01*
X366269Y141188D01*
X366290Y141006D01*
X366308Y140823D01*
X366314Y140806D01*
X366316Y140789D01*
X366373Y140614D01*
X366427Y140438D01*
X366435Y140423D01*
X366441Y140406D01*
X366531Y140246D01*
X366618Y140084D01*
X366630Y140071D01*
X366639Y140055D01*
X366759Y139916D01*
X366876Y139775D01*
X366890Y139764D01*
X366902Y139750D01*
X367047Y139638D01*
X367190Y139523D01*
X367206Y139515D01*
X367220Y139504D01*
X367385Y139422D01*
X367547Y139337D01*
X367564Y139332D01*
X367580Y139324D01*
X367758Y139277D01*
X367934Y139226D01*
X367952Y139224D01*
X367969Y139220D01*
X368300Y139193D01*
X368318Y139194D01*
X368335Y139193D01*
X368336Y139193D01*
X368518Y139214D01*
X368701Y139233D01*
X368718Y139238D01*
X368736Y139240D01*
X368910Y139297D01*
X369086Y139351D01*
X369101Y139359D01*
X369118Y139365D01*
X369279Y139455D01*
X369440Y139543D01*
X369453Y139554D01*
X369469Y139563D01*
X369608Y139683D01*
X369749Y139800D01*
X369760Y139814D01*
X369774Y139826D01*
X369886Y139971D01*
X370001Y140114D01*
X370010Y140130D01*
X370020Y140144D01*
X370102Y140309D01*
X370187Y140471D01*
X370192Y140488D01*
X370200Y140504D01*
X370248Y140683D01*
X370298Y140858D01*
X370300Y140876D01*
X370304Y140893D01*
X370331Y141224D01*
X370331Y150623D01*
X372824Y150623D01*
X379223Y144224D01*
X379223Y141224D01*
X379225Y141206D01*
X379223Y141188D01*
X379244Y141006D01*
X379263Y140823D01*
X379268Y140806D01*
X379270Y140789D01*
X379327Y140614D01*
X379381Y140438D01*
X379389Y140423D01*
X379395Y140406D01*
X379485Y140246D01*
X379573Y140084D01*
X379584Y140071D01*
X379593Y140055D01*
X379713Y139916D01*
X379830Y139775D01*
X379844Y139764D01*
X379856Y139750D01*
X380001Y139638D01*
X380144Y139523D01*
X380160Y139515D01*
X380174Y139504D01*
X380339Y139422D01*
X380501Y139337D01*
X380518Y139332D01*
X380534Y139324D01*
X380713Y139277D01*
X380888Y139226D01*
X380906Y139224D01*
X380923Y139220D01*
X381254Y139193D01*
X421525Y139193D01*
X426007Y137337D01*
X429722Y133621D01*
X430110Y133233D01*
X430117Y133228D01*
X430122Y133221D01*
X430272Y133101D01*
X430421Y132978D01*
X430429Y132974D01*
X430436Y132969D01*
X430606Y132880D01*
X430777Y132790D01*
X430785Y132787D01*
X430793Y132783D01*
X430979Y132730D01*
X431163Y132675D01*
X431172Y132674D01*
X431180Y132672D01*
X431372Y132656D01*
X431564Y132639D01*
X431573Y132639D01*
X431582Y132639D01*
X431772Y132661D01*
X431964Y132682D01*
X431973Y132685D01*
X431981Y132686D01*
X432164Y132745D01*
X432348Y132803D01*
X432356Y132808D01*
X432364Y132811D01*
X432531Y132905D01*
X432700Y132998D01*
X432707Y133004D01*
X432715Y133008D01*
X432861Y133135D01*
X433007Y133259D01*
X433013Y133266D01*
X433020Y133272D01*
X433137Y133423D01*
X433257Y133575D01*
X433261Y133583D01*
X433266Y133590D01*
X433352Y133762D01*
X433439Y133934D01*
X433442Y133942D01*
X433446Y133950D01*
X433496Y134138D01*
X433547Y134321D01*
X433548Y134330D01*
X433550Y134339D01*
X433577Y134670D01*
X433577Y137669D01*
X444500Y137669D01*
X455423Y137669D01*
X455423Y135176D01*
X454072Y133824D01*
X454060Y133811D01*
X454047Y133799D01*
X453933Y133655D01*
X453816Y133513D01*
X453808Y133497D01*
X453797Y133483D01*
X453714Y133319D01*
X453628Y133157D01*
X453623Y133140D01*
X453615Y133124D01*
X453565Y132947D01*
X453513Y132771D01*
X453511Y132754D01*
X453507Y132736D01*
X453493Y132553D01*
X453477Y132370D01*
X453479Y132353D01*
X453477Y132335D01*
X453500Y132153D01*
X453520Y131970D01*
X453525Y131953D01*
X453528Y131935D01*
X453586Y131762D01*
X453642Y131586D01*
X453650Y131571D01*
X453656Y131554D01*
X453747Y131395D01*
X453836Y131234D01*
X453848Y131220D01*
X453857Y131205D01*
X454072Y130952D01*
X463043Y121981D01*
X463043Y106619D01*
X452181Y95757D01*
X436819Y95757D01*
X431064Y101512D01*
X431044Y101529D01*
X431026Y101550D01*
X430888Y101657D01*
X430753Y101767D01*
X430729Y101780D01*
X430708Y101796D01*
X430551Y101874D01*
X430397Y101956D01*
X430372Y101964D01*
X430347Y101976D01*
X430178Y102021D01*
X430011Y102071D01*
X429985Y102073D01*
X429959Y102080D01*
X429628Y102107D01*
X429375Y102107D01*
X424893Y103963D01*
X414645Y114212D01*
X414624Y114229D01*
X414606Y114250D01*
X414468Y114357D01*
X414333Y114467D01*
X414309Y114480D01*
X414288Y114496D01*
X414131Y114574D01*
X413977Y114656D01*
X413952Y114664D01*
X413928Y114676D01*
X413758Y114721D01*
X413591Y114771D01*
X413565Y114773D01*
X413539Y114780D01*
X413208Y114807D01*
X388874Y114807D01*
X388856Y114805D01*
X388838Y114807D01*
X388656Y114786D01*
X388473Y114767D01*
X388456Y114762D01*
X388439Y114760D01*
X388264Y114703D01*
X388088Y114649D01*
X388073Y114641D01*
X388056Y114635D01*
X387896Y114545D01*
X387734Y114457D01*
X387721Y114446D01*
X387705Y114437D01*
X387566Y114317D01*
X387425Y114200D01*
X387414Y114186D01*
X387400Y114174D01*
X387288Y114029D01*
X387173Y113886D01*
X387165Y113870D01*
X387154Y113856D01*
X387072Y113691D01*
X386987Y113529D01*
X386982Y113512D01*
X386974Y113496D01*
X386927Y113317D01*
X386876Y113142D01*
X386874Y113124D01*
X386870Y113107D01*
X386843Y112776D01*
X386843Y106619D01*
X375981Y95757D01*
X360619Y95757D01*
X354864Y101512D01*
X354844Y101529D01*
X354826Y101550D01*
X354688Y101657D01*
X354553Y101767D01*
X354529Y101780D01*
X354508Y101796D01*
X354351Y101874D01*
X354197Y101956D01*
X354172Y101964D01*
X354147Y101976D01*
X353978Y102021D01*
X353811Y102071D01*
X353785Y102073D01*
X353759Y102080D01*
X353428Y102107D01*
X323392Y102107D01*
X323365Y102105D01*
X323338Y102107D01*
X323165Y102085D01*
X322991Y102067D01*
X322966Y102060D01*
X322939Y102056D01*
X322773Y102001D01*
X322606Y101949D01*
X322583Y101936D01*
X322557Y101928D01*
X322406Y101841D01*
X322252Y101757D01*
X322232Y101740D01*
X322208Y101727D01*
X321955Y101512D01*
X311707Y91263D01*
X307225Y89407D01*
X226175Y89407D01*
X221693Y91263D01*
X218860Y94097D01*
X218853Y94102D01*
X218848Y94109D01*
X218698Y94229D01*
X218549Y94352D01*
X218541Y94356D01*
X218534Y94361D01*
X218364Y94450D01*
X218193Y94540D01*
X218184Y94543D01*
X218177Y94547D01*
X217992Y94600D01*
X217807Y94655D01*
X217798Y94656D01*
X217790Y94658D01*
X217599Y94674D01*
X217406Y94691D01*
X217397Y94691D01*
X217388Y94691D01*
X217199Y94669D01*
X217006Y94648D01*
X216997Y94645D01*
X216989Y94644D01*
X216807Y94585D01*
X216622Y94527D01*
X216614Y94522D01*
X216606Y94519D01*
X216437Y94424D01*
X216270Y94332D01*
X216263Y94326D01*
X216255Y94322D01*
X216109Y94196D01*
X215963Y94071D01*
X215957Y94064D01*
X215950Y94058D01*
X215833Y93907D01*
X215713Y93755D01*
X215709Y93747D01*
X215704Y93740D01*
X215618Y93568D01*
X215531Y93396D01*
X215528Y93388D01*
X215524Y93380D01*
X215474Y93194D01*
X215423Y93009D01*
X215422Y93000D01*
X215420Y92991D01*
X215393Y92660D01*
X215393Y56692D01*
X215395Y56665D01*
X215393Y56638D01*
X215415Y56465D01*
X215433Y56291D01*
X215440Y56266D01*
X215444Y56239D01*
X215500Y56073D01*
X215551Y55906D01*
X215564Y55883D01*
X215572Y55857D01*
X215659Y55706D01*
X215743Y55552D01*
X215760Y55532D01*
X215773Y55508D01*
X215988Y55255D01*
X220355Y50888D01*
X220376Y50871D01*
X220394Y50850D01*
X220532Y50743D01*
X220667Y50633D01*
X220691Y50620D01*
X220712Y50604D01*
X220869Y50526D01*
X221023Y50444D01*
X221048Y50436D01*
X221072Y50424D01*
X221242Y50379D01*
X221409Y50329D01*
X221435Y50327D01*
X221461Y50320D01*
X221792Y50293D01*
X274180Y50293D01*
X274189Y50294D01*
X274198Y50293D01*
X274390Y50314D01*
X274581Y50333D01*
X274589Y50335D01*
X274598Y50336D01*
X274780Y50394D01*
X274966Y50451D01*
X274974Y50455D01*
X274982Y50458D01*
X275150Y50551D01*
X275320Y50643D01*
X275326Y50648D01*
X275334Y50653D01*
X275481Y50777D01*
X275629Y50900D01*
X275634Y50907D01*
X275641Y50913D01*
X275760Y51064D01*
X275881Y51214D01*
X275885Y51222D01*
X275891Y51229D01*
X275979Y51402D01*
X276067Y51571D01*
X276069Y51580D01*
X276073Y51588D01*
X276125Y51774D01*
X276178Y51958D01*
X276179Y51967D01*
X276181Y51976D01*
X276195Y52169D01*
X276211Y52360D01*
X276210Y52368D01*
X276211Y52377D01*
X276186Y52570D01*
X276164Y52759D01*
X276161Y52768D01*
X276160Y52777D01*
X276099Y52959D01*
X276039Y53142D01*
X276035Y53150D01*
X276032Y53158D01*
X275937Y53324D01*
X275841Y53493D01*
X275835Y53500D01*
X275831Y53507D01*
X275616Y53760D01*
X273557Y55819D01*
X273557Y71181D01*
X284419Y82043D01*
X299781Y82043D01*
X310643Y71181D01*
X310643Y55819D01*
X307060Y52236D01*
X307048Y52222D01*
X307035Y52211D01*
X306921Y52067D01*
X306805Y51925D01*
X306796Y51909D01*
X306785Y51895D01*
X306702Y51731D01*
X306616Y51569D01*
X306611Y51552D01*
X306603Y51536D01*
X306553Y51359D01*
X306501Y51183D01*
X306500Y51165D01*
X306495Y51148D01*
X306481Y50965D01*
X306465Y50782D01*
X306467Y50764D01*
X306465Y50747D01*
X306488Y50565D01*
X306508Y50382D01*
X306514Y50365D01*
X306516Y50347D01*
X306574Y50173D01*
X306630Y49998D01*
X306638Y49982D01*
X306644Y49966D01*
X306736Y49806D01*
X306825Y49646D01*
X306836Y49632D01*
X306845Y49617D01*
X307060Y49364D01*
X310643Y45781D01*
X310643Y30419D01*
X299781Y19557D01*
X284419Y19557D01*
G37*
%LPD*%
%LPC*%
G36*
X88900Y52831D02*
X88900Y52831D01*
X69781Y52831D01*
X69864Y53358D01*
X70396Y54993D01*
X71176Y56525D01*
X71602Y57111D01*
X71630Y57159D01*
X71665Y57202D01*
X71731Y57332D01*
X71805Y57458D01*
X71823Y57511D01*
X71849Y57560D01*
X71888Y57701D01*
X71936Y57839D01*
X71943Y57894D01*
X71958Y57948D01*
X71970Y58094D01*
X71989Y58238D01*
X71985Y58294D01*
X71989Y58349D01*
X71972Y58494D01*
X71962Y58640D01*
X71947Y58694D01*
X71941Y58749D01*
X71895Y58888D01*
X71856Y59029D01*
X71832Y59078D01*
X71814Y59131D01*
X71742Y59258D01*
X71676Y59389D01*
X71642Y59432D01*
X71615Y59481D01*
X71518Y59591D01*
X71429Y59706D01*
X71387Y59742D01*
X71350Y59784D01*
X71234Y59874D01*
X71124Y59969D01*
X71075Y59996D01*
X71031Y60030D01*
X70840Y60128D01*
X70773Y60166D01*
X70756Y60171D01*
X70736Y60181D01*
X70014Y60480D01*
X64798Y65696D01*
X61975Y72512D01*
X61975Y79888D01*
X64798Y86704D01*
X65558Y87464D01*
X65570Y87478D01*
X65583Y87489D01*
X65697Y87633D01*
X65813Y87775D01*
X65822Y87791D01*
X65833Y87805D01*
X65916Y87969D01*
X66002Y88131D01*
X66007Y88148D01*
X66015Y88164D01*
X66064Y88341D01*
X66117Y88517D01*
X66118Y88535D01*
X66123Y88552D01*
X66137Y88735D01*
X66153Y88918D01*
X66151Y88936D01*
X66153Y88953D01*
X66130Y89135D01*
X66110Y89318D01*
X66104Y89335D01*
X66102Y89353D01*
X66044Y89526D01*
X65988Y89702D01*
X65980Y89718D01*
X65974Y89734D01*
X65882Y89894D01*
X65793Y90054D01*
X65782Y90068D01*
X65773Y90083D01*
X65558Y90336D01*
X64798Y91096D01*
X61975Y97912D01*
X61975Y105288D01*
X64798Y112104D01*
X65558Y112864D01*
X65570Y112878D01*
X65583Y112889D01*
X65697Y113033D01*
X65813Y113175D01*
X65822Y113191D01*
X65833Y113205D01*
X65916Y113369D01*
X66002Y113531D01*
X66007Y113548D01*
X66015Y113564D01*
X66064Y113741D01*
X66117Y113917D01*
X66118Y113935D01*
X66123Y113952D01*
X66137Y114135D01*
X66153Y114318D01*
X66151Y114336D01*
X66153Y114353D01*
X66130Y114535D01*
X66110Y114718D01*
X66104Y114735D01*
X66102Y114753D01*
X66044Y114926D01*
X65988Y115102D01*
X65980Y115118D01*
X65974Y115134D01*
X65882Y115294D01*
X65793Y115454D01*
X65782Y115468D01*
X65773Y115483D01*
X65558Y115736D01*
X64798Y116496D01*
X61975Y123312D01*
X61975Y130688D01*
X64798Y137504D01*
X65558Y138264D01*
X65570Y138278D01*
X65583Y138289D01*
X65697Y138433D01*
X65813Y138575D01*
X65822Y138591D01*
X65833Y138605D01*
X65916Y138769D01*
X66002Y138931D01*
X66007Y138948D01*
X66015Y138964D01*
X66064Y139141D01*
X66117Y139317D01*
X66118Y139335D01*
X66123Y139352D01*
X66137Y139535D01*
X66153Y139718D01*
X66151Y139736D01*
X66153Y139753D01*
X66130Y139935D01*
X66110Y140118D01*
X66104Y140135D01*
X66102Y140153D01*
X66044Y140326D01*
X65988Y140502D01*
X65980Y140518D01*
X65974Y140534D01*
X65882Y140694D01*
X65793Y140854D01*
X65782Y140868D01*
X65773Y140883D01*
X65558Y141136D01*
X64798Y141896D01*
X61975Y148712D01*
X61975Y156088D01*
X64798Y162904D01*
X65558Y163664D01*
X65570Y163678D01*
X65583Y163689D01*
X65697Y163833D01*
X65813Y163975D01*
X65822Y163991D01*
X65833Y164005D01*
X65916Y164169D01*
X66002Y164331D01*
X66007Y164348D01*
X66015Y164364D01*
X66064Y164541D01*
X66117Y164717D01*
X66118Y164735D01*
X66123Y164752D01*
X66137Y164935D01*
X66153Y165118D01*
X66151Y165136D01*
X66153Y165153D01*
X66130Y165335D01*
X66110Y165518D01*
X66104Y165535D01*
X66102Y165553D01*
X66044Y165726D01*
X65988Y165902D01*
X65980Y165918D01*
X65974Y165934D01*
X65882Y166094D01*
X65793Y166254D01*
X65782Y166268D01*
X65773Y166283D01*
X65558Y166536D01*
X64798Y167296D01*
X61975Y174112D01*
X61975Y181488D01*
X64798Y188304D01*
X65558Y189064D01*
X65570Y189078D01*
X65583Y189089D01*
X65697Y189233D01*
X65813Y189375D01*
X65822Y189391D01*
X65833Y189405D01*
X65916Y189569D01*
X66002Y189731D01*
X66007Y189748D01*
X66015Y189764D01*
X66064Y189941D01*
X66117Y190117D01*
X66118Y190135D01*
X66123Y190152D01*
X66137Y190335D01*
X66153Y190518D01*
X66151Y190536D01*
X66153Y190553D01*
X66130Y190735D01*
X66110Y190918D01*
X66104Y190935D01*
X66102Y190953D01*
X66044Y191126D01*
X65988Y191302D01*
X65980Y191318D01*
X65974Y191334D01*
X65882Y191494D01*
X65793Y191654D01*
X65782Y191668D01*
X65773Y191683D01*
X65558Y191936D01*
X64798Y192696D01*
X61975Y199512D01*
X61975Y206888D01*
X64798Y213704D01*
X65558Y214464D01*
X65570Y214478D01*
X65583Y214489D01*
X65697Y214633D01*
X65813Y214775D01*
X65822Y214791D01*
X65833Y214805D01*
X65916Y214969D01*
X66002Y215131D01*
X66007Y215148D01*
X66015Y215164D01*
X66064Y215341D01*
X66117Y215517D01*
X66118Y215535D01*
X66123Y215552D01*
X66137Y215735D01*
X66153Y215918D01*
X66151Y215936D01*
X66153Y215953D01*
X66130Y216135D01*
X66110Y216318D01*
X66104Y216335D01*
X66102Y216353D01*
X66044Y216526D01*
X65988Y216702D01*
X65980Y216718D01*
X65974Y216734D01*
X65882Y216894D01*
X65793Y217054D01*
X65782Y217068D01*
X65773Y217083D01*
X65558Y217336D01*
X64798Y218096D01*
X61975Y224912D01*
X61975Y232288D01*
X64798Y239104D01*
X70014Y244320D01*
X76830Y247143D01*
X100970Y247143D01*
X107786Y244320D01*
X113002Y239104D01*
X115825Y232288D01*
X115825Y224912D01*
X115021Y222971D01*
X115019Y222966D01*
X115017Y222962D01*
X114961Y222774D01*
X114904Y222585D01*
X114904Y222581D01*
X114903Y222577D01*
X114885Y222379D01*
X114866Y222184D01*
X114867Y222180D01*
X114866Y222176D01*
X114887Y221980D01*
X114908Y221784D01*
X114909Y221780D01*
X114910Y221775D01*
X114968Y221591D01*
X115028Y221400D01*
X115030Y221396D01*
X115031Y221391D01*
X115127Y221218D01*
X115221Y221046D01*
X115224Y221043D01*
X115226Y221039D01*
X115354Y220888D01*
X115480Y220738D01*
X115484Y220736D01*
X115486Y220732D01*
X115641Y220610D01*
X115795Y220487D01*
X115799Y220485D01*
X115802Y220483D01*
X115977Y220394D01*
X116153Y220303D01*
X116157Y220302D01*
X116161Y220300D01*
X116352Y220247D01*
X116540Y220194D01*
X116545Y220193D01*
X116549Y220192D01*
X116750Y220177D01*
X116942Y220163D01*
X116946Y220163D01*
X116951Y220163D01*
X117149Y220188D01*
X117341Y220211D01*
X117346Y220213D01*
X117350Y220213D01*
X117535Y220275D01*
X117724Y220338D01*
X117728Y220340D01*
X117732Y220341D01*
X117900Y220438D01*
X118073Y220537D01*
X118077Y220540D01*
X118081Y220542D01*
X118334Y220757D01*
X119319Y221743D01*
X134681Y221743D01*
X145543Y210881D01*
X145543Y195519D01*
X141960Y191936D01*
X141948Y191922D01*
X141935Y191911D01*
X141821Y191767D01*
X141705Y191625D01*
X141696Y191609D01*
X141685Y191595D01*
X141602Y191431D01*
X141516Y191269D01*
X141511Y191252D01*
X141503Y191236D01*
X141453Y191059D01*
X141401Y190883D01*
X141400Y190865D01*
X141395Y190848D01*
X141381Y190665D01*
X141365Y190482D01*
X141367Y190464D01*
X141365Y190447D01*
X141388Y190265D01*
X141408Y190082D01*
X141414Y190065D01*
X141416Y190047D01*
X141474Y189873D01*
X141530Y189698D01*
X141538Y189682D01*
X141544Y189666D01*
X141636Y189506D01*
X141725Y189346D01*
X141736Y189332D01*
X141745Y189317D01*
X141960Y189064D01*
X145543Y185481D01*
X145543Y170119D01*
X141960Y166536D01*
X141948Y166523D01*
X141935Y166511D01*
X141821Y166367D01*
X141705Y166225D01*
X141696Y166209D01*
X141685Y166195D01*
X141602Y166031D01*
X141516Y165869D01*
X141511Y165852D01*
X141503Y165836D01*
X141453Y165659D01*
X141401Y165483D01*
X141400Y165465D01*
X141395Y165448D01*
X141381Y165265D01*
X141365Y165082D01*
X141367Y165064D01*
X141365Y165047D01*
X141388Y164865D01*
X141408Y164682D01*
X141414Y164665D01*
X141416Y164647D01*
X141474Y164474D01*
X141530Y164298D01*
X141538Y164282D01*
X141544Y164266D01*
X141636Y164106D01*
X141725Y163946D01*
X141736Y163932D01*
X141745Y163917D01*
X141960Y163664D01*
X145543Y160081D01*
X145543Y144719D01*
X141960Y141136D01*
X141948Y141123D01*
X141935Y141111D01*
X141821Y140967D01*
X141705Y140825D01*
X141696Y140809D01*
X141685Y140795D01*
X141602Y140631D01*
X141516Y140469D01*
X141511Y140452D01*
X141503Y140436D01*
X141453Y140259D01*
X141401Y140083D01*
X141400Y140065D01*
X141395Y140048D01*
X141381Y139865D01*
X141365Y139682D01*
X141367Y139664D01*
X141365Y139647D01*
X141388Y139465D01*
X141408Y139282D01*
X141414Y139265D01*
X141416Y139247D01*
X141474Y139074D01*
X141530Y138898D01*
X141538Y138882D01*
X141544Y138866D01*
X141636Y138706D01*
X141725Y138546D01*
X141736Y138532D01*
X141745Y138517D01*
X141960Y138264D01*
X145543Y134681D01*
X145543Y119319D01*
X134681Y108457D01*
X119319Y108457D01*
X118334Y109443D01*
X118330Y109446D01*
X118327Y109449D01*
X118172Y109576D01*
X118022Y109698D01*
X118018Y109700D01*
X118015Y109703D01*
X117837Y109796D01*
X117667Y109887D01*
X117662Y109888D01*
X117658Y109890D01*
X117468Y109946D01*
X117281Y110001D01*
X117276Y110002D01*
X117272Y110003D01*
X117079Y110020D01*
X116880Y110038D01*
X116875Y110037D01*
X116871Y110038D01*
X116681Y110016D01*
X116479Y109994D01*
X116475Y109993D01*
X116471Y109993D01*
X116285Y109933D01*
X116096Y109873D01*
X116092Y109871D01*
X116087Y109869D01*
X115916Y109774D01*
X115743Y109678D01*
X115740Y109675D01*
X115736Y109673D01*
X115587Y109545D01*
X115436Y109418D01*
X115433Y109414D01*
X115430Y109411D01*
X115310Y109257D01*
X115187Y109102D01*
X115185Y109098D01*
X115182Y109094D01*
X115096Y108923D01*
X115004Y108743D01*
X115003Y108738D01*
X115001Y108734D01*
X114950Y108549D01*
X114896Y108355D01*
X114896Y108350D01*
X114895Y108346D01*
X114881Y108146D01*
X114867Y107953D01*
X114867Y107949D01*
X114867Y107944D01*
X114893Y107748D01*
X114917Y107554D01*
X114919Y107550D01*
X114919Y107545D01*
X115021Y107229D01*
X115825Y105288D01*
X115825Y97912D01*
X113002Y91096D01*
X112242Y90336D01*
X112230Y90323D01*
X112217Y90311D01*
X112103Y90167D01*
X111987Y90025D01*
X111978Y90009D01*
X111967Y89995D01*
X111884Y89831D01*
X111798Y89669D01*
X111793Y89652D01*
X111785Y89636D01*
X111736Y89459D01*
X111683Y89283D01*
X111682Y89265D01*
X111677Y89248D01*
X111663Y89065D01*
X111647Y88882D01*
X111649Y88864D01*
X111647Y88847D01*
X111670Y88665D01*
X111690Y88482D01*
X111696Y88465D01*
X111698Y88447D01*
X111756Y88274D01*
X111812Y88098D01*
X111820Y88082D01*
X111826Y88066D01*
X111918Y87907D01*
X112007Y87746D01*
X112018Y87732D01*
X112027Y87717D01*
X112242Y87464D01*
X113002Y86704D01*
X115825Y79888D01*
X115825Y72512D01*
X113002Y65696D01*
X107786Y60480D01*
X107064Y60181D01*
X107015Y60155D01*
X106963Y60136D01*
X106838Y60060D01*
X106709Y59991D01*
X106666Y59956D01*
X106619Y59927D01*
X106512Y59828D01*
X106399Y59735D01*
X106364Y59692D01*
X106323Y59654D01*
X106237Y59536D01*
X106145Y59422D01*
X106119Y59373D01*
X106087Y59328D01*
X106026Y59195D01*
X105958Y59066D01*
X105942Y59012D01*
X105919Y58962D01*
X105886Y58820D01*
X105845Y58679D01*
X105840Y58624D01*
X105828Y58570D01*
X105823Y58424D01*
X105810Y58278D01*
X105817Y58223D01*
X105815Y58167D01*
X105839Y58023D01*
X105856Y57878D01*
X105873Y57825D01*
X105882Y57770D01*
X105934Y57634D01*
X105979Y57495D01*
X106006Y57446D01*
X106026Y57394D01*
X106137Y57211D01*
X106175Y57143D01*
X106187Y57130D01*
X106198Y57111D01*
X106624Y56525D01*
X107404Y54993D01*
X107936Y53358D01*
X108019Y52831D01*
X88900Y52831D01*
X88900Y52831D01*
G37*
%LPD*%
%LPC*%
G36*
X436819Y19557D02*
X436819Y19557D01*
X425957Y30419D01*
X425957Y45781D01*
X434928Y54752D01*
X434940Y54766D01*
X434953Y54777D01*
X435067Y54921D01*
X435184Y55063D01*
X435192Y55079D01*
X435203Y55093D01*
X435286Y55257D01*
X435372Y55419D01*
X435377Y55436D01*
X435385Y55452D01*
X435435Y55629D01*
X435487Y55805D01*
X435489Y55823D01*
X435493Y55840D01*
X435507Y56023D01*
X435523Y56206D01*
X435521Y56224D01*
X435523Y56241D01*
X435500Y56423D01*
X435480Y56606D01*
X435475Y56623D01*
X435472Y56641D01*
X435414Y56814D01*
X435358Y56990D01*
X435350Y57006D01*
X435344Y57023D01*
X435252Y57182D01*
X435164Y57342D01*
X435152Y57356D01*
X435143Y57371D01*
X434928Y57624D01*
X433577Y58976D01*
X433577Y61469D01*
X444500Y61469D01*
X455423Y61469D01*
X455423Y58976D01*
X454072Y57624D01*
X454060Y57611D01*
X454047Y57599D01*
X453933Y57455D01*
X453816Y57313D01*
X453808Y57297D01*
X453797Y57283D01*
X453713Y57119D01*
X453628Y56957D01*
X453623Y56940D01*
X453615Y56924D01*
X453565Y56747D01*
X453513Y56571D01*
X453511Y56554D01*
X453507Y56536D01*
X453493Y56353D01*
X453477Y56170D01*
X453479Y56153D01*
X453477Y56135D01*
X453500Y55953D01*
X453520Y55770D01*
X453525Y55753D01*
X453528Y55735D01*
X453586Y55562D01*
X453642Y55386D01*
X453650Y55371D01*
X453656Y55354D01*
X453748Y55194D01*
X453836Y55034D01*
X453848Y55020D01*
X453857Y55005D01*
X454072Y54752D01*
X463043Y45781D01*
X463043Y30419D01*
X452181Y19557D01*
X436819Y19557D01*
G37*
%LPD*%
%LPC*%
G36*
X436819Y171957D02*
X436819Y171957D01*
X425957Y182819D01*
X425957Y198181D01*
X434928Y207152D01*
X434940Y207166D01*
X434953Y207177D01*
X435067Y207321D01*
X435184Y207463D01*
X435192Y207479D01*
X435203Y207493D01*
X435286Y207657D01*
X435372Y207819D01*
X435377Y207836D01*
X435385Y207852D01*
X435435Y208029D01*
X435487Y208205D01*
X435489Y208223D01*
X435493Y208240D01*
X435507Y208423D01*
X435523Y208606D01*
X435521Y208624D01*
X435523Y208641D01*
X435500Y208823D01*
X435480Y209006D01*
X435475Y209023D01*
X435472Y209041D01*
X435414Y209214D01*
X435358Y209390D01*
X435350Y209406D01*
X435344Y209423D01*
X435252Y209582D01*
X435164Y209742D01*
X435152Y209756D01*
X435143Y209771D01*
X434928Y210024D01*
X433577Y211376D01*
X433577Y213869D01*
X444500Y213869D01*
X455423Y213869D01*
X455423Y211376D01*
X454072Y210024D01*
X454060Y210011D01*
X454047Y209999D01*
X453933Y209855D01*
X453816Y209713D01*
X453808Y209697D01*
X453797Y209683D01*
X453713Y209519D01*
X453628Y209357D01*
X453623Y209340D01*
X453615Y209324D01*
X453565Y209146D01*
X453513Y208971D01*
X453511Y208954D01*
X453507Y208936D01*
X453493Y208753D01*
X453477Y208570D01*
X453479Y208553D01*
X453477Y208535D01*
X453500Y208353D01*
X453520Y208170D01*
X453525Y208153D01*
X453528Y208135D01*
X453586Y207962D01*
X453642Y207786D01*
X453650Y207771D01*
X453656Y207754D01*
X453748Y207594D01*
X453836Y207434D01*
X453848Y207420D01*
X453857Y207405D01*
X454072Y207152D01*
X463043Y198181D01*
X463043Y182819D01*
X452181Y171957D01*
X436819Y171957D01*
G37*
%LPD*%
%LPC*%
G36*
X90931Y39877D02*
X90931Y39877D01*
X90931Y48769D01*
X108019Y48769D01*
X107936Y48242D01*
X107404Y46607D01*
X106624Y45075D01*
X105613Y43684D01*
X104398Y42469D01*
X103007Y41458D01*
X101475Y40678D01*
X99840Y40146D01*
X98142Y39877D01*
X90931Y39877D01*
G37*
%LPD*%
%LPC*%
G36*
X79658Y39877D02*
X79658Y39877D01*
X77960Y40146D01*
X76325Y40678D01*
X74793Y41458D01*
X73402Y42469D01*
X72187Y43684D01*
X71176Y45075D01*
X70396Y46607D01*
X69864Y48242D01*
X69781Y48769D01*
X86869Y48769D01*
X86869Y39877D01*
X79658Y39877D01*
G37*
%LPD*%
%LPC*%
G36*
X446531Y217931D02*
X446531Y217931D01*
X446531Y226823D01*
X449024Y226823D01*
X455423Y220424D01*
X455423Y217931D01*
X446531Y217931D01*
G37*
%LPD*%
%LPC*%
G36*
X446531Y141731D02*
X446531Y141731D01*
X446531Y150623D01*
X449024Y150623D01*
X455423Y144224D01*
X455423Y141731D01*
X446531Y141731D01*
G37*
%LPD*%
%LPC*%
G36*
X446531Y65531D02*
X446531Y65531D01*
X446531Y74423D01*
X449024Y74423D01*
X455423Y68024D01*
X455423Y65531D01*
X446531Y65531D01*
G37*
%LPD*%
%LPC*%
G36*
X433577Y217931D02*
X433577Y217931D01*
X433577Y220424D01*
X439976Y226823D01*
X442469Y226823D01*
X442469Y217931D01*
X433577Y217931D01*
G37*
%LPD*%
%LPC*%
G36*
X433577Y141731D02*
X433577Y141731D01*
X433577Y144224D01*
X439976Y150623D01*
X442469Y150623D01*
X442469Y141731D01*
X433577Y141731D01*
G37*
%LPD*%
%LPC*%
G36*
X433577Y65531D02*
X433577Y65531D01*
X433577Y68024D01*
X439976Y74423D01*
X442469Y74423D01*
X442469Y65531D01*
X433577Y65531D01*
G37*
%LPD*%
D10*
X97282Y228600D02*
X80518Y228600D01*
X80518Y203200D02*
X97282Y203200D01*
X97282Y177800D02*
X80518Y177800D01*
X80518Y152400D02*
X97282Y152400D01*
X97282Y127000D02*
X80518Y127000D01*
X80518Y101600D02*
X97282Y101600D01*
X97282Y76200D02*
X80518Y76200D01*
X80518Y50800D02*
X97282Y50800D01*
D11*
X127000Y203200D03*
X228600Y203200D03*
D12*
X292100Y190500D03*
X292100Y215900D03*
X292100Y114300D03*
X292100Y139700D03*
X292100Y38100D03*
X292100Y63500D03*
X368300Y114300D03*
X368300Y139700D03*
X444500Y190500D03*
X444500Y215900D03*
X444500Y114300D03*
X444500Y139700D03*
X444500Y38100D03*
X444500Y63500D03*
D11*
X127000Y177800D03*
X228600Y177800D03*
X127000Y152400D03*
X228600Y152400D03*
X127000Y127000D03*
X228600Y127000D03*
D13*
X444500Y63500D02*
X469900Y88900D01*
X469900Y139700D01*
X444500Y139700D01*
X368300Y139700D01*
X444500Y215900D02*
X457200Y215900D01*
X469900Y203200D01*
X469900Y139700D01*
X177800Y50800D02*
X88900Y50800D01*
X177800Y50800D02*
X215900Y12700D01*
X368300Y12700D01*
X419100Y63500D01*
X444500Y63500D01*
X127000Y203200D02*
X88900Y203200D01*
X317500Y114300D02*
X368300Y114300D01*
X317500Y114300D02*
X304800Y101600D01*
X228600Y101600D01*
X215900Y114300D01*
X215900Y203200D02*
X228600Y203200D01*
X215900Y203200D02*
X203200Y190500D01*
X203200Y177800D01*
X215900Y165100D01*
X241300Y165100D01*
X254000Y152400D01*
X241300Y139700D01*
X215900Y139700D01*
X215900Y114300D01*
X228600Y177800D02*
X279400Y177800D01*
X292100Y190500D01*
X228600Y152400D02*
X215900Y152400D01*
X203200Y139700D01*
X203200Y50800D01*
X215900Y38100D01*
X292100Y38100D01*
X241300Y114300D02*
X228600Y127000D01*
X241300Y114300D02*
X292100Y114300D01*
X431800Y114300D02*
X444500Y114300D01*
X431800Y114300D02*
X419100Y127000D01*
X304800Y127000D01*
X292100Y139700D01*
X127000Y177800D02*
X88900Y177800D01*
X88900Y152400D02*
X127000Y152400D01*
X127000Y127000D02*
X88900Y127000D01*
M02*
