M48
;GenerationSoftware,Autodesk,EAGLE,9.0.0*%
;CreationDate,2019-08-08T19:07:24Z*%
FMAT,2
ICI,OFF
METRIC,TZ,000.000
T1C0.813
%
G90
M71
T1
X8890Y22860
X8890Y20320
X8890Y17780
X8890Y15240
X8890Y12700
X8890Y10160
X8890Y7620
X8890Y5080
X12700Y20320
X22860Y20320
X29210Y19050
X29210Y21590
X29210Y11430
X29210Y13970
X29210Y3810
X29210Y6350
X36830Y11430
X36830Y13970
X44450Y19050
X44450Y21590
X44450Y11430
X44450Y13970
X44450Y3810
X44450Y6350
X12700Y17780
X22860Y17780
X12700Y15240
X22860Y15240
X12700Y12700
X22860Y12700
M30