G04 EAGLE Gerber X2 export*
G04 #@! %TF.Part,Single*
G04 #@! %TF.FileFunction,Legend,Top,1*
G04 #@! %TF.FilePolarity,Positive*
G04 #@! %TF.GenerationSoftware,Autodesk,EAGLE,9.0.0*
G04 #@! %TF.CreationDate,2019-08-08T19:07:24Z*
G75*
%MOMM*%
%FSLAX34Y34*%
%LPD*%
%AMOC8*
5,1,8,0,0,1.08239X$1,22.5*%
G01*
%ADD10C,0.152400*%
%ADD11C,0.050800*%
%ADD12C,0.127000*%
%ADD13R,0.863600X0.609600*%
%ADD14C,0.203200*%
%ADD15C,0.254000*%


D10*
X78740Y38100D02*
X73660Y38100D01*
X0Y38100D01*
X0Y59690D01*
X0Y63500D01*
X0Y67310D01*
X0Y85090D01*
X0Y88900D01*
X0Y92710D01*
X0Y110490D01*
X0Y114300D01*
X0Y118110D01*
X0Y135890D01*
X0Y139700D01*
X0Y143510D01*
X0Y161290D01*
X0Y165100D02*
X73660Y165100D01*
X73660Y59690D02*
X73660Y38100D01*
X73660Y59690D02*
X73660Y63500D01*
X73660Y67310D01*
X73660Y85090D01*
X73660Y88900D01*
X73660Y92710D01*
X73660Y110490D01*
X73660Y114300D01*
X73660Y118110D01*
X73660Y135890D01*
X73660Y139700D01*
X73660Y143510D01*
X73660Y161290D01*
X73660Y165100D01*
X73660Y139700D02*
X0Y139700D01*
X0Y114300D02*
X73660Y114300D01*
X73660Y88900D02*
X0Y88900D01*
X0Y63500D02*
X73660Y63500D01*
D11*
X73660Y59690D02*
X0Y59690D01*
X0Y67310D02*
X73660Y67310D01*
X73660Y85090D02*
X0Y85090D01*
X0Y92710D02*
X73660Y92710D01*
X73660Y110490D02*
X0Y110490D01*
X0Y118110D02*
X73660Y118110D01*
X73660Y135890D02*
X0Y135890D01*
X0Y143510D02*
X73660Y143510D01*
D10*
X73660Y161290D02*
X0Y161290D01*
X0Y165100D01*
X0Y168910D01*
D11*
X73660Y168910D01*
D10*
X78740Y241300D02*
X78740Y38100D01*
X0Y168910D02*
X0Y186690D01*
X0Y190500D02*
X73660Y190500D01*
X73660Y168910D02*
X73660Y165100D01*
X73660Y168910D02*
X73660Y186690D01*
X73660Y190500D01*
D11*
X73660Y186690D02*
X0Y186690D01*
D10*
X0Y190500D01*
X0Y194310D01*
X0Y212090D01*
X0Y215900D01*
X73660Y215900D01*
D11*
X73660Y194310D02*
X0Y194310D01*
D10*
X73660Y194310D02*
X73660Y190500D01*
X73660Y194310D02*
X73660Y212090D01*
X73660Y215900D01*
X0Y215900D02*
X0Y219710D01*
X0Y241300D01*
X73660Y241300D01*
X78740Y241300D01*
X73660Y219710D02*
X73660Y215900D01*
X73660Y219710D02*
X73660Y241300D01*
D11*
X73660Y219710D02*
X0Y219710D01*
X0Y212090D02*
X73660Y212090D01*
D12*
X59062Y197485D02*
X51435Y197485D01*
X59062Y205112D01*
X59062Y207018D01*
X57155Y208925D01*
X53342Y208925D01*
X51435Y207018D01*
X53342Y56525D02*
X51435Y54618D01*
X53342Y56525D02*
X57155Y56525D01*
X59062Y54618D01*
X59062Y52712D01*
X57155Y50805D01*
X59062Y48898D01*
X59062Y46992D01*
X57155Y45085D01*
X53342Y45085D01*
X51435Y46992D01*
X51435Y48898D01*
X53342Y50805D01*
X51435Y52712D01*
X51435Y54618D01*
X53342Y50805D02*
X57155Y50805D01*
X51435Y181618D02*
X53342Y183525D01*
X57155Y183525D01*
X59062Y181618D01*
X59062Y179712D01*
X57155Y177805D01*
X55248Y177805D01*
X57155Y177805D02*
X59062Y175898D01*
X59062Y173992D01*
X57155Y172085D01*
X53342Y172085D01*
X51435Y173992D01*
X57155Y158125D02*
X57155Y146685D01*
X51435Y152405D02*
X57155Y158125D01*
X59062Y152405D02*
X51435Y152405D01*
X51435Y132725D02*
X59062Y132725D01*
X51435Y132725D02*
X51435Y127005D01*
X55248Y128912D01*
X57155Y128912D01*
X59062Y127005D01*
X59062Y123192D01*
X57155Y121285D01*
X53342Y121285D01*
X51435Y123192D01*
X59062Y107325D02*
X55248Y105418D01*
X51435Y101605D01*
X51435Y97792D01*
X53342Y95885D01*
X57155Y95885D01*
X59062Y97792D01*
X59062Y99698D01*
X57155Y101605D01*
X51435Y101605D01*
X51435Y81925D02*
X59062Y81925D01*
X59062Y80018D01*
X51435Y72392D01*
X51435Y70485D01*
X51435Y230512D02*
X55248Y234325D01*
X55248Y222885D01*
X51435Y222885D02*
X59062Y222885D01*
D10*
X146050Y212090D02*
X146052Y212190D01*
X146058Y212289D01*
X146068Y212389D01*
X146081Y212487D01*
X146099Y212586D01*
X146120Y212683D01*
X146145Y212779D01*
X146174Y212875D01*
X146207Y212969D01*
X146243Y213062D01*
X146283Y213153D01*
X146327Y213243D01*
X146374Y213331D01*
X146424Y213417D01*
X146478Y213501D01*
X146535Y213583D01*
X146595Y213662D01*
X146659Y213740D01*
X146725Y213814D01*
X146794Y213886D01*
X146866Y213955D01*
X146940Y214021D01*
X147018Y214085D01*
X147097Y214145D01*
X147179Y214202D01*
X147263Y214256D01*
X147349Y214306D01*
X147437Y214353D01*
X147527Y214397D01*
X147618Y214437D01*
X147711Y214473D01*
X147805Y214506D01*
X147901Y214535D01*
X147997Y214560D01*
X148094Y214581D01*
X148193Y214599D01*
X148291Y214612D01*
X148391Y214622D01*
X148490Y214628D01*
X148590Y214630D01*
X146050Y194310D02*
X146052Y194210D01*
X146058Y194111D01*
X146068Y194011D01*
X146081Y193913D01*
X146099Y193814D01*
X146120Y193717D01*
X146145Y193621D01*
X146174Y193525D01*
X146207Y193431D01*
X146243Y193338D01*
X146283Y193247D01*
X146327Y193157D01*
X146374Y193069D01*
X146424Y192983D01*
X146478Y192899D01*
X146535Y192817D01*
X146595Y192738D01*
X146659Y192660D01*
X146725Y192586D01*
X146794Y192514D01*
X146866Y192445D01*
X146940Y192379D01*
X147018Y192315D01*
X147097Y192255D01*
X147179Y192198D01*
X147263Y192144D01*
X147349Y192094D01*
X147437Y192047D01*
X147527Y192003D01*
X147618Y191963D01*
X147711Y191927D01*
X147805Y191894D01*
X147901Y191865D01*
X147997Y191840D01*
X148094Y191819D01*
X148193Y191801D01*
X148291Y191788D01*
X148391Y191778D01*
X148490Y191772D01*
X148590Y191770D01*
X207010Y191770D02*
X207110Y191772D01*
X207209Y191778D01*
X207309Y191788D01*
X207407Y191801D01*
X207506Y191819D01*
X207603Y191840D01*
X207699Y191865D01*
X207795Y191894D01*
X207889Y191927D01*
X207982Y191963D01*
X208073Y192003D01*
X208163Y192047D01*
X208251Y192094D01*
X208337Y192144D01*
X208421Y192198D01*
X208503Y192255D01*
X208582Y192315D01*
X208660Y192379D01*
X208734Y192445D01*
X208806Y192514D01*
X208875Y192586D01*
X208941Y192660D01*
X209005Y192738D01*
X209065Y192817D01*
X209122Y192899D01*
X209176Y192983D01*
X209226Y193069D01*
X209273Y193157D01*
X209317Y193247D01*
X209357Y193338D01*
X209393Y193431D01*
X209426Y193525D01*
X209455Y193621D01*
X209480Y193717D01*
X209501Y193814D01*
X209519Y193913D01*
X209532Y194011D01*
X209542Y194111D01*
X209548Y194210D01*
X209550Y194310D01*
X209550Y212090D02*
X209548Y212190D01*
X209542Y212289D01*
X209532Y212389D01*
X209519Y212487D01*
X209501Y212586D01*
X209480Y212683D01*
X209455Y212779D01*
X209426Y212875D01*
X209393Y212969D01*
X209357Y213062D01*
X209317Y213153D01*
X209273Y213243D01*
X209226Y213331D01*
X209176Y213417D01*
X209122Y213501D01*
X209065Y213583D01*
X209005Y213662D01*
X208941Y213740D01*
X208875Y213814D01*
X208806Y213886D01*
X208734Y213955D01*
X208660Y214021D01*
X208582Y214085D01*
X208503Y214145D01*
X208421Y214202D01*
X208337Y214256D01*
X208251Y214306D01*
X208163Y214353D01*
X208073Y214397D01*
X207982Y214437D01*
X207889Y214473D01*
X207795Y214506D01*
X207699Y214535D01*
X207603Y214560D01*
X207506Y214581D01*
X207407Y214599D01*
X207309Y214612D01*
X207209Y214622D01*
X207110Y214628D01*
X207010Y214630D01*
X146050Y212090D02*
X146050Y194310D01*
X148590Y214630D02*
X152400Y214630D01*
X153670Y213360D01*
X152400Y191770D02*
X148590Y191770D01*
X152400Y191770D02*
X153670Y193040D01*
X201930Y213360D02*
X203200Y214630D01*
X201930Y213360D02*
X153670Y213360D01*
X201930Y193040D02*
X203200Y191770D01*
X201930Y193040D02*
X153670Y193040D01*
X203200Y214630D02*
X207010Y214630D01*
X207010Y191770D02*
X203200Y191770D01*
X209550Y194310D02*
X209550Y212090D01*
D12*
X157736Y208925D02*
X155829Y207018D01*
X157736Y208925D02*
X161549Y208925D01*
X163456Y207018D01*
X163456Y205112D01*
X161549Y203205D01*
X159642Y203205D01*
X161549Y203205D02*
X163456Y201298D01*
X163456Y199392D01*
X161549Y197485D01*
X157736Y197485D01*
X155829Y199392D01*
X167523Y207018D02*
X169430Y208925D01*
X173243Y208925D01*
X175149Y207018D01*
X175149Y205112D01*
X173243Y203205D01*
X171336Y203205D01*
X173243Y203205D02*
X175149Y201298D01*
X175149Y199392D01*
X173243Y197485D01*
X169430Y197485D01*
X167523Y199392D01*
X179217Y199392D02*
X179217Y207018D01*
X181124Y208925D01*
X184937Y208925D01*
X186843Y207018D01*
X186843Y199392D01*
X184937Y197485D01*
X181124Y197485D01*
X179217Y199392D01*
X186843Y207018D01*
D13*
X213868Y203200D03*
X141732Y203200D03*
D14*
X273050Y228600D02*
X311150Y228600D01*
D15*
X311766Y228126D01*
X312371Y227637D01*
X312963Y227133D01*
X313543Y226615D01*
X314110Y226083D01*
X314664Y225537D01*
X315204Y224978D01*
X315730Y224405D01*
X316243Y223820D01*
X316740Y223223D01*
X317223Y222614D01*
X317691Y221993D01*
X318144Y221360D01*
X318581Y220717D01*
X319002Y220063D01*
X319406Y219399D01*
X319795Y218726D01*
X320167Y218043D01*
X320522Y217351D01*
X320860Y216651D01*
X321181Y215943D01*
X321484Y215227D01*
X321770Y214503D01*
X322038Y213774D01*
X322288Y213037D01*
X322519Y212295D01*
X322733Y211547D01*
X322928Y210795D01*
X323105Y210037D01*
X323263Y209276D01*
X323403Y208511D01*
X323523Y207743D01*
X323625Y206972D01*
X323708Y206199D01*
X323772Y205424D01*
X323817Y204648D01*
X323843Y203871D01*
X323850Y203093D01*
X323838Y202316D01*
X323807Y201539D01*
X323756Y200763D01*
X323687Y199988D01*
X323599Y199216D01*
X323492Y198446D01*
X323366Y197678D01*
X323222Y196914D01*
X323058Y196154D01*
X322876Y195398D01*
X322676Y194647D01*
X322458Y193900D01*
X322221Y193160D01*
X321966Y192425D01*
X321693Y191697D01*
X321402Y190976D01*
X321094Y190262D01*
X320769Y189556D01*
X320426Y188858D01*
X320066Y188168D01*
X319690Y187488D01*
X319297Y186817D01*
X318887Y186156D01*
X318462Y185505D01*
X318021Y184865D01*
X317564Y184236D01*
X317092Y183618D01*
X316605Y183012D01*
X316103Y182418D01*
X315587Y181836D01*
X315057Y181267D01*
X314513Y180712D01*
X313955Y180169D01*
X313385Y179641D01*
X312802Y179127D01*
X312206Y178627D01*
X311598Y178142D01*
X310979Y177672D01*
X310348Y177218D01*
X309706Y176779D01*
X309054Y176355D01*
X308391Y175948D01*
X307719Y175557D01*
X307037Y175183D01*
X306347Y174826D01*
X305648Y174486D01*
X304940Y174162D01*
X304226Y173857D01*
X303503Y173568D01*
X302774Y173298D01*
X302039Y173046D01*
X301297Y172811D01*
X300550Y172595D01*
X299798Y172397D01*
X299042Y172218D01*
X298281Y172057D01*
X297517Y171915D01*
X296749Y171792D01*
X295978Y171688D01*
X295205Y171602D01*
X294431Y171536D01*
X293655Y171488D01*
X292878Y171460D01*
X292100Y171450D01*
X291322Y171460D01*
X290545Y171488D01*
X289769Y171536D01*
X288995Y171602D01*
X288222Y171688D01*
X287451Y171792D01*
X286683Y171915D01*
X285919Y172057D01*
X285158Y172218D01*
X284402Y172397D01*
X283650Y172595D01*
X282903Y172811D01*
X282161Y173046D01*
X281426Y173298D01*
X280697Y173568D01*
X279974Y173857D01*
X279260Y174162D01*
X278552Y174486D01*
X277853Y174826D01*
X277163Y175183D01*
X276481Y175557D01*
X275809Y175948D01*
X275146Y176355D01*
X274494Y176779D01*
X273852Y177218D01*
X273221Y177672D01*
X272602Y178142D01*
X271994Y178627D01*
X271398Y179127D01*
X270815Y179641D01*
X270245Y180169D01*
X269687Y180712D01*
X269143Y181267D01*
X268613Y181836D01*
X268097Y182418D01*
X267595Y183012D01*
X267108Y183618D01*
X266636Y184236D01*
X266179Y184865D01*
X265738Y185505D01*
X265313Y186156D01*
X264903Y186817D01*
X264510Y187488D01*
X264134Y188168D01*
X263774Y188858D01*
X263431Y189556D01*
X263106Y190262D01*
X262798Y190976D01*
X262507Y191697D01*
X262234Y192425D01*
X261979Y193160D01*
X261742Y193900D01*
X261524Y194647D01*
X261324Y195398D01*
X261142Y196154D01*
X260978Y196914D01*
X260834Y197678D01*
X260708Y198446D01*
X260601Y199216D01*
X260513Y199988D01*
X260444Y200763D01*
X260393Y201539D01*
X260362Y202316D01*
X260350Y203093D01*
X260357Y203871D01*
X260383Y204648D01*
X260428Y205424D01*
X260492Y206199D01*
X260575Y206972D01*
X260677Y207743D01*
X260797Y208511D01*
X260937Y209276D01*
X261095Y210037D01*
X261272Y210795D01*
X261467Y211547D01*
X261681Y212295D01*
X261912Y213037D01*
X262162Y213774D01*
X262430Y214503D01*
X262716Y215227D01*
X263019Y215943D01*
X263340Y216651D01*
X263678Y217351D01*
X264033Y218043D01*
X264405Y218726D01*
X264794Y219399D01*
X265198Y220063D01*
X265619Y220717D01*
X266056Y221360D01*
X266509Y221993D01*
X266977Y222614D01*
X267460Y223223D01*
X267957Y223820D01*
X268470Y224405D01*
X268996Y224978D01*
X269536Y225537D01*
X270090Y226083D01*
X270657Y226615D01*
X271237Y227133D01*
X271829Y227637D01*
X272434Y228126D01*
X273050Y228600D01*
D10*
X266700Y203200D02*
X266708Y203823D01*
X266731Y204446D01*
X266769Y205069D01*
X266822Y205690D01*
X266891Y206309D01*
X266975Y206927D01*
X267074Y207542D01*
X267188Y208155D01*
X267317Y208765D01*
X267461Y209372D01*
X267620Y209975D01*
X267794Y210573D01*
X267982Y211168D01*
X268185Y211757D01*
X268402Y212341D01*
X268633Y212920D01*
X268879Y213493D01*
X269139Y214060D01*
X269412Y214620D01*
X269699Y215173D01*
X270000Y215720D01*
X270314Y216258D01*
X270641Y216789D01*
X270981Y217311D01*
X271333Y217826D01*
X271699Y218331D01*
X272076Y218827D01*
X272466Y219314D01*
X272867Y219791D01*
X273280Y220258D01*
X273704Y220714D01*
X274139Y221161D01*
X274586Y221596D01*
X275042Y222020D01*
X275509Y222433D01*
X275986Y222834D01*
X276473Y223224D01*
X276969Y223601D01*
X277474Y223967D01*
X277989Y224319D01*
X278511Y224659D01*
X279042Y224986D01*
X279580Y225300D01*
X280127Y225601D01*
X280680Y225888D01*
X281240Y226161D01*
X281807Y226421D01*
X282380Y226667D01*
X282959Y226898D01*
X283543Y227115D01*
X284132Y227318D01*
X284727Y227506D01*
X285325Y227680D01*
X285928Y227839D01*
X286535Y227983D01*
X287145Y228112D01*
X287758Y228226D01*
X288373Y228325D01*
X288991Y228409D01*
X289610Y228478D01*
X290231Y228531D01*
X290854Y228569D01*
X291477Y228592D01*
X292100Y228600D01*
X292723Y228592D01*
X293346Y228569D01*
X293969Y228531D01*
X294590Y228478D01*
X295209Y228409D01*
X295827Y228325D01*
X296442Y228226D01*
X297055Y228112D01*
X297665Y227983D01*
X298272Y227839D01*
X298875Y227680D01*
X299473Y227506D01*
X300068Y227318D01*
X300657Y227115D01*
X301241Y226898D01*
X301820Y226667D01*
X302393Y226421D01*
X302960Y226161D01*
X303520Y225888D01*
X304073Y225601D01*
X304620Y225300D01*
X305158Y224986D01*
X305689Y224659D01*
X306211Y224319D01*
X306726Y223967D01*
X307231Y223601D01*
X307727Y223224D01*
X308214Y222834D01*
X308691Y222433D01*
X309158Y222020D01*
X309614Y221596D01*
X310061Y221161D01*
X310496Y220714D01*
X310920Y220258D01*
X311333Y219791D01*
X311734Y219314D01*
X312124Y218827D01*
X312501Y218331D01*
X312867Y217826D01*
X313219Y217311D01*
X313559Y216789D01*
X313886Y216258D01*
X314200Y215720D01*
X314501Y215173D01*
X314788Y214620D01*
X315061Y214060D01*
X315321Y213493D01*
X315567Y212920D01*
X315798Y212341D01*
X316015Y211757D01*
X316218Y211168D01*
X316406Y210573D01*
X316580Y209975D01*
X316739Y209372D01*
X316883Y208765D01*
X317012Y208155D01*
X317126Y207542D01*
X317225Y206927D01*
X317309Y206309D01*
X317378Y205690D01*
X317431Y205069D01*
X317469Y204446D01*
X317492Y203823D01*
X317500Y203200D01*
X317492Y202577D01*
X317469Y201954D01*
X317431Y201331D01*
X317378Y200710D01*
X317309Y200091D01*
X317225Y199473D01*
X317126Y198858D01*
X317012Y198245D01*
X316883Y197635D01*
X316739Y197028D01*
X316580Y196425D01*
X316406Y195827D01*
X316218Y195232D01*
X316015Y194643D01*
X315798Y194059D01*
X315567Y193480D01*
X315321Y192907D01*
X315061Y192340D01*
X314788Y191780D01*
X314501Y191227D01*
X314200Y190680D01*
X313886Y190142D01*
X313559Y189611D01*
X313219Y189089D01*
X312867Y188574D01*
X312501Y188069D01*
X312124Y187573D01*
X311734Y187086D01*
X311333Y186609D01*
X310920Y186142D01*
X310496Y185686D01*
X310061Y185239D01*
X309614Y184804D01*
X309158Y184380D01*
X308691Y183967D01*
X308214Y183566D01*
X307727Y183176D01*
X307231Y182799D01*
X306726Y182433D01*
X306211Y182081D01*
X305689Y181741D01*
X305158Y181414D01*
X304620Y181100D01*
X304073Y180799D01*
X303520Y180512D01*
X302960Y180239D01*
X302393Y179979D01*
X301820Y179733D01*
X301241Y179502D01*
X300657Y179285D01*
X300068Y179082D01*
X299473Y178894D01*
X298875Y178720D01*
X298272Y178561D01*
X297665Y178417D01*
X297055Y178288D01*
X296442Y178174D01*
X295827Y178075D01*
X295209Y177991D01*
X294590Y177922D01*
X293969Y177869D01*
X293346Y177831D01*
X292723Y177808D01*
X292100Y177800D01*
X291477Y177808D01*
X290854Y177831D01*
X290231Y177869D01*
X289610Y177922D01*
X288991Y177991D01*
X288373Y178075D01*
X287758Y178174D01*
X287145Y178288D01*
X286535Y178417D01*
X285928Y178561D01*
X285325Y178720D01*
X284727Y178894D01*
X284132Y179082D01*
X283543Y179285D01*
X282959Y179502D01*
X282380Y179733D01*
X281807Y179979D01*
X281240Y180239D01*
X280680Y180512D01*
X280127Y180799D01*
X279580Y181100D01*
X279042Y181414D01*
X278511Y181741D01*
X277989Y182081D01*
X277474Y182433D01*
X276969Y182799D01*
X276473Y183176D01*
X275986Y183566D01*
X275509Y183967D01*
X275042Y184380D01*
X274586Y184804D01*
X274139Y185239D01*
X273704Y185686D01*
X273280Y186142D01*
X272867Y186609D01*
X272466Y187086D01*
X272076Y187573D01*
X271699Y188069D01*
X271333Y188574D01*
X270981Y189089D01*
X270641Y189611D01*
X270314Y190142D01*
X270000Y190680D01*
X269699Y191227D01*
X269412Y191780D01*
X269139Y192340D01*
X268879Y192907D01*
X268633Y193480D01*
X268402Y194059D01*
X268185Y194643D01*
X267982Y195232D01*
X267794Y195827D01*
X267620Y196425D01*
X267461Y197028D01*
X267317Y197635D01*
X267188Y198245D01*
X267074Y198858D01*
X266975Y199473D01*
X266891Y200091D01*
X266822Y200710D01*
X266769Y201331D01*
X266731Y201954D01*
X266708Y202577D01*
X266700Y203200D01*
D14*
X273050Y152400D02*
X311150Y152400D01*
D15*
X311766Y151926D01*
X312371Y151437D01*
X312963Y150933D01*
X313543Y150415D01*
X314110Y149883D01*
X314664Y149337D01*
X315204Y148778D01*
X315730Y148205D01*
X316243Y147620D01*
X316740Y147023D01*
X317223Y146414D01*
X317691Y145793D01*
X318144Y145160D01*
X318581Y144517D01*
X319002Y143863D01*
X319406Y143199D01*
X319795Y142526D01*
X320167Y141843D01*
X320522Y141151D01*
X320860Y140451D01*
X321181Y139743D01*
X321484Y139027D01*
X321770Y138303D01*
X322038Y137574D01*
X322288Y136837D01*
X322519Y136095D01*
X322733Y135347D01*
X322928Y134595D01*
X323105Y133837D01*
X323263Y133076D01*
X323403Y132311D01*
X323523Y131543D01*
X323625Y130772D01*
X323708Y129999D01*
X323772Y129224D01*
X323817Y128448D01*
X323843Y127671D01*
X323850Y126893D01*
X323838Y126116D01*
X323807Y125339D01*
X323756Y124563D01*
X323687Y123788D01*
X323599Y123016D01*
X323492Y122246D01*
X323366Y121478D01*
X323222Y120714D01*
X323058Y119954D01*
X322876Y119198D01*
X322676Y118447D01*
X322458Y117700D01*
X322221Y116960D01*
X321966Y116225D01*
X321693Y115497D01*
X321402Y114776D01*
X321094Y114062D01*
X320769Y113356D01*
X320426Y112658D01*
X320066Y111968D01*
X319690Y111288D01*
X319297Y110617D01*
X318887Y109956D01*
X318462Y109305D01*
X318021Y108665D01*
X317564Y108036D01*
X317092Y107418D01*
X316605Y106812D01*
X316103Y106218D01*
X315587Y105636D01*
X315057Y105067D01*
X314513Y104512D01*
X313955Y103969D01*
X313385Y103441D01*
X312802Y102927D01*
X312206Y102427D01*
X311598Y101942D01*
X310979Y101472D01*
X310348Y101018D01*
X309706Y100579D01*
X309054Y100155D01*
X308391Y99748D01*
X307719Y99357D01*
X307037Y98983D01*
X306347Y98626D01*
X305648Y98286D01*
X304940Y97962D01*
X304226Y97657D01*
X303503Y97368D01*
X302774Y97098D01*
X302039Y96846D01*
X301297Y96611D01*
X300550Y96395D01*
X299798Y96197D01*
X299042Y96018D01*
X298281Y95857D01*
X297517Y95715D01*
X296749Y95592D01*
X295978Y95488D01*
X295205Y95402D01*
X294431Y95336D01*
X293655Y95288D01*
X292878Y95260D01*
X292100Y95250D01*
X291322Y95260D01*
X290545Y95288D01*
X289769Y95336D01*
X288995Y95402D01*
X288222Y95488D01*
X287451Y95592D01*
X286683Y95715D01*
X285919Y95857D01*
X285158Y96018D01*
X284402Y96197D01*
X283650Y96395D01*
X282903Y96611D01*
X282161Y96846D01*
X281426Y97098D01*
X280697Y97368D01*
X279974Y97657D01*
X279260Y97962D01*
X278552Y98286D01*
X277853Y98626D01*
X277163Y98983D01*
X276481Y99357D01*
X275809Y99748D01*
X275146Y100155D01*
X274494Y100579D01*
X273852Y101018D01*
X273221Y101472D01*
X272602Y101942D01*
X271994Y102427D01*
X271398Y102927D01*
X270815Y103441D01*
X270245Y103969D01*
X269687Y104512D01*
X269143Y105067D01*
X268613Y105636D01*
X268097Y106218D01*
X267595Y106812D01*
X267108Y107418D01*
X266636Y108036D01*
X266179Y108665D01*
X265738Y109305D01*
X265313Y109956D01*
X264903Y110617D01*
X264510Y111288D01*
X264134Y111968D01*
X263774Y112658D01*
X263431Y113356D01*
X263106Y114062D01*
X262798Y114776D01*
X262507Y115497D01*
X262234Y116225D01*
X261979Y116960D01*
X261742Y117700D01*
X261524Y118447D01*
X261324Y119198D01*
X261142Y119954D01*
X260978Y120714D01*
X260834Y121478D01*
X260708Y122246D01*
X260601Y123016D01*
X260513Y123788D01*
X260444Y124563D01*
X260393Y125339D01*
X260362Y126116D01*
X260350Y126893D01*
X260357Y127671D01*
X260383Y128448D01*
X260428Y129224D01*
X260492Y129999D01*
X260575Y130772D01*
X260677Y131543D01*
X260797Y132311D01*
X260937Y133076D01*
X261095Y133837D01*
X261272Y134595D01*
X261467Y135347D01*
X261681Y136095D01*
X261912Y136837D01*
X262162Y137574D01*
X262430Y138303D01*
X262716Y139027D01*
X263019Y139743D01*
X263340Y140451D01*
X263678Y141151D01*
X264033Y141843D01*
X264405Y142526D01*
X264794Y143199D01*
X265198Y143863D01*
X265619Y144517D01*
X266056Y145160D01*
X266509Y145793D01*
X266977Y146414D01*
X267460Y147023D01*
X267957Y147620D01*
X268470Y148205D01*
X268996Y148778D01*
X269536Y149337D01*
X270090Y149883D01*
X270657Y150415D01*
X271237Y150933D01*
X271829Y151437D01*
X272434Y151926D01*
X273050Y152400D01*
D10*
X266700Y127000D02*
X266708Y127623D01*
X266731Y128246D01*
X266769Y128869D01*
X266822Y129490D01*
X266891Y130109D01*
X266975Y130727D01*
X267074Y131342D01*
X267188Y131955D01*
X267317Y132565D01*
X267461Y133172D01*
X267620Y133775D01*
X267794Y134373D01*
X267982Y134968D01*
X268185Y135557D01*
X268402Y136141D01*
X268633Y136720D01*
X268879Y137293D01*
X269139Y137860D01*
X269412Y138420D01*
X269699Y138973D01*
X270000Y139520D01*
X270314Y140058D01*
X270641Y140589D01*
X270981Y141111D01*
X271333Y141626D01*
X271699Y142131D01*
X272076Y142627D01*
X272466Y143114D01*
X272867Y143591D01*
X273280Y144058D01*
X273704Y144514D01*
X274139Y144961D01*
X274586Y145396D01*
X275042Y145820D01*
X275509Y146233D01*
X275986Y146634D01*
X276473Y147024D01*
X276969Y147401D01*
X277474Y147767D01*
X277989Y148119D01*
X278511Y148459D01*
X279042Y148786D01*
X279580Y149100D01*
X280127Y149401D01*
X280680Y149688D01*
X281240Y149961D01*
X281807Y150221D01*
X282380Y150467D01*
X282959Y150698D01*
X283543Y150915D01*
X284132Y151118D01*
X284727Y151306D01*
X285325Y151480D01*
X285928Y151639D01*
X286535Y151783D01*
X287145Y151912D01*
X287758Y152026D01*
X288373Y152125D01*
X288991Y152209D01*
X289610Y152278D01*
X290231Y152331D01*
X290854Y152369D01*
X291477Y152392D01*
X292100Y152400D01*
X292723Y152392D01*
X293346Y152369D01*
X293969Y152331D01*
X294590Y152278D01*
X295209Y152209D01*
X295827Y152125D01*
X296442Y152026D01*
X297055Y151912D01*
X297665Y151783D01*
X298272Y151639D01*
X298875Y151480D01*
X299473Y151306D01*
X300068Y151118D01*
X300657Y150915D01*
X301241Y150698D01*
X301820Y150467D01*
X302393Y150221D01*
X302960Y149961D01*
X303520Y149688D01*
X304073Y149401D01*
X304620Y149100D01*
X305158Y148786D01*
X305689Y148459D01*
X306211Y148119D01*
X306726Y147767D01*
X307231Y147401D01*
X307727Y147024D01*
X308214Y146634D01*
X308691Y146233D01*
X309158Y145820D01*
X309614Y145396D01*
X310061Y144961D01*
X310496Y144514D01*
X310920Y144058D01*
X311333Y143591D01*
X311734Y143114D01*
X312124Y142627D01*
X312501Y142131D01*
X312867Y141626D01*
X313219Y141111D01*
X313559Y140589D01*
X313886Y140058D01*
X314200Y139520D01*
X314501Y138973D01*
X314788Y138420D01*
X315061Y137860D01*
X315321Y137293D01*
X315567Y136720D01*
X315798Y136141D01*
X316015Y135557D01*
X316218Y134968D01*
X316406Y134373D01*
X316580Y133775D01*
X316739Y133172D01*
X316883Y132565D01*
X317012Y131955D01*
X317126Y131342D01*
X317225Y130727D01*
X317309Y130109D01*
X317378Y129490D01*
X317431Y128869D01*
X317469Y128246D01*
X317492Y127623D01*
X317500Y127000D01*
X317492Y126377D01*
X317469Y125754D01*
X317431Y125131D01*
X317378Y124510D01*
X317309Y123891D01*
X317225Y123273D01*
X317126Y122658D01*
X317012Y122045D01*
X316883Y121435D01*
X316739Y120828D01*
X316580Y120225D01*
X316406Y119627D01*
X316218Y119032D01*
X316015Y118443D01*
X315798Y117859D01*
X315567Y117280D01*
X315321Y116707D01*
X315061Y116140D01*
X314788Y115580D01*
X314501Y115027D01*
X314200Y114480D01*
X313886Y113942D01*
X313559Y113411D01*
X313219Y112889D01*
X312867Y112374D01*
X312501Y111869D01*
X312124Y111373D01*
X311734Y110886D01*
X311333Y110409D01*
X310920Y109942D01*
X310496Y109486D01*
X310061Y109039D01*
X309614Y108604D01*
X309158Y108180D01*
X308691Y107767D01*
X308214Y107366D01*
X307727Y106976D01*
X307231Y106599D01*
X306726Y106233D01*
X306211Y105881D01*
X305689Y105541D01*
X305158Y105214D01*
X304620Y104900D01*
X304073Y104599D01*
X303520Y104312D01*
X302960Y104039D01*
X302393Y103779D01*
X301820Y103533D01*
X301241Y103302D01*
X300657Y103085D01*
X300068Y102882D01*
X299473Y102694D01*
X298875Y102520D01*
X298272Y102361D01*
X297665Y102217D01*
X297055Y102088D01*
X296442Y101974D01*
X295827Y101875D01*
X295209Y101791D01*
X294590Y101722D01*
X293969Y101669D01*
X293346Y101631D01*
X292723Y101608D01*
X292100Y101600D01*
X291477Y101608D01*
X290854Y101631D01*
X290231Y101669D01*
X289610Y101722D01*
X288991Y101791D01*
X288373Y101875D01*
X287758Y101974D01*
X287145Y102088D01*
X286535Y102217D01*
X285928Y102361D01*
X285325Y102520D01*
X284727Y102694D01*
X284132Y102882D01*
X283543Y103085D01*
X282959Y103302D01*
X282380Y103533D01*
X281807Y103779D01*
X281240Y104039D01*
X280680Y104312D01*
X280127Y104599D01*
X279580Y104900D01*
X279042Y105214D01*
X278511Y105541D01*
X277989Y105881D01*
X277474Y106233D01*
X276969Y106599D01*
X276473Y106976D01*
X275986Y107366D01*
X275509Y107767D01*
X275042Y108180D01*
X274586Y108604D01*
X274139Y109039D01*
X273704Y109486D01*
X273280Y109942D01*
X272867Y110409D01*
X272466Y110886D01*
X272076Y111373D01*
X271699Y111869D01*
X271333Y112374D01*
X270981Y112889D01*
X270641Y113411D01*
X270314Y113942D01*
X270000Y114480D01*
X269699Y115027D01*
X269412Y115580D01*
X269139Y116140D01*
X268879Y116707D01*
X268633Y117280D01*
X268402Y117859D01*
X268185Y118443D01*
X267982Y119032D01*
X267794Y119627D01*
X267620Y120225D01*
X267461Y120828D01*
X267317Y121435D01*
X267188Y122045D01*
X267074Y122658D01*
X266975Y123273D01*
X266891Y123891D01*
X266822Y124510D01*
X266769Y125131D01*
X266731Y125754D01*
X266708Y126377D01*
X266700Y127000D01*
D14*
X273050Y76200D02*
X311150Y76200D01*
D15*
X311766Y75726D01*
X312371Y75237D01*
X312963Y74733D01*
X313543Y74215D01*
X314110Y73683D01*
X314664Y73137D01*
X315204Y72578D01*
X315730Y72005D01*
X316243Y71420D01*
X316740Y70823D01*
X317223Y70214D01*
X317691Y69593D01*
X318144Y68960D01*
X318581Y68317D01*
X319002Y67663D01*
X319406Y66999D01*
X319795Y66326D01*
X320167Y65643D01*
X320522Y64951D01*
X320860Y64251D01*
X321181Y63543D01*
X321484Y62827D01*
X321770Y62103D01*
X322038Y61374D01*
X322288Y60637D01*
X322519Y59895D01*
X322733Y59147D01*
X322928Y58395D01*
X323105Y57637D01*
X323263Y56876D01*
X323403Y56111D01*
X323523Y55343D01*
X323625Y54572D01*
X323708Y53799D01*
X323772Y53024D01*
X323817Y52248D01*
X323843Y51471D01*
X323850Y50693D01*
X323838Y49916D01*
X323807Y49139D01*
X323756Y48363D01*
X323687Y47588D01*
X323599Y46816D01*
X323492Y46046D01*
X323366Y45278D01*
X323222Y44514D01*
X323058Y43754D01*
X322876Y42998D01*
X322676Y42247D01*
X322458Y41500D01*
X322221Y40760D01*
X321966Y40025D01*
X321693Y39297D01*
X321402Y38576D01*
X321094Y37862D01*
X320769Y37156D01*
X320426Y36458D01*
X320066Y35768D01*
X319690Y35088D01*
X319297Y34417D01*
X318887Y33756D01*
X318462Y33105D01*
X318021Y32465D01*
X317564Y31836D01*
X317092Y31218D01*
X316605Y30612D01*
X316103Y30018D01*
X315587Y29436D01*
X315057Y28867D01*
X314513Y28312D01*
X313955Y27769D01*
X313385Y27241D01*
X312802Y26727D01*
X312206Y26227D01*
X311598Y25742D01*
X310979Y25272D01*
X310348Y24818D01*
X309706Y24379D01*
X309054Y23955D01*
X308391Y23548D01*
X307719Y23157D01*
X307037Y22783D01*
X306347Y22426D01*
X305648Y22086D01*
X304940Y21762D01*
X304226Y21457D01*
X303503Y21168D01*
X302774Y20898D01*
X302039Y20646D01*
X301297Y20411D01*
X300550Y20195D01*
X299798Y19997D01*
X299042Y19818D01*
X298281Y19657D01*
X297517Y19515D01*
X296749Y19392D01*
X295978Y19288D01*
X295205Y19202D01*
X294431Y19136D01*
X293655Y19088D01*
X292878Y19060D01*
X292100Y19050D01*
X291322Y19060D01*
X290545Y19088D01*
X289769Y19136D01*
X288995Y19202D01*
X288222Y19288D01*
X287451Y19392D01*
X286683Y19515D01*
X285919Y19657D01*
X285158Y19818D01*
X284402Y19997D01*
X283650Y20195D01*
X282903Y20411D01*
X282161Y20646D01*
X281426Y20898D01*
X280697Y21168D01*
X279974Y21457D01*
X279260Y21762D01*
X278552Y22086D01*
X277853Y22426D01*
X277163Y22783D01*
X276481Y23157D01*
X275809Y23548D01*
X275146Y23955D01*
X274494Y24379D01*
X273852Y24818D01*
X273221Y25272D01*
X272602Y25742D01*
X271994Y26227D01*
X271398Y26727D01*
X270815Y27241D01*
X270245Y27769D01*
X269687Y28312D01*
X269143Y28867D01*
X268613Y29436D01*
X268097Y30018D01*
X267595Y30612D01*
X267108Y31218D01*
X266636Y31836D01*
X266179Y32465D01*
X265738Y33105D01*
X265313Y33756D01*
X264903Y34417D01*
X264510Y35088D01*
X264134Y35768D01*
X263774Y36458D01*
X263431Y37156D01*
X263106Y37862D01*
X262798Y38576D01*
X262507Y39297D01*
X262234Y40025D01*
X261979Y40760D01*
X261742Y41500D01*
X261524Y42247D01*
X261324Y42998D01*
X261142Y43754D01*
X260978Y44514D01*
X260834Y45278D01*
X260708Y46046D01*
X260601Y46816D01*
X260513Y47588D01*
X260444Y48363D01*
X260393Y49139D01*
X260362Y49916D01*
X260350Y50693D01*
X260357Y51471D01*
X260383Y52248D01*
X260428Y53024D01*
X260492Y53799D01*
X260575Y54572D01*
X260677Y55343D01*
X260797Y56111D01*
X260937Y56876D01*
X261095Y57637D01*
X261272Y58395D01*
X261467Y59147D01*
X261681Y59895D01*
X261912Y60637D01*
X262162Y61374D01*
X262430Y62103D01*
X262716Y62827D01*
X263019Y63543D01*
X263340Y64251D01*
X263678Y64951D01*
X264033Y65643D01*
X264405Y66326D01*
X264794Y66999D01*
X265198Y67663D01*
X265619Y68317D01*
X266056Y68960D01*
X266509Y69593D01*
X266977Y70214D01*
X267460Y70823D01*
X267957Y71420D01*
X268470Y72005D01*
X268996Y72578D01*
X269536Y73137D01*
X270090Y73683D01*
X270657Y74215D01*
X271237Y74733D01*
X271829Y75237D01*
X272434Y75726D01*
X273050Y76200D01*
D10*
X266700Y50800D02*
X266708Y51423D01*
X266731Y52046D01*
X266769Y52669D01*
X266822Y53290D01*
X266891Y53909D01*
X266975Y54527D01*
X267074Y55142D01*
X267188Y55755D01*
X267317Y56365D01*
X267461Y56972D01*
X267620Y57575D01*
X267794Y58173D01*
X267982Y58768D01*
X268185Y59357D01*
X268402Y59941D01*
X268633Y60520D01*
X268879Y61093D01*
X269139Y61660D01*
X269412Y62220D01*
X269699Y62773D01*
X270000Y63320D01*
X270314Y63858D01*
X270641Y64389D01*
X270981Y64911D01*
X271333Y65426D01*
X271699Y65931D01*
X272076Y66427D01*
X272466Y66914D01*
X272867Y67391D01*
X273280Y67858D01*
X273704Y68314D01*
X274139Y68761D01*
X274586Y69196D01*
X275042Y69620D01*
X275509Y70033D01*
X275986Y70434D01*
X276473Y70824D01*
X276969Y71201D01*
X277474Y71567D01*
X277989Y71919D01*
X278511Y72259D01*
X279042Y72586D01*
X279580Y72900D01*
X280127Y73201D01*
X280680Y73488D01*
X281240Y73761D01*
X281807Y74021D01*
X282380Y74267D01*
X282959Y74498D01*
X283543Y74715D01*
X284132Y74918D01*
X284727Y75106D01*
X285325Y75280D01*
X285928Y75439D01*
X286535Y75583D01*
X287145Y75712D01*
X287758Y75826D01*
X288373Y75925D01*
X288991Y76009D01*
X289610Y76078D01*
X290231Y76131D01*
X290854Y76169D01*
X291477Y76192D01*
X292100Y76200D01*
X292723Y76192D01*
X293346Y76169D01*
X293969Y76131D01*
X294590Y76078D01*
X295209Y76009D01*
X295827Y75925D01*
X296442Y75826D01*
X297055Y75712D01*
X297665Y75583D01*
X298272Y75439D01*
X298875Y75280D01*
X299473Y75106D01*
X300068Y74918D01*
X300657Y74715D01*
X301241Y74498D01*
X301820Y74267D01*
X302393Y74021D01*
X302960Y73761D01*
X303520Y73488D01*
X304073Y73201D01*
X304620Y72900D01*
X305158Y72586D01*
X305689Y72259D01*
X306211Y71919D01*
X306726Y71567D01*
X307231Y71201D01*
X307727Y70824D01*
X308214Y70434D01*
X308691Y70033D01*
X309158Y69620D01*
X309614Y69196D01*
X310061Y68761D01*
X310496Y68314D01*
X310920Y67858D01*
X311333Y67391D01*
X311734Y66914D01*
X312124Y66427D01*
X312501Y65931D01*
X312867Y65426D01*
X313219Y64911D01*
X313559Y64389D01*
X313886Y63858D01*
X314200Y63320D01*
X314501Y62773D01*
X314788Y62220D01*
X315061Y61660D01*
X315321Y61093D01*
X315567Y60520D01*
X315798Y59941D01*
X316015Y59357D01*
X316218Y58768D01*
X316406Y58173D01*
X316580Y57575D01*
X316739Y56972D01*
X316883Y56365D01*
X317012Y55755D01*
X317126Y55142D01*
X317225Y54527D01*
X317309Y53909D01*
X317378Y53290D01*
X317431Y52669D01*
X317469Y52046D01*
X317492Y51423D01*
X317500Y50800D01*
X317492Y50177D01*
X317469Y49554D01*
X317431Y48931D01*
X317378Y48310D01*
X317309Y47691D01*
X317225Y47073D01*
X317126Y46458D01*
X317012Y45845D01*
X316883Y45235D01*
X316739Y44628D01*
X316580Y44025D01*
X316406Y43427D01*
X316218Y42832D01*
X316015Y42243D01*
X315798Y41659D01*
X315567Y41080D01*
X315321Y40507D01*
X315061Y39940D01*
X314788Y39380D01*
X314501Y38827D01*
X314200Y38280D01*
X313886Y37742D01*
X313559Y37211D01*
X313219Y36689D01*
X312867Y36174D01*
X312501Y35669D01*
X312124Y35173D01*
X311734Y34686D01*
X311333Y34209D01*
X310920Y33742D01*
X310496Y33286D01*
X310061Y32839D01*
X309614Y32404D01*
X309158Y31980D01*
X308691Y31567D01*
X308214Y31166D01*
X307727Y30776D01*
X307231Y30399D01*
X306726Y30033D01*
X306211Y29681D01*
X305689Y29341D01*
X305158Y29014D01*
X304620Y28700D01*
X304073Y28399D01*
X303520Y28112D01*
X302960Y27839D01*
X302393Y27579D01*
X301820Y27333D01*
X301241Y27102D01*
X300657Y26885D01*
X300068Y26682D01*
X299473Y26494D01*
X298875Y26320D01*
X298272Y26161D01*
X297665Y26017D01*
X297055Y25888D01*
X296442Y25774D01*
X295827Y25675D01*
X295209Y25591D01*
X294590Y25522D01*
X293969Y25469D01*
X293346Y25431D01*
X292723Y25408D01*
X292100Y25400D01*
X291477Y25408D01*
X290854Y25431D01*
X290231Y25469D01*
X289610Y25522D01*
X288991Y25591D01*
X288373Y25675D01*
X287758Y25774D01*
X287145Y25888D01*
X286535Y26017D01*
X285928Y26161D01*
X285325Y26320D01*
X284727Y26494D01*
X284132Y26682D01*
X283543Y26885D01*
X282959Y27102D01*
X282380Y27333D01*
X281807Y27579D01*
X281240Y27839D01*
X280680Y28112D01*
X280127Y28399D01*
X279580Y28700D01*
X279042Y29014D01*
X278511Y29341D01*
X277989Y29681D01*
X277474Y30033D01*
X276969Y30399D01*
X276473Y30776D01*
X275986Y31166D01*
X275509Y31567D01*
X275042Y31980D01*
X274586Y32404D01*
X274139Y32839D01*
X273704Y33286D01*
X273280Y33742D01*
X272867Y34209D01*
X272466Y34686D01*
X272076Y35173D01*
X271699Y35669D01*
X271333Y36174D01*
X270981Y36689D01*
X270641Y37211D01*
X270314Y37742D01*
X270000Y38280D01*
X269699Y38827D01*
X269412Y39380D01*
X269139Y39940D01*
X268879Y40507D01*
X268633Y41080D01*
X268402Y41659D01*
X268185Y42243D01*
X267982Y42832D01*
X267794Y43427D01*
X267620Y44025D01*
X267461Y44628D01*
X267317Y45235D01*
X267188Y45845D01*
X267074Y46458D01*
X266975Y47073D01*
X266891Y47691D01*
X266822Y48310D01*
X266769Y48931D01*
X266731Y49554D01*
X266708Y50177D01*
X266700Y50800D01*
D14*
X349250Y152400D02*
X387350Y152400D01*
D15*
X387966Y151926D01*
X388571Y151437D01*
X389163Y150933D01*
X389743Y150415D01*
X390310Y149883D01*
X390864Y149337D01*
X391404Y148778D01*
X391930Y148205D01*
X392443Y147620D01*
X392940Y147023D01*
X393423Y146414D01*
X393891Y145793D01*
X394344Y145160D01*
X394781Y144517D01*
X395202Y143863D01*
X395606Y143199D01*
X395995Y142526D01*
X396367Y141843D01*
X396722Y141151D01*
X397060Y140451D01*
X397381Y139743D01*
X397684Y139027D01*
X397970Y138303D01*
X398238Y137574D01*
X398488Y136837D01*
X398719Y136095D01*
X398933Y135347D01*
X399128Y134595D01*
X399305Y133837D01*
X399463Y133076D01*
X399603Y132311D01*
X399723Y131543D01*
X399825Y130772D01*
X399908Y129999D01*
X399972Y129224D01*
X400017Y128448D01*
X400043Y127671D01*
X400050Y126893D01*
X400038Y126116D01*
X400007Y125339D01*
X399956Y124563D01*
X399887Y123788D01*
X399799Y123016D01*
X399692Y122246D01*
X399566Y121478D01*
X399422Y120714D01*
X399258Y119954D01*
X399076Y119198D01*
X398876Y118447D01*
X398658Y117700D01*
X398421Y116960D01*
X398166Y116225D01*
X397893Y115497D01*
X397602Y114776D01*
X397294Y114062D01*
X396969Y113356D01*
X396626Y112658D01*
X396266Y111968D01*
X395890Y111288D01*
X395497Y110617D01*
X395087Y109956D01*
X394662Y109305D01*
X394221Y108665D01*
X393764Y108036D01*
X393292Y107418D01*
X392805Y106812D01*
X392303Y106218D01*
X391787Y105636D01*
X391257Y105067D01*
X390713Y104512D01*
X390155Y103969D01*
X389585Y103441D01*
X389002Y102927D01*
X388406Y102427D01*
X387798Y101942D01*
X387179Y101472D01*
X386548Y101018D01*
X385906Y100579D01*
X385254Y100155D01*
X384591Y99748D01*
X383919Y99357D01*
X383237Y98983D01*
X382547Y98626D01*
X381848Y98286D01*
X381140Y97962D01*
X380426Y97657D01*
X379703Y97368D01*
X378974Y97098D01*
X378239Y96846D01*
X377497Y96611D01*
X376750Y96395D01*
X375998Y96197D01*
X375242Y96018D01*
X374481Y95857D01*
X373717Y95715D01*
X372949Y95592D01*
X372178Y95488D01*
X371405Y95402D01*
X370631Y95336D01*
X369855Y95288D01*
X369078Y95260D01*
X368300Y95250D01*
X367522Y95260D01*
X366745Y95288D01*
X365969Y95336D01*
X365195Y95402D01*
X364422Y95488D01*
X363651Y95592D01*
X362883Y95715D01*
X362119Y95857D01*
X361358Y96018D01*
X360602Y96197D01*
X359850Y96395D01*
X359103Y96611D01*
X358361Y96846D01*
X357626Y97098D01*
X356897Y97368D01*
X356174Y97657D01*
X355460Y97962D01*
X354752Y98286D01*
X354053Y98626D01*
X353363Y98983D01*
X352681Y99357D01*
X352009Y99748D01*
X351346Y100155D01*
X350694Y100579D01*
X350052Y101018D01*
X349421Y101472D01*
X348802Y101942D01*
X348194Y102427D01*
X347598Y102927D01*
X347015Y103441D01*
X346445Y103969D01*
X345887Y104512D01*
X345343Y105067D01*
X344813Y105636D01*
X344297Y106218D01*
X343795Y106812D01*
X343308Y107418D01*
X342836Y108036D01*
X342379Y108665D01*
X341938Y109305D01*
X341513Y109956D01*
X341103Y110617D01*
X340710Y111288D01*
X340334Y111968D01*
X339974Y112658D01*
X339631Y113356D01*
X339306Y114062D01*
X338998Y114776D01*
X338707Y115497D01*
X338434Y116225D01*
X338179Y116960D01*
X337942Y117700D01*
X337724Y118447D01*
X337524Y119198D01*
X337342Y119954D01*
X337178Y120714D01*
X337034Y121478D01*
X336908Y122246D01*
X336801Y123016D01*
X336713Y123788D01*
X336644Y124563D01*
X336593Y125339D01*
X336562Y126116D01*
X336550Y126893D01*
X336557Y127671D01*
X336583Y128448D01*
X336628Y129224D01*
X336692Y129999D01*
X336775Y130772D01*
X336877Y131543D01*
X336997Y132311D01*
X337137Y133076D01*
X337295Y133837D01*
X337472Y134595D01*
X337667Y135347D01*
X337881Y136095D01*
X338112Y136837D01*
X338362Y137574D01*
X338630Y138303D01*
X338916Y139027D01*
X339219Y139743D01*
X339540Y140451D01*
X339878Y141151D01*
X340233Y141843D01*
X340605Y142526D01*
X340994Y143199D01*
X341398Y143863D01*
X341819Y144517D01*
X342256Y145160D01*
X342709Y145793D01*
X343177Y146414D01*
X343660Y147023D01*
X344157Y147620D01*
X344670Y148205D01*
X345196Y148778D01*
X345736Y149337D01*
X346290Y149883D01*
X346857Y150415D01*
X347437Y150933D01*
X348029Y151437D01*
X348634Y151926D01*
X349250Y152400D01*
D10*
X342900Y127000D02*
X342908Y127623D01*
X342931Y128246D01*
X342969Y128869D01*
X343022Y129490D01*
X343091Y130109D01*
X343175Y130727D01*
X343274Y131342D01*
X343388Y131955D01*
X343517Y132565D01*
X343661Y133172D01*
X343820Y133775D01*
X343994Y134373D01*
X344182Y134968D01*
X344385Y135557D01*
X344602Y136141D01*
X344833Y136720D01*
X345079Y137293D01*
X345339Y137860D01*
X345612Y138420D01*
X345899Y138973D01*
X346200Y139520D01*
X346514Y140058D01*
X346841Y140589D01*
X347181Y141111D01*
X347533Y141626D01*
X347899Y142131D01*
X348276Y142627D01*
X348666Y143114D01*
X349067Y143591D01*
X349480Y144058D01*
X349904Y144514D01*
X350339Y144961D01*
X350786Y145396D01*
X351242Y145820D01*
X351709Y146233D01*
X352186Y146634D01*
X352673Y147024D01*
X353169Y147401D01*
X353674Y147767D01*
X354189Y148119D01*
X354711Y148459D01*
X355242Y148786D01*
X355780Y149100D01*
X356327Y149401D01*
X356880Y149688D01*
X357440Y149961D01*
X358007Y150221D01*
X358580Y150467D01*
X359159Y150698D01*
X359743Y150915D01*
X360332Y151118D01*
X360927Y151306D01*
X361525Y151480D01*
X362128Y151639D01*
X362735Y151783D01*
X363345Y151912D01*
X363958Y152026D01*
X364573Y152125D01*
X365191Y152209D01*
X365810Y152278D01*
X366431Y152331D01*
X367054Y152369D01*
X367677Y152392D01*
X368300Y152400D01*
X368923Y152392D01*
X369546Y152369D01*
X370169Y152331D01*
X370790Y152278D01*
X371409Y152209D01*
X372027Y152125D01*
X372642Y152026D01*
X373255Y151912D01*
X373865Y151783D01*
X374472Y151639D01*
X375075Y151480D01*
X375673Y151306D01*
X376268Y151118D01*
X376857Y150915D01*
X377441Y150698D01*
X378020Y150467D01*
X378593Y150221D01*
X379160Y149961D01*
X379720Y149688D01*
X380273Y149401D01*
X380820Y149100D01*
X381358Y148786D01*
X381889Y148459D01*
X382411Y148119D01*
X382926Y147767D01*
X383431Y147401D01*
X383927Y147024D01*
X384414Y146634D01*
X384891Y146233D01*
X385358Y145820D01*
X385814Y145396D01*
X386261Y144961D01*
X386696Y144514D01*
X387120Y144058D01*
X387533Y143591D01*
X387934Y143114D01*
X388324Y142627D01*
X388701Y142131D01*
X389067Y141626D01*
X389419Y141111D01*
X389759Y140589D01*
X390086Y140058D01*
X390400Y139520D01*
X390701Y138973D01*
X390988Y138420D01*
X391261Y137860D01*
X391521Y137293D01*
X391767Y136720D01*
X391998Y136141D01*
X392215Y135557D01*
X392418Y134968D01*
X392606Y134373D01*
X392780Y133775D01*
X392939Y133172D01*
X393083Y132565D01*
X393212Y131955D01*
X393326Y131342D01*
X393425Y130727D01*
X393509Y130109D01*
X393578Y129490D01*
X393631Y128869D01*
X393669Y128246D01*
X393692Y127623D01*
X393700Y127000D01*
X393692Y126377D01*
X393669Y125754D01*
X393631Y125131D01*
X393578Y124510D01*
X393509Y123891D01*
X393425Y123273D01*
X393326Y122658D01*
X393212Y122045D01*
X393083Y121435D01*
X392939Y120828D01*
X392780Y120225D01*
X392606Y119627D01*
X392418Y119032D01*
X392215Y118443D01*
X391998Y117859D01*
X391767Y117280D01*
X391521Y116707D01*
X391261Y116140D01*
X390988Y115580D01*
X390701Y115027D01*
X390400Y114480D01*
X390086Y113942D01*
X389759Y113411D01*
X389419Y112889D01*
X389067Y112374D01*
X388701Y111869D01*
X388324Y111373D01*
X387934Y110886D01*
X387533Y110409D01*
X387120Y109942D01*
X386696Y109486D01*
X386261Y109039D01*
X385814Y108604D01*
X385358Y108180D01*
X384891Y107767D01*
X384414Y107366D01*
X383927Y106976D01*
X383431Y106599D01*
X382926Y106233D01*
X382411Y105881D01*
X381889Y105541D01*
X381358Y105214D01*
X380820Y104900D01*
X380273Y104599D01*
X379720Y104312D01*
X379160Y104039D01*
X378593Y103779D01*
X378020Y103533D01*
X377441Y103302D01*
X376857Y103085D01*
X376268Y102882D01*
X375673Y102694D01*
X375075Y102520D01*
X374472Y102361D01*
X373865Y102217D01*
X373255Y102088D01*
X372642Y101974D01*
X372027Y101875D01*
X371409Y101791D01*
X370790Y101722D01*
X370169Y101669D01*
X369546Y101631D01*
X368923Y101608D01*
X368300Y101600D01*
X367677Y101608D01*
X367054Y101631D01*
X366431Y101669D01*
X365810Y101722D01*
X365191Y101791D01*
X364573Y101875D01*
X363958Y101974D01*
X363345Y102088D01*
X362735Y102217D01*
X362128Y102361D01*
X361525Y102520D01*
X360927Y102694D01*
X360332Y102882D01*
X359743Y103085D01*
X359159Y103302D01*
X358580Y103533D01*
X358007Y103779D01*
X357440Y104039D01*
X356880Y104312D01*
X356327Y104599D01*
X355780Y104900D01*
X355242Y105214D01*
X354711Y105541D01*
X354189Y105881D01*
X353674Y106233D01*
X353169Y106599D01*
X352673Y106976D01*
X352186Y107366D01*
X351709Y107767D01*
X351242Y108180D01*
X350786Y108604D01*
X350339Y109039D01*
X349904Y109486D01*
X349480Y109942D01*
X349067Y110409D01*
X348666Y110886D01*
X348276Y111373D01*
X347899Y111869D01*
X347533Y112374D01*
X347181Y112889D01*
X346841Y113411D01*
X346514Y113942D01*
X346200Y114480D01*
X345899Y115027D01*
X345612Y115580D01*
X345339Y116140D01*
X345079Y116707D01*
X344833Y117280D01*
X344602Y117859D01*
X344385Y118443D01*
X344182Y119032D01*
X343994Y119627D01*
X343820Y120225D01*
X343661Y120828D01*
X343517Y121435D01*
X343388Y122045D01*
X343274Y122658D01*
X343175Y123273D01*
X343091Y123891D01*
X343022Y124510D01*
X342969Y125131D01*
X342931Y125754D01*
X342908Y126377D01*
X342900Y127000D01*
D14*
X425450Y228600D02*
X463550Y228600D01*
D15*
X464166Y228126D01*
X464771Y227637D01*
X465363Y227133D01*
X465943Y226615D01*
X466510Y226083D01*
X467064Y225537D01*
X467604Y224978D01*
X468130Y224405D01*
X468643Y223820D01*
X469140Y223223D01*
X469623Y222614D01*
X470091Y221993D01*
X470544Y221360D01*
X470981Y220717D01*
X471402Y220063D01*
X471806Y219399D01*
X472195Y218726D01*
X472567Y218043D01*
X472922Y217351D01*
X473260Y216651D01*
X473581Y215943D01*
X473884Y215227D01*
X474170Y214503D01*
X474438Y213774D01*
X474688Y213037D01*
X474919Y212295D01*
X475133Y211547D01*
X475328Y210795D01*
X475505Y210037D01*
X475663Y209276D01*
X475803Y208511D01*
X475923Y207743D01*
X476025Y206972D01*
X476108Y206199D01*
X476172Y205424D01*
X476217Y204648D01*
X476243Y203871D01*
X476250Y203093D01*
X476238Y202316D01*
X476207Y201539D01*
X476156Y200763D01*
X476087Y199988D01*
X475999Y199216D01*
X475892Y198446D01*
X475766Y197678D01*
X475622Y196914D01*
X475458Y196154D01*
X475276Y195398D01*
X475076Y194647D01*
X474858Y193900D01*
X474621Y193160D01*
X474366Y192425D01*
X474093Y191697D01*
X473802Y190976D01*
X473494Y190262D01*
X473169Y189556D01*
X472826Y188858D01*
X472466Y188168D01*
X472090Y187488D01*
X471697Y186817D01*
X471287Y186156D01*
X470862Y185505D01*
X470421Y184865D01*
X469964Y184236D01*
X469492Y183618D01*
X469005Y183012D01*
X468503Y182418D01*
X467987Y181836D01*
X467457Y181267D01*
X466913Y180712D01*
X466355Y180169D01*
X465785Y179641D01*
X465202Y179127D01*
X464606Y178627D01*
X463998Y178142D01*
X463379Y177672D01*
X462748Y177218D01*
X462106Y176779D01*
X461454Y176355D01*
X460791Y175948D01*
X460119Y175557D01*
X459437Y175183D01*
X458747Y174826D01*
X458048Y174486D01*
X457340Y174162D01*
X456626Y173857D01*
X455903Y173568D01*
X455174Y173298D01*
X454439Y173046D01*
X453697Y172811D01*
X452950Y172595D01*
X452198Y172397D01*
X451442Y172218D01*
X450681Y172057D01*
X449917Y171915D01*
X449149Y171792D01*
X448378Y171688D01*
X447605Y171602D01*
X446831Y171536D01*
X446055Y171488D01*
X445278Y171460D01*
X444500Y171450D01*
X443722Y171460D01*
X442945Y171488D01*
X442169Y171536D01*
X441395Y171602D01*
X440622Y171688D01*
X439851Y171792D01*
X439083Y171915D01*
X438319Y172057D01*
X437558Y172218D01*
X436802Y172397D01*
X436050Y172595D01*
X435303Y172811D01*
X434561Y173046D01*
X433826Y173298D01*
X433097Y173568D01*
X432374Y173857D01*
X431660Y174162D01*
X430952Y174486D01*
X430253Y174826D01*
X429563Y175183D01*
X428881Y175557D01*
X428209Y175948D01*
X427546Y176355D01*
X426894Y176779D01*
X426252Y177218D01*
X425621Y177672D01*
X425002Y178142D01*
X424394Y178627D01*
X423798Y179127D01*
X423215Y179641D01*
X422645Y180169D01*
X422087Y180712D01*
X421543Y181267D01*
X421013Y181836D01*
X420497Y182418D01*
X419995Y183012D01*
X419508Y183618D01*
X419036Y184236D01*
X418579Y184865D01*
X418138Y185505D01*
X417713Y186156D01*
X417303Y186817D01*
X416910Y187488D01*
X416534Y188168D01*
X416174Y188858D01*
X415831Y189556D01*
X415506Y190262D01*
X415198Y190976D01*
X414907Y191697D01*
X414634Y192425D01*
X414379Y193160D01*
X414142Y193900D01*
X413924Y194647D01*
X413724Y195398D01*
X413542Y196154D01*
X413378Y196914D01*
X413234Y197678D01*
X413108Y198446D01*
X413001Y199216D01*
X412913Y199988D01*
X412844Y200763D01*
X412793Y201539D01*
X412762Y202316D01*
X412750Y203093D01*
X412757Y203871D01*
X412783Y204648D01*
X412828Y205424D01*
X412892Y206199D01*
X412975Y206972D01*
X413077Y207743D01*
X413197Y208511D01*
X413337Y209276D01*
X413495Y210037D01*
X413672Y210795D01*
X413867Y211547D01*
X414081Y212295D01*
X414312Y213037D01*
X414562Y213774D01*
X414830Y214503D01*
X415116Y215227D01*
X415419Y215943D01*
X415740Y216651D01*
X416078Y217351D01*
X416433Y218043D01*
X416805Y218726D01*
X417194Y219399D01*
X417598Y220063D01*
X418019Y220717D01*
X418456Y221360D01*
X418909Y221993D01*
X419377Y222614D01*
X419860Y223223D01*
X420357Y223820D01*
X420870Y224405D01*
X421396Y224978D01*
X421936Y225537D01*
X422490Y226083D01*
X423057Y226615D01*
X423637Y227133D01*
X424229Y227637D01*
X424834Y228126D01*
X425450Y228600D01*
D10*
X419100Y203200D02*
X419108Y203823D01*
X419131Y204446D01*
X419169Y205069D01*
X419222Y205690D01*
X419291Y206309D01*
X419375Y206927D01*
X419474Y207542D01*
X419588Y208155D01*
X419717Y208765D01*
X419861Y209372D01*
X420020Y209975D01*
X420194Y210573D01*
X420382Y211168D01*
X420585Y211757D01*
X420802Y212341D01*
X421033Y212920D01*
X421279Y213493D01*
X421539Y214060D01*
X421812Y214620D01*
X422099Y215173D01*
X422400Y215720D01*
X422714Y216258D01*
X423041Y216789D01*
X423381Y217311D01*
X423733Y217826D01*
X424099Y218331D01*
X424476Y218827D01*
X424866Y219314D01*
X425267Y219791D01*
X425680Y220258D01*
X426104Y220714D01*
X426539Y221161D01*
X426986Y221596D01*
X427442Y222020D01*
X427909Y222433D01*
X428386Y222834D01*
X428873Y223224D01*
X429369Y223601D01*
X429874Y223967D01*
X430389Y224319D01*
X430911Y224659D01*
X431442Y224986D01*
X431980Y225300D01*
X432527Y225601D01*
X433080Y225888D01*
X433640Y226161D01*
X434207Y226421D01*
X434780Y226667D01*
X435359Y226898D01*
X435943Y227115D01*
X436532Y227318D01*
X437127Y227506D01*
X437725Y227680D01*
X438328Y227839D01*
X438935Y227983D01*
X439545Y228112D01*
X440158Y228226D01*
X440773Y228325D01*
X441391Y228409D01*
X442010Y228478D01*
X442631Y228531D01*
X443254Y228569D01*
X443877Y228592D01*
X444500Y228600D01*
X445123Y228592D01*
X445746Y228569D01*
X446369Y228531D01*
X446990Y228478D01*
X447609Y228409D01*
X448227Y228325D01*
X448842Y228226D01*
X449455Y228112D01*
X450065Y227983D01*
X450672Y227839D01*
X451275Y227680D01*
X451873Y227506D01*
X452468Y227318D01*
X453057Y227115D01*
X453641Y226898D01*
X454220Y226667D01*
X454793Y226421D01*
X455360Y226161D01*
X455920Y225888D01*
X456473Y225601D01*
X457020Y225300D01*
X457558Y224986D01*
X458089Y224659D01*
X458611Y224319D01*
X459126Y223967D01*
X459631Y223601D01*
X460127Y223224D01*
X460614Y222834D01*
X461091Y222433D01*
X461558Y222020D01*
X462014Y221596D01*
X462461Y221161D01*
X462896Y220714D01*
X463320Y220258D01*
X463733Y219791D01*
X464134Y219314D01*
X464524Y218827D01*
X464901Y218331D01*
X465267Y217826D01*
X465619Y217311D01*
X465959Y216789D01*
X466286Y216258D01*
X466600Y215720D01*
X466901Y215173D01*
X467188Y214620D01*
X467461Y214060D01*
X467721Y213493D01*
X467967Y212920D01*
X468198Y212341D01*
X468415Y211757D01*
X468618Y211168D01*
X468806Y210573D01*
X468980Y209975D01*
X469139Y209372D01*
X469283Y208765D01*
X469412Y208155D01*
X469526Y207542D01*
X469625Y206927D01*
X469709Y206309D01*
X469778Y205690D01*
X469831Y205069D01*
X469869Y204446D01*
X469892Y203823D01*
X469900Y203200D01*
X469892Y202577D01*
X469869Y201954D01*
X469831Y201331D01*
X469778Y200710D01*
X469709Y200091D01*
X469625Y199473D01*
X469526Y198858D01*
X469412Y198245D01*
X469283Y197635D01*
X469139Y197028D01*
X468980Y196425D01*
X468806Y195827D01*
X468618Y195232D01*
X468415Y194643D01*
X468198Y194059D01*
X467967Y193480D01*
X467721Y192907D01*
X467461Y192340D01*
X467188Y191780D01*
X466901Y191227D01*
X466600Y190680D01*
X466286Y190142D01*
X465959Y189611D01*
X465619Y189089D01*
X465267Y188574D01*
X464901Y188069D01*
X464524Y187573D01*
X464134Y187086D01*
X463733Y186609D01*
X463320Y186142D01*
X462896Y185686D01*
X462461Y185239D01*
X462014Y184804D01*
X461558Y184380D01*
X461091Y183967D01*
X460614Y183566D01*
X460127Y183176D01*
X459631Y182799D01*
X459126Y182433D01*
X458611Y182081D01*
X458089Y181741D01*
X457558Y181414D01*
X457020Y181100D01*
X456473Y180799D01*
X455920Y180512D01*
X455360Y180239D01*
X454793Y179979D01*
X454220Y179733D01*
X453641Y179502D01*
X453057Y179285D01*
X452468Y179082D01*
X451873Y178894D01*
X451275Y178720D01*
X450672Y178561D01*
X450065Y178417D01*
X449455Y178288D01*
X448842Y178174D01*
X448227Y178075D01*
X447609Y177991D01*
X446990Y177922D01*
X446369Y177869D01*
X445746Y177831D01*
X445123Y177808D01*
X444500Y177800D01*
X443877Y177808D01*
X443254Y177831D01*
X442631Y177869D01*
X442010Y177922D01*
X441391Y177991D01*
X440773Y178075D01*
X440158Y178174D01*
X439545Y178288D01*
X438935Y178417D01*
X438328Y178561D01*
X437725Y178720D01*
X437127Y178894D01*
X436532Y179082D01*
X435943Y179285D01*
X435359Y179502D01*
X434780Y179733D01*
X434207Y179979D01*
X433640Y180239D01*
X433080Y180512D01*
X432527Y180799D01*
X431980Y181100D01*
X431442Y181414D01*
X430911Y181741D01*
X430389Y182081D01*
X429874Y182433D01*
X429369Y182799D01*
X428873Y183176D01*
X428386Y183566D01*
X427909Y183967D01*
X427442Y184380D01*
X426986Y184804D01*
X426539Y185239D01*
X426104Y185686D01*
X425680Y186142D01*
X425267Y186609D01*
X424866Y187086D01*
X424476Y187573D01*
X424099Y188069D01*
X423733Y188574D01*
X423381Y189089D01*
X423041Y189611D01*
X422714Y190142D01*
X422400Y190680D01*
X422099Y191227D01*
X421812Y191780D01*
X421539Y192340D01*
X421279Y192907D01*
X421033Y193480D01*
X420802Y194059D01*
X420585Y194643D01*
X420382Y195232D01*
X420194Y195827D01*
X420020Y196425D01*
X419861Y197028D01*
X419717Y197635D01*
X419588Y198245D01*
X419474Y198858D01*
X419375Y199473D01*
X419291Y200091D01*
X419222Y200710D01*
X419169Y201331D01*
X419131Y201954D01*
X419108Y202577D01*
X419100Y203200D01*
D14*
X425450Y152400D02*
X463550Y152400D01*
D15*
X464166Y151926D01*
X464771Y151437D01*
X465363Y150933D01*
X465943Y150415D01*
X466510Y149883D01*
X467064Y149337D01*
X467604Y148778D01*
X468130Y148205D01*
X468643Y147620D01*
X469140Y147023D01*
X469623Y146414D01*
X470091Y145793D01*
X470544Y145160D01*
X470981Y144517D01*
X471402Y143863D01*
X471806Y143199D01*
X472195Y142526D01*
X472567Y141843D01*
X472922Y141151D01*
X473260Y140451D01*
X473581Y139743D01*
X473884Y139027D01*
X474170Y138303D01*
X474438Y137574D01*
X474688Y136837D01*
X474919Y136095D01*
X475133Y135347D01*
X475328Y134595D01*
X475505Y133837D01*
X475663Y133076D01*
X475803Y132311D01*
X475923Y131543D01*
X476025Y130772D01*
X476108Y129999D01*
X476172Y129224D01*
X476217Y128448D01*
X476243Y127671D01*
X476250Y126893D01*
X476238Y126116D01*
X476207Y125339D01*
X476156Y124563D01*
X476087Y123788D01*
X475999Y123016D01*
X475892Y122246D01*
X475766Y121478D01*
X475622Y120714D01*
X475458Y119954D01*
X475276Y119198D01*
X475076Y118447D01*
X474858Y117700D01*
X474621Y116960D01*
X474366Y116225D01*
X474093Y115497D01*
X473802Y114776D01*
X473494Y114062D01*
X473169Y113356D01*
X472826Y112658D01*
X472466Y111968D01*
X472090Y111288D01*
X471697Y110617D01*
X471287Y109956D01*
X470862Y109305D01*
X470421Y108665D01*
X469964Y108036D01*
X469492Y107418D01*
X469005Y106812D01*
X468503Y106218D01*
X467987Y105636D01*
X467457Y105067D01*
X466913Y104512D01*
X466355Y103969D01*
X465785Y103441D01*
X465202Y102927D01*
X464606Y102427D01*
X463998Y101942D01*
X463379Y101472D01*
X462748Y101018D01*
X462106Y100579D01*
X461454Y100155D01*
X460791Y99748D01*
X460119Y99357D01*
X459437Y98983D01*
X458747Y98626D01*
X458048Y98286D01*
X457340Y97962D01*
X456626Y97657D01*
X455903Y97368D01*
X455174Y97098D01*
X454439Y96846D01*
X453697Y96611D01*
X452950Y96395D01*
X452198Y96197D01*
X451442Y96018D01*
X450681Y95857D01*
X449917Y95715D01*
X449149Y95592D01*
X448378Y95488D01*
X447605Y95402D01*
X446831Y95336D01*
X446055Y95288D01*
X445278Y95260D01*
X444500Y95250D01*
X443722Y95260D01*
X442945Y95288D01*
X442169Y95336D01*
X441395Y95402D01*
X440622Y95488D01*
X439851Y95592D01*
X439083Y95715D01*
X438319Y95857D01*
X437558Y96018D01*
X436802Y96197D01*
X436050Y96395D01*
X435303Y96611D01*
X434561Y96846D01*
X433826Y97098D01*
X433097Y97368D01*
X432374Y97657D01*
X431660Y97962D01*
X430952Y98286D01*
X430253Y98626D01*
X429563Y98983D01*
X428881Y99357D01*
X428209Y99748D01*
X427546Y100155D01*
X426894Y100579D01*
X426252Y101018D01*
X425621Y101472D01*
X425002Y101942D01*
X424394Y102427D01*
X423798Y102927D01*
X423215Y103441D01*
X422645Y103969D01*
X422087Y104512D01*
X421543Y105067D01*
X421013Y105636D01*
X420497Y106218D01*
X419995Y106812D01*
X419508Y107418D01*
X419036Y108036D01*
X418579Y108665D01*
X418138Y109305D01*
X417713Y109956D01*
X417303Y110617D01*
X416910Y111288D01*
X416534Y111968D01*
X416174Y112658D01*
X415831Y113356D01*
X415506Y114062D01*
X415198Y114776D01*
X414907Y115497D01*
X414634Y116225D01*
X414379Y116960D01*
X414142Y117700D01*
X413924Y118447D01*
X413724Y119198D01*
X413542Y119954D01*
X413378Y120714D01*
X413234Y121478D01*
X413108Y122246D01*
X413001Y123016D01*
X412913Y123788D01*
X412844Y124563D01*
X412793Y125339D01*
X412762Y126116D01*
X412750Y126893D01*
X412757Y127671D01*
X412783Y128448D01*
X412828Y129224D01*
X412892Y129999D01*
X412975Y130772D01*
X413077Y131543D01*
X413197Y132311D01*
X413337Y133076D01*
X413495Y133837D01*
X413672Y134595D01*
X413867Y135347D01*
X414081Y136095D01*
X414312Y136837D01*
X414562Y137574D01*
X414830Y138303D01*
X415116Y139027D01*
X415419Y139743D01*
X415740Y140451D01*
X416078Y141151D01*
X416433Y141843D01*
X416805Y142526D01*
X417194Y143199D01*
X417598Y143863D01*
X418019Y144517D01*
X418456Y145160D01*
X418909Y145793D01*
X419377Y146414D01*
X419860Y147023D01*
X420357Y147620D01*
X420870Y148205D01*
X421396Y148778D01*
X421936Y149337D01*
X422490Y149883D01*
X423057Y150415D01*
X423637Y150933D01*
X424229Y151437D01*
X424834Y151926D01*
X425450Y152400D01*
D10*
X419100Y127000D02*
X419108Y127623D01*
X419131Y128246D01*
X419169Y128869D01*
X419222Y129490D01*
X419291Y130109D01*
X419375Y130727D01*
X419474Y131342D01*
X419588Y131955D01*
X419717Y132565D01*
X419861Y133172D01*
X420020Y133775D01*
X420194Y134373D01*
X420382Y134968D01*
X420585Y135557D01*
X420802Y136141D01*
X421033Y136720D01*
X421279Y137293D01*
X421539Y137860D01*
X421812Y138420D01*
X422099Y138973D01*
X422400Y139520D01*
X422714Y140058D01*
X423041Y140589D01*
X423381Y141111D01*
X423733Y141626D01*
X424099Y142131D01*
X424476Y142627D01*
X424866Y143114D01*
X425267Y143591D01*
X425680Y144058D01*
X426104Y144514D01*
X426539Y144961D01*
X426986Y145396D01*
X427442Y145820D01*
X427909Y146233D01*
X428386Y146634D01*
X428873Y147024D01*
X429369Y147401D01*
X429874Y147767D01*
X430389Y148119D01*
X430911Y148459D01*
X431442Y148786D01*
X431980Y149100D01*
X432527Y149401D01*
X433080Y149688D01*
X433640Y149961D01*
X434207Y150221D01*
X434780Y150467D01*
X435359Y150698D01*
X435943Y150915D01*
X436532Y151118D01*
X437127Y151306D01*
X437725Y151480D01*
X438328Y151639D01*
X438935Y151783D01*
X439545Y151912D01*
X440158Y152026D01*
X440773Y152125D01*
X441391Y152209D01*
X442010Y152278D01*
X442631Y152331D01*
X443254Y152369D01*
X443877Y152392D01*
X444500Y152400D01*
X445123Y152392D01*
X445746Y152369D01*
X446369Y152331D01*
X446990Y152278D01*
X447609Y152209D01*
X448227Y152125D01*
X448842Y152026D01*
X449455Y151912D01*
X450065Y151783D01*
X450672Y151639D01*
X451275Y151480D01*
X451873Y151306D01*
X452468Y151118D01*
X453057Y150915D01*
X453641Y150698D01*
X454220Y150467D01*
X454793Y150221D01*
X455360Y149961D01*
X455920Y149688D01*
X456473Y149401D01*
X457020Y149100D01*
X457558Y148786D01*
X458089Y148459D01*
X458611Y148119D01*
X459126Y147767D01*
X459631Y147401D01*
X460127Y147024D01*
X460614Y146634D01*
X461091Y146233D01*
X461558Y145820D01*
X462014Y145396D01*
X462461Y144961D01*
X462896Y144514D01*
X463320Y144058D01*
X463733Y143591D01*
X464134Y143114D01*
X464524Y142627D01*
X464901Y142131D01*
X465267Y141626D01*
X465619Y141111D01*
X465959Y140589D01*
X466286Y140058D01*
X466600Y139520D01*
X466901Y138973D01*
X467188Y138420D01*
X467461Y137860D01*
X467721Y137293D01*
X467967Y136720D01*
X468198Y136141D01*
X468415Y135557D01*
X468618Y134968D01*
X468806Y134373D01*
X468980Y133775D01*
X469139Y133172D01*
X469283Y132565D01*
X469412Y131955D01*
X469526Y131342D01*
X469625Y130727D01*
X469709Y130109D01*
X469778Y129490D01*
X469831Y128869D01*
X469869Y128246D01*
X469892Y127623D01*
X469900Y127000D01*
X469892Y126377D01*
X469869Y125754D01*
X469831Y125131D01*
X469778Y124510D01*
X469709Y123891D01*
X469625Y123273D01*
X469526Y122658D01*
X469412Y122045D01*
X469283Y121435D01*
X469139Y120828D01*
X468980Y120225D01*
X468806Y119627D01*
X468618Y119032D01*
X468415Y118443D01*
X468198Y117859D01*
X467967Y117280D01*
X467721Y116707D01*
X467461Y116140D01*
X467188Y115580D01*
X466901Y115027D01*
X466600Y114480D01*
X466286Y113942D01*
X465959Y113411D01*
X465619Y112889D01*
X465267Y112374D01*
X464901Y111869D01*
X464524Y111373D01*
X464134Y110886D01*
X463733Y110409D01*
X463320Y109942D01*
X462896Y109486D01*
X462461Y109039D01*
X462014Y108604D01*
X461558Y108180D01*
X461091Y107767D01*
X460614Y107366D01*
X460127Y106976D01*
X459631Y106599D01*
X459126Y106233D01*
X458611Y105881D01*
X458089Y105541D01*
X457558Y105214D01*
X457020Y104900D01*
X456473Y104599D01*
X455920Y104312D01*
X455360Y104039D01*
X454793Y103779D01*
X454220Y103533D01*
X453641Y103302D01*
X453057Y103085D01*
X452468Y102882D01*
X451873Y102694D01*
X451275Y102520D01*
X450672Y102361D01*
X450065Y102217D01*
X449455Y102088D01*
X448842Y101974D01*
X448227Y101875D01*
X447609Y101791D01*
X446990Y101722D01*
X446369Y101669D01*
X445746Y101631D01*
X445123Y101608D01*
X444500Y101600D01*
X443877Y101608D01*
X443254Y101631D01*
X442631Y101669D01*
X442010Y101722D01*
X441391Y101791D01*
X440773Y101875D01*
X440158Y101974D01*
X439545Y102088D01*
X438935Y102217D01*
X438328Y102361D01*
X437725Y102520D01*
X437127Y102694D01*
X436532Y102882D01*
X435943Y103085D01*
X435359Y103302D01*
X434780Y103533D01*
X434207Y103779D01*
X433640Y104039D01*
X433080Y104312D01*
X432527Y104599D01*
X431980Y104900D01*
X431442Y105214D01*
X430911Y105541D01*
X430389Y105881D01*
X429874Y106233D01*
X429369Y106599D01*
X428873Y106976D01*
X428386Y107366D01*
X427909Y107767D01*
X427442Y108180D01*
X426986Y108604D01*
X426539Y109039D01*
X426104Y109486D01*
X425680Y109942D01*
X425267Y110409D01*
X424866Y110886D01*
X424476Y111373D01*
X424099Y111869D01*
X423733Y112374D01*
X423381Y112889D01*
X423041Y113411D01*
X422714Y113942D01*
X422400Y114480D01*
X422099Y115027D01*
X421812Y115580D01*
X421539Y116140D01*
X421279Y116707D01*
X421033Y117280D01*
X420802Y117859D01*
X420585Y118443D01*
X420382Y119032D01*
X420194Y119627D01*
X420020Y120225D01*
X419861Y120828D01*
X419717Y121435D01*
X419588Y122045D01*
X419474Y122658D01*
X419375Y123273D01*
X419291Y123891D01*
X419222Y124510D01*
X419169Y125131D01*
X419131Y125754D01*
X419108Y126377D01*
X419100Y127000D01*
D14*
X425450Y76200D02*
X463550Y76200D01*
D15*
X464166Y75726D01*
X464771Y75237D01*
X465363Y74733D01*
X465943Y74215D01*
X466510Y73683D01*
X467064Y73137D01*
X467604Y72578D01*
X468130Y72005D01*
X468643Y71420D01*
X469140Y70823D01*
X469623Y70214D01*
X470091Y69593D01*
X470544Y68960D01*
X470981Y68317D01*
X471402Y67663D01*
X471806Y66999D01*
X472195Y66326D01*
X472567Y65643D01*
X472922Y64951D01*
X473260Y64251D01*
X473581Y63543D01*
X473884Y62827D01*
X474170Y62103D01*
X474438Y61374D01*
X474688Y60637D01*
X474919Y59895D01*
X475133Y59147D01*
X475328Y58395D01*
X475505Y57637D01*
X475663Y56876D01*
X475803Y56111D01*
X475923Y55343D01*
X476025Y54572D01*
X476108Y53799D01*
X476172Y53024D01*
X476217Y52248D01*
X476243Y51471D01*
X476250Y50693D01*
X476238Y49916D01*
X476207Y49139D01*
X476156Y48363D01*
X476087Y47588D01*
X475999Y46816D01*
X475892Y46046D01*
X475766Y45278D01*
X475622Y44514D01*
X475458Y43754D01*
X475276Y42998D01*
X475076Y42247D01*
X474858Y41500D01*
X474621Y40760D01*
X474366Y40025D01*
X474093Y39297D01*
X473802Y38576D01*
X473494Y37862D01*
X473169Y37156D01*
X472826Y36458D01*
X472466Y35768D01*
X472090Y35088D01*
X471697Y34417D01*
X471287Y33756D01*
X470862Y33105D01*
X470421Y32465D01*
X469964Y31836D01*
X469492Y31218D01*
X469005Y30612D01*
X468503Y30018D01*
X467987Y29436D01*
X467457Y28867D01*
X466913Y28312D01*
X466355Y27769D01*
X465785Y27241D01*
X465202Y26727D01*
X464606Y26227D01*
X463998Y25742D01*
X463379Y25272D01*
X462748Y24818D01*
X462106Y24379D01*
X461454Y23955D01*
X460791Y23548D01*
X460119Y23157D01*
X459437Y22783D01*
X458747Y22426D01*
X458048Y22086D01*
X457340Y21762D01*
X456626Y21457D01*
X455903Y21168D01*
X455174Y20898D01*
X454439Y20646D01*
X453697Y20411D01*
X452950Y20195D01*
X452198Y19997D01*
X451442Y19818D01*
X450681Y19657D01*
X449917Y19515D01*
X449149Y19392D01*
X448378Y19288D01*
X447605Y19202D01*
X446831Y19136D01*
X446055Y19088D01*
X445278Y19060D01*
X444500Y19050D01*
X443722Y19060D01*
X442945Y19088D01*
X442169Y19136D01*
X441395Y19202D01*
X440622Y19288D01*
X439851Y19392D01*
X439083Y19515D01*
X438319Y19657D01*
X437558Y19818D01*
X436802Y19997D01*
X436050Y20195D01*
X435303Y20411D01*
X434561Y20646D01*
X433826Y20898D01*
X433097Y21168D01*
X432374Y21457D01*
X431660Y21762D01*
X430952Y22086D01*
X430253Y22426D01*
X429563Y22783D01*
X428881Y23157D01*
X428209Y23548D01*
X427546Y23955D01*
X426894Y24379D01*
X426252Y24818D01*
X425621Y25272D01*
X425002Y25742D01*
X424394Y26227D01*
X423798Y26727D01*
X423215Y27241D01*
X422645Y27769D01*
X422087Y28312D01*
X421543Y28867D01*
X421013Y29436D01*
X420497Y30018D01*
X419995Y30612D01*
X419508Y31218D01*
X419036Y31836D01*
X418579Y32465D01*
X418138Y33105D01*
X417713Y33756D01*
X417303Y34417D01*
X416910Y35088D01*
X416534Y35768D01*
X416174Y36458D01*
X415831Y37156D01*
X415506Y37862D01*
X415198Y38576D01*
X414907Y39297D01*
X414634Y40025D01*
X414379Y40760D01*
X414142Y41500D01*
X413924Y42247D01*
X413724Y42998D01*
X413542Y43754D01*
X413378Y44514D01*
X413234Y45278D01*
X413108Y46046D01*
X413001Y46816D01*
X412913Y47588D01*
X412844Y48363D01*
X412793Y49139D01*
X412762Y49916D01*
X412750Y50693D01*
X412757Y51471D01*
X412783Y52248D01*
X412828Y53024D01*
X412892Y53799D01*
X412975Y54572D01*
X413077Y55343D01*
X413197Y56111D01*
X413337Y56876D01*
X413495Y57637D01*
X413672Y58395D01*
X413867Y59147D01*
X414081Y59895D01*
X414312Y60637D01*
X414562Y61374D01*
X414830Y62103D01*
X415116Y62827D01*
X415419Y63543D01*
X415740Y64251D01*
X416078Y64951D01*
X416433Y65643D01*
X416805Y66326D01*
X417194Y66999D01*
X417598Y67663D01*
X418019Y68317D01*
X418456Y68960D01*
X418909Y69593D01*
X419377Y70214D01*
X419860Y70823D01*
X420357Y71420D01*
X420870Y72005D01*
X421396Y72578D01*
X421936Y73137D01*
X422490Y73683D01*
X423057Y74215D01*
X423637Y74733D01*
X424229Y75237D01*
X424834Y75726D01*
X425450Y76200D01*
D10*
X419100Y50800D02*
X419108Y51423D01*
X419131Y52046D01*
X419169Y52669D01*
X419222Y53290D01*
X419291Y53909D01*
X419375Y54527D01*
X419474Y55142D01*
X419588Y55755D01*
X419717Y56365D01*
X419861Y56972D01*
X420020Y57575D01*
X420194Y58173D01*
X420382Y58768D01*
X420585Y59357D01*
X420802Y59941D01*
X421033Y60520D01*
X421279Y61093D01*
X421539Y61660D01*
X421812Y62220D01*
X422099Y62773D01*
X422400Y63320D01*
X422714Y63858D01*
X423041Y64389D01*
X423381Y64911D01*
X423733Y65426D01*
X424099Y65931D01*
X424476Y66427D01*
X424866Y66914D01*
X425267Y67391D01*
X425680Y67858D01*
X426104Y68314D01*
X426539Y68761D01*
X426986Y69196D01*
X427442Y69620D01*
X427909Y70033D01*
X428386Y70434D01*
X428873Y70824D01*
X429369Y71201D01*
X429874Y71567D01*
X430389Y71919D01*
X430911Y72259D01*
X431442Y72586D01*
X431980Y72900D01*
X432527Y73201D01*
X433080Y73488D01*
X433640Y73761D01*
X434207Y74021D01*
X434780Y74267D01*
X435359Y74498D01*
X435943Y74715D01*
X436532Y74918D01*
X437127Y75106D01*
X437725Y75280D01*
X438328Y75439D01*
X438935Y75583D01*
X439545Y75712D01*
X440158Y75826D01*
X440773Y75925D01*
X441391Y76009D01*
X442010Y76078D01*
X442631Y76131D01*
X443254Y76169D01*
X443877Y76192D01*
X444500Y76200D01*
X445123Y76192D01*
X445746Y76169D01*
X446369Y76131D01*
X446990Y76078D01*
X447609Y76009D01*
X448227Y75925D01*
X448842Y75826D01*
X449455Y75712D01*
X450065Y75583D01*
X450672Y75439D01*
X451275Y75280D01*
X451873Y75106D01*
X452468Y74918D01*
X453057Y74715D01*
X453641Y74498D01*
X454220Y74267D01*
X454793Y74021D01*
X455360Y73761D01*
X455920Y73488D01*
X456473Y73201D01*
X457020Y72900D01*
X457558Y72586D01*
X458089Y72259D01*
X458611Y71919D01*
X459126Y71567D01*
X459631Y71201D01*
X460127Y70824D01*
X460614Y70434D01*
X461091Y70033D01*
X461558Y69620D01*
X462014Y69196D01*
X462461Y68761D01*
X462896Y68314D01*
X463320Y67858D01*
X463733Y67391D01*
X464134Y66914D01*
X464524Y66427D01*
X464901Y65931D01*
X465267Y65426D01*
X465619Y64911D01*
X465959Y64389D01*
X466286Y63858D01*
X466600Y63320D01*
X466901Y62773D01*
X467188Y62220D01*
X467461Y61660D01*
X467721Y61093D01*
X467967Y60520D01*
X468198Y59941D01*
X468415Y59357D01*
X468618Y58768D01*
X468806Y58173D01*
X468980Y57575D01*
X469139Y56972D01*
X469283Y56365D01*
X469412Y55755D01*
X469526Y55142D01*
X469625Y54527D01*
X469709Y53909D01*
X469778Y53290D01*
X469831Y52669D01*
X469869Y52046D01*
X469892Y51423D01*
X469900Y50800D01*
X469892Y50177D01*
X469869Y49554D01*
X469831Y48931D01*
X469778Y48310D01*
X469709Y47691D01*
X469625Y47073D01*
X469526Y46458D01*
X469412Y45845D01*
X469283Y45235D01*
X469139Y44628D01*
X468980Y44025D01*
X468806Y43427D01*
X468618Y42832D01*
X468415Y42243D01*
X468198Y41659D01*
X467967Y41080D01*
X467721Y40507D01*
X467461Y39940D01*
X467188Y39380D01*
X466901Y38827D01*
X466600Y38280D01*
X466286Y37742D01*
X465959Y37211D01*
X465619Y36689D01*
X465267Y36174D01*
X464901Y35669D01*
X464524Y35173D01*
X464134Y34686D01*
X463733Y34209D01*
X463320Y33742D01*
X462896Y33286D01*
X462461Y32839D01*
X462014Y32404D01*
X461558Y31980D01*
X461091Y31567D01*
X460614Y31166D01*
X460127Y30776D01*
X459631Y30399D01*
X459126Y30033D01*
X458611Y29681D01*
X458089Y29341D01*
X457558Y29014D01*
X457020Y28700D01*
X456473Y28399D01*
X455920Y28112D01*
X455360Y27839D01*
X454793Y27579D01*
X454220Y27333D01*
X453641Y27102D01*
X453057Y26885D01*
X452468Y26682D01*
X451873Y26494D01*
X451275Y26320D01*
X450672Y26161D01*
X450065Y26017D01*
X449455Y25888D01*
X448842Y25774D01*
X448227Y25675D01*
X447609Y25591D01*
X446990Y25522D01*
X446369Y25469D01*
X445746Y25431D01*
X445123Y25408D01*
X444500Y25400D01*
X443877Y25408D01*
X443254Y25431D01*
X442631Y25469D01*
X442010Y25522D01*
X441391Y25591D01*
X440773Y25675D01*
X440158Y25774D01*
X439545Y25888D01*
X438935Y26017D01*
X438328Y26161D01*
X437725Y26320D01*
X437127Y26494D01*
X436532Y26682D01*
X435943Y26885D01*
X435359Y27102D01*
X434780Y27333D01*
X434207Y27579D01*
X433640Y27839D01*
X433080Y28112D01*
X432527Y28399D01*
X431980Y28700D01*
X431442Y29014D01*
X430911Y29341D01*
X430389Y29681D01*
X429874Y30033D01*
X429369Y30399D01*
X428873Y30776D01*
X428386Y31166D01*
X427909Y31567D01*
X427442Y31980D01*
X426986Y32404D01*
X426539Y32839D01*
X426104Y33286D01*
X425680Y33742D01*
X425267Y34209D01*
X424866Y34686D01*
X424476Y35173D01*
X424099Y35669D01*
X423733Y36174D01*
X423381Y36689D01*
X423041Y37211D01*
X422714Y37742D01*
X422400Y38280D01*
X422099Y38827D01*
X421812Y39380D01*
X421539Y39940D01*
X421279Y40507D01*
X421033Y41080D01*
X420802Y41659D01*
X420585Y42243D01*
X420382Y42832D01*
X420194Y43427D01*
X420020Y44025D01*
X419861Y44628D01*
X419717Y45235D01*
X419588Y45845D01*
X419474Y46458D01*
X419375Y47073D01*
X419291Y47691D01*
X419222Y48310D01*
X419169Y48931D01*
X419131Y49554D01*
X419108Y50177D01*
X419100Y50800D01*
X148590Y189230D02*
X148490Y189228D01*
X148391Y189222D01*
X148291Y189212D01*
X148193Y189199D01*
X148094Y189181D01*
X147997Y189160D01*
X147901Y189135D01*
X147805Y189106D01*
X147711Y189073D01*
X147618Y189037D01*
X147527Y188997D01*
X147437Y188953D01*
X147349Y188906D01*
X147263Y188856D01*
X147179Y188802D01*
X147097Y188745D01*
X147018Y188685D01*
X146940Y188621D01*
X146866Y188555D01*
X146794Y188486D01*
X146725Y188414D01*
X146659Y188340D01*
X146595Y188262D01*
X146535Y188183D01*
X146478Y188101D01*
X146424Y188017D01*
X146374Y187931D01*
X146327Y187843D01*
X146283Y187753D01*
X146243Y187662D01*
X146207Y187569D01*
X146174Y187475D01*
X146145Y187379D01*
X146120Y187283D01*
X146099Y187186D01*
X146081Y187087D01*
X146068Y186989D01*
X146058Y186889D01*
X146052Y186790D01*
X146050Y186690D01*
X146050Y168910D02*
X146052Y168810D01*
X146058Y168711D01*
X146068Y168611D01*
X146081Y168513D01*
X146099Y168414D01*
X146120Y168317D01*
X146145Y168221D01*
X146174Y168125D01*
X146207Y168031D01*
X146243Y167938D01*
X146283Y167847D01*
X146327Y167757D01*
X146374Y167669D01*
X146424Y167583D01*
X146478Y167499D01*
X146535Y167417D01*
X146595Y167338D01*
X146659Y167260D01*
X146725Y167186D01*
X146794Y167114D01*
X146866Y167045D01*
X146940Y166979D01*
X147018Y166915D01*
X147097Y166855D01*
X147179Y166798D01*
X147263Y166744D01*
X147349Y166694D01*
X147437Y166647D01*
X147527Y166603D01*
X147618Y166563D01*
X147711Y166527D01*
X147805Y166494D01*
X147901Y166465D01*
X147997Y166440D01*
X148094Y166419D01*
X148193Y166401D01*
X148291Y166388D01*
X148391Y166378D01*
X148490Y166372D01*
X148590Y166370D01*
X207010Y166370D02*
X207110Y166372D01*
X207209Y166378D01*
X207309Y166388D01*
X207407Y166401D01*
X207506Y166419D01*
X207603Y166440D01*
X207699Y166465D01*
X207795Y166494D01*
X207889Y166527D01*
X207982Y166563D01*
X208073Y166603D01*
X208163Y166647D01*
X208251Y166694D01*
X208337Y166744D01*
X208421Y166798D01*
X208503Y166855D01*
X208582Y166915D01*
X208660Y166979D01*
X208734Y167045D01*
X208806Y167114D01*
X208875Y167186D01*
X208941Y167260D01*
X209005Y167338D01*
X209065Y167417D01*
X209122Y167499D01*
X209176Y167583D01*
X209226Y167669D01*
X209273Y167757D01*
X209317Y167847D01*
X209357Y167938D01*
X209393Y168031D01*
X209426Y168125D01*
X209455Y168221D01*
X209480Y168317D01*
X209501Y168414D01*
X209519Y168513D01*
X209532Y168611D01*
X209542Y168711D01*
X209548Y168810D01*
X209550Y168910D01*
X209550Y186690D02*
X209548Y186790D01*
X209542Y186889D01*
X209532Y186989D01*
X209519Y187087D01*
X209501Y187186D01*
X209480Y187283D01*
X209455Y187379D01*
X209426Y187475D01*
X209393Y187569D01*
X209357Y187662D01*
X209317Y187753D01*
X209273Y187843D01*
X209226Y187931D01*
X209176Y188017D01*
X209122Y188101D01*
X209065Y188183D01*
X209005Y188262D01*
X208941Y188340D01*
X208875Y188414D01*
X208806Y188486D01*
X208734Y188555D01*
X208660Y188621D01*
X208582Y188685D01*
X208503Y188745D01*
X208421Y188802D01*
X208337Y188856D01*
X208251Y188906D01*
X208163Y188953D01*
X208073Y188997D01*
X207982Y189037D01*
X207889Y189073D01*
X207795Y189106D01*
X207699Y189135D01*
X207603Y189160D01*
X207506Y189181D01*
X207407Y189199D01*
X207309Y189212D01*
X207209Y189222D01*
X207110Y189228D01*
X207010Y189230D01*
X146050Y186690D02*
X146050Y168910D01*
X148590Y189230D02*
X152400Y189230D01*
X153670Y187960D01*
X152400Y166370D02*
X148590Y166370D01*
X152400Y166370D02*
X153670Y167640D01*
X201930Y187960D02*
X203200Y189230D01*
X201930Y187960D02*
X153670Y187960D01*
X201930Y167640D02*
X203200Y166370D01*
X201930Y167640D02*
X153670Y167640D01*
X203200Y189230D02*
X207010Y189230D01*
X207010Y166370D02*
X203200Y166370D01*
X209550Y168910D02*
X209550Y186690D01*
D12*
X159642Y183525D02*
X155829Y179712D01*
X159642Y183525D02*
X159642Y172085D01*
X155829Y172085D02*
X163456Y172085D01*
X167523Y181618D02*
X169430Y183525D01*
X173243Y183525D01*
X175149Y181618D01*
X175149Y179712D01*
X173243Y177805D01*
X175149Y175898D01*
X175149Y173992D01*
X173243Y172085D01*
X169430Y172085D01*
X167523Y173992D01*
X167523Y175898D01*
X169430Y177805D01*
X167523Y179712D01*
X167523Y181618D01*
X169430Y177805D02*
X173243Y177805D01*
X179217Y173992D02*
X179217Y181618D01*
X181124Y183525D01*
X184937Y183525D01*
X186843Y181618D01*
X186843Y173992D01*
X184937Y172085D01*
X181124Y172085D01*
X179217Y173992D01*
X186843Y181618D01*
D13*
X213868Y177800D03*
X141732Y177800D03*
D10*
X148590Y163830D02*
X148490Y163828D01*
X148391Y163822D01*
X148291Y163812D01*
X148193Y163799D01*
X148094Y163781D01*
X147997Y163760D01*
X147901Y163735D01*
X147805Y163706D01*
X147711Y163673D01*
X147618Y163637D01*
X147527Y163597D01*
X147437Y163553D01*
X147349Y163506D01*
X147263Y163456D01*
X147179Y163402D01*
X147097Y163345D01*
X147018Y163285D01*
X146940Y163221D01*
X146866Y163155D01*
X146794Y163086D01*
X146725Y163014D01*
X146659Y162940D01*
X146595Y162862D01*
X146535Y162783D01*
X146478Y162701D01*
X146424Y162617D01*
X146374Y162531D01*
X146327Y162443D01*
X146283Y162353D01*
X146243Y162262D01*
X146207Y162169D01*
X146174Y162075D01*
X146145Y161979D01*
X146120Y161883D01*
X146099Y161786D01*
X146081Y161687D01*
X146068Y161589D01*
X146058Y161489D01*
X146052Y161390D01*
X146050Y161290D01*
X146050Y143510D02*
X146052Y143410D01*
X146058Y143311D01*
X146068Y143211D01*
X146081Y143113D01*
X146099Y143014D01*
X146120Y142917D01*
X146145Y142821D01*
X146174Y142725D01*
X146207Y142631D01*
X146243Y142538D01*
X146283Y142447D01*
X146327Y142357D01*
X146374Y142269D01*
X146424Y142183D01*
X146478Y142099D01*
X146535Y142017D01*
X146595Y141938D01*
X146659Y141860D01*
X146725Y141786D01*
X146794Y141714D01*
X146866Y141645D01*
X146940Y141579D01*
X147018Y141515D01*
X147097Y141455D01*
X147179Y141398D01*
X147263Y141344D01*
X147349Y141294D01*
X147437Y141247D01*
X147527Y141203D01*
X147618Y141163D01*
X147711Y141127D01*
X147805Y141094D01*
X147901Y141065D01*
X147997Y141040D01*
X148094Y141019D01*
X148193Y141001D01*
X148291Y140988D01*
X148391Y140978D01*
X148490Y140972D01*
X148590Y140970D01*
X207010Y140970D02*
X207110Y140972D01*
X207209Y140978D01*
X207309Y140988D01*
X207407Y141001D01*
X207506Y141019D01*
X207603Y141040D01*
X207699Y141065D01*
X207795Y141094D01*
X207889Y141127D01*
X207982Y141163D01*
X208073Y141203D01*
X208163Y141247D01*
X208251Y141294D01*
X208337Y141344D01*
X208421Y141398D01*
X208503Y141455D01*
X208582Y141515D01*
X208660Y141579D01*
X208734Y141645D01*
X208806Y141714D01*
X208875Y141786D01*
X208941Y141860D01*
X209005Y141938D01*
X209065Y142017D01*
X209122Y142099D01*
X209176Y142183D01*
X209226Y142269D01*
X209273Y142357D01*
X209317Y142447D01*
X209357Y142538D01*
X209393Y142631D01*
X209426Y142725D01*
X209455Y142821D01*
X209480Y142917D01*
X209501Y143014D01*
X209519Y143113D01*
X209532Y143211D01*
X209542Y143311D01*
X209548Y143410D01*
X209550Y143510D01*
X209550Y161290D02*
X209548Y161390D01*
X209542Y161489D01*
X209532Y161589D01*
X209519Y161687D01*
X209501Y161786D01*
X209480Y161883D01*
X209455Y161979D01*
X209426Y162075D01*
X209393Y162169D01*
X209357Y162262D01*
X209317Y162353D01*
X209273Y162443D01*
X209226Y162531D01*
X209176Y162617D01*
X209122Y162701D01*
X209065Y162783D01*
X209005Y162862D01*
X208941Y162940D01*
X208875Y163014D01*
X208806Y163086D01*
X208734Y163155D01*
X208660Y163221D01*
X208582Y163285D01*
X208503Y163345D01*
X208421Y163402D01*
X208337Y163456D01*
X208251Y163506D01*
X208163Y163553D01*
X208073Y163597D01*
X207982Y163637D01*
X207889Y163673D01*
X207795Y163706D01*
X207699Y163735D01*
X207603Y163760D01*
X207506Y163781D01*
X207407Y163799D01*
X207309Y163812D01*
X207209Y163822D01*
X207110Y163828D01*
X207010Y163830D01*
X146050Y161290D02*
X146050Y143510D01*
X148590Y163830D02*
X152400Y163830D01*
X153670Y162560D01*
X152400Y140970D02*
X148590Y140970D01*
X152400Y140970D02*
X153670Y142240D01*
X201930Y162560D02*
X203200Y163830D01*
X201930Y162560D02*
X153670Y162560D01*
X201930Y142240D02*
X203200Y140970D01*
X201930Y142240D02*
X153670Y142240D01*
X203200Y163830D02*
X207010Y163830D01*
X207010Y140970D02*
X203200Y140970D01*
X209550Y143510D02*
X209550Y161290D01*
D12*
X159642Y158125D02*
X155829Y154312D01*
X159642Y158125D02*
X159642Y146685D01*
X155829Y146685D02*
X163456Y146685D01*
X167523Y156218D02*
X169430Y158125D01*
X173243Y158125D01*
X175149Y156218D01*
X175149Y154312D01*
X173243Y152405D01*
X175149Y150498D01*
X175149Y148592D01*
X173243Y146685D01*
X169430Y146685D01*
X167523Y148592D01*
X167523Y150498D01*
X169430Y152405D01*
X167523Y154312D01*
X167523Y156218D01*
X169430Y152405D02*
X173243Y152405D01*
X179217Y148592D02*
X179217Y156218D01*
X181124Y158125D01*
X184937Y158125D01*
X186843Y156218D01*
X186843Y148592D01*
X184937Y146685D01*
X181124Y146685D01*
X179217Y148592D01*
X186843Y156218D01*
D13*
X213868Y152400D03*
X141732Y152400D03*
D10*
X148590Y138430D02*
X148490Y138428D01*
X148391Y138422D01*
X148291Y138412D01*
X148193Y138399D01*
X148094Y138381D01*
X147997Y138360D01*
X147901Y138335D01*
X147805Y138306D01*
X147711Y138273D01*
X147618Y138237D01*
X147527Y138197D01*
X147437Y138153D01*
X147349Y138106D01*
X147263Y138056D01*
X147179Y138002D01*
X147097Y137945D01*
X147018Y137885D01*
X146940Y137821D01*
X146866Y137755D01*
X146794Y137686D01*
X146725Y137614D01*
X146659Y137540D01*
X146595Y137462D01*
X146535Y137383D01*
X146478Y137301D01*
X146424Y137217D01*
X146374Y137131D01*
X146327Y137043D01*
X146283Y136953D01*
X146243Y136862D01*
X146207Y136769D01*
X146174Y136675D01*
X146145Y136579D01*
X146120Y136483D01*
X146099Y136386D01*
X146081Y136287D01*
X146068Y136189D01*
X146058Y136089D01*
X146052Y135990D01*
X146050Y135890D01*
X146050Y118110D02*
X146052Y118010D01*
X146058Y117911D01*
X146068Y117811D01*
X146081Y117713D01*
X146099Y117614D01*
X146120Y117517D01*
X146145Y117421D01*
X146174Y117325D01*
X146207Y117231D01*
X146243Y117138D01*
X146283Y117047D01*
X146327Y116957D01*
X146374Y116869D01*
X146424Y116783D01*
X146478Y116699D01*
X146535Y116617D01*
X146595Y116538D01*
X146659Y116460D01*
X146725Y116386D01*
X146794Y116314D01*
X146866Y116245D01*
X146940Y116179D01*
X147018Y116115D01*
X147097Y116055D01*
X147179Y115998D01*
X147263Y115944D01*
X147349Y115894D01*
X147437Y115847D01*
X147527Y115803D01*
X147618Y115763D01*
X147711Y115727D01*
X147805Y115694D01*
X147901Y115665D01*
X147997Y115640D01*
X148094Y115619D01*
X148193Y115601D01*
X148291Y115588D01*
X148391Y115578D01*
X148490Y115572D01*
X148590Y115570D01*
X207010Y115570D02*
X207110Y115572D01*
X207209Y115578D01*
X207309Y115588D01*
X207407Y115601D01*
X207506Y115619D01*
X207603Y115640D01*
X207699Y115665D01*
X207795Y115694D01*
X207889Y115727D01*
X207982Y115763D01*
X208073Y115803D01*
X208163Y115847D01*
X208251Y115894D01*
X208337Y115944D01*
X208421Y115998D01*
X208503Y116055D01*
X208582Y116115D01*
X208660Y116179D01*
X208734Y116245D01*
X208806Y116314D01*
X208875Y116386D01*
X208941Y116460D01*
X209005Y116538D01*
X209065Y116617D01*
X209122Y116699D01*
X209176Y116783D01*
X209226Y116869D01*
X209273Y116957D01*
X209317Y117047D01*
X209357Y117138D01*
X209393Y117231D01*
X209426Y117325D01*
X209455Y117421D01*
X209480Y117517D01*
X209501Y117614D01*
X209519Y117713D01*
X209532Y117811D01*
X209542Y117911D01*
X209548Y118010D01*
X209550Y118110D01*
X209550Y135890D02*
X209548Y135990D01*
X209542Y136089D01*
X209532Y136189D01*
X209519Y136287D01*
X209501Y136386D01*
X209480Y136483D01*
X209455Y136579D01*
X209426Y136675D01*
X209393Y136769D01*
X209357Y136862D01*
X209317Y136953D01*
X209273Y137043D01*
X209226Y137131D01*
X209176Y137217D01*
X209122Y137301D01*
X209065Y137383D01*
X209005Y137462D01*
X208941Y137540D01*
X208875Y137614D01*
X208806Y137686D01*
X208734Y137755D01*
X208660Y137821D01*
X208582Y137885D01*
X208503Y137945D01*
X208421Y138002D01*
X208337Y138056D01*
X208251Y138106D01*
X208163Y138153D01*
X208073Y138197D01*
X207982Y138237D01*
X207889Y138273D01*
X207795Y138306D01*
X207699Y138335D01*
X207603Y138360D01*
X207506Y138381D01*
X207407Y138399D01*
X207309Y138412D01*
X207209Y138422D01*
X207110Y138428D01*
X207010Y138430D01*
X146050Y135890D02*
X146050Y118110D01*
X148590Y138430D02*
X152400Y138430D01*
X153670Y137160D01*
X152400Y115570D02*
X148590Y115570D01*
X152400Y115570D02*
X153670Y116840D01*
X201930Y137160D02*
X203200Y138430D01*
X201930Y137160D02*
X153670Y137160D01*
X201930Y116840D02*
X203200Y115570D01*
X201930Y116840D02*
X153670Y116840D01*
X203200Y138430D02*
X207010Y138430D01*
X207010Y115570D02*
X203200Y115570D01*
X209550Y118110D02*
X209550Y135890D01*
D12*
X159642Y132725D02*
X155829Y128912D01*
X159642Y132725D02*
X159642Y121285D01*
X155829Y121285D02*
X163456Y121285D01*
X167523Y130818D02*
X169430Y132725D01*
X173243Y132725D01*
X175149Y130818D01*
X175149Y128912D01*
X173243Y127005D01*
X175149Y125098D01*
X175149Y123192D01*
X173243Y121285D01*
X169430Y121285D01*
X167523Y123192D01*
X167523Y125098D01*
X169430Y127005D01*
X167523Y128912D01*
X167523Y130818D01*
X169430Y127005D02*
X173243Y127005D01*
X179217Y123192D02*
X179217Y130818D01*
X181124Y132725D01*
X184937Y132725D01*
X186843Y130818D01*
X186843Y123192D01*
X184937Y121285D01*
X181124Y121285D01*
X179217Y123192D01*
X186843Y130818D01*
D13*
X213868Y127000D03*
X141732Y127000D03*
M02*
