G04 EAGLE Gerber X2 export*
G04 #@! %TF.Part,Single*
G04 #@! %TF.FileFunction,Copper,L1,Top,Mixed*
G04 #@! %TF.FilePolarity,Positive*
G04 #@! %TF.GenerationSoftware,Autodesk,EAGLE,9.0.0*
G04 #@! %TF.CreationDate,2019-08-08T19:07:45Z*
G75*
%MOMM*%
%FSLAX34Y34*%
%LPD*%
%AMOC8*
5,1,8,0,0,1.08239X$1,22.5*%
G01*
%ADD10C,1.524000*%
%ADD11C,1.320800*%
%ADD12C,0.406400*%

G36*
X106685Y10161D02*
X106685Y10161D01*
X106689Y10161D01*
X106883Y10181D01*
X107081Y10201D01*
X107085Y10202D01*
X107089Y10202D01*
X107276Y10261D01*
X107466Y10319D01*
X107470Y10321D01*
X107474Y10322D01*
X107647Y10417D01*
X107820Y10511D01*
X107823Y10513D01*
X107827Y10516D01*
X107980Y10644D01*
X108129Y10768D01*
X108132Y10772D01*
X108135Y10775D01*
X108258Y10929D01*
X108381Y11082D01*
X108383Y11086D01*
X108386Y11089D01*
X108476Y11264D01*
X108567Y11439D01*
X108568Y11444D01*
X108570Y11448D01*
X108623Y11635D01*
X108678Y11826D01*
X108678Y11831D01*
X108680Y11835D01*
X108695Y12028D01*
X108711Y12228D01*
X108710Y12232D01*
X108711Y12236D01*
X108687Y12430D01*
X108664Y12627D01*
X108663Y12632D01*
X108662Y12636D01*
X108601Y12821D01*
X108539Y13010D01*
X108537Y13014D01*
X108536Y13018D01*
X108438Y13190D01*
X108341Y13361D01*
X108338Y13364D01*
X108336Y13368D01*
X108205Y13519D01*
X108078Y13665D01*
X108075Y13668D01*
X108072Y13672D01*
X107915Y13792D01*
X107760Y13912D01*
X107756Y13914D01*
X107752Y13917D01*
X107457Y14069D01*
X104228Y15406D01*
X99226Y20408D01*
X96519Y26943D01*
X96519Y32004D01*
X96517Y32022D01*
X96519Y32040D01*
X96498Y32222D01*
X96479Y32405D01*
X96474Y32422D01*
X96472Y32439D01*
X96415Y32614D01*
X96361Y32790D01*
X96353Y32805D01*
X96347Y32822D01*
X96257Y32982D01*
X96169Y33144D01*
X96158Y33157D01*
X96149Y33173D01*
X96029Y33312D01*
X95912Y33453D01*
X95898Y33464D01*
X95886Y33478D01*
X95741Y33590D01*
X95598Y33705D01*
X95582Y33713D01*
X95568Y33724D01*
X95403Y33806D01*
X95241Y33891D01*
X95224Y33896D01*
X95208Y33904D01*
X95029Y33951D01*
X94854Y34002D01*
X94836Y34004D01*
X94819Y34008D01*
X94488Y34035D01*
X78961Y34035D01*
X72800Y36588D01*
X68084Y41304D01*
X65531Y47465D01*
X65531Y54135D01*
X68084Y60296D01*
X69851Y62064D01*
X69862Y62078D01*
X69876Y62089D01*
X69990Y62233D01*
X70106Y62375D01*
X70114Y62391D01*
X70125Y62405D01*
X70209Y62569D01*
X70294Y62731D01*
X70300Y62748D01*
X70308Y62764D01*
X70357Y62941D01*
X70409Y63117D01*
X70411Y63135D01*
X70416Y63152D01*
X70429Y63335D01*
X70446Y63518D01*
X70444Y63536D01*
X70445Y63553D01*
X70422Y63735D01*
X70402Y63918D01*
X70397Y63935D01*
X70395Y63953D01*
X70336Y64127D01*
X70281Y64302D01*
X70272Y64318D01*
X70266Y64334D01*
X70175Y64493D01*
X70086Y64654D01*
X70074Y64668D01*
X70065Y64683D01*
X69851Y64936D01*
X68084Y66704D01*
X65531Y72865D01*
X65531Y79535D01*
X68084Y85696D01*
X69851Y87464D01*
X69862Y87478D01*
X69876Y87489D01*
X69990Y87633D01*
X70106Y87775D01*
X70114Y87791D01*
X70125Y87805D01*
X70209Y87969D01*
X70294Y88131D01*
X70300Y88148D01*
X70308Y88164D01*
X70357Y88341D01*
X70409Y88517D01*
X70411Y88535D01*
X70416Y88552D01*
X70429Y88735D01*
X70446Y88918D01*
X70444Y88936D01*
X70445Y88953D01*
X70422Y89135D01*
X70402Y89318D01*
X70397Y89335D01*
X70395Y89353D01*
X70336Y89527D01*
X70281Y89702D01*
X70272Y89718D01*
X70266Y89734D01*
X70175Y89893D01*
X70086Y90054D01*
X70074Y90068D01*
X70065Y90083D01*
X69851Y90336D01*
X68084Y92104D01*
X65531Y98265D01*
X65531Y104935D01*
X68084Y111096D01*
X69851Y112864D01*
X69862Y112878D01*
X69876Y112889D01*
X69990Y113033D01*
X70106Y113175D01*
X70114Y113191D01*
X70125Y113205D01*
X70209Y113369D01*
X70294Y113531D01*
X70300Y113548D01*
X70308Y113564D01*
X70357Y113741D01*
X70409Y113917D01*
X70411Y113935D01*
X70416Y113952D01*
X70429Y114135D01*
X70446Y114318D01*
X70444Y114336D01*
X70445Y114353D01*
X70422Y114535D01*
X70402Y114718D01*
X70397Y114735D01*
X70395Y114753D01*
X70336Y114927D01*
X70281Y115102D01*
X70272Y115118D01*
X70266Y115134D01*
X70175Y115293D01*
X70086Y115454D01*
X70074Y115468D01*
X70065Y115483D01*
X69851Y115736D01*
X68084Y117504D01*
X65531Y123665D01*
X65531Y130335D01*
X68084Y136496D01*
X69851Y138264D01*
X69862Y138278D01*
X69876Y138289D01*
X69990Y138433D01*
X70106Y138575D01*
X70114Y138591D01*
X70125Y138605D01*
X70209Y138769D01*
X70294Y138931D01*
X70300Y138948D01*
X70308Y138964D01*
X70357Y139141D01*
X70409Y139317D01*
X70411Y139335D01*
X70416Y139352D01*
X70429Y139535D01*
X70446Y139718D01*
X70444Y139736D01*
X70445Y139753D01*
X70422Y139935D01*
X70402Y140118D01*
X70397Y140135D01*
X70395Y140153D01*
X70336Y140327D01*
X70281Y140502D01*
X70272Y140518D01*
X70266Y140534D01*
X70175Y140693D01*
X70086Y140854D01*
X70074Y140868D01*
X70065Y140883D01*
X69851Y141136D01*
X68084Y142904D01*
X65531Y149065D01*
X65531Y155735D01*
X68084Y161896D01*
X69851Y163664D01*
X69862Y163678D01*
X69876Y163689D01*
X69990Y163833D01*
X70106Y163975D01*
X70114Y163991D01*
X70125Y164005D01*
X70209Y164169D01*
X70294Y164331D01*
X70300Y164348D01*
X70308Y164364D01*
X70357Y164541D01*
X70409Y164717D01*
X70411Y164735D01*
X70416Y164752D01*
X70429Y164935D01*
X70446Y165118D01*
X70444Y165136D01*
X70445Y165153D01*
X70422Y165335D01*
X70402Y165518D01*
X70397Y165535D01*
X70395Y165553D01*
X70336Y165727D01*
X70281Y165902D01*
X70272Y165918D01*
X70266Y165934D01*
X70175Y166093D01*
X70086Y166254D01*
X70074Y166268D01*
X70065Y166283D01*
X69851Y166536D01*
X68084Y168304D01*
X65531Y174465D01*
X65531Y181135D01*
X68084Y187296D01*
X69851Y189064D01*
X69862Y189078D01*
X69876Y189089D01*
X69990Y189233D01*
X70106Y189375D01*
X70114Y189391D01*
X70125Y189405D01*
X70209Y189569D01*
X70294Y189731D01*
X70300Y189748D01*
X70308Y189764D01*
X70357Y189941D01*
X70409Y190117D01*
X70411Y190135D01*
X70416Y190152D01*
X70429Y190334D01*
X70446Y190518D01*
X70444Y190536D01*
X70445Y190553D01*
X70422Y190735D01*
X70402Y190918D01*
X70397Y190935D01*
X70395Y190953D01*
X70336Y191127D01*
X70281Y191302D01*
X70272Y191318D01*
X70266Y191334D01*
X70175Y191493D01*
X70086Y191654D01*
X70074Y191668D01*
X70065Y191683D01*
X69851Y191936D01*
X68084Y193704D01*
X65531Y199865D01*
X65531Y206535D01*
X68084Y212696D01*
X69851Y214464D01*
X69862Y214478D01*
X69876Y214489D01*
X69990Y214633D01*
X70106Y214775D01*
X70114Y214791D01*
X70125Y214805D01*
X70209Y214969D01*
X70294Y215131D01*
X70300Y215148D01*
X70308Y215164D01*
X70357Y215341D01*
X70409Y215517D01*
X70411Y215535D01*
X70416Y215552D01*
X70429Y215735D01*
X70446Y215918D01*
X70444Y215936D01*
X70445Y215953D01*
X70422Y216135D01*
X70402Y216318D01*
X70397Y216335D01*
X70395Y216353D01*
X70336Y216527D01*
X70281Y216702D01*
X70272Y216718D01*
X70266Y216734D01*
X70175Y216893D01*
X70086Y217054D01*
X70074Y217068D01*
X70065Y217083D01*
X69851Y217336D01*
X68084Y219104D01*
X65531Y225265D01*
X65531Y231935D01*
X68084Y238096D01*
X72800Y242812D01*
X78961Y245365D01*
X87580Y245365D01*
X87607Y245367D01*
X87634Y245365D01*
X87807Y245387D01*
X87981Y245405D01*
X88006Y245412D01*
X88033Y245416D01*
X88199Y245471D01*
X88366Y245523D01*
X88389Y245536D01*
X88415Y245544D01*
X88566Y245631D01*
X88720Y245715D01*
X88740Y245732D01*
X88764Y245745D01*
X89017Y245960D01*
X94693Y251637D01*
X95710Y252058D01*
X95733Y252070D01*
X95759Y252079D01*
X95911Y252165D01*
X96065Y252248D01*
X96085Y252265D01*
X96109Y252278D01*
X96240Y252393D01*
X96375Y252504D01*
X96392Y252525D01*
X96412Y252543D01*
X96519Y252681D01*
X96629Y252817D01*
X96641Y252841D01*
X96658Y252862D01*
X96809Y253157D01*
X99226Y258992D01*
X102706Y262472D01*
X102712Y262479D01*
X102718Y262484D01*
X102839Y262634D01*
X102961Y262783D01*
X102965Y262791D01*
X102971Y262798D01*
X103059Y262968D01*
X103150Y263139D01*
X103152Y263148D01*
X103156Y263155D01*
X103209Y263340D01*
X103264Y263525D01*
X103265Y263534D01*
X103268Y263542D01*
X103283Y263733D01*
X103301Y263926D01*
X103300Y263935D01*
X103301Y263944D01*
X103278Y264133D01*
X103257Y264326D01*
X103255Y264335D01*
X103254Y264343D01*
X103194Y264525D01*
X103136Y264710D01*
X103132Y264718D01*
X103129Y264726D01*
X103034Y264895D01*
X102941Y265062D01*
X102935Y265069D01*
X102931Y265077D01*
X102805Y265223D01*
X102681Y265369D01*
X102674Y265375D01*
X102668Y265382D01*
X102516Y265499D01*
X102365Y265619D01*
X102357Y265623D01*
X102350Y265628D01*
X102178Y265714D01*
X102006Y265801D01*
X101997Y265804D01*
X101989Y265808D01*
X101803Y265858D01*
X101618Y265909D01*
X101609Y265910D01*
X101600Y265912D01*
X101270Y265939D01*
X12192Y265939D01*
X12174Y265937D01*
X12156Y265939D01*
X11974Y265918D01*
X11791Y265899D01*
X11774Y265894D01*
X11757Y265892D01*
X11582Y265835D01*
X11406Y265781D01*
X11391Y265773D01*
X11374Y265767D01*
X11214Y265677D01*
X11052Y265589D01*
X11039Y265578D01*
X11023Y265569D01*
X10884Y265449D01*
X10743Y265332D01*
X10732Y265318D01*
X10718Y265306D01*
X10606Y265161D01*
X10491Y265018D01*
X10483Y265002D01*
X10472Y264988D01*
X10390Y264823D01*
X10305Y264661D01*
X10300Y264644D01*
X10292Y264628D01*
X10245Y264449D01*
X10194Y264274D01*
X10192Y264256D01*
X10188Y264239D01*
X10161Y263908D01*
X10161Y12192D01*
X10163Y12174D01*
X10161Y12156D01*
X10183Y11973D01*
X10201Y11791D01*
X10206Y11774D01*
X10208Y11757D01*
X10265Y11582D01*
X10319Y11406D01*
X10327Y11391D01*
X10333Y11374D01*
X10423Y11214D01*
X10511Y11052D01*
X10522Y11039D01*
X10531Y11023D01*
X10651Y10884D01*
X10768Y10743D01*
X10782Y10732D01*
X10794Y10718D01*
X10939Y10606D01*
X11082Y10491D01*
X11098Y10483D01*
X11112Y10472D01*
X11277Y10390D01*
X11439Y10305D01*
X11456Y10300D01*
X11472Y10292D01*
X11651Y10245D01*
X11826Y10194D01*
X11844Y10192D01*
X11861Y10188D01*
X12192Y10161D01*
X106680Y10161D01*
X106685Y10161D01*
G37*
G36*
X277903Y159309D02*
X277903Y159309D01*
X277912Y159309D01*
X278101Y159331D01*
X278294Y159352D01*
X278303Y159355D01*
X278311Y159356D01*
X278493Y159415D01*
X278678Y159473D01*
X278686Y159478D01*
X278694Y159481D01*
X278863Y159576D01*
X279030Y159668D01*
X279037Y159674D01*
X279045Y159678D01*
X279191Y159804D01*
X279337Y159929D01*
X279343Y159936D01*
X279350Y159942D01*
X279467Y160093D01*
X279587Y160245D01*
X279591Y160253D01*
X279596Y160260D01*
X279682Y160432D01*
X279769Y160604D01*
X279772Y160612D01*
X279776Y160620D01*
X279826Y160807D01*
X279877Y160991D01*
X279878Y161000D01*
X279880Y161009D01*
X279907Y161340D01*
X279907Y197308D01*
X279905Y197335D01*
X279907Y197362D01*
X279885Y197535D01*
X279867Y197709D01*
X279860Y197734D01*
X279856Y197761D01*
X279801Y197927D01*
X279749Y198094D01*
X279736Y198117D01*
X279728Y198143D01*
X279641Y198294D01*
X279557Y198448D01*
X279540Y198468D01*
X279527Y198492D01*
X279312Y198745D01*
X274945Y203112D01*
X274924Y203129D01*
X274906Y203150D01*
X274768Y203257D01*
X274633Y203367D01*
X274609Y203380D01*
X274588Y203396D01*
X274431Y203474D01*
X274277Y203556D01*
X274252Y203564D01*
X274228Y203576D01*
X274058Y203621D01*
X273891Y203671D01*
X273865Y203673D01*
X273839Y203680D01*
X273508Y203707D01*
X237540Y203707D01*
X237531Y203706D01*
X237522Y203707D01*
X237329Y203686D01*
X237139Y203667D01*
X237131Y203665D01*
X237122Y203664D01*
X236937Y203605D01*
X236754Y203549D01*
X236746Y203545D01*
X236738Y203542D01*
X236570Y203449D01*
X236400Y203357D01*
X236393Y203352D01*
X236385Y203347D01*
X236238Y203223D01*
X236091Y203100D01*
X236085Y203093D01*
X236078Y203087D01*
X235959Y202935D01*
X235839Y202786D01*
X235834Y202778D01*
X235829Y202771D01*
X235741Y202598D01*
X235653Y202429D01*
X235651Y202420D01*
X235647Y202412D01*
X235595Y202226D01*
X235542Y202042D01*
X235541Y202033D01*
X235539Y202024D01*
X235524Y201831D01*
X235509Y201640D01*
X235510Y201632D01*
X235509Y201623D01*
X235533Y201430D01*
X235556Y201241D01*
X235558Y201232D01*
X235560Y201223D01*
X235621Y201041D01*
X235681Y200858D01*
X235685Y200850D01*
X235688Y200842D01*
X235784Y200675D01*
X235878Y200507D01*
X235884Y200500D01*
X235889Y200493D01*
X236103Y200240D01*
X276440Y159903D01*
X276447Y159898D01*
X276452Y159891D01*
X276602Y159771D01*
X276751Y159648D01*
X276759Y159644D01*
X276766Y159639D01*
X276937Y159550D01*
X277107Y159460D01*
X277115Y159457D01*
X277123Y159453D01*
X277309Y159400D01*
X277493Y159345D01*
X277502Y159344D01*
X277510Y159342D01*
X277702Y159326D01*
X277894Y159309D01*
X277903Y159309D01*
G37*
G36*
X201703Y95809D02*
X201703Y95809D01*
X201712Y95809D01*
X201901Y95831D01*
X202094Y95852D01*
X202103Y95855D01*
X202111Y95856D01*
X202293Y95915D01*
X202478Y95973D01*
X202486Y95978D01*
X202494Y95981D01*
X202663Y96076D01*
X202830Y96168D01*
X202837Y96174D01*
X202845Y96178D01*
X202991Y96304D01*
X203137Y96429D01*
X203143Y96436D01*
X203150Y96442D01*
X203267Y96593D01*
X203387Y96745D01*
X203391Y96753D01*
X203396Y96760D01*
X203482Y96932D01*
X203569Y97104D01*
X203572Y97112D01*
X203576Y97120D01*
X203626Y97306D01*
X203677Y97491D01*
X203678Y97500D01*
X203680Y97509D01*
X203707Y97840D01*
X203707Y133808D01*
X203705Y133835D01*
X203707Y133862D01*
X203685Y134035D01*
X203667Y134209D01*
X203660Y134234D01*
X203656Y134261D01*
X203601Y134427D01*
X203549Y134594D01*
X203536Y134617D01*
X203528Y134643D01*
X203441Y134794D01*
X203357Y134948D01*
X203340Y134968D01*
X203327Y134992D01*
X203112Y135245D01*
X198745Y139612D01*
X198724Y139629D01*
X198706Y139650D01*
X198568Y139756D01*
X198433Y139867D01*
X198409Y139880D01*
X198388Y139896D01*
X198231Y139974D01*
X198077Y140056D01*
X198052Y140064D01*
X198028Y140076D01*
X197858Y140121D01*
X197691Y140171D01*
X197665Y140173D01*
X197639Y140180D01*
X197308Y140207D01*
X161340Y140207D01*
X161331Y140206D01*
X161322Y140207D01*
X161129Y140186D01*
X160939Y140167D01*
X160931Y140165D01*
X160922Y140164D01*
X160737Y140105D01*
X160554Y140049D01*
X160546Y140045D01*
X160538Y140042D01*
X160370Y139949D01*
X160200Y139857D01*
X160193Y139852D01*
X160185Y139847D01*
X160038Y139723D01*
X159891Y139600D01*
X159885Y139593D01*
X159878Y139587D01*
X159759Y139435D01*
X159639Y139286D01*
X159634Y139278D01*
X159629Y139271D01*
X159541Y139098D01*
X159453Y138929D01*
X159451Y138920D01*
X159447Y138912D01*
X159395Y138726D01*
X159342Y138542D01*
X159341Y138533D01*
X159339Y138524D01*
X159324Y138331D01*
X159309Y138140D01*
X159310Y138132D01*
X159309Y138123D01*
X159333Y137930D01*
X159356Y137741D01*
X159358Y137732D01*
X159360Y137723D01*
X159421Y137541D01*
X159481Y137358D01*
X159485Y137350D01*
X159488Y137342D01*
X159584Y137175D01*
X159678Y137007D01*
X159684Y137000D01*
X159689Y136993D01*
X159903Y136740D01*
X197121Y99522D01*
X200240Y96403D01*
X200247Y96398D01*
X200252Y96391D01*
X200402Y96271D01*
X200551Y96148D01*
X200559Y96144D01*
X200566Y96139D01*
X200736Y96050D01*
X200907Y95960D01*
X200916Y95957D01*
X200923Y95953D01*
X201108Y95900D01*
X201293Y95845D01*
X201302Y95844D01*
X201310Y95842D01*
X201501Y95826D01*
X201694Y95809D01*
X201703Y95809D01*
G37*
G36*
X182885Y10161D02*
X182885Y10161D01*
X182889Y10161D01*
X183083Y10181D01*
X183281Y10201D01*
X183285Y10202D01*
X183289Y10202D01*
X183476Y10261D01*
X183666Y10319D01*
X183670Y10321D01*
X183674Y10322D01*
X183847Y10417D01*
X184020Y10511D01*
X184023Y10513D01*
X184027Y10516D01*
X184180Y10644D01*
X184329Y10768D01*
X184332Y10772D01*
X184335Y10775D01*
X184458Y10929D01*
X184581Y11082D01*
X184583Y11086D01*
X184586Y11089D01*
X184676Y11264D01*
X184767Y11439D01*
X184768Y11444D01*
X184770Y11448D01*
X184823Y11635D01*
X184878Y11826D01*
X184878Y11831D01*
X184880Y11835D01*
X184895Y12028D01*
X184911Y12228D01*
X184910Y12232D01*
X184911Y12236D01*
X184887Y12430D01*
X184864Y12627D01*
X184863Y12632D01*
X184862Y12636D01*
X184801Y12821D01*
X184739Y13010D01*
X184737Y13014D01*
X184736Y13018D01*
X184638Y13190D01*
X184541Y13361D01*
X184538Y13364D01*
X184536Y13368D01*
X184405Y13519D01*
X184278Y13665D01*
X184275Y13668D01*
X184272Y13672D01*
X184115Y13792D01*
X183960Y13912D01*
X183956Y13914D01*
X183952Y13917D01*
X183657Y14069D01*
X180428Y15406D01*
X179236Y16598D01*
X179222Y16609D01*
X179211Y16623D01*
X179067Y16737D01*
X178925Y16853D01*
X178909Y16861D01*
X178895Y16872D01*
X178731Y16956D01*
X178569Y17042D01*
X178552Y17047D01*
X178536Y17055D01*
X178359Y17104D01*
X178183Y17156D01*
X178165Y17158D01*
X178148Y17163D01*
X177965Y17176D01*
X177782Y17193D01*
X177764Y17191D01*
X177747Y17192D01*
X177565Y17169D01*
X177382Y17149D01*
X177365Y17144D01*
X177347Y17142D01*
X177173Y17083D01*
X176998Y17028D01*
X176982Y17019D01*
X176966Y17014D01*
X176807Y16922D01*
X176646Y16833D01*
X176632Y16821D01*
X176617Y16813D01*
X176364Y16598D01*
X175172Y15406D01*
X171943Y14069D01*
X171939Y14067D01*
X171934Y14065D01*
X171762Y13972D01*
X171588Y13878D01*
X171584Y13876D01*
X171580Y13873D01*
X171432Y13749D01*
X171277Y13622D01*
X171275Y13619D01*
X171271Y13616D01*
X171148Y13463D01*
X171024Y13309D01*
X171022Y13305D01*
X171019Y13302D01*
X170929Y13129D01*
X170837Y12953D01*
X170835Y12949D01*
X170833Y12945D01*
X170779Y12756D01*
X170724Y12566D01*
X170723Y12562D01*
X170722Y12558D01*
X170706Y12360D01*
X170689Y12165D01*
X170689Y12161D01*
X170689Y12156D01*
X170712Y11962D01*
X170734Y11765D01*
X170735Y11761D01*
X170736Y11757D01*
X170796Y11571D01*
X170857Y11382D01*
X170859Y11378D01*
X170861Y11374D01*
X170958Y11201D01*
X171054Y11030D01*
X171056Y11027D01*
X171059Y11023D01*
X171187Y10874D01*
X171315Y10725D01*
X171319Y10722D01*
X171322Y10718D01*
X171477Y10598D01*
X171632Y10476D01*
X171636Y10474D01*
X171640Y10472D01*
X171818Y10383D01*
X171992Y10296D01*
X171996Y10294D01*
X172000Y10292D01*
X172192Y10241D01*
X172380Y10189D01*
X172385Y10189D01*
X172389Y10188D01*
X172720Y10161D01*
X182880Y10161D01*
X182885Y10161D01*
G37*
G36*
X132085Y10161D02*
X132085Y10161D01*
X132089Y10161D01*
X132283Y10181D01*
X132481Y10201D01*
X132485Y10202D01*
X132489Y10202D01*
X132676Y10261D01*
X132866Y10319D01*
X132870Y10321D01*
X132874Y10322D01*
X133047Y10417D01*
X133220Y10511D01*
X133223Y10513D01*
X133227Y10516D01*
X133380Y10644D01*
X133529Y10768D01*
X133532Y10772D01*
X133535Y10775D01*
X133658Y10929D01*
X133781Y11082D01*
X133783Y11086D01*
X133786Y11089D01*
X133876Y11264D01*
X133967Y11439D01*
X133968Y11444D01*
X133970Y11448D01*
X134023Y11635D01*
X134078Y11826D01*
X134078Y11831D01*
X134080Y11835D01*
X134095Y12028D01*
X134111Y12228D01*
X134110Y12232D01*
X134111Y12236D01*
X134087Y12430D01*
X134064Y12627D01*
X134063Y12632D01*
X134062Y12636D01*
X134001Y12821D01*
X133939Y13010D01*
X133937Y13014D01*
X133936Y13018D01*
X133838Y13190D01*
X133741Y13361D01*
X133738Y13364D01*
X133736Y13368D01*
X133605Y13519D01*
X133478Y13665D01*
X133475Y13668D01*
X133472Y13672D01*
X133315Y13792D01*
X133160Y13912D01*
X133156Y13914D01*
X133152Y13917D01*
X132857Y14069D01*
X129628Y15406D01*
X128436Y16598D01*
X128422Y16609D01*
X128411Y16623D01*
X128267Y16737D01*
X128125Y16853D01*
X128109Y16861D01*
X128095Y16872D01*
X127931Y16956D01*
X127769Y17042D01*
X127752Y17047D01*
X127736Y17055D01*
X127559Y17104D01*
X127383Y17156D01*
X127365Y17158D01*
X127348Y17163D01*
X127165Y17176D01*
X126982Y17193D01*
X126964Y17191D01*
X126947Y17192D01*
X126765Y17169D01*
X126582Y17149D01*
X126565Y17144D01*
X126547Y17142D01*
X126373Y17083D01*
X126198Y17028D01*
X126182Y17019D01*
X126166Y17014D01*
X126007Y16922D01*
X125846Y16833D01*
X125832Y16821D01*
X125817Y16813D01*
X125564Y16598D01*
X124372Y15406D01*
X121143Y14069D01*
X121139Y14067D01*
X121134Y14065D01*
X120962Y13972D01*
X120788Y13878D01*
X120784Y13876D01*
X120780Y13873D01*
X120632Y13749D01*
X120477Y13622D01*
X120475Y13619D01*
X120471Y13616D01*
X120348Y13463D01*
X120224Y13309D01*
X120222Y13305D01*
X120219Y13302D01*
X120129Y13129D01*
X120037Y12953D01*
X120035Y12949D01*
X120033Y12945D01*
X119979Y12756D01*
X119924Y12566D01*
X119923Y12562D01*
X119922Y12558D01*
X119906Y12360D01*
X119889Y12165D01*
X119889Y12161D01*
X119889Y12156D01*
X119912Y11962D01*
X119934Y11765D01*
X119935Y11761D01*
X119936Y11757D01*
X119996Y11571D01*
X120057Y11382D01*
X120059Y11378D01*
X120061Y11374D01*
X120158Y11201D01*
X120254Y11030D01*
X120256Y11027D01*
X120259Y11023D01*
X120387Y10874D01*
X120515Y10725D01*
X120519Y10722D01*
X120522Y10718D01*
X120677Y10598D01*
X120832Y10476D01*
X120836Y10474D01*
X120840Y10472D01*
X121018Y10383D01*
X121192Y10296D01*
X121196Y10294D01*
X121200Y10292D01*
X121392Y10241D01*
X121580Y10189D01*
X121585Y10189D01*
X121589Y10188D01*
X121920Y10161D01*
X132080Y10161D01*
X132085Y10161D01*
G37*
G36*
X157485Y10161D02*
X157485Y10161D01*
X157489Y10161D01*
X157683Y10181D01*
X157881Y10201D01*
X157885Y10202D01*
X157889Y10202D01*
X158076Y10261D01*
X158266Y10319D01*
X158270Y10321D01*
X158274Y10322D01*
X158447Y10417D01*
X158620Y10511D01*
X158623Y10513D01*
X158627Y10516D01*
X158780Y10644D01*
X158929Y10768D01*
X158932Y10772D01*
X158935Y10775D01*
X159058Y10929D01*
X159181Y11082D01*
X159183Y11086D01*
X159186Y11089D01*
X159276Y11264D01*
X159367Y11439D01*
X159368Y11444D01*
X159370Y11448D01*
X159423Y11635D01*
X159478Y11826D01*
X159478Y11831D01*
X159480Y11835D01*
X159495Y12028D01*
X159511Y12228D01*
X159510Y12232D01*
X159511Y12236D01*
X159487Y12430D01*
X159464Y12627D01*
X159463Y12632D01*
X159462Y12636D01*
X159401Y12821D01*
X159339Y13010D01*
X159337Y13014D01*
X159336Y13018D01*
X159238Y13190D01*
X159141Y13361D01*
X159138Y13364D01*
X159136Y13368D01*
X159005Y13519D01*
X158878Y13665D01*
X158875Y13668D01*
X158872Y13672D01*
X158715Y13792D01*
X158560Y13912D01*
X158556Y13914D01*
X158552Y13917D01*
X158257Y14069D01*
X155028Y15406D01*
X153836Y16598D01*
X153822Y16609D01*
X153811Y16623D01*
X153667Y16737D01*
X153525Y16853D01*
X153509Y16861D01*
X153495Y16872D01*
X153331Y16956D01*
X153169Y17042D01*
X153152Y17047D01*
X153136Y17055D01*
X152959Y17104D01*
X152783Y17156D01*
X152765Y17158D01*
X152748Y17163D01*
X152565Y17176D01*
X152382Y17193D01*
X152364Y17191D01*
X152347Y17192D01*
X152165Y17169D01*
X151982Y17149D01*
X151965Y17144D01*
X151947Y17142D01*
X151773Y17083D01*
X151598Y17028D01*
X151582Y17019D01*
X151566Y17014D01*
X151407Y16922D01*
X151246Y16833D01*
X151232Y16821D01*
X151217Y16813D01*
X150964Y16598D01*
X149772Y15406D01*
X146543Y14069D01*
X146539Y14067D01*
X146534Y14065D01*
X146362Y13972D01*
X146188Y13878D01*
X146184Y13876D01*
X146180Y13873D01*
X146032Y13749D01*
X145877Y13622D01*
X145875Y13619D01*
X145871Y13616D01*
X145748Y13463D01*
X145624Y13309D01*
X145622Y13305D01*
X145619Y13302D01*
X145529Y13129D01*
X145437Y12953D01*
X145435Y12949D01*
X145433Y12945D01*
X145379Y12756D01*
X145324Y12566D01*
X145323Y12562D01*
X145322Y12558D01*
X145306Y12360D01*
X145289Y12165D01*
X145289Y12161D01*
X145289Y12156D01*
X145312Y11962D01*
X145334Y11765D01*
X145335Y11761D01*
X145336Y11757D01*
X145396Y11571D01*
X145457Y11382D01*
X145459Y11378D01*
X145461Y11374D01*
X145558Y11201D01*
X145654Y11030D01*
X145656Y11027D01*
X145659Y11023D01*
X145787Y10874D01*
X145915Y10725D01*
X145919Y10722D01*
X145922Y10718D01*
X146077Y10598D01*
X146232Y10476D01*
X146236Y10474D01*
X146240Y10472D01*
X146418Y10383D01*
X146592Y10296D01*
X146596Y10294D01*
X146600Y10292D01*
X146792Y10241D01*
X146980Y10189D01*
X146985Y10189D01*
X146989Y10188D01*
X147320Y10161D01*
X157480Y10161D01*
X157485Y10161D01*
G37*
G36*
X284485Y10161D02*
X284485Y10161D01*
X284489Y10161D01*
X284683Y10181D01*
X284881Y10201D01*
X284885Y10202D01*
X284889Y10202D01*
X285076Y10261D01*
X285266Y10319D01*
X285270Y10321D01*
X285274Y10322D01*
X285447Y10417D01*
X285620Y10511D01*
X285623Y10513D01*
X285627Y10516D01*
X285780Y10644D01*
X285929Y10768D01*
X285932Y10772D01*
X285935Y10775D01*
X286058Y10929D01*
X286181Y11082D01*
X286183Y11086D01*
X286186Y11089D01*
X286276Y11264D01*
X286367Y11439D01*
X286368Y11444D01*
X286370Y11448D01*
X286423Y11635D01*
X286478Y11826D01*
X286478Y11831D01*
X286480Y11835D01*
X286495Y12028D01*
X286511Y12228D01*
X286510Y12232D01*
X286511Y12236D01*
X286487Y12430D01*
X286464Y12627D01*
X286463Y12632D01*
X286462Y12636D01*
X286401Y12821D01*
X286339Y13010D01*
X286337Y13014D01*
X286336Y13018D01*
X286238Y13190D01*
X286141Y13361D01*
X286138Y13364D01*
X286136Y13368D01*
X286005Y13519D01*
X285878Y13665D01*
X285875Y13668D01*
X285872Y13672D01*
X285715Y13792D01*
X285560Y13912D01*
X285556Y13914D01*
X285552Y13917D01*
X285257Y14069D01*
X282028Y15406D01*
X280836Y16598D01*
X280822Y16609D01*
X280811Y16623D01*
X280667Y16737D01*
X280525Y16853D01*
X280509Y16861D01*
X280495Y16872D01*
X280331Y16956D01*
X280169Y17042D01*
X280152Y17047D01*
X280136Y17055D01*
X279959Y17104D01*
X279783Y17156D01*
X279765Y17158D01*
X279748Y17163D01*
X279565Y17176D01*
X279382Y17193D01*
X279364Y17191D01*
X279347Y17192D01*
X279165Y17169D01*
X278982Y17149D01*
X278965Y17144D01*
X278947Y17142D01*
X278773Y17083D01*
X278598Y17028D01*
X278582Y17019D01*
X278566Y17014D01*
X278407Y16922D01*
X278246Y16833D01*
X278232Y16821D01*
X278217Y16813D01*
X277964Y16598D01*
X276772Y15406D01*
X273543Y14069D01*
X273539Y14067D01*
X273534Y14065D01*
X273362Y13972D01*
X273188Y13878D01*
X273184Y13876D01*
X273180Y13873D01*
X273032Y13749D01*
X272877Y13622D01*
X272875Y13619D01*
X272871Y13616D01*
X272748Y13463D01*
X272624Y13309D01*
X272622Y13305D01*
X272619Y13302D01*
X272529Y13129D01*
X272437Y12953D01*
X272435Y12949D01*
X272433Y12945D01*
X272379Y12756D01*
X272324Y12566D01*
X272323Y12562D01*
X272322Y12558D01*
X272306Y12360D01*
X272289Y12165D01*
X272289Y12161D01*
X272289Y12156D01*
X272312Y11962D01*
X272334Y11765D01*
X272335Y11761D01*
X272336Y11757D01*
X272396Y11571D01*
X272457Y11382D01*
X272459Y11378D01*
X272461Y11374D01*
X272558Y11201D01*
X272654Y11030D01*
X272656Y11027D01*
X272659Y11023D01*
X272787Y10874D01*
X272915Y10725D01*
X272919Y10722D01*
X272922Y10718D01*
X273077Y10598D01*
X273232Y10476D01*
X273236Y10474D01*
X273240Y10472D01*
X273418Y10383D01*
X273592Y10296D01*
X273596Y10294D01*
X273600Y10292D01*
X273792Y10241D01*
X273980Y10189D01*
X273985Y10189D01*
X273989Y10188D01*
X274320Y10161D01*
X284480Y10161D01*
X284485Y10161D01*
G37*
G36*
X259085Y10161D02*
X259085Y10161D01*
X259089Y10161D01*
X259283Y10181D01*
X259481Y10201D01*
X259485Y10202D01*
X259489Y10202D01*
X259676Y10261D01*
X259866Y10319D01*
X259870Y10321D01*
X259874Y10322D01*
X260047Y10417D01*
X260220Y10511D01*
X260223Y10513D01*
X260227Y10516D01*
X260380Y10644D01*
X260529Y10768D01*
X260532Y10772D01*
X260535Y10775D01*
X260658Y10929D01*
X260781Y11082D01*
X260783Y11086D01*
X260786Y11089D01*
X260876Y11264D01*
X260967Y11439D01*
X260968Y11444D01*
X260970Y11448D01*
X261023Y11635D01*
X261078Y11826D01*
X261078Y11831D01*
X261080Y11835D01*
X261095Y12028D01*
X261111Y12228D01*
X261110Y12232D01*
X261111Y12236D01*
X261087Y12430D01*
X261064Y12627D01*
X261063Y12632D01*
X261062Y12636D01*
X261001Y12821D01*
X260939Y13010D01*
X260937Y13014D01*
X260936Y13018D01*
X260838Y13190D01*
X260741Y13361D01*
X260738Y13364D01*
X260736Y13368D01*
X260605Y13519D01*
X260478Y13665D01*
X260475Y13668D01*
X260472Y13672D01*
X260315Y13792D01*
X260160Y13912D01*
X260156Y13914D01*
X260152Y13917D01*
X259857Y14069D01*
X256628Y15406D01*
X255436Y16598D01*
X255422Y16609D01*
X255411Y16623D01*
X255267Y16737D01*
X255125Y16853D01*
X255109Y16861D01*
X255095Y16872D01*
X254931Y16956D01*
X254769Y17042D01*
X254752Y17047D01*
X254736Y17055D01*
X254559Y17104D01*
X254383Y17156D01*
X254365Y17158D01*
X254348Y17163D01*
X254165Y17176D01*
X253982Y17193D01*
X253964Y17191D01*
X253947Y17192D01*
X253765Y17169D01*
X253582Y17149D01*
X253565Y17144D01*
X253547Y17142D01*
X253373Y17083D01*
X253198Y17028D01*
X253182Y17019D01*
X253166Y17014D01*
X253007Y16922D01*
X252846Y16833D01*
X252832Y16821D01*
X252817Y16813D01*
X252564Y16598D01*
X251372Y15406D01*
X248143Y14069D01*
X248139Y14067D01*
X248134Y14065D01*
X247962Y13972D01*
X247788Y13878D01*
X247784Y13876D01*
X247780Y13873D01*
X247632Y13749D01*
X247477Y13622D01*
X247475Y13619D01*
X247471Y13616D01*
X247348Y13463D01*
X247224Y13309D01*
X247222Y13305D01*
X247219Y13302D01*
X247129Y13129D01*
X247037Y12953D01*
X247035Y12949D01*
X247033Y12945D01*
X246979Y12756D01*
X246924Y12566D01*
X246923Y12562D01*
X246922Y12558D01*
X246906Y12360D01*
X246889Y12165D01*
X246889Y12161D01*
X246889Y12156D01*
X246912Y11962D01*
X246934Y11765D01*
X246935Y11761D01*
X246936Y11757D01*
X246996Y11571D01*
X247057Y11382D01*
X247059Y11378D01*
X247061Y11374D01*
X247158Y11201D01*
X247254Y11030D01*
X247256Y11027D01*
X247259Y11023D01*
X247387Y10874D01*
X247515Y10725D01*
X247519Y10722D01*
X247522Y10718D01*
X247677Y10598D01*
X247832Y10476D01*
X247836Y10474D01*
X247840Y10472D01*
X248018Y10383D01*
X248192Y10296D01*
X248196Y10294D01*
X248200Y10292D01*
X248392Y10241D01*
X248580Y10189D01*
X248585Y10189D01*
X248589Y10188D01*
X248920Y10161D01*
X259080Y10161D01*
X259085Y10161D01*
G37*
G36*
X208285Y10161D02*
X208285Y10161D01*
X208289Y10161D01*
X208483Y10181D01*
X208681Y10201D01*
X208685Y10202D01*
X208689Y10202D01*
X208876Y10261D01*
X209066Y10319D01*
X209070Y10321D01*
X209074Y10322D01*
X209247Y10417D01*
X209420Y10511D01*
X209423Y10513D01*
X209427Y10516D01*
X209580Y10644D01*
X209729Y10768D01*
X209732Y10772D01*
X209735Y10775D01*
X209858Y10929D01*
X209981Y11082D01*
X209983Y11086D01*
X209986Y11089D01*
X210076Y11264D01*
X210167Y11439D01*
X210168Y11444D01*
X210170Y11448D01*
X210223Y11635D01*
X210278Y11826D01*
X210278Y11831D01*
X210280Y11835D01*
X210295Y12028D01*
X210311Y12228D01*
X210310Y12232D01*
X210311Y12236D01*
X210287Y12430D01*
X210264Y12627D01*
X210263Y12632D01*
X210262Y12636D01*
X210201Y12821D01*
X210139Y13010D01*
X210137Y13014D01*
X210136Y13018D01*
X210038Y13190D01*
X209941Y13361D01*
X209938Y13364D01*
X209936Y13368D01*
X209805Y13519D01*
X209678Y13665D01*
X209675Y13668D01*
X209672Y13672D01*
X209515Y13792D01*
X209360Y13912D01*
X209356Y13914D01*
X209352Y13917D01*
X209057Y14069D01*
X205828Y15406D01*
X204636Y16598D01*
X204622Y16609D01*
X204611Y16623D01*
X204467Y16737D01*
X204325Y16853D01*
X204309Y16861D01*
X204295Y16872D01*
X204131Y16956D01*
X203969Y17042D01*
X203952Y17047D01*
X203936Y17055D01*
X203759Y17104D01*
X203583Y17156D01*
X203565Y17158D01*
X203548Y17163D01*
X203365Y17176D01*
X203182Y17193D01*
X203164Y17191D01*
X203147Y17192D01*
X202965Y17169D01*
X202782Y17149D01*
X202765Y17144D01*
X202747Y17142D01*
X202573Y17083D01*
X202398Y17028D01*
X202382Y17019D01*
X202366Y17014D01*
X202207Y16922D01*
X202046Y16833D01*
X202032Y16821D01*
X202017Y16813D01*
X201764Y16598D01*
X200572Y15406D01*
X197343Y14069D01*
X197339Y14067D01*
X197334Y14065D01*
X197162Y13972D01*
X196988Y13878D01*
X196984Y13876D01*
X196980Y13873D01*
X196832Y13749D01*
X196677Y13622D01*
X196675Y13619D01*
X196671Y13616D01*
X196548Y13463D01*
X196424Y13309D01*
X196422Y13305D01*
X196419Y13302D01*
X196329Y13129D01*
X196237Y12953D01*
X196235Y12949D01*
X196233Y12945D01*
X196179Y12756D01*
X196124Y12566D01*
X196123Y12562D01*
X196122Y12558D01*
X196106Y12360D01*
X196089Y12165D01*
X196089Y12161D01*
X196089Y12156D01*
X196112Y11962D01*
X196134Y11765D01*
X196135Y11761D01*
X196136Y11757D01*
X196196Y11571D01*
X196257Y11382D01*
X196259Y11378D01*
X196261Y11374D01*
X196358Y11201D01*
X196454Y11030D01*
X196456Y11027D01*
X196459Y11023D01*
X196587Y10874D01*
X196715Y10725D01*
X196719Y10722D01*
X196722Y10718D01*
X196877Y10598D01*
X197032Y10476D01*
X197036Y10474D01*
X197040Y10472D01*
X197218Y10383D01*
X197392Y10296D01*
X197396Y10294D01*
X197400Y10292D01*
X197592Y10241D01*
X197780Y10189D01*
X197785Y10189D01*
X197789Y10188D01*
X198120Y10161D01*
X208280Y10161D01*
X208285Y10161D01*
G37*
G36*
X233685Y10161D02*
X233685Y10161D01*
X233689Y10161D01*
X233883Y10181D01*
X234081Y10201D01*
X234085Y10202D01*
X234089Y10202D01*
X234276Y10261D01*
X234466Y10319D01*
X234470Y10321D01*
X234474Y10322D01*
X234647Y10417D01*
X234820Y10511D01*
X234823Y10513D01*
X234827Y10516D01*
X234980Y10644D01*
X235129Y10768D01*
X235132Y10772D01*
X235135Y10775D01*
X235258Y10929D01*
X235381Y11082D01*
X235383Y11086D01*
X235386Y11089D01*
X235476Y11264D01*
X235567Y11439D01*
X235568Y11444D01*
X235570Y11448D01*
X235623Y11635D01*
X235678Y11826D01*
X235678Y11831D01*
X235680Y11835D01*
X235695Y12028D01*
X235711Y12228D01*
X235710Y12232D01*
X235711Y12236D01*
X235687Y12430D01*
X235664Y12627D01*
X235663Y12632D01*
X235662Y12636D01*
X235601Y12821D01*
X235539Y13010D01*
X235537Y13014D01*
X235536Y13018D01*
X235438Y13190D01*
X235341Y13361D01*
X235338Y13364D01*
X235336Y13368D01*
X235205Y13519D01*
X235078Y13665D01*
X235075Y13668D01*
X235072Y13672D01*
X234915Y13792D01*
X234760Y13912D01*
X234756Y13914D01*
X234752Y13917D01*
X234457Y14069D01*
X231228Y15406D01*
X230036Y16598D01*
X230022Y16609D01*
X230011Y16623D01*
X229867Y16737D01*
X229725Y16853D01*
X229709Y16861D01*
X229695Y16872D01*
X229531Y16956D01*
X229369Y17042D01*
X229352Y17047D01*
X229336Y17055D01*
X229159Y17104D01*
X228983Y17156D01*
X228965Y17158D01*
X228948Y17163D01*
X228765Y17176D01*
X228582Y17193D01*
X228564Y17191D01*
X228547Y17192D01*
X228365Y17169D01*
X228182Y17149D01*
X228165Y17144D01*
X228147Y17142D01*
X227973Y17083D01*
X227798Y17028D01*
X227782Y17019D01*
X227766Y17014D01*
X227607Y16922D01*
X227446Y16833D01*
X227432Y16821D01*
X227417Y16813D01*
X227164Y16598D01*
X225972Y15406D01*
X222743Y14069D01*
X222739Y14067D01*
X222734Y14065D01*
X222562Y13972D01*
X222388Y13878D01*
X222384Y13876D01*
X222380Y13873D01*
X222232Y13749D01*
X222077Y13622D01*
X222075Y13619D01*
X222071Y13616D01*
X221948Y13463D01*
X221824Y13309D01*
X221822Y13305D01*
X221819Y13302D01*
X221729Y13129D01*
X221637Y12953D01*
X221635Y12949D01*
X221633Y12945D01*
X221579Y12756D01*
X221524Y12566D01*
X221523Y12562D01*
X221522Y12558D01*
X221506Y12360D01*
X221489Y12165D01*
X221489Y12161D01*
X221489Y12156D01*
X221512Y11962D01*
X221534Y11765D01*
X221535Y11761D01*
X221536Y11757D01*
X221596Y11571D01*
X221657Y11382D01*
X221659Y11378D01*
X221661Y11374D01*
X221758Y11201D01*
X221854Y11030D01*
X221856Y11027D01*
X221859Y11023D01*
X221987Y10874D01*
X222115Y10725D01*
X222119Y10722D01*
X222122Y10718D01*
X222277Y10598D01*
X222432Y10476D01*
X222436Y10474D01*
X222440Y10472D01*
X222618Y10383D01*
X222792Y10296D01*
X222796Y10294D01*
X222800Y10292D01*
X222992Y10241D01*
X223180Y10189D01*
X223185Y10189D01*
X223189Y10188D01*
X223520Y10161D01*
X233680Y10161D01*
X233685Y10161D01*
G37*
D10*
X114300Y45720D02*
X114300Y30480D01*
X139700Y30480D02*
X139700Y45720D01*
X165100Y45720D02*
X165100Y30480D01*
X190500Y30480D02*
X190500Y45720D01*
X215900Y45720D02*
X215900Y30480D01*
X241300Y30480D02*
X241300Y45720D01*
X266700Y45720D02*
X266700Y30480D01*
X292100Y30480D02*
X292100Y45720D01*
X292100Y233680D02*
X292100Y248920D01*
X266700Y248920D02*
X266700Y233680D01*
X241300Y233680D02*
X241300Y248920D01*
X215900Y248920D02*
X215900Y233680D01*
X190500Y233680D02*
X190500Y248920D01*
X165100Y248920D02*
X165100Y233680D01*
X139700Y233680D02*
X139700Y248920D01*
X114300Y248920D02*
X114300Y233680D01*
D11*
X95504Y228600D02*
X82296Y228600D01*
X82296Y203200D02*
X95504Y203200D01*
X95504Y177800D02*
X82296Y177800D01*
X82296Y152400D02*
X95504Y152400D01*
X95504Y127000D02*
X82296Y127000D01*
X82296Y101600D02*
X95504Y101600D01*
X95504Y76200D02*
X82296Y76200D01*
X82296Y50800D02*
X95504Y50800D01*
D12*
X292100Y38100D02*
X292100Y203200D01*
X279400Y215900D01*
X127000Y215900D01*
X114300Y228600D01*
X114300Y241300D01*
X101600Y241300D02*
X88900Y228600D01*
X101600Y241300D02*
X114300Y241300D01*
X266700Y152400D02*
X266700Y38100D01*
X266700Y152400D02*
X215900Y203200D01*
X88900Y203200D01*
X241300Y152400D02*
X241300Y38100D01*
X241300Y152400D02*
X215900Y177800D01*
X88900Y177800D01*
X215900Y139700D02*
X215900Y38100D01*
X215900Y139700D02*
X203200Y152400D01*
X88900Y152400D01*
X88900Y127000D02*
X152400Y127000D01*
X190500Y88900D01*
X190500Y38100D01*
X139700Y101600D02*
X88900Y101600D01*
X139700Y101600D02*
X165100Y76200D01*
X165100Y38100D01*
X127000Y76200D02*
X88900Y76200D01*
X127000Y76200D02*
X139700Y63500D01*
X139700Y38100D01*
M02*
