M48
;GenerationSoftware,Autodesk,EAGLE,9.0.0*%
;CreationDate,2019-08-08T19:07:45Z*%
FMAT,2
ICI,OFF
METRIC,TZ,000.000
T2C0.813
T1C1.016
%
G90
M71
T1
X11430Y3810
X13970Y3810
X16510Y3810
X19050Y3810
X21590Y3810
X24130Y3810
X26670Y3810
X29210Y3810
X29210Y24130
X26670Y24130
X24130Y24130
X21590Y24130
X19050Y24130
X16510Y24130
X13970Y24130
X11430Y24130
T2
X8890Y22860
X8890Y20320
X8890Y17780
X8890Y15240
X8890Y12700
X8890Y10160
X8890Y7620
X8890Y5080
M30