G04 EAGLE Gerber X2 export*
G04 #@! %TF.Part,Single*
G04 #@! %TF.FileFunction,Legend,Top,1*
G04 #@! %TF.FilePolarity,Positive*
G04 #@! %TF.GenerationSoftware,Autodesk,EAGLE,9.0.0*
G04 #@! %TF.CreationDate,2019-08-08T19:07:45Z*
G75*
%MOMM*%
%FSLAX34Y34*%
%LPD*%
%AMOC8*
5,1,8,0,0,1.08239X$1,22.5*%
G01*
%ADD10C,0.152400*%
%ADD11C,0.660400*%
%ADD12C,0.127000*%
%ADD13R,0.660400X0.762000*%
%ADD14R,0.660400X0.660400*%
%ADD15C,0.050800*%


D10*
X101600Y22860D02*
X101600Y-5080D01*
X101600Y22860D02*
X127000Y22860D01*
X127000Y-5080D02*
X101600Y-5080D01*
X152400Y-5080D02*
X152400Y22860D01*
X152400Y-5080D02*
X177800Y-5080D01*
X127000Y-5080D02*
X127000Y22860D01*
X152400Y22860D01*
X152400Y-5080D02*
X127000Y-5080D01*
D11*
X165100Y-12700D02*
X165100Y-59690D01*
X139700Y-59690D02*
X139700Y-12700D01*
X114300Y-12700D02*
X114300Y-59690D01*
D10*
X152400Y22860D02*
X177800Y22860D01*
X203200Y22860D01*
X203200Y-5080D01*
X203200Y22860D02*
X228600Y22860D01*
X228600Y-5080D01*
X203200Y-5080D01*
X177800Y-5080D02*
X177800Y22860D01*
X177800Y-5080D02*
X203200Y-5080D01*
X228600Y22860D02*
X254000Y22860D01*
X254000Y-5080D02*
X228600Y-5080D01*
X279400Y-5080D02*
X279400Y22860D01*
X304800Y22860D01*
X304800Y-5080D01*
X279400Y-5080D01*
X254000Y-5080D02*
X254000Y22860D01*
X279400Y22860D01*
X279400Y-5080D02*
X254000Y-5080D01*
D11*
X292100Y-12700D02*
X292100Y-59690D01*
X266700Y-59690D02*
X266700Y-12700D01*
X241300Y-12700D02*
X241300Y-59690D01*
X215900Y-59690D02*
X215900Y-12700D01*
X190500Y-12700D02*
X190500Y-59690D01*
D12*
X286375Y10534D02*
X290189Y6721D01*
X286375Y10534D02*
X297815Y10534D01*
X297815Y6721D02*
X297815Y14348D01*
X272415Y14348D02*
X272415Y6721D01*
X264789Y14348D01*
X262882Y14348D01*
X260975Y12441D01*
X260975Y8628D01*
X262882Y6721D01*
X237482Y6721D02*
X235575Y8628D01*
X235575Y12441D01*
X237482Y14348D01*
X239389Y14348D01*
X241295Y12441D01*
X241295Y10534D01*
X241295Y12441D02*
X243202Y14348D01*
X245108Y14348D01*
X247015Y12441D01*
X247015Y8628D01*
X245108Y6721D01*
X221615Y12441D02*
X210175Y12441D01*
X215895Y6721D01*
X215895Y14348D01*
X184775Y14348D02*
X184775Y6721D01*
X190495Y6721D01*
X188589Y10534D01*
X188589Y12441D01*
X190495Y14348D01*
X194308Y14348D01*
X196215Y12441D01*
X196215Y8628D01*
X194308Y6721D01*
X161282Y10534D02*
X159375Y14348D01*
X161282Y10534D02*
X165095Y6721D01*
X168908Y6721D01*
X170815Y8628D01*
X170815Y12441D01*
X168908Y14348D01*
X167002Y14348D01*
X165095Y12441D01*
X165095Y6721D01*
X133975Y6721D02*
X133975Y14348D01*
X135882Y14348D01*
X143508Y6721D01*
X145415Y6721D01*
X110482Y6721D02*
X108575Y8628D01*
X108575Y12441D01*
X110482Y14348D01*
X112389Y14348D01*
X114295Y12441D01*
X116202Y14348D01*
X118108Y14348D01*
X120015Y12441D01*
X120015Y8628D01*
X118108Y6721D01*
X116202Y6721D01*
X114295Y8628D01*
X112389Y6721D01*
X110482Y6721D01*
X114295Y8628D02*
X114295Y12441D01*
D13*
X165100Y-8890D03*
X139700Y-8890D03*
X114300Y-8890D03*
X292100Y-8890D03*
X266700Y-8890D03*
X241300Y-8890D03*
X215900Y-8890D03*
X190500Y-8890D03*
D14*
X114300Y26162D03*
X139700Y26162D03*
X165100Y26162D03*
X190500Y26162D03*
X215900Y26162D03*
X241300Y26162D03*
X266700Y26162D03*
X292100Y26162D03*
D10*
X304800Y256540D02*
X304800Y284480D01*
X304800Y256540D02*
X279400Y256540D01*
X279400Y284480D02*
X304800Y284480D01*
X254000Y284480D02*
X254000Y256540D01*
X254000Y284480D02*
X228600Y284480D01*
X279400Y284480D02*
X279400Y256540D01*
X254000Y256540D01*
X254000Y284480D02*
X279400Y284480D01*
D11*
X241300Y292100D02*
X241300Y339090D01*
X266700Y339090D02*
X266700Y292100D01*
X292100Y292100D02*
X292100Y339090D01*
D10*
X254000Y256540D02*
X228600Y256540D01*
X203200Y256540D01*
X203200Y284480D01*
X203200Y256540D02*
X177800Y256540D01*
X177800Y284480D01*
X203200Y284480D01*
X228600Y284480D02*
X228600Y256540D01*
X228600Y284480D02*
X203200Y284480D01*
X177800Y256540D02*
X152400Y256540D01*
X152400Y284480D02*
X177800Y284480D01*
X127000Y284480D02*
X127000Y256540D01*
X101600Y256540D01*
X101600Y284480D01*
X127000Y284480D01*
X152400Y284480D02*
X152400Y256540D01*
X127000Y256540D01*
X127000Y284480D02*
X152400Y284480D01*
D11*
X114300Y292100D02*
X114300Y339090D01*
X139700Y339090D02*
X139700Y292100D01*
X165100Y292100D02*
X165100Y339090D01*
X190500Y339090D02*
X190500Y292100D01*
X215900Y292100D02*
X215900Y339090D01*
D12*
X112389Y262255D02*
X108575Y266068D01*
X120015Y266068D01*
X120015Y262255D02*
X120015Y269882D01*
X145415Y269882D02*
X145415Y262255D01*
X137789Y269882D01*
X135882Y269882D01*
X133975Y267975D01*
X133975Y264162D01*
X135882Y262255D01*
X159375Y264162D02*
X161282Y262255D01*
X159375Y264162D02*
X159375Y267975D01*
X161282Y269882D01*
X163189Y269882D01*
X165095Y267975D01*
X165095Y266068D01*
X165095Y267975D02*
X167002Y269882D01*
X168908Y269882D01*
X170815Y267975D01*
X170815Y264162D01*
X168908Y262255D01*
X184775Y267975D02*
X196215Y267975D01*
X190495Y262255D02*
X184775Y267975D01*
X190495Y269882D02*
X190495Y262255D01*
X210175Y262255D02*
X210175Y269882D01*
X210175Y262255D02*
X215895Y262255D01*
X213989Y266068D01*
X213989Y267975D01*
X215895Y269882D01*
X219708Y269882D01*
X221615Y267975D01*
X221615Y264162D01*
X219708Y262255D01*
X235575Y269882D02*
X237482Y266068D01*
X241295Y262255D01*
X245108Y262255D01*
X247015Y264162D01*
X247015Y267975D01*
X245108Y269882D01*
X243202Y269882D01*
X241295Y267975D01*
X241295Y262255D01*
X260975Y262255D02*
X260975Y269882D01*
X262882Y269882D01*
X270508Y262255D01*
X272415Y262255D01*
X286375Y264162D02*
X288282Y262255D01*
X286375Y264162D02*
X286375Y267975D01*
X288282Y269882D01*
X290189Y269882D01*
X292095Y267975D01*
X294002Y269882D01*
X295908Y269882D01*
X297815Y267975D01*
X297815Y264162D01*
X295908Y262255D01*
X294002Y262255D01*
X292095Y264162D01*
X290189Y262255D01*
X288282Y262255D01*
X292095Y264162D02*
X292095Y267975D01*
D13*
X241300Y288290D03*
X266700Y288290D03*
X292100Y288290D03*
X114300Y288290D03*
X139700Y288290D03*
X165100Y288290D03*
X190500Y288290D03*
X215900Y288290D03*
D14*
X292100Y253238D03*
X266700Y253238D03*
X241300Y253238D03*
X215900Y253238D03*
X190500Y253238D03*
X165100Y253238D03*
X139700Y253238D03*
X114300Y253238D03*
D10*
X78740Y38100D02*
X73660Y38100D01*
X0Y38100D01*
X0Y59690D01*
X0Y63500D01*
X0Y67310D01*
X0Y85090D01*
X0Y88900D01*
X0Y92710D01*
X0Y110490D01*
X0Y114300D01*
X0Y118110D01*
X0Y135890D01*
X0Y139700D01*
X0Y143510D01*
X0Y161290D01*
X0Y165100D02*
X73660Y165100D01*
X73660Y59690D02*
X73660Y38100D01*
X73660Y59690D02*
X73660Y63500D01*
X73660Y67310D01*
X73660Y85090D01*
X73660Y88900D01*
X73660Y92710D01*
X73660Y110490D01*
X73660Y114300D01*
X73660Y118110D01*
X73660Y135890D01*
X73660Y139700D01*
X73660Y143510D01*
X73660Y161290D01*
X73660Y165100D01*
X73660Y139700D02*
X0Y139700D01*
X0Y114300D02*
X73660Y114300D01*
X73660Y88900D02*
X0Y88900D01*
X0Y63500D02*
X73660Y63500D01*
D15*
X73660Y59690D02*
X0Y59690D01*
X0Y67310D02*
X73660Y67310D01*
X73660Y85090D02*
X0Y85090D01*
X0Y92710D02*
X73660Y92710D01*
X73660Y110490D02*
X0Y110490D01*
X0Y118110D02*
X73660Y118110D01*
X73660Y135890D02*
X0Y135890D01*
X0Y143510D02*
X73660Y143510D01*
D10*
X73660Y161290D02*
X0Y161290D01*
X0Y165100D01*
X0Y168910D01*
D15*
X73660Y168910D01*
D10*
X78740Y241300D02*
X78740Y38100D01*
X0Y168910D02*
X0Y186690D01*
X0Y190500D02*
X73660Y190500D01*
X73660Y168910D02*
X73660Y165100D01*
X73660Y168910D02*
X73660Y186690D01*
X73660Y190500D01*
D15*
X73660Y186690D02*
X0Y186690D01*
D10*
X0Y190500D01*
X0Y194310D01*
X0Y212090D01*
X0Y215900D01*
X73660Y215900D01*
D15*
X73660Y194310D02*
X0Y194310D01*
D10*
X73660Y194310D02*
X73660Y190500D01*
X73660Y194310D02*
X73660Y212090D01*
X73660Y215900D01*
X0Y215900D02*
X0Y219710D01*
X0Y241300D01*
X73660Y241300D01*
X78740Y241300D01*
X73660Y219710D02*
X73660Y215900D01*
X73660Y219710D02*
X73660Y241300D01*
D15*
X73660Y219710D02*
X0Y219710D01*
X0Y212090D02*
X73660Y212090D01*
D12*
X59062Y197485D02*
X51435Y197485D01*
X59062Y205112D01*
X59062Y207018D01*
X57155Y208925D01*
X53342Y208925D01*
X51435Y207018D01*
X53342Y56525D02*
X51435Y54618D01*
X53342Y56525D02*
X57155Y56525D01*
X59062Y54618D01*
X59062Y52712D01*
X57155Y50805D01*
X59062Y48898D01*
X59062Y46992D01*
X57155Y45085D01*
X53342Y45085D01*
X51435Y46992D01*
X51435Y48898D01*
X53342Y50805D01*
X51435Y52712D01*
X51435Y54618D01*
X53342Y50805D02*
X57155Y50805D01*
X51435Y181618D02*
X53342Y183525D01*
X57155Y183525D01*
X59062Y181618D01*
X59062Y179712D01*
X57155Y177805D01*
X55248Y177805D01*
X57155Y177805D02*
X59062Y175898D01*
X59062Y173992D01*
X57155Y172085D01*
X53342Y172085D01*
X51435Y173992D01*
X57155Y158125D02*
X57155Y146685D01*
X51435Y152405D02*
X57155Y158125D01*
X59062Y152405D02*
X51435Y152405D01*
X51435Y132725D02*
X59062Y132725D01*
X51435Y132725D02*
X51435Y127005D01*
X55248Y128912D01*
X57155Y128912D01*
X59062Y127005D01*
X59062Y123192D01*
X57155Y121285D01*
X53342Y121285D01*
X51435Y123192D01*
X59062Y107325D02*
X55248Y105418D01*
X51435Y101605D01*
X51435Y97792D01*
X53342Y95885D01*
X57155Y95885D01*
X59062Y97792D01*
X59062Y99698D01*
X57155Y101605D01*
X51435Y101605D01*
X51435Y81925D02*
X59062Y81925D01*
X59062Y80018D01*
X51435Y72392D01*
X51435Y70485D01*
X51435Y230512D02*
X55248Y234325D01*
X55248Y222885D01*
X51435Y222885D02*
X59062Y222885D01*
M02*
