G04 EAGLE Gerber X2 export*
G04 #@! %TF.Part,Single*
G04 #@! %TF.FileFunction,Copper,L2,Bot,Mixed*
G04 #@! %TF.FilePolarity,Positive*
G04 #@! %TF.GenerationSoftware,Autodesk,EAGLE,9.0.0*
G04 #@! %TF.CreationDate,2019-08-08T19:12:45Z*
G75*
%MOMM*%
%FSLAX34Y34*%
%LPD*%
%AMOC8*
5,1,8,0,0,1.08239X$1,22.5*%
G01*
%ADD10C,1.879600*%
%ADD11C,1.676400*%
%ADD12C,1.879600*%
%ADD13P,1.814519X8X202.500000*%
%ADD14P,1.814519X8X22.500000*%
%ADD15P,1.814519X8X112.500000*%
%ADD16C,1.016000*%

G36*
X139157Y40642D02*
X139157Y40642D01*
X139170Y40641D01*
X139356Y40662D01*
X139544Y40681D01*
X139557Y40685D01*
X139570Y40686D01*
X139749Y40744D01*
X139929Y40799D01*
X139941Y40805D01*
X139953Y40809D01*
X140118Y40901D01*
X140283Y40991D01*
X140293Y40999D01*
X140305Y41006D01*
X140447Y41128D01*
X140592Y41248D01*
X140600Y41259D01*
X140611Y41267D01*
X140726Y41415D01*
X140844Y41562D01*
X140851Y41574D01*
X140859Y41584D01*
X140943Y41753D01*
X141030Y41919D01*
X141034Y41932D01*
X141040Y41944D01*
X141089Y42125D01*
X141141Y42306D01*
X141142Y42320D01*
X141146Y42333D01*
X141159Y42521D01*
X141174Y42708D01*
X141173Y42721D01*
X141174Y42734D01*
X141149Y42922D01*
X141127Y43107D01*
X141123Y43120D01*
X141121Y43133D01*
X141020Y43449D01*
X138429Y49704D01*
X138429Y57485D01*
X141407Y64673D01*
X146909Y70175D01*
X149519Y71256D01*
X154097Y73153D01*
X161879Y73153D01*
X169067Y70175D01*
X169813Y69430D01*
X169833Y69413D01*
X169851Y69392D01*
X169989Y69285D01*
X170124Y69175D01*
X170148Y69162D01*
X170169Y69146D01*
X170326Y69068D01*
X170480Y68986D01*
X170505Y68978D01*
X170529Y68966D01*
X170699Y68921D01*
X170866Y68871D01*
X170892Y68869D01*
X170918Y68862D01*
X171249Y68835D01*
X209751Y68835D01*
X209778Y68837D01*
X209804Y68835D01*
X209978Y68857D01*
X210152Y68875D01*
X210177Y68882D01*
X210204Y68886D01*
X210370Y68941D01*
X210537Y68993D01*
X210560Y69006D01*
X210586Y69014D01*
X210737Y69101D01*
X210891Y69185D01*
X210911Y69202D01*
X210934Y69215D01*
X211187Y69430D01*
X211933Y70175D01*
X214543Y71256D01*
X219121Y73153D01*
X226903Y73153D01*
X234091Y70175D01*
X234837Y69430D01*
X234857Y69413D01*
X234875Y69392D01*
X235013Y69285D01*
X235148Y69175D01*
X235172Y69162D01*
X235193Y69146D01*
X235350Y69068D01*
X235504Y68986D01*
X235529Y68978D01*
X235553Y68966D01*
X235723Y68921D01*
X235890Y68871D01*
X235916Y68869D01*
X235942Y68862D01*
X236273Y68835D01*
X246327Y68835D01*
X246354Y68837D01*
X246380Y68835D01*
X246554Y68857D01*
X246728Y68875D01*
X246753Y68882D01*
X246780Y68886D01*
X246946Y68941D01*
X247113Y68993D01*
X247136Y69006D01*
X247162Y69014D01*
X247313Y69101D01*
X247467Y69185D01*
X247487Y69202D01*
X247510Y69215D01*
X247763Y69430D01*
X248509Y70175D01*
X251119Y71256D01*
X255697Y73153D01*
X263479Y73153D01*
X270667Y70175D01*
X271413Y69430D01*
X271433Y69413D01*
X271451Y69392D01*
X271589Y69285D01*
X271724Y69175D01*
X271748Y69162D01*
X271769Y69146D01*
X271926Y69068D01*
X272080Y68986D01*
X272105Y68978D01*
X272129Y68966D01*
X272299Y68921D01*
X272466Y68871D01*
X272492Y68869D01*
X272518Y68862D01*
X272849Y68835D01*
X311351Y68835D01*
X311378Y68837D01*
X311404Y68835D01*
X311578Y68857D01*
X311752Y68875D01*
X311777Y68882D01*
X311804Y68886D01*
X311970Y68941D01*
X312137Y68993D01*
X312160Y69006D01*
X312186Y69014D01*
X312337Y69101D01*
X312491Y69185D01*
X312511Y69202D01*
X312534Y69215D01*
X312787Y69430D01*
X313533Y70175D01*
X316143Y71256D01*
X320721Y73153D01*
X328503Y73153D01*
X335691Y70175D01*
X336437Y69430D01*
X336457Y69413D01*
X336475Y69392D01*
X336613Y69285D01*
X336748Y69175D01*
X336772Y69162D01*
X336793Y69146D01*
X336950Y69068D01*
X337104Y68986D01*
X337129Y68978D01*
X337153Y68966D01*
X337323Y68921D01*
X337490Y68871D01*
X337516Y68869D01*
X337542Y68862D01*
X337873Y68835D01*
X347927Y68835D01*
X347954Y68837D01*
X347980Y68835D01*
X348154Y68857D01*
X348328Y68875D01*
X348353Y68882D01*
X348380Y68886D01*
X348546Y68941D01*
X348713Y68993D01*
X348736Y69006D01*
X348762Y69014D01*
X348913Y69101D01*
X349067Y69185D01*
X349087Y69202D01*
X349110Y69215D01*
X349363Y69430D01*
X350109Y70175D01*
X352719Y71256D01*
X357297Y73153D01*
X365079Y73153D01*
X372267Y70175D01*
X373013Y69430D01*
X373033Y69413D01*
X373051Y69392D01*
X373189Y69285D01*
X373324Y69175D01*
X373348Y69162D01*
X373369Y69146D01*
X373526Y69068D01*
X373680Y68986D01*
X373705Y68978D01*
X373729Y68966D01*
X373899Y68921D01*
X374066Y68871D01*
X374092Y68869D01*
X374118Y68862D01*
X374449Y68835D01*
X412951Y68835D01*
X412978Y68837D01*
X413004Y68835D01*
X413178Y68857D01*
X413352Y68875D01*
X413377Y68882D01*
X413404Y68886D01*
X413570Y68941D01*
X413737Y68993D01*
X413760Y69006D01*
X413786Y69014D01*
X413937Y69101D01*
X414091Y69185D01*
X414111Y69202D01*
X414134Y69215D01*
X414387Y69430D01*
X415133Y70175D01*
X417743Y71256D01*
X422321Y73153D01*
X430103Y73153D01*
X437291Y70175D01*
X438037Y69430D01*
X438057Y69413D01*
X438075Y69392D01*
X438213Y69285D01*
X438348Y69175D01*
X438372Y69162D01*
X438393Y69146D01*
X438550Y69068D01*
X438704Y68986D01*
X438729Y68978D01*
X438753Y68966D01*
X438923Y68921D01*
X439090Y68871D01*
X439116Y68869D01*
X439142Y68862D01*
X439473Y68835D01*
X449527Y68835D01*
X449554Y68837D01*
X449580Y68835D01*
X449754Y68857D01*
X449928Y68875D01*
X449953Y68882D01*
X449980Y68886D01*
X450146Y68941D01*
X450313Y68993D01*
X450336Y69006D01*
X450362Y69014D01*
X450513Y69101D01*
X450667Y69185D01*
X450687Y69202D01*
X450710Y69215D01*
X450963Y69430D01*
X451709Y70175D01*
X454319Y71256D01*
X458897Y73153D01*
X466679Y73153D01*
X473867Y70175D01*
X474613Y69430D01*
X474633Y69413D01*
X474651Y69392D01*
X474789Y69285D01*
X474924Y69175D01*
X474948Y69162D01*
X474969Y69146D01*
X475126Y69068D01*
X475280Y68986D01*
X475305Y68978D01*
X475329Y68966D01*
X475499Y68921D01*
X475666Y68871D01*
X475692Y68869D01*
X475718Y68862D01*
X476049Y68835D01*
X514551Y68835D01*
X514578Y68837D01*
X514604Y68835D01*
X514778Y68857D01*
X514952Y68875D01*
X514977Y68882D01*
X515004Y68886D01*
X515170Y68941D01*
X515337Y68993D01*
X515360Y69006D01*
X515386Y69014D01*
X515537Y69101D01*
X515691Y69185D01*
X515711Y69202D01*
X515734Y69215D01*
X515987Y69430D01*
X516733Y70175D01*
X519343Y71256D01*
X523921Y73153D01*
X531703Y73153D01*
X538891Y70175D01*
X539637Y69430D01*
X539657Y69413D01*
X539675Y69392D01*
X539813Y69285D01*
X539948Y69175D01*
X539972Y69162D01*
X539993Y69146D01*
X540150Y69068D01*
X540304Y68986D01*
X540329Y68978D01*
X540353Y68966D01*
X540523Y68921D01*
X540690Y68871D01*
X540716Y68869D01*
X540742Y68862D01*
X541073Y68835D01*
X551127Y68835D01*
X551154Y68837D01*
X551180Y68835D01*
X551354Y68857D01*
X551528Y68875D01*
X551553Y68883D01*
X551580Y68886D01*
X551745Y68941D01*
X551913Y68993D01*
X551936Y69006D01*
X551962Y69014D01*
X552113Y69101D01*
X552267Y69185D01*
X552287Y69202D01*
X552310Y69215D01*
X552563Y69430D01*
X553309Y70175D01*
X555919Y71256D01*
X560497Y73153D01*
X568279Y73153D01*
X575467Y70175D01*
X576213Y69430D01*
X576233Y69413D01*
X576251Y69392D01*
X576388Y69286D01*
X576524Y69175D01*
X576548Y69162D01*
X576569Y69146D01*
X576725Y69068D01*
X576880Y68986D01*
X576905Y68978D01*
X576929Y68966D01*
X577098Y68921D01*
X577266Y68871D01*
X577292Y68869D01*
X577318Y68862D01*
X577649Y68835D01*
X616151Y68835D01*
X616178Y68837D01*
X616204Y68835D01*
X616378Y68857D01*
X616552Y68875D01*
X616577Y68883D01*
X616604Y68886D01*
X616769Y68941D01*
X616937Y68993D01*
X616960Y69006D01*
X616986Y69014D01*
X617137Y69101D01*
X617291Y69185D01*
X617311Y69202D01*
X617334Y69215D01*
X617587Y69430D01*
X618333Y70175D01*
X620943Y71256D01*
X625521Y73153D01*
X633303Y73153D01*
X640491Y70175D01*
X641237Y69430D01*
X641257Y69413D01*
X641275Y69392D01*
X641412Y69286D01*
X641548Y69175D01*
X641572Y69162D01*
X641593Y69146D01*
X641749Y69068D01*
X641904Y68986D01*
X641929Y68978D01*
X641953Y68966D01*
X642122Y68921D01*
X642290Y68871D01*
X642316Y68869D01*
X642342Y68862D01*
X642673Y68835D01*
X652727Y68835D01*
X652754Y68837D01*
X652780Y68835D01*
X652954Y68857D01*
X653128Y68875D01*
X653153Y68883D01*
X653180Y68886D01*
X653345Y68941D01*
X653513Y68993D01*
X653536Y69006D01*
X653562Y69014D01*
X653713Y69101D01*
X653867Y69185D01*
X653887Y69202D01*
X653910Y69215D01*
X654163Y69430D01*
X654909Y70175D01*
X657519Y71256D01*
X662097Y73153D01*
X669879Y73153D01*
X677067Y70175D01*
X677813Y69430D01*
X677833Y69413D01*
X677851Y69392D01*
X677988Y69286D01*
X678124Y69175D01*
X678148Y69162D01*
X678169Y69146D01*
X678325Y69068D01*
X678480Y68986D01*
X678505Y68978D01*
X678529Y68966D01*
X678698Y68921D01*
X678866Y68871D01*
X678892Y68869D01*
X678918Y68862D01*
X679249Y68835D01*
X717751Y68835D01*
X717778Y68837D01*
X717804Y68835D01*
X717978Y68857D01*
X718152Y68875D01*
X718177Y68883D01*
X718204Y68886D01*
X718369Y68941D01*
X718537Y68993D01*
X718560Y69006D01*
X718586Y69014D01*
X718737Y69101D01*
X718891Y69185D01*
X718911Y69202D01*
X718934Y69215D01*
X719187Y69430D01*
X719933Y70175D01*
X722543Y71256D01*
X727121Y73153D01*
X734903Y73153D01*
X742091Y70175D01*
X742837Y69430D01*
X742857Y69413D01*
X742875Y69392D01*
X743012Y69286D01*
X743148Y69175D01*
X743172Y69162D01*
X743193Y69146D01*
X743349Y69068D01*
X743504Y68986D01*
X743529Y68978D01*
X743553Y68966D01*
X743722Y68921D01*
X743890Y68871D01*
X743916Y68869D01*
X743942Y68862D01*
X744273Y68835D01*
X767027Y68835D01*
X767054Y68837D01*
X767080Y68835D01*
X767254Y68857D01*
X767428Y68875D01*
X767453Y68882D01*
X767480Y68886D01*
X767646Y68941D01*
X767813Y68993D01*
X767836Y69006D01*
X767862Y69014D01*
X768013Y69101D01*
X768167Y69185D01*
X768187Y69202D01*
X768210Y69215D01*
X768463Y69430D01*
X769209Y70175D01*
X771819Y71256D01*
X776397Y73153D01*
X784179Y73153D01*
X791367Y70175D01*
X792113Y69430D01*
X792133Y69413D01*
X792151Y69392D01*
X792289Y69285D01*
X792424Y69175D01*
X792448Y69162D01*
X792469Y69146D01*
X792626Y69068D01*
X792780Y68986D01*
X792805Y68978D01*
X792829Y68966D01*
X792999Y68921D01*
X793166Y68871D01*
X793192Y68869D01*
X793218Y68862D01*
X793549Y68835D01*
X832051Y68835D01*
X832078Y68837D01*
X832104Y68835D01*
X832278Y68857D01*
X832452Y68875D01*
X832477Y68882D01*
X832504Y68886D01*
X832670Y68941D01*
X832837Y68993D01*
X832860Y69006D01*
X832886Y69014D01*
X833037Y69101D01*
X833191Y69185D01*
X833211Y69202D01*
X833234Y69215D01*
X833487Y69430D01*
X834233Y70175D01*
X836843Y71256D01*
X841421Y73153D01*
X849203Y73153D01*
X856391Y70175D01*
X857137Y69430D01*
X857157Y69413D01*
X857175Y69392D01*
X857313Y69285D01*
X857448Y69175D01*
X857472Y69162D01*
X857493Y69146D01*
X857650Y69068D01*
X857804Y68986D01*
X857829Y68978D01*
X857853Y68966D01*
X858023Y68921D01*
X858190Y68871D01*
X858216Y68869D01*
X858242Y68862D01*
X858573Y68835D01*
X868627Y68835D01*
X868654Y68837D01*
X868680Y68835D01*
X868854Y68857D01*
X869028Y68875D01*
X869053Y68882D01*
X869080Y68886D01*
X869246Y68941D01*
X869413Y68993D01*
X869436Y69006D01*
X869462Y69014D01*
X869613Y69101D01*
X869767Y69185D01*
X869787Y69202D01*
X869810Y69215D01*
X870063Y69430D01*
X870809Y70175D01*
X873419Y71256D01*
X877997Y73153D01*
X885779Y73153D01*
X892967Y70175D01*
X893713Y69430D01*
X893733Y69413D01*
X893751Y69392D01*
X893889Y69285D01*
X894024Y69175D01*
X894048Y69162D01*
X894069Y69146D01*
X894226Y69068D01*
X894380Y68986D01*
X894405Y68978D01*
X894429Y68966D01*
X894599Y68921D01*
X894766Y68871D01*
X894792Y68869D01*
X894818Y68862D01*
X895149Y68835D01*
X933651Y68835D01*
X933678Y68837D01*
X933704Y68835D01*
X933878Y68857D01*
X934052Y68875D01*
X934077Y68882D01*
X934104Y68886D01*
X934270Y68941D01*
X934437Y68993D01*
X934460Y69006D01*
X934486Y69014D01*
X934637Y69101D01*
X934791Y69185D01*
X934811Y69202D01*
X934834Y69215D01*
X935087Y69430D01*
X935833Y70175D01*
X938443Y71256D01*
X943021Y73153D01*
X950803Y73153D01*
X957991Y70175D01*
X958737Y69430D01*
X958757Y69413D01*
X958775Y69392D01*
X958913Y69285D01*
X959048Y69175D01*
X959072Y69162D01*
X959093Y69146D01*
X959250Y69068D01*
X959404Y68986D01*
X959429Y68978D01*
X959453Y68966D01*
X959623Y68921D01*
X959790Y68871D01*
X959816Y68869D01*
X959842Y68862D01*
X960173Y68835D01*
X960840Y68835D01*
X960866Y68837D01*
X960893Y68835D01*
X961067Y68857D01*
X961240Y68875D01*
X961266Y68882D01*
X961292Y68886D01*
X961458Y68941D01*
X961625Y68993D01*
X961649Y69006D01*
X961674Y69014D01*
X961826Y69101D01*
X961979Y69185D01*
X962000Y69202D01*
X962023Y69215D01*
X962276Y69430D01*
X974764Y81918D01*
X974781Y81939D01*
X974802Y81956D01*
X974909Y82094D01*
X975019Y82229D01*
X975032Y82253D01*
X975048Y82274D01*
X975126Y82431D01*
X975208Y82585D01*
X975216Y82611D01*
X975228Y82635D01*
X975273Y82804D01*
X975323Y82971D01*
X975325Y82998D01*
X975332Y83024D01*
X975359Y83354D01*
X975359Y142732D01*
X977680Y148333D01*
X984162Y154816D01*
X984179Y154837D01*
X984200Y154854D01*
X984306Y154992D01*
X984417Y155127D01*
X984430Y155151D01*
X984446Y155172D01*
X984524Y155329D01*
X984606Y155483D01*
X984614Y155509D01*
X984626Y155533D01*
X984671Y155702D01*
X984721Y155869D01*
X984723Y155896D01*
X984730Y155922D01*
X984757Y156252D01*
X984757Y160081D01*
X995619Y170943D01*
X1010981Y170943D01*
X1013688Y168236D01*
X1013708Y168219D01*
X1013726Y168198D01*
X1013864Y168091D01*
X1013999Y167981D01*
X1014023Y167968D01*
X1014044Y167952D01*
X1014201Y167874D01*
X1014355Y167792D01*
X1014380Y167784D01*
X1014405Y167772D01*
X1014574Y167727D01*
X1014741Y167677D01*
X1014767Y167675D01*
X1014793Y167668D01*
X1015124Y167641D01*
X1024700Y167641D01*
X1024713Y167642D01*
X1024727Y167641D01*
X1024913Y167662D01*
X1025101Y167681D01*
X1025113Y167685D01*
X1025127Y167686D01*
X1025306Y167744D01*
X1025485Y167799D01*
X1025497Y167805D01*
X1025510Y167809D01*
X1025675Y167901D01*
X1025839Y167991D01*
X1025850Y167999D01*
X1025861Y168006D01*
X1026004Y168128D01*
X1026149Y168248D01*
X1026157Y168259D01*
X1026167Y168267D01*
X1026283Y168415D01*
X1026401Y168562D01*
X1026407Y168574D01*
X1026416Y168584D01*
X1026500Y168753D01*
X1026587Y168919D01*
X1026590Y168932D01*
X1026596Y168944D01*
X1026646Y169125D01*
X1026698Y169306D01*
X1026699Y169320D01*
X1026703Y169333D01*
X1026716Y169521D01*
X1026731Y169708D01*
X1026729Y169721D01*
X1026730Y169734D01*
X1026706Y169922D01*
X1026684Y170107D01*
X1026680Y170120D01*
X1026678Y170133D01*
X1026577Y170449D01*
X1025143Y173910D01*
X1025143Y181691D01*
X1028121Y188879D01*
X1028305Y189064D01*
X1028317Y189077D01*
X1028330Y189089D01*
X1028444Y189233D01*
X1028560Y189375D01*
X1028569Y189391D01*
X1028580Y189405D01*
X1028663Y189569D01*
X1028749Y189731D01*
X1028754Y189748D01*
X1028762Y189764D01*
X1028812Y189941D01*
X1028864Y190117D01*
X1028865Y190134D01*
X1028870Y190152D01*
X1028884Y190335D01*
X1028900Y190518D01*
X1028898Y190535D01*
X1028900Y190553D01*
X1028877Y190736D01*
X1028857Y190918D01*
X1028852Y190935D01*
X1028849Y190953D01*
X1028791Y191127D01*
X1028735Y191302D01*
X1028727Y191317D01*
X1028721Y191334D01*
X1028629Y191494D01*
X1028541Y191654D01*
X1028529Y191668D01*
X1028520Y191683D01*
X1028305Y191936D01*
X1028121Y192121D01*
X1025143Y199309D01*
X1025143Y207091D01*
X1028121Y214279D01*
X1028305Y214464D01*
X1028317Y214477D01*
X1028330Y214489D01*
X1028444Y214633D01*
X1028560Y214775D01*
X1028569Y214791D01*
X1028580Y214805D01*
X1028663Y214969D01*
X1028749Y215131D01*
X1028754Y215148D01*
X1028762Y215164D01*
X1028812Y215341D01*
X1028864Y215517D01*
X1028865Y215534D01*
X1028870Y215552D01*
X1028884Y215735D01*
X1028900Y215918D01*
X1028898Y215935D01*
X1028900Y215953D01*
X1028877Y216136D01*
X1028857Y216318D01*
X1028852Y216335D01*
X1028849Y216353D01*
X1028791Y216527D01*
X1028735Y216702D01*
X1028727Y216717D01*
X1028721Y216734D01*
X1028629Y216894D01*
X1028541Y217054D01*
X1028529Y217068D01*
X1028520Y217083D01*
X1028305Y217336D01*
X1028121Y217521D01*
X1025104Y224805D01*
X1025093Y224825D01*
X1025086Y224846D01*
X1024998Y225003D01*
X1024913Y225160D01*
X1024899Y225177D01*
X1024888Y225197D01*
X1024771Y225333D01*
X1024657Y225471D01*
X1024640Y225485D01*
X1024625Y225502D01*
X1024484Y225611D01*
X1024344Y225724D01*
X1024325Y225735D01*
X1024307Y225748D01*
X1024146Y225828D01*
X1023988Y225911D01*
X1023967Y225918D01*
X1023946Y225928D01*
X1023773Y225974D01*
X1023601Y226024D01*
X1023579Y226026D01*
X1023558Y226032D01*
X1023227Y226059D01*
X791972Y226059D01*
X791954Y226057D01*
X791936Y226059D01*
X791754Y226038D01*
X791571Y226019D01*
X791554Y226014D01*
X791537Y226012D01*
X791362Y225955D01*
X791186Y225901D01*
X791171Y225893D01*
X791154Y225887D01*
X790994Y225797D01*
X790832Y225709D01*
X790819Y225698D01*
X790803Y225689D01*
X790664Y225569D01*
X790523Y225452D01*
X790512Y225438D01*
X790498Y225426D01*
X790386Y225281D01*
X790271Y225138D01*
X790263Y225122D01*
X790252Y225108D01*
X790170Y224943D01*
X790085Y224781D01*
X790080Y224764D01*
X790072Y224748D01*
X790025Y224569D01*
X789974Y224394D01*
X789972Y224376D01*
X789968Y224359D01*
X789941Y224028D01*
X789941Y195072D01*
X789943Y195054D01*
X789941Y195036D01*
X789962Y194854D01*
X789981Y194671D01*
X789986Y194654D01*
X789988Y194637D01*
X790045Y194462D01*
X790099Y194286D01*
X790107Y194271D01*
X790113Y194254D01*
X790203Y194094D01*
X790291Y193932D01*
X790302Y193919D01*
X790311Y193903D01*
X790431Y193764D01*
X790548Y193623D01*
X790562Y193612D01*
X790574Y193598D01*
X790719Y193486D01*
X790862Y193371D01*
X790878Y193363D01*
X790892Y193352D01*
X791057Y193270D01*
X791219Y193185D01*
X791236Y193180D01*
X791252Y193172D01*
X791431Y193125D01*
X791606Y193074D01*
X791624Y193072D01*
X791641Y193068D01*
X791972Y193041D01*
X803132Y193041D01*
X808733Y190720D01*
X843918Y155536D01*
X843939Y155519D01*
X843956Y155498D01*
X844094Y155391D01*
X844229Y155281D01*
X844253Y155268D01*
X844274Y155252D01*
X844431Y155174D01*
X844585Y155092D01*
X844611Y155084D01*
X844635Y155072D01*
X844804Y155027D01*
X844971Y154977D01*
X844998Y154975D01*
X845024Y154968D01*
X845354Y154941D01*
X889876Y154941D01*
X889903Y154943D01*
X889929Y154941D01*
X890103Y154963D01*
X890277Y154981D01*
X890302Y154988D01*
X890329Y154992D01*
X890495Y155048D01*
X890662Y155099D01*
X890685Y155111D01*
X890710Y155120D01*
X890862Y155207D01*
X891016Y155291D01*
X891036Y155308D01*
X891059Y155321D01*
X891312Y155536D01*
X893090Y157314D01*
X893102Y157327D01*
X893115Y157339D01*
X893229Y157483D01*
X893345Y157625D01*
X893354Y157641D01*
X893365Y157655D01*
X893448Y157819D01*
X893534Y157981D01*
X893539Y157998D01*
X893547Y158014D01*
X893597Y158191D01*
X893649Y158367D01*
X893650Y158385D01*
X893655Y158402D01*
X893669Y158585D01*
X893685Y158768D01*
X893683Y158786D01*
X893685Y158803D01*
X893662Y158985D01*
X893642Y159168D01*
X893636Y159185D01*
X893634Y159203D01*
X893576Y159376D01*
X893520Y159552D01*
X893512Y159568D01*
X893506Y159584D01*
X893415Y159743D01*
X893325Y159904D01*
X893314Y159918D01*
X893305Y159933D01*
X893090Y160186D01*
X883157Y170119D01*
X883157Y185481D01*
X894019Y196343D01*
X909381Y196343D01*
X912088Y193636D01*
X912108Y193619D01*
X912126Y193598D01*
X912264Y193491D01*
X912399Y193381D01*
X912423Y193368D01*
X912444Y193352D01*
X912601Y193274D01*
X912755Y193192D01*
X912780Y193184D01*
X912805Y193172D01*
X912974Y193127D01*
X913141Y193077D01*
X913167Y193075D01*
X913193Y193068D01*
X913524Y193041D01*
X917432Y193041D01*
X923033Y190720D01*
X940020Y173733D01*
X942341Y168132D01*
X942341Y123968D01*
X941183Y121173D01*
X941179Y121160D01*
X941173Y121149D01*
X941121Y120969D01*
X941066Y120788D01*
X941065Y120775D01*
X941062Y120762D01*
X941046Y120574D01*
X941028Y120387D01*
X941030Y120374D01*
X941029Y120360D01*
X941051Y120173D01*
X941070Y119987D01*
X941074Y119974D01*
X941076Y119961D01*
X941134Y119781D01*
X941190Y119602D01*
X941196Y119591D01*
X941200Y119578D01*
X941293Y119413D01*
X941383Y119249D01*
X941392Y119239D01*
X941398Y119227D01*
X941521Y119085D01*
X941642Y118941D01*
X941653Y118933D01*
X941661Y118922D01*
X941810Y118807D01*
X941957Y118690D01*
X941969Y118684D01*
X941980Y118676D01*
X942148Y118592D01*
X942315Y118506D01*
X942328Y118502D01*
X942340Y118496D01*
X942523Y118447D01*
X942703Y118396D01*
X942716Y118395D01*
X942729Y118392D01*
X943060Y118365D01*
X950803Y118365D01*
X957991Y115387D01*
X963493Y109885D01*
X966471Y102697D01*
X966471Y94915D01*
X963493Y87727D01*
X957991Y82225D01*
X955267Y81096D01*
X950803Y79247D01*
X943021Y79247D01*
X935833Y82225D01*
X930331Y87727D01*
X927353Y94915D01*
X927353Y100796D01*
X927352Y100805D01*
X927353Y100814D01*
X927332Y101007D01*
X927313Y101196D01*
X927311Y101205D01*
X927310Y101214D01*
X927252Y101397D01*
X927195Y101581D01*
X927191Y101589D01*
X927188Y101598D01*
X927096Y101765D01*
X927003Y101935D01*
X926998Y101942D01*
X926993Y101950D01*
X926869Y102097D01*
X926746Y102245D01*
X926739Y102250D01*
X926733Y102257D01*
X926581Y102377D01*
X926432Y102497D01*
X926424Y102501D01*
X926417Y102507D01*
X926244Y102594D01*
X926075Y102682D01*
X926066Y102685D01*
X926058Y102689D01*
X925872Y102741D01*
X925688Y102794D01*
X925679Y102795D01*
X925670Y102797D01*
X925477Y102811D01*
X925286Y102827D01*
X925278Y102826D01*
X925269Y102826D01*
X925076Y102802D01*
X924887Y102780D01*
X924878Y102777D01*
X924869Y102776D01*
X924686Y102715D01*
X924504Y102655D01*
X924496Y102651D01*
X924488Y102648D01*
X924321Y102552D01*
X924153Y102457D01*
X924146Y102451D01*
X924139Y102447D01*
X923886Y102232D01*
X907539Y85886D01*
X901938Y83565D01*
X895149Y83565D01*
X895122Y83563D01*
X895096Y83565D01*
X894922Y83543D01*
X894748Y83525D01*
X894723Y83518D01*
X894696Y83514D01*
X894530Y83459D01*
X894363Y83407D01*
X894340Y83394D01*
X894314Y83386D01*
X894163Y83299D01*
X894009Y83215D01*
X893989Y83198D01*
X893966Y83185D01*
X893713Y82970D01*
X892967Y82225D01*
X890243Y81096D01*
X885779Y79247D01*
X877997Y79247D01*
X870809Y82225D01*
X865036Y87997D01*
X865022Y88009D01*
X865011Y88022D01*
X864867Y88136D01*
X864725Y88253D01*
X864709Y88261D01*
X864695Y88272D01*
X864531Y88356D01*
X864369Y88441D01*
X864352Y88446D01*
X864336Y88454D01*
X864159Y88504D01*
X863983Y88556D01*
X863965Y88558D01*
X863948Y88562D01*
X863765Y88576D01*
X863582Y88592D01*
X863564Y88590D01*
X863547Y88592D01*
X863365Y88569D01*
X863182Y88549D01*
X863165Y88544D01*
X863147Y88541D01*
X862973Y88483D01*
X862798Y88427D01*
X862782Y88419D01*
X862766Y88413D01*
X862606Y88321D01*
X862446Y88233D01*
X862432Y88221D01*
X862417Y88212D01*
X862164Y87997D01*
X856391Y82225D01*
X853667Y81096D01*
X849203Y79247D01*
X841421Y79247D01*
X834233Y82225D01*
X828731Y87727D01*
X825753Y94915D01*
X825753Y102697D01*
X828731Y109885D01*
X834233Y115387D01*
X841421Y118365D01*
X849203Y118365D01*
X856391Y115387D01*
X862164Y109615D01*
X862177Y109603D01*
X862189Y109590D01*
X862333Y109476D01*
X862475Y109359D01*
X862491Y109351D01*
X862505Y109340D01*
X862669Y109257D01*
X862831Y109171D01*
X862848Y109166D01*
X862864Y109158D01*
X863041Y109108D01*
X863217Y109056D01*
X863235Y109054D01*
X863252Y109050D01*
X863435Y109036D01*
X863618Y109020D01*
X863636Y109022D01*
X863653Y109020D01*
X863835Y109043D01*
X864018Y109063D01*
X864035Y109068D01*
X864053Y109071D01*
X864226Y109129D01*
X864402Y109185D01*
X864418Y109193D01*
X864434Y109199D01*
X864594Y109291D01*
X864754Y109379D01*
X864768Y109391D01*
X864783Y109400D01*
X865036Y109615D01*
X870809Y115387D01*
X877997Y118365D01*
X885778Y118365D01*
X892397Y115623D01*
X892418Y115617D01*
X892438Y115607D01*
X892611Y115559D01*
X892782Y115507D01*
X892804Y115505D01*
X892826Y115499D01*
X893005Y115486D01*
X893183Y115469D01*
X893205Y115471D01*
X893227Y115470D01*
X893406Y115492D01*
X893583Y115511D01*
X893604Y115517D01*
X893627Y115520D01*
X893797Y115577D01*
X893968Y115630D01*
X893987Y115641D01*
X894008Y115648D01*
X894164Y115738D01*
X894321Y115824D01*
X894338Y115838D01*
X894357Y115849D01*
X894610Y116064D01*
X896236Y117690D01*
X896242Y117697D01*
X896249Y117702D01*
X896369Y117852D01*
X896491Y118001D01*
X896495Y118009D01*
X896501Y118016D01*
X896590Y118187D01*
X896680Y118357D01*
X896682Y118365D01*
X896686Y118373D01*
X896740Y118559D01*
X896795Y118743D01*
X896795Y118752D01*
X896798Y118760D01*
X896813Y118952D01*
X896831Y119144D01*
X896830Y119153D01*
X896831Y119162D01*
X896809Y119351D01*
X896788Y119544D01*
X896785Y119553D01*
X896784Y119561D01*
X896724Y119743D01*
X896666Y119928D01*
X896662Y119936D01*
X896659Y119944D01*
X896564Y120113D01*
X896471Y120280D01*
X896465Y120287D01*
X896461Y120295D01*
X896335Y120441D01*
X896211Y120587D01*
X896204Y120593D01*
X896198Y120600D01*
X896046Y120717D01*
X895895Y120837D01*
X895887Y120841D01*
X895880Y120846D01*
X895708Y120932D01*
X895536Y121019D01*
X895527Y121022D01*
X895519Y121026D01*
X895333Y121076D01*
X895148Y121127D01*
X895139Y121128D01*
X895130Y121130D01*
X894800Y121157D01*
X894019Y121157D01*
X891312Y123864D01*
X891292Y123881D01*
X891274Y123902D01*
X891136Y124009D01*
X891001Y124119D01*
X890977Y124132D01*
X890956Y124148D01*
X890799Y124226D01*
X890645Y124308D01*
X890620Y124316D01*
X890595Y124328D01*
X890426Y124373D01*
X890259Y124423D01*
X890233Y124425D01*
X890207Y124432D01*
X889876Y124459D01*
X835168Y124459D01*
X829567Y126780D01*
X794382Y161964D01*
X794361Y161981D01*
X794344Y162002D01*
X794206Y162109D01*
X794071Y162219D01*
X794047Y162232D01*
X794026Y162248D01*
X793869Y162326D01*
X793715Y162408D01*
X793689Y162416D01*
X793665Y162428D01*
X793496Y162473D01*
X793329Y162523D01*
X793302Y162525D01*
X793276Y162532D01*
X792946Y162559D01*
X786524Y162559D01*
X786497Y162557D01*
X786471Y162559D01*
X786297Y162537D01*
X786123Y162519D01*
X786098Y162512D01*
X786071Y162508D01*
X785906Y162453D01*
X785738Y162401D01*
X785715Y162388D01*
X785690Y162380D01*
X785538Y162293D01*
X785384Y162209D01*
X785364Y162192D01*
X785341Y162179D01*
X785088Y161964D01*
X783310Y160186D01*
X783298Y160172D01*
X783285Y160161D01*
X783171Y160017D01*
X783055Y159875D01*
X783046Y159859D01*
X783035Y159845D01*
X782952Y159681D01*
X782866Y159519D01*
X782861Y159502D01*
X782853Y159486D01*
X782803Y159309D01*
X782751Y159133D01*
X782750Y159115D01*
X782745Y159098D01*
X782731Y158915D01*
X782715Y158732D01*
X782717Y158714D01*
X782715Y158697D01*
X782738Y158515D01*
X782758Y158332D01*
X782764Y158315D01*
X782766Y158297D01*
X782824Y158123D01*
X782880Y157948D01*
X782888Y157932D01*
X782894Y157916D01*
X782986Y157756D01*
X783075Y157596D01*
X783086Y157582D01*
X783095Y157567D01*
X783310Y157314D01*
X793243Y147381D01*
X793243Y143066D01*
X793246Y143036D01*
X793244Y143004D01*
X793266Y142835D01*
X793283Y142666D01*
X793292Y142636D01*
X793296Y142605D01*
X793397Y142289D01*
X795529Y137144D01*
X795529Y112067D01*
X795531Y112040D01*
X795529Y112014D01*
X795551Y111840D01*
X795569Y111666D01*
X795576Y111641D01*
X795580Y111614D01*
X795635Y111448D01*
X795687Y111281D01*
X795700Y111258D01*
X795708Y111232D01*
X795795Y111081D01*
X795879Y110927D01*
X795896Y110907D01*
X795909Y110884D01*
X796124Y110631D01*
X796869Y109885D01*
X799847Y102697D01*
X799847Y94915D01*
X796869Y87727D01*
X791367Y82225D01*
X788643Y81096D01*
X784179Y79247D01*
X776397Y79247D01*
X769209Y82225D01*
X763707Y87727D01*
X760729Y94915D01*
X760729Y102697D01*
X763707Y109885D01*
X764452Y110631D01*
X764469Y110651D01*
X764490Y110669D01*
X764597Y110807D01*
X764707Y110942D01*
X764720Y110966D01*
X764736Y110987D01*
X764814Y111144D01*
X764896Y111298D01*
X764904Y111323D01*
X764916Y111347D01*
X764961Y111517D01*
X765011Y111684D01*
X765013Y111710D01*
X765020Y111736D01*
X765047Y112067D01*
X765047Y122288D01*
X765045Y122315D01*
X765047Y122341D01*
X765025Y122515D01*
X765007Y122689D01*
X765000Y122714D01*
X764996Y122741D01*
X764941Y122906D01*
X764889Y123074D01*
X764876Y123097D01*
X764868Y123122D01*
X764781Y123274D01*
X764697Y123428D01*
X764680Y123448D01*
X764667Y123471D01*
X764452Y123724D01*
X756157Y132019D01*
X756157Y147381D01*
X766090Y157314D01*
X766102Y157327D01*
X766115Y157339D01*
X766229Y157483D01*
X766345Y157625D01*
X766354Y157641D01*
X766365Y157655D01*
X766448Y157819D01*
X766534Y157981D01*
X766539Y157998D01*
X766547Y158014D01*
X766597Y158191D01*
X766649Y158367D01*
X766650Y158385D01*
X766655Y158402D01*
X766669Y158585D01*
X766685Y158768D01*
X766683Y158786D01*
X766685Y158803D01*
X766662Y158985D01*
X766642Y159168D01*
X766636Y159185D01*
X766634Y159203D01*
X766576Y159376D01*
X766520Y159552D01*
X766512Y159568D01*
X766506Y159584D01*
X766414Y159744D01*
X766325Y159904D01*
X766314Y159918D01*
X766305Y159933D01*
X766090Y160186D01*
X756157Y170119D01*
X756157Y185481D01*
X758864Y188188D01*
X758881Y188208D01*
X758902Y188226D01*
X759009Y188364D01*
X759119Y188499D01*
X759132Y188523D01*
X759148Y188544D01*
X759226Y188701D01*
X759308Y188855D01*
X759316Y188880D01*
X759328Y188905D01*
X759373Y189074D01*
X759423Y189241D01*
X759425Y189267D01*
X759432Y189293D01*
X759459Y189624D01*
X759459Y224028D01*
X759457Y224046D01*
X759459Y224064D01*
X759438Y224246D01*
X759419Y224429D01*
X759414Y224446D01*
X759412Y224463D01*
X759355Y224638D01*
X759301Y224814D01*
X759293Y224829D01*
X759287Y224846D01*
X759197Y225006D01*
X759109Y225168D01*
X759098Y225181D01*
X759089Y225197D01*
X758969Y225336D01*
X758852Y225477D01*
X758838Y225488D01*
X758826Y225502D01*
X758681Y225614D01*
X758538Y225729D01*
X758522Y225737D01*
X758508Y225748D01*
X758343Y225830D01*
X758181Y225915D01*
X758164Y225920D01*
X758148Y225928D01*
X757969Y225975D01*
X757794Y226026D01*
X757776Y226028D01*
X757759Y226032D01*
X757428Y226059D01*
X676698Y226059D01*
X676689Y226058D01*
X676680Y226059D01*
X676489Y226038D01*
X676298Y226019D01*
X676289Y226017D01*
X676280Y226016D01*
X676098Y225958D01*
X675913Y225901D01*
X675905Y225897D01*
X675896Y225894D01*
X675728Y225801D01*
X675559Y225709D01*
X675552Y225704D01*
X675544Y225699D01*
X675397Y225575D01*
X675249Y225452D01*
X675244Y225445D01*
X675237Y225439D01*
X675118Y225288D01*
X674997Y225138D01*
X674993Y225130D01*
X674987Y225123D01*
X674900Y224950D01*
X674812Y224781D01*
X674809Y224772D01*
X674805Y224764D01*
X674753Y224578D01*
X674700Y224394D01*
X674699Y224385D01*
X674697Y224376D01*
X674683Y224183D01*
X674667Y223992D01*
X674668Y223984D01*
X674668Y223975D01*
X674692Y223782D01*
X674714Y223593D01*
X674717Y223584D01*
X674718Y223575D01*
X674779Y223392D01*
X674839Y223210D01*
X674843Y223202D01*
X674846Y223194D01*
X674942Y223027D01*
X675037Y222859D01*
X675043Y222852D01*
X675047Y222845D01*
X675262Y222592D01*
X678908Y218945D01*
X681229Y213344D01*
X681229Y112067D01*
X681231Y112040D01*
X681229Y112014D01*
X681251Y111840D01*
X681269Y111666D01*
X681277Y111641D01*
X681280Y111614D01*
X681335Y111449D01*
X681387Y111281D01*
X681400Y111258D01*
X681408Y111232D01*
X681495Y111081D01*
X681579Y110927D01*
X681596Y110907D01*
X681609Y110884D01*
X681824Y110631D01*
X682569Y109885D01*
X685547Y102697D01*
X685547Y94915D01*
X682569Y87727D01*
X677067Y82225D01*
X674343Y81096D01*
X669879Y79247D01*
X662097Y79247D01*
X654909Y82225D01*
X649136Y87997D01*
X649122Y88009D01*
X649111Y88022D01*
X648967Y88136D01*
X648825Y88253D01*
X648809Y88261D01*
X648795Y88272D01*
X648631Y88356D01*
X648469Y88441D01*
X648452Y88446D01*
X648436Y88454D01*
X648259Y88504D01*
X648083Y88556D01*
X648065Y88558D01*
X648048Y88562D01*
X647865Y88576D01*
X647682Y88592D01*
X647664Y88590D01*
X647647Y88592D01*
X647465Y88569D01*
X647282Y88549D01*
X647265Y88544D01*
X647247Y88541D01*
X647073Y88483D01*
X646898Y88427D01*
X646882Y88419D01*
X646866Y88413D01*
X646706Y88321D01*
X646546Y88233D01*
X646532Y88221D01*
X646517Y88212D01*
X646264Y87997D01*
X640491Y82225D01*
X637767Y81096D01*
X633303Y79247D01*
X625521Y79247D01*
X618333Y82225D01*
X612831Y87727D01*
X609853Y94915D01*
X609853Y100796D01*
X609852Y100805D01*
X609853Y100814D01*
X609832Y101007D01*
X609813Y101196D01*
X609811Y101205D01*
X609810Y101214D01*
X609752Y101397D01*
X609695Y101581D01*
X609691Y101589D01*
X609688Y101598D01*
X609596Y101765D01*
X609503Y101935D01*
X609498Y101942D01*
X609493Y101950D01*
X609369Y102097D01*
X609246Y102245D01*
X609239Y102250D01*
X609233Y102257D01*
X609081Y102377D01*
X608932Y102497D01*
X608924Y102501D01*
X608917Y102507D01*
X608744Y102594D01*
X608575Y102682D01*
X608566Y102685D01*
X608558Y102689D01*
X608372Y102741D01*
X608188Y102794D01*
X608179Y102795D01*
X608170Y102797D01*
X607977Y102811D01*
X607786Y102827D01*
X607778Y102826D01*
X607769Y102826D01*
X607576Y102802D01*
X607387Y102780D01*
X607378Y102777D01*
X607369Y102776D01*
X607186Y102715D01*
X607004Y102655D01*
X606996Y102651D01*
X606988Y102648D01*
X606821Y102552D01*
X606653Y102457D01*
X606646Y102451D01*
X606639Y102447D01*
X606386Y102232D01*
X590039Y85886D01*
X584438Y83565D01*
X577649Y83565D01*
X577622Y83563D01*
X577596Y83565D01*
X577422Y83543D01*
X577248Y83525D01*
X577223Y83518D01*
X577196Y83514D01*
X577030Y83459D01*
X576863Y83407D01*
X576840Y83394D01*
X576814Y83386D01*
X576663Y83299D01*
X576509Y83215D01*
X576489Y83198D01*
X576466Y83185D01*
X576213Y82970D01*
X575467Y82225D01*
X572743Y81096D01*
X568279Y79247D01*
X560497Y79247D01*
X553309Y82225D01*
X547536Y87997D01*
X547522Y88009D01*
X547511Y88022D01*
X547367Y88136D01*
X547225Y88253D01*
X547209Y88261D01*
X547195Y88272D01*
X547031Y88356D01*
X546869Y88441D01*
X546852Y88446D01*
X546836Y88454D01*
X546659Y88504D01*
X546483Y88556D01*
X546465Y88558D01*
X546448Y88562D01*
X546265Y88576D01*
X546082Y88592D01*
X546064Y88590D01*
X546047Y88592D01*
X545865Y88569D01*
X545682Y88549D01*
X545665Y88544D01*
X545647Y88541D01*
X545473Y88483D01*
X545298Y88427D01*
X545282Y88419D01*
X545266Y88413D01*
X545106Y88321D01*
X544946Y88233D01*
X544932Y88221D01*
X544917Y88212D01*
X544664Y87997D01*
X538891Y82225D01*
X536167Y81096D01*
X531703Y79247D01*
X523921Y79247D01*
X516733Y82225D01*
X511231Y87727D01*
X508253Y94915D01*
X508253Y102697D01*
X511231Y109885D01*
X516733Y115387D01*
X523921Y118365D01*
X531703Y118365D01*
X538891Y115387D01*
X544664Y109615D01*
X544677Y109603D01*
X544689Y109590D01*
X544833Y109476D01*
X544975Y109359D01*
X544991Y109351D01*
X545005Y109340D01*
X545169Y109257D01*
X545331Y109171D01*
X545348Y109166D01*
X545364Y109158D01*
X545541Y109108D01*
X545717Y109056D01*
X545735Y109054D01*
X545752Y109050D01*
X545935Y109036D01*
X546118Y109020D01*
X546136Y109022D01*
X546153Y109020D01*
X546335Y109043D01*
X546518Y109063D01*
X546535Y109068D01*
X546553Y109071D01*
X546726Y109129D01*
X546902Y109185D01*
X546918Y109193D01*
X546934Y109199D01*
X547094Y109291D01*
X547254Y109379D01*
X547268Y109391D01*
X547283Y109400D01*
X547536Y109615D01*
X553309Y115387D01*
X560497Y118365D01*
X568278Y118365D01*
X574897Y115623D01*
X574918Y115617D01*
X574938Y115607D01*
X575111Y115559D01*
X575282Y115507D01*
X575304Y115505D01*
X575326Y115499D01*
X575505Y115486D01*
X575683Y115469D01*
X575705Y115471D01*
X575727Y115470D01*
X575906Y115492D01*
X576083Y115511D01*
X576104Y115517D01*
X576127Y115520D01*
X576297Y115577D01*
X576468Y115630D01*
X576487Y115641D01*
X576508Y115648D01*
X576664Y115738D01*
X576821Y115824D01*
X576838Y115838D01*
X576857Y115849D01*
X577110Y116064D01*
X578736Y117690D01*
X578742Y117697D01*
X578749Y117702D01*
X578869Y117852D01*
X578991Y118001D01*
X578995Y118009D01*
X579001Y118016D01*
X579090Y118187D01*
X579180Y118357D01*
X579182Y118365D01*
X579186Y118373D01*
X579240Y118559D01*
X579295Y118743D01*
X579295Y118752D01*
X579298Y118760D01*
X579313Y118952D01*
X579331Y119144D01*
X579330Y119153D01*
X579331Y119162D01*
X579309Y119351D01*
X579288Y119544D01*
X579285Y119553D01*
X579284Y119561D01*
X579224Y119743D01*
X579166Y119928D01*
X579162Y119936D01*
X579159Y119944D01*
X579064Y120113D01*
X578971Y120280D01*
X578965Y120287D01*
X578961Y120295D01*
X578835Y120441D01*
X578711Y120587D01*
X578704Y120593D01*
X578698Y120600D01*
X578546Y120717D01*
X578395Y120837D01*
X578387Y120841D01*
X578380Y120846D01*
X578208Y120932D01*
X578036Y121019D01*
X578027Y121022D01*
X578019Y121026D01*
X577833Y121076D01*
X577648Y121127D01*
X577639Y121128D01*
X577630Y121130D01*
X577300Y121157D01*
X576519Y121157D01*
X573812Y123864D01*
X573792Y123881D01*
X573774Y123902D01*
X573636Y124009D01*
X573501Y124119D01*
X573477Y124132D01*
X573456Y124148D01*
X573299Y124226D01*
X573145Y124308D01*
X573120Y124316D01*
X573095Y124328D01*
X572926Y124373D01*
X572759Y124423D01*
X572733Y124425D01*
X572707Y124432D01*
X572376Y124459D01*
X517668Y124459D01*
X512067Y126780D01*
X476882Y161964D01*
X476861Y161981D01*
X476844Y162002D01*
X476706Y162109D01*
X476571Y162219D01*
X476547Y162232D01*
X476526Y162248D01*
X476369Y162326D01*
X476215Y162408D01*
X476189Y162416D01*
X476165Y162428D01*
X475996Y162473D01*
X475829Y162523D01*
X475802Y162525D01*
X475776Y162532D01*
X475446Y162559D01*
X469024Y162559D01*
X468997Y162557D01*
X468971Y162559D01*
X468797Y162537D01*
X468623Y162519D01*
X468598Y162512D01*
X468571Y162508D01*
X468406Y162453D01*
X468238Y162401D01*
X468215Y162388D01*
X468190Y162380D01*
X468038Y162293D01*
X467884Y162209D01*
X467864Y162192D01*
X467841Y162179D01*
X467588Y161964D01*
X465810Y160186D01*
X465798Y160172D01*
X465785Y160161D01*
X465671Y160017D01*
X465555Y159875D01*
X465546Y159859D01*
X465535Y159845D01*
X465452Y159681D01*
X465366Y159519D01*
X465361Y159502D01*
X465353Y159486D01*
X465303Y159309D01*
X465251Y159133D01*
X465250Y159115D01*
X465245Y159098D01*
X465231Y158915D01*
X465215Y158732D01*
X465217Y158714D01*
X465215Y158697D01*
X465238Y158515D01*
X465258Y158332D01*
X465264Y158315D01*
X465266Y158297D01*
X465324Y158123D01*
X465380Y157948D01*
X465388Y157932D01*
X465394Y157916D01*
X465486Y157756D01*
X465575Y157596D01*
X465586Y157582D01*
X465595Y157567D01*
X465810Y157314D01*
X475743Y147381D01*
X475743Y143066D01*
X475746Y143036D01*
X475744Y143004D01*
X475766Y142835D01*
X475783Y142666D01*
X475792Y142636D01*
X475796Y142605D01*
X475897Y142289D01*
X478029Y137144D01*
X478029Y112067D01*
X478031Y112040D01*
X478029Y112014D01*
X478051Y111840D01*
X478069Y111666D01*
X478076Y111641D01*
X478080Y111614D01*
X478135Y111448D01*
X478187Y111281D01*
X478200Y111258D01*
X478208Y111232D01*
X478295Y111081D01*
X478379Y110927D01*
X478396Y110907D01*
X478409Y110884D01*
X478624Y110631D01*
X479369Y109885D01*
X482347Y102697D01*
X482347Y94915D01*
X479369Y87727D01*
X473867Y82225D01*
X471143Y81096D01*
X466679Y79247D01*
X458897Y79247D01*
X451709Y82225D01*
X445936Y87997D01*
X445922Y88009D01*
X445911Y88022D01*
X445767Y88136D01*
X445625Y88253D01*
X445609Y88261D01*
X445595Y88272D01*
X445431Y88356D01*
X445269Y88441D01*
X445252Y88446D01*
X445236Y88454D01*
X445059Y88504D01*
X444883Y88556D01*
X444865Y88558D01*
X444848Y88562D01*
X444665Y88576D01*
X444482Y88592D01*
X444464Y88590D01*
X444447Y88592D01*
X444265Y88569D01*
X444082Y88549D01*
X444065Y88544D01*
X444047Y88541D01*
X443873Y88483D01*
X443698Y88427D01*
X443682Y88419D01*
X443666Y88413D01*
X443506Y88321D01*
X443346Y88233D01*
X443332Y88221D01*
X443317Y88212D01*
X443064Y87997D01*
X437291Y82225D01*
X434567Y81096D01*
X430103Y79247D01*
X422321Y79247D01*
X415133Y82225D01*
X409631Y87727D01*
X406653Y94915D01*
X406653Y102697D01*
X409631Y109885D01*
X415133Y115387D01*
X422321Y118365D01*
X430103Y118365D01*
X437291Y115387D01*
X443064Y109615D01*
X443077Y109603D01*
X443089Y109590D01*
X443233Y109476D01*
X443375Y109359D01*
X443391Y109351D01*
X443405Y109340D01*
X443569Y109257D01*
X443731Y109171D01*
X443748Y109166D01*
X443764Y109158D01*
X443941Y109108D01*
X444117Y109056D01*
X444135Y109054D01*
X444152Y109050D01*
X444335Y109036D01*
X444518Y109020D01*
X444536Y109022D01*
X444553Y109020D01*
X444735Y109043D01*
X444918Y109063D01*
X444935Y109068D01*
X444953Y109071D01*
X445126Y109129D01*
X445302Y109185D01*
X445318Y109193D01*
X445334Y109199D01*
X445494Y109291D01*
X445654Y109379D01*
X445668Y109391D01*
X445683Y109400D01*
X445936Y109615D01*
X446952Y110631D01*
X446969Y110651D01*
X446990Y110669D01*
X447097Y110807D01*
X447207Y110942D01*
X447220Y110966D01*
X447236Y110987D01*
X447314Y111144D01*
X447396Y111298D01*
X447404Y111323D01*
X447416Y111347D01*
X447461Y111517D01*
X447511Y111684D01*
X447513Y111710D01*
X447520Y111736D01*
X447547Y112067D01*
X447547Y122288D01*
X447545Y122315D01*
X447547Y122341D01*
X447525Y122515D01*
X447507Y122689D01*
X447500Y122714D01*
X447496Y122741D01*
X447441Y122906D01*
X447389Y123074D01*
X447376Y123097D01*
X447368Y123122D01*
X447281Y123274D01*
X447197Y123428D01*
X447180Y123448D01*
X447167Y123471D01*
X446952Y123724D01*
X438657Y132019D01*
X438657Y147381D01*
X448590Y157314D01*
X448602Y157327D01*
X448615Y157339D01*
X448729Y157483D01*
X448845Y157625D01*
X448854Y157641D01*
X448865Y157655D01*
X448948Y157819D01*
X449034Y157981D01*
X449039Y157998D01*
X449047Y158014D01*
X449097Y158191D01*
X449149Y158367D01*
X449150Y158385D01*
X449155Y158402D01*
X449169Y158585D01*
X449185Y158768D01*
X449183Y158786D01*
X449185Y158803D01*
X449162Y158985D01*
X449142Y159168D01*
X449136Y159185D01*
X449134Y159203D01*
X449076Y159376D01*
X449020Y159552D01*
X449012Y159568D01*
X449006Y159584D01*
X448914Y159744D01*
X448825Y159904D01*
X448814Y159918D01*
X448805Y159933D01*
X448590Y160186D01*
X438657Y170119D01*
X438657Y185481D01*
X441364Y188188D01*
X441381Y188208D01*
X441402Y188226D01*
X441509Y188364D01*
X441619Y188499D01*
X441632Y188523D01*
X441648Y188544D01*
X441726Y188701D01*
X441808Y188855D01*
X441816Y188880D01*
X441828Y188905D01*
X441873Y189074D01*
X441923Y189241D01*
X441925Y189267D01*
X441932Y189293D01*
X441959Y189624D01*
X441959Y204076D01*
X441957Y204103D01*
X441959Y204129D01*
X441937Y204303D01*
X441919Y204477D01*
X441912Y204502D01*
X441908Y204529D01*
X441853Y204694D01*
X441801Y204862D01*
X441788Y204885D01*
X441780Y204910D01*
X441693Y205062D01*
X441609Y205216D01*
X441592Y205236D01*
X441579Y205259D01*
X441364Y205512D01*
X438657Y208219D01*
X438657Y224028D01*
X438655Y224046D01*
X438657Y224064D01*
X438636Y224246D01*
X438617Y224429D01*
X438612Y224446D01*
X438610Y224463D01*
X438553Y224638D01*
X438499Y224814D01*
X438491Y224829D01*
X438485Y224846D01*
X438395Y225006D01*
X438307Y225168D01*
X438296Y225181D01*
X438287Y225197D01*
X438167Y225336D01*
X438050Y225477D01*
X438036Y225488D01*
X438024Y225502D01*
X437879Y225614D01*
X437736Y225729D01*
X437720Y225737D01*
X437706Y225748D01*
X437541Y225830D01*
X437379Y225915D01*
X437362Y225920D01*
X437346Y225928D01*
X437167Y225975D01*
X436992Y226026D01*
X436974Y226028D01*
X436957Y226032D01*
X436626Y226059D01*
X371898Y226059D01*
X371889Y226058D01*
X371880Y226059D01*
X371689Y226038D01*
X371498Y226019D01*
X371489Y226017D01*
X371480Y226016D01*
X371298Y225958D01*
X371113Y225901D01*
X371105Y225897D01*
X371096Y225894D01*
X370928Y225801D01*
X370759Y225709D01*
X370752Y225704D01*
X370744Y225699D01*
X370597Y225575D01*
X370449Y225452D01*
X370444Y225445D01*
X370437Y225439D01*
X370318Y225288D01*
X370197Y225138D01*
X370193Y225130D01*
X370187Y225123D01*
X370100Y224950D01*
X370012Y224781D01*
X370009Y224772D01*
X370005Y224764D01*
X369953Y224578D01*
X369900Y224394D01*
X369899Y224385D01*
X369897Y224376D01*
X369883Y224183D01*
X369867Y223992D01*
X369868Y223984D01*
X369868Y223975D01*
X369892Y223782D01*
X369914Y223593D01*
X369917Y223584D01*
X369918Y223575D01*
X369979Y223392D01*
X370039Y223210D01*
X370043Y223202D01*
X370046Y223194D01*
X370142Y223027D01*
X370237Y222859D01*
X370243Y222852D01*
X370247Y222845D01*
X370462Y222592D01*
X374108Y218945D01*
X376429Y213344D01*
X376429Y112067D01*
X376431Y112040D01*
X376429Y112014D01*
X376451Y111840D01*
X376469Y111666D01*
X376476Y111641D01*
X376480Y111614D01*
X376535Y111448D01*
X376587Y111281D01*
X376600Y111258D01*
X376608Y111232D01*
X376695Y111081D01*
X376779Y110927D01*
X376796Y110907D01*
X376809Y110884D01*
X377024Y110631D01*
X377769Y109885D01*
X380747Y102697D01*
X380747Y94915D01*
X377769Y87727D01*
X372267Y82225D01*
X369543Y81096D01*
X365079Y79247D01*
X357297Y79247D01*
X350109Y82225D01*
X344336Y87997D01*
X344322Y88009D01*
X344311Y88022D01*
X344167Y88136D01*
X344025Y88253D01*
X344009Y88261D01*
X343995Y88272D01*
X343831Y88356D01*
X343669Y88441D01*
X343652Y88446D01*
X343636Y88454D01*
X343459Y88504D01*
X343283Y88556D01*
X343265Y88558D01*
X343248Y88562D01*
X343065Y88576D01*
X342882Y88592D01*
X342864Y88590D01*
X342847Y88592D01*
X342665Y88569D01*
X342482Y88549D01*
X342465Y88544D01*
X342447Y88541D01*
X342273Y88483D01*
X342098Y88427D01*
X342082Y88419D01*
X342066Y88413D01*
X341906Y88321D01*
X341746Y88233D01*
X341732Y88221D01*
X341717Y88212D01*
X341464Y87997D01*
X335691Y82225D01*
X332967Y81096D01*
X328503Y79247D01*
X320721Y79247D01*
X313533Y82225D01*
X308031Y87727D01*
X305053Y94915D01*
X305053Y100796D01*
X305052Y100805D01*
X305053Y100814D01*
X305032Y101007D01*
X305013Y101196D01*
X305011Y101205D01*
X305010Y101214D01*
X304952Y101397D01*
X304895Y101581D01*
X304891Y101589D01*
X304888Y101598D01*
X304796Y101765D01*
X304703Y101935D01*
X304698Y101942D01*
X304693Y101950D01*
X304569Y102097D01*
X304446Y102245D01*
X304439Y102250D01*
X304433Y102257D01*
X304281Y102377D01*
X304132Y102497D01*
X304124Y102501D01*
X304117Y102507D01*
X303944Y102594D01*
X303775Y102682D01*
X303766Y102685D01*
X303758Y102689D01*
X303572Y102741D01*
X303388Y102794D01*
X303379Y102795D01*
X303370Y102797D01*
X303177Y102811D01*
X302986Y102827D01*
X302978Y102826D01*
X302969Y102826D01*
X302776Y102802D01*
X302587Y102780D01*
X302578Y102777D01*
X302569Y102776D01*
X302386Y102715D01*
X302204Y102655D01*
X302196Y102651D01*
X302188Y102648D01*
X302021Y102552D01*
X301853Y102457D01*
X301846Y102451D01*
X301839Y102447D01*
X301586Y102232D01*
X285239Y85886D01*
X279638Y83565D01*
X272849Y83565D01*
X272822Y83563D01*
X272796Y83565D01*
X272622Y83543D01*
X272448Y83525D01*
X272423Y83518D01*
X272396Y83514D01*
X272230Y83459D01*
X272063Y83407D01*
X272040Y83394D01*
X272014Y83386D01*
X271863Y83299D01*
X271709Y83215D01*
X271689Y83198D01*
X271666Y83185D01*
X271413Y82970D01*
X270667Y82225D01*
X267943Y81096D01*
X263479Y79247D01*
X255697Y79247D01*
X248509Y82225D01*
X242736Y87997D01*
X242722Y88009D01*
X242711Y88022D01*
X242567Y88136D01*
X242425Y88253D01*
X242409Y88261D01*
X242395Y88272D01*
X242231Y88356D01*
X242069Y88441D01*
X242052Y88446D01*
X242036Y88454D01*
X241859Y88504D01*
X241683Y88556D01*
X241665Y88558D01*
X241648Y88562D01*
X241465Y88576D01*
X241282Y88592D01*
X241264Y88590D01*
X241247Y88592D01*
X241065Y88569D01*
X240882Y88549D01*
X240865Y88544D01*
X240847Y88541D01*
X240673Y88483D01*
X240498Y88427D01*
X240482Y88419D01*
X240466Y88413D01*
X240306Y88321D01*
X240146Y88233D01*
X240132Y88221D01*
X240117Y88212D01*
X239864Y87997D01*
X234091Y82225D01*
X231367Y81096D01*
X226903Y79247D01*
X219121Y79247D01*
X211933Y82225D01*
X206431Y87727D01*
X203453Y94915D01*
X203453Y102697D01*
X206431Y109885D01*
X211933Y115387D01*
X219121Y118365D01*
X226903Y118365D01*
X234091Y115387D01*
X239864Y109615D01*
X239877Y109603D01*
X239889Y109590D01*
X240033Y109476D01*
X240175Y109359D01*
X240191Y109351D01*
X240205Y109340D01*
X240369Y109257D01*
X240531Y109171D01*
X240548Y109166D01*
X240564Y109158D01*
X240741Y109108D01*
X240917Y109056D01*
X240935Y109054D01*
X240952Y109050D01*
X241135Y109036D01*
X241318Y109020D01*
X241336Y109022D01*
X241353Y109020D01*
X241535Y109043D01*
X241718Y109063D01*
X241735Y109068D01*
X241753Y109071D01*
X241926Y109129D01*
X242102Y109185D01*
X242118Y109193D01*
X242134Y109199D01*
X242294Y109291D01*
X242454Y109379D01*
X242468Y109391D01*
X242483Y109400D01*
X242736Y109615D01*
X248509Y115387D01*
X255697Y118365D01*
X263478Y118365D01*
X270097Y115623D01*
X270118Y115617D01*
X270138Y115607D01*
X270311Y115559D01*
X270482Y115507D01*
X270504Y115505D01*
X270526Y115499D01*
X270705Y115486D01*
X270883Y115469D01*
X270905Y115471D01*
X270927Y115470D01*
X271106Y115492D01*
X271283Y115511D01*
X271304Y115517D01*
X271327Y115520D01*
X271497Y115577D01*
X271668Y115630D01*
X271687Y115641D01*
X271708Y115648D01*
X271864Y115738D01*
X272021Y115824D01*
X272038Y115838D01*
X272057Y115849D01*
X272310Y116064D01*
X273936Y117690D01*
X273942Y117697D01*
X273949Y117702D01*
X274069Y117852D01*
X274191Y118001D01*
X274195Y118009D01*
X274201Y118016D01*
X274290Y118187D01*
X274380Y118357D01*
X274382Y118365D01*
X274386Y118373D01*
X274440Y118559D01*
X274495Y118743D01*
X274495Y118752D01*
X274498Y118760D01*
X274513Y118952D01*
X274531Y119144D01*
X274530Y119153D01*
X274531Y119162D01*
X274509Y119351D01*
X274488Y119544D01*
X274485Y119553D01*
X274484Y119561D01*
X274424Y119743D01*
X274366Y119928D01*
X274362Y119936D01*
X274359Y119944D01*
X274264Y120113D01*
X274171Y120280D01*
X274165Y120287D01*
X274161Y120295D01*
X274035Y120441D01*
X273911Y120587D01*
X273904Y120593D01*
X273898Y120600D01*
X273746Y120717D01*
X273595Y120837D01*
X273587Y120841D01*
X273580Y120846D01*
X273408Y120932D01*
X273236Y121019D01*
X273227Y121022D01*
X273219Y121026D01*
X273033Y121076D01*
X272848Y121127D01*
X272839Y121128D01*
X272830Y121130D01*
X272500Y121157D01*
X271719Y121157D01*
X269012Y123864D01*
X268992Y123881D01*
X268974Y123902D01*
X268836Y124009D01*
X268701Y124119D01*
X268677Y124132D01*
X268656Y124148D01*
X268499Y124226D01*
X268345Y124308D01*
X268320Y124316D01*
X268295Y124328D01*
X268126Y124373D01*
X267959Y124423D01*
X267933Y124425D01*
X267907Y124432D01*
X267576Y124459D01*
X212868Y124459D01*
X207267Y126780D01*
X202694Y131352D01*
X202694Y131353D01*
X172082Y161964D01*
X172061Y161981D01*
X172044Y162002D01*
X171906Y162109D01*
X171771Y162219D01*
X171747Y162232D01*
X171726Y162248D01*
X171569Y162326D01*
X171415Y162408D01*
X171389Y162416D01*
X171365Y162428D01*
X171196Y162473D01*
X171029Y162523D01*
X171002Y162525D01*
X170976Y162532D01*
X170646Y162559D01*
X164224Y162559D01*
X164197Y162557D01*
X164171Y162559D01*
X163997Y162537D01*
X163823Y162519D01*
X163798Y162512D01*
X163771Y162508D01*
X163606Y162453D01*
X163438Y162401D01*
X163415Y162388D01*
X163390Y162380D01*
X163238Y162293D01*
X163084Y162209D01*
X163064Y162192D01*
X163041Y162179D01*
X162788Y161964D01*
X161010Y160186D01*
X160998Y160172D01*
X160985Y160161D01*
X160871Y160017D01*
X160755Y159875D01*
X160746Y159859D01*
X160735Y159845D01*
X160652Y159681D01*
X160566Y159519D01*
X160561Y159502D01*
X160553Y159486D01*
X160503Y159309D01*
X160451Y159133D01*
X160450Y159115D01*
X160445Y159098D01*
X160431Y158915D01*
X160415Y158732D01*
X160417Y158714D01*
X160415Y158697D01*
X160438Y158515D01*
X160458Y158332D01*
X160464Y158315D01*
X160466Y158297D01*
X160524Y158123D01*
X160580Y157948D01*
X160588Y157932D01*
X160594Y157916D01*
X160686Y157756D01*
X160775Y157596D01*
X160786Y157582D01*
X160795Y157567D01*
X161010Y157314D01*
X170943Y147381D01*
X170943Y143067D01*
X170946Y143036D01*
X170944Y143004D01*
X170966Y142835D01*
X170983Y142666D01*
X170992Y142636D01*
X170996Y142605D01*
X171097Y142289D01*
X173229Y137144D01*
X173229Y112067D01*
X173231Y112040D01*
X173229Y112014D01*
X173251Y111840D01*
X173269Y111666D01*
X173276Y111641D01*
X173280Y111614D01*
X173335Y111448D01*
X173387Y111281D01*
X173400Y111258D01*
X173408Y111232D01*
X173495Y111081D01*
X173579Y110927D01*
X173596Y110907D01*
X173609Y110884D01*
X173824Y110631D01*
X174569Y109885D01*
X177547Y102697D01*
X177547Y94915D01*
X174569Y87727D01*
X169067Y82225D01*
X166343Y81096D01*
X161879Y79247D01*
X154097Y79247D01*
X146909Y82225D01*
X141407Y87727D01*
X138429Y94915D01*
X138429Y102697D01*
X141407Y109885D01*
X142152Y110631D01*
X142169Y110651D01*
X142190Y110669D01*
X142297Y110807D01*
X142407Y110942D01*
X142420Y110966D01*
X142436Y110987D01*
X142514Y111144D01*
X142596Y111298D01*
X142604Y111323D01*
X142616Y111347D01*
X142661Y111517D01*
X142711Y111684D01*
X142713Y111710D01*
X142720Y111736D01*
X142747Y112067D01*
X142747Y122288D01*
X142745Y122315D01*
X142747Y122341D01*
X142725Y122515D01*
X142707Y122689D01*
X142700Y122714D01*
X142696Y122741D01*
X142641Y122906D01*
X142589Y123074D01*
X142576Y123097D01*
X142568Y123122D01*
X142481Y123274D01*
X142397Y123428D01*
X142380Y123448D01*
X142367Y123471D01*
X142152Y123724D01*
X133857Y132019D01*
X133857Y147381D01*
X143790Y157314D01*
X143802Y157327D01*
X143815Y157339D01*
X143929Y157483D01*
X144045Y157625D01*
X144054Y157641D01*
X144065Y157655D01*
X144148Y157819D01*
X144234Y157981D01*
X144239Y157998D01*
X144247Y158014D01*
X144297Y158191D01*
X144349Y158367D01*
X144350Y158385D01*
X144355Y158402D01*
X144369Y158585D01*
X144385Y158768D01*
X144383Y158786D01*
X144385Y158803D01*
X144362Y158985D01*
X144342Y159168D01*
X144336Y159185D01*
X144334Y159203D01*
X144276Y159376D01*
X144220Y159552D01*
X144212Y159568D01*
X144206Y159584D01*
X144114Y159744D01*
X144025Y159904D01*
X144014Y159918D01*
X144005Y159933D01*
X143790Y160186D01*
X133857Y170119D01*
X133857Y185481D01*
X136564Y188188D01*
X136581Y188208D01*
X136602Y188226D01*
X136709Y188364D01*
X136819Y188499D01*
X136832Y188523D01*
X136848Y188544D01*
X136926Y188701D01*
X137008Y188855D01*
X137016Y188880D01*
X137028Y188904D01*
X137073Y189074D01*
X137123Y189241D01*
X137125Y189267D01*
X137132Y189293D01*
X137159Y189624D01*
X137159Y204076D01*
X137157Y204103D01*
X137159Y204129D01*
X137137Y204303D01*
X137119Y204477D01*
X137112Y204502D01*
X137108Y204529D01*
X137052Y204695D01*
X137001Y204862D01*
X136988Y204885D01*
X136980Y204910D01*
X136893Y205062D01*
X136809Y205216D01*
X136792Y205236D01*
X136779Y205259D01*
X136564Y205512D01*
X133857Y208219D01*
X133857Y224028D01*
X133855Y224046D01*
X133857Y224064D01*
X133836Y224246D01*
X133817Y224429D01*
X133812Y224446D01*
X133810Y224463D01*
X133753Y224638D01*
X133699Y224814D01*
X133691Y224829D01*
X133685Y224846D01*
X133595Y225006D01*
X133507Y225168D01*
X133496Y225181D01*
X133487Y225197D01*
X133367Y225336D01*
X133250Y225477D01*
X133236Y225488D01*
X133224Y225502D01*
X133079Y225614D01*
X132936Y225729D01*
X132920Y225737D01*
X132906Y225748D01*
X132741Y225830D01*
X132579Y225915D01*
X132562Y225920D01*
X132546Y225928D01*
X132367Y225975D01*
X132192Y226026D01*
X132174Y226028D01*
X132157Y226032D01*
X131826Y226059D01*
X117657Y226059D01*
X117635Y226057D01*
X117613Y226059D01*
X117436Y226037D01*
X117257Y226019D01*
X117235Y226013D01*
X117213Y226010D01*
X117044Y225954D01*
X116872Y225901D01*
X116852Y225891D01*
X116831Y225884D01*
X116676Y225795D01*
X116518Y225709D01*
X116501Y225695D01*
X116481Y225684D01*
X116346Y225566D01*
X116209Y225452D01*
X116195Y225434D01*
X116178Y225420D01*
X116068Y225278D01*
X115956Y225138D01*
X115946Y225118D01*
X115932Y225100D01*
X115781Y224805D01*
X113002Y218096D01*
X112242Y217336D01*
X112230Y217323D01*
X112217Y217311D01*
X112103Y217167D01*
X111987Y217025D01*
X111978Y217009D01*
X111967Y216995D01*
X111884Y216831D01*
X111798Y216669D01*
X111793Y216652D01*
X111785Y216636D01*
X111736Y216459D01*
X111683Y216283D01*
X111682Y216265D01*
X111677Y216248D01*
X111663Y216065D01*
X111647Y215882D01*
X111649Y215864D01*
X111647Y215847D01*
X111670Y215665D01*
X111690Y215482D01*
X111696Y215465D01*
X111698Y215447D01*
X111756Y215274D01*
X111812Y215098D01*
X111820Y215082D01*
X111826Y215066D01*
X111918Y214907D01*
X112007Y214746D01*
X112018Y214732D01*
X112027Y214717D01*
X112242Y214464D01*
X113002Y213704D01*
X115825Y206888D01*
X115825Y199512D01*
X113002Y192696D01*
X112242Y191936D01*
X112230Y191923D01*
X112217Y191911D01*
X112103Y191767D01*
X111987Y191625D01*
X111978Y191609D01*
X111967Y191595D01*
X111884Y191431D01*
X111798Y191269D01*
X111793Y191252D01*
X111785Y191236D01*
X111736Y191059D01*
X111683Y190883D01*
X111682Y190865D01*
X111677Y190848D01*
X111663Y190665D01*
X111647Y190482D01*
X111649Y190464D01*
X111647Y190447D01*
X111670Y190265D01*
X111690Y190082D01*
X111696Y190065D01*
X111698Y190047D01*
X111756Y189874D01*
X111812Y189698D01*
X111820Y189682D01*
X111826Y189666D01*
X111918Y189507D01*
X112007Y189346D01*
X112018Y189332D01*
X112027Y189317D01*
X112242Y189064D01*
X113002Y188304D01*
X115825Y181488D01*
X115825Y174112D01*
X113002Y167296D01*
X112242Y166536D01*
X112230Y166523D01*
X112217Y166511D01*
X112103Y166367D01*
X111987Y166225D01*
X111978Y166209D01*
X111967Y166195D01*
X111884Y166031D01*
X111798Y165869D01*
X111793Y165852D01*
X111785Y165836D01*
X111736Y165659D01*
X111683Y165483D01*
X111682Y165465D01*
X111677Y165448D01*
X111663Y165265D01*
X111647Y165082D01*
X111649Y165064D01*
X111647Y165047D01*
X111670Y164865D01*
X111690Y164682D01*
X111696Y164665D01*
X111698Y164647D01*
X111756Y164474D01*
X111812Y164298D01*
X111820Y164282D01*
X111826Y164266D01*
X111918Y164107D01*
X112007Y163946D01*
X112018Y163932D01*
X112027Y163917D01*
X112242Y163664D01*
X113002Y162904D01*
X115825Y156088D01*
X115825Y148712D01*
X113002Y141896D01*
X112242Y141136D01*
X112230Y141123D01*
X112217Y141111D01*
X112103Y140967D01*
X111987Y140825D01*
X111978Y140809D01*
X111967Y140795D01*
X111884Y140631D01*
X111798Y140469D01*
X111793Y140452D01*
X111785Y140436D01*
X111736Y140259D01*
X111683Y140083D01*
X111682Y140065D01*
X111677Y140048D01*
X111663Y139865D01*
X111647Y139682D01*
X111649Y139664D01*
X111647Y139647D01*
X111670Y139465D01*
X111690Y139282D01*
X111696Y139265D01*
X111698Y139247D01*
X111756Y139074D01*
X111812Y138898D01*
X111820Y138882D01*
X111826Y138866D01*
X111918Y138707D01*
X112007Y138546D01*
X112018Y138532D01*
X112027Y138517D01*
X112242Y138264D01*
X113002Y137504D01*
X115825Y130688D01*
X115825Y123312D01*
X113002Y116496D01*
X112242Y115736D01*
X112230Y115723D01*
X112217Y115711D01*
X112103Y115567D01*
X111987Y115425D01*
X111978Y115409D01*
X111967Y115395D01*
X111884Y115231D01*
X111798Y115069D01*
X111793Y115052D01*
X111785Y115036D01*
X111736Y114859D01*
X111683Y114683D01*
X111682Y114665D01*
X111677Y114648D01*
X111663Y114465D01*
X111647Y114282D01*
X111649Y114264D01*
X111647Y114247D01*
X111670Y114065D01*
X111690Y113882D01*
X111696Y113865D01*
X111698Y113847D01*
X111756Y113674D01*
X111812Y113498D01*
X111820Y113482D01*
X111826Y113466D01*
X111918Y113307D01*
X112007Y113146D01*
X112018Y113132D01*
X112027Y113117D01*
X112242Y112864D01*
X113002Y112104D01*
X115825Y105288D01*
X115825Y97912D01*
X113002Y91096D01*
X112242Y90336D01*
X112230Y90323D01*
X112217Y90311D01*
X112103Y90167D01*
X111987Y90025D01*
X111978Y90009D01*
X111967Y89995D01*
X111884Y89831D01*
X111798Y89669D01*
X111793Y89652D01*
X111785Y89636D01*
X111736Y89459D01*
X111683Y89283D01*
X111682Y89265D01*
X111677Y89248D01*
X111663Y89065D01*
X111647Y88882D01*
X111649Y88864D01*
X111647Y88847D01*
X111670Y88665D01*
X111690Y88482D01*
X111696Y88465D01*
X111698Y88447D01*
X111756Y88274D01*
X111812Y88098D01*
X111820Y88082D01*
X111826Y88066D01*
X111918Y87906D01*
X112007Y87746D01*
X112018Y87732D01*
X112027Y87717D01*
X112242Y87464D01*
X113002Y86704D01*
X115825Y79888D01*
X115825Y72512D01*
X113002Y65696D01*
X112242Y64936D01*
X112230Y64923D01*
X112217Y64911D01*
X112103Y64767D01*
X111987Y64625D01*
X111978Y64609D01*
X111967Y64595D01*
X111884Y64431D01*
X111798Y64269D01*
X111793Y64252D01*
X111785Y64236D01*
X111736Y64059D01*
X111683Y63883D01*
X111682Y63865D01*
X111677Y63848D01*
X111663Y63665D01*
X111647Y63482D01*
X111649Y63464D01*
X111647Y63447D01*
X111670Y63265D01*
X111690Y63082D01*
X111696Y63065D01*
X111698Y63047D01*
X111756Y62874D01*
X111812Y62698D01*
X111820Y62682D01*
X111826Y62666D01*
X111918Y62507D01*
X112007Y62346D01*
X112018Y62332D01*
X112027Y62317D01*
X112242Y62064D01*
X113002Y61304D01*
X115825Y54488D01*
X115825Y47099D01*
X115786Y46961D01*
X115735Y46790D01*
X115733Y46768D01*
X115727Y46747D01*
X115714Y46567D01*
X115697Y46390D01*
X115699Y46367D01*
X115697Y46345D01*
X115720Y46167D01*
X115738Y45989D01*
X115745Y45968D01*
X115748Y45946D01*
X115805Y45776D01*
X115858Y45605D01*
X115869Y45585D01*
X115876Y45564D01*
X115966Y45408D01*
X116051Y45252D01*
X116066Y45235D01*
X116077Y45215D01*
X116292Y44962D01*
X120018Y41236D01*
X120039Y41219D01*
X120056Y41198D01*
X120194Y41092D01*
X120329Y40981D01*
X120353Y40968D01*
X120374Y40952D01*
X120530Y40874D01*
X120685Y40792D01*
X120711Y40784D01*
X120735Y40772D01*
X120904Y40727D01*
X121071Y40677D01*
X121098Y40675D01*
X121124Y40668D01*
X121454Y40641D01*
X139143Y40641D01*
X139157Y40642D01*
G37*
G36*
X103091Y10162D02*
X103091Y10162D01*
X103100Y10161D01*
X103293Y10182D01*
X103482Y10201D01*
X103491Y10203D01*
X103500Y10204D01*
X103685Y10263D01*
X103867Y10319D01*
X103875Y10323D01*
X103884Y10326D01*
X104053Y10419D01*
X104221Y10511D01*
X104228Y10516D01*
X104236Y10521D01*
X104383Y10645D01*
X104531Y10768D01*
X104536Y10775D01*
X104543Y10781D01*
X104663Y10933D01*
X104783Y11082D01*
X104787Y11090D01*
X104793Y11097D01*
X104880Y11270D01*
X104968Y11439D01*
X104971Y11448D01*
X104975Y11456D01*
X105027Y11642D01*
X105080Y11826D01*
X105081Y11835D01*
X105083Y11844D01*
X105097Y12037D01*
X105113Y12228D01*
X105112Y12236D01*
X105112Y12245D01*
X105088Y12438D01*
X105066Y12627D01*
X105063Y12636D01*
X105062Y12645D01*
X105001Y12828D01*
X104941Y13010D01*
X104937Y13018D01*
X104934Y13026D01*
X104838Y13193D01*
X104743Y13361D01*
X104737Y13368D01*
X104733Y13375D01*
X104518Y13628D01*
X86484Y31662D01*
X86463Y31679D01*
X86446Y31700D01*
X86308Y31807D01*
X86173Y31917D01*
X86149Y31930D01*
X86128Y31946D01*
X85971Y32024D01*
X85817Y32106D01*
X85791Y32114D01*
X85767Y32126D01*
X85598Y32171D01*
X85431Y32221D01*
X85404Y32223D01*
X85378Y32230D01*
X85048Y32257D01*
X76830Y32257D01*
X70014Y35080D01*
X64798Y40296D01*
X61975Y47112D01*
X61975Y54488D01*
X64798Y61304D01*
X65558Y62064D01*
X65570Y62078D01*
X65583Y62089D01*
X65697Y62233D01*
X65813Y62375D01*
X65822Y62391D01*
X65833Y62405D01*
X65916Y62569D01*
X66002Y62731D01*
X66007Y62748D01*
X66015Y62764D01*
X66064Y62941D01*
X66117Y63117D01*
X66118Y63135D01*
X66123Y63152D01*
X66137Y63335D01*
X66153Y63518D01*
X66151Y63536D01*
X66153Y63553D01*
X66130Y63735D01*
X66110Y63918D01*
X66104Y63935D01*
X66102Y63953D01*
X66044Y64126D01*
X65988Y64302D01*
X65980Y64318D01*
X65974Y64334D01*
X65882Y64494D01*
X65793Y64654D01*
X65782Y64668D01*
X65773Y64683D01*
X65558Y64936D01*
X64798Y65696D01*
X61975Y72512D01*
X61975Y79888D01*
X64798Y86704D01*
X65558Y87464D01*
X65570Y87478D01*
X65583Y87489D01*
X65697Y87633D01*
X65813Y87775D01*
X65822Y87791D01*
X65833Y87805D01*
X65916Y87969D01*
X66002Y88131D01*
X66007Y88148D01*
X66015Y88164D01*
X66064Y88341D01*
X66117Y88517D01*
X66118Y88535D01*
X66123Y88552D01*
X66137Y88735D01*
X66153Y88918D01*
X66151Y88936D01*
X66153Y88953D01*
X66130Y89135D01*
X66110Y89318D01*
X66104Y89335D01*
X66102Y89353D01*
X66044Y89526D01*
X65988Y89702D01*
X65980Y89718D01*
X65974Y89734D01*
X65882Y89894D01*
X65793Y90054D01*
X65782Y90068D01*
X65773Y90083D01*
X65558Y90336D01*
X64798Y91096D01*
X61975Y97912D01*
X61975Y105288D01*
X64798Y112104D01*
X65558Y112864D01*
X65570Y112878D01*
X65583Y112889D01*
X65697Y113033D01*
X65813Y113175D01*
X65822Y113191D01*
X65833Y113205D01*
X65916Y113369D01*
X66002Y113531D01*
X66007Y113548D01*
X66015Y113564D01*
X66064Y113741D01*
X66117Y113917D01*
X66118Y113935D01*
X66123Y113952D01*
X66137Y114135D01*
X66153Y114318D01*
X66151Y114336D01*
X66153Y114353D01*
X66130Y114535D01*
X66110Y114718D01*
X66104Y114735D01*
X66102Y114753D01*
X66044Y114926D01*
X65988Y115102D01*
X65980Y115118D01*
X65974Y115134D01*
X65882Y115294D01*
X65793Y115454D01*
X65782Y115468D01*
X65773Y115483D01*
X65558Y115736D01*
X64798Y116496D01*
X61975Y123312D01*
X61975Y130688D01*
X64798Y137504D01*
X65558Y138264D01*
X65570Y138278D01*
X65583Y138289D01*
X65697Y138433D01*
X65813Y138575D01*
X65822Y138591D01*
X65833Y138605D01*
X65916Y138769D01*
X66002Y138931D01*
X66007Y138948D01*
X66015Y138964D01*
X66064Y139141D01*
X66117Y139317D01*
X66118Y139335D01*
X66123Y139352D01*
X66137Y139535D01*
X66153Y139718D01*
X66151Y139736D01*
X66153Y139753D01*
X66130Y139935D01*
X66110Y140118D01*
X66104Y140135D01*
X66102Y140153D01*
X66044Y140326D01*
X65988Y140502D01*
X65980Y140518D01*
X65974Y140534D01*
X65882Y140694D01*
X65793Y140854D01*
X65782Y140868D01*
X65773Y140883D01*
X65558Y141136D01*
X64798Y141896D01*
X61975Y148712D01*
X61975Y156088D01*
X64798Y162904D01*
X65558Y163664D01*
X65570Y163678D01*
X65583Y163689D01*
X65697Y163833D01*
X65813Y163975D01*
X65822Y163991D01*
X65833Y164005D01*
X65916Y164169D01*
X66002Y164331D01*
X66007Y164348D01*
X66015Y164364D01*
X66064Y164541D01*
X66117Y164717D01*
X66118Y164735D01*
X66123Y164752D01*
X66137Y164935D01*
X66153Y165118D01*
X66151Y165136D01*
X66153Y165153D01*
X66130Y165335D01*
X66110Y165518D01*
X66104Y165535D01*
X66102Y165553D01*
X66044Y165726D01*
X65988Y165902D01*
X65980Y165918D01*
X65974Y165934D01*
X65882Y166094D01*
X65793Y166254D01*
X65782Y166268D01*
X65773Y166283D01*
X65558Y166536D01*
X64798Y167296D01*
X61975Y174112D01*
X61975Y181488D01*
X64798Y188304D01*
X65558Y189064D01*
X65570Y189078D01*
X65583Y189089D01*
X65697Y189233D01*
X65813Y189375D01*
X65822Y189391D01*
X65833Y189405D01*
X65916Y189569D01*
X66002Y189731D01*
X66007Y189748D01*
X66015Y189764D01*
X66064Y189941D01*
X66117Y190117D01*
X66118Y190135D01*
X66123Y190152D01*
X66137Y190334D01*
X66153Y190518D01*
X66151Y190536D01*
X66153Y190553D01*
X66130Y190735D01*
X66110Y190918D01*
X66104Y190935D01*
X66102Y190953D01*
X66044Y191126D01*
X65988Y191302D01*
X65980Y191318D01*
X65974Y191334D01*
X65882Y191494D01*
X65793Y191654D01*
X65782Y191668D01*
X65773Y191683D01*
X65558Y191936D01*
X64798Y192696D01*
X61975Y199512D01*
X61975Y206888D01*
X64798Y213704D01*
X65558Y214464D01*
X65570Y214478D01*
X65583Y214489D01*
X65697Y214633D01*
X65813Y214775D01*
X65822Y214791D01*
X65833Y214805D01*
X65916Y214969D01*
X66002Y215131D01*
X66007Y215148D01*
X66015Y215164D01*
X66064Y215341D01*
X66117Y215517D01*
X66118Y215535D01*
X66123Y215552D01*
X66137Y215735D01*
X66153Y215918D01*
X66151Y215936D01*
X66153Y215953D01*
X66130Y216135D01*
X66110Y216318D01*
X66104Y216335D01*
X66102Y216353D01*
X66044Y216526D01*
X65988Y216702D01*
X65980Y216718D01*
X65974Y216734D01*
X65882Y216894D01*
X65793Y217054D01*
X65782Y217068D01*
X65773Y217083D01*
X65558Y217336D01*
X64798Y218096D01*
X61975Y224912D01*
X61975Y232288D01*
X64798Y239104D01*
X70014Y244320D01*
X76830Y247143D01*
X85048Y247143D01*
X85074Y247145D01*
X85101Y247143D01*
X85275Y247165D01*
X85448Y247183D01*
X85474Y247190D01*
X85500Y247194D01*
X85666Y247250D01*
X85833Y247301D01*
X85857Y247313D01*
X85882Y247322D01*
X86034Y247409D01*
X86187Y247493D01*
X86208Y247510D01*
X86231Y247523D01*
X86484Y247738D01*
X88518Y249772D01*
X88524Y249779D01*
X88531Y249784D01*
X88651Y249934D01*
X88773Y250083D01*
X88777Y250091D01*
X88783Y250098D01*
X88871Y250268D01*
X88962Y250439D01*
X88964Y250448D01*
X88968Y250455D01*
X89021Y250640D01*
X89077Y250825D01*
X89077Y250834D01*
X89080Y250842D01*
X89095Y251033D01*
X89113Y251226D01*
X89112Y251235D01*
X89113Y251244D01*
X89090Y251433D01*
X89070Y251626D01*
X89067Y251635D01*
X89066Y251643D01*
X89006Y251825D01*
X88948Y252010D01*
X88944Y252018D01*
X88941Y252026D01*
X88847Y252193D01*
X88753Y252362D01*
X88747Y252369D01*
X88743Y252377D01*
X88618Y252522D01*
X88493Y252669D01*
X88486Y252675D01*
X88480Y252682D01*
X88329Y252798D01*
X88177Y252919D01*
X88169Y252923D01*
X88162Y252928D01*
X87990Y253014D01*
X87818Y253101D01*
X87809Y253104D01*
X87801Y253108D01*
X87615Y253158D01*
X87430Y253209D01*
X87421Y253210D01*
X87412Y253212D01*
X87082Y253239D01*
X12192Y253239D01*
X12174Y253237D01*
X12156Y253239D01*
X11974Y253218D01*
X11791Y253199D01*
X11774Y253194D01*
X11757Y253192D01*
X11582Y253135D01*
X11406Y253081D01*
X11391Y253073D01*
X11374Y253067D01*
X11214Y252977D01*
X11052Y252889D01*
X11039Y252878D01*
X11023Y252869D01*
X10884Y252749D01*
X10743Y252632D01*
X10732Y252618D01*
X10718Y252606D01*
X10606Y252461D01*
X10491Y252318D01*
X10483Y252302D01*
X10472Y252288D01*
X10390Y252123D01*
X10305Y251961D01*
X10300Y251944D01*
X10292Y251928D01*
X10245Y251749D01*
X10194Y251574D01*
X10192Y251556D01*
X10188Y251539D01*
X10161Y251208D01*
X10161Y12192D01*
X10163Y12174D01*
X10161Y12156D01*
X10182Y11974D01*
X10201Y11791D01*
X10206Y11774D01*
X10208Y11757D01*
X10265Y11582D01*
X10319Y11406D01*
X10327Y11391D01*
X10333Y11374D01*
X10423Y11214D01*
X10511Y11052D01*
X10522Y11039D01*
X10531Y11023D01*
X10651Y10884D01*
X10768Y10743D01*
X10782Y10732D01*
X10794Y10718D01*
X10939Y10606D01*
X11082Y10491D01*
X11098Y10483D01*
X11112Y10472D01*
X11277Y10390D01*
X11439Y10305D01*
X11456Y10300D01*
X11472Y10292D01*
X11651Y10245D01*
X11826Y10194D01*
X11844Y10192D01*
X11861Y10188D01*
X12192Y10161D01*
X103082Y10161D01*
X103091Y10162D01*
G37*
G36*
X267603Y154943D02*
X267603Y154943D01*
X267629Y154941D01*
X267803Y154963D01*
X267977Y154981D01*
X268002Y154988D01*
X268029Y154992D01*
X268195Y155048D01*
X268362Y155099D01*
X268385Y155111D01*
X268410Y155120D01*
X268562Y155207D01*
X268716Y155291D01*
X268736Y155308D01*
X268759Y155321D01*
X269012Y155536D01*
X270790Y157314D01*
X270802Y157327D01*
X270815Y157339D01*
X270929Y157483D01*
X271045Y157625D01*
X271054Y157641D01*
X271065Y157655D01*
X271148Y157819D01*
X271234Y157981D01*
X271239Y157998D01*
X271247Y158014D01*
X271297Y158191D01*
X271349Y158367D01*
X271350Y158385D01*
X271355Y158402D01*
X271369Y158585D01*
X271385Y158768D01*
X271383Y158786D01*
X271385Y158803D01*
X271362Y158985D01*
X271342Y159168D01*
X271336Y159185D01*
X271334Y159203D01*
X271276Y159376D01*
X271220Y159552D01*
X271212Y159568D01*
X271206Y159584D01*
X271115Y159743D01*
X271025Y159904D01*
X271014Y159918D01*
X271005Y159933D01*
X270790Y160186D01*
X260857Y170119D01*
X260857Y185481D01*
X270790Y195414D01*
X270802Y195427D01*
X270815Y195439D01*
X270929Y195583D01*
X271045Y195725D01*
X271054Y195741D01*
X271065Y195755D01*
X271148Y195919D01*
X271234Y196081D01*
X271239Y196098D01*
X271247Y196114D01*
X271297Y196291D01*
X271349Y196467D01*
X271350Y196485D01*
X271355Y196502D01*
X271369Y196685D01*
X271385Y196868D01*
X271383Y196886D01*
X271385Y196903D01*
X271362Y197085D01*
X271342Y197268D01*
X271336Y197285D01*
X271334Y197303D01*
X271276Y197476D01*
X271220Y197652D01*
X271212Y197668D01*
X271206Y197684D01*
X271114Y197844D01*
X271025Y198004D01*
X271014Y198018D01*
X271005Y198033D01*
X270790Y198286D01*
X260857Y208219D01*
X260857Y224028D01*
X260855Y224046D01*
X260857Y224064D01*
X260836Y224246D01*
X260817Y224429D01*
X260812Y224446D01*
X260810Y224463D01*
X260753Y224638D01*
X260699Y224814D01*
X260691Y224829D01*
X260685Y224846D01*
X260595Y225006D01*
X260507Y225168D01*
X260496Y225181D01*
X260487Y225197D01*
X260367Y225336D01*
X260250Y225477D01*
X260236Y225488D01*
X260224Y225502D01*
X260079Y225614D01*
X259936Y225729D01*
X259920Y225737D01*
X259906Y225748D01*
X259741Y225830D01*
X259579Y225915D01*
X259562Y225920D01*
X259546Y225928D01*
X259367Y225975D01*
X259192Y226026D01*
X259174Y226028D01*
X259157Y226032D01*
X258826Y226059D01*
X172974Y226059D01*
X172956Y226057D01*
X172938Y226059D01*
X172756Y226038D01*
X172573Y226019D01*
X172556Y226014D01*
X172539Y226012D01*
X172364Y225955D01*
X172188Y225901D01*
X172173Y225893D01*
X172156Y225887D01*
X171996Y225797D01*
X171834Y225709D01*
X171821Y225698D01*
X171805Y225689D01*
X171666Y225569D01*
X171525Y225452D01*
X171514Y225438D01*
X171500Y225426D01*
X171388Y225281D01*
X171273Y225138D01*
X171265Y225122D01*
X171254Y225108D01*
X171172Y224943D01*
X171087Y224781D01*
X171082Y224764D01*
X171074Y224748D01*
X171027Y224569D01*
X170976Y224394D01*
X170974Y224376D01*
X170970Y224359D01*
X170943Y224028D01*
X170943Y208219D01*
X168236Y205512D01*
X168219Y205492D01*
X168198Y205474D01*
X168091Y205336D01*
X167981Y205201D01*
X167968Y205177D01*
X167952Y205156D01*
X167874Y204999D01*
X167792Y204845D01*
X167784Y204820D01*
X167772Y204796D01*
X167727Y204626D01*
X167677Y204459D01*
X167675Y204433D01*
X167668Y204407D01*
X167641Y204076D01*
X167641Y195072D01*
X167643Y195054D01*
X167641Y195036D01*
X167662Y194854D01*
X167681Y194671D01*
X167686Y194654D01*
X167688Y194637D01*
X167745Y194462D01*
X167799Y194286D01*
X167807Y194271D01*
X167813Y194254D01*
X167903Y194094D01*
X167991Y193932D01*
X168002Y193919D01*
X168011Y193903D01*
X168131Y193764D01*
X168248Y193623D01*
X168262Y193612D01*
X168274Y193598D01*
X168419Y193486D01*
X168562Y193371D01*
X168578Y193363D01*
X168592Y193352D01*
X168757Y193270D01*
X168919Y193185D01*
X168936Y193180D01*
X168952Y193172D01*
X169131Y193125D01*
X169306Y193074D01*
X169324Y193072D01*
X169341Y193068D01*
X169672Y193041D01*
X180832Y193041D01*
X186433Y190720D01*
X221618Y155536D01*
X221639Y155519D01*
X221656Y155498D01*
X221794Y155391D01*
X221929Y155281D01*
X221953Y155268D01*
X221974Y155252D01*
X222131Y155174D01*
X222285Y155092D01*
X222311Y155084D01*
X222335Y155072D01*
X222504Y155027D01*
X222671Y154977D01*
X222698Y154975D01*
X222724Y154968D01*
X223054Y154941D01*
X267576Y154941D01*
X267603Y154943D01*
G37*
G36*
X572403Y154943D02*
X572403Y154943D01*
X572429Y154941D01*
X572603Y154963D01*
X572777Y154981D01*
X572802Y154988D01*
X572829Y154992D01*
X572995Y155048D01*
X573162Y155099D01*
X573185Y155111D01*
X573210Y155120D01*
X573362Y155207D01*
X573516Y155291D01*
X573536Y155308D01*
X573559Y155321D01*
X573812Y155536D01*
X575590Y157314D01*
X575602Y157327D01*
X575615Y157339D01*
X575729Y157483D01*
X575845Y157625D01*
X575854Y157641D01*
X575865Y157655D01*
X575948Y157819D01*
X576034Y157981D01*
X576039Y157998D01*
X576047Y158014D01*
X576097Y158191D01*
X576149Y158367D01*
X576150Y158385D01*
X576155Y158402D01*
X576169Y158585D01*
X576185Y158768D01*
X576183Y158786D01*
X576185Y158803D01*
X576162Y158985D01*
X576142Y159168D01*
X576136Y159185D01*
X576134Y159203D01*
X576076Y159376D01*
X576020Y159552D01*
X576012Y159568D01*
X576006Y159584D01*
X575915Y159743D01*
X575825Y159904D01*
X575814Y159918D01*
X575805Y159933D01*
X575590Y160186D01*
X565657Y170119D01*
X565657Y185481D01*
X575590Y195414D01*
X575602Y195427D01*
X575615Y195439D01*
X575729Y195583D01*
X575845Y195725D01*
X575854Y195741D01*
X575865Y195755D01*
X575948Y195919D01*
X576034Y196081D01*
X576039Y196098D01*
X576047Y196114D01*
X576097Y196291D01*
X576149Y196467D01*
X576150Y196485D01*
X576155Y196502D01*
X576169Y196685D01*
X576185Y196868D01*
X576183Y196886D01*
X576185Y196903D01*
X576162Y197085D01*
X576142Y197268D01*
X576136Y197285D01*
X576134Y197303D01*
X576076Y197476D01*
X576020Y197652D01*
X576012Y197668D01*
X576006Y197684D01*
X575914Y197844D01*
X575825Y198004D01*
X575814Y198018D01*
X575805Y198033D01*
X575590Y198286D01*
X565657Y208219D01*
X565657Y224028D01*
X565655Y224046D01*
X565657Y224064D01*
X565636Y224246D01*
X565617Y224429D01*
X565612Y224446D01*
X565610Y224463D01*
X565553Y224638D01*
X565499Y224814D01*
X565491Y224829D01*
X565485Y224846D01*
X565395Y225006D01*
X565307Y225168D01*
X565296Y225181D01*
X565287Y225197D01*
X565167Y225336D01*
X565050Y225477D01*
X565036Y225488D01*
X565024Y225502D01*
X564879Y225614D01*
X564736Y225729D01*
X564720Y225737D01*
X564706Y225748D01*
X564541Y225830D01*
X564379Y225915D01*
X564362Y225920D01*
X564346Y225928D01*
X564167Y225975D01*
X563992Y226026D01*
X563974Y226028D01*
X563957Y226032D01*
X563626Y226059D01*
X477774Y226059D01*
X477756Y226057D01*
X477738Y226059D01*
X477556Y226038D01*
X477373Y226019D01*
X477356Y226014D01*
X477339Y226012D01*
X477164Y225955D01*
X476988Y225901D01*
X476973Y225893D01*
X476956Y225887D01*
X476796Y225797D01*
X476634Y225709D01*
X476621Y225698D01*
X476605Y225689D01*
X476466Y225569D01*
X476325Y225452D01*
X476314Y225438D01*
X476300Y225426D01*
X476188Y225281D01*
X476073Y225138D01*
X476065Y225122D01*
X476054Y225108D01*
X475972Y224943D01*
X475887Y224781D01*
X475882Y224764D01*
X475874Y224748D01*
X475827Y224569D01*
X475776Y224394D01*
X475774Y224376D01*
X475770Y224359D01*
X475743Y224028D01*
X475743Y208219D01*
X473036Y205512D01*
X473019Y205492D01*
X472998Y205474D01*
X472891Y205336D01*
X472781Y205201D01*
X472768Y205177D01*
X472752Y205156D01*
X472674Y204999D01*
X472592Y204845D01*
X472584Y204820D01*
X472572Y204795D01*
X472527Y204626D01*
X472477Y204459D01*
X472475Y204433D01*
X472468Y204407D01*
X472441Y204076D01*
X472441Y195072D01*
X472443Y195054D01*
X472441Y195036D01*
X472462Y194854D01*
X472481Y194671D01*
X472486Y194654D01*
X472488Y194637D01*
X472545Y194462D01*
X472599Y194286D01*
X472607Y194271D01*
X472613Y194254D01*
X472703Y194094D01*
X472791Y193932D01*
X472802Y193919D01*
X472811Y193903D01*
X472931Y193764D01*
X473048Y193623D01*
X473062Y193612D01*
X473074Y193598D01*
X473219Y193486D01*
X473362Y193371D01*
X473378Y193363D01*
X473392Y193352D01*
X473557Y193270D01*
X473719Y193185D01*
X473736Y193180D01*
X473752Y193172D01*
X473931Y193125D01*
X474106Y193074D01*
X474124Y193072D01*
X474141Y193068D01*
X474472Y193041D01*
X485632Y193041D01*
X491233Y190720D01*
X526418Y155536D01*
X526439Y155519D01*
X526456Y155498D01*
X526594Y155391D01*
X526729Y155281D01*
X526753Y155268D01*
X526774Y155252D01*
X526931Y155174D01*
X527085Y155092D01*
X527111Y155084D01*
X527135Y155072D01*
X527304Y155027D01*
X527471Y154977D01*
X527498Y154975D01*
X527524Y154968D01*
X527854Y154941D01*
X572376Y154941D01*
X572403Y154943D01*
G37*
G36*
X647736Y109022D02*
X647736Y109022D01*
X647753Y109020D01*
X647935Y109043D01*
X648118Y109063D01*
X648135Y109068D01*
X648153Y109071D01*
X648326Y109129D01*
X648502Y109185D01*
X648517Y109193D01*
X648534Y109199D01*
X648694Y109291D01*
X648854Y109379D01*
X648868Y109391D01*
X648883Y109400D01*
X649136Y109615D01*
X650152Y110631D01*
X650169Y110651D01*
X650190Y110669D01*
X650296Y110806D01*
X650407Y110942D01*
X650420Y110966D01*
X650436Y110987D01*
X650514Y111143D01*
X650596Y111298D01*
X650604Y111323D01*
X650616Y111347D01*
X650661Y111516D01*
X650711Y111684D01*
X650713Y111710D01*
X650720Y111736D01*
X650747Y112067D01*
X650747Y198628D01*
X650745Y198646D01*
X650747Y198664D01*
X650726Y198846D01*
X650707Y199029D01*
X650702Y199046D01*
X650700Y199063D01*
X650643Y199238D01*
X650589Y199414D01*
X650581Y199429D01*
X650575Y199446D01*
X650485Y199606D01*
X650397Y199768D01*
X650386Y199781D01*
X650377Y199797D01*
X650257Y199936D01*
X650140Y200077D01*
X650126Y200088D01*
X650114Y200102D01*
X649969Y200214D01*
X649826Y200329D01*
X649810Y200337D01*
X649796Y200348D01*
X649631Y200430D01*
X649469Y200515D01*
X649452Y200520D01*
X649436Y200528D01*
X649257Y200575D01*
X649082Y200626D01*
X649064Y200628D01*
X649047Y200632D01*
X648716Y200659D01*
X596024Y200659D01*
X595997Y200657D01*
X595971Y200659D01*
X595797Y200637D01*
X595623Y200619D01*
X595598Y200612D01*
X595571Y200608D01*
X595405Y200552D01*
X595238Y200501D01*
X595215Y200488D01*
X595190Y200480D01*
X595038Y200393D01*
X594884Y200309D01*
X594864Y200292D01*
X594841Y200279D01*
X594588Y200064D01*
X592810Y198286D01*
X592798Y198272D01*
X592785Y198261D01*
X592671Y198117D01*
X592555Y197975D01*
X592546Y197959D01*
X592535Y197945D01*
X592452Y197782D01*
X592366Y197619D01*
X592361Y197602D01*
X592353Y197586D01*
X592304Y197409D01*
X592251Y197233D01*
X592250Y197215D01*
X592245Y197198D01*
X592231Y197015D01*
X592215Y196832D01*
X592217Y196814D01*
X592215Y196797D01*
X592238Y196614D01*
X592258Y196432D01*
X592264Y196415D01*
X592266Y196397D01*
X592324Y196223D01*
X592380Y196048D01*
X592388Y196032D01*
X592394Y196016D01*
X592486Y195856D01*
X592575Y195696D01*
X592586Y195682D01*
X592595Y195667D01*
X592810Y195414D01*
X594588Y193636D01*
X594608Y193619D01*
X594626Y193598D01*
X594764Y193491D01*
X594899Y193381D01*
X594923Y193368D01*
X594944Y193352D01*
X595101Y193274D01*
X595255Y193192D01*
X595280Y193184D01*
X595304Y193172D01*
X595474Y193127D01*
X595641Y193077D01*
X595667Y193075D01*
X595693Y193068D01*
X596024Y193041D01*
X599932Y193041D01*
X605533Y190720D01*
X622520Y173733D01*
X624841Y168132D01*
X624841Y123968D01*
X623683Y121173D01*
X623679Y121160D01*
X623673Y121149D01*
X623621Y120969D01*
X623566Y120788D01*
X623565Y120775D01*
X623562Y120762D01*
X623546Y120574D01*
X623528Y120387D01*
X623530Y120374D01*
X623529Y120360D01*
X623551Y120173D01*
X623570Y119987D01*
X623574Y119974D01*
X623576Y119961D01*
X623634Y119781D01*
X623690Y119602D01*
X623696Y119591D01*
X623700Y119578D01*
X623793Y119413D01*
X623883Y119249D01*
X623892Y119239D01*
X623898Y119227D01*
X624021Y119085D01*
X624142Y118941D01*
X624153Y118933D01*
X624161Y118922D01*
X624310Y118807D01*
X624457Y118690D01*
X624469Y118684D01*
X624480Y118676D01*
X624648Y118592D01*
X624815Y118506D01*
X624828Y118502D01*
X624840Y118496D01*
X625023Y118447D01*
X625203Y118396D01*
X625216Y118395D01*
X625229Y118392D01*
X625560Y118365D01*
X633303Y118365D01*
X640491Y115387D01*
X646264Y109615D01*
X646277Y109603D01*
X646289Y109590D01*
X646433Y109476D01*
X646575Y109359D01*
X646591Y109351D01*
X646605Y109340D01*
X646769Y109257D01*
X646931Y109171D01*
X646948Y109166D01*
X646964Y109158D01*
X647142Y109108D01*
X647317Y109056D01*
X647334Y109054D01*
X647352Y109050D01*
X647535Y109036D01*
X647718Y109020D01*
X647736Y109022D01*
G37*
G36*
X342936Y109022D02*
X342936Y109022D01*
X342953Y109020D01*
X343135Y109043D01*
X343318Y109063D01*
X343335Y109068D01*
X343353Y109071D01*
X343526Y109129D01*
X343702Y109185D01*
X343718Y109193D01*
X343734Y109199D01*
X343894Y109291D01*
X344054Y109379D01*
X344068Y109391D01*
X344083Y109400D01*
X344336Y109615D01*
X345352Y110631D01*
X345369Y110651D01*
X345390Y110669D01*
X345497Y110807D01*
X345607Y110942D01*
X345620Y110966D01*
X345636Y110987D01*
X345714Y111144D01*
X345796Y111298D01*
X345804Y111323D01*
X345816Y111347D01*
X345861Y111517D01*
X345911Y111684D01*
X345913Y111710D01*
X345920Y111736D01*
X345947Y112067D01*
X345947Y198628D01*
X345945Y198646D01*
X345947Y198664D01*
X345926Y198846D01*
X345907Y199029D01*
X345902Y199046D01*
X345900Y199063D01*
X345843Y199238D01*
X345789Y199414D01*
X345781Y199429D01*
X345775Y199446D01*
X345685Y199606D01*
X345597Y199768D01*
X345586Y199781D01*
X345577Y199797D01*
X345457Y199936D01*
X345340Y200077D01*
X345326Y200088D01*
X345314Y200102D01*
X345169Y200214D01*
X345026Y200329D01*
X345010Y200337D01*
X344996Y200348D01*
X344831Y200430D01*
X344669Y200515D01*
X344652Y200520D01*
X344636Y200528D01*
X344457Y200575D01*
X344282Y200626D01*
X344264Y200628D01*
X344247Y200632D01*
X343916Y200659D01*
X291224Y200659D01*
X291197Y200657D01*
X291171Y200659D01*
X290997Y200637D01*
X290823Y200619D01*
X290798Y200612D01*
X290771Y200608D01*
X290606Y200553D01*
X290438Y200501D01*
X290415Y200488D01*
X290390Y200480D01*
X290238Y200393D01*
X290084Y200309D01*
X290064Y200292D01*
X290041Y200279D01*
X289788Y200064D01*
X288010Y198286D01*
X287998Y198272D01*
X287985Y198261D01*
X287871Y198117D01*
X287755Y197975D01*
X287746Y197959D01*
X287735Y197945D01*
X287652Y197781D01*
X287566Y197619D01*
X287561Y197602D01*
X287553Y197586D01*
X287503Y197409D01*
X287451Y197233D01*
X287450Y197215D01*
X287445Y197198D01*
X287431Y197015D01*
X287415Y196832D01*
X287417Y196814D01*
X287415Y196797D01*
X287438Y196615D01*
X287458Y196432D01*
X287464Y196415D01*
X287466Y196397D01*
X287524Y196223D01*
X287580Y196048D01*
X287588Y196032D01*
X287594Y196016D01*
X287686Y195857D01*
X287775Y195696D01*
X287786Y195682D01*
X287795Y195667D01*
X288010Y195414D01*
X289788Y193636D01*
X289808Y193619D01*
X289826Y193598D01*
X289964Y193492D01*
X290099Y193381D01*
X290123Y193368D01*
X290144Y193352D01*
X290300Y193274D01*
X290455Y193192D01*
X290481Y193184D01*
X290505Y193172D01*
X290673Y193127D01*
X290841Y193077D01*
X290867Y193075D01*
X290893Y193068D01*
X291224Y193041D01*
X295132Y193041D01*
X300733Y190720D01*
X317720Y173733D01*
X320041Y168132D01*
X320041Y123968D01*
X318883Y121173D01*
X318879Y121160D01*
X318873Y121149D01*
X318821Y120969D01*
X318766Y120788D01*
X318765Y120775D01*
X318762Y120762D01*
X318746Y120574D01*
X318728Y120387D01*
X318730Y120374D01*
X318729Y120360D01*
X318751Y120173D01*
X318770Y119987D01*
X318774Y119974D01*
X318776Y119961D01*
X318834Y119781D01*
X318890Y119602D01*
X318896Y119591D01*
X318900Y119578D01*
X318993Y119413D01*
X319083Y119249D01*
X319092Y119239D01*
X319098Y119227D01*
X319221Y119085D01*
X319342Y118941D01*
X319353Y118933D01*
X319361Y118922D01*
X319510Y118807D01*
X319657Y118690D01*
X319669Y118684D01*
X319680Y118676D01*
X319848Y118592D01*
X320015Y118506D01*
X320028Y118502D01*
X320040Y118496D01*
X320223Y118447D01*
X320403Y118396D01*
X320416Y118395D01*
X320429Y118392D01*
X320760Y118365D01*
X328503Y118365D01*
X335691Y115387D01*
X341464Y109615D01*
X341477Y109603D01*
X341489Y109590D01*
X341633Y109476D01*
X341775Y109359D01*
X341791Y109351D01*
X341805Y109340D01*
X341969Y109257D01*
X342131Y109171D01*
X342148Y109166D01*
X342164Y109158D01*
X342341Y109108D01*
X342517Y109056D01*
X342535Y109054D01*
X342552Y109050D01*
X342735Y109036D01*
X342918Y109020D01*
X342936Y109022D01*
G37*
G36*
X991503Y40643D02*
X991503Y40643D01*
X991529Y40641D01*
X991703Y40663D01*
X991877Y40681D01*
X991902Y40688D01*
X991929Y40692D01*
X992094Y40747D01*
X992262Y40799D01*
X992285Y40812D01*
X992310Y40820D01*
X992462Y40907D01*
X992616Y40991D01*
X992636Y41008D01*
X992659Y41021D01*
X992912Y41236D01*
X995619Y43943D01*
X1010981Y43943D01*
X1013688Y41236D01*
X1013708Y41219D01*
X1013726Y41198D01*
X1013864Y41091D01*
X1013999Y40981D01*
X1014023Y40968D01*
X1014044Y40952D01*
X1014201Y40874D01*
X1014355Y40792D01*
X1014380Y40784D01*
X1014405Y40772D01*
X1014574Y40727D01*
X1014741Y40677D01*
X1014767Y40675D01*
X1014793Y40668D01*
X1015124Y40641D01*
X1021546Y40641D01*
X1021572Y40643D01*
X1021599Y40641D01*
X1021773Y40663D01*
X1021946Y40681D01*
X1021972Y40688D01*
X1021998Y40692D01*
X1022164Y40748D01*
X1022331Y40799D01*
X1022355Y40811D01*
X1022380Y40820D01*
X1022532Y40907D01*
X1022685Y40991D01*
X1022706Y41008D01*
X1022729Y41021D01*
X1022982Y41236D01*
X1025212Y43466D01*
X1025227Y43483D01*
X1025243Y43498D01*
X1025354Y43639D01*
X1025467Y43778D01*
X1025478Y43797D01*
X1025492Y43815D01*
X1025572Y43975D01*
X1025656Y44133D01*
X1025662Y44155D01*
X1025672Y44175D01*
X1025720Y44348D01*
X1025771Y44519D01*
X1025773Y44541D01*
X1025779Y44563D01*
X1025791Y44741D01*
X1025807Y44920D01*
X1025805Y44942D01*
X1025806Y44965D01*
X1025783Y45142D01*
X1025764Y45320D01*
X1025757Y45342D01*
X1025754Y45364D01*
X1025653Y45680D01*
X1025143Y46910D01*
X1025143Y54691D01*
X1028121Y61879D01*
X1028305Y62064D01*
X1028317Y62077D01*
X1028330Y62089D01*
X1028444Y62233D01*
X1028560Y62375D01*
X1028569Y62391D01*
X1028580Y62405D01*
X1028663Y62569D01*
X1028749Y62731D01*
X1028754Y62748D01*
X1028762Y62764D01*
X1028812Y62941D01*
X1028864Y63117D01*
X1028865Y63134D01*
X1028870Y63152D01*
X1028884Y63335D01*
X1028900Y63518D01*
X1028898Y63535D01*
X1028900Y63553D01*
X1028877Y63736D01*
X1028857Y63918D01*
X1028852Y63935D01*
X1028849Y63953D01*
X1028791Y64127D01*
X1028735Y64302D01*
X1028727Y64317D01*
X1028721Y64334D01*
X1028629Y64494D01*
X1028541Y64654D01*
X1028529Y64668D01*
X1028520Y64683D01*
X1028305Y64936D01*
X1028121Y65121D01*
X1025143Y72309D01*
X1025143Y80091D01*
X1028121Y87279D01*
X1028305Y87464D01*
X1028317Y87477D01*
X1028330Y87489D01*
X1028444Y87633D01*
X1028560Y87775D01*
X1028569Y87791D01*
X1028580Y87805D01*
X1028663Y87969D01*
X1028749Y88131D01*
X1028754Y88148D01*
X1028762Y88164D01*
X1028812Y88341D01*
X1028864Y88517D01*
X1028865Y88534D01*
X1028870Y88552D01*
X1028884Y88735D01*
X1028900Y88918D01*
X1028898Y88935D01*
X1028900Y88953D01*
X1028877Y89136D01*
X1028857Y89318D01*
X1028852Y89335D01*
X1028849Y89353D01*
X1028791Y89527D01*
X1028735Y89702D01*
X1028727Y89717D01*
X1028721Y89734D01*
X1028629Y89894D01*
X1028541Y90054D01*
X1028529Y90068D01*
X1028520Y90083D01*
X1028305Y90336D01*
X1028121Y90521D01*
X1025143Y97709D01*
X1025143Y105491D01*
X1028121Y112679D01*
X1028305Y112864D01*
X1028317Y112877D01*
X1028330Y112889D01*
X1028444Y113033D01*
X1028560Y113175D01*
X1028569Y113191D01*
X1028580Y113205D01*
X1028663Y113369D01*
X1028749Y113531D01*
X1028754Y113548D01*
X1028762Y113564D01*
X1028812Y113741D01*
X1028864Y113917D01*
X1028865Y113934D01*
X1028870Y113952D01*
X1028884Y114135D01*
X1028900Y114318D01*
X1028898Y114335D01*
X1028900Y114353D01*
X1028877Y114536D01*
X1028857Y114718D01*
X1028852Y114735D01*
X1028849Y114753D01*
X1028791Y114927D01*
X1028735Y115102D01*
X1028727Y115117D01*
X1028721Y115134D01*
X1028629Y115294D01*
X1028541Y115454D01*
X1028529Y115468D01*
X1028520Y115483D01*
X1028305Y115736D01*
X1028121Y115921D01*
X1025143Y123109D01*
X1025143Y130890D01*
X1026577Y134351D01*
X1026580Y134364D01*
X1026587Y134375D01*
X1026638Y134555D01*
X1026693Y134736D01*
X1026694Y134749D01*
X1026698Y134762D01*
X1026713Y134950D01*
X1026731Y135137D01*
X1026730Y135150D01*
X1026731Y135164D01*
X1026709Y135350D01*
X1026690Y135537D01*
X1026685Y135550D01*
X1026684Y135563D01*
X1026626Y135742D01*
X1026570Y135922D01*
X1026563Y135933D01*
X1026559Y135946D01*
X1026466Y136111D01*
X1026376Y136275D01*
X1026368Y136285D01*
X1026361Y136297D01*
X1026238Y136439D01*
X1026117Y136583D01*
X1026107Y136591D01*
X1026098Y136602D01*
X1025950Y136716D01*
X1025802Y136834D01*
X1025790Y136840D01*
X1025780Y136848D01*
X1025612Y136932D01*
X1025444Y137018D01*
X1025431Y137022D01*
X1025419Y137028D01*
X1025237Y137077D01*
X1025057Y137128D01*
X1025044Y137129D01*
X1025031Y137132D01*
X1024700Y137159D01*
X1015124Y137159D01*
X1015097Y137157D01*
X1015071Y137159D01*
X1014897Y137137D01*
X1014723Y137119D01*
X1014698Y137112D01*
X1014671Y137108D01*
X1014506Y137053D01*
X1014338Y137001D01*
X1014315Y136988D01*
X1014290Y136980D01*
X1014138Y136893D01*
X1013984Y136809D01*
X1013964Y136792D01*
X1013941Y136779D01*
X1013688Y136564D01*
X1010981Y133857D01*
X1007872Y133857D01*
X1007854Y133855D01*
X1007836Y133857D01*
X1007654Y133836D01*
X1007471Y133817D01*
X1007454Y133812D01*
X1007437Y133810D01*
X1007262Y133753D01*
X1007086Y133699D01*
X1007071Y133691D01*
X1007054Y133685D01*
X1006894Y133595D01*
X1006732Y133507D01*
X1006719Y133496D01*
X1006703Y133487D01*
X1006564Y133367D01*
X1006423Y133250D01*
X1006412Y133236D01*
X1006398Y133224D01*
X1006286Y133079D01*
X1006171Y132936D01*
X1006163Y132920D01*
X1006152Y132906D01*
X1006070Y132741D01*
X1005985Y132579D01*
X1005980Y132562D01*
X1005972Y132546D01*
X1005925Y132367D01*
X1005874Y132192D01*
X1005872Y132174D01*
X1005868Y132157D01*
X1005841Y131826D01*
X1005841Y73168D01*
X1003520Y67567D01*
X998947Y62994D01*
X980062Y44108D01*
X980056Y44101D01*
X980049Y44096D01*
X979929Y43946D01*
X979807Y43797D01*
X979803Y43789D01*
X979797Y43782D01*
X979709Y43612D01*
X979618Y43441D01*
X979616Y43432D01*
X979612Y43425D01*
X979558Y43240D01*
X979503Y43055D01*
X979503Y43046D01*
X979500Y43038D01*
X979485Y42846D01*
X979467Y42654D01*
X979468Y42645D01*
X979467Y42636D01*
X979489Y42447D01*
X979510Y42254D01*
X979513Y42245D01*
X979514Y42237D01*
X979574Y42053D01*
X979632Y41870D01*
X979636Y41862D01*
X979639Y41854D01*
X979734Y41685D01*
X979827Y41518D01*
X979833Y41511D01*
X979837Y41503D01*
X979963Y41357D01*
X980087Y41211D01*
X980094Y41205D01*
X980100Y41198D01*
X980252Y41081D01*
X980403Y40961D01*
X980411Y40957D01*
X980418Y40952D01*
X980590Y40866D01*
X980762Y40779D01*
X980771Y40776D01*
X980779Y40772D01*
X980965Y40722D01*
X981150Y40671D01*
X981159Y40670D01*
X981168Y40668D01*
X981498Y40641D01*
X991476Y40641D01*
X991503Y40643D01*
G37*
%LPC*%
G36*
X727121Y79247D02*
X727121Y79247D01*
X719933Y82225D01*
X714431Y87727D01*
X711453Y94915D01*
X711453Y102697D01*
X714431Y109885D01*
X719933Y115387D01*
X727121Y118365D01*
X734903Y118365D01*
X742091Y115387D01*
X747593Y109885D01*
X750571Y102697D01*
X750571Y94915D01*
X747593Y87727D01*
X742091Y82225D01*
X739367Y81096D01*
X734903Y79247D01*
X727121Y79247D01*
G37*
%LPD*%
G36*
X1067126Y10163D02*
X1067126Y10163D01*
X1067144Y10161D01*
X1067326Y10182D01*
X1067509Y10201D01*
X1067526Y10206D01*
X1067543Y10208D01*
X1067718Y10265D01*
X1067894Y10319D01*
X1067909Y10327D01*
X1067926Y10333D01*
X1068086Y10423D01*
X1068248Y10511D01*
X1068261Y10522D01*
X1068277Y10531D01*
X1068416Y10651D01*
X1068557Y10768D01*
X1068568Y10782D01*
X1068582Y10794D01*
X1068694Y10939D01*
X1068809Y11082D01*
X1068817Y11098D01*
X1068828Y11112D01*
X1068910Y11277D01*
X1068995Y11439D01*
X1069000Y11456D01*
X1069008Y11472D01*
X1069055Y11651D01*
X1069106Y11826D01*
X1069108Y11844D01*
X1069112Y11861D01*
X1069139Y12192D01*
X1069139Y29210D01*
X1069137Y29228D01*
X1069139Y29246D01*
X1069118Y29428D01*
X1069099Y29611D01*
X1069094Y29628D01*
X1069092Y29645D01*
X1069035Y29820D01*
X1068981Y29996D01*
X1068973Y30011D01*
X1068967Y30028D01*
X1068877Y30188D01*
X1068789Y30350D01*
X1068778Y30363D01*
X1068769Y30379D01*
X1068649Y30518D01*
X1068532Y30659D01*
X1068518Y30670D01*
X1068506Y30684D01*
X1068361Y30796D01*
X1068218Y30911D01*
X1068202Y30919D01*
X1068188Y30930D01*
X1068023Y31012D01*
X1067861Y31097D01*
X1067844Y31102D01*
X1067828Y31110D01*
X1067649Y31157D01*
X1067474Y31208D01*
X1067456Y31210D01*
X1067439Y31214D01*
X1067108Y31241D01*
X1056936Y31241D01*
X1056910Y31239D01*
X1056883Y31241D01*
X1056709Y31219D01*
X1056536Y31201D01*
X1056510Y31194D01*
X1056484Y31190D01*
X1056318Y31135D01*
X1056151Y31083D01*
X1056127Y31070D01*
X1056102Y31062D01*
X1055950Y30975D01*
X1055797Y30891D01*
X1055776Y30874D01*
X1055753Y30861D01*
X1055500Y30646D01*
X1038482Y13628D01*
X1038476Y13621D01*
X1038469Y13616D01*
X1038349Y13466D01*
X1038227Y13317D01*
X1038223Y13309D01*
X1038217Y13302D01*
X1038129Y13132D01*
X1038038Y12961D01*
X1038036Y12952D01*
X1038032Y12945D01*
X1037978Y12760D01*
X1037923Y12575D01*
X1037923Y12566D01*
X1037920Y12558D01*
X1037905Y12366D01*
X1037887Y12174D01*
X1037888Y12165D01*
X1037887Y12156D01*
X1037909Y11967D01*
X1037930Y11774D01*
X1037933Y11765D01*
X1037934Y11757D01*
X1037994Y11575D01*
X1038052Y11390D01*
X1038056Y11382D01*
X1038059Y11374D01*
X1038154Y11205D01*
X1038247Y11038D01*
X1038253Y11031D01*
X1038257Y11023D01*
X1038383Y10877D01*
X1038507Y10731D01*
X1038514Y10725D01*
X1038520Y10718D01*
X1038672Y10601D01*
X1038823Y10481D01*
X1038831Y10477D01*
X1038838Y10472D01*
X1039010Y10386D01*
X1039182Y10299D01*
X1039191Y10296D01*
X1039199Y10292D01*
X1039385Y10242D01*
X1039570Y10191D01*
X1039579Y10190D01*
X1039588Y10188D01*
X1039918Y10161D01*
X1067108Y10161D01*
X1067126Y10163D01*
G37*
G36*
X1067126Y248161D02*
X1067126Y248161D01*
X1067144Y248159D01*
X1067326Y248180D01*
X1067509Y248199D01*
X1067526Y248204D01*
X1067543Y248206D01*
X1067718Y248263D01*
X1067894Y248317D01*
X1067909Y248325D01*
X1067926Y248331D01*
X1068086Y248421D01*
X1068248Y248509D01*
X1068261Y248520D01*
X1068277Y248529D01*
X1068416Y248649D01*
X1068557Y248766D01*
X1068568Y248780D01*
X1068582Y248792D01*
X1068694Y248937D01*
X1068809Y249080D01*
X1068817Y249096D01*
X1068828Y249110D01*
X1068910Y249275D01*
X1068995Y249437D01*
X1069000Y249454D01*
X1069008Y249470D01*
X1069055Y249649D01*
X1069106Y249824D01*
X1069108Y249842D01*
X1069112Y249859D01*
X1069139Y250190D01*
X1069139Y251208D01*
X1069137Y251226D01*
X1069139Y251244D01*
X1069118Y251426D01*
X1069099Y251609D01*
X1069094Y251626D01*
X1069092Y251643D01*
X1069035Y251818D01*
X1068981Y251994D01*
X1068973Y252009D01*
X1068967Y252026D01*
X1068877Y252186D01*
X1068789Y252348D01*
X1068778Y252361D01*
X1068769Y252377D01*
X1068649Y252516D01*
X1068532Y252657D01*
X1068518Y252668D01*
X1068506Y252682D01*
X1068361Y252794D01*
X1068218Y252909D01*
X1068202Y252917D01*
X1068188Y252928D01*
X1068023Y253010D01*
X1067861Y253095D01*
X1067844Y253100D01*
X1067828Y253108D01*
X1067649Y253155D01*
X1067474Y253206D01*
X1067456Y253208D01*
X1067439Y253212D01*
X1067108Y253239D01*
X1055918Y253239D01*
X1055909Y253238D01*
X1055900Y253239D01*
X1055708Y253218D01*
X1055518Y253199D01*
X1055509Y253197D01*
X1055500Y253196D01*
X1055318Y253138D01*
X1055133Y253081D01*
X1055125Y253077D01*
X1055116Y253074D01*
X1054948Y252981D01*
X1054779Y252889D01*
X1054772Y252884D01*
X1054764Y252879D01*
X1054616Y252754D01*
X1054469Y252632D01*
X1054464Y252625D01*
X1054457Y252619D01*
X1054337Y252467D01*
X1054217Y252318D01*
X1054213Y252310D01*
X1054207Y252303D01*
X1054120Y252130D01*
X1054032Y251961D01*
X1054029Y251952D01*
X1054025Y251944D01*
X1053973Y251759D01*
X1053920Y251574D01*
X1053919Y251565D01*
X1053917Y251556D01*
X1053903Y251364D01*
X1053887Y251172D01*
X1053888Y251164D01*
X1053888Y251155D01*
X1053912Y250964D01*
X1053934Y250773D01*
X1053937Y250764D01*
X1053938Y250755D01*
X1053999Y250574D01*
X1054059Y250390D01*
X1054063Y250382D01*
X1054066Y250374D01*
X1054163Y250206D01*
X1054257Y250039D01*
X1054263Y250032D01*
X1054267Y250025D01*
X1054482Y249772D01*
X1055500Y248754D01*
X1055521Y248737D01*
X1055538Y248716D01*
X1055676Y248610D01*
X1055812Y248499D01*
X1055835Y248486D01*
X1055856Y248470D01*
X1056012Y248392D01*
X1056167Y248310D01*
X1056193Y248302D01*
X1056217Y248290D01*
X1056386Y248245D01*
X1056553Y248195D01*
X1056580Y248193D01*
X1056606Y248186D01*
X1056936Y248159D01*
X1067108Y248159D01*
X1067126Y248161D01*
G37*
D10*
X1044702Y50800D02*
X1063498Y50800D01*
X1063498Y76200D02*
X1044702Y76200D01*
X1044702Y101600D02*
X1063498Y101600D01*
X1063498Y127000D02*
X1044702Y127000D01*
X1044702Y152400D02*
X1063498Y152400D01*
X1063498Y177800D02*
X1044702Y177800D01*
X1044702Y203200D02*
X1063498Y203200D01*
X1063498Y228600D02*
X1044702Y228600D01*
D11*
X97282Y228600D02*
X80518Y228600D01*
X80518Y203200D02*
X97282Y203200D01*
X97282Y177800D02*
X80518Y177800D01*
X80518Y152400D02*
X97282Y152400D01*
X97282Y127000D02*
X80518Y127000D01*
X80518Y101600D02*
X97282Y101600D01*
X97282Y76200D02*
X80518Y76200D01*
X80518Y50800D02*
X97282Y50800D01*
D12*
X157988Y98806D03*
X223012Y98806D03*
X157988Y53594D03*
X223012Y53594D03*
X259588Y98806D03*
X324612Y98806D03*
X259588Y53594D03*
X324612Y53594D03*
X361188Y98806D03*
X426212Y98806D03*
X361188Y53594D03*
X426212Y53594D03*
X462788Y98806D03*
X527812Y98806D03*
X462788Y53594D03*
X527812Y53594D03*
X564388Y98806D03*
X629412Y98806D03*
X564388Y53594D03*
X629412Y53594D03*
X665988Y98806D03*
X731012Y98806D03*
X665988Y53594D03*
X731012Y53594D03*
D13*
X279400Y139700D03*
X152400Y139700D03*
D14*
X152400Y177800D03*
X279400Y177800D03*
X152400Y215900D03*
X279400Y215900D03*
D13*
X584200Y139700D03*
X457200Y139700D03*
D14*
X457200Y177800D03*
X584200Y177800D03*
X457200Y215900D03*
X584200Y215900D03*
D12*
X780288Y98806D03*
X845312Y98806D03*
X780288Y53594D03*
X845312Y53594D03*
X881888Y98806D03*
X946912Y98806D03*
X881888Y53594D03*
X946912Y53594D03*
D13*
X901700Y139700D03*
X774700Y139700D03*
D14*
X774700Y177800D03*
X901700Y177800D03*
D15*
X1003300Y25400D03*
X1003300Y152400D03*
D16*
X457200Y241300D02*
X152400Y241300D01*
X457200Y241300D02*
X774700Y241300D01*
X152400Y215900D02*
X152400Y177800D01*
X177800Y177800D01*
X215900Y139700D01*
X279400Y139700D01*
X457200Y177800D02*
X457200Y215900D01*
X520700Y139700D02*
X584200Y139700D01*
X520700Y139700D02*
X482600Y177800D01*
X457200Y177800D01*
X838200Y139700D02*
X901700Y139700D01*
X838200Y139700D02*
X800100Y177800D01*
X774700Y177800D01*
X774700Y241300D01*
X152400Y241300D02*
X152400Y215900D01*
X457200Y241300D02*
X457200Y177800D01*
X152400Y241300D02*
X101600Y241300D01*
X88900Y228600D01*
X774700Y241300D02*
X1041400Y241300D01*
X1054100Y228600D01*
X1003300Y25400D02*
X114300Y25400D01*
X88900Y50800D01*
X1003300Y25400D02*
X1028700Y25400D01*
X1054100Y50800D01*
X898906Y98806D02*
X881888Y98806D01*
X898906Y98806D02*
X927100Y127000D01*
X927100Y165100D01*
X914400Y177800D01*
X901700Y177800D01*
X780288Y134112D02*
X780288Y98806D01*
X780288Y134112D02*
X774700Y139700D01*
X665988Y98806D02*
X665988Y210312D01*
X660400Y215900D01*
X584200Y215900D01*
X581406Y98806D02*
X564388Y98806D01*
X581406Y98806D02*
X609600Y127000D01*
X609600Y165100D01*
X596900Y177800D01*
X584200Y177800D01*
X462788Y134112D02*
X462788Y98806D01*
X462788Y134112D02*
X457200Y139700D01*
X361188Y98806D02*
X361188Y210312D01*
X355600Y215900D01*
X279400Y215900D01*
X276606Y98806D02*
X259588Y98806D01*
X276606Y98806D02*
X304800Y127000D01*
X304800Y165100D01*
X292100Y177800D01*
X279400Y177800D01*
X157988Y134112D02*
X157988Y98806D01*
X157988Y134112D02*
X152400Y139700D01*
X157988Y53594D02*
X259588Y53594D01*
X361188Y53594D01*
X462788Y53594D01*
X564388Y53594D01*
X665988Y53594D02*
X780288Y53594D01*
X881888Y53594D01*
X967994Y53594D01*
X990600Y76200D01*
X1054100Y152400D02*
X1054100Y177800D01*
X990600Y139700D02*
X990600Y76200D01*
X990600Y139700D02*
X1003300Y152400D01*
X665988Y53594D02*
X564388Y53594D01*
X1003300Y152400D02*
X1054100Y152400D01*
M02*
