M48
;GenerationSoftware,Autodesk,EAGLE,9.0.0*%
;CreationDate,2019-08-08T19:12:45Z*%
FMAT,2
ICI,OFF
METRIC,TZ,000.000
T2C0.813
T1C1.016
%
G90
M71
T1
X105410Y5080
X105410Y7620
X105410Y10160
X105410Y12700
X105410Y15240
X105410Y17780
X105410Y20320
X105410Y22860
X15799Y9881
X94691Y9881
X78029Y9881
X84531Y9881
X78029Y5359
X84531Y5359
X88189Y9881
X88189Y5359
X94691Y5359
X22301Y9881
X15799Y5359
X22301Y5359
X25959Y9881
X32461Y9881
X25959Y5359
X32461Y5359
X36119Y9881
X42621Y9881
X36119Y5359
X42621Y5359
X46279Y9881
X52781Y9881
X46279Y5359
X52781Y5359
X56439Y9881
X62941Y9881
X56439Y5359
X62941Y5359
X66599Y9881
X73101Y9881
X66599Y5359
X73101Y5359
T2
X8890Y20320
X8890Y17780
X8890Y15240
X8890Y12700
X8890Y10160
X8890Y7620
X8890Y5080
X8890Y22860
X45720Y17780
X27940Y13970
X45720Y21590
X58420Y21590
X15240Y13970
X15240Y17780
X27940Y17780
X15240Y21590
X27940Y21590
X58420Y17780
X58420Y13970
X45720Y13970
X90170Y13970
X77470Y13970
X77470Y17780
X90170Y17780
X100330Y2540
X100330Y15240
M30