G04 EAGLE Gerber X2 export*
G04 #@! %TF.Part,Single*
G04 #@! %TF.FileFunction,Soldermask,Bot,1*
G04 #@! %TF.FilePolarity,Negative*
G04 #@! %TF.GenerationSoftware,Autodesk,EAGLE,9.0.0*
G04 #@! %TF.CreationDate,2019-08-08T19:12:45Z*
G75*
%MOMM*%
%FSLAX34Y34*%
%LPD*%
%AMOC8*
5,1,8,0,0,1.08239X$1,22.5*%
G01*
%ADD10C,2.082800*%
%ADD11C,1.879600*%
%ADD12C,2.082800*%
%ADD13P,2.034460X8X202.500000*%
%ADD14P,2.034460X8X22.500000*%
%ADD15P,2.034460X8X112.500000*%


D10*
X1044702Y50800D02*
X1063498Y50800D01*
X1063498Y76200D02*
X1044702Y76200D01*
X1044702Y101600D02*
X1063498Y101600D01*
X1063498Y127000D02*
X1044702Y127000D01*
X1044702Y152400D02*
X1063498Y152400D01*
X1063498Y177800D02*
X1044702Y177800D01*
X1044702Y203200D02*
X1063498Y203200D01*
X1063498Y228600D02*
X1044702Y228600D01*
D11*
X97282Y228600D02*
X80518Y228600D01*
X80518Y203200D02*
X97282Y203200D01*
X97282Y177800D02*
X80518Y177800D01*
X80518Y152400D02*
X97282Y152400D01*
X97282Y127000D02*
X80518Y127000D01*
X80518Y101600D02*
X97282Y101600D01*
X97282Y76200D02*
X80518Y76200D01*
X80518Y50800D02*
X97282Y50800D01*
D12*
X157988Y98806D03*
X223012Y98806D03*
X157988Y53594D03*
X223012Y53594D03*
X259588Y98806D03*
X324612Y98806D03*
X259588Y53594D03*
X324612Y53594D03*
X361188Y98806D03*
X426212Y98806D03*
X361188Y53594D03*
X426212Y53594D03*
X462788Y98806D03*
X527812Y98806D03*
X462788Y53594D03*
X527812Y53594D03*
X564388Y98806D03*
X629412Y98806D03*
X564388Y53594D03*
X629412Y53594D03*
X665988Y98806D03*
X731012Y98806D03*
X665988Y53594D03*
X731012Y53594D03*
D13*
X279400Y139700D03*
X152400Y139700D03*
D14*
X152400Y177800D03*
X279400Y177800D03*
X152400Y215900D03*
X279400Y215900D03*
D13*
X584200Y139700D03*
X457200Y139700D03*
D14*
X457200Y177800D03*
X584200Y177800D03*
X457200Y215900D03*
X584200Y215900D03*
D12*
X780288Y98806D03*
X845312Y98806D03*
X780288Y53594D03*
X845312Y53594D03*
X881888Y98806D03*
X946912Y98806D03*
X881888Y53594D03*
X946912Y53594D03*
D13*
X901700Y139700D03*
X774700Y139700D03*
D14*
X774700Y177800D03*
X901700Y177800D03*
D15*
X1003300Y25400D03*
X1003300Y152400D03*
M02*
