M48
;GenerationSoftware,Autodesk,EAGLE,9.0.0*%
;CreationDate,2019-08-08T19:11:55Z*%
FMAT,2
ICI,OFF
METRIC,TZ,000.000
T4C0.813
T3C0.914
T2C1.016
T1C1.118
%
G90
M71
T1
X49530Y10160
X49530Y20320
X38100Y20320
X38100Y10160
T2
X33020Y24765
X34925Y28575
X36830Y24765
X38735Y28575
X40640Y24765
X55880Y21590
X55880Y8890
X55880Y11430
X55880Y13970
X55880Y16510
X55880Y19050
X55880Y24130
X55880Y26670
T3
X41910Y8890
X41910Y16510
T4
X22860Y25400
X20320Y25400
X15240Y5080
X17780Y5080
X15240Y13970
X17780Y13970
X52070Y2540
X52070Y5080
X48768Y26670
X45212Y26670
X11430Y26670
X11430Y24130
X11430Y21590
X11430Y19050
X11430Y16510
X11430Y13970
X11430Y11430
X22860Y20320
X22860Y7620
X46990Y5080
X34290Y5080
X45720Y20320
X45720Y7620
X11430Y8890
X34290Y7620
X34290Y20320
X30480Y7620
X30480Y20320
X26670Y20320
X26670Y7620
M30