G04 EAGLE Gerber X2 export*
G04 #@! %TF.Part,Single*
G04 #@! %TF.FileFunction,Soldermask,Bot,1*
G04 #@! %TF.FilePolarity,Negative*
G04 #@! %TF.GenerationSoftware,Autodesk,EAGLE,9.0.0*
G04 #@! %TF.CreationDate,2019-08-08T19:11:55Z*
G75*
%MOMM*%
%FSLAX34Y34*%
%LPD*%
%AMOC8*
5,1,8,0,0,1.08239X$1,22.5*%
G01*
%ADD10C,2.082800*%
%ADD11P,2.034460X8X292.500000*%
%ADD12P,2.034460X8X202.500000*%
%ADD13P,2.034460X8X112.500000*%
%ADD14C,2.184400*%
%ADD15P,2.144431X8X112.500000*%
%ADD16P,2.034460X8X22.500000*%
%ADD17C,1.879600*%
%ADD18C,1.879600*%


D10*
X330200Y238252D02*
X330200Y257048D01*
X349250Y276352D02*
X349250Y295148D01*
X368300Y257048D02*
X368300Y238252D01*
X387350Y276352D02*
X387350Y295148D01*
X406400Y257048D02*
X406400Y238252D01*
D11*
X228600Y203200D03*
X228600Y76200D03*
D12*
X469900Y50800D03*
X342900Y50800D03*
D11*
X457200Y203200D03*
X457200Y76200D03*
D13*
X342900Y76200D03*
X342900Y203200D03*
D14*
X495300Y101600D03*
X495300Y203200D03*
X381000Y203200D03*
X381000Y101600D03*
D15*
X419100Y88900D03*
X419100Y165100D03*
D16*
X228600Y254000D03*
D17*
X203200Y254000D03*
D12*
X152400Y50800D03*
D17*
X177800Y50800D03*
D12*
X152400Y139700D03*
D17*
X177800Y139700D03*
D11*
X520700Y25400D03*
D17*
X520700Y50800D03*
D16*
X487680Y266700D03*
D17*
X452120Y266700D03*
D18*
X122682Y266700D02*
X105918Y266700D01*
X105918Y241300D02*
X122682Y241300D01*
X122682Y215900D02*
X105918Y215900D01*
X105918Y190500D02*
X122682Y190500D01*
X122682Y165100D02*
X105918Y165100D01*
X105918Y139700D02*
X122682Y139700D01*
X122682Y114300D02*
X105918Y114300D01*
X105918Y88900D02*
X122682Y88900D01*
D10*
X549402Y88900D02*
X568198Y88900D01*
X568198Y114300D02*
X549402Y114300D01*
X549402Y139700D02*
X568198Y139700D01*
X568198Y165100D02*
X549402Y165100D01*
X549402Y190500D02*
X568198Y190500D01*
X568198Y215900D02*
X549402Y215900D01*
X549402Y241300D02*
X568198Y241300D01*
X568198Y266700D02*
X549402Y266700D01*
D13*
X304800Y76200D03*
X304800Y203200D03*
D11*
X266700Y203200D03*
X266700Y76200D03*
M02*
