G04 EAGLE Gerber X2 export*
G04 #@! %TF.Part,Single*
G04 #@! %TF.FileFunction,Copper,L2,Bot,Mixed*
G04 #@! %TF.FilePolarity,Positive*
G04 #@! %TF.GenerationSoftware,Autodesk,EAGLE,9.0.0*
G04 #@! %TF.CreationDate,2019-08-08T19:18:26Z*
G75*
%MOMM*%
%FSLAX34Y34*%
%LPD*%
%AMOC8*
5,1,8,0,0,1.08239X$1,22.5*%
G01*
%ADD10P,1.924489X8X292.500000*%
%ADD11P,1.814519X8X22.500000*%
%ADD12C,1.676400*%
%ADD13P,1.814519X8X292.500000*%
%ADD14P,1.814519X8X112.500000*%
%ADD15P,1.924489X8X112.500000*%
%ADD16C,1.676400*%
%ADD17C,1.879600*%
%ADD18C,1.016000*%

G36*
X495626Y-27937D02*
X495626Y-27937D01*
X495644Y-27939D01*
X495826Y-27918D01*
X496009Y-27899D01*
X496026Y-27894D01*
X496043Y-27892D01*
X496218Y-27835D01*
X496394Y-27781D01*
X496409Y-27773D01*
X496426Y-27767D01*
X496586Y-27677D01*
X496748Y-27589D01*
X496761Y-27578D01*
X496777Y-27569D01*
X496916Y-27449D01*
X497057Y-27332D01*
X497068Y-27318D01*
X497082Y-27306D01*
X497194Y-27161D01*
X497309Y-27018D01*
X497317Y-27002D01*
X497328Y-26988D01*
X497410Y-26823D01*
X497495Y-26661D01*
X497500Y-26644D01*
X497508Y-26628D01*
X497555Y-26449D01*
X497606Y-26274D01*
X497608Y-26256D01*
X497612Y-26239D01*
X497639Y-25908D01*
X497639Y238508D01*
X497637Y238526D01*
X497639Y238544D01*
X497618Y238726D01*
X497599Y238909D01*
X497594Y238926D01*
X497592Y238943D01*
X497535Y239118D01*
X497481Y239294D01*
X497473Y239309D01*
X497467Y239326D01*
X497377Y239486D01*
X497289Y239648D01*
X497278Y239661D01*
X497269Y239677D01*
X497149Y239816D01*
X497032Y239957D01*
X497018Y239968D01*
X497006Y239982D01*
X496861Y240094D01*
X496718Y240209D01*
X496702Y240217D01*
X496688Y240228D01*
X496523Y240310D01*
X496361Y240395D01*
X496344Y240400D01*
X496328Y240408D01*
X496149Y240455D01*
X495974Y240506D01*
X495956Y240508D01*
X495939Y240512D01*
X495608Y240539D01*
X-165608Y240539D01*
X-165626Y240537D01*
X-165644Y240539D01*
X-165826Y240518D01*
X-166009Y240499D01*
X-166026Y240494D01*
X-166043Y240492D01*
X-166218Y240435D01*
X-166394Y240381D01*
X-166409Y240373D01*
X-166426Y240367D01*
X-166586Y240277D01*
X-166748Y240189D01*
X-166761Y240178D01*
X-166777Y240169D01*
X-166916Y240049D01*
X-167057Y239932D01*
X-167068Y239918D01*
X-167082Y239906D01*
X-167194Y239761D01*
X-167309Y239618D01*
X-167317Y239602D01*
X-167328Y239588D01*
X-167410Y239423D01*
X-167495Y239261D01*
X-167500Y239244D01*
X-167508Y239228D01*
X-167555Y239049D01*
X-167606Y238874D01*
X-167608Y238856D01*
X-167612Y238839D01*
X-167639Y238508D01*
X-167639Y-25908D01*
X-167637Y-25926D01*
X-167639Y-25944D01*
X-167618Y-26126D01*
X-167599Y-26309D01*
X-167594Y-26326D01*
X-167592Y-26343D01*
X-167535Y-26518D01*
X-167481Y-26694D01*
X-167473Y-26709D01*
X-167467Y-26726D01*
X-167377Y-26886D01*
X-167289Y-27048D01*
X-167278Y-27061D01*
X-167269Y-27077D01*
X-167149Y-27216D01*
X-167032Y-27357D01*
X-167018Y-27368D01*
X-167006Y-27382D01*
X-166861Y-27494D01*
X-166718Y-27609D01*
X-166702Y-27617D01*
X-166688Y-27628D01*
X-166523Y-27710D01*
X-166361Y-27795D01*
X-166344Y-27800D01*
X-166328Y-27808D01*
X-166149Y-27855D01*
X-165974Y-27906D01*
X-165956Y-27908D01*
X-165939Y-27912D01*
X-165608Y-27939D01*
X495608Y-27939D01*
X495626Y-27937D01*
G37*
%LPC*%
G36*
X284419Y-5843D02*
X284419Y-5843D01*
X281712Y-3136D01*
X281692Y-3119D01*
X281674Y-3098D01*
X281536Y-2991D01*
X281401Y-2881D01*
X281377Y-2868D01*
X281356Y-2852D01*
X281199Y-2774D01*
X281045Y-2692D01*
X281020Y-2684D01*
X280996Y-2672D01*
X280826Y-2627D01*
X280659Y-2577D01*
X280633Y-2575D01*
X280607Y-2568D01*
X280276Y-2541D01*
X212868Y-2541D01*
X207267Y-220D01*
X168871Y38175D01*
X168857Y38187D01*
X168846Y38200D01*
X168702Y38314D01*
X168560Y38430D01*
X168544Y38439D01*
X168530Y38450D01*
X168365Y38533D01*
X168204Y38619D01*
X168187Y38624D01*
X168171Y38632D01*
X167993Y38682D01*
X167818Y38734D01*
X167800Y38735D01*
X167783Y38740D01*
X167600Y38753D01*
X167417Y38770D01*
X167399Y38768D01*
X167382Y38769D01*
X167200Y38746D01*
X167017Y38727D01*
X167000Y38721D01*
X166982Y38719D01*
X166808Y38661D01*
X166633Y38605D01*
X166617Y38596D01*
X166600Y38591D01*
X166441Y38499D01*
X166281Y38410D01*
X166267Y38399D01*
X166252Y38390D01*
X165999Y38175D01*
X160081Y32257D01*
X144719Y32257D01*
X141136Y35840D01*
X141123Y35852D01*
X141111Y35865D01*
X140967Y35979D01*
X140825Y36095D01*
X140809Y36104D01*
X140795Y36115D01*
X140632Y36198D01*
X140469Y36284D01*
X140452Y36289D01*
X140436Y36297D01*
X140259Y36346D01*
X140083Y36399D01*
X140065Y36400D01*
X140048Y36405D01*
X139865Y36419D01*
X139682Y36435D01*
X139664Y36433D01*
X139647Y36435D01*
X139465Y36412D01*
X139282Y36392D01*
X139265Y36386D01*
X139247Y36384D01*
X139074Y36326D01*
X138898Y36270D01*
X138882Y36262D01*
X138866Y36256D01*
X138706Y36164D01*
X138546Y36075D01*
X138532Y36064D01*
X138517Y36055D01*
X138264Y35840D01*
X137504Y35080D01*
X137000Y34872D01*
X137000Y34871D01*
X130688Y32257D01*
X123312Y32257D01*
X116446Y35101D01*
X116436Y35109D01*
X116301Y35219D01*
X116277Y35232D01*
X116256Y35248D01*
X116099Y35326D01*
X115945Y35408D01*
X115920Y35416D01*
X115895Y35428D01*
X115726Y35473D01*
X115559Y35523D01*
X115533Y35525D01*
X115507Y35532D01*
X115176Y35559D01*
X98568Y35559D01*
X92967Y37880D01*
X88680Y42167D01*
X86675Y47005D01*
X86665Y47025D01*
X86658Y47046D01*
X86570Y47202D01*
X86485Y47360D01*
X86471Y47377D01*
X86460Y47397D01*
X86343Y47532D01*
X86229Y47671D01*
X86211Y47685D01*
X86197Y47702D01*
X86055Y47811D01*
X85916Y47924D01*
X85896Y47935D01*
X85879Y47948D01*
X85718Y48028D01*
X85560Y48111D01*
X85538Y48118D01*
X85518Y48128D01*
X85344Y48174D01*
X85173Y48224D01*
X85151Y48226D01*
X85129Y48232D01*
X84799Y48259D01*
X37224Y48259D01*
X37197Y48257D01*
X37171Y48259D01*
X36997Y48237D01*
X36823Y48219D01*
X36798Y48212D01*
X36771Y48208D01*
X36605Y48152D01*
X36438Y48101D01*
X36415Y48088D01*
X36390Y48080D01*
X36238Y47993D01*
X36084Y47909D01*
X36064Y47892D01*
X36041Y47879D01*
X35788Y47664D01*
X33081Y44957D01*
X16904Y44957D01*
X16877Y44955D01*
X16851Y44957D01*
X16677Y44935D01*
X16503Y44917D01*
X16478Y44910D01*
X16451Y44906D01*
X16286Y44851D01*
X16119Y44799D01*
X16095Y44786D01*
X16070Y44778D01*
X15918Y44691D01*
X15764Y44607D01*
X15744Y44590D01*
X15721Y44577D01*
X15468Y44362D01*
X10504Y39398D01*
X3688Y36575D01*
X-3688Y36575D01*
X-10504Y39398D01*
X-11264Y40158D01*
X-11277Y40170D01*
X-11289Y40183D01*
X-11433Y40297D01*
X-11575Y40413D01*
X-11591Y40422D01*
X-11605Y40433D01*
X-11769Y40516D01*
X-11931Y40602D01*
X-11948Y40607D01*
X-11964Y40615D01*
X-12141Y40664D01*
X-12317Y40717D01*
X-12335Y40718D01*
X-12352Y40723D01*
X-12535Y40737D01*
X-12718Y40753D01*
X-12736Y40751D01*
X-12753Y40753D01*
X-12935Y40730D01*
X-13118Y40710D01*
X-13135Y40704D01*
X-13153Y40702D01*
X-13326Y40644D01*
X-13502Y40588D01*
X-13518Y40580D01*
X-13534Y40574D01*
X-13693Y40482D01*
X-13854Y40393D01*
X-13868Y40382D01*
X-13883Y40373D01*
X-14136Y40158D01*
X-14896Y39398D01*
X-21712Y36575D01*
X-29088Y36575D01*
X-35904Y39398D01*
X-41120Y44614D01*
X-41419Y45336D01*
X-41445Y45385D01*
X-41464Y45437D01*
X-41540Y45562D01*
X-41609Y45691D01*
X-41644Y45734D01*
X-41673Y45781D01*
X-41772Y45888D01*
X-41865Y46001D01*
X-41908Y46036D01*
X-41946Y46077D01*
X-42064Y46163D01*
X-42178Y46255D01*
X-42227Y46281D01*
X-42272Y46313D01*
X-42405Y46374D01*
X-42534Y46442D01*
X-42588Y46458D01*
X-42638Y46481D01*
X-42780Y46514D01*
X-42921Y46555D01*
X-42976Y46560D01*
X-43030Y46572D01*
X-43176Y46577D01*
X-43322Y46590D01*
X-43377Y46583D01*
X-43433Y46585D01*
X-43577Y46561D01*
X-43722Y46544D01*
X-43775Y46527D01*
X-43830Y46518D01*
X-43966Y46466D01*
X-44105Y46421D01*
X-44154Y46394D01*
X-44206Y46374D01*
X-44389Y46263D01*
X-44457Y46225D01*
X-44470Y46213D01*
X-44489Y46202D01*
X-45075Y45776D01*
X-46607Y44996D01*
X-48242Y44464D01*
X-48769Y44381D01*
X-48769Y63500D01*
X-48769Y82619D01*
X-48242Y82536D01*
X-46607Y82004D01*
X-45075Y81224D01*
X-44489Y80798D01*
X-44441Y80770D01*
X-44398Y80735D01*
X-44268Y80669D01*
X-44142Y80595D01*
X-44089Y80577D01*
X-44040Y80551D01*
X-43899Y80512D01*
X-43761Y80464D01*
X-43706Y80457D01*
X-43652Y80442D01*
X-43506Y80430D01*
X-43362Y80411D01*
X-43306Y80415D01*
X-43251Y80411D01*
X-43106Y80428D01*
X-42960Y80438D01*
X-42906Y80453D01*
X-42851Y80459D01*
X-42712Y80505D01*
X-42571Y80544D01*
X-42522Y80568D01*
X-42469Y80586D01*
X-42342Y80658D01*
X-42211Y80724D01*
X-42168Y80758D01*
X-42119Y80785D01*
X-42009Y80882D01*
X-41894Y80971D01*
X-41858Y81013D01*
X-41816Y81050D01*
X-41726Y81166D01*
X-41631Y81276D01*
X-41604Y81325D01*
X-41570Y81369D01*
X-41472Y81560D01*
X-41434Y81627D01*
X-41429Y81644D01*
X-41419Y81664D01*
X-41099Y82437D01*
X-41091Y82446D01*
X-40981Y82581D01*
X-40968Y82605D01*
X-40952Y82626D01*
X-40874Y82783D01*
X-40792Y82937D01*
X-40784Y82962D01*
X-40772Y82987D01*
X-40727Y83156D01*
X-40677Y83323D01*
X-40675Y83349D01*
X-40668Y83375D01*
X-40641Y83706D01*
X-40641Y136102D01*
X-40642Y136111D01*
X-40641Y136120D01*
X-40662Y136313D01*
X-40681Y136502D01*
X-40683Y136511D01*
X-40684Y136520D01*
X-40743Y136704D01*
X-40799Y136887D01*
X-40803Y136895D01*
X-40806Y136904D01*
X-40899Y137072D01*
X-40991Y137241D01*
X-40996Y137248D01*
X-41001Y137256D01*
X-41125Y137403D01*
X-41248Y137551D01*
X-41255Y137556D01*
X-41261Y137563D01*
X-41413Y137683D01*
X-41562Y137803D01*
X-41570Y137807D01*
X-41577Y137813D01*
X-41750Y137900D01*
X-41919Y137988D01*
X-41928Y137991D01*
X-41936Y137995D01*
X-42122Y138047D01*
X-42306Y138100D01*
X-42315Y138101D01*
X-42324Y138103D01*
X-42517Y138117D01*
X-42708Y138133D01*
X-42716Y138132D01*
X-42725Y138132D01*
X-42918Y138108D01*
X-43107Y138086D01*
X-43116Y138083D01*
X-43125Y138082D01*
X-43307Y138021D01*
X-43490Y137961D01*
X-43498Y137957D01*
X-43506Y137954D01*
X-43673Y137858D01*
X-43841Y137763D01*
X-43848Y137757D01*
X-43855Y137753D01*
X-44108Y137538D01*
X-61508Y120138D01*
X-61523Y120121D01*
X-61540Y120106D01*
X-61650Y119965D01*
X-61763Y119826D01*
X-61774Y119807D01*
X-61788Y119789D01*
X-61869Y119628D01*
X-61952Y119471D01*
X-61958Y119449D01*
X-61969Y119429D01*
X-62016Y119256D01*
X-62067Y119085D01*
X-62069Y119063D01*
X-62075Y119041D01*
X-62087Y118863D01*
X-62103Y118684D01*
X-62101Y118661D01*
X-62102Y118639D01*
X-62079Y118463D01*
X-62060Y118284D01*
X-62053Y118262D01*
X-62050Y118240D01*
X-61975Y118007D01*
X-61975Y110612D01*
X-64798Y103796D01*
X-65558Y103036D01*
X-65570Y103023D01*
X-65583Y103011D01*
X-65697Y102867D01*
X-65813Y102725D01*
X-65822Y102709D01*
X-65833Y102695D01*
X-65916Y102531D01*
X-66002Y102369D01*
X-66007Y102352D01*
X-66015Y102336D01*
X-66064Y102159D01*
X-66117Y101983D01*
X-66118Y101965D01*
X-66123Y101948D01*
X-66137Y101765D01*
X-66153Y101582D01*
X-66151Y101564D01*
X-66153Y101547D01*
X-66130Y101365D01*
X-66110Y101182D01*
X-66104Y101165D01*
X-66102Y101147D01*
X-66044Y100974D01*
X-65988Y100798D01*
X-65980Y100782D01*
X-65974Y100766D01*
X-65882Y100607D01*
X-65793Y100446D01*
X-65782Y100432D01*
X-65773Y100417D01*
X-65558Y100164D01*
X-64798Y99404D01*
X-61975Y92588D01*
X-61975Y85212D01*
X-64798Y78396D01*
X-65558Y77636D01*
X-65570Y77622D01*
X-65583Y77611D01*
X-65696Y77468D01*
X-65813Y77325D01*
X-65822Y77309D01*
X-65833Y77295D01*
X-65916Y77132D01*
X-66002Y76969D01*
X-66007Y76952D01*
X-66015Y76936D01*
X-66064Y76760D01*
X-66117Y76583D01*
X-66118Y76565D01*
X-66123Y76548D01*
X-66136Y76366D01*
X-66153Y76182D01*
X-66151Y76165D01*
X-66153Y76147D01*
X-66130Y75965D01*
X-66110Y75782D01*
X-66104Y75765D01*
X-66102Y75747D01*
X-66044Y75574D01*
X-65988Y75398D01*
X-65980Y75382D01*
X-65974Y75366D01*
X-65883Y75207D01*
X-65793Y75046D01*
X-65782Y75032D01*
X-65773Y75017D01*
X-65558Y74764D01*
X-64725Y73930D01*
X-64653Y73871D01*
X-64587Y73805D01*
X-64497Y73744D01*
X-64413Y73675D01*
X-64331Y73631D01*
X-64254Y73579D01*
X-64154Y73537D01*
X-64058Y73486D01*
X-63968Y73460D01*
X-63882Y73424D01*
X-63776Y73403D01*
X-63672Y73372D01*
X-63579Y73363D01*
X-63487Y73345D01*
X-63379Y73345D01*
X-63271Y73335D01*
X-63178Y73345D01*
X-63085Y73345D01*
X-62978Y73367D01*
X-62870Y73379D01*
X-62782Y73407D01*
X-62690Y73425D01*
X-62590Y73467D01*
X-62487Y73500D01*
X-62405Y73545D01*
X-62319Y73581D01*
X-62229Y73642D01*
X-62134Y73695D01*
X-62063Y73755D01*
X-61986Y73808D01*
X-61910Y73885D01*
X-61827Y73955D01*
X-61770Y74028D01*
X-61704Y74095D01*
X-61645Y74186D01*
X-61578Y74271D01*
X-61536Y74354D01*
X-61485Y74433D01*
X-61433Y74557D01*
X-61395Y74630D01*
X-61382Y74678D01*
X-61357Y74739D01*
X-60922Y76075D01*
X-60142Y77607D01*
X-59131Y78998D01*
X-57916Y80213D01*
X-56525Y81224D01*
X-54993Y82004D01*
X-53358Y82536D01*
X-52831Y82619D01*
X-52831Y63500D01*
X-52831Y44381D01*
X-53358Y44464D01*
X-54993Y44996D01*
X-56525Y45776D01*
X-57916Y46787D01*
X-59131Y48002D01*
X-60142Y49393D01*
X-60922Y50925D01*
X-61357Y52261D01*
X-61394Y52347D01*
X-61422Y52435D01*
X-61475Y52530D01*
X-61518Y52630D01*
X-61572Y52706D01*
X-61617Y52788D01*
X-61687Y52871D01*
X-61750Y52959D01*
X-61817Y53024D01*
X-61877Y53095D01*
X-61963Y53162D01*
X-62041Y53237D01*
X-62120Y53287D01*
X-62193Y53344D01*
X-62290Y53394D01*
X-62382Y53451D01*
X-62469Y53484D01*
X-62552Y53527D01*
X-62657Y53556D01*
X-62759Y53594D01*
X-62850Y53610D01*
X-62940Y53635D01*
X-63049Y53643D01*
X-63156Y53660D01*
X-63249Y53657D01*
X-63342Y53664D01*
X-63450Y53650D01*
X-63558Y53647D01*
X-63649Y53625D01*
X-63741Y53614D01*
X-63844Y53579D01*
X-63950Y53554D01*
X-64035Y53515D01*
X-64123Y53485D01*
X-64217Y53431D01*
X-64316Y53386D01*
X-64391Y53331D01*
X-64472Y53285D01*
X-64574Y53198D01*
X-64641Y53149D01*
X-64675Y53112D01*
X-64725Y53070D01*
X-65558Y52236D01*
X-65570Y52223D01*
X-65583Y52211D01*
X-65697Y52067D01*
X-65813Y51925D01*
X-65822Y51909D01*
X-65833Y51895D01*
X-65916Y51731D01*
X-66002Y51569D01*
X-66007Y51552D01*
X-66015Y51536D01*
X-66065Y51359D01*
X-66117Y51183D01*
X-66118Y51165D01*
X-66123Y51148D01*
X-66137Y50965D01*
X-66153Y50782D01*
X-66151Y50764D01*
X-66153Y50747D01*
X-66130Y50565D01*
X-66110Y50382D01*
X-66104Y50365D01*
X-66102Y50347D01*
X-66044Y50174D01*
X-65988Y49998D01*
X-65980Y49982D01*
X-65974Y49966D01*
X-65882Y49806D01*
X-65793Y49646D01*
X-65782Y49632D01*
X-65773Y49617D01*
X-65558Y49364D01*
X-64798Y48604D01*
X-61975Y41788D01*
X-61975Y34412D01*
X-64798Y27596D01*
X-70014Y22380D01*
X-70736Y22081D01*
X-70785Y22055D01*
X-70837Y22036D01*
X-70962Y21960D01*
X-71091Y21891D01*
X-71134Y21856D01*
X-71181Y21827D01*
X-71288Y21728D01*
X-71401Y21635D01*
X-71436Y21592D01*
X-71477Y21554D01*
X-71563Y21436D01*
X-71655Y21322D01*
X-71681Y21273D01*
X-71713Y21228D01*
X-71774Y21095D01*
X-71842Y20966D01*
X-71857Y20912D01*
X-71881Y20862D01*
X-71914Y20719D01*
X-71955Y20579D01*
X-71960Y20524D01*
X-71972Y20470D01*
X-71977Y20323D01*
X-71990Y20178D01*
X-71983Y20123D01*
X-71985Y20067D01*
X-71961Y19923D01*
X-71944Y19778D01*
X-71927Y19725D01*
X-71918Y19670D01*
X-71866Y19534D01*
X-71821Y19395D01*
X-71794Y19346D01*
X-71774Y19294D01*
X-71663Y19111D01*
X-71625Y19043D01*
X-71613Y19030D01*
X-71602Y19011D01*
X-71176Y18425D01*
X-70396Y16893D01*
X-69864Y15258D01*
X-69781Y14731D01*
X-88900Y14731D01*
X-108019Y14731D01*
X-107936Y15258D01*
X-107404Y16893D01*
X-106624Y18425D01*
X-106198Y19011D01*
X-106170Y19059D01*
X-106135Y19102D01*
X-106069Y19232D01*
X-105995Y19358D01*
X-105977Y19411D01*
X-105952Y19460D01*
X-105912Y19601D01*
X-105864Y19739D01*
X-105857Y19794D01*
X-105842Y19848D01*
X-105831Y19993D01*
X-105811Y20138D01*
X-105815Y20194D01*
X-105811Y20249D01*
X-105828Y20394D01*
X-105838Y20540D01*
X-105853Y20594D01*
X-105859Y20649D01*
X-105905Y20787D01*
X-105944Y20928D01*
X-105968Y20978D01*
X-105986Y21031D01*
X-106058Y21158D01*
X-106124Y21289D01*
X-106158Y21332D01*
X-106185Y21381D01*
X-106281Y21491D01*
X-106371Y21606D01*
X-106413Y21642D01*
X-106450Y21684D01*
X-106566Y21773D01*
X-106676Y21869D01*
X-106725Y21896D01*
X-106769Y21930D01*
X-106960Y22028D01*
X-107027Y22066D01*
X-107044Y22071D01*
X-107064Y22081D01*
X-107786Y22380D01*
X-113002Y27596D01*
X-115825Y34412D01*
X-115825Y41788D01*
X-113002Y48604D01*
X-112242Y49364D01*
X-112230Y49378D01*
X-112217Y49389D01*
X-112103Y49533D01*
X-111987Y49675D01*
X-111978Y49691D01*
X-111967Y49705D01*
X-111884Y49868D01*
X-111798Y50031D01*
X-111793Y50048D01*
X-111785Y50064D01*
X-111736Y50241D01*
X-111683Y50417D01*
X-111682Y50435D01*
X-111677Y50452D01*
X-111663Y50635D01*
X-111647Y50818D01*
X-111649Y50836D01*
X-111647Y50853D01*
X-111670Y51035D01*
X-111690Y51218D01*
X-111696Y51235D01*
X-111698Y51253D01*
X-111756Y51426D01*
X-111812Y51602D01*
X-111820Y51618D01*
X-111826Y51634D01*
X-111918Y51794D01*
X-112007Y51954D01*
X-112018Y51968D01*
X-112027Y51983D01*
X-112242Y52236D01*
X-113002Y52996D01*
X-115825Y59812D01*
X-115825Y67188D01*
X-113002Y74004D01*
X-112242Y74764D01*
X-112230Y74778D01*
X-112217Y74789D01*
X-112103Y74933D01*
X-111987Y75075D01*
X-111978Y75091D01*
X-111967Y75105D01*
X-111884Y75268D01*
X-111798Y75431D01*
X-111793Y75448D01*
X-111785Y75464D01*
X-111736Y75641D01*
X-111683Y75817D01*
X-111682Y75835D01*
X-111677Y75852D01*
X-111663Y76035D01*
X-111647Y76218D01*
X-111649Y76236D01*
X-111647Y76253D01*
X-111670Y76435D01*
X-111690Y76618D01*
X-111696Y76635D01*
X-111698Y76653D01*
X-111756Y76826D01*
X-111812Y77002D01*
X-111820Y77018D01*
X-111826Y77034D01*
X-111918Y77194D01*
X-112007Y77354D01*
X-112018Y77368D01*
X-112027Y77383D01*
X-112242Y77636D01*
X-113002Y78396D01*
X-115825Y85212D01*
X-115825Y92588D01*
X-113002Y99404D01*
X-112242Y100164D01*
X-112230Y100178D01*
X-112217Y100189D01*
X-112103Y100333D01*
X-111987Y100475D01*
X-111978Y100491D01*
X-111967Y100505D01*
X-111884Y100668D01*
X-111798Y100831D01*
X-111793Y100848D01*
X-111785Y100864D01*
X-111736Y101041D01*
X-111683Y101217D01*
X-111682Y101235D01*
X-111677Y101252D01*
X-111663Y101435D01*
X-111647Y101618D01*
X-111649Y101636D01*
X-111647Y101653D01*
X-111670Y101835D01*
X-111690Y102018D01*
X-111696Y102035D01*
X-111698Y102053D01*
X-111756Y102226D01*
X-111812Y102402D01*
X-111820Y102418D01*
X-111826Y102434D01*
X-111918Y102594D01*
X-112007Y102754D01*
X-112018Y102768D01*
X-112027Y102783D01*
X-112242Y103036D01*
X-113002Y103796D01*
X-115825Y110612D01*
X-115825Y117988D01*
X-113002Y124804D01*
X-112242Y125564D01*
X-112230Y125578D01*
X-112217Y125589D01*
X-112103Y125733D01*
X-111987Y125875D01*
X-111978Y125891D01*
X-111967Y125905D01*
X-111884Y126068D01*
X-111798Y126231D01*
X-111793Y126248D01*
X-111785Y126264D01*
X-111736Y126441D01*
X-111683Y126617D01*
X-111682Y126635D01*
X-111677Y126652D01*
X-111663Y126835D01*
X-111647Y127018D01*
X-111649Y127036D01*
X-111647Y127053D01*
X-111670Y127235D01*
X-111690Y127418D01*
X-111696Y127435D01*
X-111698Y127453D01*
X-111756Y127626D01*
X-111812Y127802D01*
X-111820Y127818D01*
X-111826Y127834D01*
X-111918Y127994D01*
X-112007Y128154D01*
X-112018Y128168D01*
X-112027Y128183D01*
X-112242Y128436D01*
X-113002Y129196D01*
X-115825Y136012D01*
X-115825Y143388D01*
X-113002Y150204D01*
X-112242Y150964D01*
X-112230Y150978D01*
X-112217Y150989D01*
X-112103Y151133D01*
X-111987Y151275D01*
X-111978Y151291D01*
X-111967Y151305D01*
X-111884Y151468D01*
X-111798Y151631D01*
X-111793Y151648D01*
X-111785Y151664D01*
X-111736Y151841D01*
X-111683Y152017D01*
X-111682Y152035D01*
X-111677Y152052D01*
X-111663Y152235D01*
X-111647Y152418D01*
X-111649Y152436D01*
X-111647Y152453D01*
X-111670Y152635D01*
X-111690Y152818D01*
X-111696Y152835D01*
X-111698Y152853D01*
X-111756Y153026D01*
X-111812Y153202D01*
X-111820Y153218D01*
X-111826Y153234D01*
X-111918Y153394D01*
X-112007Y153554D01*
X-112018Y153568D01*
X-112027Y153583D01*
X-112242Y153836D01*
X-113002Y154596D01*
X-115825Y161412D01*
X-115825Y168788D01*
X-113002Y175604D01*
X-112242Y176364D01*
X-112230Y176378D01*
X-112217Y176389D01*
X-112103Y176533D01*
X-111987Y176675D01*
X-111978Y176691D01*
X-111967Y176705D01*
X-111884Y176868D01*
X-111798Y177031D01*
X-111793Y177048D01*
X-111785Y177064D01*
X-111736Y177241D01*
X-111683Y177417D01*
X-111682Y177435D01*
X-111677Y177452D01*
X-111663Y177635D01*
X-111647Y177818D01*
X-111649Y177836D01*
X-111647Y177853D01*
X-111670Y178035D01*
X-111690Y178218D01*
X-111696Y178235D01*
X-111698Y178253D01*
X-111756Y178426D01*
X-111812Y178602D01*
X-111820Y178618D01*
X-111826Y178634D01*
X-111918Y178794D01*
X-112007Y178954D01*
X-112018Y178968D01*
X-112027Y178983D01*
X-112242Y179236D01*
X-113002Y179996D01*
X-115825Y186812D01*
X-115825Y194188D01*
X-113002Y201004D01*
X-107786Y206220D01*
X-103865Y207844D01*
X-100970Y209043D01*
X-92752Y209043D01*
X-92726Y209045D01*
X-92699Y209043D01*
X-92525Y209065D01*
X-92352Y209083D01*
X-92326Y209090D01*
X-92299Y209094D01*
X-92134Y209150D01*
X-91967Y209201D01*
X-91943Y209214D01*
X-91918Y209222D01*
X-91766Y209309D01*
X-91613Y209393D01*
X-91592Y209410D01*
X-91569Y209423D01*
X-91316Y209638D01*
X-72133Y228820D01*
X-66532Y231141D01*
X50958Y231141D01*
X50984Y231143D01*
X51011Y231141D01*
X51185Y231163D01*
X51358Y231181D01*
X51384Y231188D01*
X51410Y231192D01*
X51576Y231248D01*
X51743Y231299D01*
X51767Y231312D01*
X51792Y231320D01*
X51944Y231407D01*
X52097Y231491D01*
X52118Y231508D01*
X52141Y231521D01*
X52394Y231736D01*
X55609Y234951D01*
X71391Y234951D01*
X74606Y231736D01*
X74627Y231719D01*
X74644Y231698D01*
X74782Y231591D01*
X74918Y231481D01*
X74941Y231468D01*
X74962Y231452D01*
X75119Y231374D01*
X75273Y231292D01*
X75299Y231284D01*
X75323Y231272D01*
X75492Y231227D01*
X75659Y231177D01*
X75686Y231175D01*
X75712Y231168D01*
X76042Y231141D01*
X89776Y231141D01*
X89803Y231143D01*
X89829Y231141D01*
X90003Y231163D01*
X90177Y231181D01*
X90202Y231188D01*
X90229Y231192D01*
X90394Y231247D01*
X90562Y231299D01*
X90585Y231312D01*
X90610Y231320D01*
X90762Y231407D01*
X90916Y231491D01*
X90936Y231508D01*
X90959Y231521D01*
X91212Y231736D01*
X93919Y234443D01*
X109281Y234443D01*
X111988Y231736D01*
X112008Y231719D01*
X112026Y231698D01*
X112164Y231591D01*
X112299Y231481D01*
X112323Y231468D01*
X112344Y231452D01*
X112501Y231374D01*
X112655Y231292D01*
X112680Y231284D01*
X112705Y231272D01*
X112874Y231227D01*
X113041Y231177D01*
X113067Y231175D01*
X113093Y231168D01*
X113424Y231141D01*
X153276Y231141D01*
X153303Y231143D01*
X153329Y231141D01*
X153503Y231163D01*
X153677Y231181D01*
X153702Y231188D01*
X153729Y231192D01*
X153894Y231247D01*
X154062Y231299D01*
X154085Y231312D01*
X154110Y231320D01*
X154262Y231407D01*
X154416Y231491D01*
X154436Y231508D01*
X154459Y231521D01*
X154712Y231736D01*
X157419Y234443D01*
X172781Y234443D01*
X175488Y231736D01*
X175508Y231719D01*
X175526Y231698D01*
X175664Y231591D01*
X175799Y231481D01*
X175823Y231468D01*
X175844Y231452D01*
X176001Y231374D01*
X176155Y231292D01*
X176180Y231284D01*
X176205Y231272D01*
X176374Y231227D01*
X176541Y231177D01*
X176567Y231175D01*
X176593Y231168D01*
X176924Y231141D01*
X190658Y231141D01*
X190684Y231143D01*
X190711Y231141D01*
X190885Y231163D01*
X191058Y231181D01*
X191084Y231188D01*
X191110Y231192D01*
X191276Y231247D01*
X191443Y231299D01*
X191467Y231312D01*
X191492Y231320D01*
X191644Y231407D01*
X191797Y231491D01*
X191818Y231508D01*
X191841Y231521D01*
X192094Y231736D01*
X195309Y234951D01*
X211091Y234951D01*
X214306Y231736D01*
X214327Y231719D01*
X214344Y231698D01*
X214482Y231591D01*
X214618Y231481D01*
X214641Y231468D01*
X214662Y231452D01*
X214819Y231374D01*
X214973Y231292D01*
X214999Y231284D01*
X215023Y231272D01*
X215192Y231227D01*
X215359Y231177D01*
X215386Y231175D01*
X215412Y231168D01*
X215742Y231141D01*
X229476Y231141D01*
X229503Y231143D01*
X229529Y231141D01*
X229703Y231163D01*
X229877Y231181D01*
X229902Y231188D01*
X229929Y231192D01*
X230094Y231247D01*
X230262Y231299D01*
X230285Y231312D01*
X230310Y231320D01*
X230462Y231407D01*
X230616Y231491D01*
X230636Y231508D01*
X230659Y231521D01*
X230912Y231736D01*
X233619Y234443D01*
X248981Y234443D01*
X251688Y231736D01*
X251708Y231719D01*
X251726Y231698D01*
X251864Y231591D01*
X251999Y231481D01*
X252023Y231468D01*
X252044Y231452D01*
X252201Y231374D01*
X252355Y231292D01*
X252380Y231284D01*
X252405Y231272D01*
X252574Y231227D01*
X252741Y231177D01*
X252767Y231175D01*
X252793Y231168D01*
X253124Y231141D01*
X318376Y231141D01*
X318403Y231143D01*
X318429Y231141D01*
X318603Y231163D01*
X318777Y231181D01*
X318802Y231188D01*
X318829Y231192D01*
X318994Y231247D01*
X319161Y231299D01*
X319185Y231312D01*
X319210Y231320D01*
X319362Y231407D01*
X319516Y231491D01*
X319536Y231508D01*
X319559Y231521D01*
X319656Y231603D01*
X326046Y234250D01*
X326512Y234443D01*
X333888Y234443D01*
X340754Y231599D01*
X340764Y231591D01*
X340899Y231481D01*
X340923Y231468D01*
X340944Y231452D01*
X341101Y231374D01*
X341255Y231292D01*
X341280Y231284D01*
X341305Y231272D01*
X341474Y231227D01*
X341641Y231177D01*
X341667Y231175D01*
X341693Y231168D01*
X342024Y231141D01*
X394576Y231141D01*
X394603Y231143D01*
X394629Y231141D01*
X394803Y231163D01*
X394977Y231181D01*
X395002Y231188D01*
X395029Y231192D01*
X395194Y231247D01*
X395362Y231299D01*
X395385Y231312D01*
X395410Y231320D01*
X395562Y231407D01*
X395716Y231491D01*
X395736Y231508D01*
X395759Y231521D01*
X396012Y231736D01*
X398719Y234443D01*
X414081Y234443D01*
X416788Y231736D01*
X416808Y231719D01*
X416826Y231698D01*
X416964Y231591D01*
X417099Y231481D01*
X417123Y231468D01*
X417144Y231452D01*
X417301Y231374D01*
X417455Y231292D01*
X417480Y231284D01*
X417505Y231272D01*
X417674Y231227D01*
X417841Y231177D01*
X417867Y231175D01*
X417893Y231168D01*
X418224Y231141D01*
X434832Y231141D01*
X440433Y228820D01*
X458600Y210654D01*
X458621Y210637D01*
X458638Y210616D01*
X458776Y210509D01*
X458911Y210399D01*
X458935Y210386D01*
X458956Y210370D01*
X459113Y210292D01*
X459267Y210210D01*
X459293Y210202D01*
X459317Y210190D01*
X459486Y210145D01*
X459653Y210095D01*
X459680Y210093D01*
X459706Y210086D01*
X460036Y210059D01*
X470489Y210059D01*
X477677Y207081D01*
X483179Y201579D01*
X486157Y194391D01*
X486157Y186609D01*
X483179Y179421D01*
X482995Y179236D01*
X482983Y179222D01*
X482970Y179211D01*
X482856Y179067D01*
X482739Y178925D01*
X482731Y178909D01*
X482720Y178895D01*
X482637Y178731D01*
X482551Y178569D01*
X482546Y178552D01*
X482538Y178536D01*
X482488Y178359D01*
X482436Y178183D01*
X482434Y178165D01*
X482430Y178148D01*
X482416Y177965D01*
X482400Y177782D01*
X482402Y177764D01*
X482400Y177747D01*
X482423Y177565D01*
X482443Y177382D01*
X482449Y177365D01*
X482451Y177347D01*
X482509Y177174D01*
X482565Y176998D01*
X482573Y176982D01*
X482579Y176965D01*
X482670Y176807D01*
X482759Y176646D01*
X482771Y176632D01*
X482780Y176617D01*
X482995Y176364D01*
X483179Y176179D01*
X486157Y168991D01*
X486157Y161209D01*
X483179Y154021D01*
X482995Y153836D01*
X482983Y153822D01*
X482970Y153811D01*
X482856Y153667D01*
X482739Y153525D01*
X482731Y153509D01*
X482720Y153495D01*
X482637Y153331D01*
X482551Y153169D01*
X482546Y153152D01*
X482538Y153136D01*
X482488Y152959D01*
X482436Y152783D01*
X482434Y152765D01*
X482430Y152748D01*
X482416Y152565D01*
X482400Y152382D01*
X482402Y152364D01*
X482400Y152347D01*
X482423Y152165D01*
X482443Y151982D01*
X482449Y151965D01*
X482451Y151947D01*
X482509Y151774D01*
X482565Y151598D01*
X482573Y151582D01*
X482579Y151565D01*
X482670Y151407D01*
X482759Y151246D01*
X482771Y151232D01*
X482780Y151217D01*
X482995Y150964D01*
X483179Y150779D01*
X486157Y143591D01*
X486157Y135809D01*
X483179Y128621D01*
X482995Y128436D01*
X482983Y128422D01*
X482970Y128411D01*
X482856Y128267D01*
X482739Y128125D01*
X482731Y128109D01*
X482720Y128095D01*
X482637Y127931D01*
X482551Y127769D01*
X482546Y127752D01*
X482538Y127736D01*
X482488Y127558D01*
X482436Y127383D01*
X482434Y127365D01*
X482430Y127348D01*
X482416Y127165D01*
X482400Y126982D01*
X482402Y126964D01*
X482400Y126947D01*
X482423Y126765D01*
X482443Y126582D01*
X482449Y126565D01*
X482451Y126547D01*
X482509Y126374D01*
X482565Y126198D01*
X482573Y126182D01*
X482579Y126165D01*
X482670Y126007D01*
X482759Y125846D01*
X482771Y125832D01*
X482780Y125817D01*
X482995Y125564D01*
X483179Y125379D01*
X486157Y118191D01*
X486157Y110409D01*
X483179Y103221D01*
X482995Y103036D01*
X482983Y103022D01*
X482970Y103011D01*
X482856Y102867D01*
X482739Y102725D01*
X482731Y102709D01*
X482720Y102695D01*
X482637Y102531D01*
X482551Y102369D01*
X482546Y102352D01*
X482538Y102336D01*
X482488Y102159D01*
X482436Y101983D01*
X482434Y101965D01*
X482430Y101948D01*
X482416Y101765D01*
X482400Y101582D01*
X482402Y101564D01*
X482400Y101547D01*
X482423Y101365D01*
X482443Y101182D01*
X482449Y101165D01*
X482451Y101147D01*
X482509Y100974D01*
X482565Y100798D01*
X482573Y100782D01*
X482579Y100765D01*
X482670Y100607D01*
X482759Y100446D01*
X482771Y100432D01*
X482780Y100417D01*
X482995Y100164D01*
X483179Y99979D01*
X486157Y92791D01*
X486157Y85009D01*
X483179Y77821D01*
X482995Y77636D01*
X482983Y77622D01*
X482970Y77611D01*
X482856Y77467D01*
X482739Y77325D01*
X482731Y77309D01*
X482720Y77295D01*
X482637Y77131D01*
X482551Y76969D01*
X482546Y76952D01*
X482538Y76936D01*
X482488Y76759D01*
X482436Y76583D01*
X482434Y76565D01*
X482430Y76548D01*
X482416Y76365D01*
X482400Y76182D01*
X482402Y76164D01*
X482400Y76147D01*
X482423Y75965D01*
X482443Y75782D01*
X482449Y75765D01*
X482451Y75747D01*
X482509Y75574D01*
X482565Y75398D01*
X482573Y75382D01*
X482579Y75365D01*
X482670Y75207D01*
X482759Y75046D01*
X482771Y75032D01*
X482780Y75017D01*
X482995Y74764D01*
X483179Y74579D01*
X486157Y67391D01*
X486157Y59609D01*
X483179Y52421D01*
X482995Y52236D01*
X482983Y52222D01*
X482970Y52211D01*
X482856Y52067D01*
X482739Y51925D01*
X482731Y51909D01*
X482720Y51895D01*
X482637Y51731D01*
X482551Y51569D01*
X482546Y51552D01*
X482538Y51536D01*
X482488Y51359D01*
X482436Y51183D01*
X482434Y51165D01*
X482430Y51148D01*
X482416Y50965D01*
X482400Y50782D01*
X482402Y50764D01*
X482400Y50747D01*
X482423Y50565D01*
X482443Y50382D01*
X482449Y50365D01*
X482451Y50347D01*
X482509Y50174D01*
X482565Y49998D01*
X482573Y49982D01*
X482579Y49965D01*
X482670Y49807D01*
X482759Y49646D01*
X482771Y49632D01*
X482780Y49617D01*
X482995Y49364D01*
X483179Y49179D01*
X486157Y41991D01*
X486157Y34209D01*
X483179Y27021D01*
X477615Y21457D01*
X477558Y21426D01*
X477483Y21364D01*
X477401Y21310D01*
X477328Y21236D01*
X477247Y21170D01*
X477186Y21094D01*
X477117Y21025D01*
X477059Y20938D01*
X476994Y20857D01*
X476948Y20771D01*
X476894Y20689D01*
X476855Y20593D01*
X476807Y20501D01*
X476779Y20407D01*
X476742Y20317D01*
X476723Y20214D01*
X476693Y20114D01*
X476685Y20017D01*
X476667Y19921D01*
X476668Y19817D01*
X476659Y19713D01*
X476670Y19616D01*
X476671Y19519D01*
X476692Y19417D01*
X476704Y19313D01*
X476734Y19220D01*
X476754Y19125D01*
X476802Y19007D01*
X476827Y18930D01*
X476853Y18884D01*
X476880Y18818D01*
X477662Y17283D01*
X478243Y15496D01*
X478283Y15239D01*
X457708Y15239D01*
X457690Y15237D01*
X457673Y15239D01*
X457490Y15218D01*
X457308Y15199D01*
X457291Y15194D01*
X457273Y15192D01*
X457195Y15167D01*
X457058Y15206D01*
X457040Y15208D01*
X457023Y15212D01*
X456692Y15239D01*
X436117Y15239D01*
X436157Y15496D01*
X436738Y17283D01*
X437520Y18818D01*
X437555Y18909D01*
X437600Y18995D01*
X437628Y19096D01*
X437666Y19193D01*
X437683Y19289D01*
X437710Y19383D01*
X437718Y19487D01*
X437736Y19589D01*
X437733Y19687D01*
X437741Y19784D01*
X437728Y19888D01*
X437726Y19992D01*
X437704Y20087D01*
X437692Y20184D01*
X437659Y20283D01*
X437636Y20384D01*
X437596Y20473D01*
X437566Y20566D01*
X437514Y20657D01*
X437471Y20752D01*
X437415Y20831D01*
X437366Y20916D01*
X437298Y20994D01*
X437237Y21079D01*
X437166Y21146D01*
X437102Y21219D01*
X437019Y21283D01*
X436943Y21354D01*
X436860Y21405D01*
X436783Y21465D01*
X436771Y21471D01*
X431221Y27021D01*
X428243Y34209D01*
X428243Y41991D01*
X431221Y49179D01*
X431405Y49364D01*
X431417Y49377D01*
X431430Y49389D01*
X431544Y49533D01*
X431660Y49675D01*
X431669Y49691D01*
X431680Y49705D01*
X431763Y49868D01*
X431849Y50031D01*
X431854Y50048D01*
X431862Y50064D01*
X431912Y50241D01*
X431964Y50417D01*
X431965Y50434D01*
X431970Y50452D01*
X431984Y50635D01*
X432000Y50818D01*
X431998Y50835D01*
X432000Y50853D01*
X431977Y51036D01*
X431957Y51218D01*
X431952Y51235D01*
X431949Y51253D01*
X431891Y51427D01*
X431835Y51602D01*
X431827Y51617D01*
X431821Y51634D01*
X431729Y51794D01*
X431641Y51954D01*
X431629Y51968D01*
X431620Y51983D01*
X431405Y52236D01*
X431221Y52421D01*
X428243Y59609D01*
X428243Y67391D01*
X431221Y74579D01*
X431405Y74764D01*
X431417Y74777D01*
X431430Y74789D01*
X431544Y74933D01*
X431660Y75075D01*
X431669Y75091D01*
X431680Y75105D01*
X431763Y75268D01*
X431849Y75431D01*
X431854Y75448D01*
X431862Y75464D01*
X431912Y75641D01*
X431964Y75817D01*
X431965Y75834D01*
X431970Y75852D01*
X431984Y76035D01*
X432000Y76218D01*
X431998Y76235D01*
X432000Y76253D01*
X431977Y76436D01*
X431957Y76618D01*
X431952Y76635D01*
X431949Y76653D01*
X431891Y76827D01*
X431835Y77002D01*
X431827Y77017D01*
X431821Y77034D01*
X431729Y77194D01*
X431641Y77354D01*
X431629Y77368D01*
X431620Y77383D01*
X431405Y77636D01*
X431221Y77821D01*
X428243Y85009D01*
X428243Y92791D01*
X431221Y99979D01*
X431405Y100164D01*
X431417Y100177D01*
X431430Y100189D01*
X431544Y100333D01*
X431660Y100475D01*
X431669Y100491D01*
X431680Y100505D01*
X431763Y100668D01*
X431849Y100831D01*
X431854Y100848D01*
X431862Y100864D01*
X431912Y101041D01*
X431964Y101217D01*
X431965Y101234D01*
X431970Y101252D01*
X431984Y101435D01*
X432000Y101618D01*
X431998Y101635D01*
X432000Y101653D01*
X431977Y101836D01*
X431957Y102018D01*
X431952Y102035D01*
X431949Y102053D01*
X431891Y102227D01*
X431835Y102402D01*
X431827Y102417D01*
X431821Y102434D01*
X431729Y102594D01*
X431641Y102754D01*
X431629Y102768D01*
X431620Y102783D01*
X431405Y103036D01*
X431221Y103221D01*
X428243Y110409D01*
X428243Y118190D01*
X429677Y121651D01*
X429680Y121664D01*
X429687Y121675D01*
X429738Y121855D01*
X429793Y122036D01*
X429794Y122049D01*
X429798Y122062D01*
X429813Y122250D01*
X429831Y122437D01*
X429830Y122450D01*
X429831Y122464D01*
X429809Y122650D01*
X429790Y122837D01*
X429785Y122850D01*
X429784Y122863D01*
X429726Y123042D01*
X429670Y123222D01*
X429663Y123233D01*
X429659Y123246D01*
X429566Y123411D01*
X429476Y123575D01*
X429468Y123585D01*
X429461Y123597D01*
X429338Y123739D01*
X429217Y123883D01*
X429207Y123891D01*
X429198Y123902D01*
X429050Y124016D01*
X428902Y124134D01*
X428890Y124140D01*
X428880Y124148D01*
X428712Y124232D01*
X428544Y124318D01*
X428531Y124322D01*
X428519Y124328D01*
X428337Y124377D01*
X428157Y124428D01*
X428144Y124429D01*
X428131Y124432D01*
X427800Y124459D01*
X418224Y124459D01*
X418197Y124457D01*
X418171Y124459D01*
X417997Y124437D01*
X417823Y124419D01*
X417798Y124412D01*
X417771Y124408D01*
X417606Y124353D01*
X417438Y124301D01*
X417415Y124288D01*
X417390Y124280D01*
X417238Y124193D01*
X417084Y124109D01*
X417064Y124092D01*
X417041Y124079D01*
X416788Y123864D01*
X414081Y121157D01*
X398719Y121157D01*
X387857Y132019D01*
X387857Y147381D01*
X398719Y158243D01*
X414081Y158243D01*
X416788Y155536D01*
X416808Y155519D01*
X416826Y155498D01*
X416964Y155391D01*
X417099Y155281D01*
X417123Y155268D01*
X417144Y155252D01*
X417301Y155174D01*
X417455Y155092D01*
X417480Y155084D01*
X417505Y155072D01*
X417674Y155027D01*
X417841Y154977D01*
X417867Y154975D01*
X417893Y154968D01*
X418224Y154941D01*
X427800Y154941D01*
X427813Y154942D01*
X427827Y154941D01*
X428013Y154962D01*
X428201Y154981D01*
X428213Y154985D01*
X428227Y154986D01*
X428406Y155044D01*
X428585Y155099D01*
X428597Y155105D01*
X428610Y155109D01*
X428775Y155201D01*
X428939Y155291D01*
X428950Y155299D01*
X428961Y155306D01*
X429104Y155428D01*
X429249Y155548D01*
X429257Y155559D01*
X429267Y155567D01*
X429383Y155715D01*
X429501Y155862D01*
X429507Y155874D01*
X429516Y155884D01*
X429600Y156053D01*
X429687Y156219D01*
X429690Y156232D01*
X429696Y156244D01*
X429746Y156425D01*
X429798Y156606D01*
X429799Y156620D01*
X429803Y156633D01*
X429816Y156821D01*
X429831Y157008D01*
X429829Y157021D01*
X429830Y157034D01*
X429806Y157222D01*
X429784Y157407D01*
X429780Y157420D01*
X429778Y157433D01*
X429677Y157749D01*
X428243Y161210D01*
X428243Y168991D01*
X431221Y176179D01*
X431405Y176364D01*
X431417Y176377D01*
X431430Y176389D01*
X431544Y176533D01*
X431660Y176675D01*
X431669Y176691D01*
X431680Y176705D01*
X431763Y176868D01*
X431849Y177031D01*
X431854Y177048D01*
X431862Y177064D01*
X431912Y177241D01*
X431964Y177417D01*
X431965Y177434D01*
X431970Y177452D01*
X431984Y177635D01*
X432000Y177818D01*
X431998Y177835D01*
X432000Y177853D01*
X431977Y178035D01*
X431957Y178218D01*
X431952Y178235D01*
X431949Y178253D01*
X431891Y178427D01*
X431835Y178602D01*
X431827Y178617D01*
X431821Y178634D01*
X431729Y178794D01*
X431641Y178954D01*
X431629Y178968D01*
X431620Y178983D01*
X431405Y179236D01*
X431221Y179421D01*
X428243Y186609D01*
X428243Y194390D01*
X428753Y195620D01*
X428759Y195642D01*
X428769Y195662D01*
X428817Y195834D01*
X428869Y196006D01*
X428871Y196028D01*
X428877Y196049D01*
X428890Y196229D01*
X428907Y196407D01*
X428905Y196429D01*
X428907Y196451D01*
X428884Y196629D01*
X428866Y196807D01*
X428859Y196828D01*
X428856Y196850D01*
X428799Y197020D01*
X428746Y197191D01*
X428735Y197211D01*
X428728Y197232D01*
X428639Y197387D01*
X428553Y197545D01*
X428538Y197562D01*
X428527Y197581D01*
X428312Y197834D01*
X426082Y200064D01*
X426061Y200081D01*
X426044Y200102D01*
X425906Y200208D01*
X425770Y200319D01*
X425747Y200332D01*
X425726Y200348D01*
X425570Y200426D01*
X425415Y200508D01*
X425389Y200516D01*
X425365Y200528D01*
X425196Y200573D01*
X425029Y200623D01*
X425002Y200625D01*
X424976Y200632D01*
X424646Y200659D01*
X418224Y200659D01*
X418197Y200657D01*
X418171Y200659D01*
X417997Y200637D01*
X417823Y200619D01*
X417798Y200612D01*
X417771Y200608D01*
X417606Y200553D01*
X417438Y200501D01*
X417415Y200488D01*
X417390Y200480D01*
X417238Y200393D01*
X417084Y200309D01*
X417064Y200292D01*
X417041Y200279D01*
X416788Y200064D01*
X414081Y197357D01*
X398719Y197357D01*
X396012Y200064D01*
X395992Y200081D01*
X395974Y200102D01*
X395836Y200209D01*
X395701Y200319D01*
X395677Y200332D01*
X395656Y200348D01*
X395499Y200426D01*
X395345Y200508D01*
X395320Y200516D01*
X395295Y200528D01*
X395126Y200573D01*
X394959Y200623D01*
X394933Y200625D01*
X394907Y200632D01*
X394576Y200659D01*
X378492Y200659D01*
X378483Y200658D01*
X378474Y200659D01*
X378282Y200638D01*
X378091Y200619D01*
X378082Y200617D01*
X378074Y200616D01*
X377891Y200558D01*
X377706Y200501D01*
X377698Y200497D01*
X377690Y200494D01*
X377521Y200401D01*
X377352Y200309D01*
X377345Y200304D01*
X377337Y200299D01*
X377190Y200174D01*
X377043Y200052D01*
X377037Y200045D01*
X377030Y200039D01*
X376911Y199888D01*
X376790Y199738D01*
X376786Y199730D01*
X376781Y199723D01*
X376693Y199550D01*
X376605Y199381D01*
X376603Y199372D01*
X376598Y199364D01*
X376547Y199178D01*
X376494Y198994D01*
X376493Y198985D01*
X376490Y198976D01*
X376476Y198783D01*
X376461Y198592D01*
X376462Y198584D01*
X376461Y198575D01*
X376485Y198382D01*
X376508Y198193D01*
X376510Y198184D01*
X376511Y198175D01*
X376573Y197992D01*
X376632Y197810D01*
X376637Y197802D01*
X376640Y197794D01*
X376736Y197627D01*
X376830Y197459D01*
X376836Y197452D01*
X376841Y197445D01*
X377055Y197192D01*
X379223Y195024D01*
X379223Y192531D01*
X368300Y192531D01*
X357377Y192531D01*
X357377Y195024D01*
X359545Y197192D01*
X359550Y197199D01*
X359557Y197204D01*
X359677Y197354D01*
X359800Y197503D01*
X359804Y197511D01*
X359810Y197518D01*
X359898Y197688D01*
X359988Y197859D01*
X359991Y197868D01*
X359995Y197875D01*
X360048Y198060D01*
X360103Y198245D01*
X360104Y198254D01*
X360106Y198262D01*
X360122Y198451D01*
X360140Y198646D01*
X360139Y198655D01*
X360139Y198664D01*
X360117Y198853D01*
X360096Y199046D01*
X360093Y199055D01*
X360092Y199063D01*
X360033Y199245D01*
X359975Y199430D01*
X359970Y199438D01*
X359968Y199446D01*
X359873Y199615D01*
X359780Y199782D01*
X359774Y199789D01*
X359770Y199797D01*
X359644Y199943D01*
X359519Y200089D01*
X359512Y200095D01*
X359506Y200102D01*
X359355Y200219D01*
X359203Y200339D01*
X359195Y200343D01*
X359188Y200348D01*
X359016Y200434D01*
X358844Y200521D01*
X358836Y200524D01*
X358828Y200528D01*
X358642Y200578D01*
X358457Y200629D01*
X358448Y200630D01*
X358439Y200632D01*
X358108Y200659D01*
X342024Y200659D01*
X341997Y200657D01*
X341971Y200659D01*
X341797Y200637D01*
X341623Y200619D01*
X341598Y200612D01*
X341571Y200608D01*
X341406Y200553D01*
X341239Y200501D01*
X341215Y200488D01*
X341190Y200480D01*
X341038Y200393D01*
X340884Y200309D01*
X340864Y200292D01*
X340841Y200279D01*
X340744Y200197D01*
X340163Y199956D01*
X340151Y199950D01*
X340138Y199946D01*
X339974Y199855D01*
X339808Y199766D01*
X339798Y199758D01*
X339786Y199751D01*
X339642Y199629D01*
X339498Y199510D01*
X339489Y199499D01*
X339479Y199491D01*
X339362Y199342D01*
X339244Y199197D01*
X339238Y199185D01*
X339229Y199175D01*
X339144Y199007D01*
X339057Y198841D01*
X339053Y198828D01*
X339047Y198816D01*
X338997Y198635D01*
X338944Y198454D01*
X338942Y198441D01*
X338939Y198428D01*
X338925Y198240D01*
X338909Y198053D01*
X338911Y198040D01*
X338910Y198026D01*
X338933Y197838D01*
X338954Y197653D01*
X338958Y197640D01*
X338960Y197627D01*
X339020Y197448D01*
X339077Y197270D01*
X339084Y197258D01*
X339088Y197245D01*
X339182Y197083D01*
X339274Y196918D01*
X339282Y196908D01*
X339289Y196896D01*
X339504Y196643D01*
X341123Y195024D01*
X341123Y192531D01*
X330200Y192531D01*
X319277Y192531D01*
X319277Y195024D01*
X320896Y196643D01*
X320905Y196654D01*
X320915Y196662D01*
X321032Y196809D01*
X321151Y196955D01*
X321158Y196967D01*
X321166Y196977D01*
X321252Y197145D01*
X321340Y197310D01*
X321344Y197323D01*
X321350Y197335D01*
X321401Y197517D01*
X321455Y197696D01*
X321456Y197710D01*
X321460Y197723D01*
X321474Y197909D01*
X321491Y198097D01*
X321490Y198111D01*
X321491Y198124D01*
X321468Y198309D01*
X321448Y198498D01*
X321444Y198510D01*
X321442Y198524D01*
X321383Y198702D01*
X321326Y198881D01*
X321320Y198893D01*
X321315Y198906D01*
X321222Y199070D01*
X321131Y199234D01*
X321123Y199244D01*
X321116Y199256D01*
X320992Y199398D01*
X320871Y199541D01*
X320860Y199549D01*
X320852Y199559D01*
X320702Y199674D01*
X320555Y199790D01*
X320543Y199796D01*
X320532Y199805D01*
X320237Y199956D01*
X319645Y200201D01*
X319636Y200209D01*
X319501Y200319D01*
X319477Y200332D01*
X319456Y200348D01*
X319299Y200426D01*
X319145Y200508D01*
X319120Y200516D01*
X319095Y200528D01*
X318926Y200573D01*
X318759Y200623D01*
X318733Y200625D01*
X318707Y200632D01*
X318376Y200659D01*
X253124Y200659D01*
X253097Y200657D01*
X253071Y200659D01*
X252897Y200637D01*
X252723Y200619D01*
X252698Y200612D01*
X252671Y200608D01*
X252506Y200553D01*
X252338Y200501D01*
X252315Y200488D01*
X252290Y200480D01*
X252138Y200393D01*
X251984Y200309D01*
X251964Y200292D01*
X251941Y200279D01*
X251688Y200064D01*
X248981Y197357D01*
X233619Y197357D01*
X230912Y200064D01*
X230892Y200081D01*
X230874Y200102D01*
X230736Y200209D01*
X230601Y200319D01*
X230577Y200332D01*
X230556Y200348D01*
X230399Y200426D01*
X230245Y200508D01*
X230220Y200516D01*
X230195Y200528D01*
X230026Y200573D01*
X229859Y200623D01*
X229833Y200625D01*
X229807Y200632D01*
X229476Y200659D01*
X215742Y200659D01*
X215716Y200657D01*
X215689Y200659D01*
X215515Y200637D01*
X215342Y200619D01*
X215316Y200612D01*
X215290Y200608D01*
X215124Y200553D01*
X214957Y200501D01*
X214933Y200488D01*
X214908Y200480D01*
X214756Y200393D01*
X214603Y200309D01*
X214582Y200292D01*
X214559Y200279D01*
X214306Y200064D01*
X211091Y196849D01*
X195309Y196849D01*
X192094Y200064D01*
X192073Y200081D01*
X192056Y200102D01*
X191918Y200209D01*
X191782Y200319D01*
X191759Y200332D01*
X191738Y200348D01*
X191581Y200426D01*
X191427Y200508D01*
X191401Y200516D01*
X191377Y200528D01*
X191208Y200573D01*
X191041Y200623D01*
X191014Y200625D01*
X190988Y200632D01*
X190658Y200659D01*
X176924Y200659D01*
X176897Y200657D01*
X176871Y200659D01*
X176697Y200637D01*
X176523Y200619D01*
X176498Y200612D01*
X176471Y200608D01*
X176306Y200553D01*
X176138Y200501D01*
X176115Y200488D01*
X176090Y200480D01*
X175938Y200393D01*
X175784Y200309D01*
X175764Y200292D01*
X175741Y200279D01*
X175488Y200064D01*
X172781Y197357D01*
X157419Y197357D01*
X154712Y200064D01*
X154692Y200081D01*
X154674Y200102D01*
X154536Y200209D01*
X154401Y200319D01*
X154377Y200332D01*
X154356Y200348D01*
X154199Y200426D01*
X154045Y200508D01*
X154020Y200516D01*
X153995Y200528D01*
X153826Y200573D01*
X153659Y200623D01*
X153633Y200625D01*
X153607Y200632D01*
X153276Y200659D01*
X113424Y200659D01*
X113397Y200657D01*
X113371Y200659D01*
X113197Y200637D01*
X113023Y200619D01*
X112998Y200612D01*
X112971Y200608D01*
X112806Y200553D01*
X112638Y200501D01*
X112615Y200488D01*
X112590Y200480D01*
X112438Y200393D01*
X112284Y200309D01*
X112264Y200292D01*
X112241Y200279D01*
X111988Y200064D01*
X109281Y197357D01*
X93919Y197357D01*
X91212Y200064D01*
X91192Y200081D01*
X91174Y200102D01*
X91036Y200209D01*
X90901Y200319D01*
X90877Y200332D01*
X90856Y200348D01*
X90699Y200426D01*
X90545Y200508D01*
X90520Y200516D01*
X90495Y200528D01*
X90326Y200573D01*
X90159Y200623D01*
X90133Y200625D01*
X90107Y200632D01*
X89776Y200659D01*
X76042Y200659D01*
X76016Y200657D01*
X75989Y200659D01*
X75815Y200637D01*
X75642Y200619D01*
X75616Y200612D01*
X75590Y200608D01*
X75424Y200552D01*
X75257Y200501D01*
X75233Y200488D01*
X75208Y200480D01*
X75056Y200393D01*
X74903Y200309D01*
X74882Y200292D01*
X74859Y200279D01*
X74606Y200064D01*
X71391Y196849D01*
X55609Y196849D01*
X52394Y200064D01*
X52373Y200081D01*
X52356Y200102D01*
X52218Y200209D01*
X52082Y200319D01*
X52059Y200332D01*
X52038Y200348D01*
X51881Y200426D01*
X51727Y200508D01*
X51701Y200516D01*
X51677Y200528D01*
X51508Y200573D01*
X51341Y200623D01*
X51314Y200625D01*
X51288Y200632D01*
X50958Y200659D01*
X45974Y200659D01*
X45956Y200657D01*
X45938Y200659D01*
X45756Y200638D01*
X45573Y200619D01*
X45556Y200614D01*
X45539Y200612D01*
X45364Y200555D01*
X45188Y200501D01*
X45173Y200493D01*
X45156Y200487D01*
X44996Y200397D01*
X44834Y200309D01*
X44821Y200298D01*
X44805Y200289D01*
X44666Y200169D01*
X44525Y200052D01*
X44514Y200038D01*
X44500Y200026D01*
X44388Y199881D01*
X44273Y199738D01*
X44265Y199722D01*
X44254Y199708D01*
X44172Y199543D01*
X44087Y199381D01*
X44082Y199364D01*
X44074Y199348D01*
X44027Y199169D01*
X43976Y198994D01*
X43974Y198976D01*
X43970Y198959D01*
X43943Y198628D01*
X43943Y182819D01*
X33081Y171957D01*
X17719Y171957D01*
X15012Y174664D01*
X14992Y174681D01*
X14974Y174702D01*
X14836Y174809D01*
X14701Y174919D01*
X14677Y174932D01*
X14656Y174948D01*
X14499Y175026D01*
X14345Y175108D01*
X14320Y175116D01*
X14296Y175128D01*
X14126Y175173D01*
X13959Y175223D01*
X13933Y175225D01*
X13907Y175232D01*
X13576Y175259D01*
X-8128Y175259D01*
X-8146Y175257D01*
X-8164Y175259D01*
X-8346Y175238D01*
X-8529Y175219D01*
X-8546Y175214D01*
X-8563Y175212D01*
X-8738Y175155D01*
X-8914Y175101D01*
X-8929Y175093D01*
X-8946Y175087D01*
X-9106Y174997D01*
X-9268Y174909D01*
X-9281Y174898D01*
X-9297Y174889D01*
X-9436Y174769D01*
X-9577Y174652D01*
X-9588Y174638D01*
X-9602Y174626D01*
X-9714Y174481D01*
X-9829Y174338D01*
X-9837Y174322D01*
X-9848Y174308D01*
X-9930Y174143D01*
X-10015Y173981D01*
X-10020Y173964D01*
X-10028Y173948D01*
X-10075Y173769D01*
X-10126Y173594D01*
X-10128Y173576D01*
X-10132Y173559D01*
X-10159Y173228D01*
X-10159Y90784D01*
X-10158Y90771D01*
X-10159Y90758D01*
X-10138Y90572D01*
X-10119Y90384D01*
X-10115Y90371D01*
X-10114Y90358D01*
X-10056Y90179D01*
X-10001Y89999D01*
X-9995Y89987D01*
X-9991Y89974D01*
X-9899Y89810D01*
X-9809Y89645D01*
X-9801Y89635D01*
X-9794Y89623D01*
X-9672Y89480D01*
X-9552Y89336D01*
X-9541Y89327D01*
X-9533Y89317D01*
X-9384Y89201D01*
X-9238Y89083D01*
X-9226Y89077D01*
X-9216Y89069D01*
X-9047Y88984D01*
X-8881Y88898D01*
X-8868Y88894D01*
X-8856Y88888D01*
X-8674Y88838D01*
X-8494Y88786D01*
X-8480Y88785D01*
X-8467Y88782D01*
X-8279Y88769D01*
X-8092Y88753D01*
X-8079Y88755D01*
X-8066Y88754D01*
X-7878Y88779D01*
X-7693Y88800D01*
X-7680Y88804D01*
X-7667Y88806D01*
X-7351Y88908D01*
X-4638Y90031D01*
X-3688Y90425D01*
X3688Y90425D01*
X10504Y87602D01*
X15468Y82638D01*
X15488Y82621D01*
X15506Y82600D01*
X15644Y82493D01*
X15779Y82383D01*
X15803Y82370D01*
X15824Y82354D01*
X15981Y82276D01*
X16135Y82194D01*
X16160Y82186D01*
X16185Y82174D01*
X16354Y82129D01*
X16521Y82079D01*
X16547Y82077D01*
X16573Y82070D01*
X16904Y82043D01*
X33081Y82043D01*
X35788Y79336D01*
X35808Y79319D01*
X35826Y79298D01*
X35964Y79191D01*
X36099Y79081D01*
X36123Y79068D01*
X36144Y79052D01*
X36301Y78974D01*
X36455Y78892D01*
X36480Y78884D01*
X36504Y78872D01*
X36674Y78827D01*
X36841Y78777D01*
X36867Y78775D01*
X36893Y78768D01*
X37224Y78741D01*
X81026Y78741D01*
X81044Y78743D01*
X81062Y78741D01*
X81244Y78762D01*
X81427Y78781D01*
X81444Y78786D01*
X81461Y78788D01*
X81636Y78845D01*
X81812Y78899D01*
X81827Y78907D01*
X81844Y78913D01*
X82004Y79003D01*
X82166Y79091D01*
X82179Y79102D01*
X82195Y79111D01*
X82334Y79231D01*
X82475Y79348D01*
X82486Y79362D01*
X82500Y79374D01*
X82612Y79519D01*
X82727Y79662D01*
X82735Y79678D01*
X82746Y79692D01*
X82828Y79857D01*
X82913Y80019D01*
X82918Y80036D01*
X82926Y80052D01*
X82973Y80231D01*
X83024Y80406D01*
X83026Y80424D01*
X83030Y80441D01*
X83057Y80772D01*
X83057Y96581D01*
X93919Y107443D01*
X109281Y107443D01*
X120143Y96581D01*
X120143Y81219D01*
X117436Y78512D01*
X117419Y78492D01*
X117398Y78474D01*
X117291Y78336D01*
X117181Y78201D01*
X117168Y78177D01*
X117152Y78156D01*
X117074Y77999D01*
X116992Y77845D01*
X116984Y77820D01*
X116972Y77796D01*
X116927Y77626D01*
X116877Y77459D01*
X116875Y77433D01*
X116868Y77407D01*
X116841Y77076D01*
X116841Y69702D01*
X116842Y69689D01*
X116841Y69676D01*
X116862Y69487D01*
X116881Y69302D01*
X116885Y69289D01*
X116886Y69276D01*
X116944Y69097D01*
X116999Y68917D01*
X117005Y68905D01*
X117009Y68892D01*
X117101Y68728D01*
X117191Y68563D01*
X117199Y68553D01*
X117206Y68541D01*
X117328Y68398D01*
X117448Y68254D01*
X117459Y68245D01*
X117467Y68235D01*
X117616Y68119D01*
X117762Y68001D01*
X117774Y67995D01*
X117784Y67987D01*
X117953Y67902D01*
X118119Y67816D01*
X118132Y67812D01*
X118144Y67806D01*
X118326Y67756D01*
X118506Y67704D01*
X118520Y67703D01*
X118533Y67700D01*
X118721Y67687D01*
X118908Y67671D01*
X118921Y67673D01*
X118934Y67672D01*
X119122Y67697D01*
X119307Y67718D01*
X119320Y67722D01*
X119333Y67724D01*
X119649Y67826D01*
X123312Y69343D01*
X130688Y69343D01*
X137504Y66520D01*
X138264Y65760D01*
X138278Y65748D01*
X138289Y65735D01*
X138432Y65622D01*
X138575Y65505D01*
X138591Y65496D01*
X138605Y65485D01*
X138769Y65402D01*
X138931Y65316D01*
X138948Y65311D01*
X138964Y65303D01*
X139141Y65253D01*
X139317Y65201D01*
X139335Y65200D01*
X139352Y65195D01*
X139535Y65181D01*
X139718Y65165D01*
X139736Y65167D01*
X139753Y65165D01*
X139936Y65188D01*
X140118Y65208D01*
X140135Y65214D01*
X140153Y65216D01*
X140327Y65274D01*
X140502Y65330D01*
X140518Y65338D01*
X140534Y65344D01*
X140693Y65435D01*
X140854Y65525D01*
X140868Y65536D01*
X140883Y65545D01*
X141136Y65760D01*
X144719Y69343D01*
X147828Y69343D01*
X147846Y69345D01*
X147864Y69343D01*
X148046Y69364D01*
X148229Y69383D01*
X148246Y69388D01*
X148263Y69390D01*
X148438Y69447D01*
X148614Y69501D01*
X148629Y69509D01*
X148646Y69515D01*
X148806Y69605D01*
X148968Y69693D01*
X148981Y69704D01*
X148997Y69713D01*
X149136Y69833D01*
X149277Y69950D01*
X149288Y69964D01*
X149302Y69976D01*
X149414Y70121D01*
X149529Y70264D01*
X149537Y70280D01*
X149548Y70294D01*
X149630Y70459D01*
X149715Y70621D01*
X149720Y70638D01*
X149728Y70654D01*
X149775Y70833D01*
X149826Y71008D01*
X149828Y71026D01*
X149832Y71043D01*
X149859Y71374D01*
X149859Y77076D01*
X149857Y77103D01*
X149859Y77129D01*
X149837Y77303D01*
X149819Y77477D01*
X149812Y77502D01*
X149808Y77529D01*
X149753Y77694D01*
X149701Y77862D01*
X149688Y77885D01*
X149680Y77910D01*
X149593Y78062D01*
X149509Y78216D01*
X149492Y78236D01*
X149479Y78259D01*
X149264Y78512D01*
X146557Y81219D01*
X146557Y96581D01*
X157419Y107443D01*
X172781Y107443D01*
X181190Y99034D01*
X181197Y99028D01*
X181202Y99021D01*
X181352Y98901D01*
X181501Y98779D01*
X181509Y98774D01*
X181516Y98769D01*
X181686Y98680D01*
X181857Y98590D01*
X181866Y98587D01*
X181873Y98583D01*
X182058Y98530D01*
X182243Y98475D01*
X182252Y98474D01*
X182260Y98472D01*
X182452Y98456D01*
X182644Y98439D01*
X182653Y98440D01*
X182662Y98439D01*
X182851Y98461D01*
X183044Y98482D01*
X183053Y98485D01*
X183061Y98486D01*
X183243Y98545D01*
X183428Y98604D01*
X183436Y98608D01*
X183444Y98611D01*
X183613Y98706D01*
X183780Y98799D01*
X183787Y98804D01*
X183795Y98809D01*
X183941Y98935D01*
X184087Y99059D01*
X184093Y99066D01*
X184100Y99072D01*
X184217Y99223D01*
X184337Y99375D01*
X184341Y99383D01*
X184346Y99390D01*
X184432Y99562D01*
X184519Y99734D01*
X184522Y99742D01*
X184526Y99750D01*
X184576Y99937D01*
X184627Y100122D01*
X184628Y100131D01*
X184630Y100139D01*
X184657Y100470D01*
X184657Y100970D01*
X187501Y107836D01*
X187508Y107846D01*
X187619Y107981D01*
X187632Y108005D01*
X187648Y108026D01*
X187726Y108182D01*
X187808Y108337D01*
X187816Y108362D01*
X187828Y108387D01*
X187873Y108556D01*
X187923Y108723D01*
X187925Y108749D01*
X187932Y108775D01*
X187959Y109106D01*
X187959Y127158D01*
X187957Y127184D01*
X187959Y127211D01*
X187937Y127385D01*
X187919Y127558D01*
X187912Y127584D01*
X187908Y127610D01*
X187853Y127776D01*
X187801Y127943D01*
X187788Y127967D01*
X187780Y127992D01*
X187693Y128144D01*
X187609Y128297D01*
X187592Y128318D01*
X187579Y128341D01*
X187364Y128594D01*
X184149Y131809D01*
X184149Y147591D01*
X195309Y158751D01*
X211091Y158751D01*
X214306Y155536D01*
X214327Y155519D01*
X214344Y155498D01*
X214482Y155391D01*
X214618Y155281D01*
X214641Y155268D01*
X214662Y155252D01*
X214819Y155174D01*
X214973Y155092D01*
X214999Y155084D01*
X215023Y155072D01*
X215192Y155027D01*
X215359Y154977D01*
X215386Y154975D01*
X215412Y154968D01*
X215742Y154941D01*
X229476Y154941D01*
X229503Y154943D01*
X229529Y154941D01*
X229703Y154963D01*
X229877Y154981D01*
X229902Y154988D01*
X229929Y154992D01*
X230094Y155047D01*
X230262Y155099D01*
X230285Y155112D01*
X230310Y155120D01*
X230462Y155207D01*
X230616Y155291D01*
X230636Y155308D01*
X230659Y155321D01*
X230912Y155536D01*
X233619Y158243D01*
X248981Y158243D01*
X251688Y155536D01*
X251708Y155519D01*
X251726Y155498D01*
X251864Y155391D01*
X251999Y155281D01*
X252023Y155268D01*
X252044Y155252D01*
X252201Y155174D01*
X252355Y155092D01*
X252380Y155084D01*
X252405Y155072D01*
X252574Y155027D01*
X252741Y154977D01*
X252767Y154975D01*
X252793Y154968D01*
X253124Y154941D01*
X266858Y154941D01*
X266884Y154943D01*
X266911Y154941D01*
X267085Y154963D01*
X267258Y154981D01*
X267284Y154988D01*
X267310Y154992D01*
X267476Y155047D01*
X267643Y155099D01*
X267667Y155112D01*
X267692Y155120D01*
X267844Y155207D01*
X267997Y155291D01*
X268018Y155308D01*
X268041Y155321D01*
X268294Y155536D01*
X271509Y158751D01*
X287291Y158751D01*
X298451Y147591D01*
X298451Y131809D01*
X287291Y120649D01*
X271509Y120649D01*
X268294Y123864D01*
X268273Y123881D01*
X268256Y123902D01*
X268118Y124009D01*
X267982Y124119D01*
X267959Y124132D01*
X267938Y124148D01*
X267781Y124226D01*
X267627Y124308D01*
X267601Y124316D01*
X267577Y124328D01*
X267408Y124373D01*
X267241Y124423D01*
X267214Y124425D01*
X267188Y124432D01*
X266858Y124459D01*
X253124Y124459D01*
X253097Y124457D01*
X253071Y124459D01*
X252897Y124437D01*
X252723Y124419D01*
X252698Y124412D01*
X252671Y124408D01*
X252506Y124353D01*
X252338Y124301D01*
X252315Y124288D01*
X252290Y124280D01*
X252138Y124193D01*
X251984Y124109D01*
X251964Y124092D01*
X251941Y124079D01*
X251688Y123864D01*
X248981Y121157D01*
X233619Y121157D01*
X230912Y123864D01*
X230892Y123881D01*
X230874Y123902D01*
X230736Y124009D01*
X230601Y124119D01*
X230577Y124132D01*
X230556Y124148D01*
X230399Y124226D01*
X230245Y124308D01*
X230220Y124316D01*
X230195Y124328D01*
X230026Y124373D01*
X229859Y124423D01*
X229833Y124425D01*
X229807Y124432D01*
X229476Y124459D01*
X220472Y124459D01*
X220454Y124457D01*
X220436Y124459D01*
X220254Y124438D01*
X220071Y124419D01*
X220054Y124414D01*
X220037Y124412D01*
X219862Y124355D01*
X219686Y124301D01*
X219671Y124293D01*
X219654Y124287D01*
X219494Y124197D01*
X219332Y124109D01*
X219319Y124098D01*
X219303Y124089D01*
X219164Y123969D01*
X219023Y123852D01*
X219012Y123838D01*
X218998Y123826D01*
X218886Y123681D01*
X218771Y123538D01*
X218763Y123522D01*
X218752Y123508D01*
X218670Y123343D01*
X218585Y123181D01*
X218580Y123164D01*
X218572Y123148D01*
X218525Y122969D01*
X218474Y122794D01*
X218472Y122776D01*
X218468Y122759D01*
X218441Y122428D01*
X218441Y116184D01*
X218442Y116171D01*
X218441Y116158D01*
X218462Y115972D01*
X218481Y115784D01*
X218485Y115771D01*
X218486Y115758D01*
X218544Y115579D01*
X218599Y115399D01*
X218605Y115387D01*
X218609Y115374D01*
X218701Y115210D01*
X218791Y115045D01*
X218799Y115035D01*
X218806Y115023D01*
X218928Y114880D01*
X219048Y114736D01*
X219059Y114727D01*
X219067Y114717D01*
X219216Y114601D01*
X219362Y114483D01*
X219374Y114477D01*
X219384Y114469D01*
X219553Y114384D01*
X219719Y114298D01*
X219732Y114294D01*
X219744Y114288D01*
X219926Y114238D01*
X220106Y114186D01*
X220120Y114185D01*
X220133Y114182D01*
X220321Y114169D01*
X220508Y114153D01*
X220521Y114155D01*
X220534Y114154D01*
X220722Y114179D01*
X220907Y114200D01*
X220920Y114204D01*
X220933Y114206D01*
X221249Y114308D01*
X224912Y115825D01*
X232288Y115825D01*
X239104Y113002D01*
X239864Y112242D01*
X239878Y112230D01*
X239889Y112217D01*
X240033Y112103D01*
X240175Y111987D01*
X240191Y111978D01*
X240205Y111967D01*
X240369Y111884D01*
X240531Y111798D01*
X240548Y111793D01*
X240564Y111785D01*
X240741Y111736D01*
X240917Y111683D01*
X240935Y111682D01*
X240952Y111677D01*
X241135Y111663D01*
X241318Y111647D01*
X241336Y111649D01*
X241353Y111647D01*
X241535Y111670D01*
X241718Y111690D01*
X241735Y111696D01*
X241753Y111698D01*
X241926Y111756D01*
X242102Y111812D01*
X242118Y111820D01*
X242134Y111826D01*
X242294Y111918D01*
X242454Y112007D01*
X242468Y112018D01*
X242483Y112027D01*
X242736Y112242D01*
X243496Y113002D01*
X250312Y115825D01*
X257688Y115825D01*
X264504Y113002D01*
X269720Y107786D01*
X272543Y100970D01*
X272543Y92752D01*
X272545Y92726D01*
X272543Y92699D01*
X272565Y92525D01*
X272583Y92352D01*
X272590Y92326D01*
X272594Y92300D01*
X272649Y92134D01*
X272701Y91967D01*
X272714Y91943D01*
X272722Y91918D01*
X272809Y91766D01*
X272893Y91613D01*
X272910Y91592D01*
X272923Y91569D01*
X273138Y91316D01*
X281308Y83146D01*
X281329Y83129D01*
X281346Y83108D01*
X281484Y83001D01*
X281619Y82891D01*
X281643Y82878D01*
X281664Y82862D01*
X281821Y82784D01*
X281975Y82702D01*
X282001Y82694D01*
X282025Y82682D01*
X282194Y82637D01*
X282361Y82587D01*
X282388Y82585D01*
X282414Y82578D01*
X282744Y82551D01*
X287291Y82551D01*
X290506Y79336D01*
X290527Y79319D01*
X290544Y79298D01*
X290682Y79191D01*
X290818Y79081D01*
X290841Y79068D01*
X290862Y79052D01*
X291019Y78974D01*
X291173Y78892D01*
X291199Y78884D01*
X291223Y78872D01*
X291392Y78827D01*
X291559Y78777D01*
X291586Y78775D01*
X291612Y78768D01*
X291942Y78741D01*
X304958Y78741D01*
X304984Y78743D01*
X305011Y78741D01*
X305185Y78763D01*
X305358Y78781D01*
X305384Y78788D01*
X305410Y78792D01*
X305576Y78847D01*
X305743Y78899D01*
X305767Y78912D01*
X305792Y78920D01*
X305944Y79007D01*
X306097Y79091D01*
X306118Y79108D01*
X306141Y79121D01*
X306394Y79336D01*
X309609Y82551D01*
X325391Y82551D01*
X328606Y79336D01*
X328627Y79319D01*
X328644Y79298D01*
X328782Y79191D01*
X328918Y79081D01*
X328941Y79068D01*
X328962Y79052D01*
X329119Y78974D01*
X329273Y78892D01*
X329299Y78884D01*
X329323Y78872D01*
X329492Y78827D01*
X329659Y78777D01*
X329686Y78775D01*
X329712Y78768D01*
X330042Y78741D01*
X356476Y78741D01*
X356503Y78743D01*
X356529Y78741D01*
X356703Y78763D01*
X356877Y78781D01*
X356902Y78788D01*
X356929Y78792D01*
X357094Y78847D01*
X357262Y78899D01*
X357285Y78912D01*
X357310Y78920D01*
X357462Y79007D01*
X357616Y79091D01*
X357636Y79108D01*
X357659Y79121D01*
X357912Y79336D01*
X360619Y82043D01*
X375981Y82043D01*
X386843Y71181D01*
X386843Y55819D01*
X375981Y44957D01*
X360619Y44957D01*
X357912Y47664D01*
X357892Y47681D01*
X357874Y47702D01*
X357736Y47809D01*
X357601Y47919D01*
X357577Y47932D01*
X357556Y47948D01*
X357399Y48026D01*
X357245Y48108D01*
X357220Y48116D01*
X357195Y48128D01*
X357026Y48173D01*
X356859Y48223D01*
X356833Y48225D01*
X356807Y48232D01*
X356476Y48259D01*
X330042Y48259D01*
X330016Y48257D01*
X329989Y48259D01*
X329815Y48237D01*
X329642Y48219D01*
X329616Y48212D01*
X329590Y48208D01*
X329424Y48153D01*
X329257Y48101D01*
X329233Y48088D01*
X329208Y48080D01*
X329056Y47993D01*
X328903Y47909D01*
X328882Y47892D01*
X328859Y47879D01*
X328606Y47664D01*
X325391Y44449D01*
X309609Y44449D01*
X306394Y47664D01*
X306373Y47681D01*
X306356Y47702D01*
X306218Y47809D01*
X306082Y47919D01*
X306059Y47932D01*
X306038Y47948D01*
X305881Y48026D01*
X305727Y48108D01*
X305701Y48116D01*
X305677Y48128D01*
X305508Y48173D01*
X305341Y48223D01*
X305314Y48225D01*
X305288Y48232D01*
X304958Y48259D01*
X291942Y48259D01*
X291916Y48257D01*
X291889Y48259D01*
X291715Y48237D01*
X291542Y48219D01*
X291516Y48212D01*
X291490Y48208D01*
X291324Y48153D01*
X291157Y48101D01*
X291133Y48088D01*
X291108Y48080D01*
X290956Y47993D01*
X290803Y47909D01*
X290782Y47892D01*
X290759Y47879D01*
X290506Y47664D01*
X287291Y44449D01*
X271509Y44449D01*
X260349Y55609D01*
X260349Y60037D01*
X260348Y60051D01*
X260349Y60064D01*
X260328Y60251D01*
X260309Y60438D01*
X260305Y60451D01*
X260304Y60464D01*
X260246Y60643D01*
X260191Y60823D01*
X260185Y60835D01*
X260181Y60848D01*
X260089Y61012D01*
X259999Y61177D01*
X259991Y61187D01*
X259984Y61199D01*
X259861Y61343D01*
X259742Y61486D01*
X259731Y61495D01*
X259722Y61505D01*
X259574Y61621D01*
X259428Y61739D01*
X259416Y61745D01*
X259405Y61753D01*
X259236Y61838D01*
X259071Y61924D01*
X259058Y61928D01*
X259046Y61934D01*
X258863Y61984D01*
X258684Y62036D01*
X258670Y62037D01*
X258657Y62040D01*
X258470Y62053D01*
X258282Y62068D01*
X258269Y62067D01*
X258256Y62068D01*
X258070Y62043D01*
X257883Y62022D01*
X257870Y62017D01*
X257856Y62016D01*
X257731Y61975D01*
X250312Y61975D01*
X246649Y63492D01*
X246636Y63496D01*
X246625Y63502D01*
X246444Y63554D01*
X246264Y63609D01*
X246251Y63610D01*
X246238Y63614D01*
X246050Y63629D01*
X245863Y63647D01*
X245850Y63645D01*
X245836Y63647D01*
X245649Y63625D01*
X245463Y63605D01*
X245450Y63601D01*
X245437Y63600D01*
X245257Y63541D01*
X245078Y63485D01*
X245067Y63479D01*
X245054Y63475D01*
X244889Y63382D01*
X244725Y63292D01*
X244715Y63283D01*
X244703Y63277D01*
X244561Y63154D01*
X244417Y63033D01*
X244409Y63022D01*
X244398Y63014D01*
X244283Y62865D01*
X244166Y62718D01*
X244160Y62706D01*
X244152Y62696D01*
X244068Y62527D01*
X243982Y62360D01*
X243978Y62347D01*
X243972Y62335D01*
X243923Y62152D01*
X243872Y61973D01*
X243871Y61959D01*
X243868Y61946D01*
X243841Y61616D01*
X243841Y29972D01*
X243843Y29954D01*
X243841Y29936D01*
X243862Y29754D01*
X243881Y29571D01*
X243886Y29554D01*
X243888Y29537D01*
X243945Y29362D01*
X243999Y29186D01*
X244007Y29171D01*
X244013Y29154D01*
X244103Y28994D01*
X244191Y28832D01*
X244202Y28819D01*
X244211Y28803D01*
X244331Y28664D01*
X244448Y28523D01*
X244462Y28512D01*
X244474Y28498D01*
X244619Y28386D01*
X244762Y28271D01*
X244778Y28263D01*
X244792Y28252D01*
X244957Y28170D01*
X245119Y28085D01*
X245136Y28080D01*
X245152Y28072D01*
X245331Y28025D01*
X245506Y27974D01*
X245524Y27972D01*
X245541Y27968D01*
X245872Y27941D01*
X280276Y27941D01*
X280303Y27943D01*
X280329Y27941D01*
X280503Y27963D01*
X280677Y27981D01*
X280702Y27988D01*
X280729Y27992D01*
X280895Y28048D01*
X281062Y28099D01*
X281085Y28112D01*
X281110Y28120D01*
X281262Y28207D01*
X281416Y28291D01*
X281436Y28308D01*
X281459Y28321D01*
X281712Y28536D01*
X284419Y31243D01*
X299781Y31243D01*
X302488Y28536D01*
X302508Y28519D01*
X302526Y28498D01*
X302664Y28391D01*
X302799Y28281D01*
X302823Y28268D01*
X302844Y28252D01*
X303001Y28174D01*
X303155Y28092D01*
X303180Y28084D01*
X303205Y28072D01*
X303374Y28027D01*
X303541Y27977D01*
X303567Y27975D01*
X303593Y27968D01*
X303924Y27941D01*
X343776Y27941D01*
X343803Y27943D01*
X343829Y27941D01*
X344003Y27963D01*
X344177Y27981D01*
X344202Y27988D01*
X344229Y27992D01*
X344394Y28047D01*
X344561Y28099D01*
X344585Y28112D01*
X344610Y28120D01*
X344762Y28207D01*
X344916Y28291D01*
X344936Y28308D01*
X344959Y28321D01*
X345056Y28403D01*
X351627Y31125D01*
X351628Y31125D01*
X351912Y31243D01*
X359288Y31243D01*
X366104Y28420D01*
X371320Y23204D01*
X371544Y22663D01*
X371550Y22651D01*
X371554Y22638D01*
X371645Y22474D01*
X371734Y22308D01*
X371743Y22298D01*
X371749Y22286D01*
X371871Y22143D01*
X371990Y21998D01*
X372001Y21989D01*
X372009Y21979D01*
X372157Y21863D01*
X372303Y21744D01*
X372315Y21738D01*
X372325Y21729D01*
X372493Y21644D01*
X372660Y21557D01*
X372672Y21553D01*
X372684Y21547D01*
X372866Y21496D01*
X373046Y21444D01*
X373059Y21443D01*
X373072Y21439D01*
X373261Y21425D01*
X373447Y21409D01*
X373460Y21411D01*
X373474Y21410D01*
X373661Y21433D01*
X373847Y21454D01*
X373860Y21458D01*
X373873Y21460D01*
X374051Y21520D01*
X374230Y21577D01*
X374242Y21584D01*
X374255Y21588D01*
X374418Y21682D01*
X374582Y21774D01*
X374592Y21782D01*
X374604Y21789D01*
X374857Y22004D01*
X376476Y23623D01*
X378969Y23623D01*
X378969Y12700D01*
X378969Y1777D01*
X376476Y1777D01*
X374857Y3396D01*
X374846Y3405D01*
X374838Y3415D01*
X374691Y3532D01*
X374545Y3651D01*
X374533Y3658D01*
X374523Y3666D01*
X374356Y3752D01*
X374190Y3840D01*
X374177Y3844D01*
X374165Y3850D01*
X373983Y3901D01*
X373804Y3955D01*
X373790Y3956D01*
X373777Y3960D01*
X373590Y3974D01*
X373403Y3991D01*
X373389Y3990D01*
X373376Y3991D01*
X373190Y3968D01*
X373002Y3948D01*
X372990Y3944D01*
X372976Y3942D01*
X372798Y3883D01*
X372619Y3826D01*
X372607Y3820D01*
X372594Y3815D01*
X372431Y3722D01*
X372266Y3631D01*
X372256Y3623D01*
X372244Y3616D01*
X372103Y3493D01*
X371959Y3371D01*
X371951Y3360D01*
X371941Y3352D01*
X371826Y3202D01*
X371710Y3055D01*
X371704Y3043D01*
X371695Y3032D01*
X371544Y2737D01*
X371320Y2196D01*
X366104Y-3020D01*
X364408Y-3722D01*
X359504Y-5754D01*
X359288Y-5843D01*
X351912Y-5843D01*
X345046Y-2999D01*
X345036Y-2991D01*
X344901Y-2881D01*
X344877Y-2868D01*
X344856Y-2852D01*
X344699Y-2774D01*
X344545Y-2692D01*
X344520Y-2684D01*
X344495Y-2672D01*
X344326Y-2627D01*
X344159Y-2577D01*
X344133Y-2575D01*
X344107Y-2568D01*
X343776Y-2541D01*
X303924Y-2541D01*
X303897Y-2543D01*
X303871Y-2541D01*
X303697Y-2563D01*
X303523Y-2581D01*
X303498Y-2588D01*
X303471Y-2592D01*
X303306Y-2647D01*
X303138Y-2699D01*
X303115Y-2712D01*
X303090Y-2720D01*
X302938Y-2807D01*
X302784Y-2891D01*
X302764Y-2908D01*
X302741Y-2921D01*
X302488Y-3136D01*
X299781Y-5843D01*
X284419Y-5843D01*
G37*
%LPD*%
%LPC*%
G36*
X459739Y761D02*
X459739Y761D01*
X459739Y10161D01*
X478283Y10161D01*
X478243Y9904D01*
X477662Y8117D01*
X476809Y6443D01*
X475704Y4922D01*
X474376Y3594D01*
X472855Y2489D01*
X471181Y1636D01*
X469394Y1055D01*
X467538Y761D01*
X459739Y761D01*
G37*
%LPD*%
%LPC*%
G36*
X446862Y761D02*
X446862Y761D01*
X445006Y1055D01*
X443219Y1636D01*
X441545Y2489D01*
X440024Y3594D01*
X438696Y4922D01*
X437591Y6443D01*
X436738Y8117D01*
X436157Y9904D01*
X436117Y10161D01*
X454661Y10161D01*
X454661Y761D01*
X446862Y761D01*
G37*
%LPD*%
%LPC*%
G36*
X-98142Y1777D02*
X-98142Y1777D01*
X-99840Y2046D01*
X-101475Y2578D01*
X-103007Y3358D01*
X-104398Y4369D01*
X-105613Y5584D01*
X-106624Y6975D01*
X-107404Y8507D01*
X-107936Y10142D01*
X-108019Y10669D01*
X-90931Y10669D01*
X-90931Y1777D01*
X-98142Y1777D01*
G37*
%LPD*%
%LPC*%
G36*
X-86869Y1777D02*
X-86869Y1777D01*
X-86869Y10669D01*
X-69781Y10669D01*
X-69864Y10142D01*
X-70396Y8507D01*
X-71176Y6975D01*
X-72187Y5584D01*
X-73402Y4369D01*
X-74793Y3358D01*
X-76325Y2578D01*
X-77960Y2046D01*
X-79658Y1777D01*
X-86869Y1777D01*
G37*
%LPD*%
%LPC*%
G36*
X319785Y141985D02*
X319785Y141985D01*
X319785Y151131D01*
X322235Y151131D01*
X328931Y144435D01*
X328931Y141985D01*
X319785Y141985D01*
G37*
%LPD*%
%LPC*%
G36*
X65785Y141985D02*
X65785Y141985D01*
X65785Y151131D01*
X68235Y151131D01*
X74931Y144435D01*
X74931Y141985D01*
X65785Y141985D01*
G37*
%LPD*%
%LPC*%
G36*
X306069Y141985D02*
X306069Y141985D01*
X306069Y144435D01*
X312765Y151131D01*
X315215Y151131D01*
X315215Y141985D01*
X306069Y141985D01*
G37*
%LPD*%
%LPC*%
G36*
X52069Y141985D02*
X52069Y141985D01*
X52069Y144435D01*
X58765Y151131D01*
X61215Y151131D01*
X61215Y141985D01*
X52069Y141985D01*
G37*
%LPD*%
%LPC*%
G36*
X319785Y128269D02*
X319785Y128269D01*
X319785Y137415D01*
X328931Y137415D01*
X328931Y134965D01*
X322235Y128269D01*
X319785Y128269D01*
G37*
%LPD*%
%LPC*%
G36*
X65785Y128269D02*
X65785Y128269D01*
X65785Y137415D01*
X74931Y137415D01*
X74931Y134965D01*
X68235Y128269D01*
X65785Y128269D01*
G37*
%LPD*%
%LPC*%
G36*
X312765Y128269D02*
X312765Y128269D01*
X306069Y134965D01*
X306069Y137415D01*
X315215Y137415D01*
X315215Y128269D01*
X312765Y128269D01*
G37*
%LPD*%
%LPC*%
G36*
X58765Y128269D02*
X58765Y128269D01*
X52069Y134965D01*
X52069Y137415D01*
X61215Y137415D01*
X61215Y128269D01*
X58765Y128269D01*
G37*
%LPD*%
%LPC*%
G36*
X383031Y14731D02*
X383031Y14731D01*
X383031Y23623D01*
X385524Y23623D01*
X391923Y17224D01*
X391923Y14731D01*
X383031Y14731D01*
G37*
%LPD*%
%LPC*%
G36*
X167131Y14731D02*
X167131Y14731D01*
X167131Y23623D01*
X169624Y23623D01*
X176023Y17224D01*
X176023Y14731D01*
X167131Y14731D01*
G37*
%LPD*%
%LPC*%
G36*
X332231Y179577D02*
X332231Y179577D01*
X332231Y188469D01*
X341123Y188469D01*
X341123Y185976D01*
X334724Y179577D01*
X332231Y179577D01*
G37*
%LPD*%
%LPC*%
G36*
X370331Y179577D02*
X370331Y179577D01*
X370331Y188469D01*
X379223Y188469D01*
X379223Y185976D01*
X372824Y179577D01*
X370331Y179577D01*
G37*
%LPD*%
%LPC*%
G36*
X154177Y14731D02*
X154177Y14731D01*
X154177Y17224D01*
X160576Y23623D01*
X163069Y23623D01*
X163069Y14731D01*
X154177Y14731D01*
G37*
%LPD*%
%LPC*%
G36*
X383031Y1777D02*
X383031Y1777D01*
X383031Y10669D01*
X391923Y10669D01*
X391923Y8176D01*
X385524Y1777D01*
X383031Y1777D01*
G37*
%LPD*%
%LPC*%
G36*
X167131Y1777D02*
X167131Y1777D01*
X167131Y10669D01*
X176023Y10669D01*
X176023Y8176D01*
X169624Y1777D01*
X167131Y1777D01*
G37*
%LPD*%
%LPC*%
G36*
X363776Y179577D02*
X363776Y179577D01*
X357377Y185976D01*
X357377Y188469D01*
X366269Y188469D01*
X366269Y179577D01*
X363776Y179577D01*
G37*
%LPD*%
%LPC*%
G36*
X325676Y179577D02*
X325676Y179577D01*
X319277Y185976D01*
X319277Y188469D01*
X328169Y188469D01*
X328169Y179577D01*
X325676Y179577D01*
G37*
%LPD*%
%LPC*%
G36*
X160576Y1777D02*
X160576Y1777D01*
X154177Y8176D01*
X154177Y10669D01*
X163069Y10669D01*
X163069Y1777D01*
X160576Y1777D01*
G37*
%LPD*%
D10*
X63500Y215900D03*
X63500Y139700D03*
D11*
X-25400Y190500D03*
D12*
X-50800Y190500D03*
D13*
X25400Y190500D03*
X25400Y63500D03*
D14*
X101600Y88900D03*
X101600Y215900D03*
D11*
X152400Y50800D03*
D12*
X127000Y50800D03*
D11*
X165100Y12700D03*
X292100Y12700D03*
D14*
X165100Y88900D03*
X165100Y215900D03*
D11*
X381000Y12700D03*
D12*
X355600Y12700D03*
D10*
X203200Y215900D03*
X203200Y139700D03*
X279400Y139700D03*
X279400Y63500D03*
D15*
X317500Y63500D03*
X317500Y139700D03*
D13*
X330200Y190500D03*
D12*
X330200Y215900D03*
D14*
X368300Y63500D03*
X368300Y190500D03*
D16*
X0Y71882D02*
X0Y55118D01*
X-50800Y55118D02*
X-50800Y71882D01*
X-25400Y71882D02*
X-25400Y55118D01*
X203200Y80518D02*
X203200Y97282D01*
X254000Y97282D02*
X254000Y80518D01*
X228600Y80518D02*
X228600Y97282D01*
X-80518Y190500D02*
X-97282Y190500D01*
X-97282Y165100D02*
X-80518Y165100D01*
X-80518Y139700D02*
X-97282Y139700D01*
X-97282Y114300D02*
X-80518Y114300D01*
X-80518Y88900D02*
X-97282Y88900D01*
X-97282Y63500D02*
X-80518Y63500D01*
X-80518Y38100D02*
X-97282Y38100D01*
X-97282Y12700D02*
X-80518Y12700D01*
D17*
X447802Y12700D02*
X466598Y12700D01*
X466598Y38100D02*
X447802Y38100D01*
X447802Y63500D02*
X466598Y63500D01*
X466598Y88900D02*
X447802Y88900D01*
X447802Y114300D02*
X466598Y114300D01*
X466598Y139700D02*
X447802Y139700D01*
X447802Y165100D02*
X466598Y165100D01*
X466598Y190500D02*
X447802Y190500D01*
D13*
X241300Y215900D03*
X241300Y139700D03*
X406400Y215900D03*
X406400Y139700D03*
D18*
X330200Y177800D02*
X330200Y190500D01*
X-50800Y63500D02*
X-50800Y-12700D01*
X165100Y-12700D01*
X381000Y-12700D01*
X165100Y-12700D02*
X165100Y12700D01*
X63500Y139700D02*
X63500Y165100D01*
X76200Y177800D01*
X330200Y177800D01*
X-88900Y12700D02*
X-88900Y0D01*
X-76200Y-12700D01*
X-50800Y-12700D01*
X444500Y-12700D02*
X457200Y0D01*
X457200Y12700D01*
X444500Y-12700D02*
X381000Y-12700D01*
X381000Y12700D01*
X393700Y25400D01*
X393700Y88900D01*
X342900Y139700D01*
X330200Y139700D01*
X317500Y139700D01*
X330200Y190500D02*
X368300Y190500D01*
X330200Y177800D02*
X330200Y139700D01*
X-50800Y152400D02*
X-88900Y114300D01*
X-50800Y152400D02*
X-50800Y190500D01*
X-25400Y190500D02*
X25400Y190500D01*
X-25400Y190500D02*
X-25400Y63500D01*
X101600Y50800D02*
X127000Y50800D01*
X101600Y63500D02*
X101600Y88900D01*
X101600Y63500D02*
X101600Y50800D01*
X25400Y63500D02*
X0Y63500D01*
X25400Y63500D02*
X101600Y63500D01*
X292100Y12700D02*
X355600Y12700D01*
X165100Y63500D02*
X165100Y88900D01*
X165100Y63500D02*
X152400Y50800D01*
X228600Y12700D02*
X292100Y12700D01*
X228600Y12700D02*
X215900Y12700D01*
X165100Y63500D01*
X228600Y88900D02*
X228600Y12700D01*
X203200Y88900D02*
X203200Y139700D01*
X241300Y139700D02*
X279400Y139700D01*
X241300Y139700D02*
X203200Y139700D01*
X279400Y63500D02*
X317500Y63500D01*
X368300Y63500D01*
X279400Y63500D02*
X254000Y88900D01*
X406400Y139700D02*
X457200Y139700D01*
X101600Y215900D02*
X63500Y215900D01*
X101600Y215900D02*
X165100Y215900D01*
X203200Y215900D01*
X330200Y215900D02*
X406400Y215900D01*
X330200Y215900D02*
X241300Y215900D01*
X203200Y215900D01*
X63500Y215900D02*
X-63500Y215900D01*
X-88900Y190500D01*
X406400Y215900D02*
X431800Y215900D01*
X457200Y190500D01*
M02*
