M48
;GenerationSoftware,Autodesk,EAGLE,9.0.0*%
;CreationDate,2019-08-08T19:18:26Z*%
FMAT,2
ICI,OFF
METRIC,TZ,000.000
T3C0.813
T2C0.914
T1C1.016
%
G90
M71
T1
X45720Y13970
X45720Y1270
X45720Y3810
X45720Y6350
X45720Y8890
X45720Y11430
X45720Y16510
X45720Y19050
T2
X6350Y21590
X6350Y13970
X31750Y6350
X31750Y13970
X20320Y21590
X20320Y13970
X27940Y13970
X27940Y6350
T3
X16510Y1270
X29210Y1270
X16510Y8890
X16510Y21590
X38100Y1270
X35560Y1270
X33020Y19050
X33020Y21590
X36830Y6350
X36830Y19050
X0Y6350
X-5080Y6350
X-2540Y6350
X20320Y8890
X25400Y8890
X22860Y8890
X-8890Y19050
X-8890Y16510
X-8890Y13970
X-8890Y11430
X-8890Y8890
X-8890Y6350
X-8890Y3810
X-2540Y19050
X-5080Y19050
X2540Y19050
X2540Y6350
X10160Y8890
X10160Y21590
X-8890Y1270
X15240Y5080
X12700Y5080
X24130Y21590
X24130Y13970
X40640Y21590
X40640Y13970
M30