G04 EAGLE Gerber X2 export*
G04 #@! %TF.Part,Single*
G04 #@! %TF.FileFunction,Legend,Top,1*
G04 #@! %TF.FilePolarity,Positive*
G04 #@! %TF.GenerationSoftware,Autodesk,EAGLE,9.0.0*
G04 #@! %TF.CreationDate,2019-08-08T19:18:26Z*
G75*
%MOMM*%
%FSLAX34Y34*%
%LPD*%
%AMOC8*
5,1,8,0,0,1.08239X$1,22.5*%
G01*
%ADD10C,0.152400*%
%ADD11C,0.406400*%
%ADD12C,0.127000*%
%ADD13R,0.609600X0.863600*%
%ADD14R,0.863600X0.609600*%
%ADD15C,0.050800*%
%ADD16C,0.660400*%
%ADD17R,0.762000X0.660400*%
%ADD18R,0.660400X0.660400*%


D10*
X78740Y129540D02*
X78740Y226060D01*
X76200Y228600D02*
X50800Y228600D01*
X48260Y226060D02*
X48260Y129540D01*
X50800Y127000D02*
X76200Y127000D01*
X76300Y127002D01*
X76399Y127008D01*
X76499Y127018D01*
X76597Y127031D01*
X76696Y127049D01*
X76793Y127070D01*
X76889Y127095D01*
X76985Y127124D01*
X77079Y127157D01*
X77172Y127193D01*
X77263Y127233D01*
X77353Y127277D01*
X77441Y127324D01*
X77527Y127374D01*
X77611Y127428D01*
X77693Y127485D01*
X77772Y127545D01*
X77850Y127609D01*
X77924Y127675D01*
X77996Y127744D01*
X78065Y127816D01*
X78131Y127890D01*
X78195Y127968D01*
X78255Y128047D01*
X78312Y128129D01*
X78366Y128213D01*
X78416Y128299D01*
X78463Y128387D01*
X78507Y128477D01*
X78547Y128568D01*
X78583Y128661D01*
X78616Y128755D01*
X78645Y128851D01*
X78670Y128947D01*
X78691Y129044D01*
X78709Y129143D01*
X78722Y129241D01*
X78732Y129341D01*
X78738Y129440D01*
X78740Y129540D01*
X50800Y127000D02*
X50700Y127002D01*
X50601Y127008D01*
X50501Y127018D01*
X50403Y127031D01*
X50304Y127049D01*
X50207Y127070D01*
X50111Y127095D01*
X50015Y127124D01*
X49921Y127157D01*
X49828Y127193D01*
X49737Y127233D01*
X49647Y127277D01*
X49559Y127324D01*
X49473Y127374D01*
X49389Y127428D01*
X49307Y127485D01*
X49228Y127545D01*
X49150Y127609D01*
X49076Y127675D01*
X49004Y127744D01*
X48935Y127816D01*
X48869Y127890D01*
X48805Y127968D01*
X48745Y128047D01*
X48688Y128129D01*
X48634Y128213D01*
X48584Y128299D01*
X48537Y128387D01*
X48493Y128477D01*
X48453Y128568D01*
X48417Y128661D01*
X48384Y128755D01*
X48355Y128851D01*
X48330Y128947D01*
X48309Y129044D01*
X48291Y129143D01*
X48278Y129241D01*
X48268Y129341D01*
X48262Y129440D01*
X48260Y129540D01*
X48260Y226060D02*
X48262Y226160D01*
X48268Y226259D01*
X48278Y226359D01*
X48291Y226457D01*
X48309Y226556D01*
X48330Y226653D01*
X48355Y226749D01*
X48384Y226845D01*
X48417Y226939D01*
X48453Y227032D01*
X48493Y227123D01*
X48537Y227213D01*
X48584Y227301D01*
X48634Y227387D01*
X48688Y227471D01*
X48745Y227553D01*
X48805Y227632D01*
X48869Y227710D01*
X48935Y227784D01*
X49004Y227856D01*
X49076Y227925D01*
X49150Y227991D01*
X49228Y228055D01*
X49307Y228115D01*
X49389Y228172D01*
X49473Y228226D01*
X49559Y228276D01*
X49647Y228323D01*
X49737Y228367D01*
X49828Y228407D01*
X49921Y228443D01*
X50015Y228476D01*
X50111Y228505D01*
X50207Y228530D01*
X50304Y228551D01*
X50403Y228569D01*
X50501Y228582D01*
X50601Y228592D01*
X50700Y228598D01*
X50800Y228600D01*
X76200Y228600D02*
X76300Y228598D01*
X76399Y228592D01*
X76499Y228582D01*
X76597Y228569D01*
X76696Y228551D01*
X76793Y228530D01*
X76889Y228505D01*
X76985Y228476D01*
X77079Y228443D01*
X77172Y228407D01*
X77263Y228367D01*
X77353Y228323D01*
X77441Y228276D01*
X77527Y228226D01*
X77611Y228172D01*
X77693Y228115D01*
X77772Y228055D01*
X77850Y227991D01*
X77924Y227925D01*
X77996Y227856D01*
X78065Y227784D01*
X78131Y227710D01*
X78195Y227632D01*
X78255Y227553D01*
X78312Y227471D01*
X78366Y227387D01*
X78416Y227301D01*
X78463Y227213D01*
X78507Y227123D01*
X78547Y227032D01*
X78583Y226939D01*
X78616Y226845D01*
X78645Y226749D01*
X78670Y226653D01*
X78691Y226556D01*
X78709Y226457D01*
X78722Y226359D01*
X78732Y226259D01*
X78738Y226160D01*
X78740Y226060D01*
X63500Y172720D02*
X63500Y152400D01*
X63500Y182880D02*
X63500Y203200D01*
D11*
X63500Y182880D02*
X72390Y182880D01*
X63500Y182880D02*
X54610Y182880D01*
X63500Y172720D02*
X72390Y172720D01*
X63500Y172720D02*
X54610Y172720D01*
D12*
X46995Y236855D02*
X46995Y248295D01*
X41275Y242575D01*
X48902Y242575D01*
X52969Y248295D02*
X60595Y248295D01*
X60595Y246388D01*
X52969Y238762D01*
X52969Y236855D01*
X64663Y238762D02*
X64663Y246388D01*
X66570Y248295D01*
X70383Y248295D01*
X72289Y246388D01*
X72289Y238762D01*
X70383Y236855D01*
X66570Y236855D01*
X64663Y238762D01*
X72289Y246388D01*
X76357Y244482D02*
X76357Y233042D01*
X76357Y244482D02*
X82077Y244482D01*
X83983Y242575D01*
X83983Y238762D01*
X82077Y236855D01*
X76357Y236855D01*
D10*
X-60960Y190500D02*
X-68580Y190500D01*
X-64770Y186690D02*
X-64770Y194310D01*
X-72390Y190500D02*
X-72380Y191342D01*
X-72349Y192183D01*
X-72297Y193023D01*
X-72225Y193861D01*
X-72132Y194697D01*
X-72019Y195531D01*
X-71885Y196362D01*
X-71731Y197190D01*
X-71557Y198013D01*
X-71362Y198832D01*
X-71148Y199646D01*
X-70913Y200454D01*
X-70659Y201256D01*
X-70386Y202052D01*
X-70092Y202841D01*
X-69780Y203622D01*
X-69448Y204396D01*
X-69098Y205161D01*
X-68729Y205917D01*
X-68341Y206664D01*
X-67935Y207401D01*
X-67512Y208129D01*
X-67070Y208845D01*
X-66611Y209551D01*
X-66135Y210244D01*
X-65642Y210927D01*
X-65132Y211596D01*
X-64607Y212253D01*
X-64065Y212897D01*
X-63507Y213528D01*
X-62934Y214144D01*
X-62347Y214747D01*
X-61744Y215334D01*
X-61128Y215907D01*
X-60497Y216465D01*
X-59853Y217007D01*
X-59196Y217532D01*
X-58527Y218042D01*
X-57844Y218535D01*
X-57151Y219011D01*
X-56445Y219470D01*
X-55729Y219912D01*
X-55001Y220335D01*
X-54264Y220741D01*
X-53517Y221129D01*
X-52761Y221498D01*
X-51996Y221848D01*
X-51222Y222180D01*
X-50441Y222492D01*
X-49652Y222786D01*
X-48856Y223059D01*
X-48054Y223313D01*
X-47246Y223548D01*
X-46432Y223762D01*
X-45613Y223957D01*
X-44790Y224131D01*
X-43962Y224285D01*
X-43131Y224419D01*
X-42297Y224532D01*
X-41461Y224625D01*
X-40623Y224697D01*
X-39783Y224749D01*
X-38942Y224780D01*
X-38100Y224790D01*
X-37258Y224780D01*
X-36417Y224749D01*
X-35577Y224697D01*
X-34739Y224625D01*
X-33903Y224532D01*
X-33069Y224419D01*
X-32238Y224285D01*
X-31410Y224131D01*
X-30587Y223957D01*
X-29768Y223762D01*
X-28954Y223548D01*
X-28146Y223313D01*
X-27344Y223059D01*
X-26548Y222786D01*
X-25759Y222492D01*
X-24978Y222180D01*
X-24204Y221848D01*
X-23439Y221498D01*
X-22683Y221129D01*
X-21936Y220741D01*
X-21199Y220335D01*
X-20471Y219912D01*
X-19755Y219470D01*
X-19049Y219011D01*
X-18356Y218535D01*
X-17673Y218042D01*
X-17004Y217532D01*
X-16347Y217007D01*
X-15703Y216465D01*
X-15072Y215907D01*
X-14456Y215334D01*
X-13853Y214747D01*
X-13266Y214144D01*
X-12693Y213528D01*
X-12135Y212897D01*
X-11593Y212253D01*
X-11068Y211596D01*
X-10558Y210927D01*
X-10065Y210244D01*
X-9589Y209551D01*
X-9130Y208845D01*
X-8688Y208129D01*
X-8265Y207401D01*
X-7859Y206664D01*
X-7471Y205917D01*
X-7102Y205161D01*
X-6752Y204396D01*
X-6420Y203622D01*
X-6108Y202841D01*
X-5814Y202052D01*
X-5541Y201256D01*
X-5287Y200454D01*
X-5052Y199646D01*
X-4838Y198832D01*
X-4643Y198013D01*
X-4469Y197190D01*
X-4315Y196362D01*
X-4181Y195531D01*
X-4068Y194697D01*
X-3975Y193861D01*
X-3903Y193023D01*
X-3851Y192183D01*
X-3820Y191342D01*
X-3810Y190500D01*
X-3820Y189658D01*
X-3851Y188817D01*
X-3903Y187977D01*
X-3975Y187139D01*
X-4068Y186303D01*
X-4181Y185469D01*
X-4315Y184638D01*
X-4469Y183810D01*
X-4643Y182987D01*
X-4838Y182168D01*
X-5052Y181354D01*
X-5287Y180546D01*
X-5541Y179744D01*
X-5814Y178948D01*
X-6108Y178159D01*
X-6420Y177378D01*
X-6752Y176604D01*
X-7102Y175839D01*
X-7471Y175083D01*
X-7859Y174336D01*
X-8265Y173599D01*
X-8688Y172871D01*
X-9130Y172155D01*
X-9589Y171449D01*
X-10065Y170756D01*
X-10558Y170073D01*
X-11068Y169404D01*
X-11593Y168747D01*
X-12135Y168103D01*
X-12693Y167472D01*
X-13266Y166856D01*
X-13853Y166253D01*
X-14456Y165666D01*
X-15072Y165093D01*
X-15703Y164535D01*
X-16347Y163993D01*
X-17004Y163468D01*
X-17673Y162958D01*
X-18356Y162465D01*
X-19049Y161989D01*
X-19755Y161530D01*
X-20471Y161088D01*
X-21199Y160665D01*
X-21936Y160259D01*
X-22683Y159871D01*
X-23439Y159502D01*
X-24204Y159152D01*
X-24978Y158820D01*
X-25759Y158508D01*
X-26548Y158214D01*
X-27344Y157941D01*
X-28146Y157687D01*
X-28954Y157452D01*
X-29768Y157238D01*
X-30587Y157043D01*
X-31410Y156869D01*
X-32238Y156715D01*
X-33069Y156581D01*
X-33903Y156468D01*
X-34739Y156375D01*
X-35577Y156303D01*
X-36417Y156251D01*
X-37258Y156220D01*
X-38100Y156210D01*
X-38942Y156220D01*
X-39783Y156251D01*
X-40623Y156303D01*
X-41461Y156375D01*
X-42297Y156468D01*
X-43131Y156581D01*
X-43962Y156715D01*
X-44790Y156869D01*
X-45613Y157043D01*
X-46432Y157238D01*
X-47246Y157452D01*
X-48054Y157687D01*
X-48856Y157941D01*
X-49652Y158214D01*
X-50441Y158508D01*
X-51222Y158820D01*
X-51996Y159152D01*
X-52761Y159502D01*
X-53517Y159871D01*
X-54264Y160259D01*
X-55001Y160665D01*
X-55729Y161088D01*
X-56445Y161530D01*
X-57151Y161989D01*
X-57844Y162465D01*
X-58527Y162958D01*
X-59196Y163468D01*
X-59853Y163993D01*
X-60497Y164535D01*
X-61128Y165093D01*
X-61744Y165666D01*
X-62347Y166253D01*
X-62934Y166856D01*
X-63507Y167472D01*
X-64065Y168103D01*
X-64607Y168747D01*
X-65132Y169404D01*
X-65642Y170073D01*
X-66135Y170756D01*
X-66611Y171449D01*
X-67070Y172155D01*
X-67512Y172871D01*
X-67935Y173599D01*
X-68341Y174336D01*
X-68729Y175083D01*
X-69098Y175839D01*
X-69448Y176604D01*
X-69780Y177378D01*
X-70092Y178159D01*
X-70386Y178948D01*
X-70659Y179744D01*
X-70913Y180546D01*
X-71148Y181354D01*
X-71362Y182168D01*
X-71557Y182987D01*
X-71731Y183810D01*
X-71885Y184638D01*
X-72019Y185469D01*
X-72132Y186303D01*
X-72225Y187139D01*
X-72297Y187977D01*
X-72349Y188817D01*
X-72380Y189658D01*
X-72390Y190500D01*
D12*
X-6985Y167012D02*
X-3172Y170825D01*
X-3172Y159385D01*
X-6985Y159385D02*
X642Y159385D01*
X4709Y161292D02*
X4709Y167012D01*
X4709Y161292D02*
X6616Y159385D01*
X12335Y159385D01*
X12335Y167012D01*
D10*
X38100Y170180D02*
X38200Y170178D01*
X38299Y170172D01*
X38399Y170162D01*
X38497Y170149D01*
X38596Y170131D01*
X38693Y170110D01*
X38789Y170085D01*
X38885Y170056D01*
X38979Y170023D01*
X39072Y169987D01*
X39163Y169947D01*
X39253Y169903D01*
X39341Y169856D01*
X39427Y169806D01*
X39511Y169752D01*
X39593Y169695D01*
X39672Y169635D01*
X39750Y169571D01*
X39824Y169505D01*
X39896Y169436D01*
X39965Y169364D01*
X40031Y169290D01*
X40095Y169212D01*
X40155Y169133D01*
X40212Y169051D01*
X40266Y168967D01*
X40316Y168881D01*
X40363Y168793D01*
X40407Y168703D01*
X40447Y168612D01*
X40483Y168519D01*
X40516Y168425D01*
X40545Y168329D01*
X40570Y168233D01*
X40591Y168136D01*
X40609Y168037D01*
X40622Y167939D01*
X40632Y167839D01*
X40638Y167740D01*
X40640Y167640D01*
X12700Y170180D02*
X12600Y170178D01*
X12501Y170172D01*
X12401Y170162D01*
X12303Y170149D01*
X12204Y170131D01*
X12107Y170110D01*
X12011Y170085D01*
X11915Y170056D01*
X11821Y170023D01*
X11728Y169987D01*
X11637Y169947D01*
X11547Y169903D01*
X11459Y169856D01*
X11373Y169806D01*
X11289Y169752D01*
X11207Y169695D01*
X11128Y169635D01*
X11050Y169571D01*
X10976Y169505D01*
X10904Y169436D01*
X10835Y169364D01*
X10769Y169290D01*
X10705Y169212D01*
X10645Y169133D01*
X10588Y169051D01*
X10534Y168967D01*
X10484Y168881D01*
X10437Y168793D01*
X10393Y168703D01*
X10353Y168612D01*
X10317Y168519D01*
X10284Y168425D01*
X10255Y168329D01*
X10230Y168233D01*
X10209Y168136D01*
X10191Y168037D01*
X10178Y167939D01*
X10168Y167839D01*
X10162Y167740D01*
X10160Y167640D01*
X10160Y86360D02*
X10162Y86260D01*
X10168Y86161D01*
X10178Y86061D01*
X10191Y85963D01*
X10209Y85864D01*
X10230Y85767D01*
X10255Y85671D01*
X10284Y85575D01*
X10317Y85481D01*
X10353Y85388D01*
X10393Y85297D01*
X10437Y85207D01*
X10484Y85119D01*
X10534Y85033D01*
X10588Y84949D01*
X10645Y84867D01*
X10705Y84788D01*
X10769Y84710D01*
X10835Y84636D01*
X10904Y84564D01*
X10976Y84495D01*
X11050Y84429D01*
X11128Y84365D01*
X11207Y84305D01*
X11289Y84248D01*
X11373Y84194D01*
X11459Y84144D01*
X11547Y84097D01*
X11637Y84053D01*
X11728Y84013D01*
X11821Y83977D01*
X11915Y83944D01*
X12011Y83915D01*
X12107Y83890D01*
X12204Y83869D01*
X12303Y83851D01*
X12401Y83838D01*
X12501Y83828D01*
X12600Y83822D01*
X12700Y83820D01*
X38100Y83820D02*
X38200Y83822D01*
X38299Y83828D01*
X38399Y83838D01*
X38497Y83851D01*
X38596Y83869D01*
X38693Y83890D01*
X38789Y83915D01*
X38885Y83944D01*
X38979Y83977D01*
X39072Y84013D01*
X39163Y84053D01*
X39253Y84097D01*
X39341Y84144D01*
X39427Y84194D01*
X39511Y84248D01*
X39593Y84305D01*
X39672Y84365D01*
X39750Y84429D01*
X39824Y84495D01*
X39896Y84564D01*
X39965Y84636D01*
X40031Y84710D01*
X40095Y84788D01*
X40155Y84867D01*
X40212Y84949D01*
X40266Y85033D01*
X40316Y85119D01*
X40363Y85207D01*
X40407Y85297D01*
X40447Y85388D01*
X40483Y85481D01*
X40516Y85575D01*
X40545Y85671D01*
X40570Y85767D01*
X40591Y85864D01*
X40609Y85963D01*
X40622Y86061D01*
X40632Y86161D01*
X40638Y86260D01*
X40640Y86360D01*
X38100Y170180D02*
X12700Y170180D01*
X40640Y167640D02*
X40640Y161290D01*
X39370Y160020D01*
X10160Y161290D02*
X10160Y167640D01*
X10160Y161290D02*
X11430Y160020D01*
X39370Y93980D02*
X40640Y92710D01*
X39370Y93980D02*
X39370Y160020D01*
X11430Y93980D02*
X10160Y92710D01*
X11430Y93980D02*
X11430Y160020D01*
X40640Y92710D02*
X40640Y86360D01*
X10160Y86360D02*
X10160Y92710D01*
X12700Y83820D02*
X38100Y83820D01*
D12*
X21074Y130065D02*
X19167Y133879D01*
X21074Y130065D02*
X24887Y126252D01*
X28700Y126252D01*
X30607Y128159D01*
X30607Y131972D01*
X28700Y133879D01*
X26794Y133879D01*
X24887Y131972D01*
X24887Y126252D01*
X21074Y137946D02*
X19167Y139853D01*
X19167Y143666D01*
X21074Y145573D01*
X22981Y145573D01*
X24887Y143666D01*
X26794Y145573D01*
X28700Y145573D01*
X30607Y143666D01*
X30607Y139853D01*
X28700Y137946D01*
X26794Y137946D01*
X24887Y139853D01*
X22981Y137946D01*
X21074Y137946D01*
X24887Y139853D02*
X24887Y143666D01*
X30607Y149640D02*
X19167Y149640D01*
X26794Y149640D02*
X30607Y155360D01*
X26794Y149640D02*
X22981Y155360D01*
D13*
X25400Y79502D03*
X25400Y174498D03*
D10*
X86360Y111760D02*
X86362Y111660D01*
X86368Y111561D01*
X86378Y111461D01*
X86391Y111363D01*
X86409Y111264D01*
X86430Y111167D01*
X86455Y111071D01*
X86484Y110975D01*
X86517Y110881D01*
X86553Y110788D01*
X86593Y110697D01*
X86637Y110607D01*
X86684Y110519D01*
X86734Y110433D01*
X86788Y110349D01*
X86845Y110267D01*
X86905Y110188D01*
X86969Y110110D01*
X87035Y110036D01*
X87104Y109964D01*
X87176Y109895D01*
X87250Y109829D01*
X87328Y109765D01*
X87407Y109705D01*
X87489Y109648D01*
X87573Y109594D01*
X87659Y109544D01*
X87747Y109497D01*
X87837Y109453D01*
X87928Y109413D01*
X88021Y109377D01*
X88115Y109344D01*
X88211Y109315D01*
X88307Y109290D01*
X88404Y109269D01*
X88503Y109251D01*
X88601Y109238D01*
X88701Y109228D01*
X88800Y109222D01*
X88900Y109220D01*
X114300Y109220D02*
X114400Y109222D01*
X114499Y109228D01*
X114599Y109238D01*
X114697Y109251D01*
X114796Y109269D01*
X114893Y109290D01*
X114989Y109315D01*
X115085Y109344D01*
X115179Y109377D01*
X115272Y109413D01*
X115363Y109453D01*
X115453Y109497D01*
X115541Y109544D01*
X115627Y109594D01*
X115711Y109648D01*
X115793Y109705D01*
X115872Y109765D01*
X115950Y109829D01*
X116024Y109895D01*
X116096Y109964D01*
X116165Y110036D01*
X116231Y110110D01*
X116295Y110188D01*
X116355Y110267D01*
X116412Y110349D01*
X116466Y110433D01*
X116516Y110519D01*
X116563Y110607D01*
X116607Y110697D01*
X116647Y110788D01*
X116683Y110881D01*
X116716Y110975D01*
X116745Y111071D01*
X116770Y111167D01*
X116791Y111264D01*
X116809Y111363D01*
X116822Y111461D01*
X116832Y111561D01*
X116838Y111660D01*
X116840Y111760D01*
X116840Y193040D02*
X116838Y193140D01*
X116832Y193239D01*
X116822Y193339D01*
X116809Y193437D01*
X116791Y193536D01*
X116770Y193633D01*
X116745Y193729D01*
X116716Y193825D01*
X116683Y193919D01*
X116647Y194012D01*
X116607Y194103D01*
X116563Y194193D01*
X116516Y194281D01*
X116466Y194367D01*
X116412Y194451D01*
X116355Y194533D01*
X116295Y194612D01*
X116231Y194690D01*
X116165Y194764D01*
X116096Y194836D01*
X116024Y194905D01*
X115950Y194971D01*
X115872Y195035D01*
X115793Y195095D01*
X115711Y195152D01*
X115627Y195206D01*
X115541Y195256D01*
X115453Y195303D01*
X115363Y195347D01*
X115272Y195387D01*
X115179Y195423D01*
X115085Y195456D01*
X114989Y195485D01*
X114893Y195510D01*
X114796Y195531D01*
X114697Y195549D01*
X114599Y195562D01*
X114499Y195572D01*
X114400Y195578D01*
X114300Y195580D01*
X88900Y195580D02*
X88800Y195578D01*
X88701Y195572D01*
X88601Y195562D01*
X88503Y195549D01*
X88404Y195531D01*
X88307Y195510D01*
X88211Y195485D01*
X88115Y195456D01*
X88021Y195423D01*
X87928Y195387D01*
X87837Y195347D01*
X87747Y195303D01*
X87659Y195256D01*
X87573Y195206D01*
X87489Y195152D01*
X87407Y195095D01*
X87328Y195035D01*
X87250Y194971D01*
X87176Y194905D01*
X87104Y194836D01*
X87035Y194764D01*
X86969Y194690D01*
X86905Y194612D01*
X86845Y194533D01*
X86788Y194451D01*
X86734Y194367D01*
X86684Y194281D01*
X86637Y194193D01*
X86593Y194103D01*
X86553Y194012D01*
X86517Y193919D01*
X86484Y193825D01*
X86455Y193729D01*
X86430Y193633D01*
X86409Y193536D01*
X86391Y193437D01*
X86378Y193339D01*
X86368Y193239D01*
X86362Y193140D01*
X86360Y193040D01*
X88900Y109220D02*
X114300Y109220D01*
X86360Y111760D02*
X86360Y118110D01*
X87630Y119380D01*
X116840Y118110D02*
X116840Y111760D01*
X116840Y118110D02*
X115570Y119380D01*
X87630Y185420D02*
X86360Y186690D01*
X87630Y185420D02*
X87630Y119380D01*
X115570Y185420D02*
X116840Y186690D01*
X115570Y185420D02*
X115570Y119380D01*
X86360Y186690D02*
X86360Y193040D01*
X116840Y193040D02*
X116840Y186690D01*
X114300Y195580D02*
X88900Y195580D01*
D12*
X96383Y123192D02*
X98290Y121285D01*
X96383Y123192D02*
X96383Y127005D01*
X98290Y128912D01*
X100197Y128912D01*
X102103Y127005D01*
X102103Y125098D01*
X102103Y127005D02*
X104010Y128912D01*
X105916Y128912D01*
X107823Y127005D01*
X107823Y123192D01*
X105916Y121285D01*
X111636Y132979D02*
X107823Y136792D01*
X105916Y136792D01*
X105916Y134886D01*
X107823Y134886D01*
X107823Y136792D01*
X98290Y140775D02*
X96383Y142682D01*
X96383Y146495D01*
X98290Y148401D01*
X100197Y148401D01*
X102103Y146495D01*
X102103Y144588D01*
X102103Y146495D02*
X104010Y148401D01*
X105916Y148401D01*
X107823Y146495D01*
X107823Y142682D01*
X105916Y140775D01*
X107823Y152469D02*
X96383Y152469D01*
X104010Y152469D02*
X107823Y158189D01*
X104010Y152469D02*
X100197Y158189D01*
D13*
X101600Y199898D03*
X101600Y104902D03*
D10*
X109220Y50800D02*
X116840Y50800D01*
X113030Y46990D02*
X113030Y54610D01*
X105410Y50800D02*
X105420Y51642D01*
X105451Y52483D01*
X105503Y53323D01*
X105575Y54161D01*
X105668Y54997D01*
X105781Y55831D01*
X105915Y56662D01*
X106069Y57490D01*
X106243Y58313D01*
X106438Y59132D01*
X106652Y59946D01*
X106887Y60754D01*
X107141Y61556D01*
X107414Y62352D01*
X107708Y63141D01*
X108020Y63922D01*
X108352Y64696D01*
X108702Y65461D01*
X109071Y66217D01*
X109459Y66964D01*
X109865Y67701D01*
X110288Y68429D01*
X110730Y69145D01*
X111189Y69851D01*
X111665Y70544D01*
X112158Y71227D01*
X112668Y71896D01*
X113193Y72553D01*
X113735Y73197D01*
X114293Y73828D01*
X114866Y74444D01*
X115453Y75047D01*
X116056Y75634D01*
X116672Y76207D01*
X117303Y76765D01*
X117947Y77307D01*
X118604Y77832D01*
X119273Y78342D01*
X119956Y78835D01*
X120649Y79311D01*
X121355Y79770D01*
X122071Y80212D01*
X122799Y80635D01*
X123536Y81041D01*
X124283Y81429D01*
X125039Y81798D01*
X125804Y82148D01*
X126578Y82480D01*
X127359Y82792D01*
X128148Y83086D01*
X128944Y83359D01*
X129746Y83613D01*
X130554Y83848D01*
X131368Y84062D01*
X132187Y84257D01*
X133010Y84431D01*
X133838Y84585D01*
X134669Y84719D01*
X135503Y84832D01*
X136339Y84925D01*
X137177Y84997D01*
X138017Y85049D01*
X138858Y85080D01*
X139700Y85090D01*
X140542Y85080D01*
X141383Y85049D01*
X142223Y84997D01*
X143061Y84925D01*
X143897Y84832D01*
X144731Y84719D01*
X145562Y84585D01*
X146390Y84431D01*
X147213Y84257D01*
X148032Y84062D01*
X148846Y83848D01*
X149654Y83613D01*
X150456Y83359D01*
X151252Y83086D01*
X152041Y82792D01*
X152822Y82480D01*
X153596Y82148D01*
X154361Y81798D01*
X155117Y81429D01*
X155864Y81041D01*
X156601Y80635D01*
X157329Y80212D01*
X158045Y79770D01*
X158751Y79311D01*
X159444Y78835D01*
X160127Y78342D01*
X160796Y77832D01*
X161453Y77307D01*
X162097Y76765D01*
X162728Y76207D01*
X163344Y75634D01*
X163947Y75047D01*
X164534Y74444D01*
X165107Y73828D01*
X165665Y73197D01*
X166207Y72553D01*
X166732Y71896D01*
X167242Y71227D01*
X167735Y70544D01*
X168211Y69851D01*
X168670Y69145D01*
X169112Y68429D01*
X169535Y67701D01*
X169941Y66964D01*
X170329Y66217D01*
X170698Y65461D01*
X171048Y64696D01*
X171380Y63922D01*
X171692Y63141D01*
X171986Y62352D01*
X172259Y61556D01*
X172513Y60754D01*
X172748Y59946D01*
X172962Y59132D01*
X173157Y58313D01*
X173331Y57490D01*
X173485Y56662D01*
X173619Y55831D01*
X173732Y54997D01*
X173825Y54161D01*
X173897Y53323D01*
X173949Y52483D01*
X173980Y51642D01*
X173990Y50800D01*
X173980Y49958D01*
X173949Y49117D01*
X173897Y48277D01*
X173825Y47439D01*
X173732Y46603D01*
X173619Y45769D01*
X173485Y44938D01*
X173331Y44110D01*
X173157Y43287D01*
X172962Y42468D01*
X172748Y41654D01*
X172513Y40846D01*
X172259Y40044D01*
X171986Y39248D01*
X171692Y38459D01*
X171380Y37678D01*
X171048Y36904D01*
X170698Y36139D01*
X170329Y35383D01*
X169941Y34636D01*
X169535Y33899D01*
X169112Y33171D01*
X168670Y32455D01*
X168211Y31749D01*
X167735Y31056D01*
X167242Y30373D01*
X166732Y29704D01*
X166207Y29047D01*
X165665Y28403D01*
X165107Y27772D01*
X164534Y27156D01*
X163947Y26553D01*
X163344Y25966D01*
X162728Y25393D01*
X162097Y24835D01*
X161453Y24293D01*
X160796Y23768D01*
X160127Y23258D01*
X159444Y22765D01*
X158751Y22289D01*
X158045Y21830D01*
X157329Y21388D01*
X156601Y20965D01*
X155864Y20559D01*
X155117Y20171D01*
X154361Y19802D01*
X153596Y19452D01*
X152822Y19120D01*
X152041Y18808D01*
X151252Y18514D01*
X150456Y18241D01*
X149654Y17987D01*
X148846Y17752D01*
X148032Y17538D01*
X147213Y17343D01*
X146390Y17169D01*
X145562Y17015D01*
X144731Y16881D01*
X143897Y16768D01*
X143061Y16675D01*
X142223Y16603D01*
X141383Y16551D01*
X140542Y16520D01*
X139700Y16510D01*
X138858Y16520D01*
X138017Y16551D01*
X137177Y16603D01*
X136339Y16675D01*
X135503Y16768D01*
X134669Y16881D01*
X133838Y17015D01*
X133010Y17169D01*
X132187Y17343D01*
X131368Y17538D01*
X130554Y17752D01*
X129746Y17987D01*
X128944Y18241D01*
X128148Y18514D01*
X127359Y18808D01*
X126578Y19120D01*
X125804Y19452D01*
X125039Y19802D01*
X124283Y20171D01*
X123536Y20559D01*
X122799Y20965D01*
X122071Y21388D01*
X121355Y21830D01*
X120649Y22289D01*
X119956Y22765D01*
X119273Y23258D01*
X118604Y23768D01*
X117947Y24293D01*
X117303Y24835D01*
X116672Y25393D01*
X116056Y25966D01*
X115453Y26553D01*
X114866Y27156D01*
X114293Y27772D01*
X113735Y28403D01*
X113193Y29047D01*
X112668Y29704D01*
X112158Y30373D01*
X111665Y31056D01*
X111189Y31749D01*
X110730Y32455D01*
X110288Y33171D01*
X109865Y33899D01*
X109459Y34636D01*
X109071Y35383D01*
X108702Y36139D01*
X108352Y36904D01*
X108020Y37678D01*
X107708Y38459D01*
X107414Y39248D01*
X107141Y40044D01*
X106887Y40846D01*
X106652Y41654D01*
X106438Y42468D01*
X106243Y43287D01*
X106069Y44110D01*
X105915Y44938D01*
X105781Y45769D01*
X105668Y46603D01*
X105575Y47439D01*
X105503Y48277D01*
X105451Y49117D01*
X105420Y49958D01*
X105410Y50800D01*
D12*
X98428Y31125D02*
X94615Y27312D01*
X98428Y31125D02*
X98428Y19685D01*
X94615Y19685D02*
X102242Y19685D01*
X106309Y21592D02*
X106309Y27312D01*
X106309Y21592D02*
X108216Y19685D01*
X113935Y19685D01*
X113935Y27312D01*
D10*
X185420Y25400D02*
X185422Y25500D01*
X185428Y25599D01*
X185438Y25699D01*
X185451Y25797D01*
X185469Y25896D01*
X185490Y25993D01*
X185515Y26089D01*
X185544Y26185D01*
X185577Y26279D01*
X185613Y26372D01*
X185653Y26463D01*
X185697Y26553D01*
X185744Y26641D01*
X185794Y26727D01*
X185848Y26811D01*
X185905Y26893D01*
X185965Y26972D01*
X186029Y27050D01*
X186095Y27124D01*
X186164Y27196D01*
X186236Y27265D01*
X186310Y27331D01*
X186388Y27395D01*
X186467Y27455D01*
X186549Y27512D01*
X186633Y27566D01*
X186719Y27616D01*
X186807Y27663D01*
X186897Y27707D01*
X186988Y27747D01*
X187081Y27783D01*
X187175Y27816D01*
X187271Y27845D01*
X187367Y27870D01*
X187464Y27891D01*
X187563Y27909D01*
X187661Y27922D01*
X187761Y27932D01*
X187860Y27938D01*
X187960Y27940D01*
X185420Y0D02*
X185422Y-100D01*
X185428Y-199D01*
X185438Y-299D01*
X185451Y-397D01*
X185469Y-496D01*
X185490Y-593D01*
X185515Y-689D01*
X185544Y-785D01*
X185577Y-879D01*
X185613Y-972D01*
X185653Y-1063D01*
X185697Y-1153D01*
X185744Y-1241D01*
X185794Y-1327D01*
X185848Y-1411D01*
X185905Y-1493D01*
X185965Y-1572D01*
X186029Y-1650D01*
X186095Y-1724D01*
X186164Y-1796D01*
X186236Y-1865D01*
X186310Y-1931D01*
X186388Y-1995D01*
X186467Y-2055D01*
X186549Y-2112D01*
X186633Y-2166D01*
X186719Y-2216D01*
X186807Y-2263D01*
X186897Y-2307D01*
X186988Y-2347D01*
X187081Y-2383D01*
X187175Y-2416D01*
X187271Y-2445D01*
X187367Y-2470D01*
X187464Y-2491D01*
X187563Y-2509D01*
X187661Y-2522D01*
X187761Y-2532D01*
X187860Y-2538D01*
X187960Y-2540D01*
X269240Y-2540D02*
X269340Y-2538D01*
X269439Y-2532D01*
X269539Y-2522D01*
X269637Y-2509D01*
X269736Y-2491D01*
X269833Y-2470D01*
X269929Y-2445D01*
X270025Y-2416D01*
X270119Y-2383D01*
X270212Y-2347D01*
X270303Y-2307D01*
X270393Y-2263D01*
X270481Y-2216D01*
X270567Y-2166D01*
X270651Y-2112D01*
X270733Y-2055D01*
X270812Y-1995D01*
X270890Y-1931D01*
X270964Y-1865D01*
X271036Y-1796D01*
X271105Y-1724D01*
X271171Y-1650D01*
X271235Y-1572D01*
X271295Y-1493D01*
X271352Y-1411D01*
X271406Y-1327D01*
X271456Y-1241D01*
X271503Y-1153D01*
X271547Y-1063D01*
X271587Y-972D01*
X271623Y-879D01*
X271656Y-785D01*
X271685Y-689D01*
X271710Y-593D01*
X271731Y-496D01*
X271749Y-397D01*
X271762Y-299D01*
X271772Y-199D01*
X271778Y-100D01*
X271780Y0D01*
X271780Y25400D02*
X271778Y25500D01*
X271772Y25599D01*
X271762Y25699D01*
X271749Y25797D01*
X271731Y25896D01*
X271710Y25993D01*
X271685Y26089D01*
X271656Y26185D01*
X271623Y26279D01*
X271587Y26372D01*
X271547Y26463D01*
X271503Y26553D01*
X271456Y26641D01*
X271406Y26727D01*
X271352Y26811D01*
X271295Y26893D01*
X271235Y26972D01*
X271171Y27050D01*
X271105Y27124D01*
X271036Y27196D01*
X270964Y27265D01*
X270890Y27331D01*
X270812Y27395D01*
X270733Y27455D01*
X270651Y27512D01*
X270567Y27566D01*
X270481Y27616D01*
X270393Y27663D01*
X270303Y27707D01*
X270212Y27747D01*
X270119Y27783D01*
X270025Y27816D01*
X269929Y27845D01*
X269833Y27870D01*
X269736Y27891D01*
X269637Y27909D01*
X269539Y27922D01*
X269439Y27932D01*
X269340Y27938D01*
X269240Y27940D01*
X185420Y25400D02*
X185420Y0D01*
X187960Y27940D02*
X194310Y27940D01*
X195580Y26670D01*
X194310Y-2540D02*
X187960Y-2540D01*
X194310Y-2540D02*
X195580Y-1270D01*
X261620Y26670D02*
X262890Y27940D01*
X261620Y26670D02*
X195580Y26670D01*
X261620Y-1270D02*
X262890Y-2540D01*
X261620Y-1270D02*
X195580Y-1270D01*
X262890Y27940D02*
X269240Y27940D01*
X269240Y-2540D02*
X262890Y-2540D01*
X271780Y0D02*
X271780Y25400D01*
D12*
X201298Y17917D02*
X197485Y14104D01*
X201298Y17917D02*
X201298Y6477D01*
X197485Y6477D02*
X205112Y6477D01*
X209179Y8384D02*
X209179Y16010D01*
X211086Y17917D01*
X214899Y17917D01*
X216805Y16010D01*
X216805Y8384D01*
X214899Y6477D01*
X211086Y6477D01*
X209179Y8384D01*
X216805Y16010D01*
X220873Y17917D02*
X220873Y6477D01*
X220873Y10290D02*
X226593Y6477D01*
X220873Y10290D02*
X226593Y14104D01*
D14*
X276098Y12700D03*
X181102Y12700D03*
D10*
X152400Y109220D02*
X152300Y109222D01*
X152201Y109228D01*
X152101Y109238D01*
X152003Y109251D01*
X151904Y109269D01*
X151807Y109290D01*
X151711Y109315D01*
X151615Y109344D01*
X151521Y109377D01*
X151428Y109413D01*
X151337Y109453D01*
X151247Y109497D01*
X151159Y109544D01*
X151073Y109594D01*
X150989Y109648D01*
X150907Y109705D01*
X150828Y109765D01*
X150750Y109829D01*
X150676Y109895D01*
X150604Y109964D01*
X150535Y110036D01*
X150469Y110110D01*
X150405Y110188D01*
X150345Y110267D01*
X150288Y110349D01*
X150234Y110433D01*
X150184Y110519D01*
X150137Y110607D01*
X150093Y110697D01*
X150053Y110788D01*
X150017Y110881D01*
X149984Y110975D01*
X149955Y111071D01*
X149930Y111167D01*
X149909Y111264D01*
X149891Y111363D01*
X149878Y111461D01*
X149868Y111561D01*
X149862Y111660D01*
X149860Y111760D01*
X177800Y109220D02*
X177900Y109222D01*
X177999Y109228D01*
X178099Y109238D01*
X178197Y109251D01*
X178296Y109269D01*
X178393Y109290D01*
X178489Y109315D01*
X178585Y109344D01*
X178679Y109377D01*
X178772Y109413D01*
X178863Y109453D01*
X178953Y109497D01*
X179041Y109544D01*
X179127Y109594D01*
X179211Y109648D01*
X179293Y109705D01*
X179372Y109765D01*
X179450Y109829D01*
X179524Y109895D01*
X179596Y109964D01*
X179665Y110036D01*
X179731Y110110D01*
X179795Y110188D01*
X179855Y110267D01*
X179912Y110349D01*
X179966Y110433D01*
X180016Y110519D01*
X180063Y110607D01*
X180107Y110697D01*
X180147Y110788D01*
X180183Y110881D01*
X180216Y110975D01*
X180245Y111071D01*
X180270Y111167D01*
X180291Y111264D01*
X180309Y111363D01*
X180322Y111461D01*
X180332Y111561D01*
X180338Y111660D01*
X180340Y111760D01*
X180340Y193040D02*
X180338Y193140D01*
X180332Y193239D01*
X180322Y193339D01*
X180309Y193437D01*
X180291Y193536D01*
X180270Y193633D01*
X180245Y193729D01*
X180216Y193825D01*
X180183Y193919D01*
X180147Y194012D01*
X180107Y194103D01*
X180063Y194193D01*
X180016Y194281D01*
X179966Y194367D01*
X179912Y194451D01*
X179855Y194533D01*
X179795Y194612D01*
X179731Y194690D01*
X179665Y194764D01*
X179596Y194836D01*
X179524Y194905D01*
X179450Y194971D01*
X179372Y195035D01*
X179293Y195095D01*
X179211Y195152D01*
X179127Y195206D01*
X179041Y195256D01*
X178953Y195303D01*
X178863Y195347D01*
X178772Y195387D01*
X178679Y195423D01*
X178585Y195456D01*
X178489Y195485D01*
X178393Y195510D01*
X178296Y195531D01*
X178197Y195549D01*
X178099Y195562D01*
X177999Y195572D01*
X177900Y195578D01*
X177800Y195580D01*
X152400Y195580D02*
X152300Y195578D01*
X152201Y195572D01*
X152101Y195562D01*
X152003Y195549D01*
X151904Y195531D01*
X151807Y195510D01*
X151711Y195485D01*
X151615Y195456D01*
X151521Y195423D01*
X151428Y195387D01*
X151337Y195347D01*
X151247Y195303D01*
X151159Y195256D01*
X151073Y195206D01*
X150989Y195152D01*
X150907Y195095D01*
X150828Y195035D01*
X150750Y194971D01*
X150676Y194905D01*
X150604Y194836D01*
X150535Y194764D01*
X150469Y194690D01*
X150405Y194612D01*
X150345Y194533D01*
X150288Y194451D01*
X150234Y194367D01*
X150184Y194281D01*
X150137Y194193D01*
X150093Y194103D01*
X150053Y194012D01*
X150017Y193919D01*
X149984Y193825D01*
X149955Y193729D01*
X149930Y193633D01*
X149909Y193536D01*
X149891Y193437D01*
X149878Y193339D01*
X149868Y193239D01*
X149862Y193140D01*
X149860Y193040D01*
X152400Y109220D02*
X177800Y109220D01*
X149860Y111760D02*
X149860Y118110D01*
X151130Y119380D01*
X180340Y118110D02*
X180340Y111760D01*
X180340Y118110D02*
X179070Y119380D01*
X151130Y185420D02*
X149860Y186690D01*
X151130Y185420D02*
X151130Y119380D01*
X179070Y185420D02*
X180340Y186690D01*
X179070Y185420D02*
X179070Y119380D01*
X149860Y186690D02*
X149860Y193040D01*
X180340Y193040D02*
X180340Y186690D01*
X177800Y195580D02*
X152400Y195580D01*
D12*
X171323Y128912D02*
X171323Y121285D01*
X163697Y128912D01*
X161790Y128912D01*
X159883Y127005D01*
X159883Y123192D01*
X161790Y121285D01*
X159883Y138699D02*
X171323Y138699D01*
X165603Y132979D02*
X159883Y138699D01*
X165603Y140605D02*
X165603Y132979D01*
X171323Y144673D02*
X159883Y144673D01*
X167510Y144673D02*
X171323Y150393D01*
X167510Y144673D02*
X163697Y150393D01*
D13*
X165100Y199898D03*
X165100Y104902D03*
D10*
X337820Y12700D02*
X345440Y12700D01*
X341630Y8890D02*
X341630Y16510D01*
X334010Y12700D02*
X334020Y13542D01*
X334051Y14383D01*
X334103Y15223D01*
X334175Y16061D01*
X334268Y16897D01*
X334381Y17731D01*
X334515Y18562D01*
X334669Y19390D01*
X334843Y20213D01*
X335038Y21032D01*
X335252Y21846D01*
X335487Y22654D01*
X335741Y23456D01*
X336014Y24252D01*
X336308Y25041D01*
X336620Y25822D01*
X336952Y26596D01*
X337302Y27361D01*
X337671Y28117D01*
X338059Y28864D01*
X338465Y29601D01*
X338888Y30329D01*
X339330Y31045D01*
X339789Y31751D01*
X340265Y32444D01*
X340758Y33127D01*
X341268Y33796D01*
X341793Y34453D01*
X342335Y35097D01*
X342893Y35728D01*
X343466Y36344D01*
X344053Y36947D01*
X344656Y37534D01*
X345272Y38107D01*
X345903Y38665D01*
X346547Y39207D01*
X347204Y39732D01*
X347873Y40242D01*
X348556Y40735D01*
X349249Y41211D01*
X349955Y41670D01*
X350671Y42112D01*
X351399Y42535D01*
X352136Y42941D01*
X352883Y43329D01*
X353639Y43698D01*
X354404Y44048D01*
X355178Y44380D01*
X355959Y44692D01*
X356748Y44986D01*
X357544Y45259D01*
X358346Y45513D01*
X359154Y45748D01*
X359968Y45962D01*
X360787Y46157D01*
X361610Y46331D01*
X362438Y46485D01*
X363269Y46619D01*
X364103Y46732D01*
X364939Y46825D01*
X365777Y46897D01*
X366617Y46949D01*
X367458Y46980D01*
X368300Y46990D01*
X369142Y46980D01*
X369983Y46949D01*
X370823Y46897D01*
X371661Y46825D01*
X372497Y46732D01*
X373331Y46619D01*
X374162Y46485D01*
X374990Y46331D01*
X375813Y46157D01*
X376632Y45962D01*
X377446Y45748D01*
X378254Y45513D01*
X379056Y45259D01*
X379852Y44986D01*
X380641Y44692D01*
X381422Y44380D01*
X382196Y44048D01*
X382961Y43698D01*
X383717Y43329D01*
X384464Y42941D01*
X385201Y42535D01*
X385929Y42112D01*
X386645Y41670D01*
X387351Y41211D01*
X388044Y40735D01*
X388727Y40242D01*
X389396Y39732D01*
X390053Y39207D01*
X390697Y38665D01*
X391328Y38107D01*
X391944Y37534D01*
X392547Y36947D01*
X393134Y36344D01*
X393707Y35728D01*
X394265Y35097D01*
X394807Y34453D01*
X395332Y33796D01*
X395842Y33127D01*
X396335Y32444D01*
X396811Y31751D01*
X397270Y31045D01*
X397712Y30329D01*
X398135Y29601D01*
X398541Y28864D01*
X398929Y28117D01*
X399298Y27361D01*
X399648Y26596D01*
X399980Y25822D01*
X400292Y25041D01*
X400586Y24252D01*
X400859Y23456D01*
X401113Y22654D01*
X401348Y21846D01*
X401562Y21032D01*
X401757Y20213D01*
X401931Y19390D01*
X402085Y18562D01*
X402219Y17731D01*
X402332Y16897D01*
X402425Y16061D01*
X402497Y15223D01*
X402549Y14383D01*
X402580Y13542D01*
X402590Y12700D01*
X402580Y11858D01*
X402549Y11017D01*
X402497Y10177D01*
X402425Y9339D01*
X402332Y8503D01*
X402219Y7669D01*
X402085Y6838D01*
X401931Y6010D01*
X401757Y5187D01*
X401562Y4368D01*
X401348Y3554D01*
X401113Y2746D01*
X400859Y1944D01*
X400586Y1148D01*
X400292Y359D01*
X399980Y-422D01*
X399648Y-1196D01*
X399298Y-1961D01*
X398929Y-2717D01*
X398541Y-3464D01*
X398135Y-4201D01*
X397712Y-4929D01*
X397270Y-5645D01*
X396811Y-6351D01*
X396335Y-7044D01*
X395842Y-7727D01*
X395332Y-8396D01*
X394807Y-9053D01*
X394265Y-9697D01*
X393707Y-10328D01*
X393134Y-10944D01*
X392547Y-11547D01*
X391944Y-12134D01*
X391328Y-12707D01*
X390697Y-13265D01*
X390053Y-13807D01*
X389396Y-14332D01*
X388727Y-14842D01*
X388044Y-15335D01*
X387351Y-15811D01*
X386645Y-16270D01*
X385929Y-16712D01*
X385201Y-17135D01*
X384464Y-17541D01*
X383717Y-17929D01*
X382961Y-18298D01*
X382196Y-18648D01*
X381422Y-18980D01*
X380641Y-19292D01*
X379852Y-19586D01*
X379056Y-19859D01*
X378254Y-20113D01*
X377446Y-20348D01*
X376632Y-20562D01*
X375813Y-20757D01*
X374990Y-20931D01*
X374162Y-21085D01*
X373331Y-21219D01*
X372497Y-21332D01*
X371661Y-21425D01*
X370823Y-21497D01*
X369983Y-21549D01*
X369142Y-21580D01*
X368300Y-21590D01*
X367458Y-21580D01*
X366617Y-21549D01*
X365777Y-21497D01*
X364939Y-21425D01*
X364103Y-21332D01*
X363269Y-21219D01*
X362438Y-21085D01*
X361610Y-20931D01*
X360787Y-20757D01*
X359968Y-20562D01*
X359154Y-20348D01*
X358346Y-20113D01*
X357544Y-19859D01*
X356748Y-19586D01*
X355959Y-19292D01*
X355178Y-18980D01*
X354404Y-18648D01*
X353639Y-18298D01*
X352883Y-17929D01*
X352136Y-17541D01*
X351399Y-17135D01*
X350671Y-16712D01*
X349955Y-16270D01*
X349249Y-15811D01*
X348556Y-15335D01*
X347873Y-14842D01*
X347204Y-14332D01*
X346547Y-13807D01*
X345903Y-13265D01*
X345272Y-12707D01*
X344656Y-12134D01*
X344053Y-11547D01*
X343466Y-10944D01*
X342893Y-10328D01*
X342335Y-9697D01*
X341793Y-9053D01*
X341268Y-8396D01*
X340758Y-7727D01*
X340265Y-7044D01*
X339789Y-6351D01*
X339330Y-5645D01*
X338888Y-4929D01*
X338465Y-4201D01*
X338059Y-3464D01*
X337671Y-2717D01*
X337302Y-1961D01*
X336952Y-1196D01*
X336620Y-422D01*
X336308Y359D01*
X336014Y1148D01*
X335741Y1944D01*
X335487Y2746D01*
X335252Y3554D01*
X335038Y4368D01*
X334843Y5187D01*
X334669Y6010D01*
X334515Y6838D01*
X334381Y7669D01*
X334268Y8503D01*
X334175Y9339D01*
X334103Y10177D01*
X334051Y11017D01*
X334020Y11858D01*
X334010Y12700D01*
D12*
X399415Y-10789D02*
X403228Y-6975D01*
X403228Y-18415D01*
X399415Y-18415D02*
X407042Y-18415D01*
X411109Y-16508D02*
X411109Y-10789D01*
X411109Y-16508D02*
X413016Y-18415D01*
X418735Y-18415D01*
X418735Y-10789D01*
D10*
X218440Y129540D02*
X218440Y226060D01*
X215900Y228600D02*
X190500Y228600D01*
X187960Y226060D02*
X187960Y129540D01*
X190500Y127000D02*
X215900Y127000D01*
X216000Y127002D01*
X216099Y127008D01*
X216199Y127018D01*
X216297Y127031D01*
X216396Y127049D01*
X216493Y127070D01*
X216589Y127095D01*
X216685Y127124D01*
X216779Y127157D01*
X216872Y127193D01*
X216963Y127233D01*
X217053Y127277D01*
X217141Y127324D01*
X217227Y127374D01*
X217311Y127428D01*
X217393Y127485D01*
X217472Y127545D01*
X217550Y127609D01*
X217624Y127675D01*
X217696Y127744D01*
X217765Y127816D01*
X217831Y127890D01*
X217895Y127968D01*
X217955Y128047D01*
X218012Y128129D01*
X218066Y128213D01*
X218116Y128299D01*
X218163Y128387D01*
X218207Y128477D01*
X218247Y128568D01*
X218283Y128661D01*
X218316Y128755D01*
X218345Y128851D01*
X218370Y128947D01*
X218391Y129044D01*
X218409Y129143D01*
X218422Y129241D01*
X218432Y129341D01*
X218438Y129440D01*
X218440Y129540D01*
X190500Y127000D02*
X190400Y127002D01*
X190301Y127008D01*
X190201Y127018D01*
X190103Y127031D01*
X190004Y127049D01*
X189907Y127070D01*
X189811Y127095D01*
X189715Y127124D01*
X189621Y127157D01*
X189528Y127193D01*
X189437Y127233D01*
X189347Y127277D01*
X189259Y127324D01*
X189173Y127374D01*
X189089Y127428D01*
X189007Y127485D01*
X188928Y127545D01*
X188850Y127609D01*
X188776Y127675D01*
X188704Y127744D01*
X188635Y127816D01*
X188569Y127890D01*
X188505Y127968D01*
X188445Y128047D01*
X188388Y128129D01*
X188334Y128213D01*
X188284Y128299D01*
X188237Y128387D01*
X188193Y128477D01*
X188153Y128568D01*
X188117Y128661D01*
X188084Y128755D01*
X188055Y128851D01*
X188030Y128947D01*
X188009Y129044D01*
X187991Y129143D01*
X187978Y129241D01*
X187968Y129341D01*
X187962Y129440D01*
X187960Y129540D01*
X187960Y226060D02*
X187962Y226160D01*
X187968Y226259D01*
X187978Y226359D01*
X187991Y226457D01*
X188009Y226556D01*
X188030Y226653D01*
X188055Y226749D01*
X188084Y226845D01*
X188117Y226939D01*
X188153Y227032D01*
X188193Y227123D01*
X188237Y227213D01*
X188284Y227301D01*
X188334Y227387D01*
X188388Y227471D01*
X188445Y227553D01*
X188505Y227632D01*
X188569Y227710D01*
X188635Y227784D01*
X188704Y227856D01*
X188776Y227925D01*
X188850Y227991D01*
X188928Y228055D01*
X189007Y228115D01*
X189089Y228172D01*
X189173Y228226D01*
X189259Y228276D01*
X189347Y228323D01*
X189437Y228367D01*
X189528Y228407D01*
X189621Y228443D01*
X189715Y228476D01*
X189811Y228505D01*
X189907Y228530D01*
X190004Y228551D01*
X190103Y228569D01*
X190201Y228582D01*
X190301Y228592D01*
X190400Y228598D01*
X190500Y228600D01*
X215900Y228600D02*
X216000Y228598D01*
X216099Y228592D01*
X216199Y228582D01*
X216297Y228569D01*
X216396Y228551D01*
X216493Y228530D01*
X216589Y228505D01*
X216685Y228476D01*
X216779Y228443D01*
X216872Y228407D01*
X216963Y228367D01*
X217053Y228323D01*
X217141Y228276D01*
X217227Y228226D01*
X217311Y228172D01*
X217393Y228115D01*
X217472Y228055D01*
X217550Y227991D01*
X217624Y227925D01*
X217696Y227856D01*
X217765Y227784D01*
X217831Y227710D01*
X217895Y227632D01*
X217955Y227553D01*
X218012Y227471D01*
X218066Y227387D01*
X218116Y227301D01*
X218163Y227213D01*
X218207Y227123D01*
X218247Y227032D01*
X218283Y226939D01*
X218316Y226845D01*
X218345Y226749D01*
X218370Y226653D01*
X218391Y226556D01*
X218409Y226457D01*
X218422Y226359D01*
X218432Y226259D01*
X218438Y226160D01*
X218440Y226060D01*
X203200Y172720D02*
X203200Y152400D01*
X203200Y182880D02*
X203200Y203200D01*
D11*
X203200Y182880D02*
X212090Y182880D01*
X203200Y182880D02*
X194310Y182880D01*
X203200Y172720D02*
X212090Y172720D01*
X203200Y172720D02*
X194310Y172720D01*
D12*
X178913Y243848D02*
X180820Y245755D01*
X184633Y245755D01*
X186540Y243848D01*
X186540Y241942D01*
X184633Y240035D01*
X182726Y240035D01*
X184633Y240035D02*
X186540Y238128D01*
X186540Y236222D01*
X184633Y234315D01*
X180820Y234315D01*
X178913Y236222D01*
X190607Y236222D02*
X190607Y243848D01*
X192514Y245755D01*
X196327Y245755D01*
X198234Y243848D01*
X198234Y236222D01*
X196327Y234315D01*
X192514Y234315D01*
X190607Y236222D01*
X198234Y243848D01*
X202301Y241942D02*
X202301Y230502D01*
X202301Y241942D02*
X208021Y241942D01*
X209927Y240035D01*
X209927Y236222D01*
X208021Y234315D01*
X202301Y234315D01*
D10*
X294640Y149860D02*
X294640Y53340D01*
X292100Y152400D02*
X266700Y152400D01*
X264160Y149860D02*
X264160Y53340D01*
X266700Y50800D02*
X292100Y50800D01*
X292200Y50802D01*
X292299Y50808D01*
X292399Y50818D01*
X292497Y50831D01*
X292596Y50849D01*
X292693Y50870D01*
X292789Y50895D01*
X292885Y50924D01*
X292979Y50957D01*
X293072Y50993D01*
X293163Y51033D01*
X293253Y51077D01*
X293341Y51124D01*
X293427Y51174D01*
X293511Y51228D01*
X293593Y51285D01*
X293672Y51345D01*
X293750Y51409D01*
X293824Y51475D01*
X293896Y51544D01*
X293965Y51616D01*
X294031Y51690D01*
X294095Y51768D01*
X294155Y51847D01*
X294212Y51929D01*
X294266Y52013D01*
X294316Y52099D01*
X294363Y52187D01*
X294407Y52277D01*
X294447Y52368D01*
X294483Y52461D01*
X294516Y52555D01*
X294545Y52651D01*
X294570Y52747D01*
X294591Y52844D01*
X294609Y52943D01*
X294622Y53041D01*
X294632Y53141D01*
X294638Y53240D01*
X294640Y53340D01*
X266700Y50800D02*
X266600Y50802D01*
X266501Y50808D01*
X266401Y50818D01*
X266303Y50831D01*
X266204Y50849D01*
X266107Y50870D01*
X266011Y50895D01*
X265915Y50924D01*
X265821Y50957D01*
X265728Y50993D01*
X265637Y51033D01*
X265547Y51077D01*
X265459Y51124D01*
X265373Y51174D01*
X265289Y51228D01*
X265207Y51285D01*
X265128Y51345D01*
X265050Y51409D01*
X264976Y51475D01*
X264904Y51544D01*
X264835Y51616D01*
X264769Y51690D01*
X264705Y51768D01*
X264645Y51847D01*
X264588Y51929D01*
X264534Y52013D01*
X264484Y52099D01*
X264437Y52187D01*
X264393Y52277D01*
X264353Y52368D01*
X264317Y52461D01*
X264284Y52555D01*
X264255Y52651D01*
X264230Y52747D01*
X264209Y52844D01*
X264191Y52943D01*
X264178Y53041D01*
X264168Y53141D01*
X264162Y53240D01*
X264160Y53340D01*
X264160Y149860D02*
X264162Y149960D01*
X264168Y150059D01*
X264178Y150159D01*
X264191Y150257D01*
X264209Y150356D01*
X264230Y150453D01*
X264255Y150549D01*
X264284Y150645D01*
X264317Y150739D01*
X264353Y150832D01*
X264393Y150923D01*
X264437Y151013D01*
X264484Y151101D01*
X264534Y151187D01*
X264588Y151271D01*
X264645Y151353D01*
X264705Y151432D01*
X264769Y151510D01*
X264835Y151584D01*
X264904Y151656D01*
X264976Y151725D01*
X265050Y151791D01*
X265128Y151855D01*
X265207Y151915D01*
X265289Y151972D01*
X265373Y152026D01*
X265459Y152076D01*
X265547Y152123D01*
X265637Y152167D01*
X265728Y152207D01*
X265821Y152243D01*
X265915Y152276D01*
X266011Y152305D01*
X266107Y152330D01*
X266204Y152351D01*
X266303Y152369D01*
X266401Y152382D01*
X266501Y152392D01*
X266600Y152398D01*
X266700Y152400D01*
X292100Y152400D02*
X292200Y152398D01*
X292299Y152392D01*
X292399Y152382D01*
X292497Y152369D01*
X292596Y152351D01*
X292693Y152330D01*
X292789Y152305D01*
X292885Y152276D01*
X292979Y152243D01*
X293072Y152207D01*
X293163Y152167D01*
X293253Y152123D01*
X293341Y152076D01*
X293427Y152026D01*
X293511Y151972D01*
X293593Y151915D01*
X293672Y151855D01*
X293750Y151791D01*
X293824Y151725D01*
X293896Y151656D01*
X293965Y151584D01*
X294031Y151510D01*
X294095Y151432D01*
X294155Y151353D01*
X294212Y151271D01*
X294266Y151187D01*
X294316Y151101D01*
X294363Y151013D01*
X294407Y150923D01*
X294447Y150832D01*
X294483Y150739D01*
X294516Y150645D01*
X294545Y150549D01*
X294570Y150453D01*
X294591Y150356D01*
X294609Y150257D01*
X294622Y150159D01*
X294632Y150059D01*
X294638Y149960D01*
X294640Y149860D01*
X279400Y96520D02*
X279400Y76200D01*
X279400Y106680D02*
X279400Y127000D01*
D11*
X279400Y106680D02*
X288290Y106680D01*
X279400Y106680D02*
X270510Y106680D01*
X279400Y96520D02*
X288290Y96520D01*
X279400Y96520D02*
X270510Y96520D01*
D12*
X273688Y45095D02*
X269875Y41282D01*
X273688Y45095D02*
X273688Y33655D01*
X269875Y33655D02*
X277502Y33655D01*
X281569Y35562D02*
X281569Y43188D01*
X283476Y45095D01*
X287289Y45095D01*
X289195Y43188D01*
X289195Y35562D01*
X287289Y33655D01*
X283476Y33655D01*
X281569Y35562D01*
X289195Y43188D01*
X293263Y41282D02*
X293263Y29842D01*
X293263Y41282D02*
X298983Y41282D01*
X300889Y39375D01*
X300889Y35562D01*
X298983Y33655D01*
X293263Y33655D01*
D10*
X302260Y53340D02*
X302260Y149860D01*
X304800Y50800D02*
X330200Y50800D01*
X332740Y53340D02*
X332740Y149860D01*
X330200Y152400D02*
X304800Y152400D01*
X304700Y152398D01*
X304601Y152392D01*
X304501Y152382D01*
X304403Y152369D01*
X304304Y152351D01*
X304207Y152330D01*
X304111Y152305D01*
X304015Y152276D01*
X303921Y152243D01*
X303828Y152207D01*
X303737Y152167D01*
X303647Y152123D01*
X303559Y152076D01*
X303473Y152026D01*
X303389Y151972D01*
X303307Y151915D01*
X303228Y151855D01*
X303150Y151791D01*
X303076Y151725D01*
X303004Y151656D01*
X302935Y151584D01*
X302869Y151510D01*
X302805Y151432D01*
X302745Y151353D01*
X302688Y151271D01*
X302634Y151187D01*
X302584Y151101D01*
X302537Y151013D01*
X302493Y150923D01*
X302453Y150832D01*
X302417Y150739D01*
X302384Y150645D01*
X302355Y150549D01*
X302330Y150453D01*
X302309Y150356D01*
X302291Y150257D01*
X302278Y150159D01*
X302268Y150059D01*
X302262Y149960D01*
X302260Y149860D01*
X330200Y152400D02*
X330300Y152398D01*
X330399Y152392D01*
X330499Y152382D01*
X330597Y152369D01*
X330696Y152351D01*
X330793Y152330D01*
X330889Y152305D01*
X330985Y152276D01*
X331079Y152243D01*
X331172Y152207D01*
X331263Y152167D01*
X331353Y152123D01*
X331441Y152076D01*
X331527Y152026D01*
X331611Y151972D01*
X331693Y151915D01*
X331772Y151855D01*
X331850Y151791D01*
X331924Y151725D01*
X331996Y151656D01*
X332065Y151584D01*
X332131Y151510D01*
X332195Y151432D01*
X332255Y151353D01*
X332312Y151271D01*
X332366Y151187D01*
X332416Y151101D01*
X332463Y151013D01*
X332507Y150923D01*
X332547Y150832D01*
X332583Y150739D01*
X332616Y150645D01*
X332645Y150549D01*
X332670Y150453D01*
X332691Y150356D01*
X332709Y150257D01*
X332722Y150159D01*
X332732Y150059D01*
X332738Y149960D01*
X332740Y149860D01*
X332740Y53340D02*
X332738Y53240D01*
X332732Y53141D01*
X332722Y53041D01*
X332709Y52943D01*
X332691Y52844D01*
X332670Y52747D01*
X332645Y52651D01*
X332616Y52555D01*
X332583Y52461D01*
X332547Y52368D01*
X332507Y52277D01*
X332463Y52187D01*
X332416Y52099D01*
X332366Y52013D01*
X332312Y51929D01*
X332255Y51847D01*
X332195Y51768D01*
X332131Y51690D01*
X332065Y51616D01*
X331996Y51544D01*
X331924Y51475D01*
X331850Y51409D01*
X331772Y51345D01*
X331693Y51285D01*
X331611Y51228D01*
X331527Y51174D01*
X331441Y51124D01*
X331353Y51077D01*
X331263Y51033D01*
X331172Y50993D01*
X331079Y50957D01*
X330985Y50924D01*
X330889Y50895D01*
X330793Y50870D01*
X330696Y50849D01*
X330597Y50831D01*
X330499Y50818D01*
X330399Y50808D01*
X330300Y50802D01*
X330200Y50800D01*
X304800Y50800D02*
X304700Y50802D01*
X304601Y50808D01*
X304501Y50818D01*
X304403Y50831D01*
X304304Y50849D01*
X304207Y50870D01*
X304111Y50895D01*
X304015Y50924D01*
X303921Y50957D01*
X303828Y50993D01*
X303737Y51033D01*
X303647Y51077D01*
X303559Y51124D01*
X303473Y51174D01*
X303389Y51228D01*
X303307Y51285D01*
X303228Y51345D01*
X303150Y51409D01*
X303076Y51475D01*
X303004Y51544D01*
X302935Y51616D01*
X302869Y51690D01*
X302805Y51768D01*
X302745Y51847D01*
X302688Y51929D01*
X302634Y52013D01*
X302584Y52099D01*
X302537Y52187D01*
X302493Y52277D01*
X302453Y52368D01*
X302417Y52461D01*
X302384Y52555D01*
X302355Y52651D01*
X302330Y52747D01*
X302309Y52844D01*
X302291Y52943D01*
X302278Y53041D01*
X302268Y53141D01*
X302262Y53240D01*
X302260Y53340D01*
X317500Y106680D02*
X317500Y127000D01*
X317500Y96520D02*
X317500Y76200D01*
D11*
X317500Y96520D02*
X308610Y96520D01*
X317500Y96520D02*
X326390Y96520D01*
X317500Y106680D02*
X308610Y106680D01*
X317500Y106680D02*
X326390Y106680D01*
D12*
X315602Y45095D02*
X311788Y43188D01*
X307975Y39375D01*
X307975Y35562D01*
X309882Y33655D01*
X313695Y33655D01*
X315602Y35562D01*
X315602Y37468D01*
X313695Y39375D01*
X307975Y39375D01*
X319669Y43188D02*
X321576Y45095D01*
X325389Y45095D01*
X327295Y43188D01*
X327295Y41282D01*
X325389Y39375D01*
X327295Y37468D01*
X327295Y35562D01*
X325389Y33655D01*
X321576Y33655D01*
X319669Y35562D01*
X319669Y37468D01*
X321576Y39375D01*
X319669Y41282D01*
X319669Y43188D01*
X321576Y39375D02*
X325389Y39375D01*
X331363Y41282D02*
X331363Y29842D01*
X331363Y41282D02*
X337083Y41282D01*
X338989Y39375D01*
X338989Y35562D01*
X337083Y33655D01*
X331363Y33655D01*
D10*
X330200Y226060D02*
X330200Y233680D01*
X326390Y229870D02*
X334010Y229870D01*
X295910Y203200D02*
X295920Y204042D01*
X295951Y204883D01*
X296003Y205723D01*
X296075Y206561D01*
X296168Y207397D01*
X296281Y208231D01*
X296415Y209062D01*
X296569Y209890D01*
X296743Y210713D01*
X296938Y211532D01*
X297152Y212346D01*
X297387Y213154D01*
X297641Y213956D01*
X297914Y214752D01*
X298208Y215541D01*
X298520Y216322D01*
X298852Y217096D01*
X299202Y217861D01*
X299571Y218617D01*
X299959Y219364D01*
X300365Y220101D01*
X300788Y220829D01*
X301230Y221545D01*
X301689Y222251D01*
X302165Y222944D01*
X302658Y223627D01*
X303168Y224296D01*
X303693Y224953D01*
X304235Y225597D01*
X304793Y226228D01*
X305366Y226844D01*
X305953Y227447D01*
X306556Y228034D01*
X307172Y228607D01*
X307803Y229165D01*
X308447Y229707D01*
X309104Y230232D01*
X309773Y230742D01*
X310456Y231235D01*
X311149Y231711D01*
X311855Y232170D01*
X312571Y232612D01*
X313299Y233035D01*
X314036Y233441D01*
X314783Y233829D01*
X315539Y234198D01*
X316304Y234548D01*
X317078Y234880D01*
X317859Y235192D01*
X318648Y235486D01*
X319444Y235759D01*
X320246Y236013D01*
X321054Y236248D01*
X321868Y236462D01*
X322687Y236657D01*
X323510Y236831D01*
X324338Y236985D01*
X325169Y237119D01*
X326003Y237232D01*
X326839Y237325D01*
X327677Y237397D01*
X328517Y237449D01*
X329358Y237480D01*
X330200Y237490D01*
X331042Y237480D01*
X331883Y237449D01*
X332723Y237397D01*
X333561Y237325D01*
X334397Y237232D01*
X335231Y237119D01*
X336062Y236985D01*
X336890Y236831D01*
X337713Y236657D01*
X338532Y236462D01*
X339346Y236248D01*
X340154Y236013D01*
X340956Y235759D01*
X341752Y235486D01*
X342541Y235192D01*
X343322Y234880D01*
X344096Y234548D01*
X344861Y234198D01*
X345617Y233829D01*
X346364Y233441D01*
X347101Y233035D01*
X347829Y232612D01*
X348545Y232170D01*
X349251Y231711D01*
X349944Y231235D01*
X350627Y230742D01*
X351296Y230232D01*
X351953Y229707D01*
X352597Y229165D01*
X353228Y228607D01*
X353844Y228034D01*
X354447Y227447D01*
X355034Y226844D01*
X355607Y226228D01*
X356165Y225597D01*
X356707Y224953D01*
X357232Y224296D01*
X357742Y223627D01*
X358235Y222944D01*
X358711Y222251D01*
X359170Y221545D01*
X359612Y220829D01*
X360035Y220101D01*
X360441Y219364D01*
X360829Y218617D01*
X361198Y217861D01*
X361548Y217096D01*
X361880Y216322D01*
X362192Y215541D01*
X362486Y214752D01*
X362759Y213956D01*
X363013Y213154D01*
X363248Y212346D01*
X363462Y211532D01*
X363657Y210713D01*
X363831Y209890D01*
X363985Y209062D01*
X364119Y208231D01*
X364232Y207397D01*
X364325Y206561D01*
X364397Y205723D01*
X364449Y204883D01*
X364480Y204042D01*
X364490Y203200D01*
X364480Y202358D01*
X364449Y201517D01*
X364397Y200677D01*
X364325Y199839D01*
X364232Y199003D01*
X364119Y198169D01*
X363985Y197338D01*
X363831Y196510D01*
X363657Y195687D01*
X363462Y194868D01*
X363248Y194054D01*
X363013Y193246D01*
X362759Y192444D01*
X362486Y191648D01*
X362192Y190859D01*
X361880Y190078D01*
X361548Y189304D01*
X361198Y188539D01*
X360829Y187783D01*
X360441Y187036D01*
X360035Y186299D01*
X359612Y185571D01*
X359170Y184855D01*
X358711Y184149D01*
X358235Y183456D01*
X357742Y182773D01*
X357232Y182104D01*
X356707Y181447D01*
X356165Y180803D01*
X355607Y180172D01*
X355034Y179556D01*
X354447Y178953D01*
X353844Y178366D01*
X353228Y177793D01*
X352597Y177235D01*
X351953Y176693D01*
X351296Y176168D01*
X350627Y175658D01*
X349944Y175165D01*
X349251Y174689D01*
X348545Y174230D01*
X347829Y173788D01*
X347101Y173365D01*
X346364Y172959D01*
X345617Y172571D01*
X344861Y172202D01*
X344096Y171852D01*
X343322Y171520D01*
X342541Y171208D01*
X341752Y170914D01*
X340956Y170641D01*
X340154Y170387D01*
X339346Y170152D01*
X338532Y169938D01*
X337713Y169743D01*
X336890Y169569D01*
X336062Y169415D01*
X335231Y169281D01*
X334397Y169168D01*
X333561Y169075D01*
X332723Y169003D01*
X331883Y168951D01*
X331042Y168920D01*
X330200Y168910D01*
X329358Y168920D01*
X328517Y168951D01*
X327677Y169003D01*
X326839Y169075D01*
X326003Y169168D01*
X325169Y169281D01*
X324338Y169415D01*
X323510Y169569D01*
X322687Y169743D01*
X321868Y169938D01*
X321054Y170152D01*
X320246Y170387D01*
X319444Y170641D01*
X318648Y170914D01*
X317859Y171208D01*
X317078Y171520D01*
X316304Y171852D01*
X315539Y172202D01*
X314783Y172571D01*
X314036Y172959D01*
X313299Y173365D01*
X312571Y173788D01*
X311855Y174230D01*
X311149Y174689D01*
X310456Y175165D01*
X309773Y175658D01*
X309104Y176168D01*
X308447Y176693D01*
X307803Y177235D01*
X307172Y177793D01*
X306556Y178366D01*
X305953Y178953D01*
X305366Y179556D01*
X304793Y180172D01*
X304235Y180803D01*
X303693Y181447D01*
X303168Y182104D01*
X302658Y182773D01*
X302165Y183456D01*
X301689Y184149D01*
X301230Y184855D01*
X300788Y185571D01*
X300365Y186299D01*
X299959Y187036D01*
X299571Y187783D01*
X299202Y188539D01*
X298852Y189304D01*
X298520Y190078D01*
X298208Y190859D01*
X297914Y191648D01*
X297641Y192444D01*
X297387Y193246D01*
X297152Y194054D01*
X296938Y194868D01*
X296743Y195687D01*
X296569Y196510D01*
X296415Y197338D01*
X296281Y198169D01*
X296168Y199003D01*
X296075Y199839D01*
X296003Y200677D01*
X295951Y201517D01*
X295920Y202358D01*
X295910Y203200D01*
D12*
X285115Y243212D02*
X288928Y247025D01*
X288928Y235585D01*
X285115Y235585D02*
X292742Y235585D01*
X296809Y237492D02*
X296809Y245118D01*
X298716Y247025D01*
X302529Y247025D01*
X304435Y245118D01*
X304435Y237492D01*
X302529Y235585D01*
X298716Y235585D01*
X296809Y237492D01*
X304435Y245118D01*
X308503Y243212D02*
X308503Y237492D01*
X310410Y235585D01*
X316129Y235585D01*
X316129Y243212D01*
D10*
X353060Y86360D02*
X353062Y86260D01*
X353068Y86161D01*
X353078Y86061D01*
X353091Y85963D01*
X353109Y85864D01*
X353130Y85767D01*
X353155Y85671D01*
X353184Y85575D01*
X353217Y85481D01*
X353253Y85388D01*
X353293Y85297D01*
X353337Y85207D01*
X353384Y85119D01*
X353434Y85033D01*
X353488Y84949D01*
X353545Y84867D01*
X353605Y84788D01*
X353669Y84710D01*
X353735Y84636D01*
X353804Y84564D01*
X353876Y84495D01*
X353950Y84429D01*
X354028Y84365D01*
X354107Y84305D01*
X354189Y84248D01*
X354273Y84194D01*
X354359Y84144D01*
X354447Y84097D01*
X354537Y84053D01*
X354628Y84013D01*
X354721Y83977D01*
X354815Y83944D01*
X354911Y83915D01*
X355007Y83890D01*
X355104Y83869D01*
X355203Y83851D01*
X355301Y83838D01*
X355401Y83828D01*
X355500Y83822D01*
X355600Y83820D01*
X381000Y83820D02*
X381100Y83822D01*
X381199Y83828D01*
X381299Y83838D01*
X381397Y83851D01*
X381496Y83869D01*
X381593Y83890D01*
X381689Y83915D01*
X381785Y83944D01*
X381879Y83977D01*
X381972Y84013D01*
X382063Y84053D01*
X382153Y84097D01*
X382241Y84144D01*
X382327Y84194D01*
X382411Y84248D01*
X382493Y84305D01*
X382572Y84365D01*
X382650Y84429D01*
X382724Y84495D01*
X382796Y84564D01*
X382865Y84636D01*
X382931Y84710D01*
X382995Y84788D01*
X383055Y84867D01*
X383112Y84949D01*
X383166Y85033D01*
X383216Y85119D01*
X383263Y85207D01*
X383307Y85297D01*
X383347Y85388D01*
X383383Y85481D01*
X383416Y85575D01*
X383445Y85671D01*
X383470Y85767D01*
X383491Y85864D01*
X383509Y85963D01*
X383522Y86061D01*
X383532Y86161D01*
X383538Y86260D01*
X383540Y86360D01*
X383540Y167640D02*
X383538Y167740D01*
X383532Y167839D01*
X383522Y167939D01*
X383509Y168037D01*
X383491Y168136D01*
X383470Y168233D01*
X383445Y168329D01*
X383416Y168425D01*
X383383Y168519D01*
X383347Y168612D01*
X383307Y168703D01*
X383263Y168793D01*
X383216Y168881D01*
X383166Y168967D01*
X383112Y169051D01*
X383055Y169133D01*
X382995Y169212D01*
X382931Y169290D01*
X382865Y169364D01*
X382796Y169436D01*
X382724Y169505D01*
X382650Y169571D01*
X382572Y169635D01*
X382493Y169695D01*
X382411Y169752D01*
X382327Y169806D01*
X382241Y169856D01*
X382153Y169903D01*
X382063Y169947D01*
X381972Y169987D01*
X381879Y170023D01*
X381785Y170056D01*
X381689Y170085D01*
X381593Y170110D01*
X381496Y170131D01*
X381397Y170149D01*
X381299Y170162D01*
X381199Y170172D01*
X381100Y170178D01*
X381000Y170180D01*
X355600Y170180D02*
X355500Y170178D01*
X355401Y170172D01*
X355301Y170162D01*
X355203Y170149D01*
X355104Y170131D01*
X355007Y170110D01*
X354911Y170085D01*
X354815Y170056D01*
X354721Y170023D01*
X354628Y169987D01*
X354537Y169947D01*
X354447Y169903D01*
X354359Y169856D01*
X354273Y169806D01*
X354189Y169752D01*
X354107Y169695D01*
X354028Y169635D01*
X353950Y169571D01*
X353876Y169505D01*
X353804Y169436D01*
X353735Y169364D01*
X353669Y169290D01*
X353605Y169212D01*
X353545Y169133D01*
X353488Y169051D01*
X353434Y168967D01*
X353384Y168881D01*
X353337Y168793D01*
X353293Y168703D01*
X353253Y168612D01*
X353217Y168519D01*
X353184Y168425D01*
X353155Y168329D01*
X353130Y168233D01*
X353109Y168136D01*
X353091Y168037D01*
X353078Y167939D01*
X353068Y167839D01*
X353062Y167740D01*
X353060Y167640D01*
X355600Y83820D02*
X381000Y83820D01*
X353060Y86360D02*
X353060Y92710D01*
X354330Y93980D01*
X383540Y92710D02*
X383540Y86360D01*
X383540Y92710D02*
X382270Y93980D01*
X354330Y160020D02*
X353060Y161290D01*
X354330Y160020D02*
X354330Y93980D01*
X382270Y160020D02*
X383540Y161290D01*
X382270Y160020D02*
X382270Y93980D01*
X353060Y161290D02*
X353060Y167640D01*
X383540Y167640D02*
X383540Y161290D01*
X381000Y170180D02*
X355600Y170180D01*
D12*
X363083Y99698D02*
X366897Y95885D01*
X363083Y99698D02*
X374523Y99698D01*
X374523Y95885D02*
X374523Y103512D01*
X372616Y107579D02*
X364990Y107579D01*
X363083Y109486D01*
X363083Y113299D01*
X364990Y115205D01*
X372616Y115205D01*
X374523Y113299D01*
X374523Y109486D01*
X372616Y107579D01*
X364990Y115205D01*
X364990Y119273D02*
X372616Y119273D01*
X364990Y119273D02*
X363083Y121180D01*
X363083Y124993D01*
X364990Y126899D01*
X372616Y126899D01*
X374523Y124993D01*
X374523Y121180D01*
X372616Y119273D01*
X364990Y126899D01*
D13*
X368300Y174498D03*
X368300Y79502D03*
D12*
X-4450Y80010D02*
X-46350Y80010D01*
X-49530Y52141D02*
X-49247Y51557D01*
X-48949Y50981D01*
X-48638Y50412D01*
X-48313Y49851D01*
X-47974Y49298D01*
X-47622Y48753D01*
X-47257Y48217D01*
X-46879Y47690D01*
X-46488Y47173D01*
X-46085Y46665D01*
X-45669Y46167D01*
X-45242Y45679D01*
X-44803Y45202D01*
X-44352Y44735D01*
X-43890Y44280D01*
X-43417Y43836D01*
X-42934Y43404D01*
X-42440Y42983D01*
X-41936Y42575D01*
X-41422Y42179D01*
X-40899Y41796D01*
X-40367Y41425D01*
X-39825Y41068D01*
X-39276Y40724D01*
X-38718Y40393D01*
X-38152Y40076D01*
X-37579Y39773D01*
X-36998Y39484D01*
X-36411Y39209D01*
X-35817Y38948D01*
X-35217Y38702D01*
X-34611Y38471D01*
X-33999Y38254D01*
X-33383Y38053D01*
X-32762Y37866D01*
X-32136Y37695D01*
X-31507Y37539D01*
X-30874Y37398D01*
X-30237Y37272D01*
X-29598Y37163D01*
X-28957Y37068D01*
X-28313Y36990D01*
X-27667Y36927D01*
X-27020Y36879D01*
X-26373Y36848D01*
X-25724Y36832D01*
X-25076Y36832D01*
X-24427Y36848D01*
X-23780Y36879D01*
X-23133Y36927D01*
X-22487Y36990D01*
X-21843Y37068D01*
X-21202Y37163D01*
X-20563Y37272D01*
X-19926Y37398D01*
X-19293Y37539D01*
X-18664Y37695D01*
X-18038Y37866D01*
X-17417Y38053D01*
X-16801Y38254D01*
X-16189Y38471D01*
X-15583Y38702D01*
X-14983Y38948D01*
X-14389Y39209D01*
X-13802Y39484D01*
X-13221Y39773D01*
X-12648Y40076D01*
X-12082Y40393D01*
X-11524Y40724D01*
X-10975Y41068D01*
X-10433Y41425D01*
X-9901Y41796D01*
X-9378Y42179D01*
X-8864Y42575D01*
X-8360Y42983D01*
X-7866Y43404D01*
X-7383Y43836D01*
X-6910Y44280D01*
X-6448Y44735D01*
X-5997Y45202D01*
X-5558Y45679D01*
X-5131Y46167D01*
X-4715Y46665D01*
X-4312Y47173D01*
X-3921Y47690D01*
X-3543Y48217D01*
X-3178Y48753D01*
X-2826Y49298D01*
X-2487Y49851D01*
X-2162Y50412D01*
X-1851Y50981D01*
X-1553Y51557D01*
X-1270Y52141D01*
X-1265Y74859D02*
X-1530Y75405D01*
X-1807Y75945D01*
X-2096Y76478D01*
X-2398Y77005D01*
X-2711Y77525D01*
X-3036Y78038D01*
X-3373Y78543D01*
X-3721Y79040D01*
X-4080Y79529D01*
X-4450Y80010D01*
X-11360Y64770D02*
X-14040Y64770D01*
X-36760Y64770D02*
X-39440Y64770D01*
X-49647Y74618D02*
X-49376Y75191D01*
X-49091Y75757D01*
X-48794Y76316D01*
X-48483Y76868D01*
X-48158Y77412D01*
X-47822Y77948D01*
X-47472Y78477D01*
X-47110Y78997D01*
X-46736Y79508D01*
X-46350Y80010D01*
X-57835Y84455D02*
X-57835Y95895D01*
X-52115Y95895D01*
X-50208Y93988D01*
X-50208Y92082D01*
X-52115Y90175D01*
X-50208Y88268D01*
X-50208Y86362D01*
X-52115Y84455D01*
X-57835Y84455D01*
X-57835Y90175D02*
X-52115Y90175D01*
X-40421Y95895D02*
X-38515Y93988D01*
X-40421Y95895D02*
X-44234Y95895D01*
X-46141Y93988D01*
X-46141Y86362D01*
X-44234Y84455D01*
X-40421Y84455D01*
X-38515Y86362D01*
X-34447Y95895D02*
X-26821Y95895D01*
X-34447Y95895D02*
X-34447Y90175D01*
X-30634Y92082D01*
X-28727Y92082D01*
X-26821Y90175D01*
X-26821Y86362D01*
X-28727Y84455D01*
X-32540Y84455D01*
X-34447Y86362D01*
X-17033Y84455D02*
X-17033Y95895D01*
X-22753Y90175D01*
X-15127Y90175D01*
X-11059Y95895D02*
X-3433Y95895D01*
X-3433Y93988D01*
X-11059Y86362D01*
X-11059Y84455D01*
X207650Y72390D02*
X249550Y72390D01*
X252730Y100259D02*
X252447Y100843D01*
X252149Y101419D01*
X251838Y101988D01*
X251513Y102549D01*
X251174Y103102D01*
X250822Y103647D01*
X250457Y104183D01*
X250079Y104710D01*
X249688Y105227D01*
X249285Y105735D01*
X248869Y106233D01*
X248442Y106721D01*
X248003Y107198D01*
X247552Y107665D01*
X247090Y108120D01*
X246617Y108564D01*
X246134Y108996D01*
X245640Y109417D01*
X245136Y109825D01*
X244622Y110221D01*
X244099Y110604D01*
X243567Y110975D01*
X243025Y111332D01*
X242476Y111676D01*
X241918Y112007D01*
X241352Y112324D01*
X240779Y112627D01*
X240198Y112916D01*
X239611Y113191D01*
X239017Y113452D01*
X238417Y113698D01*
X237811Y113929D01*
X237199Y114146D01*
X236583Y114347D01*
X235962Y114534D01*
X235336Y114705D01*
X234707Y114861D01*
X234074Y115002D01*
X233437Y115128D01*
X232798Y115237D01*
X232157Y115332D01*
X231513Y115410D01*
X230867Y115473D01*
X230220Y115521D01*
X229573Y115552D01*
X228924Y115568D01*
X228276Y115568D01*
X227627Y115552D01*
X226980Y115521D01*
X226333Y115473D01*
X225687Y115410D01*
X225043Y115332D01*
X224402Y115237D01*
X223763Y115128D01*
X223126Y115002D01*
X222493Y114861D01*
X221864Y114705D01*
X221238Y114534D01*
X220617Y114347D01*
X220001Y114146D01*
X219389Y113929D01*
X218783Y113698D01*
X218183Y113452D01*
X217589Y113191D01*
X217002Y112916D01*
X216421Y112627D01*
X215848Y112324D01*
X215282Y112007D01*
X214724Y111676D01*
X214175Y111332D01*
X213633Y110975D01*
X213101Y110604D01*
X212578Y110221D01*
X212064Y109825D01*
X211560Y109417D01*
X211066Y108996D01*
X210583Y108564D01*
X210110Y108120D01*
X209648Y107665D01*
X209197Y107198D01*
X208758Y106721D01*
X208331Y106233D01*
X207915Y105735D01*
X207512Y105227D01*
X207121Y104710D01*
X206743Y104183D01*
X206378Y103647D01*
X206026Y103102D01*
X205687Y102549D01*
X205362Y101988D01*
X205051Y101419D01*
X204753Y100843D01*
X204470Y100259D01*
X204465Y77541D02*
X204730Y76995D01*
X205007Y76455D01*
X205296Y75922D01*
X205598Y75395D01*
X205911Y74875D01*
X206236Y74362D01*
X206573Y73857D01*
X206921Y73360D01*
X207280Y72871D01*
X207650Y72390D01*
X214560Y87630D02*
X217240Y87630D01*
X239960Y87630D02*
X242640Y87630D01*
X252847Y77782D02*
X252576Y77209D01*
X252291Y76643D01*
X251994Y76084D01*
X251683Y75532D01*
X251358Y74988D01*
X251022Y74452D01*
X250672Y73923D01*
X250310Y73403D01*
X249936Y72892D01*
X249550Y72390D01*
X203835Y67955D02*
X203835Y56515D01*
X203835Y67955D02*
X209555Y67955D01*
X211462Y66048D01*
X211462Y64142D01*
X209555Y62235D01*
X211462Y60328D01*
X211462Y58422D01*
X209555Y56515D01*
X203835Y56515D01*
X203835Y62235D02*
X209555Y62235D01*
X221249Y67955D02*
X223155Y66048D01*
X221249Y67955D02*
X217436Y67955D01*
X215529Y66048D01*
X215529Y58422D01*
X217436Y56515D01*
X221249Y56515D01*
X223155Y58422D01*
X227223Y67955D02*
X234849Y67955D01*
X227223Y67955D02*
X227223Y62235D01*
X231036Y64142D01*
X232943Y64142D01*
X234849Y62235D01*
X234849Y58422D01*
X232943Y56515D01*
X229130Y56515D01*
X227223Y58422D01*
X244637Y56515D02*
X244637Y67955D01*
X238917Y62235D01*
X246543Y62235D01*
X250611Y67955D02*
X258237Y67955D01*
X258237Y66048D01*
X250611Y58422D01*
X250611Y56515D01*
D10*
X-99060Y0D02*
X-104140Y0D01*
X-177800Y0D01*
X-177800Y21590D01*
X-177800Y25400D01*
X-177800Y29210D01*
X-177800Y46990D01*
X-177800Y50800D01*
X-177800Y54610D01*
X-177800Y72390D01*
X-177800Y76200D01*
X-177800Y80010D01*
X-177800Y97790D01*
X-177800Y101600D01*
X-177800Y105410D01*
X-177800Y123190D01*
X-177800Y127000D02*
X-104140Y127000D01*
X-104140Y21590D02*
X-104140Y0D01*
X-104140Y21590D02*
X-104140Y25400D01*
X-104140Y29210D01*
X-104140Y46990D01*
X-104140Y50800D01*
X-104140Y54610D01*
X-104140Y72390D01*
X-104140Y76200D01*
X-104140Y80010D01*
X-104140Y97790D01*
X-104140Y101600D01*
X-104140Y105410D01*
X-104140Y123190D01*
X-104140Y127000D01*
X-104140Y101600D02*
X-177800Y101600D01*
X-177800Y76200D02*
X-104140Y76200D01*
X-104140Y50800D02*
X-177800Y50800D01*
X-177800Y25400D02*
X-104140Y25400D01*
D15*
X-104140Y21590D02*
X-177800Y21590D01*
X-177800Y29210D02*
X-104140Y29210D01*
X-104140Y46990D02*
X-177800Y46990D01*
X-177800Y54610D02*
X-104140Y54610D01*
X-104140Y72390D02*
X-177800Y72390D01*
X-177800Y80010D02*
X-104140Y80010D01*
X-104140Y97790D02*
X-177800Y97790D01*
X-177800Y105410D02*
X-104140Y105410D01*
D10*
X-104140Y123190D02*
X-177800Y123190D01*
X-177800Y127000D01*
X-177800Y130810D01*
D15*
X-104140Y130810D01*
D10*
X-99060Y203200D02*
X-99060Y0D01*
X-177800Y130810D02*
X-177800Y148590D01*
X-177800Y152400D02*
X-104140Y152400D01*
X-104140Y130810D02*
X-104140Y127000D01*
X-104140Y130810D02*
X-104140Y148590D01*
X-104140Y152400D01*
D15*
X-104140Y148590D02*
X-177800Y148590D01*
D10*
X-177800Y152400D01*
X-177800Y156210D01*
X-177800Y173990D01*
X-177800Y177800D01*
X-104140Y177800D01*
D15*
X-104140Y156210D02*
X-177800Y156210D01*
D10*
X-104140Y156210D02*
X-104140Y152400D01*
X-104140Y156210D02*
X-104140Y173990D01*
X-104140Y177800D01*
X-177800Y177800D02*
X-177800Y181610D01*
X-177800Y203200D01*
X-104140Y203200D01*
X-99060Y203200D01*
X-104140Y181610D02*
X-104140Y177800D01*
X-104140Y181610D02*
X-104140Y203200D01*
D15*
X-104140Y181610D02*
X-177800Y181610D01*
X-177800Y173990D02*
X-104140Y173990D01*
D12*
X-118739Y159385D02*
X-126365Y159385D01*
X-118739Y167012D01*
X-118739Y168918D01*
X-120645Y170825D01*
X-124458Y170825D01*
X-126365Y168918D01*
X-124458Y18425D02*
X-126365Y16518D01*
X-124458Y18425D02*
X-120645Y18425D01*
X-118739Y16518D01*
X-118739Y14612D01*
X-120645Y12705D01*
X-118739Y10798D01*
X-118739Y8892D01*
X-120645Y6985D01*
X-124458Y6985D01*
X-126365Y8892D01*
X-126365Y10798D01*
X-124458Y12705D01*
X-126365Y14612D01*
X-126365Y16518D01*
X-124458Y12705D02*
X-120645Y12705D01*
X-126365Y143518D02*
X-124458Y145425D01*
X-120645Y145425D01*
X-118739Y143518D01*
X-118739Y141612D01*
X-120645Y139705D01*
X-122552Y139705D01*
X-120645Y139705D02*
X-118739Y137798D01*
X-118739Y135892D01*
X-120645Y133985D01*
X-124458Y133985D01*
X-126365Y135892D01*
X-120645Y120025D02*
X-120645Y108585D01*
X-126365Y114305D02*
X-120645Y120025D01*
X-118739Y114305D02*
X-126365Y114305D01*
X-126365Y94625D02*
X-118739Y94625D01*
X-126365Y94625D02*
X-126365Y88905D01*
X-122552Y90812D01*
X-120645Y90812D01*
X-118739Y88905D01*
X-118739Y85092D01*
X-120645Y83185D01*
X-124458Y83185D01*
X-126365Y85092D01*
X-118739Y69225D02*
X-122552Y67318D01*
X-126365Y63505D01*
X-126365Y59692D01*
X-124458Y57785D01*
X-120645Y57785D01*
X-118739Y59692D01*
X-118739Y61598D01*
X-120645Y63505D01*
X-126365Y63505D01*
X-126365Y43825D02*
X-118739Y43825D01*
X-118739Y41918D01*
X-126365Y34292D01*
X-126365Y32385D01*
X-126365Y192412D02*
X-122552Y196225D01*
X-122552Y184785D01*
X-126365Y184785D02*
X-118739Y184785D01*
D10*
X472440Y0D02*
X500380Y0D01*
X472440Y0D02*
X472440Y25400D01*
X500380Y25400D02*
X500380Y0D01*
X500380Y50800D02*
X472440Y50800D01*
X500380Y50800D02*
X500380Y76200D01*
X500380Y25400D02*
X472440Y25400D01*
X472440Y50800D01*
X500380Y50800D02*
X500380Y25400D01*
D16*
X508000Y63500D02*
X554990Y63500D01*
X554990Y38100D02*
X508000Y38100D01*
X508000Y12700D02*
X554990Y12700D01*
D10*
X472440Y50800D02*
X472440Y76200D01*
X472440Y101600D01*
X500380Y101600D01*
X472440Y101600D02*
X472440Y127000D01*
X500380Y127000D01*
X500380Y101600D01*
X500380Y76200D02*
X472440Y76200D01*
X500380Y76200D02*
X500380Y101600D01*
X472440Y127000D02*
X472440Y152400D01*
X500380Y152400D02*
X500380Y127000D01*
X500380Y177800D02*
X472440Y177800D01*
X472440Y203200D01*
X500380Y203200D01*
X500380Y177800D01*
X500380Y152400D02*
X472440Y152400D01*
X472440Y177800D01*
X500380Y177800D02*
X500380Y152400D01*
D16*
X508000Y190500D02*
X554990Y190500D01*
X554990Y165100D02*
X508000Y165100D01*
X508000Y139700D02*
X554990Y139700D01*
X554990Y114300D02*
X508000Y114300D01*
X508000Y88900D02*
X554990Y88900D01*
D12*
X478155Y192412D02*
X481968Y196225D01*
X481968Y184785D01*
X478155Y184785D02*
X485782Y184785D01*
X485782Y159385D02*
X478155Y159385D01*
X485782Y167012D01*
X485782Y168918D01*
X483875Y170825D01*
X480062Y170825D01*
X478155Y168918D01*
X480062Y145425D02*
X478155Y143518D01*
X480062Y145425D02*
X483875Y145425D01*
X485782Y143518D01*
X485782Y141612D01*
X483875Y139705D01*
X481968Y139705D01*
X483875Y139705D02*
X485782Y137798D01*
X485782Y135892D01*
X483875Y133985D01*
X480062Y133985D01*
X478155Y135892D01*
X483875Y120025D02*
X483875Y108585D01*
X478155Y114305D02*
X483875Y120025D01*
X485782Y114305D02*
X478155Y114305D01*
X478155Y94625D02*
X485782Y94625D01*
X478155Y94625D02*
X478155Y88905D01*
X481968Y90812D01*
X483875Y90812D01*
X485782Y88905D01*
X485782Y85092D01*
X483875Y83185D01*
X480062Y83185D01*
X478155Y85092D01*
X485782Y69225D02*
X481968Y67318D01*
X478155Y63505D01*
X478155Y59692D01*
X480062Y57785D01*
X483875Y57785D01*
X485782Y59692D01*
X485782Y61598D01*
X483875Y63505D01*
X478155Y63505D01*
X478155Y43825D02*
X485782Y43825D01*
X485782Y41918D01*
X478155Y34292D01*
X478155Y32385D01*
X480062Y18425D02*
X478155Y16518D01*
X480062Y18425D02*
X483875Y18425D01*
X485782Y16518D01*
X485782Y14612D01*
X483875Y12705D01*
X485782Y10798D01*
X485782Y8892D01*
X483875Y6985D01*
X480062Y6985D01*
X478155Y8892D01*
X478155Y10798D01*
X480062Y12705D01*
X478155Y14612D01*
X478155Y16518D01*
X480062Y12705D02*
X483875Y12705D01*
D17*
X504190Y63500D03*
X504190Y38100D03*
X504190Y12700D03*
X504190Y190500D03*
X504190Y165100D03*
X504190Y139700D03*
X504190Y114300D03*
X504190Y88900D03*
D18*
X469138Y12700D03*
X469138Y38100D03*
X469138Y63500D03*
X469138Y88900D03*
X469138Y114300D03*
X469138Y139700D03*
X469138Y165100D03*
X469138Y190500D03*
D10*
X252730Y207010D02*
X252728Y207110D01*
X252722Y207209D01*
X252712Y207309D01*
X252699Y207407D01*
X252681Y207506D01*
X252660Y207603D01*
X252635Y207699D01*
X252606Y207795D01*
X252573Y207889D01*
X252537Y207982D01*
X252497Y208073D01*
X252453Y208163D01*
X252406Y208251D01*
X252356Y208337D01*
X252302Y208421D01*
X252245Y208503D01*
X252185Y208582D01*
X252121Y208660D01*
X252055Y208734D01*
X251986Y208806D01*
X251914Y208875D01*
X251840Y208941D01*
X251762Y209005D01*
X251683Y209065D01*
X251601Y209122D01*
X251517Y209176D01*
X251431Y209226D01*
X251343Y209273D01*
X251253Y209317D01*
X251162Y209357D01*
X251069Y209393D01*
X250975Y209426D01*
X250879Y209455D01*
X250783Y209480D01*
X250686Y209501D01*
X250587Y209519D01*
X250489Y209532D01*
X250389Y209542D01*
X250290Y209548D01*
X250190Y209550D01*
X232410Y209550D02*
X232310Y209548D01*
X232211Y209542D01*
X232111Y209532D01*
X232013Y209519D01*
X231914Y209501D01*
X231817Y209480D01*
X231721Y209455D01*
X231625Y209426D01*
X231531Y209393D01*
X231438Y209357D01*
X231347Y209317D01*
X231257Y209273D01*
X231169Y209226D01*
X231083Y209176D01*
X230999Y209122D01*
X230917Y209065D01*
X230838Y209005D01*
X230760Y208941D01*
X230686Y208875D01*
X230614Y208806D01*
X230545Y208734D01*
X230479Y208660D01*
X230415Y208582D01*
X230355Y208503D01*
X230298Y208421D01*
X230244Y208337D01*
X230194Y208251D01*
X230147Y208163D01*
X230103Y208073D01*
X230063Y207982D01*
X230027Y207889D01*
X229994Y207795D01*
X229965Y207699D01*
X229940Y207603D01*
X229919Y207506D01*
X229901Y207407D01*
X229888Y207309D01*
X229878Y207209D01*
X229872Y207110D01*
X229870Y207010D01*
X229870Y148590D02*
X229872Y148490D01*
X229878Y148391D01*
X229888Y148291D01*
X229901Y148193D01*
X229919Y148094D01*
X229940Y147997D01*
X229965Y147901D01*
X229994Y147805D01*
X230027Y147711D01*
X230063Y147618D01*
X230103Y147527D01*
X230147Y147437D01*
X230194Y147349D01*
X230244Y147263D01*
X230298Y147179D01*
X230355Y147097D01*
X230415Y147018D01*
X230479Y146940D01*
X230545Y146866D01*
X230614Y146794D01*
X230686Y146725D01*
X230760Y146659D01*
X230838Y146595D01*
X230917Y146535D01*
X230999Y146478D01*
X231083Y146424D01*
X231169Y146374D01*
X231257Y146327D01*
X231347Y146283D01*
X231438Y146243D01*
X231531Y146207D01*
X231625Y146174D01*
X231721Y146145D01*
X231817Y146120D01*
X231914Y146099D01*
X232013Y146081D01*
X232111Y146068D01*
X232211Y146058D01*
X232310Y146052D01*
X232410Y146050D01*
X250190Y146050D02*
X250290Y146052D01*
X250389Y146058D01*
X250489Y146068D01*
X250587Y146081D01*
X250686Y146099D01*
X250783Y146120D01*
X250879Y146145D01*
X250975Y146174D01*
X251069Y146207D01*
X251162Y146243D01*
X251253Y146283D01*
X251343Y146327D01*
X251431Y146374D01*
X251517Y146424D01*
X251601Y146478D01*
X251683Y146535D01*
X251762Y146595D01*
X251840Y146659D01*
X251914Y146725D01*
X251986Y146794D01*
X252055Y146866D01*
X252121Y146940D01*
X252185Y147018D01*
X252245Y147097D01*
X252302Y147179D01*
X252356Y147263D01*
X252406Y147349D01*
X252453Y147437D01*
X252497Y147527D01*
X252537Y147618D01*
X252573Y147711D01*
X252606Y147805D01*
X252635Y147901D01*
X252660Y147997D01*
X252681Y148094D01*
X252699Y148193D01*
X252712Y148291D01*
X252722Y148391D01*
X252728Y148490D01*
X252730Y148590D01*
X252730Y203200D02*
X252730Y207010D01*
X252730Y203200D02*
X251460Y201930D01*
X229870Y203200D02*
X229870Y207010D01*
X229870Y203200D02*
X231140Y201930D01*
X251460Y153670D02*
X252730Y152400D01*
X251460Y153670D02*
X251460Y201930D01*
X231140Y153670D02*
X229870Y152400D01*
X231140Y153670D02*
X231140Y201930D01*
X252730Y152400D02*
X252730Y148590D01*
X229870Y148590D02*
X229870Y152400D01*
D12*
X236337Y177907D02*
X247777Y177907D01*
X247777Y185534D01*
X240151Y189601D02*
X236337Y193414D01*
X247777Y193414D01*
X247777Y189601D02*
X247777Y197228D01*
D10*
X415290Y209550D02*
X415390Y209548D01*
X415489Y209542D01*
X415589Y209532D01*
X415687Y209519D01*
X415786Y209501D01*
X415883Y209480D01*
X415979Y209455D01*
X416075Y209426D01*
X416169Y209393D01*
X416262Y209357D01*
X416353Y209317D01*
X416443Y209273D01*
X416531Y209226D01*
X416617Y209176D01*
X416701Y209122D01*
X416783Y209065D01*
X416862Y209005D01*
X416940Y208941D01*
X417014Y208875D01*
X417086Y208806D01*
X417155Y208734D01*
X417221Y208660D01*
X417285Y208582D01*
X417345Y208503D01*
X417402Y208421D01*
X417456Y208337D01*
X417506Y208251D01*
X417553Y208163D01*
X417597Y208073D01*
X417637Y207982D01*
X417673Y207889D01*
X417706Y207795D01*
X417735Y207699D01*
X417760Y207603D01*
X417781Y207506D01*
X417799Y207407D01*
X417812Y207309D01*
X417822Y207209D01*
X417828Y207110D01*
X417830Y207010D01*
X397510Y209550D02*
X397410Y209548D01*
X397311Y209542D01*
X397211Y209532D01*
X397113Y209519D01*
X397014Y209501D01*
X396917Y209480D01*
X396821Y209455D01*
X396725Y209426D01*
X396631Y209393D01*
X396538Y209357D01*
X396447Y209317D01*
X396357Y209273D01*
X396269Y209226D01*
X396183Y209176D01*
X396099Y209122D01*
X396017Y209065D01*
X395938Y209005D01*
X395860Y208941D01*
X395786Y208875D01*
X395714Y208806D01*
X395645Y208734D01*
X395579Y208660D01*
X395515Y208582D01*
X395455Y208503D01*
X395398Y208421D01*
X395344Y208337D01*
X395294Y208251D01*
X395247Y208163D01*
X395203Y208073D01*
X395163Y207982D01*
X395127Y207889D01*
X395094Y207795D01*
X395065Y207699D01*
X395040Y207603D01*
X395019Y207506D01*
X395001Y207407D01*
X394988Y207309D01*
X394978Y207209D01*
X394972Y207110D01*
X394970Y207010D01*
X394970Y148590D02*
X394972Y148490D01*
X394978Y148391D01*
X394988Y148291D01*
X395001Y148193D01*
X395019Y148094D01*
X395040Y147997D01*
X395065Y147901D01*
X395094Y147805D01*
X395127Y147711D01*
X395163Y147618D01*
X395203Y147527D01*
X395247Y147437D01*
X395294Y147349D01*
X395344Y147263D01*
X395398Y147179D01*
X395455Y147097D01*
X395515Y147018D01*
X395579Y146940D01*
X395645Y146866D01*
X395714Y146794D01*
X395786Y146725D01*
X395860Y146659D01*
X395938Y146595D01*
X396017Y146535D01*
X396099Y146478D01*
X396183Y146424D01*
X396269Y146374D01*
X396357Y146327D01*
X396447Y146283D01*
X396538Y146243D01*
X396631Y146207D01*
X396725Y146174D01*
X396821Y146145D01*
X396917Y146120D01*
X397014Y146099D01*
X397113Y146081D01*
X397211Y146068D01*
X397311Y146058D01*
X397410Y146052D01*
X397510Y146050D01*
X415290Y146050D02*
X415390Y146052D01*
X415489Y146058D01*
X415589Y146068D01*
X415687Y146081D01*
X415786Y146099D01*
X415883Y146120D01*
X415979Y146145D01*
X416075Y146174D01*
X416169Y146207D01*
X416262Y146243D01*
X416353Y146283D01*
X416443Y146327D01*
X416531Y146374D01*
X416617Y146424D01*
X416701Y146478D01*
X416783Y146535D01*
X416862Y146595D01*
X416940Y146659D01*
X417014Y146725D01*
X417086Y146794D01*
X417155Y146866D01*
X417221Y146940D01*
X417285Y147018D01*
X417345Y147097D01*
X417402Y147179D01*
X417456Y147263D01*
X417506Y147349D01*
X417553Y147437D01*
X417597Y147527D01*
X417637Y147618D01*
X417673Y147711D01*
X417706Y147805D01*
X417735Y147901D01*
X417760Y147997D01*
X417781Y148094D01*
X417799Y148193D01*
X417812Y148291D01*
X417822Y148391D01*
X417828Y148490D01*
X417830Y148590D01*
X417830Y203200D02*
X417830Y207010D01*
X417830Y203200D02*
X416560Y201930D01*
X394970Y203200D02*
X394970Y207010D01*
X394970Y203200D02*
X396240Y201930D01*
X416560Y153670D02*
X417830Y152400D01*
X416560Y153670D02*
X416560Y201930D01*
X396240Y153670D02*
X394970Y152400D01*
X396240Y153670D02*
X396240Y201930D01*
X417830Y152400D02*
X417830Y148590D01*
X394970Y148590D02*
X394970Y152400D01*
D12*
X401437Y177907D02*
X412877Y177907D01*
X412877Y185534D01*
X412877Y189601D02*
X412877Y197228D01*
X405251Y197228D02*
X412877Y189601D01*
X405251Y197228D02*
X403344Y197228D01*
X401437Y195321D01*
X401437Y191508D01*
X403344Y189601D01*
M02*
