G04 EAGLE Gerber X2 export*
G04 #@! %TF.Part,Single*
G04 #@! %TF.FileFunction,Soldermask,Top,1*
G04 #@! %TF.FilePolarity,Negative*
G04 #@! %TF.GenerationSoftware,Autodesk,EAGLE,9.0.0*
G04 #@! %TF.CreationDate,2019-08-08T19:18:26Z*
G75*
%MOMM*%
%FSLAX34Y34*%
%LPD*%
%AMOC8*
5,1,8,0,0,1.08239X$1,22.5*%
G01*
%ADD10P,1.759533X8X292.500000*%
%ADD11P,1.951982X8X22.500000*%
%ADD12C,1.803400*%
%ADD13P,1.649562X8X292.500000*%
%ADD14P,1.649562X8X112.500000*%
%ADD15P,1.649562X8X22.500000*%
%ADD16P,1.759533X8X112.500000*%
%ADD17P,1.951982X8X292.500000*%
%ADD18C,1.524000*%
%ADD19C,1.727200*%


D10*
X63500Y215900D03*
X63500Y139700D03*
D11*
X-25400Y190500D03*
D12*
X-50800Y190500D03*
D13*
X25400Y190500D03*
X25400Y63500D03*
D14*
X101600Y88900D03*
X101600Y215900D03*
D11*
X152400Y50800D03*
D12*
X127000Y50800D03*
D15*
X165100Y12700D03*
X292100Y12700D03*
D14*
X165100Y88900D03*
X165100Y215900D03*
D11*
X381000Y12700D03*
D12*
X355600Y12700D03*
D10*
X203200Y215900D03*
X203200Y139700D03*
X279400Y139700D03*
X279400Y63500D03*
D16*
X317500Y63500D03*
X317500Y139700D03*
D17*
X330200Y190500D03*
D12*
X330200Y215900D03*
D14*
X368300Y63500D03*
X368300Y190500D03*
D18*
X0Y70104D02*
X0Y56896D01*
X-50800Y56896D02*
X-50800Y70104D01*
X-25400Y70104D02*
X-25400Y56896D01*
X203200Y82296D02*
X203200Y95504D01*
X254000Y95504D02*
X254000Y82296D01*
X228600Y82296D02*
X228600Y95504D01*
X-82296Y190500D02*
X-95504Y190500D01*
X-95504Y165100D02*
X-82296Y165100D01*
X-82296Y139700D02*
X-95504Y139700D01*
X-95504Y114300D02*
X-82296Y114300D01*
X-82296Y88900D02*
X-95504Y88900D01*
X-95504Y63500D02*
X-82296Y63500D01*
X-82296Y38100D02*
X-95504Y38100D01*
X-95504Y12700D02*
X-82296Y12700D01*
D19*
X449580Y12700D02*
X464820Y12700D01*
X464820Y38100D02*
X449580Y38100D01*
X449580Y63500D02*
X464820Y63500D01*
X464820Y88900D02*
X449580Y88900D01*
X449580Y114300D02*
X464820Y114300D01*
X464820Y139700D02*
X449580Y139700D01*
X449580Y165100D02*
X464820Y165100D01*
X464820Y190500D02*
X449580Y190500D01*
D13*
X241300Y215900D03*
X241300Y139700D03*
X406400Y215900D03*
X406400Y139700D03*
M02*
