G04 EAGLE Gerber X2 export*
G04 #@! %TF.Part,Single*
G04 #@! %TF.FileFunction,Copper,L2,Bot,Mixed*
G04 #@! %TF.FilePolarity,Positive*
G04 #@! %TF.GenerationSoftware,Autodesk,EAGLE,9.0.0*
G04 #@! %TF.CreationDate,2019-08-08T19:16:13Z*
G75*
%MOMM*%
%FSLAX34Y34*%
%LPD*%
%AMOC8*
5,1,8,0,0,1.08239X$1,22.5*%
G01*
%ADD10C,1.828800*%
%ADD11P,1.979475X8X112.500000*%
%ADD12P,1.979475X8X292.500000*%
%ADD13C,2.032000*%
%ADD14C,0.609600*%
%ADD15C,1.016000*%

G36*
X698068Y10167D02*
X698068Y10167D01*
X698144Y10165D01*
X698313Y10187D01*
X698484Y10201D01*
X698558Y10219D01*
X698633Y10229D01*
X698797Y10278D01*
X698963Y10319D01*
X699032Y10349D01*
X699106Y10371D01*
X699259Y10447D01*
X699416Y10514D01*
X699480Y10555D01*
X699549Y10588D01*
X699688Y10687D01*
X699832Y10779D01*
X699889Y10830D01*
X699951Y10874D01*
X700072Y10994D01*
X700200Y11108D01*
X700248Y11167D01*
X700302Y11221D01*
X700403Y11359D01*
X700510Y11492D01*
X700547Y11558D01*
X700592Y11619D01*
X700669Y11772D01*
X700754Y11920D01*
X700780Y11992D01*
X700815Y12060D01*
X700866Y12223D01*
X700925Y12383D01*
X700940Y12458D01*
X700963Y12530D01*
X700975Y12635D01*
X701020Y12867D01*
X701027Y13103D01*
X701039Y13208D01*
X701039Y13700D01*
X701352Y15674D01*
X701970Y17575D01*
X702877Y19357D01*
X704131Y21083D01*
X704175Y21154D01*
X704226Y21221D01*
X704303Y21365D01*
X704388Y21504D01*
X704420Y21582D01*
X704459Y21656D01*
X704512Y21810D01*
X704574Y21961D01*
X704592Y22043D01*
X704619Y22122D01*
X704647Y22283D01*
X704683Y22442D01*
X704688Y22526D01*
X704702Y22609D01*
X704703Y22772D01*
X704713Y22935D01*
X704704Y23018D01*
X704705Y23102D01*
X704680Y23263D01*
X704663Y23426D01*
X704641Y23506D01*
X704628Y23589D01*
X704577Y23744D01*
X704535Y23902D01*
X704500Y23978D01*
X704474Y24058D01*
X704399Y24203D01*
X704331Y24351D01*
X704285Y24421D01*
X704246Y24495D01*
X704181Y24577D01*
X704058Y24762D01*
X703886Y24946D01*
X703821Y25029D01*
X699958Y28891D01*
X697483Y34866D01*
X697483Y41334D01*
X699958Y47309D01*
X701295Y48645D01*
X701344Y48703D01*
X701400Y48755D01*
X701504Y48891D01*
X701614Y49021D01*
X701654Y49087D01*
X701700Y49147D01*
X701781Y49297D01*
X701869Y49444D01*
X701897Y49514D01*
X701933Y49582D01*
X701989Y49743D01*
X702052Y49902D01*
X702068Y49976D01*
X702093Y50048D01*
X702122Y50217D01*
X702159Y50383D01*
X702163Y50460D01*
X702176Y50535D01*
X702177Y50705D01*
X702186Y50876D01*
X702178Y50952D01*
X702179Y51028D01*
X702152Y51197D01*
X702134Y51367D01*
X702114Y51440D01*
X702102Y51515D01*
X702049Y51678D01*
X702003Y51842D01*
X701972Y51911D01*
X701948Y51984D01*
X701869Y52136D01*
X701798Y52291D01*
X701755Y52354D01*
X701720Y52422D01*
X701654Y52504D01*
X701522Y52700D01*
X701360Y52872D01*
X701295Y52955D01*
X699958Y54291D01*
X697483Y60266D01*
X697483Y66734D01*
X699958Y72709D01*
X701295Y74045D01*
X701344Y74103D01*
X701400Y74155D01*
X701504Y74291D01*
X701614Y74421D01*
X701654Y74487D01*
X701700Y74547D01*
X701781Y74697D01*
X701869Y74844D01*
X701897Y74914D01*
X701933Y74982D01*
X701989Y75143D01*
X702052Y75302D01*
X702068Y75376D01*
X702093Y75448D01*
X702122Y75617D01*
X702159Y75783D01*
X702163Y75860D01*
X702176Y75935D01*
X702177Y76105D01*
X702186Y76276D01*
X702178Y76352D01*
X702179Y76428D01*
X702152Y76597D01*
X702134Y76767D01*
X702114Y76840D01*
X702102Y76915D01*
X702049Y77078D01*
X702003Y77242D01*
X701972Y77311D01*
X701948Y77384D01*
X701869Y77536D01*
X701798Y77691D01*
X701755Y77754D01*
X701720Y77822D01*
X701654Y77904D01*
X701522Y78100D01*
X701360Y78272D01*
X701295Y78355D01*
X699958Y79691D01*
X697483Y85666D01*
X697483Y92134D01*
X699958Y98109D01*
X701295Y99445D01*
X701311Y99465D01*
X701326Y99478D01*
X701355Y99513D01*
X701400Y99555D01*
X701504Y99691D01*
X701614Y99821D01*
X701654Y99887D01*
X701700Y99947D01*
X701781Y100097D01*
X701869Y100244D01*
X701897Y100314D01*
X701933Y100382D01*
X701989Y100543D01*
X702052Y100702D01*
X702068Y100776D01*
X702093Y100848D01*
X702122Y101017D01*
X702159Y101183D01*
X702163Y101260D01*
X702176Y101335D01*
X702177Y101505D01*
X702186Y101676D01*
X702178Y101752D01*
X702179Y101828D01*
X702152Y101997D01*
X702134Y102167D01*
X702114Y102240D01*
X702102Y102315D01*
X702049Y102478D01*
X702003Y102642D01*
X701972Y102711D01*
X701948Y102784D01*
X701869Y102936D01*
X701798Y103091D01*
X701755Y103154D01*
X701720Y103222D01*
X701654Y103304D01*
X701522Y103500D01*
X701360Y103672D01*
X701295Y103755D01*
X699958Y105091D01*
X697483Y111066D01*
X697483Y117534D01*
X699958Y123509D01*
X701295Y124845D01*
X701344Y124903D01*
X701400Y124955D01*
X701504Y125091D01*
X701614Y125221D01*
X701654Y125287D01*
X701700Y125347D01*
X701781Y125497D01*
X701869Y125644D01*
X701897Y125714D01*
X701933Y125782D01*
X701989Y125943D01*
X702052Y126102D01*
X702068Y126176D01*
X702093Y126248D01*
X702122Y126417D01*
X702159Y126583D01*
X702163Y126660D01*
X702176Y126735D01*
X702177Y126905D01*
X702186Y127076D01*
X702178Y127152D01*
X702179Y127228D01*
X702152Y127397D01*
X702134Y127567D01*
X702114Y127640D01*
X702102Y127715D01*
X702049Y127878D01*
X702003Y128042D01*
X701972Y128111D01*
X701948Y128184D01*
X701869Y128336D01*
X701798Y128491D01*
X701755Y128554D01*
X701720Y128622D01*
X701654Y128704D01*
X701522Y128900D01*
X701360Y129072D01*
X701295Y129155D01*
X700787Y129663D01*
X700700Y129737D01*
X700619Y129818D01*
X700512Y129896D01*
X700411Y129982D01*
X700313Y130041D01*
X700221Y130108D01*
X700102Y130168D01*
X699988Y130237D01*
X699882Y130279D01*
X699780Y130331D01*
X699653Y130371D01*
X699530Y130420D01*
X699419Y130445D01*
X699310Y130479D01*
X699216Y130489D01*
X699049Y130527D01*
X698724Y130545D01*
X698632Y130555D01*
X690850Y130555D01*
X690736Y130546D01*
X690622Y130547D01*
X690491Y130526D01*
X690358Y130515D01*
X690248Y130488D01*
X690135Y130470D01*
X690008Y130429D01*
X689880Y130397D01*
X689775Y130352D01*
X689666Y130316D01*
X689548Y130254D01*
X689426Y130202D01*
X689330Y130141D01*
X689229Y130088D01*
X689155Y130029D01*
X689010Y129937D01*
X688768Y129721D01*
X688695Y129663D01*
X678280Y119247D01*
X674919Y117855D01*
X524734Y117855D01*
X524696Y117852D01*
X524658Y117854D01*
X524450Y117832D01*
X524242Y117815D01*
X524205Y117806D01*
X524167Y117802D01*
X523966Y117747D01*
X523763Y117697D01*
X523728Y117682D01*
X523692Y117671D01*
X523502Y117584D01*
X523310Y117502D01*
X523278Y117482D01*
X523243Y117466D01*
X523070Y117349D01*
X522894Y117237D01*
X522866Y117212D01*
X522834Y117190D01*
X522682Y117047D01*
X522526Y116908D01*
X522502Y116879D01*
X522474Y116853D01*
X522347Y116687D01*
X522216Y116524D01*
X522197Y116491D01*
X522174Y116461D01*
X522075Y116277D01*
X521972Y116096D01*
X521959Y116060D01*
X521941Y116026D01*
X521873Y115829D01*
X521801Y115633D01*
X521793Y115596D01*
X521781Y115560D01*
X521746Y115353D01*
X521706Y115149D01*
X521705Y115111D01*
X521698Y115073D01*
X521697Y114864D01*
X521691Y114656D01*
X521696Y114618D01*
X521695Y114580D01*
X521728Y114373D01*
X521755Y114167D01*
X521766Y114130D01*
X521772Y114093D01*
X521837Y113894D01*
X521897Y113695D01*
X521914Y113660D01*
X521926Y113624D01*
X522023Y113439D01*
X522114Y113251D01*
X522136Y113220D01*
X522154Y113186D01*
X522212Y113114D01*
X522400Y112849D01*
X522521Y112727D01*
X522579Y112653D01*
X528453Y106780D01*
X529845Y103419D01*
X529845Y51771D01*
X529854Y51657D01*
X529853Y51543D01*
X529874Y51412D01*
X529885Y51279D01*
X529912Y51169D01*
X529930Y51056D01*
X529971Y50929D01*
X530003Y50801D01*
X530048Y50696D01*
X530084Y50587D01*
X530145Y50469D01*
X530198Y50347D01*
X530259Y50251D01*
X530312Y50150D01*
X530371Y50076D01*
X530463Y49931D01*
X530679Y49689D01*
X530737Y49616D01*
X532216Y48137D01*
X532303Y48063D01*
X532384Y47982D01*
X532491Y47904D01*
X532592Y47818D01*
X532690Y47759D01*
X532782Y47692D01*
X532901Y47632D01*
X533015Y47563D01*
X533121Y47521D01*
X533223Y47469D01*
X533350Y47429D01*
X533473Y47380D01*
X533584Y47355D01*
X533693Y47321D01*
X533787Y47311D01*
X533955Y47273D01*
X534279Y47255D01*
X534371Y47245D01*
X557829Y47245D01*
X557943Y47254D01*
X558057Y47253D01*
X558188Y47274D01*
X558321Y47285D01*
X558431Y47312D01*
X558544Y47330D01*
X558671Y47371D01*
X558799Y47403D01*
X558904Y47448D01*
X559013Y47484D01*
X559131Y47546D01*
X559253Y47598D01*
X559349Y47659D01*
X559450Y47712D01*
X559524Y47771D01*
X559669Y47863D01*
X559911Y48079D01*
X559984Y48137D01*
X565187Y53341D01*
X577813Y53341D01*
X586741Y44413D01*
X586741Y31787D01*
X577813Y22859D01*
X565187Y22859D01*
X559984Y28063D01*
X559897Y28137D01*
X559816Y28218D01*
X559709Y28296D01*
X559608Y28382D01*
X559510Y28441D01*
X559418Y28508D01*
X559299Y28568D01*
X559185Y28637D01*
X559079Y28679D01*
X558977Y28731D01*
X558850Y28771D01*
X558727Y28820D01*
X558616Y28845D01*
X558507Y28879D01*
X558413Y28889D01*
X558245Y28927D01*
X557921Y28945D01*
X557829Y28955D01*
X534371Y28955D01*
X534257Y28946D01*
X534143Y28947D01*
X534012Y28926D01*
X533879Y28915D01*
X533769Y28888D01*
X533656Y28870D01*
X533529Y28829D01*
X533401Y28797D01*
X533296Y28752D01*
X533187Y28716D01*
X533069Y28654D01*
X532947Y28602D01*
X532851Y28541D01*
X532750Y28488D01*
X532676Y28429D01*
X532531Y28337D01*
X532289Y28121D01*
X532216Y28063D01*
X527013Y22859D01*
X514387Y22859D01*
X505459Y31787D01*
X505459Y44413D01*
X510663Y49616D01*
X510737Y49703D01*
X510818Y49784D01*
X510896Y49891D01*
X510982Y49992D01*
X511041Y50090D01*
X511108Y50182D01*
X511168Y50301D01*
X511237Y50415D01*
X511279Y50521D01*
X511331Y50623D01*
X511371Y50750D01*
X511420Y50873D01*
X511445Y50984D01*
X511479Y51093D01*
X511489Y51187D01*
X511527Y51355D01*
X511545Y51679D01*
X511555Y51771D01*
X511555Y96550D01*
X511546Y96664D01*
X511547Y96778D01*
X511526Y96909D01*
X511515Y97042D01*
X511488Y97152D01*
X511470Y97265D01*
X511429Y97392D01*
X511397Y97520D01*
X511352Y97625D01*
X511316Y97734D01*
X511254Y97852D01*
X511202Y97974D01*
X511141Y98070D01*
X511088Y98171D01*
X511029Y98245D01*
X510937Y98390D01*
X510721Y98632D01*
X510663Y98705D01*
X505105Y104263D01*
X505018Y104337D01*
X504937Y104418D01*
X504830Y104496D01*
X504729Y104582D01*
X504631Y104641D01*
X504539Y104708D01*
X504420Y104768D01*
X504306Y104837D01*
X504200Y104879D01*
X504098Y104931D01*
X503971Y104971D01*
X503848Y105020D01*
X503737Y105045D01*
X503628Y105079D01*
X503534Y105089D01*
X503366Y105127D01*
X503042Y105145D01*
X502950Y105155D01*
X496770Y105155D01*
X496709Y105150D01*
X496648Y105153D01*
X496463Y105130D01*
X496278Y105115D01*
X496219Y105101D01*
X496158Y105093D01*
X495980Y105041D01*
X495799Y104997D01*
X495743Y104973D01*
X495684Y104955D01*
X495517Y104875D01*
X495346Y104802D01*
X495294Y104769D01*
X495239Y104743D01*
X495086Y104637D01*
X494930Y104537D01*
X494884Y104496D01*
X494834Y104462D01*
X494701Y104332D01*
X494562Y104208D01*
X494523Y104161D01*
X494480Y104118D01*
X494369Y103969D01*
X494252Y103824D01*
X494222Y103772D01*
X494185Y103723D01*
X494100Y103557D01*
X494008Y103396D01*
X493987Y103338D01*
X493959Y103284D01*
X493901Y103108D01*
X493836Y102933D01*
X493825Y102873D01*
X493806Y102815D01*
X493777Y102631D01*
X493742Y102449D01*
X493740Y102388D01*
X493730Y102328D01*
X493732Y102142D01*
X493726Y101956D01*
X493734Y101895D01*
X493735Y101834D01*
X493756Y101732D01*
X493791Y101467D01*
X493851Y101267D01*
X493872Y101166D01*
X493997Y100780D01*
X494285Y98964D01*
X494285Y91947D01*
X482600Y91947D01*
X482524Y91941D01*
X482448Y91944D01*
X482279Y91921D01*
X482109Y91907D01*
X482035Y91889D01*
X481959Y91879D01*
X481795Y91830D01*
X481630Y91789D01*
X481560Y91759D01*
X481487Y91737D01*
X481333Y91662D01*
X481176Y91594D01*
X481112Y91553D01*
X481044Y91520D01*
X480904Y91421D01*
X480760Y91329D01*
X480704Y91278D01*
X480641Y91234D01*
X480520Y91114D01*
X480392Y91000D01*
X480344Y90941D01*
X480290Y90887D01*
X480189Y90749D01*
X480082Y90616D01*
X480044Y90550D01*
X479999Y90488D01*
X479923Y90336D01*
X479838Y90187D01*
X479811Y90116D01*
X479777Y90048D01*
X479726Y89885D01*
X479666Y89725D01*
X479652Y89650D01*
X479629Y89577D01*
X479617Y89473D01*
X479572Y89241D01*
X479564Y89005D01*
X479553Y88900D01*
X479553Y68460D01*
X478115Y68927D01*
X476476Y69762D01*
X474988Y70843D01*
X474569Y71262D01*
X474511Y71311D01*
X474459Y71367D01*
X474324Y71471D01*
X474193Y71582D01*
X474128Y71621D01*
X474068Y71667D01*
X473917Y71748D01*
X473771Y71836D01*
X473700Y71864D01*
X473633Y71900D01*
X473471Y71956D01*
X473313Y72019D01*
X473238Y72036D01*
X473166Y72060D01*
X472998Y72089D01*
X472831Y72126D01*
X472755Y72130D01*
X472680Y72143D01*
X472509Y72144D01*
X472338Y72154D01*
X472263Y72146D01*
X472186Y72146D01*
X472018Y72120D01*
X471848Y72102D01*
X471774Y72081D01*
X471699Y72069D01*
X471537Y72016D01*
X471372Y71971D01*
X471303Y71939D01*
X471231Y71915D01*
X471079Y71836D01*
X470924Y71765D01*
X470861Y71723D01*
X470793Y71687D01*
X470711Y71622D01*
X470514Y71490D01*
X470342Y71328D01*
X470260Y71262D01*
X465833Y66836D01*
X460232Y64515D01*
X454168Y64515D01*
X448567Y66836D01*
X446655Y68748D01*
X446597Y68797D01*
X446545Y68852D01*
X446409Y68956D01*
X446279Y69067D01*
X446214Y69106D01*
X446153Y69153D01*
X446002Y69234D01*
X445856Y69322D01*
X445786Y69350D01*
X445718Y69386D01*
X445557Y69441D01*
X445398Y69505D01*
X445324Y69521D01*
X445252Y69546D01*
X445083Y69575D01*
X444917Y69612D01*
X444840Y69616D01*
X444765Y69629D01*
X444595Y69630D01*
X444424Y69639D01*
X444348Y69631D01*
X444272Y69632D01*
X444103Y69605D01*
X443933Y69587D01*
X443860Y69567D01*
X443785Y69555D01*
X443622Y69502D01*
X443458Y69456D01*
X443388Y69425D01*
X443316Y69401D01*
X443165Y69322D01*
X443009Y69251D01*
X442946Y69208D01*
X442879Y69173D01*
X442796Y69107D01*
X442600Y68975D01*
X442428Y68813D01*
X442345Y68748D01*
X441837Y68240D01*
X441763Y68153D01*
X441682Y68072D01*
X441604Y67965D01*
X441518Y67864D01*
X441459Y67766D01*
X441392Y67674D01*
X441332Y67555D01*
X441263Y67441D01*
X441221Y67335D01*
X441169Y67233D01*
X441129Y67106D01*
X441080Y66983D01*
X441055Y66872D01*
X441021Y66763D01*
X441011Y66669D01*
X440973Y66501D01*
X440955Y66177D01*
X440945Y66085D01*
X440945Y61681D01*
X439553Y58320D01*
X424280Y43047D01*
X420919Y41655D01*
X391881Y41655D01*
X388520Y43047D01*
X373247Y58320D01*
X371855Y61681D01*
X371855Y66085D01*
X371846Y66199D01*
X371847Y66313D01*
X371826Y66444D01*
X371815Y66577D01*
X371788Y66688D01*
X371770Y66800D01*
X371729Y66927D01*
X371697Y67055D01*
X371652Y67160D01*
X371616Y67269D01*
X371554Y67387D01*
X371502Y67509D01*
X371441Y67605D01*
X371388Y67707D01*
X371329Y67780D01*
X371237Y67925D01*
X371021Y68167D01*
X370963Y68240D01*
X370455Y68748D01*
X370397Y68797D01*
X370344Y68852D01*
X370209Y68956D01*
X370079Y69067D01*
X370013Y69106D01*
X369953Y69153D01*
X369803Y69234D01*
X369656Y69322D01*
X369585Y69350D01*
X369518Y69386D01*
X369357Y69441D01*
X369198Y69505D01*
X369124Y69521D01*
X369052Y69546D01*
X368883Y69575D01*
X368716Y69612D01*
X368640Y69616D01*
X368565Y69629D01*
X368394Y69630D01*
X368224Y69639D01*
X368148Y69631D01*
X368072Y69632D01*
X367903Y69605D01*
X367733Y69587D01*
X367660Y69567D01*
X367585Y69555D01*
X367422Y69502D01*
X367258Y69456D01*
X367188Y69425D01*
X367116Y69401D01*
X366964Y69322D01*
X366809Y69251D01*
X366746Y69208D01*
X366678Y69173D01*
X366596Y69107D01*
X366400Y68975D01*
X366228Y68813D01*
X366145Y68748D01*
X364233Y66836D01*
X358632Y64515D01*
X352568Y64515D01*
X346967Y66836D01*
X345055Y68748D01*
X344997Y68797D01*
X344944Y68852D01*
X344809Y68956D01*
X344679Y69067D01*
X344613Y69106D01*
X344553Y69153D01*
X344403Y69233D01*
X344256Y69322D01*
X344185Y69350D01*
X344118Y69386D01*
X343957Y69441D01*
X343798Y69505D01*
X343724Y69521D01*
X343652Y69546D01*
X343483Y69575D01*
X343316Y69612D01*
X343240Y69616D01*
X343165Y69629D01*
X342994Y69630D01*
X342824Y69639D01*
X342748Y69631D01*
X342672Y69632D01*
X342503Y69605D01*
X342333Y69587D01*
X342260Y69567D01*
X342185Y69555D01*
X342022Y69502D01*
X341858Y69456D01*
X341788Y69425D01*
X341716Y69401D01*
X341565Y69322D01*
X341409Y69251D01*
X341346Y69208D01*
X341278Y69173D01*
X341196Y69107D01*
X341000Y68975D01*
X340828Y68813D01*
X340745Y68748D01*
X340237Y68240D01*
X340163Y68153D01*
X340082Y68072D01*
X340004Y67965D01*
X339918Y67864D01*
X339859Y67766D01*
X339792Y67674D01*
X339732Y67555D01*
X339663Y67441D01*
X339621Y67335D01*
X339569Y67233D01*
X339529Y67106D01*
X339480Y66983D01*
X339455Y66872D01*
X339421Y66763D01*
X339411Y66669D01*
X339373Y66501D01*
X339355Y66177D01*
X339345Y66085D01*
X339345Y48981D01*
X337953Y45620D01*
X322680Y30347D01*
X319319Y28955D01*
X293071Y28955D01*
X292957Y28946D01*
X292843Y28947D01*
X292712Y28926D01*
X292579Y28915D01*
X292469Y28888D01*
X292356Y28870D01*
X292229Y28829D01*
X292101Y28797D01*
X291996Y28752D01*
X291887Y28716D01*
X291769Y28654D01*
X291647Y28602D01*
X291551Y28541D01*
X291450Y28488D01*
X291376Y28429D01*
X291231Y28337D01*
X290989Y28121D01*
X290916Y28063D01*
X285713Y22859D01*
X273087Y22859D01*
X267884Y28063D01*
X267797Y28137D01*
X267716Y28218D01*
X267609Y28296D01*
X267508Y28382D01*
X267410Y28441D01*
X267318Y28508D01*
X267199Y28568D01*
X267085Y28637D01*
X266979Y28679D01*
X266877Y28731D01*
X266750Y28771D01*
X266627Y28820D01*
X266516Y28845D01*
X266407Y28879D01*
X266313Y28889D01*
X266145Y28927D01*
X265821Y28945D01*
X265729Y28955D01*
X254971Y28955D01*
X254857Y28946D01*
X254743Y28947D01*
X254612Y28926D01*
X254479Y28915D01*
X254369Y28888D01*
X254256Y28870D01*
X254129Y28829D01*
X254001Y28797D01*
X253896Y28752D01*
X253787Y28716D01*
X253669Y28654D01*
X253547Y28602D01*
X253451Y28541D01*
X253350Y28488D01*
X253276Y28429D01*
X253131Y28337D01*
X252889Y28121D01*
X252816Y28063D01*
X247613Y22859D01*
X234987Y22859D01*
X226059Y31787D01*
X226059Y44413D01*
X234987Y53341D01*
X247613Y53341D01*
X252816Y48137D01*
X252903Y48063D01*
X252984Y47982D01*
X253091Y47904D01*
X253192Y47818D01*
X253290Y47759D01*
X253382Y47692D01*
X253501Y47632D01*
X253615Y47563D01*
X253721Y47521D01*
X253823Y47469D01*
X253950Y47429D01*
X254073Y47380D01*
X254184Y47355D01*
X254293Y47321D01*
X254387Y47311D01*
X254555Y47273D01*
X254879Y47255D01*
X254971Y47245D01*
X265729Y47245D01*
X265843Y47254D01*
X265957Y47253D01*
X266088Y47274D01*
X266221Y47285D01*
X266331Y47312D01*
X266444Y47330D01*
X266571Y47371D01*
X266699Y47403D01*
X266804Y47448D01*
X266913Y47484D01*
X267031Y47546D01*
X267153Y47598D01*
X267249Y47659D01*
X267350Y47712D01*
X267424Y47771D01*
X267569Y47863D01*
X267811Y48079D01*
X267884Y48137D01*
X273087Y53341D01*
X285713Y53341D01*
X290916Y48137D01*
X291003Y48063D01*
X291084Y47982D01*
X291191Y47904D01*
X291292Y47818D01*
X291390Y47759D01*
X291482Y47692D01*
X291601Y47632D01*
X291715Y47563D01*
X291821Y47521D01*
X291923Y47469D01*
X292050Y47429D01*
X292173Y47380D01*
X292284Y47355D01*
X292393Y47321D01*
X292487Y47311D01*
X292655Y47273D01*
X292979Y47255D01*
X293071Y47245D01*
X312450Y47245D01*
X312564Y47254D01*
X312678Y47253D01*
X312809Y47274D01*
X312942Y47285D01*
X313052Y47312D01*
X313165Y47330D01*
X313292Y47371D01*
X313420Y47403D01*
X313525Y47448D01*
X313634Y47484D01*
X313752Y47546D01*
X313874Y47598D01*
X313970Y47659D01*
X314071Y47712D01*
X314145Y47771D01*
X314290Y47863D01*
X314532Y48079D01*
X314605Y48137D01*
X320163Y53695D01*
X320237Y53782D01*
X320318Y53863D01*
X320396Y53970D01*
X320482Y54071D01*
X320541Y54169D01*
X320608Y54261D01*
X320668Y54380D01*
X320737Y54494D01*
X320779Y54600D01*
X320831Y54702D01*
X320871Y54829D01*
X320920Y54952D01*
X320939Y55037D01*
X320941Y55044D01*
X320946Y55068D01*
X320979Y55172D01*
X320989Y55266D01*
X321027Y55434D01*
X321030Y55499D01*
X321036Y55528D01*
X321041Y55693D01*
X321045Y55758D01*
X321055Y55850D01*
X321055Y66085D01*
X321046Y66199D01*
X321047Y66313D01*
X321026Y66444D01*
X321015Y66577D01*
X320988Y66687D01*
X320970Y66800D01*
X320929Y66927D01*
X320897Y67055D01*
X320852Y67160D01*
X320816Y67269D01*
X320754Y67387D01*
X320702Y67509D01*
X320641Y67605D01*
X320588Y67706D01*
X320529Y67780D01*
X320437Y67925D01*
X320221Y68167D01*
X320163Y68240D01*
X317280Y71123D01*
X314959Y76724D01*
X314959Y101076D01*
X317280Y106677D01*
X321567Y110964D01*
X327168Y113285D01*
X333232Y113285D01*
X338833Y110964D01*
X340745Y109052D01*
X340803Y109003D01*
X340855Y108948D01*
X340991Y108844D01*
X341121Y108733D01*
X341187Y108694D01*
X341247Y108647D01*
X341397Y108566D01*
X341544Y108478D01*
X341614Y108450D01*
X341682Y108414D01*
X341843Y108359D01*
X342002Y108295D01*
X342076Y108279D01*
X342148Y108254D01*
X342317Y108225D01*
X342483Y108188D01*
X342560Y108184D01*
X342635Y108171D01*
X342806Y108170D01*
X342976Y108161D01*
X343052Y108169D01*
X343128Y108168D01*
X343297Y108195D01*
X343467Y108213D01*
X343540Y108233D01*
X343615Y108245D01*
X343778Y108298D01*
X343942Y108344D01*
X344012Y108375D01*
X344084Y108399D01*
X344236Y108478D01*
X344391Y108549D01*
X344454Y108592D01*
X344522Y108627D01*
X344604Y108693D01*
X344800Y108825D01*
X344973Y108987D01*
X345055Y109052D01*
X345563Y109560D01*
X345637Y109647D01*
X345718Y109728D01*
X345796Y109835D01*
X345882Y109936D01*
X345941Y110034D01*
X346008Y110126D01*
X346068Y110245D01*
X346137Y110359D01*
X346179Y110465D01*
X346231Y110567D01*
X346271Y110694D01*
X346320Y110817D01*
X346345Y110928D01*
X346379Y111037D01*
X346389Y111131D01*
X346427Y111299D01*
X346445Y111623D01*
X346455Y111715D01*
X346455Y116119D01*
X347847Y119480D01*
X363120Y134753D01*
X366481Y136145D01*
X373683Y136145D01*
X373825Y136156D01*
X373968Y136158D01*
X374071Y136176D01*
X374175Y136185D01*
X374313Y136219D01*
X374454Y136244D01*
X374552Y136278D01*
X374654Y136303D01*
X374785Y136360D01*
X374919Y136407D01*
X375011Y136457D01*
X375107Y136498D01*
X375227Y136574D01*
X375352Y136643D01*
X375435Y136707D01*
X375523Y136763D01*
X375629Y136858D01*
X375742Y136945D01*
X375813Y137022D01*
X375891Y137092D01*
X375981Y137203D01*
X376078Y137307D01*
X376135Y137394D01*
X376201Y137476D01*
X376271Y137599D01*
X376350Y137718D01*
X376393Y137814D01*
X376445Y137904D01*
X376495Y138038D01*
X376553Y138168D01*
X376580Y138269D01*
X376617Y138367D01*
X376644Y138506D01*
X376681Y138644D01*
X376691Y138749D01*
X376711Y138851D01*
X376716Y138993D01*
X376730Y139135D01*
X376723Y139240D01*
X376727Y139344D01*
X376708Y139485D01*
X376699Y139628D01*
X376676Y139729D01*
X376662Y139833D01*
X376621Y139970D01*
X376589Y140109D01*
X376550Y140205D01*
X376520Y140305D01*
X376457Y140434D01*
X376403Y140566D01*
X376349Y140655D01*
X376303Y140749D01*
X376220Y140865D01*
X376146Y140986D01*
X376078Y141066D01*
X376017Y141151D01*
X375917Y141252D01*
X375824Y141360D01*
X375744Y141428D01*
X375671Y141502D01*
X375556Y141586D01*
X375446Y141677D01*
X375377Y141715D01*
X375272Y141792D01*
X374885Y141988D01*
X374849Y142007D01*
X372367Y143036D01*
X370455Y144948D01*
X370397Y144997D01*
X370345Y145052D01*
X370209Y145156D01*
X370079Y145267D01*
X370013Y145306D01*
X369953Y145353D01*
X369803Y145434D01*
X369656Y145522D01*
X369586Y145550D01*
X369518Y145586D01*
X369357Y145641D01*
X369198Y145705D01*
X369124Y145721D01*
X369052Y145746D01*
X368883Y145775D01*
X368717Y145812D01*
X368640Y145816D01*
X368565Y145829D01*
X368394Y145830D01*
X368224Y145839D01*
X368148Y145831D01*
X368072Y145832D01*
X367903Y145805D01*
X367733Y145787D01*
X367660Y145767D01*
X367585Y145755D01*
X367422Y145702D01*
X367258Y145656D01*
X367188Y145625D01*
X367116Y145601D01*
X366964Y145522D01*
X366809Y145451D01*
X366746Y145408D01*
X366678Y145373D01*
X366596Y145307D01*
X366400Y145175D01*
X366227Y145013D01*
X366145Y144948D01*
X364233Y143036D01*
X358632Y140715D01*
X352568Y140715D01*
X346967Y143036D01*
X345055Y144948D01*
X344997Y144997D01*
X344945Y145052D01*
X344809Y145156D01*
X344679Y145267D01*
X344613Y145306D01*
X344553Y145353D01*
X344403Y145434D01*
X344256Y145522D01*
X344186Y145550D01*
X344118Y145586D01*
X343957Y145641D01*
X343798Y145705D01*
X343724Y145721D01*
X343652Y145746D01*
X343483Y145775D01*
X343317Y145812D01*
X343240Y145816D01*
X343165Y145829D01*
X342994Y145830D01*
X342824Y145839D01*
X342748Y145831D01*
X342672Y145832D01*
X342503Y145805D01*
X342333Y145787D01*
X342260Y145767D01*
X342185Y145755D01*
X342022Y145702D01*
X341858Y145656D01*
X341788Y145625D01*
X341716Y145601D01*
X341564Y145522D01*
X341409Y145451D01*
X341346Y145408D01*
X341278Y145373D01*
X341196Y145307D01*
X341000Y145175D01*
X340827Y145013D01*
X340745Y144948D01*
X338833Y143036D01*
X333232Y140715D01*
X327168Y140715D01*
X321567Y143036D01*
X317280Y147323D01*
X314959Y152924D01*
X314959Y177314D01*
X315022Y177483D01*
X315035Y177548D01*
X315055Y177611D01*
X315082Y177790D01*
X315117Y177967D01*
X315119Y178033D01*
X315129Y178099D01*
X315126Y178280D01*
X315132Y178460D01*
X315123Y178526D01*
X315123Y178592D01*
X315091Y178770D01*
X315068Y178949D01*
X315048Y179013D01*
X315037Y179078D01*
X314977Y179249D01*
X314925Y179422D01*
X314896Y179481D01*
X314874Y179544D01*
X314788Y179703D01*
X314708Y179865D01*
X314670Y179919D01*
X314638Y179977D01*
X314527Y180120D01*
X314423Y180267D01*
X314376Y180314D01*
X314335Y180367D01*
X314203Y180489D01*
X314076Y180618D01*
X314022Y180657D01*
X313974Y180702D01*
X313823Y180802D01*
X313677Y180908D01*
X313618Y180938D01*
X313563Y180975D01*
X313398Y181049D01*
X313237Y181131D01*
X313173Y181151D01*
X313113Y181178D01*
X312939Y181225D01*
X312766Y181279D01*
X312714Y181285D01*
X312636Y181306D01*
X312145Y181355D01*
X312112Y181353D01*
X312089Y181355D01*
X292055Y181355D01*
X292017Y181352D01*
X291979Y181354D01*
X291771Y181332D01*
X291563Y181315D01*
X291526Y181306D01*
X291488Y181302D01*
X291287Y181247D01*
X291085Y181197D01*
X291050Y181182D01*
X291013Y181171D01*
X290823Y181084D01*
X290631Y181002D01*
X290599Y180982D01*
X290564Y180966D01*
X290391Y180849D01*
X290215Y180737D01*
X290187Y180712D01*
X290155Y180690D01*
X290003Y180547D01*
X289847Y180408D01*
X289823Y180379D01*
X289795Y180353D01*
X289668Y180187D01*
X289537Y180024D01*
X289518Y179991D01*
X289495Y179961D01*
X289396Y179777D01*
X289293Y179596D01*
X289280Y179560D01*
X289262Y179526D01*
X289194Y179329D01*
X289122Y179133D01*
X289114Y179096D01*
X289102Y179060D01*
X289067Y178853D01*
X289027Y178649D01*
X289026Y178611D01*
X289019Y178573D01*
X289018Y178364D01*
X289012Y178156D01*
X289017Y178118D01*
X289016Y178080D01*
X289049Y177873D01*
X289076Y177667D01*
X289087Y177630D01*
X289093Y177593D01*
X289158Y177394D01*
X289219Y177195D01*
X289235Y177160D01*
X289247Y177124D01*
X289344Y176939D01*
X289435Y176751D01*
X289457Y176720D01*
X289475Y176686D01*
X289533Y176614D01*
X289721Y176349D01*
X289842Y176227D01*
X289900Y176153D01*
X294641Y171413D01*
X294641Y158787D01*
X285713Y149859D01*
X273087Y149859D01*
X264159Y158787D01*
X264159Y171413D01*
X268900Y176153D01*
X268924Y176182D01*
X268953Y176208D01*
X269084Y176370D01*
X269219Y176529D01*
X269239Y176562D01*
X269263Y176592D01*
X269366Y176773D01*
X269474Y176952D01*
X269488Y176987D01*
X269507Y177020D01*
X269580Y177216D01*
X269657Y177410D01*
X269665Y177447D01*
X269678Y177483D01*
X269718Y177688D01*
X269764Y177892D01*
X269766Y177930D01*
X269773Y177967D01*
X269780Y178175D01*
X269791Y178384D01*
X269787Y178422D01*
X269788Y178460D01*
X269761Y178667D01*
X269739Y178875D01*
X269729Y178911D01*
X269724Y178949D01*
X269664Y179149D01*
X269608Y179350D01*
X269593Y179385D01*
X269581Y179422D01*
X269490Y179609D01*
X269403Y179799D01*
X269381Y179831D01*
X269365Y179865D01*
X269244Y180034D01*
X269127Y180208D01*
X269101Y180236D01*
X269079Y180267D01*
X268933Y180415D01*
X268789Y180568D01*
X268759Y180591D01*
X268732Y180618D01*
X268564Y180741D01*
X268398Y180868D01*
X268364Y180886D01*
X268334Y180908D01*
X268148Y181002D01*
X267963Y181101D01*
X267927Y181114D01*
X267893Y181131D01*
X267694Y181193D01*
X267497Y181261D01*
X267459Y181267D01*
X267423Y181279D01*
X267330Y181289D01*
X267010Y181344D01*
X266838Y181345D01*
X266745Y181355D01*
X253955Y181355D01*
X253917Y181352D01*
X253879Y181354D01*
X253671Y181332D01*
X253463Y181315D01*
X253426Y181306D01*
X253388Y181302D01*
X253187Y181247D01*
X252985Y181197D01*
X252950Y181182D01*
X252913Y181171D01*
X252723Y181084D01*
X252531Y181002D01*
X252499Y180982D01*
X252464Y180966D01*
X252291Y180849D01*
X252115Y180737D01*
X252087Y180712D01*
X252055Y180690D01*
X251903Y180547D01*
X251747Y180408D01*
X251723Y180379D01*
X251695Y180353D01*
X251568Y180187D01*
X251437Y180024D01*
X251418Y179991D01*
X251395Y179961D01*
X251296Y179777D01*
X251193Y179596D01*
X251180Y179560D01*
X251162Y179526D01*
X251094Y179329D01*
X251022Y179133D01*
X251014Y179096D01*
X251002Y179060D01*
X250967Y178853D01*
X250927Y178649D01*
X250926Y178611D01*
X250919Y178573D01*
X250918Y178364D01*
X250912Y178156D01*
X250917Y178118D01*
X250916Y178080D01*
X250949Y177873D01*
X250976Y177667D01*
X250987Y177630D01*
X250993Y177593D01*
X251058Y177394D01*
X251119Y177195D01*
X251135Y177160D01*
X251147Y177124D01*
X251244Y176939D01*
X251335Y176751D01*
X251357Y176720D01*
X251375Y176686D01*
X251433Y176614D01*
X251621Y176349D01*
X251742Y176227D01*
X251800Y176153D01*
X256541Y171413D01*
X256541Y158787D01*
X247613Y149859D01*
X234987Y149859D01*
X226059Y158787D01*
X226059Y171413D01*
X230800Y176153D01*
X230824Y176182D01*
X230853Y176208D01*
X230984Y176370D01*
X231119Y176529D01*
X231139Y176562D01*
X231163Y176592D01*
X231266Y176773D01*
X231374Y176952D01*
X231388Y176987D01*
X231407Y177020D01*
X231480Y177216D01*
X231557Y177410D01*
X231565Y177447D01*
X231578Y177483D01*
X231618Y177688D01*
X231664Y177892D01*
X231666Y177930D01*
X231673Y177967D01*
X231680Y178175D01*
X231691Y178384D01*
X231687Y178422D01*
X231688Y178460D01*
X231661Y178667D01*
X231639Y178875D01*
X231629Y178911D01*
X231624Y178949D01*
X231564Y179149D01*
X231508Y179350D01*
X231493Y179385D01*
X231481Y179422D01*
X231390Y179609D01*
X231303Y179799D01*
X231281Y179831D01*
X231265Y179865D01*
X231144Y180034D01*
X231027Y180208D01*
X231001Y180236D01*
X230979Y180267D01*
X230833Y180415D01*
X230689Y180568D01*
X230659Y180591D01*
X230632Y180618D01*
X230464Y180741D01*
X230298Y180868D01*
X230264Y180886D01*
X230234Y180908D01*
X230048Y181002D01*
X229863Y181101D01*
X229827Y181114D01*
X229793Y181131D01*
X229594Y181193D01*
X229397Y181261D01*
X229359Y181267D01*
X229323Y181279D01*
X229230Y181289D01*
X228910Y181344D01*
X228738Y181345D01*
X228645Y181355D01*
X111715Y181355D01*
X111601Y181346D01*
X111487Y181347D01*
X111356Y181326D01*
X111223Y181315D01*
X111113Y181288D01*
X111000Y181270D01*
X110873Y181229D01*
X110745Y181197D01*
X110640Y181152D01*
X110531Y181116D01*
X110413Y181055D01*
X110291Y181002D01*
X110195Y180941D01*
X110094Y180888D01*
X110020Y180829D01*
X109875Y180737D01*
X109633Y180521D01*
X109560Y180463D01*
X109052Y179955D01*
X109003Y179897D01*
X108948Y179845D01*
X108844Y179709D01*
X108733Y179579D01*
X108694Y179514D01*
X108647Y179453D01*
X108566Y179303D01*
X108478Y179156D01*
X108450Y179086D01*
X108414Y179018D01*
X108359Y178856D01*
X108295Y178698D01*
X108279Y178624D01*
X108254Y178552D01*
X108225Y178383D01*
X108188Y178217D01*
X108184Y178141D01*
X108171Y178065D01*
X108170Y177894D01*
X108161Y177724D01*
X108169Y177648D01*
X108168Y177572D01*
X108195Y177403D01*
X108213Y177233D01*
X108233Y177160D01*
X108245Y177085D01*
X108298Y176922D01*
X108344Y176758D01*
X108375Y176689D01*
X108399Y176616D01*
X108478Y176464D01*
X108549Y176309D01*
X108592Y176246D01*
X108627Y176178D01*
X108693Y176096D01*
X108825Y175900D01*
X108899Y175821D01*
X108913Y175801D01*
X108992Y175721D01*
X109052Y175645D01*
X110964Y173733D01*
X113285Y168132D01*
X113285Y162068D01*
X110964Y156467D01*
X109052Y154555D01*
X109003Y154497D01*
X108948Y154445D01*
X108844Y154309D01*
X108733Y154179D01*
X108694Y154113D01*
X108647Y154053D01*
X108566Y153903D01*
X108478Y153756D01*
X108450Y153686D01*
X108414Y153618D01*
X108359Y153457D01*
X108295Y153298D01*
X108279Y153224D01*
X108254Y153152D01*
X108225Y152983D01*
X108188Y152817D01*
X108184Y152740D01*
X108171Y152665D01*
X108170Y152494D01*
X108161Y152324D01*
X108169Y152248D01*
X108168Y152172D01*
X108195Y152003D01*
X108213Y151833D01*
X108233Y151760D01*
X108245Y151685D01*
X108298Y151522D01*
X108344Y151358D01*
X108375Y151288D01*
X108399Y151216D01*
X108478Y151064D01*
X108549Y150909D01*
X108592Y150846D01*
X108627Y150778D01*
X108693Y150696D01*
X108825Y150500D01*
X108987Y150327D01*
X109052Y150245D01*
X110964Y148333D01*
X113285Y142732D01*
X113285Y136668D01*
X110964Y131067D01*
X109052Y129155D01*
X109003Y129097D01*
X108948Y129045D01*
X108844Y128909D01*
X108733Y128779D01*
X108694Y128713D01*
X108647Y128653D01*
X108566Y128503D01*
X108478Y128356D01*
X108450Y128286D01*
X108414Y128218D01*
X108359Y128057D01*
X108295Y127898D01*
X108279Y127824D01*
X108254Y127752D01*
X108225Y127583D01*
X108188Y127417D01*
X108184Y127340D01*
X108171Y127265D01*
X108170Y127094D01*
X108161Y126924D01*
X108169Y126848D01*
X108168Y126772D01*
X108195Y126603D01*
X108213Y126433D01*
X108233Y126360D01*
X108245Y126285D01*
X108298Y126122D01*
X108344Y125958D01*
X108375Y125888D01*
X108399Y125816D01*
X108478Y125664D01*
X108549Y125509D01*
X108592Y125446D01*
X108627Y125378D01*
X108693Y125296D01*
X108825Y125100D01*
X108987Y124927D01*
X109052Y124845D01*
X110964Y122933D01*
X113285Y117332D01*
X113285Y111268D01*
X110964Y105667D01*
X109052Y103755D01*
X109003Y103697D01*
X108948Y103645D01*
X108844Y103509D01*
X108733Y103379D01*
X108694Y103313D01*
X108647Y103253D01*
X108566Y103103D01*
X108478Y102956D01*
X108450Y102886D01*
X108414Y102818D01*
X108359Y102657D01*
X108295Y102498D01*
X108279Y102424D01*
X108254Y102352D01*
X108225Y102183D01*
X108188Y102017D01*
X108184Y101940D01*
X108171Y101865D01*
X108170Y101694D01*
X108161Y101524D01*
X108169Y101448D01*
X108168Y101372D01*
X108195Y101203D01*
X108213Y101033D01*
X108233Y100960D01*
X108245Y100885D01*
X108298Y100722D01*
X108344Y100558D01*
X108375Y100488D01*
X108399Y100416D01*
X108478Y100264D01*
X108549Y100109D01*
X108592Y100046D01*
X108627Y99978D01*
X108693Y99896D01*
X108825Y99700D01*
X108877Y99645D01*
X108895Y99619D01*
X108993Y99520D01*
X109052Y99445D01*
X110964Y97533D01*
X113285Y91932D01*
X113285Y85868D01*
X110964Y80267D01*
X109052Y78355D01*
X109003Y78297D01*
X108948Y78245D01*
X108844Y78109D01*
X108733Y77979D01*
X108694Y77913D01*
X108647Y77853D01*
X108566Y77703D01*
X108478Y77556D01*
X108450Y77486D01*
X108414Y77418D01*
X108359Y77257D01*
X108295Y77098D01*
X108279Y77024D01*
X108254Y76952D01*
X108225Y76783D01*
X108188Y76617D01*
X108184Y76540D01*
X108171Y76465D01*
X108170Y76294D01*
X108161Y76124D01*
X108169Y76048D01*
X108168Y75972D01*
X108195Y75803D01*
X108213Y75633D01*
X108233Y75560D01*
X108245Y75485D01*
X108298Y75322D01*
X108344Y75158D01*
X108375Y75088D01*
X108399Y75016D01*
X108478Y74864D01*
X108549Y74709D01*
X108592Y74646D01*
X108627Y74578D01*
X108693Y74496D01*
X108825Y74300D01*
X108987Y74127D01*
X109052Y74045D01*
X110964Y72133D01*
X113285Y66532D01*
X113285Y60468D01*
X110964Y54867D01*
X109052Y52955D01*
X109003Y52897D01*
X108948Y52845D01*
X108844Y52709D01*
X108733Y52579D01*
X108694Y52513D01*
X108647Y52453D01*
X108566Y52303D01*
X108478Y52156D01*
X108450Y52086D01*
X108414Y52018D01*
X108359Y51857D01*
X108295Y51698D01*
X108279Y51624D01*
X108254Y51552D01*
X108225Y51383D01*
X108188Y51217D01*
X108184Y51140D01*
X108171Y51065D01*
X108170Y50894D01*
X108161Y50724D01*
X108169Y50648D01*
X108168Y50572D01*
X108195Y50403D01*
X108213Y50233D01*
X108233Y50160D01*
X108245Y50085D01*
X108298Y49922D01*
X108344Y49758D01*
X108375Y49688D01*
X108399Y49616D01*
X108478Y49464D01*
X108549Y49309D01*
X108592Y49246D01*
X108627Y49178D01*
X108693Y49096D01*
X108825Y48900D01*
X108987Y48727D01*
X109052Y48645D01*
X110964Y46733D01*
X113285Y41132D01*
X113285Y35068D01*
X110964Y29467D01*
X106538Y25040D01*
X106489Y24982D01*
X106433Y24930D01*
X106329Y24794D01*
X106218Y24664D01*
X106179Y24599D01*
X106133Y24539D01*
X106052Y24388D01*
X105964Y24242D01*
X105936Y24171D01*
X105899Y24104D01*
X105844Y23942D01*
X105781Y23784D01*
X105764Y23709D01*
X105740Y23637D01*
X105711Y23469D01*
X105674Y23302D01*
X105670Y23226D01*
X105657Y23151D01*
X105656Y22980D01*
X105646Y22809D01*
X105654Y22733D01*
X105654Y22657D01*
X105680Y22489D01*
X105699Y22319D01*
X105719Y22245D01*
X105731Y22170D01*
X105784Y22008D01*
X105829Y21843D01*
X105861Y21774D01*
X105885Y21701D01*
X105964Y21550D01*
X106035Y21395D01*
X106078Y21331D01*
X106113Y21264D01*
X106178Y21182D01*
X106310Y20985D01*
X106472Y20813D01*
X106538Y20731D01*
X106957Y20312D01*
X108038Y18824D01*
X108873Y17185D01*
X109441Y15436D01*
X109729Y13620D01*
X109729Y13208D01*
X109735Y13132D01*
X109733Y13056D01*
X109755Y12887D01*
X109769Y12716D01*
X109787Y12642D01*
X109797Y12567D01*
X109846Y12403D01*
X109887Y12237D01*
X109917Y12168D01*
X109939Y12094D01*
X110015Y11941D01*
X110082Y11784D01*
X110123Y11720D01*
X110156Y11651D01*
X110255Y11512D01*
X110347Y11368D01*
X110398Y11311D01*
X110442Y11249D01*
X110562Y11128D01*
X110676Y11000D01*
X110735Y10952D01*
X110789Y10898D01*
X110927Y10797D01*
X111060Y10690D01*
X111126Y10653D01*
X111187Y10608D01*
X111340Y10531D01*
X111488Y10446D01*
X111560Y10420D01*
X111628Y10385D01*
X111791Y10334D01*
X111951Y10275D01*
X112026Y10260D01*
X112098Y10237D01*
X112203Y10225D01*
X112435Y10180D01*
X112671Y10173D01*
X112776Y10161D01*
X697992Y10161D01*
X698068Y10167D01*
G37*
G36*
X65100Y10167D02*
X65100Y10167D01*
X65176Y10165D01*
X65345Y10187D01*
X65516Y10201D01*
X65590Y10219D01*
X65665Y10229D01*
X65829Y10278D01*
X65995Y10319D01*
X66064Y10349D01*
X66138Y10371D01*
X66291Y10447D01*
X66448Y10514D01*
X66512Y10555D01*
X66581Y10588D01*
X66720Y10687D01*
X66864Y10779D01*
X66921Y10830D01*
X66983Y10874D01*
X67104Y10994D01*
X67232Y11108D01*
X67280Y11167D01*
X67334Y11221D01*
X67435Y11359D01*
X67542Y11492D01*
X67579Y11558D01*
X67624Y11619D01*
X67701Y11772D01*
X67786Y11920D01*
X67812Y11992D01*
X67847Y12060D01*
X67898Y12223D01*
X67957Y12383D01*
X67972Y12458D01*
X67995Y12530D01*
X68007Y12635D01*
X68052Y12867D01*
X68059Y13103D01*
X68071Y13208D01*
X68071Y13620D01*
X68359Y15436D01*
X68927Y17185D01*
X69762Y18824D01*
X70843Y20312D01*
X71262Y20731D01*
X71311Y20789D01*
X71367Y20841D01*
X71471Y20976D01*
X71582Y21107D01*
X71621Y21172D01*
X71667Y21232D01*
X71748Y21383D01*
X71836Y21529D01*
X71864Y21600D01*
X71900Y21667D01*
X71956Y21829D01*
X72019Y21987D01*
X72036Y22062D01*
X72060Y22134D01*
X72089Y22302D01*
X72126Y22469D01*
X72130Y22545D01*
X72143Y22620D01*
X72144Y22791D01*
X72154Y22962D01*
X72146Y23037D01*
X72146Y23114D01*
X72120Y23282D01*
X72102Y23452D01*
X72081Y23526D01*
X72069Y23601D01*
X72016Y23763D01*
X71971Y23928D01*
X71939Y23997D01*
X71915Y24069D01*
X71836Y24221D01*
X71765Y24376D01*
X71723Y24439D01*
X71687Y24507D01*
X71622Y24589D01*
X71490Y24786D01*
X71328Y24958D01*
X71262Y25040D01*
X66836Y29467D01*
X64515Y35068D01*
X64515Y41132D01*
X66836Y46733D01*
X68748Y48645D01*
X68797Y48703D01*
X68852Y48756D01*
X68956Y48891D01*
X69067Y49021D01*
X69106Y49087D01*
X69153Y49147D01*
X69233Y49297D01*
X69322Y49444D01*
X69350Y49515D01*
X69386Y49582D01*
X69441Y49743D01*
X69505Y49902D01*
X69521Y49976D01*
X69546Y50048D01*
X69575Y50217D01*
X69612Y50384D01*
X69616Y50460D01*
X69629Y50535D01*
X69630Y50706D01*
X69639Y50876D01*
X69631Y50952D01*
X69632Y51028D01*
X69605Y51197D01*
X69587Y51367D01*
X69567Y51440D01*
X69555Y51515D01*
X69502Y51678D01*
X69456Y51842D01*
X69425Y51912D01*
X69401Y51984D01*
X69322Y52135D01*
X69251Y52291D01*
X69208Y52354D01*
X69173Y52422D01*
X69107Y52504D01*
X68975Y52700D01*
X68813Y52872D01*
X68748Y52955D01*
X66836Y54867D01*
X64515Y60468D01*
X64515Y66532D01*
X66836Y72133D01*
X68748Y74045D01*
X68797Y74103D01*
X68852Y74156D01*
X68956Y74291D01*
X69067Y74421D01*
X69106Y74487D01*
X69153Y74547D01*
X69233Y74697D01*
X69322Y74844D01*
X69350Y74915D01*
X69386Y74982D01*
X69441Y75143D01*
X69505Y75302D01*
X69521Y75376D01*
X69546Y75448D01*
X69575Y75617D01*
X69612Y75784D01*
X69616Y75860D01*
X69629Y75935D01*
X69630Y76106D01*
X69639Y76276D01*
X69631Y76352D01*
X69632Y76428D01*
X69605Y76597D01*
X69587Y76767D01*
X69567Y76840D01*
X69555Y76915D01*
X69502Y77078D01*
X69456Y77242D01*
X69425Y77312D01*
X69401Y77384D01*
X69322Y77535D01*
X69251Y77691D01*
X69208Y77754D01*
X69173Y77822D01*
X69107Y77904D01*
X68975Y78100D01*
X68813Y78272D01*
X68748Y78355D01*
X66836Y80267D01*
X64515Y85868D01*
X64515Y91932D01*
X66836Y97533D01*
X68748Y99445D01*
X68764Y99465D01*
X68779Y99478D01*
X68807Y99513D01*
X68852Y99556D01*
X68956Y99691D01*
X69067Y99821D01*
X69106Y99887D01*
X69153Y99947D01*
X69233Y100097D01*
X69322Y100244D01*
X69350Y100315D01*
X69386Y100382D01*
X69441Y100543D01*
X69505Y100702D01*
X69521Y100776D01*
X69546Y100848D01*
X69575Y101017D01*
X69612Y101184D01*
X69616Y101260D01*
X69629Y101335D01*
X69630Y101506D01*
X69639Y101676D01*
X69631Y101752D01*
X69632Y101828D01*
X69605Y101997D01*
X69587Y102167D01*
X69567Y102240D01*
X69555Y102315D01*
X69502Y102478D01*
X69456Y102642D01*
X69425Y102712D01*
X69401Y102784D01*
X69322Y102935D01*
X69251Y103091D01*
X69208Y103154D01*
X69173Y103222D01*
X69107Y103304D01*
X68975Y103500D01*
X68813Y103672D01*
X68748Y103755D01*
X66836Y105667D01*
X64515Y111268D01*
X64515Y117332D01*
X66836Y122933D01*
X68748Y124845D01*
X68797Y124903D01*
X68852Y124956D01*
X68956Y125091D01*
X69067Y125221D01*
X69106Y125287D01*
X69153Y125347D01*
X69233Y125497D01*
X69322Y125644D01*
X69350Y125715D01*
X69386Y125782D01*
X69441Y125943D01*
X69505Y126102D01*
X69521Y126176D01*
X69546Y126248D01*
X69575Y126417D01*
X69612Y126584D01*
X69616Y126660D01*
X69629Y126735D01*
X69630Y126906D01*
X69639Y127076D01*
X69631Y127152D01*
X69632Y127228D01*
X69605Y127397D01*
X69587Y127567D01*
X69567Y127640D01*
X69555Y127715D01*
X69502Y127878D01*
X69456Y128042D01*
X69425Y128112D01*
X69401Y128184D01*
X69322Y128335D01*
X69251Y128491D01*
X69208Y128554D01*
X69173Y128622D01*
X69107Y128704D01*
X68975Y128900D01*
X68813Y129072D01*
X68748Y129155D01*
X66836Y131067D01*
X64515Y136668D01*
X64515Y142732D01*
X66836Y148333D01*
X68748Y150245D01*
X68797Y150303D01*
X68852Y150356D01*
X68956Y150491D01*
X69067Y150621D01*
X69106Y150687D01*
X69153Y150747D01*
X69233Y150897D01*
X69322Y151044D01*
X69350Y151115D01*
X69386Y151182D01*
X69441Y151343D01*
X69505Y151502D01*
X69521Y151576D01*
X69546Y151648D01*
X69575Y151817D01*
X69612Y151984D01*
X69616Y152060D01*
X69629Y152135D01*
X69630Y152306D01*
X69639Y152476D01*
X69631Y152552D01*
X69632Y152628D01*
X69605Y152797D01*
X69587Y152967D01*
X69567Y153040D01*
X69555Y153115D01*
X69502Y153278D01*
X69456Y153442D01*
X69425Y153512D01*
X69401Y153584D01*
X69322Y153735D01*
X69251Y153891D01*
X69208Y153954D01*
X69173Y154022D01*
X69107Y154104D01*
X68975Y154300D01*
X68813Y154472D01*
X68748Y154555D01*
X66836Y156467D01*
X64515Y162068D01*
X64515Y168132D01*
X66836Y173733D01*
X68748Y175645D01*
X68757Y175656D01*
X68760Y175659D01*
X68775Y175678D01*
X68797Y175703D01*
X68852Y175756D01*
X68956Y175891D01*
X69067Y176021D01*
X69106Y176087D01*
X69153Y176147D01*
X69233Y176297D01*
X69322Y176444D01*
X69350Y176515D01*
X69386Y176582D01*
X69441Y176743D01*
X69505Y176902D01*
X69521Y176976D01*
X69546Y177048D01*
X69575Y177217D01*
X69612Y177384D01*
X69616Y177460D01*
X69629Y177535D01*
X69630Y177706D01*
X69639Y177876D01*
X69631Y177952D01*
X69632Y178028D01*
X69605Y178197D01*
X69587Y178367D01*
X69567Y178440D01*
X69555Y178515D01*
X69502Y178678D01*
X69456Y178842D01*
X69425Y178912D01*
X69401Y178984D01*
X69322Y179135D01*
X69251Y179291D01*
X69208Y179354D01*
X69173Y179422D01*
X69107Y179504D01*
X68975Y179700D01*
X68813Y179872D01*
X68748Y179955D01*
X66836Y181867D01*
X64515Y187468D01*
X64515Y193532D01*
X66460Y198226D01*
X66515Y198397D01*
X66578Y198567D01*
X66591Y198632D01*
X66611Y198695D01*
X66638Y198874D01*
X66673Y199051D01*
X66675Y199117D01*
X66685Y199183D01*
X66682Y199364D01*
X66688Y199544D01*
X66679Y199610D01*
X66678Y199677D01*
X66647Y199854D01*
X66623Y200033D01*
X66604Y200097D01*
X66593Y200162D01*
X66533Y200333D01*
X66481Y200506D01*
X66452Y200565D01*
X66430Y200628D01*
X66343Y200786D01*
X66264Y200949D01*
X66226Y201003D01*
X66194Y201061D01*
X66083Y201204D01*
X65979Y201351D01*
X65932Y201398D01*
X65891Y201451D01*
X65759Y201574D01*
X65632Y201702D01*
X65578Y201741D01*
X65529Y201786D01*
X65379Y201886D01*
X65233Y201992D01*
X65174Y202022D01*
X65118Y202059D01*
X64954Y202133D01*
X64793Y202215D01*
X64729Y202235D01*
X64669Y202262D01*
X64495Y202309D01*
X64322Y202363D01*
X64270Y202369D01*
X64192Y202390D01*
X63701Y202439D01*
X63668Y202437D01*
X63644Y202439D01*
X13208Y202439D01*
X13132Y202433D01*
X13056Y202435D01*
X12887Y202413D01*
X12716Y202399D01*
X12642Y202381D01*
X12567Y202371D01*
X12403Y202322D01*
X12237Y202281D01*
X12168Y202251D01*
X12094Y202229D01*
X11941Y202153D01*
X11784Y202086D01*
X11720Y202045D01*
X11651Y202012D01*
X11512Y201913D01*
X11368Y201821D01*
X11311Y201770D01*
X11249Y201726D01*
X11128Y201606D01*
X11000Y201492D01*
X10952Y201433D01*
X10898Y201379D01*
X10797Y201241D01*
X10690Y201108D01*
X10653Y201042D01*
X10608Y200981D01*
X10531Y200828D01*
X10446Y200680D01*
X10420Y200608D01*
X10385Y200540D01*
X10334Y200377D01*
X10275Y200217D01*
X10260Y200142D01*
X10237Y200070D01*
X10225Y199965D01*
X10180Y199733D01*
X10173Y199497D01*
X10161Y199392D01*
X10161Y13208D01*
X10167Y13132D01*
X10165Y13056D01*
X10187Y12887D01*
X10201Y12716D01*
X10219Y12642D01*
X10229Y12567D01*
X10278Y12403D01*
X10319Y12237D01*
X10349Y12168D01*
X10371Y12094D01*
X10447Y11941D01*
X10514Y11784D01*
X10555Y11720D01*
X10588Y11651D01*
X10687Y11512D01*
X10779Y11368D01*
X10830Y11311D01*
X10874Y11249D01*
X10994Y11128D01*
X11108Y11000D01*
X11167Y10952D01*
X11221Y10898D01*
X11359Y10797D01*
X11492Y10690D01*
X11558Y10653D01*
X11619Y10608D01*
X11772Y10531D01*
X11920Y10446D01*
X11992Y10420D01*
X12060Y10385D01*
X12223Y10334D01*
X12383Y10275D01*
X12458Y10260D01*
X12530Y10237D01*
X12635Y10225D01*
X12867Y10180D01*
X13103Y10173D01*
X13208Y10161D01*
X65024Y10161D01*
X65100Y10167D01*
G37*
G36*
X668164Y136154D02*
X668164Y136154D01*
X668278Y136153D01*
X668409Y136174D01*
X668542Y136185D01*
X668652Y136212D01*
X668765Y136230D01*
X668892Y136271D01*
X669020Y136303D01*
X669125Y136348D01*
X669234Y136384D01*
X669352Y136446D01*
X669474Y136498D01*
X669570Y136559D01*
X669671Y136612D01*
X669745Y136671D01*
X669890Y136763D01*
X670132Y136979D01*
X670205Y137037D01*
X680620Y147453D01*
X683981Y148845D01*
X698632Y148845D01*
X698746Y148854D01*
X698860Y148853D01*
X698991Y148874D01*
X699124Y148885D01*
X699234Y148912D01*
X699347Y148930D01*
X699474Y148971D01*
X699603Y149003D01*
X699707Y149048D01*
X699816Y149084D01*
X699934Y149145D01*
X700056Y149198D01*
X700152Y149259D01*
X700253Y149312D01*
X700327Y149371D01*
X700472Y149463D01*
X700714Y149679D01*
X700787Y149737D01*
X701295Y150245D01*
X701344Y150303D01*
X701400Y150355D01*
X701504Y150491D01*
X701614Y150621D01*
X701654Y150686D01*
X701700Y150747D01*
X701781Y150897D01*
X701869Y151044D01*
X701897Y151114D01*
X701933Y151182D01*
X701989Y151344D01*
X702052Y151502D01*
X702068Y151576D01*
X702093Y151648D01*
X702122Y151817D01*
X702159Y151983D01*
X702163Y152059D01*
X702176Y152135D01*
X702177Y152306D01*
X702186Y152476D01*
X702178Y152552D01*
X702179Y152628D01*
X702152Y152797D01*
X702134Y152967D01*
X702114Y153040D01*
X702102Y153115D01*
X702049Y153278D01*
X702004Y153442D01*
X701972Y153511D01*
X701948Y153584D01*
X701869Y153736D01*
X701798Y153891D01*
X701755Y153954D01*
X701720Y154022D01*
X701654Y154104D01*
X701522Y154300D01*
X701360Y154472D01*
X701295Y154555D01*
X699958Y155891D01*
X697483Y161866D01*
X697483Y168334D01*
X699958Y174309D01*
X701295Y175645D01*
X701304Y175656D01*
X701307Y175659D01*
X701322Y175677D01*
X701344Y175703D01*
X701400Y175755D01*
X701504Y175891D01*
X701614Y176021D01*
X701653Y176086D01*
X701700Y176147D01*
X701781Y176298D01*
X701869Y176444D01*
X701897Y176514D01*
X701933Y176582D01*
X701989Y176743D01*
X702052Y176902D01*
X702068Y176976D01*
X702093Y177048D01*
X702122Y177217D01*
X702159Y177383D01*
X702163Y177460D01*
X702176Y177535D01*
X702177Y177705D01*
X702186Y177876D01*
X702178Y177952D01*
X702179Y178028D01*
X702152Y178197D01*
X702134Y178367D01*
X702114Y178440D01*
X702102Y178515D01*
X702049Y178678D01*
X702003Y178842D01*
X701972Y178911D01*
X701948Y178984D01*
X701869Y179135D01*
X701798Y179291D01*
X701755Y179354D01*
X701720Y179421D01*
X701654Y179504D01*
X701522Y179700D01*
X701361Y179872D01*
X701295Y179955D01*
X700787Y180463D01*
X700700Y180537D01*
X700620Y180618D01*
X700512Y180696D01*
X700411Y180782D01*
X700313Y180841D01*
X700221Y180908D01*
X700102Y180968D01*
X699988Y181037D01*
X699882Y181079D01*
X699780Y181131D01*
X699653Y181171D01*
X699530Y181220D01*
X699419Y181245D01*
X699310Y181279D01*
X699216Y181289D01*
X699049Y181327D01*
X698724Y181345D01*
X698632Y181355D01*
X584155Y181355D01*
X584117Y181352D01*
X584079Y181354D01*
X583871Y181332D01*
X583663Y181315D01*
X583626Y181306D01*
X583588Y181302D01*
X583387Y181247D01*
X583185Y181197D01*
X583150Y181182D01*
X583113Y181171D01*
X582923Y181084D01*
X582731Y181002D01*
X582699Y180982D01*
X582664Y180966D01*
X582491Y180849D01*
X582315Y180737D01*
X582287Y180712D01*
X582255Y180690D01*
X582103Y180547D01*
X581947Y180408D01*
X581923Y180379D01*
X581895Y180353D01*
X581768Y180187D01*
X581637Y180024D01*
X581618Y179991D01*
X581595Y179961D01*
X581496Y179777D01*
X581393Y179596D01*
X581380Y179560D01*
X581362Y179526D01*
X581294Y179329D01*
X581222Y179133D01*
X581214Y179096D01*
X581202Y179060D01*
X581167Y178853D01*
X581127Y178649D01*
X581126Y178611D01*
X581119Y178573D01*
X581118Y178364D01*
X581112Y178156D01*
X581117Y178118D01*
X581116Y178080D01*
X581149Y177873D01*
X581176Y177667D01*
X581187Y177630D01*
X581193Y177593D01*
X581258Y177394D01*
X581319Y177195D01*
X581335Y177160D01*
X581347Y177124D01*
X581444Y176939D01*
X581535Y176751D01*
X581557Y176720D01*
X581575Y176686D01*
X581633Y176614D01*
X581821Y176349D01*
X581942Y176227D01*
X582000Y176153D01*
X586741Y171413D01*
X586741Y158787D01*
X577813Y149859D01*
X565187Y149859D01*
X556259Y158787D01*
X556259Y171413D01*
X561000Y176153D01*
X561024Y176182D01*
X561053Y176208D01*
X561184Y176370D01*
X561319Y176529D01*
X561339Y176562D01*
X561363Y176592D01*
X561466Y176773D01*
X561574Y176952D01*
X561588Y176987D01*
X561607Y177020D01*
X561680Y177216D01*
X561757Y177410D01*
X561765Y177447D01*
X561778Y177483D01*
X561818Y177688D01*
X561864Y177892D01*
X561866Y177930D01*
X561873Y177967D01*
X561880Y178175D01*
X561891Y178384D01*
X561887Y178422D01*
X561888Y178460D01*
X561861Y178667D01*
X561839Y178875D01*
X561829Y178911D01*
X561824Y178949D01*
X561764Y179149D01*
X561708Y179350D01*
X561693Y179385D01*
X561681Y179422D01*
X561590Y179609D01*
X561503Y179799D01*
X561481Y179831D01*
X561465Y179865D01*
X561344Y180034D01*
X561227Y180208D01*
X561201Y180236D01*
X561179Y180267D01*
X561033Y180415D01*
X560889Y180568D01*
X560859Y180591D01*
X560832Y180618D01*
X560664Y180741D01*
X560498Y180868D01*
X560464Y180886D01*
X560434Y180908D01*
X560248Y181002D01*
X560063Y181101D01*
X560027Y181114D01*
X559993Y181131D01*
X559794Y181193D01*
X559597Y181261D01*
X559559Y181267D01*
X559523Y181279D01*
X559430Y181289D01*
X559110Y181344D01*
X558938Y181345D01*
X558845Y181355D01*
X533355Y181355D01*
X533317Y181352D01*
X533279Y181354D01*
X533071Y181332D01*
X532863Y181315D01*
X532826Y181306D01*
X532788Y181302D01*
X532587Y181247D01*
X532385Y181197D01*
X532350Y181182D01*
X532313Y181171D01*
X532123Y181084D01*
X531931Y181002D01*
X531899Y180982D01*
X531864Y180966D01*
X531691Y180849D01*
X531515Y180737D01*
X531487Y180712D01*
X531455Y180690D01*
X531303Y180547D01*
X531147Y180408D01*
X531123Y180379D01*
X531095Y180353D01*
X530968Y180187D01*
X530837Y180024D01*
X530818Y179991D01*
X530795Y179961D01*
X530696Y179777D01*
X530593Y179596D01*
X530580Y179560D01*
X530562Y179526D01*
X530494Y179329D01*
X530422Y179133D01*
X530414Y179096D01*
X530402Y179060D01*
X530367Y178853D01*
X530327Y178649D01*
X530326Y178611D01*
X530319Y178573D01*
X530318Y178364D01*
X530312Y178156D01*
X530317Y178118D01*
X530316Y178080D01*
X530349Y177873D01*
X530376Y177667D01*
X530387Y177630D01*
X530393Y177593D01*
X530458Y177394D01*
X530519Y177195D01*
X530535Y177160D01*
X530547Y177124D01*
X530644Y176939D01*
X530735Y176751D01*
X530757Y176720D01*
X530775Y176686D01*
X530833Y176614D01*
X531021Y176349D01*
X531142Y176227D01*
X531200Y176153D01*
X535941Y171413D01*
X535941Y158787D01*
X527013Y149859D01*
X514387Y149859D01*
X505459Y158787D01*
X505459Y171413D01*
X510200Y176153D01*
X510224Y176182D01*
X510253Y176208D01*
X510384Y176370D01*
X510519Y176529D01*
X510539Y176562D01*
X510563Y176592D01*
X510666Y176773D01*
X510774Y176952D01*
X510788Y176987D01*
X510807Y177020D01*
X510880Y177216D01*
X510957Y177410D01*
X510965Y177447D01*
X510978Y177483D01*
X511018Y177688D01*
X511064Y177892D01*
X511066Y177930D01*
X511073Y177967D01*
X511080Y178175D01*
X511091Y178384D01*
X511087Y178422D01*
X511088Y178460D01*
X511061Y178667D01*
X511039Y178875D01*
X511029Y178911D01*
X511024Y178949D01*
X510964Y179149D01*
X510908Y179350D01*
X510893Y179385D01*
X510881Y179422D01*
X510790Y179609D01*
X510703Y179799D01*
X510681Y179831D01*
X510665Y179865D01*
X510544Y180034D01*
X510427Y180208D01*
X510401Y180236D01*
X510379Y180267D01*
X510233Y180415D01*
X510089Y180568D01*
X510059Y180591D01*
X510032Y180618D01*
X509864Y180741D01*
X509698Y180868D01*
X509664Y180886D01*
X509634Y180908D01*
X509448Y181002D01*
X509263Y181101D01*
X509227Y181114D01*
X509193Y181131D01*
X508994Y181193D01*
X508797Y181261D01*
X508759Y181267D01*
X508723Y181279D01*
X508630Y181289D01*
X508310Y181344D01*
X508138Y181345D01*
X508045Y181355D01*
X500711Y181355D01*
X500532Y181341D01*
X500351Y181334D01*
X500286Y181321D01*
X500220Y181315D01*
X500044Y181272D01*
X499868Y181236D01*
X499805Y181213D01*
X499741Y181197D01*
X499575Y181125D01*
X499406Y181062D01*
X499348Y181028D01*
X499287Y181002D01*
X499135Y180905D01*
X498979Y180815D01*
X498927Y180773D01*
X498871Y180737D01*
X498737Y180617D01*
X498597Y180502D01*
X498553Y180453D01*
X498504Y180408D01*
X498390Y180268D01*
X498271Y180132D01*
X498235Y180076D01*
X498194Y180024D01*
X498104Y179868D01*
X498008Y179715D01*
X497983Y179654D01*
X497950Y179596D01*
X497887Y179426D01*
X497817Y179260D01*
X497801Y179196D01*
X497778Y179133D01*
X497743Y178956D01*
X497701Y178781D01*
X497696Y178714D01*
X497683Y178649D01*
X497678Y178469D01*
X497664Y178289D01*
X497670Y178222D01*
X497668Y178156D01*
X497691Y177977D01*
X497707Y177797D01*
X497722Y177746D01*
X497732Y177667D01*
X497841Y177308D01*
X497841Y152924D01*
X495520Y147323D01*
X491233Y143036D01*
X488751Y142007D01*
X488624Y141942D01*
X488493Y141886D01*
X488405Y141830D01*
X488312Y141782D01*
X488197Y141697D01*
X488077Y141621D01*
X487999Y141551D01*
X487915Y141489D01*
X487815Y141387D01*
X487709Y141292D01*
X487643Y141211D01*
X487570Y141136D01*
X487488Y141019D01*
X487399Y140908D01*
X487347Y140818D01*
X487287Y140732D01*
X487226Y140604D01*
X487155Y140480D01*
X487119Y140382D01*
X487073Y140287D01*
X487033Y140151D01*
X486983Y140017D01*
X486963Y139915D01*
X486934Y139814D01*
X486916Y139673D01*
X486889Y139533D01*
X486885Y139429D01*
X486872Y139325D01*
X486878Y139182D01*
X486873Y139040D01*
X486887Y138936D01*
X486891Y138832D01*
X486919Y138692D01*
X486938Y138551D01*
X486968Y138451D01*
X486989Y138348D01*
X487039Y138215D01*
X487080Y138078D01*
X487126Y137985D01*
X487163Y137887D01*
X487235Y137763D01*
X487297Y137635D01*
X487358Y137550D01*
X487410Y137460D01*
X487500Y137349D01*
X487583Y137233D01*
X487656Y137159D01*
X487722Y137078D01*
X487829Y136983D01*
X487929Y136882D01*
X488014Y136821D01*
X488092Y136751D01*
X488213Y136675D01*
X488328Y136592D01*
X488421Y136545D01*
X488510Y136489D01*
X488641Y136434D01*
X488769Y136369D01*
X488868Y136338D01*
X488965Y136297D01*
X489103Y136264D01*
X489239Y136221D01*
X489317Y136212D01*
X489444Y136182D01*
X489877Y136149D01*
X489917Y136145D01*
X668050Y136145D01*
X668164Y136154D01*
G37*
%LPC*%
G36*
X485647Y85853D02*
X485647Y85853D01*
X494285Y85853D01*
X494285Y78836D01*
X493997Y77020D01*
X493429Y75271D01*
X492594Y73632D01*
X491513Y72144D01*
X490212Y70843D01*
X488724Y69762D01*
X487085Y68927D01*
X485647Y68460D01*
X485647Y85853D01*
G37*
%LPD*%
G36*
X450025Y136156D02*
X450025Y136156D01*
X450168Y136158D01*
X450271Y136176D01*
X450375Y136185D01*
X450513Y136219D01*
X450654Y136244D01*
X450752Y136278D01*
X450854Y136303D01*
X450985Y136360D01*
X451119Y136407D01*
X451211Y136457D01*
X451307Y136498D01*
X451427Y136574D01*
X451552Y136643D01*
X451635Y136707D01*
X451723Y136763D01*
X451829Y136858D01*
X451942Y136945D01*
X452013Y137022D01*
X452091Y137092D01*
X452181Y137203D01*
X452278Y137307D01*
X452335Y137394D01*
X452401Y137476D01*
X452471Y137599D01*
X452550Y137718D01*
X452593Y137814D01*
X452645Y137904D01*
X452695Y138038D01*
X452753Y138168D01*
X452780Y138269D01*
X452817Y138367D01*
X452844Y138506D01*
X452881Y138644D01*
X452891Y138749D01*
X452911Y138851D01*
X452916Y138993D01*
X452930Y139135D01*
X452923Y139240D01*
X452927Y139344D01*
X452908Y139485D01*
X452899Y139628D01*
X452876Y139729D01*
X452862Y139833D01*
X452821Y139970D01*
X452789Y140109D01*
X452750Y140205D01*
X452720Y140305D01*
X452657Y140434D01*
X452603Y140566D01*
X452549Y140655D01*
X452503Y140749D01*
X452420Y140865D01*
X452346Y140986D01*
X452278Y141066D01*
X452217Y141151D01*
X452117Y141252D01*
X452024Y141360D01*
X451944Y141428D01*
X451871Y141502D01*
X451756Y141586D01*
X451646Y141677D01*
X451577Y141715D01*
X451472Y141792D01*
X451085Y141988D01*
X451049Y142007D01*
X448567Y143036D01*
X446655Y144948D01*
X446597Y144997D01*
X446545Y145052D01*
X446409Y145156D01*
X446279Y145267D01*
X446213Y145306D01*
X446153Y145353D01*
X446003Y145434D01*
X445856Y145522D01*
X445786Y145550D01*
X445718Y145586D01*
X445557Y145641D01*
X445398Y145705D01*
X445324Y145721D01*
X445252Y145746D01*
X445083Y145775D01*
X444917Y145812D01*
X444840Y145816D01*
X444765Y145829D01*
X444594Y145830D01*
X444424Y145839D01*
X444348Y145831D01*
X444272Y145832D01*
X444103Y145805D01*
X443933Y145787D01*
X443860Y145767D01*
X443785Y145755D01*
X443622Y145702D01*
X443458Y145656D01*
X443388Y145625D01*
X443316Y145601D01*
X443164Y145522D01*
X443009Y145451D01*
X442946Y145408D01*
X442878Y145373D01*
X442796Y145307D01*
X442600Y145175D01*
X442427Y145013D01*
X442345Y144948D01*
X440433Y143036D01*
X437951Y142007D01*
X437824Y141942D01*
X437693Y141886D01*
X437605Y141830D01*
X437512Y141782D01*
X437397Y141697D01*
X437277Y141621D01*
X437199Y141551D01*
X437115Y141489D01*
X437015Y141387D01*
X436909Y141292D01*
X436843Y141211D01*
X436770Y141136D01*
X436688Y141019D01*
X436599Y140908D01*
X436547Y140818D01*
X436487Y140732D01*
X436426Y140604D01*
X436355Y140480D01*
X436319Y140382D01*
X436273Y140287D01*
X436233Y140151D01*
X436183Y140017D01*
X436163Y139915D01*
X436134Y139814D01*
X436116Y139673D01*
X436089Y139533D01*
X436085Y139429D01*
X436072Y139325D01*
X436078Y139182D01*
X436073Y139040D01*
X436087Y138936D01*
X436091Y138832D01*
X436119Y138692D01*
X436138Y138551D01*
X436168Y138451D01*
X436189Y138348D01*
X436239Y138215D01*
X436280Y138078D01*
X436326Y137985D01*
X436363Y137887D01*
X436435Y137763D01*
X436497Y137635D01*
X436558Y137550D01*
X436610Y137460D01*
X436700Y137349D01*
X436783Y137233D01*
X436856Y137159D01*
X436922Y137078D01*
X437029Y136983D01*
X437129Y136882D01*
X437214Y136821D01*
X437292Y136751D01*
X437413Y136675D01*
X437528Y136592D01*
X437621Y136545D01*
X437710Y136489D01*
X437841Y136434D01*
X437969Y136369D01*
X438068Y136338D01*
X438165Y136297D01*
X438303Y136264D01*
X438439Y136221D01*
X438517Y136212D01*
X438644Y136182D01*
X439077Y136149D01*
X439117Y136145D01*
X449883Y136145D01*
X450025Y136156D01*
G37*
G36*
X424625Y136156D02*
X424625Y136156D01*
X424768Y136158D01*
X424871Y136176D01*
X424975Y136185D01*
X425113Y136219D01*
X425254Y136244D01*
X425352Y136278D01*
X425454Y136303D01*
X425585Y136360D01*
X425719Y136407D01*
X425811Y136457D01*
X425907Y136498D01*
X426027Y136574D01*
X426152Y136643D01*
X426235Y136707D01*
X426323Y136763D01*
X426429Y136858D01*
X426542Y136945D01*
X426613Y137022D01*
X426691Y137092D01*
X426781Y137203D01*
X426878Y137307D01*
X426935Y137394D01*
X427001Y137476D01*
X427071Y137599D01*
X427150Y137718D01*
X427193Y137814D01*
X427245Y137904D01*
X427295Y138038D01*
X427353Y138168D01*
X427380Y138269D01*
X427417Y138367D01*
X427444Y138506D01*
X427481Y138644D01*
X427491Y138749D01*
X427511Y138851D01*
X427516Y138993D01*
X427530Y139135D01*
X427523Y139240D01*
X427527Y139344D01*
X427508Y139485D01*
X427499Y139628D01*
X427476Y139729D01*
X427462Y139833D01*
X427421Y139970D01*
X427389Y140109D01*
X427350Y140205D01*
X427320Y140305D01*
X427257Y140434D01*
X427203Y140566D01*
X427149Y140655D01*
X427103Y140749D01*
X427020Y140865D01*
X426946Y140986D01*
X426878Y141066D01*
X426817Y141151D01*
X426717Y141252D01*
X426624Y141360D01*
X426544Y141428D01*
X426471Y141502D01*
X426356Y141586D01*
X426246Y141677D01*
X426177Y141715D01*
X426072Y141792D01*
X425685Y141988D01*
X425649Y142007D01*
X423167Y143036D01*
X421255Y144948D01*
X421197Y144997D01*
X421145Y145052D01*
X421009Y145156D01*
X420879Y145267D01*
X420813Y145306D01*
X420753Y145353D01*
X420603Y145434D01*
X420456Y145522D01*
X420386Y145550D01*
X420318Y145586D01*
X420157Y145641D01*
X419998Y145705D01*
X419924Y145721D01*
X419852Y145746D01*
X419683Y145775D01*
X419517Y145812D01*
X419440Y145816D01*
X419365Y145829D01*
X419194Y145830D01*
X419024Y145839D01*
X418948Y145831D01*
X418872Y145832D01*
X418703Y145805D01*
X418533Y145787D01*
X418460Y145767D01*
X418385Y145755D01*
X418222Y145702D01*
X418058Y145656D01*
X417988Y145625D01*
X417916Y145601D01*
X417764Y145522D01*
X417609Y145451D01*
X417546Y145408D01*
X417478Y145373D01*
X417396Y145307D01*
X417200Y145175D01*
X417027Y145013D01*
X416945Y144948D01*
X415033Y143036D01*
X412551Y142007D01*
X412424Y141942D01*
X412293Y141886D01*
X412205Y141830D01*
X412112Y141782D01*
X411997Y141697D01*
X411877Y141621D01*
X411799Y141551D01*
X411715Y141489D01*
X411615Y141387D01*
X411509Y141292D01*
X411443Y141211D01*
X411370Y141136D01*
X411288Y141019D01*
X411199Y140908D01*
X411147Y140818D01*
X411087Y140732D01*
X411026Y140604D01*
X410955Y140480D01*
X410919Y140382D01*
X410873Y140287D01*
X410833Y140151D01*
X410783Y140017D01*
X410763Y139915D01*
X410734Y139814D01*
X410716Y139673D01*
X410689Y139533D01*
X410685Y139429D01*
X410672Y139325D01*
X410678Y139182D01*
X410673Y139040D01*
X410687Y138936D01*
X410691Y138832D01*
X410719Y138692D01*
X410738Y138551D01*
X410768Y138451D01*
X410789Y138348D01*
X410839Y138215D01*
X410880Y138078D01*
X410926Y137985D01*
X410963Y137887D01*
X411035Y137763D01*
X411097Y137635D01*
X411158Y137550D01*
X411210Y137460D01*
X411300Y137349D01*
X411383Y137233D01*
X411456Y137159D01*
X411522Y137078D01*
X411629Y136983D01*
X411729Y136882D01*
X411814Y136821D01*
X411892Y136751D01*
X412013Y136675D01*
X412128Y136592D01*
X412221Y136545D01*
X412310Y136489D01*
X412441Y136434D01*
X412569Y136369D01*
X412668Y136338D01*
X412765Y136297D01*
X412903Y136264D01*
X413039Y136221D01*
X413117Y136212D01*
X413244Y136182D01*
X413677Y136149D01*
X413717Y136145D01*
X424483Y136145D01*
X424625Y136156D01*
G37*
G36*
X475425Y136156D02*
X475425Y136156D01*
X475568Y136158D01*
X475671Y136176D01*
X475775Y136185D01*
X475913Y136219D01*
X476054Y136244D01*
X476152Y136278D01*
X476254Y136303D01*
X476385Y136360D01*
X476519Y136407D01*
X476611Y136457D01*
X476707Y136498D01*
X476827Y136574D01*
X476952Y136643D01*
X477035Y136707D01*
X477123Y136763D01*
X477229Y136858D01*
X477342Y136945D01*
X477413Y137022D01*
X477491Y137092D01*
X477581Y137203D01*
X477678Y137307D01*
X477735Y137394D01*
X477801Y137476D01*
X477871Y137599D01*
X477950Y137718D01*
X477993Y137814D01*
X478045Y137904D01*
X478095Y138038D01*
X478153Y138168D01*
X478180Y138269D01*
X478217Y138367D01*
X478244Y138506D01*
X478281Y138644D01*
X478291Y138749D01*
X478311Y138851D01*
X478316Y138993D01*
X478330Y139135D01*
X478323Y139240D01*
X478327Y139344D01*
X478308Y139485D01*
X478299Y139628D01*
X478276Y139729D01*
X478262Y139833D01*
X478221Y139970D01*
X478189Y140109D01*
X478150Y140205D01*
X478120Y140305D01*
X478057Y140434D01*
X478003Y140566D01*
X477949Y140655D01*
X477903Y140749D01*
X477820Y140865D01*
X477746Y140986D01*
X477678Y141066D01*
X477617Y141151D01*
X477517Y141252D01*
X477424Y141360D01*
X477344Y141428D01*
X477271Y141502D01*
X477156Y141586D01*
X477046Y141677D01*
X476977Y141715D01*
X476872Y141792D01*
X476485Y141988D01*
X476449Y142007D01*
X473967Y143036D01*
X472055Y144948D01*
X471997Y144997D01*
X471945Y145052D01*
X471809Y145156D01*
X471679Y145267D01*
X471613Y145306D01*
X471553Y145353D01*
X471403Y145434D01*
X471256Y145522D01*
X471186Y145550D01*
X471118Y145586D01*
X470957Y145641D01*
X470798Y145705D01*
X470724Y145721D01*
X470652Y145746D01*
X470483Y145775D01*
X470317Y145812D01*
X470240Y145816D01*
X470165Y145829D01*
X469994Y145830D01*
X469824Y145839D01*
X469748Y145831D01*
X469672Y145832D01*
X469503Y145805D01*
X469333Y145787D01*
X469260Y145767D01*
X469185Y145755D01*
X469022Y145702D01*
X468858Y145656D01*
X468788Y145625D01*
X468716Y145601D01*
X468564Y145522D01*
X468409Y145451D01*
X468346Y145408D01*
X468278Y145373D01*
X468196Y145307D01*
X468000Y145175D01*
X467827Y145013D01*
X467745Y144948D01*
X465833Y143036D01*
X463351Y142007D01*
X463224Y141942D01*
X463093Y141886D01*
X463005Y141830D01*
X462912Y141782D01*
X462797Y141697D01*
X462677Y141621D01*
X462599Y141551D01*
X462515Y141489D01*
X462415Y141387D01*
X462309Y141292D01*
X462243Y141211D01*
X462170Y141136D01*
X462088Y141019D01*
X461999Y140908D01*
X461947Y140818D01*
X461887Y140732D01*
X461826Y140604D01*
X461755Y140480D01*
X461719Y140382D01*
X461673Y140287D01*
X461633Y140151D01*
X461583Y140017D01*
X461563Y139915D01*
X461534Y139814D01*
X461516Y139673D01*
X461489Y139533D01*
X461485Y139429D01*
X461472Y139325D01*
X461478Y139182D01*
X461473Y139040D01*
X461487Y138936D01*
X461491Y138832D01*
X461519Y138692D01*
X461538Y138551D01*
X461568Y138451D01*
X461589Y138348D01*
X461639Y138215D01*
X461680Y138078D01*
X461726Y137985D01*
X461763Y137887D01*
X461835Y137763D01*
X461897Y137635D01*
X461958Y137550D01*
X462010Y137460D01*
X462100Y137349D01*
X462183Y137233D01*
X462256Y137159D01*
X462322Y137078D01*
X462429Y136983D01*
X462529Y136882D01*
X462614Y136821D01*
X462692Y136751D01*
X462813Y136675D01*
X462928Y136592D01*
X463021Y136545D01*
X463110Y136489D01*
X463241Y136434D01*
X463369Y136369D01*
X463468Y136338D01*
X463565Y136297D01*
X463703Y136264D01*
X463839Y136221D01*
X463917Y136212D01*
X464044Y136182D01*
X464477Y136149D01*
X464517Y136145D01*
X475283Y136145D01*
X475425Y136156D01*
G37*
G36*
X399225Y136156D02*
X399225Y136156D01*
X399368Y136158D01*
X399471Y136176D01*
X399575Y136185D01*
X399713Y136219D01*
X399854Y136244D01*
X399952Y136278D01*
X400054Y136303D01*
X400185Y136360D01*
X400319Y136407D01*
X400411Y136457D01*
X400507Y136498D01*
X400627Y136574D01*
X400752Y136643D01*
X400835Y136707D01*
X400923Y136763D01*
X401029Y136858D01*
X401142Y136945D01*
X401213Y137022D01*
X401291Y137092D01*
X401381Y137203D01*
X401478Y137307D01*
X401535Y137394D01*
X401601Y137476D01*
X401671Y137599D01*
X401750Y137718D01*
X401793Y137814D01*
X401845Y137904D01*
X401895Y138038D01*
X401953Y138168D01*
X401980Y138269D01*
X402017Y138367D01*
X402044Y138506D01*
X402081Y138644D01*
X402091Y138749D01*
X402111Y138851D01*
X402116Y138993D01*
X402130Y139135D01*
X402123Y139240D01*
X402127Y139344D01*
X402108Y139485D01*
X402099Y139628D01*
X402076Y139729D01*
X402062Y139833D01*
X402021Y139970D01*
X401989Y140109D01*
X401950Y140205D01*
X401920Y140305D01*
X401857Y140434D01*
X401803Y140566D01*
X401749Y140655D01*
X401703Y140749D01*
X401620Y140865D01*
X401546Y140986D01*
X401478Y141066D01*
X401417Y141151D01*
X401317Y141252D01*
X401224Y141360D01*
X401144Y141428D01*
X401071Y141502D01*
X400956Y141586D01*
X400846Y141677D01*
X400777Y141715D01*
X400672Y141792D01*
X400285Y141988D01*
X400249Y142007D01*
X397767Y143036D01*
X395855Y144948D01*
X395797Y144997D01*
X395745Y145052D01*
X395609Y145156D01*
X395479Y145267D01*
X395413Y145306D01*
X395353Y145353D01*
X395203Y145434D01*
X395056Y145522D01*
X394986Y145550D01*
X394918Y145586D01*
X394757Y145641D01*
X394598Y145705D01*
X394524Y145721D01*
X394452Y145746D01*
X394283Y145775D01*
X394117Y145812D01*
X394040Y145816D01*
X393965Y145829D01*
X393794Y145830D01*
X393624Y145839D01*
X393548Y145831D01*
X393472Y145832D01*
X393303Y145805D01*
X393133Y145787D01*
X393060Y145767D01*
X392985Y145755D01*
X392822Y145702D01*
X392658Y145656D01*
X392588Y145625D01*
X392516Y145601D01*
X392364Y145522D01*
X392209Y145451D01*
X392146Y145408D01*
X392078Y145373D01*
X391996Y145307D01*
X391800Y145175D01*
X391627Y145013D01*
X391545Y144948D01*
X389633Y143036D01*
X387151Y142007D01*
X387024Y141942D01*
X386893Y141886D01*
X386805Y141830D01*
X386712Y141782D01*
X386597Y141697D01*
X386477Y141621D01*
X386399Y141551D01*
X386315Y141489D01*
X386215Y141387D01*
X386109Y141292D01*
X386043Y141211D01*
X385970Y141136D01*
X385888Y141019D01*
X385799Y140908D01*
X385747Y140818D01*
X385687Y140732D01*
X385626Y140604D01*
X385555Y140480D01*
X385519Y140382D01*
X385473Y140287D01*
X385433Y140151D01*
X385383Y140017D01*
X385363Y139915D01*
X385334Y139814D01*
X385316Y139673D01*
X385289Y139533D01*
X385285Y139429D01*
X385272Y139325D01*
X385278Y139182D01*
X385273Y139040D01*
X385287Y138936D01*
X385291Y138832D01*
X385319Y138692D01*
X385338Y138551D01*
X385368Y138451D01*
X385389Y138348D01*
X385439Y138215D01*
X385480Y138078D01*
X385526Y137985D01*
X385563Y137887D01*
X385635Y137763D01*
X385697Y137635D01*
X385758Y137550D01*
X385810Y137460D01*
X385900Y137349D01*
X385983Y137233D01*
X386056Y137159D01*
X386122Y137078D01*
X386229Y136983D01*
X386329Y136882D01*
X386414Y136821D01*
X386492Y136751D01*
X386613Y136675D01*
X386728Y136592D01*
X386821Y136545D01*
X386910Y136489D01*
X387041Y136434D01*
X387169Y136369D01*
X387268Y136338D01*
X387365Y136297D01*
X387503Y136264D01*
X387639Y136221D01*
X387717Y136212D01*
X387844Y136182D01*
X388277Y136149D01*
X388317Y136145D01*
X399083Y136145D01*
X399225Y136156D01*
G37*
G36*
X444652Y108169D02*
X444652Y108169D01*
X444728Y108168D01*
X444897Y108195D01*
X445067Y108213D01*
X445140Y108233D01*
X445215Y108245D01*
X445378Y108298D01*
X445542Y108344D01*
X445612Y108375D01*
X445684Y108399D01*
X445835Y108478D01*
X445991Y108549D01*
X446054Y108592D01*
X446122Y108627D01*
X446204Y108693D01*
X446400Y108825D01*
X446572Y108987D01*
X446655Y109052D01*
X448567Y110964D01*
X451049Y111993D01*
X451176Y112058D01*
X451307Y112114D01*
X451395Y112170D01*
X451488Y112218D01*
X451603Y112303D01*
X451723Y112379D01*
X451801Y112449D01*
X451885Y112511D01*
X451985Y112613D01*
X452091Y112708D01*
X452157Y112789D01*
X452230Y112864D01*
X452312Y112981D01*
X452401Y113092D01*
X452453Y113182D01*
X452513Y113268D01*
X452574Y113396D01*
X452645Y113520D01*
X452681Y113618D01*
X452727Y113713D01*
X452767Y113849D01*
X452817Y113983D01*
X452837Y114085D01*
X452866Y114186D01*
X452884Y114327D01*
X452911Y114467D01*
X452915Y114571D01*
X452928Y114675D01*
X452922Y114818D01*
X452927Y114960D01*
X452913Y115064D01*
X452909Y115168D01*
X452881Y115308D01*
X452862Y115449D01*
X452832Y115549D01*
X452811Y115652D01*
X452761Y115785D01*
X452720Y115922D01*
X452674Y116015D01*
X452637Y116113D01*
X452565Y116237D01*
X452503Y116365D01*
X452442Y116450D01*
X452390Y116540D01*
X452300Y116651D01*
X452217Y116767D01*
X452144Y116841D01*
X452078Y116922D01*
X451971Y117017D01*
X451871Y117118D01*
X451786Y117179D01*
X451708Y117249D01*
X451587Y117325D01*
X451472Y117408D01*
X451379Y117455D01*
X451290Y117511D01*
X451159Y117566D01*
X451031Y117631D01*
X450932Y117662D01*
X450835Y117703D01*
X450697Y117736D01*
X450561Y117779D01*
X450483Y117788D01*
X450356Y117818D01*
X449923Y117851D01*
X449883Y117855D01*
X439117Y117855D01*
X438975Y117844D01*
X438832Y117842D01*
X438729Y117824D01*
X438625Y117815D01*
X438487Y117781D01*
X438346Y117756D01*
X438248Y117722D01*
X438146Y117697D01*
X438015Y117640D01*
X437881Y117593D01*
X437789Y117543D01*
X437693Y117502D01*
X437573Y117426D01*
X437448Y117357D01*
X437365Y117293D01*
X437277Y117237D01*
X437171Y117142D01*
X437058Y117055D01*
X436987Y116978D01*
X436909Y116908D01*
X436819Y116797D01*
X436722Y116693D01*
X436665Y116606D01*
X436599Y116524D01*
X436529Y116401D01*
X436450Y116282D01*
X436407Y116186D01*
X436355Y116096D01*
X436305Y115962D01*
X436247Y115832D01*
X436220Y115731D01*
X436183Y115633D01*
X436156Y115494D01*
X436119Y115356D01*
X436109Y115251D01*
X436089Y115149D01*
X436084Y115007D01*
X436070Y114865D01*
X436077Y114760D01*
X436073Y114656D01*
X436092Y114515D01*
X436101Y114372D01*
X436124Y114271D01*
X436138Y114167D01*
X436179Y114030D01*
X436211Y113891D01*
X436250Y113795D01*
X436280Y113695D01*
X436343Y113566D01*
X436397Y113434D01*
X436451Y113345D01*
X436497Y113251D01*
X436580Y113135D01*
X436654Y113014D01*
X436722Y112934D01*
X436783Y112849D01*
X436883Y112748D01*
X436976Y112640D01*
X437056Y112572D01*
X437129Y112498D01*
X437244Y112414D01*
X437354Y112323D01*
X437423Y112285D01*
X437528Y112208D01*
X437915Y112012D01*
X437951Y111993D01*
X440433Y110964D01*
X442345Y109052D01*
X442403Y109003D01*
X442456Y108948D01*
X442591Y108844D01*
X442721Y108733D01*
X442787Y108694D01*
X442847Y108647D01*
X442997Y108567D01*
X443144Y108478D01*
X443215Y108450D01*
X443282Y108414D01*
X443443Y108359D01*
X443602Y108295D01*
X443676Y108279D01*
X443748Y108254D01*
X443917Y108225D01*
X444084Y108188D01*
X444160Y108184D01*
X444235Y108171D01*
X444406Y108170D01*
X444576Y108161D01*
X444652Y108169D01*
G37*
G36*
X393852Y108169D02*
X393852Y108169D01*
X393928Y108168D01*
X394097Y108195D01*
X394267Y108213D01*
X394340Y108233D01*
X394415Y108245D01*
X394578Y108298D01*
X394742Y108344D01*
X394812Y108375D01*
X394884Y108399D01*
X395036Y108478D01*
X395191Y108549D01*
X395254Y108592D01*
X395322Y108627D01*
X395404Y108693D01*
X395600Y108825D01*
X395773Y108987D01*
X395855Y109052D01*
X396363Y109560D01*
X396437Y109647D01*
X396518Y109728D01*
X396596Y109835D01*
X396682Y109936D01*
X396741Y110034D01*
X396808Y110126D01*
X396868Y110245D01*
X396937Y110359D01*
X396979Y110465D01*
X397031Y110567D01*
X397071Y110694D01*
X397120Y110817D01*
X397145Y110928D01*
X397179Y111037D01*
X397189Y111131D01*
X397227Y111299D01*
X397245Y111623D01*
X397255Y111715D01*
X397255Y114808D01*
X397249Y114884D01*
X397251Y114960D01*
X397229Y115129D01*
X397215Y115300D01*
X397197Y115374D01*
X397187Y115449D01*
X397138Y115613D01*
X397097Y115779D01*
X397067Y115848D01*
X397045Y115922D01*
X396969Y116075D01*
X396902Y116232D01*
X396861Y116296D01*
X396828Y116365D01*
X396729Y116504D01*
X396637Y116648D01*
X396586Y116705D01*
X396542Y116767D01*
X396422Y116888D01*
X396308Y117016D01*
X396249Y117064D01*
X396195Y117118D01*
X396057Y117219D01*
X395924Y117326D01*
X395858Y117363D01*
X395797Y117408D01*
X395644Y117485D01*
X395496Y117570D01*
X395424Y117596D01*
X395356Y117631D01*
X395193Y117682D01*
X395033Y117741D01*
X394958Y117756D01*
X394886Y117779D01*
X394781Y117791D01*
X394549Y117836D01*
X394313Y117843D01*
X394208Y117855D01*
X388317Y117855D01*
X388175Y117844D01*
X388032Y117842D01*
X387929Y117824D01*
X387825Y117815D01*
X387687Y117781D01*
X387546Y117756D01*
X387448Y117722D01*
X387346Y117697D01*
X387215Y117640D01*
X387081Y117593D01*
X386989Y117543D01*
X386893Y117502D01*
X386773Y117426D01*
X386648Y117357D01*
X386565Y117293D01*
X386477Y117237D01*
X386371Y117142D01*
X386258Y117055D01*
X386187Y116978D01*
X386109Y116908D01*
X386019Y116797D01*
X385922Y116693D01*
X385865Y116606D01*
X385799Y116524D01*
X385729Y116401D01*
X385650Y116282D01*
X385607Y116186D01*
X385555Y116096D01*
X385505Y115962D01*
X385447Y115832D01*
X385420Y115731D01*
X385383Y115633D01*
X385356Y115494D01*
X385319Y115356D01*
X385309Y115251D01*
X385289Y115149D01*
X385284Y115007D01*
X385270Y114865D01*
X385277Y114760D01*
X385273Y114656D01*
X385292Y114515D01*
X385301Y114372D01*
X385324Y114271D01*
X385338Y114167D01*
X385379Y114030D01*
X385411Y113891D01*
X385450Y113795D01*
X385480Y113695D01*
X385543Y113566D01*
X385597Y113434D01*
X385651Y113345D01*
X385697Y113251D01*
X385780Y113135D01*
X385854Y113014D01*
X385922Y112934D01*
X385983Y112849D01*
X386083Y112748D01*
X386176Y112640D01*
X386256Y112572D01*
X386329Y112498D01*
X386444Y112414D01*
X386554Y112323D01*
X386623Y112285D01*
X386728Y112208D01*
X387115Y112012D01*
X387151Y111993D01*
X389633Y110964D01*
X391545Y109052D01*
X391603Y109003D01*
X391655Y108948D01*
X391791Y108844D01*
X391921Y108733D01*
X391987Y108694D01*
X392047Y108647D01*
X392197Y108566D01*
X392344Y108478D01*
X392414Y108450D01*
X392482Y108414D01*
X392643Y108359D01*
X392802Y108295D01*
X392876Y108279D01*
X392948Y108254D01*
X393117Y108225D01*
X393283Y108188D01*
X393360Y108184D01*
X393435Y108171D01*
X393606Y108170D01*
X393776Y108161D01*
X393852Y108169D01*
G37*
G36*
X419252Y108169D02*
X419252Y108169D01*
X419328Y108168D01*
X419497Y108195D01*
X419667Y108213D01*
X419740Y108233D01*
X419815Y108245D01*
X419978Y108298D01*
X420142Y108344D01*
X420211Y108375D01*
X420284Y108399D01*
X420436Y108478D01*
X420591Y108549D01*
X420654Y108592D01*
X420722Y108627D01*
X420804Y108693D01*
X421000Y108825D01*
X421172Y108987D01*
X421255Y109052D01*
X423167Y110964D01*
X425649Y111993D01*
X425776Y112058D01*
X425907Y112114D01*
X425995Y112170D01*
X426088Y112218D01*
X426203Y112303D01*
X426323Y112379D01*
X426401Y112449D01*
X426485Y112511D01*
X426585Y112613D01*
X426691Y112708D01*
X426757Y112789D01*
X426830Y112864D01*
X426912Y112981D01*
X427001Y113092D01*
X427053Y113182D01*
X427113Y113268D01*
X427174Y113396D01*
X427245Y113520D01*
X427281Y113618D01*
X427327Y113713D01*
X427367Y113849D01*
X427417Y113983D01*
X427437Y114085D01*
X427466Y114186D01*
X427484Y114327D01*
X427511Y114467D01*
X427515Y114571D01*
X427528Y114675D01*
X427522Y114818D01*
X427527Y114960D01*
X427513Y115064D01*
X427509Y115168D01*
X427481Y115308D01*
X427462Y115449D01*
X427432Y115549D01*
X427411Y115652D01*
X427361Y115785D01*
X427320Y115922D01*
X427274Y116015D01*
X427237Y116113D01*
X427165Y116237D01*
X427103Y116365D01*
X427042Y116450D01*
X426990Y116540D01*
X426900Y116651D01*
X426817Y116767D01*
X426744Y116841D01*
X426678Y116922D01*
X426571Y117017D01*
X426471Y117118D01*
X426386Y117179D01*
X426308Y117249D01*
X426187Y117325D01*
X426072Y117408D01*
X425979Y117455D01*
X425890Y117511D01*
X425759Y117566D01*
X425631Y117631D01*
X425532Y117662D01*
X425435Y117703D01*
X425297Y117736D01*
X425161Y117779D01*
X425083Y117788D01*
X424956Y117818D01*
X424523Y117851D01*
X424483Y117855D01*
X418592Y117855D01*
X418516Y117849D01*
X418440Y117851D01*
X418271Y117829D01*
X418100Y117815D01*
X418026Y117797D01*
X417951Y117787D01*
X417787Y117738D01*
X417621Y117697D01*
X417552Y117667D01*
X417478Y117645D01*
X417325Y117569D01*
X417168Y117502D01*
X417104Y117461D01*
X417035Y117428D01*
X416896Y117329D01*
X416752Y117237D01*
X416695Y117186D01*
X416633Y117142D01*
X416512Y117022D01*
X416384Y116908D01*
X416336Y116849D01*
X416282Y116795D01*
X416181Y116657D01*
X416074Y116524D01*
X416037Y116458D01*
X415992Y116397D01*
X415915Y116244D01*
X415830Y116096D01*
X415804Y116024D01*
X415769Y115956D01*
X415718Y115793D01*
X415659Y115633D01*
X415644Y115558D01*
X415621Y115486D01*
X415609Y115381D01*
X415564Y115149D01*
X415557Y114913D01*
X415545Y114808D01*
X415545Y111715D01*
X415554Y111601D01*
X415553Y111487D01*
X415574Y111356D01*
X415585Y111223D01*
X415612Y111113D01*
X415630Y111000D01*
X415671Y110873D01*
X415703Y110745D01*
X415748Y110640D01*
X415784Y110531D01*
X415845Y110413D01*
X415898Y110291D01*
X415959Y110195D01*
X416012Y110094D01*
X416071Y110020D01*
X416163Y109875D01*
X416379Y109633D01*
X416437Y109560D01*
X416945Y109052D01*
X417003Y109003D01*
X417055Y108948D01*
X417191Y108844D01*
X417321Y108733D01*
X417386Y108694D01*
X417447Y108647D01*
X417597Y108566D01*
X417744Y108478D01*
X417814Y108450D01*
X417882Y108414D01*
X418044Y108359D01*
X418202Y108295D01*
X418276Y108279D01*
X418348Y108254D01*
X418517Y108225D01*
X418683Y108188D01*
X418759Y108184D01*
X418835Y108171D01*
X419006Y108170D01*
X419176Y108161D01*
X419252Y108169D01*
G37*
G36*
X748721Y15824D02*
X748721Y15824D01*
X748744Y15824D01*
X748965Y15853D01*
X749188Y15879D01*
X749210Y15885D01*
X749233Y15888D01*
X749448Y15953D01*
X749663Y16014D01*
X749684Y16024D01*
X749706Y16031D01*
X749906Y16129D01*
X750109Y16224D01*
X750128Y16237D01*
X750149Y16248D01*
X750331Y16377D01*
X750516Y16504D01*
X750532Y16520D01*
X750551Y16533D01*
X750710Y16690D01*
X750872Y16845D01*
X750886Y16864D01*
X750902Y16880D01*
X751033Y17060D01*
X751168Y17240D01*
X751179Y17260D01*
X751192Y17278D01*
X751293Y17477D01*
X751397Y17677D01*
X751404Y17699D01*
X751415Y17719D01*
X751482Y17932D01*
X751552Y18145D01*
X751556Y18168D01*
X751563Y18189D01*
X751571Y18262D01*
X751630Y18632D01*
X751630Y18781D01*
X751639Y18867D01*
X751639Y25332D01*
X751636Y25370D01*
X751638Y25408D01*
X751616Y25616D01*
X751599Y25824D01*
X751590Y25861D01*
X751586Y25899D01*
X751531Y26100D01*
X751481Y26303D01*
X751466Y26338D01*
X751455Y26374D01*
X751368Y26564D01*
X751286Y26756D01*
X751266Y26788D01*
X751250Y26823D01*
X751133Y26996D01*
X751021Y27172D01*
X750996Y27200D01*
X750974Y27232D01*
X750831Y27385D01*
X750692Y27540D01*
X750663Y27564D01*
X750637Y27592D01*
X750471Y27719D01*
X750308Y27850D01*
X750275Y27869D01*
X750245Y27892D01*
X750061Y27991D01*
X749880Y28094D01*
X749844Y28107D01*
X749810Y28125D01*
X749613Y28193D01*
X749417Y28265D01*
X749380Y28273D01*
X749344Y28285D01*
X749137Y28320D01*
X748933Y28360D01*
X748895Y28361D01*
X748857Y28368D01*
X748648Y28369D01*
X748440Y28376D01*
X748402Y28371D01*
X748364Y28371D01*
X748157Y28338D01*
X747951Y28311D01*
X747914Y28300D01*
X747877Y28294D01*
X747678Y28229D01*
X747479Y28169D01*
X747444Y28152D01*
X747408Y28140D01*
X747223Y28043D01*
X747035Y27952D01*
X747004Y27930D01*
X746970Y27912D01*
X746898Y27854D01*
X746633Y27666D01*
X746511Y27545D01*
X746437Y27487D01*
X743979Y25029D01*
X743925Y24965D01*
X743864Y24907D01*
X743765Y24777D01*
X743660Y24653D01*
X743616Y24581D01*
X743566Y24514D01*
X743489Y24370D01*
X743405Y24230D01*
X743374Y24152D01*
X743335Y24078D01*
X743283Y23924D01*
X743222Y23772D01*
X743204Y23690D01*
X743177Y23611D01*
X743150Y23450D01*
X743115Y23290D01*
X743110Y23207D01*
X743097Y23124D01*
X743097Y22961D01*
X743088Y22798D01*
X743096Y22714D01*
X743096Y22631D01*
X743122Y22470D01*
X743140Y22307D01*
X743162Y22226D01*
X743175Y22144D01*
X743227Y21989D01*
X743270Y21831D01*
X743305Y21755D01*
X743332Y21676D01*
X743383Y21585D01*
X743476Y21383D01*
X743617Y21174D01*
X743669Y21083D01*
X744923Y19357D01*
X745877Y17484D01*
X745889Y17464D01*
X745898Y17443D01*
X746018Y17255D01*
X746136Y17064D01*
X746151Y17046D01*
X746163Y17027D01*
X746312Y16861D01*
X746459Y16691D01*
X746476Y16676D01*
X746492Y16659D01*
X746666Y16519D01*
X746838Y16375D01*
X746858Y16364D01*
X746876Y16349D01*
X747070Y16239D01*
X747263Y16125D01*
X747284Y16117D01*
X747304Y16105D01*
X747515Y16027D01*
X747723Y15946D01*
X747745Y15942D01*
X747767Y15934D01*
X747986Y15891D01*
X748206Y15845D01*
X748229Y15843D01*
X748251Y15839D01*
X748473Y15832D01*
X748698Y15822D01*
X748721Y15824D01*
G37*
G36*
X88976Y10167D02*
X88976Y10167D01*
X89052Y10165D01*
X89221Y10187D01*
X89392Y10201D01*
X89466Y10219D01*
X89541Y10229D01*
X89705Y10278D01*
X89871Y10319D01*
X89941Y10349D01*
X90014Y10371D01*
X90167Y10447D01*
X90324Y10514D01*
X90388Y10555D01*
X90457Y10588D01*
X90596Y10687D01*
X90740Y10779D01*
X90797Y10830D01*
X90859Y10874D01*
X90981Y10994D01*
X91108Y11108D01*
X91156Y11167D01*
X91210Y11221D01*
X91311Y11359D01*
X91418Y11492D01*
X91456Y11558D01*
X91500Y11619D01*
X91577Y11772D01*
X91662Y11920D01*
X91688Y11992D01*
X91723Y12060D01*
X91774Y12223D01*
X91834Y12383D01*
X91848Y12458D01*
X91871Y12530D01*
X91883Y12635D01*
X91928Y12867D01*
X91936Y13103D01*
X91947Y13208D01*
X91947Y19812D01*
X91941Y19888D01*
X91944Y19964D01*
X91921Y20133D01*
X91907Y20304D01*
X91889Y20378D01*
X91879Y20453D01*
X91830Y20617D01*
X91789Y20783D01*
X91759Y20852D01*
X91737Y20926D01*
X91662Y21079D01*
X91594Y21236D01*
X91553Y21300D01*
X91520Y21369D01*
X91421Y21508D01*
X91329Y21652D01*
X91278Y21709D01*
X91234Y21771D01*
X91114Y21892D01*
X91000Y22020D01*
X90941Y22068D01*
X90888Y22122D01*
X90749Y22223D01*
X90617Y22330D01*
X90550Y22367D01*
X90489Y22412D01*
X90336Y22489D01*
X90188Y22574D01*
X90116Y22600D01*
X90048Y22635D01*
X89886Y22686D01*
X89725Y22745D01*
X89651Y22760D01*
X89578Y22783D01*
X89473Y22795D01*
X89241Y22840D01*
X89005Y22847D01*
X88900Y22859D01*
X88824Y22853D01*
X88748Y22855D01*
X88578Y22833D01*
X88408Y22819D01*
X88334Y22801D01*
X88259Y22791D01*
X88095Y22742D01*
X87929Y22701D01*
X87859Y22671D01*
X87786Y22649D01*
X87633Y22573D01*
X87476Y22506D01*
X87412Y22465D01*
X87343Y22432D01*
X87204Y22333D01*
X87060Y22241D01*
X87003Y22190D01*
X86941Y22146D01*
X86819Y22026D01*
X86692Y21912D01*
X86644Y21853D01*
X86590Y21799D01*
X86489Y21661D01*
X86382Y21528D01*
X86344Y21462D01*
X86299Y21401D01*
X86223Y21248D01*
X86138Y21100D01*
X86111Y21028D01*
X86077Y20960D01*
X86026Y20797D01*
X85966Y20637D01*
X85952Y20562D01*
X85929Y20490D01*
X85917Y20385D01*
X85872Y20153D01*
X85864Y19917D01*
X85853Y19812D01*
X85853Y13208D01*
X85859Y13132D01*
X85856Y13056D01*
X85879Y12887D01*
X85893Y12716D01*
X85911Y12642D01*
X85921Y12567D01*
X85970Y12403D01*
X86011Y12237D01*
X86041Y12168D01*
X86063Y12094D01*
X86138Y11941D01*
X86206Y11784D01*
X86247Y11720D01*
X86280Y11651D01*
X86379Y11512D01*
X86471Y11368D01*
X86522Y11311D01*
X86566Y11249D01*
X86686Y11128D01*
X86800Y11000D01*
X86859Y10952D01*
X86912Y10898D01*
X87051Y10797D01*
X87183Y10690D01*
X87250Y10653D01*
X87311Y10608D01*
X87464Y10531D01*
X87612Y10446D01*
X87684Y10420D01*
X87752Y10385D01*
X87914Y10334D01*
X88075Y10275D01*
X88149Y10260D01*
X88222Y10237D01*
X88327Y10225D01*
X88559Y10180D01*
X88795Y10173D01*
X88900Y10161D01*
X88976Y10167D01*
G37*
G36*
X723976Y10167D02*
X723976Y10167D01*
X724052Y10165D01*
X724221Y10187D01*
X724392Y10201D01*
X724466Y10219D01*
X724541Y10229D01*
X724705Y10278D01*
X724871Y10319D01*
X724941Y10349D01*
X725014Y10371D01*
X725167Y10447D01*
X725324Y10514D01*
X725388Y10555D01*
X725457Y10588D01*
X725596Y10687D01*
X725740Y10779D01*
X725797Y10830D01*
X725859Y10874D01*
X725981Y10994D01*
X726108Y11108D01*
X726156Y11167D01*
X726210Y11221D01*
X726311Y11359D01*
X726418Y11492D01*
X726456Y11558D01*
X726500Y11619D01*
X726577Y11772D01*
X726662Y11920D01*
X726688Y11992D01*
X726723Y12060D01*
X726774Y12223D01*
X726834Y12383D01*
X726848Y12458D01*
X726871Y12530D01*
X726883Y12635D01*
X726928Y12867D01*
X726936Y13103D01*
X726947Y13208D01*
X726947Y18796D01*
X726941Y18872D01*
X726944Y18948D01*
X726921Y19117D01*
X726907Y19288D01*
X726889Y19362D01*
X726879Y19437D01*
X726830Y19601D01*
X726789Y19767D01*
X726759Y19836D01*
X726737Y19910D01*
X726662Y20063D01*
X726594Y20220D01*
X726553Y20284D01*
X726520Y20353D01*
X726421Y20492D01*
X726329Y20636D01*
X726278Y20693D01*
X726234Y20755D01*
X726114Y20876D01*
X726000Y21004D01*
X725941Y21052D01*
X725888Y21106D01*
X725749Y21207D01*
X725617Y21314D01*
X725550Y21351D01*
X725489Y21396D01*
X725336Y21473D01*
X725188Y21558D01*
X725116Y21584D01*
X725048Y21619D01*
X724886Y21670D01*
X724725Y21729D01*
X724651Y21744D01*
X724578Y21767D01*
X724473Y21779D01*
X724241Y21824D01*
X724005Y21831D01*
X723900Y21843D01*
X723824Y21837D01*
X723748Y21839D01*
X723578Y21817D01*
X723408Y21803D01*
X723334Y21785D01*
X723259Y21775D01*
X723095Y21726D01*
X722929Y21685D01*
X722859Y21655D01*
X722786Y21633D01*
X722633Y21557D01*
X722476Y21490D01*
X722412Y21449D01*
X722343Y21416D01*
X722204Y21317D01*
X722060Y21225D01*
X722003Y21174D01*
X721941Y21130D01*
X721819Y21010D01*
X721692Y20896D01*
X721644Y20837D01*
X721590Y20783D01*
X721489Y20645D01*
X721382Y20512D01*
X721344Y20446D01*
X721299Y20385D01*
X721223Y20232D01*
X721138Y20084D01*
X721111Y20012D01*
X721077Y19944D01*
X721026Y19781D01*
X720966Y19621D01*
X720952Y19546D01*
X720929Y19474D01*
X720917Y19369D01*
X720872Y19137D01*
X720864Y18901D01*
X720853Y18796D01*
X720853Y13208D01*
X720859Y13132D01*
X720856Y13056D01*
X720879Y12887D01*
X720893Y12716D01*
X720911Y12642D01*
X720921Y12567D01*
X720970Y12403D01*
X721011Y12237D01*
X721041Y12168D01*
X721063Y12094D01*
X721138Y11941D01*
X721206Y11784D01*
X721247Y11720D01*
X721280Y11651D01*
X721379Y11512D01*
X721471Y11368D01*
X721522Y11311D01*
X721566Y11249D01*
X721686Y11128D01*
X721800Y11000D01*
X721859Y10952D01*
X721912Y10898D01*
X722051Y10797D01*
X722183Y10690D01*
X722250Y10653D01*
X722311Y10608D01*
X722464Y10531D01*
X722612Y10446D01*
X722684Y10420D01*
X722752Y10385D01*
X722914Y10334D01*
X723075Y10275D01*
X723149Y10260D01*
X723222Y10237D01*
X723327Y10225D01*
X723559Y10180D01*
X723795Y10173D01*
X723900Y10161D01*
X723976Y10167D01*
G37*
G36*
X399225Y59956D02*
X399225Y59956D01*
X399368Y59958D01*
X399471Y59976D01*
X399575Y59985D01*
X399713Y60019D01*
X399854Y60044D01*
X399952Y60078D01*
X400054Y60103D01*
X400185Y60160D01*
X400319Y60207D01*
X400411Y60257D01*
X400507Y60298D01*
X400627Y60374D01*
X400753Y60443D01*
X400835Y60507D01*
X400923Y60563D01*
X401029Y60658D01*
X401142Y60745D01*
X401213Y60822D01*
X401291Y60892D01*
X401381Y61003D01*
X401478Y61107D01*
X401535Y61194D01*
X401601Y61276D01*
X401671Y61399D01*
X401750Y61518D01*
X401793Y61613D01*
X401845Y61704D01*
X401895Y61838D01*
X401953Y61968D01*
X401980Y62069D01*
X402017Y62167D01*
X402044Y62307D01*
X402081Y62444D01*
X402091Y62549D01*
X402111Y62651D01*
X402116Y62793D01*
X402130Y62935D01*
X402123Y63040D01*
X402127Y63144D01*
X402108Y63285D01*
X402099Y63428D01*
X402076Y63530D01*
X402062Y63633D01*
X402021Y63770D01*
X401989Y63909D01*
X401950Y64005D01*
X401920Y64105D01*
X401857Y64233D01*
X401803Y64366D01*
X401749Y64455D01*
X401703Y64549D01*
X401620Y64665D01*
X401546Y64786D01*
X401478Y64866D01*
X401417Y64951D01*
X401317Y65052D01*
X401224Y65160D01*
X401144Y65228D01*
X401071Y65302D01*
X400956Y65386D01*
X400846Y65477D01*
X400777Y65515D01*
X400672Y65592D01*
X400284Y65788D01*
X400249Y65807D01*
X399681Y66043D01*
X399545Y66087D01*
X399412Y66139D01*
X399311Y66162D01*
X399211Y66194D01*
X399070Y66215D01*
X398931Y66246D01*
X398826Y66252D01*
X398723Y66268D01*
X398580Y66266D01*
X398438Y66274D01*
X398335Y66263D01*
X398230Y66261D01*
X398089Y66237D01*
X397948Y66222D01*
X397847Y66194D01*
X397744Y66176D01*
X397609Y66129D01*
X397472Y66091D01*
X397377Y66047D01*
X397278Y66013D01*
X397153Y65945D01*
X397024Y65885D01*
X396937Y65827D01*
X396845Y65777D01*
X396733Y65689D01*
X396614Y65610D01*
X396538Y65538D01*
X396456Y65474D01*
X396359Y65369D01*
X396255Y65272D01*
X396191Y65189D01*
X396120Y65112D01*
X396041Y64994D01*
X395955Y64880D01*
X395905Y64788D01*
X395847Y64701D01*
X395789Y64571D01*
X395721Y64446D01*
X395687Y64347D01*
X395645Y64252D01*
X395608Y64114D01*
X395561Y63979D01*
X395544Y63876D01*
X395517Y63775D01*
X395503Y63633D01*
X395479Y63493D01*
X395478Y63388D01*
X395468Y63284D01*
X395477Y63142D01*
X395476Y62999D01*
X395492Y62896D01*
X395499Y62792D01*
X395530Y62653D01*
X395552Y62512D01*
X395585Y62413D01*
X395608Y62311D01*
X395662Y62179D01*
X395707Y62043D01*
X395755Y61951D01*
X395794Y61854D01*
X395869Y61732D01*
X395935Y61606D01*
X395984Y61545D01*
X396052Y61433D01*
X396335Y61104D01*
X396360Y61073D01*
X396595Y60837D01*
X396682Y60763D01*
X396763Y60682D01*
X396870Y60604D01*
X396971Y60518D01*
X397069Y60459D01*
X397161Y60392D01*
X397280Y60332D01*
X397394Y60263D01*
X397500Y60221D01*
X397602Y60169D01*
X397729Y60129D01*
X397852Y60080D01*
X397963Y60055D01*
X398072Y60021D01*
X398166Y60011D01*
X398334Y59973D01*
X398657Y59955D01*
X398750Y59945D01*
X399083Y59945D01*
X399225Y59956D01*
G37*
G36*
X373238Y111534D02*
X373238Y111534D01*
X373342Y111534D01*
X373483Y111556D01*
X373625Y111568D01*
X373701Y111590D01*
X373830Y111610D01*
X374242Y111746D01*
X374281Y111757D01*
X374849Y111993D01*
X374976Y112058D01*
X375107Y112114D01*
X375195Y112170D01*
X375288Y112218D01*
X375403Y112303D01*
X375523Y112379D01*
X375601Y112449D01*
X375685Y112511D01*
X375785Y112613D01*
X375891Y112708D01*
X375957Y112789D01*
X376030Y112864D01*
X376112Y112981D01*
X376201Y113092D01*
X376253Y113182D01*
X376313Y113268D01*
X376375Y113397D01*
X376445Y113520D01*
X376481Y113618D01*
X376527Y113712D01*
X376567Y113849D01*
X376617Y113983D01*
X376637Y114085D01*
X376666Y114186D01*
X376684Y114327D01*
X376711Y114467D01*
X376715Y114571D01*
X376728Y114675D01*
X376722Y114818D01*
X376727Y114960D01*
X376713Y115064D01*
X376709Y115168D01*
X376681Y115308D01*
X376662Y115449D01*
X376632Y115549D01*
X376611Y115652D01*
X376561Y115785D01*
X376520Y115922D01*
X376474Y116016D01*
X376437Y116113D01*
X376366Y116236D01*
X376303Y116365D01*
X376242Y116450D01*
X376190Y116540D01*
X376100Y116651D01*
X376017Y116767D01*
X375944Y116841D01*
X375878Y116922D01*
X375771Y117017D01*
X375671Y117118D01*
X375586Y117179D01*
X375508Y117249D01*
X375387Y117324D01*
X375272Y117408D01*
X375179Y117455D01*
X375090Y117511D01*
X374959Y117566D01*
X374831Y117631D01*
X374732Y117662D01*
X374635Y117703D01*
X374497Y117736D01*
X374361Y117779D01*
X374283Y117788D01*
X374156Y117818D01*
X373723Y117851D01*
X373683Y117855D01*
X373350Y117855D01*
X373236Y117846D01*
X373122Y117847D01*
X372991Y117826D01*
X372858Y117815D01*
X372748Y117788D01*
X372635Y117770D01*
X372509Y117729D01*
X372380Y117697D01*
X372275Y117652D01*
X372166Y117616D01*
X372048Y117555D01*
X371926Y117502D01*
X371830Y117441D01*
X371729Y117388D01*
X371655Y117329D01*
X371510Y117237D01*
X371268Y117021D01*
X371195Y116963D01*
X370960Y116727D01*
X370868Y116619D01*
X370768Y116517D01*
X370708Y116431D01*
X370640Y116351D01*
X370567Y116229D01*
X370485Y116113D01*
X370440Y116018D01*
X370386Y115929D01*
X370333Y115797D01*
X370271Y115668D01*
X370241Y115568D01*
X370203Y115471D01*
X370172Y115332D01*
X370131Y115195D01*
X370118Y115091D01*
X370096Y114989D01*
X370088Y114847D01*
X370070Y114705D01*
X370074Y114601D01*
X370068Y114497D01*
X370083Y114355D01*
X370089Y114212D01*
X370109Y114110D01*
X370120Y114006D01*
X370158Y113868D01*
X370186Y113729D01*
X370223Y113631D01*
X370251Y113530D01*
X370311Y113401D01*
X370361Y113267D01*
X370413Y113177D01*
X370457Y113082D01*
X370536Y112964D01*
X370608Y112840D01*
X370674Y112759D01*
X370732Y112673D01*
X370830Y112569D01*
X370920Y112458D01*
X370998Y112389D01*
X371070Y112313D01*
X371183Y112226D01*
X371290Y112132D01*
X371378Y112076D01*
X371461Y112013D01*
X371587Y111945D01*
X371708Y111869D01*
X371804Y111829D01*
X371896Y111779D01*
X372031Y111733D01*
X372162Y111678D01*
X372264Y111653D01*
X372363Y111619D01*
X372503Y111596D01*
X372642Y111562D01*
X372746Y111554D01*
X372849Y111537D01*
X372991Y111536D01*
X373134Y111525D01*
X373238Y111534D01*
G37*
G36*
X414164Y59954D02*
X414164Y59954D01*
X414278Y59953D01*
X414409Y59974D01*
X414542Y59985D01*
X414652Y60012D01*
X414765Y60030D01*
X414892Y60071D01*
X415020Y60103D01*
X415125Y60148D01*
X415234Y60184D01*
X415352Y60246D01*
X415474Y60298D01*
X415570Y60359D01*
X415671Y60412D01*
X415745Y60471D01*
X415890Y60563D01*
X416132Y60779D01*
X416205Y60837D01*
X416440Y61073D01*
X416532Y61181D01*
X416632Y61283D01*
X416692Y61369D01*
X416760Y61449D01*
X416833Y61571D01*
X416915Y61688D01*
X416960Y61782D01*
X417014Y61871D01*
X417067Y62003D01*
X417129Y62132D01*
X417159Y62232D01*
X417197Y62329D01*
X417228Y62468D01*
X417268Y62605D01*
X417281Y62709D01*
X417304Y62811D01*
X417312Y62954D01*
X417330Y63095D01*
X417326Y63199D01*
X417332Y63304D01*
X417317Y63446D01*
X417311Y63588D01*
X417291Y63690D01*
X417280Y63794D01*
X417242Y63932D01*
X417214Y64071D01*
X417177Y64169D01*
X417149Y64270D01*
X417089Y64399D01*
X417039Y64533D01*
X416987Y64623D01*
X416943Y64718D01*
X416864Y64837D01*
X416792Y64960D01*
X416726Y65041D01*
X416668Y65128D01*
X416570Y65231D01*
X416480Y65342D01*
X416402Y65411D01*
X416330Y65487D01*
X416217Y65574D01*
X416110Y65668D01*
X416022Y65724D01*
X415939Y65787D01*
X415813Y65855D01*
X415692Y65931D01*
X415596Y65971D01*
X415504Y66021D01*
X415369Y66067D01*
X415238Y66122D01*
X415136Y66147D01*
X415037Y66181D01*
X414896Y66204D01*
X414758Y66238D01*
X414654Y66246D01*
X414551Y66263D01*
X414408Y66264D01*
X414266Y66275D01*
X414162Y66266D01*
X414057Y66266D01*
X413916Y66244D01*
X413775Y66232D01*
X413699Y66210D01*
X413570Y66190D01*
X413157Y66054D01*
X413119Y66043D01*
X412551Y65807D01*
X412424Y65742D01*
X412293Y65686D01*
X412205Y65630D01*
X412112Y65582D01*
X411997Y65498D01*
X411877Y65421D01*
X411799Y65351D01*
X411715Y65289D01*
X411615Y65187D01*
X411509Y65092D01*
X411443Y65011D01*
X411370Y64936D01*
X411288Y64819D01*
X411199Y64708D01*
X411147Y64618D01*
X411087Y64532D01*
X411025Y64403D01*
X410955Y64280D01*
X410919Y64182D01*
X410873Y64087D01*
X410833Y63951D01*
X410783Y63817D01*
X410763Y63715D01*
X410734Y63614D01*
X410716Y63473D01*
X410689Y63333D01*
X410685Y63229D01*
X410672Y63125D01*
X410678Y62982D01*
X410673Y62840D01*
X410687Y62736D01*
X410691Y62632D01*
X410719Y62492D01*
X410738Y62351D01*
X410768Y62251D01*
X410789Y62148D01*
X410839Y62015D01*
X410880Y61878D01*
X410926Y61785D01*
X410963Y61687D01*
X411035Y61563D01*
X411097Y61435D01*
X411158Y61350D01*
X411210Y61260D01*
X411300Y61149D01*
X411383Y61033D01*
X411456Y60959D01*
X411522Y60878D01*
X411629Y60783D01*
X411729Y60682D01*
X411814Y60621D01*
X411892Y60551D01*
X412013Y60476D01*
X412128Y60392D01*
X412222Y60345D01*
X412310Y60289D01*
X412441Y60234D01*
X412569Y60169D01*
X412668Y60138D01*
X412765Y60097D01*
X412903Y60064D01*
X413039Y60021D01*
X413117Y60012D01*
X413244Y59982D01*
X413677Y59949D01*
X413717Y59945D01*
X414050Y59945D01*
X414164Y59954D01*
G37*
D10*
X330200Y79756D02*
X330200Y98044D01*
X355600Y98044D02*
X355600Y79756D01*
X482600Y79756D02*
X482600Y98044D01*
X482600Y155956D02*
X482600Y174244D01*
X381000Y98044D02*
X381000Y79756D01*
X406400Y79756D02*
X406400Y98044D01*
X457200Y98044D02*
X457200Y79756D01*
X431800Y79756D02*
X431800Y98044D01*
X457200Y155956D02*
X457200Y174244D01*
X431800Y174244D02*
X431800Y155956D01*
X406400Y155956D02*
X406400Y174244D01*
X381000Y174244D02*
X381000Y155956D01*
X355600Y155956D02*
X355600Y174244D01*
X330200Y174244D02*
X330200Y155956D01*
D11*
X279400Y38100D03*
X279400Y165100D03*
D12*
X241300Y165100D03*
X241300Y38100D03*
D11*
X520700Y38100D03*
X520700Y165100D03*
D12*
X571500Y165100D03*
X571500Y38100D03*
D10*
X98044Y190500D02*
X79756Y190500D01*
X79756Y165100D02*
X98044Y165100D01*
X98044Y139700D02*
X79756Y139700D01*
X79756Y114300D02*
X98044Y114300D01*
X98044Y88900D02*
X79756Y88900D01*
X79756Y63500D02*
X98044Y63500D01*
X98044Y38100D02*
X79756Y38100D01*
X79756Y12700D02*
X98044Y12700D01*
D13*
X713740Y12700D02*
X734060Y12700D01*
X734060Y38100D02*
X713740Y38100D01*
X713740Y63500D02*
X734060Y63500D01*
X734060Y88900D02*
X713740Y88900D01*
X713740Y114300D02*
X734060Y114300D01*
X734060Y139700D02*
X713740Y139700D01*
X713740Y165100D02*
X734060Y165100D01*
X734060Y190500D02*
X713740Y190500D01*
D14*
X381000Y88900D02*
X381000Y63500D01*
X393700Y50800D01*
X419100Y50800D01*
X431800Y63500D01*
X431800Y88900D01*
X279400Y38100D02*
X241300Y38100D01*
X330200Y50800D02*
X330200Y88900D01*
X330200Y50800D02*
X317500Y38100D01*
X279400Y38100D01*
X279400Y190500D02*
X88900Y190500D01*
X279400Y190500D02*
X330200Y190500D01*
X520700Y190500D01*
X723900Y190500D01*
X330200Y190500D02*
X330200Y165100D01*
X279400Y165100D02*
X279400Y190500D01*
X520700Y190500D02*
X520700Y165100D01*
X520700Y38100D02*
X571500Y38100D01*
X520700Y38100D02*
X520700Y101600D01*
X508000Y114300D01*
X469900Y114300D01*
X457200Y101600D01*
X457200Y88900D01*
D15*
X723900Y12700D02*
X736600Y12700D01*
D14*
X723900Y139700D02*
X723900Y165100D01*
X355600Y114300D02*
X355600Y88900D01*
X355600Y114300D02*
X368300Y127000D01*
X406400Y127000D01*
X406400Y88900D01*
X406400Y127000D02*
X673100Y127000D01*
X685800Y139700D01*
X723900Y139700D01*
M02*
