G04 EAGLE Gerber X2 export*
G04 #@! %TF.Part,Single*
G04 #@! %TF.FileFunction,Copper,L1,Top,Mixed*
G04 #@! %TF.FilePolarity,Positive*
G04 #@! %TF.GenerationSoftware,Autodesk,EAGLE,9.0.0*
G04 #@! %TF.CreationDate,2019-08-08T19:16:13Z*
G75*
%MOMM*%
%FSLAX34Y34*%
%LPD*%
%AMOC8*
5,1,8,0,0,1.08239X$1,22.5*%
G01*
%ADD10C,1.320800*%
%ADD11P,1.429621X8X112.500000*%
%ADD12P,1.429621X8X292.500000*%
%ADD13C,1.524000*%
%ADD14C,0.609600*%

G36*
X152984Y21851D02*
X152984Y21851D01*
X153060Y21849D01*
X153229Y21871D01*
X153400Y21885D01*
X153474Y21903D01*
X153549Y21913D01*
X153713Y21962D01*
X153879Y22003D01*
X153948Y22033D01*
X154022Y22055D01*
X154175Y22131D01*
X154332Y22198D01*
X154396Y22239D01*
X154465Y22272D01*
X154604Y22371D01*
X154748Y22463D01*
X154805Y22514D01*
X154867Y22558D01*
X154988Y22678D01*
X155116Y22792D01*
X155164Y22851D01*
X155218Y22905D01*
X155319Y23043D01*
X155426Y23176D01*
X155463Y23242D01*
X155508Y23303D01*
X155585Y23456D01*
X155670Y23604D01*
X155696Y23676D01*
X155731Y23744D01*
X155782Y23906D01*
X155841Y24067D01*
X155856Y24142D01*
X155879Y24214D01*
X155891Y24319D01*
X155936Y24551D01*
X155943Y24787D01*
X155955Y24892D01*
X155955Y53808D01*
X155945Y53938D01*
X155944Y54069D01*
X155925Y54184D01*
X155915Y54300D01*
X155884Y54426D01*
X155862Y54555D01*
X155825Y54666D01*
X155797Y54779D01*
X155745Y54898D01*
X155703Y55022D01*
X155648Y55125D01*
X155602Y55232D01*
X155532Y55342D01*
X155470Y55457D01*
X155400Y55550D01*
X155337Y55648D01*
X155250Y55745D01*
X155171Y55849D01*
X155086Y55929D01*
X155008Y56016D01*
X154907Y56098D01*
X154812Y56188D01*
X154715Y56253D01*
X154624Y56326D01*
X154511Y56390D01*
X154403Y56464D01*
X154297Y56512D01*
X154196Y56570D01*
X154073Y56615D01*
X153955Y56670D01*
X153843Y56701D01*
X153733Y56742D01*
X153605Y56767D01*
X153479Y56801D01*
X153394Y56808D01*
X153249Y56836D01*
X153097Y56841D01*
X152274Y57148D01*
X151936Y57244D01*
X151857Y57270D01*
X151058Y57444D01*
X150883Y57566D01*
X150849Y57585D01*
X150818Y57609D01*
X150735Y57652D01*
X150456Y57813D01*
X150294Y57875D01*
X150210Y57918D01*
X147747Y58836D01*
X147710Y58847D01*
X147674Y58863D01*
X147582Y58883D01*
X147273Y58971D01*
X147100Y58990D01*
X147008Y59011D01*
X146796Y59034D01*
X146079Y59426D01*
X145757Y59569D01*
X145683Y59606D01*
X144917Y59892D01*
X144761Y60037D01*
X144730Y60061D01*
X144703Y60090D01*
X144626Y60144D01*
X144374Y60343D01*
X144222Y60427D01*
X144145Y60481D01*
X141838Y61741D01*
X141802Y61757D01*
X141769Y61778D01*
X141681Y61811D01*
X141387Y61942D01*
X141219Y61986D01*
X141131Y62019D01*
X140925Y62072D01*
X140270Y62562D01*
X139972Y62749D01*
X139904Y62797D01*
X139187Y63189D01*
X139053Y63355D01*
X139026Y63383D01*
X139003Y63415D01*
X138935Y63479D01*
X138713Y63712D01*
X138575Y63817D01*
X138506Y63882D01*
X136402Y65457D01*
X136369Y65478D01*
X136339Y65503D01*
X136257Y65549D01*
X135985Y65720D01*
X135825Y65787D01*
X135742Y65833D01*
X135545Y65915D01*
X134967Y66493D01*
X134699Y66720D01*
X134639Y66778D01*
X133984Y67267D01*
X133875Y67451D01*
X133853Y67483D01*
X133835Y67517D01*
X133776Y67591D01*
X133590Y67853D01*
X133468Y67977D01*
X133409Y68051D01*
X131551Y69909D01*
X131521Y69935D01*
X131495Y69964D01*
X131420Y70021D01*
X131175Y70229D01*
X131026Y70318D01*
X130951Y70375D01*
X130767Y70484D01*
X130278Y71139D01*
X130045Y71402D01*
X129993Y71467D01*
X129415Y72045D01*
X129333Y72242D01*
X129315Y72277D01*
X129302Y72314D01*
X129255Y72395D01*
X129108Y72681D01*
X129005Y72821D01*
X128957Y72902D01*
X127382Y75006D01*
X127356Y75036D01*
X127334Y75068D01*
X127268Y75135D01*
X127055Y75376D01*
X126921Y75486D01*
X126855Y75553D01*
X126689Y75687D01*
X126297Y76404D01*
X126104Y76698D01*
X126062Y76770D01*
X125572Y77425D01*
X125519Y77631D01*
X125506Y77668D01*
X125499Y77707D01*
X125463Y77794D01*
X125359Y78098D01*
X125277Y78251D01*
X125241Y78338D01*
X123981Y80645D01*
X123960Y80678D01*
X123943Y80713D01*
X123887Y80789D01*
X123711Y81057D01*
X123593Y81185D01*
X123537Y81261D01*
X123392Y81417D01*
X123106Y82183D01*
X122957Y82502D01*
X122926Y82579D01*
X122534Y83296D01*
X122511Y83508D01*
X122504Y83547D01*
X122502Y83586D01*
X122479Y83676D01*
X122419Y83993D01*
X122359Y84156D01*
X122336Y84247D01*
X121418Y86710D01*
X121401Y86745D01*
X121389Y86783D01*
X121345Y86865D01*
X121208Y87157D01*
X121110Y87300D01*
X121066Y87383D01*
X120944Y87558D01*
X120770Y88357D01*
X120668Y88693D01*
X120648Y88774D01*
X120362Y89540D01*
X120370Y89753D01*
X120368Y89792D01*
X120371Y89831D01*
X120362Y89925D01*
X120347Y90246D01*
X120312Y90416D01*
X120302Y90510D01*
X119743Y93078D01*
X119732Y93116D01*
X119726Y93154D01*
X119693Y93242D01*
X119600Y93550D01*
X119523Y93706D01*
X119491Y93794D01*
X119395Y93985D01*
X119337Y94801D01*
X119283Y95149D01*
X119275Y95231D01*
X119101Y96030D01*
X119139Y96240D01*
X119143Y96278D01*
X119152Y96317D01*
X119156Y96411D01*
X119187Y96731D01*
X119176Y96904D01*
X119180Y96998D01*
X119021Y99214D01*
X118999Y99360D01*
X118986Y99507D01*
X118965Y99580D01*
X118946Y99701D01*
X118871Y99932D01*
X118871Y101201D01*
X118860Y101337D01*
X118864Y101418D01*
X118774Y102667D01*
X118795Y102733D01*
X118803Y102808D01*
X118833Y102928D01*
X118852Y103170D01*
X119337Y104342D01*
X119379Y104472D01*
X119413Y104546D01*
X119809Y105734D01*
X119853Y105787D01*
X119890Y105853D01*
X119963Y105952D01*
X120173Y106367D01*
X120183Y106384D01*
X120262Y106574D01*
X120272Y106592D01*
X120301Y106663D01*
X120338Y106732D01*
X120393Y106892D01*
X120456Y107049D01*
X120473Y107125D01*
X120498Y107198D01*
X120526Y107366D01*
X120563Y107531D01*
X120567Y107608D01*
X120580Y107685D01*
X120581Y107854D01*
X120591Y108024D01*
X120583Y108101D01*
X120583Y108178D01*
X120557Y108346D01*
X120539Y108514D01*
X120519Y108589D01*
X120507Y108665D01*
X120454Y108826D01*
X120409Y108990D01*
X120377Y109060D01*
X120353Y109134D01*
X120298Y109239D01*
X120183Y109516D01*
X120116Y109648D01*
X120057Y109783D01*
X120014Y109845D01*
X119958Y109955D01*
X119814Y110150D01*
X119413Y111354D01*
X119360Y111480D01*
X119337Y111558D01*
X118858Y112715D01*
X118857Y112784D01*
X118841Y112858D01*
X118831Y112981D01*
X118773Y113216D01*
X118864Y114482D01*
X118862Y114619D01*
X118871Y114699D01*
X118871Y115951D01*
X118897Y116016D01*
X118910Y116090D01*
X118948Y116207D01*
X119018Y116667D01*
X119021Y116686D01*
X119180Y118902D01*
X119179Y118941D01*
X119184Y118980D01*
X119178Y119074D01*
X119175Y119395D01*
X119145Y119566D01*
X119139Y119660D01*
X119101Y119870D01*
X119275Y120669D01*
X119322Y121017D01*
X119337Y121099D01*
X119395Y121915D01*
X119491Y122106D01*
X119505Y122142D01*
X119525Y122176D01*
X119555Y122265D01*
X119675Y122563D01*
X119713Y122732D01*
X119743Y122822D01*
X120302Y125390D01*
X120307Y125429D01*
X120318Y125467D01*
X120325Y125560D01*
X120327Y125573D01*
X120335Y125615D01*
X120335Y125640D01*
X120367Y125879D01*
X120362Y126053D01*
X120370Y126147D01*
X120362Y126360D01*
X120648Y127126D01*
X120744Y127464D01*
X120770Y127543D01*
X120944Y128342D01*
X121066Y128517D01*
X121085Y128551D01*
X121109Y128582D01*
X121152Y128665D01*
X121313Y128944D01*
X121375Y129106D01*
X121418Y129190D01*
X122336Y131653D01*
X122347Y131690D01*
X122363Y131726D01*
X122383Y131818D01*
X122471Y132127D01*
X122490Y132300D01*
X122511Y132392D01*
X122534Y132604D01*
X122926Y133321D01*
X123069Y133643D01*
X123106Y133717D01*
X123392Y134483D01*
X123537Y134639D01*
X123561Y134670D01*
X123590Y134697D01*
X123644Y134774D01*
X123843Y135026D01*
X123927Y135178D01*
X123981Y135255D01*
X125241Y137562D01*
X125257Y137598D01*
X125278Y137631D01*
X125311Y137719D01*
X125442Y138013D01*
X125486Y138181D01*
X125519Y138269D01*
X125572Y138475D01*
X126062Y139130D01*
X126249Y139428D01*
X126297Y139496D01*
X126689Y140213D01*
X126855Y140347D01*
X126883Y140374D01*
X126915Y140397D01*
X126979Y140465D01*
X127212Y140687D01*
X127317Y140825D01*
X127382Y140894D01*
X128957Y142998D01*
X128978Y143031D01*
X129003Y143061D01*
X129049Y143143D01*
X129220Y143415D01*
X129287Y143575D01*
X129333Y143658D01*
X129415Y143855D01*
X129993Y144433D01*
X130221Y144701D01*
X130278Y144761D01*
X130767Y145416D01*
X130951Y145525D01*
X130983Y145547D01*
X131017Y145565D01*
X131091Y145624D01*
X131353Y145810D01*
X131477Y145932D01*
X131551Y145991D01*
X133409Y147849D01*
X133435Y147879D01*
X133464Y147905D01*
X133521Y147980D01*
X133729Y148225D01*
X133818Y148374D01*
X133875Y148449D01*
X133984Y148633D01*
X134639Y149122D01*
X134902Y149355D01*
X134967Y149407D01*
X135545Y149985D01*
X135742Y150067D01*
X135777Y150085D01*
X135814Y150098D01*
X135895Y150145D01*
X136181Y150292D01*
X136321Y150395D01*
X136402Y150443D01*
X138506Y152018D01*
X138536Y152044D01*
X138568Y152066D01*
X138635Y152132D01*
X138876Y152345D01*
X138986Y152479D01*
X139053Y152545D01*
X139187Y152711D01*
X139904Y153103D01*
X140198Y153296D01*
X140270Y153338D01*
X140925Y153828D01*
X141131Y153881D01*
X141168Y153894D01*
X141207Y153901D01*
X141294Y153937D01*
X141598Y154041D01*
X141751Y154123D01*
X141838Y154159D01*
X144145Y155419D01*
X144178Y155440D01*
X144213Y155457D01*
X144289Y155513D01*
X144557Y155689D01*
X144685Y155807D01*
X144761Y155863D01*
X144917Y156008D01*
X145683Y156294D01*
X146002Y156443D01*
X146079Y156474D01*
X146796Y156866D01*
X147008Y156889D01*
X147047Y156896D01*
X147086Y156898D01*
X147176Y156921D01*
X147493Y156981D01*
X147656Y157041D01*
X147747Y157064D01*
X150210Y157982D01*
X150245Y157999D01*
X150283Y158011D01*
X150365Y158055D01*
X150657Y158192D01*
X150800Y158290D01*
X150883Y158334D01*
X151058Y158456D01*
X151857Y158630D01*
X152193Y158732D01*
X152274Y158752D01*
X153073Y159050D01*
X153175Y159064D01*
X153292Y159069D01*
X153420Y159096D01*
X153549Y159113D01*
X153661Y159146D01*
X153775Y159170D01*
X153897Y159218D01*
X154022Y159255D01*
X154126Y159307D01*
X154235Y159349D01*
X154347Y159415D01*
X154465Y159472D01*
X154560Y159540D01*
X154660Y159599D01*
X154761Y159682D01*
X154867Y159758D01*
X154950Y159840D01*
X155039Y159914D01*
X155125Y160013D01*
X155218Y160104D01*
X155286Y160199D01*
X155363Y160287D01*
X155432Y160398D01*
X155508Y160503D01*
X155561Y160607D01*
X155622Y160706D01*
X155672Y160827D01*
X155731Y160944D01*
X155766Y161055D01*
X155810Y161162D01*
X155840Y161289D01*
X155879Y161414D01*
X155889Y161499D01*
X155922Y161643D01*
X155947Y162022D01*
X155955Y162092D01*
X155955Y166919D01*
X157347Y170280D01*
X159920Y172853D01*
X163281Y174245D01*
X231221Y174245D01*
X231335Y174254D01*
X231449Y174253D01*
X231580Y174274D01*
X231713Y174285D01*
X231823Y174312D01*
X231936Y174330D01*
X232063Y174371D01*
X232192Y174403D01*
X232296Y174448D01*
X232405Y174484D01*
X232523Y174546D01*
X232645Y174598D01*
X232741Y174659D01*
X232843Y174712D01*
X232916Y174771D01*
X233061Y174863D01*
X233303Y175079D01*
X233376Y175137D01*
X236039Y177801D01*
X246561Y177801D01*
X254001Y170361D01*
X254001Y159839D01*
X246561Y152399D01*
X236039Y152399D01*
X233376Y155063D01*
X233289Y155137D01*
X233208Y155218D01*
X233101Y155296D01*
X233000Y155382D01*
X232902Y155441D01*
X232810Y155508D01*
X232691Y155568D01*
X232577Y155637D01*
X232471Y155679D01*
X232369Y155731D01*
X232242Y155771D01*
X232119Y155820D01*
X232008Y155845D01*
X231899Y155879D01*
X231805Y155889D01*
X231637Y155927D01*
X231313Y155945D01*
X231221Y155955D01*
X195589Y155955D01*
X195580Y155955D01*
X195571Y155955D01*
X195336Y155935D01*
X195098Y155915D01*
X195089Y155913D01*
X195079Y155912D01*
X194850Y155854D01*
X194619Y155797D01*
X194610Y155793D01*
X194601Y155791D01*
X194383Y155696D01*
X194165Y155602D01*
X194158Y155597D01*
X194149Y155593D01*
X193949Y155464D01*
X193749Y155337D01*
X193742Y155331D01*
X193735Y155326D01*
X193558Y155166D01*
X193381Y155008D01*
X193376Y155001D01*
X193369Y154995D01*
X193220Y154808D01*
X193072Y154624D01*
X193067Y154616D01*
X193061Y154609D01*
X192945Y154402D01*
X192828Y154196D01*
X192824Y154187D01*
X192820Y154179D01*
X192739Y153957D01*
X192656Y153733D01*
X192654Y153724D01*
X192651Y153715D01*
X192606Y153479D01*
X192561Y153249D01*
X192561Y153240D01*
X192559Y153231D01*
X192553Y152991D01*
X192546Y152756D01*
X192547Y152747D01*
X192547Y152737D01*
X192579Y152502D01*
X192610Y152267D01*
X192613Y152258D01*
X192614Y152249D01*
X192684Y152023D01*
X192753Y151795D01*
X192757Y151786D01*
X192760Y151777D01*
X192865Y151565D01*
X192970Y151351D01*
X192975Y151344D01*
X192979Y151335D01*
X193118Y151142D01*
X193255Y150949D01*
X193262Y150942D01*
X193267Y150935D01*
X193296Y150908D01*
X193451Y150751D01*
X193483Y150714D01*
X193510Y150691D01*
X193602Y150598D01*
X193707Y150522D01*
X193764Y150468D01*
X193799Y150442D01*
X193831Y150421D01*
X193861Y150397D01*
X193933Y150357D01*
X194001Y150308D01*
X194060Y150278D01*
X194216Y150179D01*
X194375Y150112D01*
X194458Y150067D01*
X194655Y149985D01*
X195233Y149407D01*
X195501Y149179D01*
X195562Y149122D01*
X196216Y148632D01*
X196325Y148449D01*
X196347Y148417D01*
X196365Y148383D01*
X196424Y148309D01*
X196610Y148047D01*
X196732Y147923D01*
X196791Y147849D01*
X198649Y145991D01*
X198679Y145965D01*
X198705Y145936D01*
X198780Y145879D01*
X199025Y145671D01*
X199174Y145582D01*
X199249Y145525D01*
X199432Y145416D01*
X199922Y144761D01*
X200156Y144498D01*
X200207Y144433D01*
X200785Y143855D01*
X200867Y143658D01*
X200885Y143623D01*
X200898Y143586D01*
X200945Y143505D01*
X201092Y143219D01*
X201195Y143079D01*
X201243Y142998D01*
X202818Y140894D01*
X202844Y140864D01*
X202866Y140832D01*
X202931Y140765D01*
X203144Y140524D01*
X203279Y140414D01*
X203345Y140347D01*
X203511Y140213D01*
X203903Y139496D01*
X204096Y139201D01*
X204138Y139130D01*
X204628Y138475D01*
X204681Y138269D01*
X204693Y138232D01*
X204701Y138193D01*
X204737Y138106D01*
X204841Y137802D01*
X204923Y137649D01*
X204959Y137562D01*
X206219Y135255D01*
X206240Y135222D01*
X206257Y135187D01*
X206313Y135111D01*
X206489Y134843D01*
X206607Y134715D01*
X206663Y134639D01*
X206808Y134483D01*
X207094Y133717D01*
X207243Y133398D01*
X207274Y133321D01*
X207666Y132604D01*
X207689Y132392D01*
X207696Y132353D01*
X207698Y132314D01*
X207721Y132224D01*
X207781Y131907D01*
X207841Y131745D01*
X207864Y131653D01*
X208782Y129190D01*
X208799Y129154D01*
X208811Y129117D01*
X208855Y129034D01*
X208992Y128743D01*
X209090Y128600D01*
X209134Y128517D01*
X209256Y128342D01*
X209430Y127543D01*
X209532Y127206D01*
X209552Y127126D01*
X209838Y126360D01*
X209830Y126147D01*
X209832Y126108D01*
X209829Y126069D01*
X209838Y125975D01*
X209853Y125654D01*
X209888Y125484D01*
X209898Y125390D01*
X210457Y122822D01*
X210468Y122784D01*
X210474Y122746D01*
X210507Y122658D01*
X210600Y122350D01*
X210677Y122194D01*
X210709Y122106D01*
X210805Y121915D01*
X210863Y121099D01*
X210917Y120751D01*
X210925Y120669D01*
X211099Y119870D01*
X211061Y119660D01*
X211057Y119622D01*
X211048Y119583D01*
X211044Y119489D01*
X211013Y119169D01*
X211024Y118996D01*
X211020Y118902D01*
X211179Y116686D01*
X211201Y116540D01*
X211214Y116393D01*
X211235Y116321D01*
X211254Y116199D01*
X211329Y115968D01*
X211329Y114699D01*
X211340Y114563D01*
X211336Y114482D01*
X211426Y113233D01*
X211405Y113167D01*
X211397Y113092D01*
X211367Y112972D01*
X211348Y112730D01*
X210863Y111558D01*
X210821Y111428D01*
X210787Y111354D01*
X210391Y110166D01*
X210347Y110113D01*
X210310Y110047D01*
X210238Y109948D01*
X210026Y109533D01*
X210017Y109516D01*
X209938Y109325D01*
X209926Y109306D01*
X209898Y109234D01*
X209861Y109166D01*
X209806Y109006D01*
X209743Y108848D01*
X209727Y108773D01*
X209702Y108699D01*
X209673Y108532D01*
X209637Y108366D01*
X209632Y108289D01*
X209619Y108213D01*
X209618Y108043D01*
X209609Y107874D01*
X209617Y107797D01*
X209617Y107720D01*
X209643Y107552D01*
X209661Y107383D01*
X209682Y107309D01*
X209694Y107232D01*
X209747Y107071D01*
X209792Y106908D01*
X209824Y106837D01*
X209848Y106764D01*
X209903Y106659D01*
X210017Y106384D01*
X210084Y106252D01*
X210143Y106116D01*
X210186Y106055D01*
X210242Y105945D01*
X210386Y105750D01*
X210787Y104546D01*
X210840Y104420D01*
X210863Y104342D01*
X211342Y103185D01*
X211343Y103116D01*
X211359Y103042D01*
X211369Y102919D01*
X211427Y102684D01*
X211336Y101418D01*
X211338Y101281D01*
X211329Y101201D01*
X211329Y99949D01*
X211303Y99884D01*
X211290Y99810D01*
X211252Y99693D01*
X211182Y99233D01*
X211179Y99214D01*
X211020Y96998D01*
X211021Y96959D01*
X211016Y96920D01*
X211022Y96826D01*
X211025Y96505D01*
X211055Y96334D01*
X211061Y96240D01*
X211099Y96030D01*
X210925Y95231D01*
X210878Y94883D01*
X210863Y94801D01*
X210805Y93985D01*
X210709Y93794D01*
X210695Y93758D01*
X210675Y93724D01*
X210674Y93719D01*
X210611Y93550D01*
X210525Y93337D01*
X210515Y93290D01*
X210504Y93262D01*
X210484Y93158D01*
X210457Y93078D01*
X209898Y90510D01*
X209893Y90471D01*
X209882Y90433D01*
X209875Y90340D01*
X209833Y90021D01*
X209838Y89847D01*
X209830Y89753D01*
X209838Y89540D01*
X209552Y88774D01*
X209456Y88436D01*
X209430Y88357D01*
X209256Y87558D01*
X209134Y87383D01*
X209115Y87349D01*
X209091Y87318D01*
X209048Y87235D01*
X208887Y86956D01*
X208825Y86794D01*
X208782Y86710D01*
X207864Y84247D01*
X207853Y84210D01*
X207837Y84174D01*
X207817Y84082D01*
X207729Y83773D01*
X207710Y83600D01*
X207689Y83508D01*
X207666Y83296D01*
X207274Y82579D01*
X207131Y82257D01*
X207094Y82183D01*
X206808Y81417D01*
X206663Y81261D01*
X206639Y81230D01*
X206610Y81203D01*
X206556Y81126D01*
X206357Y80874D01*
X206273Y80722D01*
X206219Y80645D01*
X204959Y78338D01*
X204943Y78302D01*
X204922Y78269D01*
X204889Y78181D01*
X204758Y77887D01*
X204714Y77719D01*
X204681Y77631D01*
X204628Y77425D01*
X204138Y76770D01*
X203951Y76472D01*
X203903Y76404D01*
X203511Y75687D01*
X203345Y75553D01*
X203317Y75526D01*
X203285Y75503D01*
X203221Y75435D01*
X202988Y75213D01*
X202883Y75075D01*
X202818Y75006D01*
X201243Y72902D01*
X201222Y72869D01*
X201197Y72839D01*
X201189Y72826D01*
X201187Y72822D01*
X201131Y72725D01*
X200980Y72485D01*
X200913Y72325D01*
X200867Y72242D01*
X200785Y72045D01*
X200207Y71467D01*
X199979Y71199D01*
X199922Y71139D01*
X199433Y70484D01*
X199249Y70375D01*
X199217Y70353D01*
X199183Y70335D01*
X199109Y70276D01*
X198847Y70090D01*
X198723Y69968D01*
X198649Y69909D01*
X196791Y68051D01*
X196765Y68021D01*
X196736Y67995D01*
X196679Y67920D01*
X196471Y67675D01*
X196382Y67526D01*
X196325Y67451D01*
X196216Y67267D01*
X195561Y66778D01*
X195298Y66545D01*
X195233Y66493D01*
X194655Y65915D01*
X194458Y65833D01*
X194423Y65815D01*
X194386Y65802D01*
X194305Y65755D01*
X194019Y65608D01*
X193879Y65505D01*
X193798Y65457D01*
X191694Y63882D01*
X191664Y63856D01*
X191632Y63834D01*
X191565Y63768D01*
X191324Y63555D01*
X191214Y63421D01*
X191147Y63355D01*
X191013Y63189D01*
X190296Y62797D01*
X190002Y62604D01*
X189930Y62562D01*
X189275Y62072D01*
X189069Y62019D01*
X189032Y62006D01*
X188993Y61999D01*
X188906Y61963D01*
X188602Y61859D01*
X188449Y61777D01*
X188362Y61741D01*
X186055Y60481D01*
X186022Y60460D01*
X185987Y60443D01*
X185911Y60387D01*
X185643Y60211D01*
X185515Y60093D01*
X185439Y60037D01*
X185283Y59892D01*
X184517Y59606D01*
X184198Y59457D01*
X184121Y59426D01*
X183404Y59034D01*
X183192Y59011D01*
X183153Y59004D01*
X183114Y59002D01*
X183024Y58979D01*
X182707Y58919D01*
X182545Y58859D01*
X182453Y58836D01*
X179990Y57918D01*
X179954Y57901D01*
X179917Y57889D01*
X179834Y57845D01*
X179543Y57708D01*
X179400Y57610D01*
X179317Y57566D01*
X179142Y57444D01*
X178343Y57270D01*
X178007Y57168D01*
X177926Y57148D01*
X177127Y56850D01*
X177025Y56836D01*
X176908Y56831D01*
X176780Y56804D01*
X176651Y56787D01*
X176539Y56754D01*
X176425Y56730D01*
X176303Y56682D01*
X176178Y56645D01*
X176074Y56593D01*
X175965Y56551D01*
X175853Y56485D01*
X175735Y56428D01*
X175640Y56360D01*
X175540Y56301D01*
X175439Y56218D01*
X175333Y56142D01*
X175250Y56060D01*
X175161Y55986D01*
X175075Y55887D01*
X174982Y55796D01*
X174914Y55701D01*
X174837Y55613D01*
X174768Y55502D01*
X174692Y55397D01*
X174639Y55293D01*
X174578Y55194D01*
X174528Y55073D01*
X174469Y54956D01*
X174434Y54845D01*
X174390Y54738D01*
X174360Y54611D01*
X174321Y54486D01*
X174311Y54401D01*
X174278Y54257D01*
X174253Y53878D01*
X174245Y53808D01*
X174245Y24892D01*
X174251Y24816D01*
X174249Y24740D01*
X174271Y24571D01*
X174285Y24400D01*
X174303Y24326D01*
X174313Y24251D01*
X174362Y24087D01*
X174403Y23921D01*
X174433Y23852D01*
X174455Y23778D01*
X174531Y23625D01*
X174598Y23468D01*
X174639Y23404D01*
X174672Y23335D01*
X174771Y23196D01*
X174863Y23052D01*
X174914Y22995D01*
X174958Y22933D01*
X175078Y22812D01*
X175192Y22684D01*
X175251Y22636D01*
X175305Y22582D01*
X175443Y22481D01*
X175576Y22374D01*
X175642Y22337D01*
X175703Y22292D01*
X175856Y22215D01*
X176004Y22130D01*
X176076Y22104D01*
X176144Y22069D01*
X176307Y22018D01*
X176467Y21959D01*
X176542Y21944D01*
X176614Y21921D01*
X176719Y21909D01*
X176951Y21864D01*
X177187Y21857D01*
X177292Y21845D01*
X232237Y21845D01*
X232275Y21848D01*
X232313Y21846D01*
X232521Y21868D01*
X232729Y21885D01*
X232766Y21894D01*
X232804Y21898D01*
X233005Y21953D01*
X233208Y22003D01*
X233243Y22018D01*
X233279Y22029D01*
X233469Y22116D01*
X233661Y22198D01*
X233693Y22218D01*
X233728Y22234D01*
X233901Y22351D01*
X234077Y22463D01*
X234105Y22488D01*
X234137Y22510D01*
X234289Y22653D01*
X234445Y22792D01*
X234469Y22821D01*
X234497Y22847D01*
X234624Y23013D01*
X234755Y23176D01*
X234774Y23209D01*
X234797Y23239D01*
X234896Y23423D01*
X234999Y23604D01*
X235012Y23640D01*
X235030Y23674D01*
X235098Y23871D01*
X235170Y24067D01*
X235178Y24104D01*
X235190Y24140D01*
X235225Y24347D01*
X235265Y24551D01*
X235266Y24589D01*
X235273Y24627D01*
X235274Y24836D01*
X235280Y25044D01*
X235276Y25082D01*
X235276Y25120D01*
X235243Y25327D01*
X235216Y25533D01*
X235205Y25570D01*
X235199Y25607D01*
X235134Y25806D01*
X235074Y26005D01*
X235057Y26040D01*
X235045Y26076D01*
X234948Y26261D01*
X234857Y26449D01*
X234835Y26480D01*
X234817Y26514D01*
X234759Y26586D01*
X234571Y26851D01*
X234450Y26973D01*
X234392Y27047D01*
X228599Y32839D01*
X228599Y43361D01*
X236039Y50801D01*
X246561Y50801D01*
X254001Y43361D01*
X254001Y32839D01*
X248208Y27047D01*
X248184Y27018D01*
X248155Y26992D01*
X248024Y26830D01*
X247889Y26671D01*
X247869Y26638D01*
X247845Y26608D01*
X247742Y26427D01*
X247634Y26248D01*
X247620Y26213D01*
X247601Y26180D01*
X247528Y25984D01*
X247451Y25790D01*
X247443Y25753D01*
X247430Y25717D01*
X247390Y25512D01*
X247344Y25308D01*
X247342Y25270D01*
X247335Y25233D01*
X247328Y25025D01*
X247317Y24816D01*
X247321Y24778D01*
X247320Y24740D01*
X247347Y24533D01*
X247369Y24325D01*
X247379Y24289D01*
X247384Y24251D01*
X247444Y24051D01*
X247500Y23850D01*
X247515Y23815D01*
X247526Y23778D01*
X247618Y23591D01*
X247705Y23401D01*
X247727Y23369D01*
X247743Y23335D01*
X247864Y23166D01*
X247981Y22992D01*
X248007Y22964D01*
X248029Y22933D01*
X248175Y22785D01*
X248318Y22632D01*
X248349Y22609D01*
X248375Y22582D01*
X248544Y22459D01*
X248710Y22332D01*
X248743Y22314D01*
X248774Y22292D01*
X248961Y22198D01*
X249145Y22099D01*
X249181Y22086D01*
X249215Y22069D01*
X249413Y22007D01*
X249611Y21939D01*
X249649Y21933D01*
X249685Y21921D01*
X249778Y21911D01*
X250098Y21856D01*
X250270Y21855D01*
X250363Y21845D01*
X270337Y21845D01*
X270375Y21848D01*
X270413Y21846D01*
X270621Y21868D01*
X270829Y21885D01*
X270866Y21894D01*
X270904Y21898D01*
X271105Y21953D01*
X271308Y22003D01*
X271343Y22018D01*
X271379Y22029D01*
X271569Y22116D01*
X271761Y22198D01*
X271793Y22218D01*
X271828Y22234D01*
X272001Y22351D01*
X272177Y22463D01*
X272205Y22488D01*
X272237Y22510D01*
X272389Y22653D01*
X272545Y22792D01*
X272569Y22821D01*
X272597Y22847D01*
X272724Y23013D01*
X272855Y23176D01*
X272874Y23209D01*
X272897Y23239D01*
X272996Y23423D01*
X273099Y23604D01*
X273112Y23640D01*
X273130Y23674D01*
X273198Y23871D01*
X273270Y24067D01*
X273278Y24104D01*
X273290Y24140D01*
X273325Y24347D01*
X273365Y24551D01*
X273366Y24589D01*
X273373Y24627D01*
X273374Y24836D01*
X273380Y25044D01*
X273376Y25082D01*
X273376Y25120D01*
X273343Y25327D01*
X273316Y25533D01*
X273305Y25570D01*
X273299Y25607D01*
X273234Y25806D01*
X273174Y26005D01*
X273157Y26040D01*
X273145Y26076D01*
X273048Y26261D01*
X272957Y26449D01*
X272935Y26480D01*
X272917Y26514D01*
X272859Y26586D01*
X272671Y26851D01*
X272550Y26973D01*
X272492Y27047D01*
X266699Y32839D01*
X266699Y43361D01*
X274139Y50801D01*
X284661Y50801D01*
X292101Y43361D01*
X292101Y32839D01*
X286308Y27047D01*
X286284Y27018D01*
X286255Y26992D01*
X286124Y26830D01*
X285989Y26671D01*
X285969Y26638D01*
X285945Y26608D01*
X285842Y26427D01*
X285734Y26248D01*
X285720Y26213D01*
X285701Y26180D01*
X285628Y25984D01*
X285551Y25790D01*
X285543Y25753D01*
X285530Y25717D01*
X285490Y25512D01*
X285444Y25308D01*
X285442Y25270D01*
X285435Y25233D01*
X285428Y25025D01*
X285417Y24816D01*
X285421Y24778D01*
X285420Y24740D01*
X285447Y24533D01*
X285469Y24325D01*
X285479Y24289D01*
X285484Y24251D01*
X285544Y24051D01*
X285600Y23850D01*
X285615Y23815D01*
X285626Y23778D01*
X285718Y23591D01*
X285805Y23401D01*
X285827Y23369D01*
X285843Y23335D01*
X285964Y23166D01*
X286081Y22992D01*
X286107Y22964D01*
X286129Y22933D01*
X286275Y22785D01*
X286418Y22632D01*
X286449Y22609D01*
X286475Y22582D01*
X286644Y22459D01*
X286810Y22332D01*
X286843Y22314D01*
X286874Y22292D01*
X287061Y22198D01*
X287245Y22099D01*
X287281Y22086D01*
X287315Y22069D01*
X287513Y22007D01*
X287711Y21939D01*
X287749Y21933D01*
X287785Y21921D01*
X287878Y21911D01*
X288198Y21856D01*
X288370Y21855D01*
X288463Y21845D01*
X470408Y21845D01*
X470484Y21851D01*
X470560Y21849D01*
X470729Y21871D01*
X470900Y21885D01*
X470974Y21903D01*
X471049Y21913D01*
X471213Y21962D01*
X471379Y22003D01*
X471448Y22033D01*
X471522Y22055D01*
X471675Y22131D01*
X471832Y22198D01*
X471896Y22239D01*
X471965Y22272D01*
X472104Y22371D01*
X472248Y22463D01*
X472305Y22514D01*
X472367Y22558D01*
X472488Y22678D01*
X472616Y22792D01*
X472664Y22851D01*
X472718Y22905D01*
X472819Y23043D01*
X472926Y23176D01*
X472963Y23242D01*
X473008Y23303D01*
X473085Y23456D01*
X473170Y23604D01*
X473196Y23676D01*
X473231Y23744D01*
X473282Y23906D01*
X473341Y24067D01*
X473356Y24142D01*
X473379Y24214D01*
X473391Y24319D01*
X473436Y24551D01*
X473443Y24787D01*
X473455Y24892D01*
X473455Y72217D01*
X473446Y72331D01*
X473447Y72445D01*
X473426Y72576D01*
X473415Y72709D01*
X473388Y72819D01*
X473370Y72932D01*
X473329Y73059D01*
X473297Y73188D01*
X473252Y73292D01*
X473216Y73401D01*
X473154Y73519D01*
X473102Y73641D01*
X473041Y73737D01*
X472988Y73839D01*
X472929Y73912D01*
X472837Y74057D01*
X472621Y74299D01*
X472563Y74372D01*
X472055Y74880D01*
X471997Y74929D01*
X471945Y74985D01*
X471809Y75089D01*
X471679Y75199D01*
X471613Y75239D01*
X471553Y75285D01*
X471403Y75365D01*
X471256Y75454D01*
X471185Y75482D01*
X471118Y75518D01*
X470957Y75574D01*
X470798Y75637D01*
X470724Y75653D01*
X470652Y75678D01*
X470483Y75707D01*
X470317Y75744D01*
X470240Y75748D01*
X470165Y75761D01*
X469994Y75762D01*
X469824Y75771D01*
X469748Y75763D01*
X469672Y75764D01*
X469503Y75737D01*
X469333Y75719D01*
X469260Y75699D01*
X469185Y75687D01*
X469022Y75634D01*
X468858Y75588D01*
X468788Y75557D01*
X468716Y75533D01*
X468565Y75454D01*
X468409Y75383D01*
X468346Y75340D01*
X468278Y75305D01*
X468196Y75239D01*
X468000Y75107D01*
X467828Y74945D01*
X467745Y74880D01*
X464394Y71529D01*
X459726Y69595D01*
X454674Y69595D01*
X450006Y71529D01*
X446655Y74880D01*
X446597Y74929D01*
X446545Y74985D01*
X446409Y75088D01*
X446279Y75199D01*
X446213Y75239D01*
X446153Y75285D01*
X446003Y75366D01*
X445856Y75454D01*
X445786Y75482D01*
X445718Y75518D01*
X445557Y75574D01*
X445398Y75637D01*
X445324Y75653D01*
X445252Y75678D01*
X445083Y75707D01*
X444917Y75744D01*
X444840Y75748D01*
X444765Y75761D01*
X444594Y75762D01*
X444424Y75771D01*
X444348Y75763D01*
X444272Y75764D01*
X444103Y75737D01*
X443933Y75719D01*
X443860Y75699D01*
X443785Y75687D01*
X443622Y75634D01*
X443458Y75588D01*
X443388Y75557D01*
X443316Y75533D01*
X443164Y75454D01*
X443009Y75383D01*
X442946Y75340D01*
X442878Y75305D01*
X442796Y75239D01*
X442600Y75107D01*
X442427Y74945D01*
X442345Y74880D01*
X438994Y71529D01*
X434326Y69595D01*
X429274Y69595D01*
X424606Y71529D01*
X421255Y74880D01*
X421197Y74929D01*
X421144Y74985D01*
X421009Y75089D01*
X420879Y75199D01*
X420814Y75239D01*
X420753Y75285D01*
X420603Y75366D01*
X420456Y75454D01*
X420385Y75482D01*
X420318Y75518D01*
X420157Y75574D01*
X419998Y75637D01*
X419924Y75653D01*
X419852Y75678D01*
X419683Y75707D01*
X419516Y75744D01*
X419440Y75748D01*
X419365Y75761D01*
X419194Y75762D01*
X419024Y75771D01*
X418948Y75763D01*
X418872Y75764D01*
X418703Y75737D01*
X418533Y75719D01*
X418460Y75699D01*
X418385Y75687D01*
X418222Y75634D01*
X418058Y75588D01*
X417988Y75557D01*
X417916Y75533D01*
X417765Y75454D01*
X417609Y75383D01*
X417546Y75340D01*
X417478Y75305D01*
X417396Y75239D01*
X417200Y75107D01*
X417028Y74945D01*
X416945Y74880D01*
X413594Y71529D01*
X408926Y69595D01*
X403874Y69595D01*
X399206Y71529D01*
X395855Y74880D01*
X395797Y74929D01*
X395744Y74985D01*
X395609Y75089D01*
X395479Y75199D01*
X395414Y75239D01*
X395353Y75285D01*
X395203Y75366D01*
X395056Y75454D01*
X394985Y75482D01*
X394918Y75518D01*
X394757Y75574D01*
X394598Y75637D01*
X394524Y75653D01*
X394452Y75678D01*
X394283Y75707D01*
X394116Y75744D01*
X394040Y75748D01*
X393965Y75761D01*
X393794Y75762D01*
X393624Y75771D01*
X393548Y75763D01*
X393472Y75764D01*
X393303Y75737D01*
X393133Y75719D01*
X393060Y75699D01*
X392985Y75687D01*
X392822Y75634D01*
X392658Y75588D01*
X392588Y75557D01*
X392516Y75533D01*
X392365Y75454D01*
X392209Y75383D01*
X392146Y75340D01*
X392078Y75305D01*
X391996Y75239D01*
X391800Y75107D01*
X391628Y74945D01*
X391545Y74880D01*
X388194Y71529D01*
X383526Y69595D01*
X378474Y69595D01*
X373806Y71529D01*
X370455Y74880D01*
X370397Y74929D01*
X370344Y74985D01*
X370209Y75089D01*
X370079Y75199D01*
X370014Y75239D01*
X369953Y75285D01*
X369803Y75366D01*
X369656Y75454D01*
X369585Y75482D01*
X369518Y75518D01*
X369357Y75574D01*
X369198Y75637D01*
X369124Y75653D01*
X369052Y75678D01*
X368883Y75707D01*
X368716Y75744D01*
X368640Y75748D01*
X368565Y75761D01*
X368394Y75762D01*
X368224Y75771D01*
X368148Y75763D01*
X368072Y75764D01*
X367903Y75737D01*
X367733Y75719D01*
X367660Y75699D01*
X367585Y75687D01*
X367422Y75634D01*
X367258Y75588D01*
X367188Y75557D01*
X367116Y75533D01*
X366965Y75454D01*
X366809Y75383D01*
X366746Y75340D01*
X366678Y75305D01*
X366596Y75239D01*
X366400Y75107D01*
X366228Y74945D01*
X366145Y74880D01*
X362794Y71529D01*
X358126Y69595D01*
X353074Y69595D01*
X348406Y71529D01*
X345055Y74880D01*
X344997Y74929D01*
X344944Y74985D01*
X344809Y75089D01*
X344679Y75199D01*
X344614Y75239D01*
X344553Y75285D01*
X344403Y75366D01*
X344256Y75454D01*
X344185Y75482D01*
X344118Y75518D01*
X343957Y75574D01*
X343798Y75637D01*
X343724Y75653D01*
X343652Y75678D01*
X343483Y75707D01*
X343316Y75744D01*
X343240Y75748D01*
X343165Y75761D01*
X342994Y75762D01*
X342824Y75771D01*
X342748Y75763D01*
X342672Y75764D01*
X342503Y75737D01*
X342333Y75719D01*
X342260Y75699D01*
X342185Y75687D01*
X342022Y75634D01*
X341858Y75588D01*
X341788Y75557D01*
X341716Y75533D01*
X341565Y75454D01*
X341409Y75383D01*
X341346Y75340D01*
X341278Y75305D01*
X341196Y75239D01*
X341000Y75107D01*
X340828Y74945D01*
X340745Y74880D01*
X337394Y71529D01*
X332726Y69595D01*
X327674Y69595D01*
X323006Y71529D01*
X319433Y75102D01*
X317499Y79770D01*
X317499Y98030D01*
X319433Y102698D01*
X323006Y106271D01*
X327674Y108205D01*
X332726Y108205D01*
X337394Y106271D01*
X340745Y102920D01*
X340803Y102871D01*
X340855Y102815D01*
X340991Y102712D01*
X341121Y102601D01*
X341187Y102561D01*
X341247Y102515D01*
X341397Y102434D01*
X341544Y102346D01*
X341614Y102318D01*
X341682Y102282D01*
X341843Y102226D01*
X342002Y102163D01*
X342076Y102147D01*
X342148Y102122D01*
X342317Y102093D01*
X342483Y102056D01*
X342560Y102052D01*
X342635Y102039D01*
X342806Y102038D01*
X342976Y102029D01*
X343052Y102037D01*
X343128Y102036D01*
X343297Y102063D01*
X343467Y102081D01*
X343540Y102101D01*
X343615Y102113D01*
X343778Y102166D01*
X343942Y102212D01*
X344012Y102243D01*
X344084Y102267D01*
X344236Y102346D01*
X344391Y102417D01*
X344454Y102460D01*
X344522Y102495D01*
X344604Y102561D01*
X344800Y102693D01*
X344973Y102855D01*
X345055Y102920D01*
X348406Y106271D01*
X353074Y108205D01*
X358126Y108205D01*
X362794Y106271D01*
X366145Y102920D01*
X366203Y102871D01*
X366255Y102815D01*
X366391Y102712D01*
X366521Y102601D01*
X366587Y102561D01*
X366647Y102515D01*
X366797Y102434D01*
X366944Y102346D01*
X367014Y102318D01*
X367082Y102282D01*
X367243Y102226D01*
X367402Y102163D01*
X367476Y102147D01*
X367548Y102122D01*
X367717Y102093D01*
X367883Y102056D01*
X367960Y102052D01*
X368035Y102039D01*
X368206Y102038D01*
X368376Y102029D01*
X368452Y102037D01*
X368528Y102036D01*
X368697Y102063D01*
X368867Y102081D01*
X368940Y102101D01*
X369015Y102113D01*
X369178Y102166D01*
X369342Y102212D01*
X369412Y102243D01*
X369484Y102267D01*
X369636Y102346D01*
X369791Y102417D01*
X369854Y102460D01*
X369922Y102495D01*
X370004Y102561D01*
X370200Y102693D01*
X370373Y102855D01*
X370455Y102920D01*
X373806Y106271D01*
X378474Y108205D01*
X383526Y108205D01*
X388194Y106271D01*
X391545Y102920D01*
X391603Y102871D01*
X391655Y102815D01*
X391791Y102712D01*
X391921Y102601D01*
X391987Y102561D01*
X392047Y102515D01*
X392197Y102434D01*
X392344Y102346D01*
X392414Y102318D01*
X392482Y102282D01*
X392643Y102226D01*
X392802Y102163D01*
X392876Y102147D01*
X392948Y102122D01*
X393117Y102093D01*
X393283Y102056D01*
X393360Y102052D01*
X393435Y102039D01*
X393606Y102038D01*
X393776Y102029D01*
X393852Y102037D01*
X393928Y102036D01*
X394097Y102063D01*
X394267Y102081D01*
X394340Y102101D01*
X394415Y102113D01*
X394578Y102166D01*
X394742Y102212D01*
X394812Y102243D01*
X394884Y102267D01*
X395036Y102346D01*
X395191Y102417D01*
X395254Y102460D01*
X395322Y102495D01*
X395404Y102561D01*
X395600Y102693D01*
X395773Y102855D01*
X395855Y102920D01*
X399206Y106271D01*
X403874Y108205D01*
X408926Y108205D01*
X413594Y106271D01*
X416945Y102920D01*
X417003Y102871D01*
X417055Y102815D01*
X417191Y102712D01*
X417321Y102601D01*
X417387Y102561D01*
X417447Y102515D01*
X417597Y102434D01*
X417744Y102346D01*
X417814Y102318D01*
X417882Y102282D01*
X418043Y102226D01*
X418202Y102163D01*
X418276Y102147D01*
X418348Y102122D01*
X418517Y102093D01*
X418683Y102056D01*
X418760Y102052D01*
X418835Y102039D01*
X419006Y102038D01*
X419176Y102029D01*
X419252Y102037D01*
X419328Y102036D01*
X419497Y102063D01*
X419667Y102081D01*
X419740Y102101D01*
X419815Y102113D01*
X419978Y102166D01*
X420142Y102212D01*
X420212Y102243D01*
X420284Y102267D01*
X420436Y102346D01*
X420591Y102417D01*
X420654Y102460D01*
X420722Y102495D01*
X420804Y102561D01*
X421000Y102693D01*
X421173Y102855D01*
X421255Y102920D01*
X424606Y106271D01*
X429274Y108205D01*
X434326Y108205D01*
X438994Y106271D01*
X442345Y102920D01*
X442403Y102871D01*
X442456Y102815D01*
X442591Y102711D01*
X442721Y102601D01*
X442786Y102561D01*
X442847Y102515D01*
X442997Y102434D01*
X443144Y102346D01*
X443215Y102318D01*
X443282Y102282D01*
X443443Y102226D01*
X443602Y102163D01*
X443676Y102147D01*
X443748Y102122D01*
X443917Y102093D01*
X444084Y102056D01*
X444160Y102052D01*
X444235Y102039D01*
X444406Y102038D01*
X444576Y102029D01*
X444652Y102037D01*
X444728Y102036D01*
X444897Y102063D01*
X445067Y102081D01*
X445140Y102101D01*
X445215Y102113D01*
X445378Y102166D01*
X445542Y102212D01*
X445612Y102243D01*
X445684Y102267D01*
X445835Y102346D01*
X445991Y102417D01*
X446054Y102460D01*
X446122Y102495D01*
X446204Y102561D01*
X446400Y102693D01*
X446572Y102855D01*
X446655Y102920D01*
X450006Y106271D01*
X454674Y108205D01*
X459726Y108205D01*
X464394Y106271D01*
X467745Y102920D01*
X467803Y102871D01*
X467856Y102815D01*
X467991Y102711D01*
X468121Y102601D01*
X468186Y102561D01*
X468247Y102515D01*
X468397Y102434D01*
X468544Y102346D01*
X468615Y102318D01*
X468682Y102282D01*
X468843Y102226D01*
X469002Y102163D01*
X469076Y102147D01*
X469148Y102122D01*
X469317Y102093D01*
X469484Y102056D01*
X469560Y102052D01*
X469635Y102039D01*
X469806Y102038D01*
X469976Y102029D01*
X470052Y102037D01*
X470128Y102036D01*
X470297Y102063D01*
X470467Y102081D01*
X470540Y102101D01*
X470615Y102113D01*
X470778Y102166D01*
X470942Y102212D01*
X471012Y102243D01*
X471084Y102267D01*
X471235Y102346D01*
X471391Y102417D01*
X471454Y102460D01*
X471522Y102495D01*
X471604Y102561D01*
X471800Y102693D01*
X471972Y102855D01*
X472055Y102920D01*
X475406Y106271D01*
X480074Y108205D01*
X485126Y108205D01*
X489794Y106271D01*
X493367Y102698D01*
X495301Y98030D01*
X495301Y79770D01*
X493367Y75102D01*
X492637Y74372D01*
X492563Y74285D01*
X492482Y74204D01*
X492404Y74097D01*
X492318Y73996D01*
X492259Y73898D01*
X492192Y73806D01*
X492132Y73687D01*
X492063Y73573D01*
X492021Y73467D01*
X491969Y73365D01*
X491929Y73239D01*
X491880Y73115D01*
X491855Y73004D01*
X491821Y72895D01*
X491811Y72801D01*
X491773Y72634D01*
X491755Y72309D01*
X491745Y72217D01*
X491745Y24892D01*
X491751Y24816D01*
X491749Y24740D01*
X491771Y24571D01*
X491785Y24400D01*
X491803Y24326D01*
X491813Y24251D01*
X491862Y24087D01*
X491903Y23921D01*
X491933Y23852D01*
X491955Y23778D01*
X492031Y23625D01*
X492098Y23468D01*
X492139Y23404D01*
X492172Y23335D01*
X492271Y23196D01*
X492363Y23052D01*
X492414Y22995D01*
X492458Y22933D01*
X492578Y22812D01*
X492692Y22684D01*
X492751Y22636D01*
X492805Y22582D01*
X492943Y22481D01*
X493076Y22374D01*
X493142Y22337D01*
X493203Y22292D01*
X493356Y22215D01*
X493504Y22130D01*
X493576Y22104D01*
X493644Y22069D01*
X493807Y22018D01*
X493967Y21959D01*
X494042Y21944D01*
X494114Y21921D01*
X494219Y21909D01*
X494451Y21864D01*
X494687Y21857D01*
X494792Y21845D01*
X511637Y21845D01*
X511675Y21848D01*
X511713Y21846D01*
X511921Y21868D01*
X512129Y21885D01*
X512166Y21894D01*
X512204Y21898D01*
X512405Y21953D01*
X512608Y22003D01*
X512643Y22018D01*
X512679Y22029D01*
X512869Y22116D01*
X513061Y22198D01*
X513093Y22218D01*
X513128Y22234D01*
X513301Y22351D01*
X513477Y22463D01*
X513505Y22488D01*
X513537Y22510D01*
X513689Y22653D01*
X513845Y22792D01*
X513869Y22821D01*
X513897Y22847D01*
X514024Y23013D01*
X514155Y23176D01*
X514174Y23209D01*
X514197Y23239D01*
X514296Y23423D01*
X514399Y23604D01*
X514412Y23640D01*
X514430Y23674D01*
X514498Y23871D01*
X514570Y24067D01*
X514578Y24104D01*
X514590Y24140D01*
X514625Y24347D01*
X514665Y24551D01*
X514666Y24589D01*
X514673Y24627D01*
X514674Y24836D01*
X514680Y25044D01*
X514676Y25082D01*
X514676Y25120D01*
X514643Y25327D01*
X514616Y25533D01*
X514605Y25570D01*
X514599Y25607D01*
X514534Y25806D01*
X514474Y26005D01*
X514457Y26040D01*
X514445Y26076D01*
X514348Y26261D01*
X514257Y26449D01*
X514235Y26480D01*
X514217Y26514D01*
X514159Y26586D01*
X513971Y26851D01*
X513850Y26973D01*
X513792Y27047D01*
X507999Y32839D01*
X507999Y43361D01*
X515439Y50801D01*
X525961Y50801D01*
X533401Y43361D01*
X533401Y32839D01*
X527608Y27047D01*
X527584Y27018D01*
X527555Y26992D01*
X527424Y26830D01*
X527289Y26671D01*
X527269Y26638D01*
X527245Y26608D01*
X527142Y26427D01*
X527034Y26248D01*
X527020Y26213D01*
X527001Y26180D01*
X526928Y25984D01*
X526851Y25790D01*
X526843Y25753D01*
X526830Y25717D01*
X526790Y25512D01*
X526744Y25308D01*
X526742Y25270D01*
X526735Y25233D01*
X526728Y25025D01*
X526717Y24816D01*
X526721Y24778D01*
X526720Y24740D01*
X526747Y24533D01*
X526769Y24325D01*
X526779Y24289D01*
X526784Y24251D01*
X526844Y24051D01*
X526900Y23850D01*
X526915Y23815D01*
X526926Y23778D01*
X527018Y23591D01*
X527105Y23401D01*
X527127Y23369D01*
X527143Y23335D01*
X527264Y23166D01*
X527381Y22992D01*
X527407Y22964D01*
X527429Y22933D01*
X527575Y22785D01*
X527718Y22632D01*
X527749Y22609D01*
X527775Y22582D01*
X527944Y22459D01*
X528110Y22332D01*
X528143Y22314D01*
X528174Y22292D01*
X528361Y22198D01*
X528545Y22099D01*
X528581Y22086D01*
X528615Y22069D01*
X528813Y22007D01*
X529011Y21939D01*
X529049Y21933D01*
X529085Y21921D01*
X529178Y21911D01*
X529498Y21856D01*
X529670Y21855D01*
X529763Y21845D01*
X562437Y21845D01*
X562475Y21848D01*
X562513Y21846D01*
X562721Y21868D01*
X562929Y21885D01*
X562966Y21894D01*
X563004Y21898D01*
X563205Y21953D01*
X563408Y22003D01*
X563443Y22018D01*
X563479Y22029D01*
X563669Y22116D01*
X563861Y22198D01*
X563893Y22218D01*
X563928Y22234D01*
X564101Y22351D01*
X564277Y22463D01*
X564305Y22488D01*
X564337Y22510D01*
X564489Y22653D01*
X564645Y22792D01*
X564669Y22821D01*
X564697Y22847D01*
X564824Y23013D01*
X564955Y23176D01*
X564974Y23209D01*
X564997Y23239D01*
X565096Y23423D01*
X565199Y23604D01*
X565212Y23640D01*
X565230Y23674D01*
X565298Y23871D01*
X565370Y24067D01*
X565378Y24104D01*
X565390Y24140D01*
X565425Y24347D01*
X565465Y24551D01*
X565466Y24589D01*
X565473Y24627D01*
X565474Y24836D01*
X565480Y25044D01*
X565476Y25082D01*
X565476Y25120D01*
X565443Y25327D01*
X565416Y25533D01*
X565405Y25570D01*
X565399Y25607D01*
X565334Y25806D01*
X565274Y26005D01*
X565257Y26040D01*
X565245Y26076D01*
X565148Y26261D01*
X565057Y26449D01*
X565035Y26480D01*
X565017Y26514D01*
X564959Y26586D01*
X564771Y26851D01*
X564650Y26973D01*
X564592Y27047D01*
X558799Y32839D01*
X558799Y43361D01*
X566239Y50801D01*
X576761Y50801D01*
X584201Y43361D01*
X584201Y32839D01*
X578408Y27047D01*
X578384Y27018D01*
X578355Y26992D01*
X578224Y26830D01*
X578089Y26671D01*
X578069Y26638D01*
X578045Y26608D01*
X577942Y26427D01*
X577834Y26248D01*
X577820Y26213D01*
X577801Y26180D01*
X577728Y25984D01*
X577651Y25790D01*
X577643Y25753D01*
X577630Y25717D01*
X577590Y25512D01*
X577544Y25308D01*
X577542Y25270D01*
X577535Y25233D01*
X577528Y25025D01*
X577517Y24816D01*
X577521Y24778D01*
X577520Y24740D01*
X577547Y24533D01*
X577569Y24325D01*
X577579Y24289D01*
X577584Y24251D01*
X577644Y24051D01*
X577700Y23850D01*
X577715Y23815D01*
X577726Y23778D01*
X577818Y23591D01*
X577905Y23401D01*
X577927Y23369D01*
X577943Y23335D01*
X578064Y23166D01*
X578181Y22992D01*
X578207Y22964D01*
X578229Y22933D01*
X578375Y22785D01*
X578518Y22632D01*
X578549Y22609D01*
X578575Y22582D01*
X578744Y22459D01*
X578910Y22332D01*
X578943Y22314D01*
X578974Y22292D01*
X579161Y22198D01*
X579345Y22099D01*
X579381Y22086D01*
X579415Y22069D01*
X579613Y22007D01*
X579811Y21939D01*
X579849Y21933D01*
X579885Y21921D01*
X579978Y21911D01*
X580298Y21856D01*
X580470Y21855D01*
X580563Y21845D01*
X635508Y21845D01*
X635584Y21851D01*
X635660Y21849D01*
X635829Y21871D01*
X636000Y21885D01*
X636074Y21903D01*
X636149Y21913D01*
X636313Y21962D01*
X636479Y22003D01*
X636548Y22033D01*
X636622Y22055D01*
X636775Y22131D01*
X636932Y22198D01*
X636996Y22239D01*
X637065Y22272D01*
X637204Y22371D01*
X637348Y22463D01*
X637405Y22514D01*
X637467Y22558D01*
X637588Y22678D01*
X637716Y22792D01*
X637764Y22851D01*
X637818Y22905D01*
X637919Y23043D01*
X638026Y23176D01*
X638063Y23242D01*
X638108Y23303D01*
X638185Y23456D01*
X638270Y23604D01*
X638296Y23676D01*
X638331Y23744D01*
X638382Y23906D01*
X638441Y24067D01*
X638456Y24142D01*
X638479Y24214D01*
X638491Y24319D01*
X638536Y24551D01*
X638543Y24787D01*
X638555Y24892D01*
X638555Y53808D01*
X638545Y53938D01*
X638544Y54069D01*
X638525Y54184D01*
X638515Y54300D01*
X638484Y54426D01*
X638462Y54555D01*
X638425Y54666D01*
X638397Y54779D01*
X638345Y54898D01*
X638303Y55022D01*
X638248Y55125D01*
X638202Y55232D01*
X638132Y55342D01*
X638070Y55457D01*
X638000Y55550D01*
X637937Y55648D01*
X637850Y55745D01*
X637771Y55849D01*
X637686Y55929D01*
X637608Y56016D01*
X637507Y56098D01*
X637412Y56188D01*
X637315Y56253D01*
X637224Y56326D01*
X637111Y56390D01*
X637003Y56464D01*
X636897Y56512D01*
X636796Y56570D01*
X636673Y56615D01*
X636555Y56670D01*
X636443Y56701D01*
X636333Y56742D01*
X636205Y56767D01*
X636079Y56801D01*
X635994Y56808D01*
X635849Y56836D01*
X635697Y56841D01*
X634874Y57148D01*
X634536Y57244D01*
X634457Y57270D01*
X633658Y57444D01*
X633483Y57566D01*
X633449Y57585D01*
X633418Y57609D01*
X633335Y57652D01*
X633056Y57813D01*
X632894Y57875D01*
X632810Y57918D01*
X630347Y58836D01*
X630310Y58847D01*
X630274Y58863D01*
X630182Y58883D01*
X629873Y58971D01*
X629700Y58990D01*
X629608Y59011D01*
X629396Y59034D01*
X628679Y59426D01*
X628357Y59569D01*
X628283Y59606D01*
X627517Y59892D01*
X627361Y60037D01*
X627330Y60061D01*
X627303Y60090D01*
X627226Y60144D01*
X626974Y60343D01*
X626822Y60427D01*
X626745Y60481D01*
X624438Y61741D01*
X624402Y61757D01*
X624369Y61778D01*
X624281Y61811D01*
X623987Y61942D01*
X623819Y61986D01*
X623731Y62019D01*
X623525Y62072D01*
X622870Y62562D01*
X622572Y62749D01*
X622504Y62797D01*
X621787Y63189D01*
X621653Y63355D01*
X621626Y63383D01*
X621603Y63415D01*
X621535Y63479D01*
X621313Y63712D01*
X621175Y63817D01*
X621106Y63882D01*
X619002Y65457D01*
X618969Y65478D01*
X618939Y65503D01*
X618857Y65549D01*
X618585Y65720D01*
X618425Y65787D01*
X618342Y65833D01*
X618145Y65915D01*
X617567Y66493D01*
X617299Y66720D01*
X617239Y66778D01*
X616584Y67267D01*
X616475Y67451D01*
X616453Y67483D01*
X616435Y67517D01*
X616376Y67591D01*
X616190Y67853D01*
X616068Y67977D01*
X616009Y68051D01*
X614151Y69909D01*
X614121Y69935D01*
X614095Y69964D01*
X614020Y70021D01*
X613775Y70229D01*
X613626Y70318D01*
X613551Y70375D01*
X613367Y70484D01*
X612878Y71139D01*
X612645Y71402D01*
X612593Y71467D01*
X612015Y72045D01*
X611933Y72242D01*
X611915Y72277D01*
X611902Y72314D01*
X611855Y72395D01*
X611708Y72681D01*
X611605Y72821D01*
X611557Y72902D01*
X609982Y75006D01*
X609956Y75036D01*
X609934Y75068D01*
X609869Y75135D01*
X609656Y75376D01*
X609521Y75486D01*
X609455Y75553D01*
X609289Y75687D01*
X608897Y76404D01*
X608704Y76698D01*
X608662Y76770D01*
X608172Y77425D01*
X608119Y77631D01*
X608106Y77668D01*
X608099Y77707D01*
X608063Y77794D01*
X607959Y78098D01*
X607877Y78251D01*
X607841Y78338D01*
X606581Y80645D01*
X606560Y80678D01*
X606543Y80713D01*
X606487Y80789D01*
X606311Y81057D01*
X606193Y81185D01*
X606137Y81261D01*
X605992Y81417D01*
X605706Y82183D01*
X605557Y82502D01*
X605526Y82579D01*
X605134Y83296D01*
X605111Y83508D01*
X605104Y83547D01*
X605102Y83586D01*
X605079Y83676D01*
X605019Y83993D01*
X604959Y84155D01*
X604936Y84247D01*
X604018Y86710D01*
X604001Y86746D01*
X603989Y86783D01*
X603945Y86866D01*
X603808Y87157D01*
X603710Y87300D01*
X603666Y87383D01*
X603544Y87558D01*
X603370Y88357D01*
X603268Y88693D01*
X603248Y88774D01*
X602962Y89540D01*
X602970Y89753D01*
X602968Y89792D01*
X602971Y89831D01*
X602962Y89925D01*
X602947Y90246D01*
X602912Y90416D01*
X602902Y90510D01*
X602343Y93078D01*
X602332Y93116D01*
X602326Y93154D01*
X602293Y93242D01*
X602200Y93550D01*
X602123Y93706D01*
X602091Y93794D01*
X601995Y93985D01*
X601937Y94801D01*
X601883Y95149D01*
X601875Y95231D01*
X601701Y96030D01*
X601739Y96240D01*
X601743Y96278D01*
X601752Y96317D01*
X601756Y96411D01*
X601787Y96731D01*
X601776Y96904D01*
X601780Y96998D01*
X601621Y99214D01*
X601599Y99360D01*
X601586Y99507D01*
X601565Y99579D01*
X601546Y99701D01*
X601471Y99932D01*
X601471Y101201D01*
X601460Y101337D01*
X601464Y101418D01*
X601374Y102667D01*
X601395Y102733D01*
X601403Y102808D01*
X601433Y102928D01*
X601452Y103170D01*
X601937Y104342D01*
X601979Y104472D01*
X602013Y104546D01*
X602409Y105734D01*
X602453Y105787D01*
X602490Y105853D01*
X602563Y105952D01*
X602773Y106366D01*
X602783Y106384D01*
X602862Y106574D01*
X602872Y106592D01*
X602901Y106663D01*
X602938Y106732D01*
X602993Y106892D01*
X603056Y107049D01*
X603073Y107125D01*
X603098Y107198D01*
X603126Y107366D01*
X603163Y107531D01*
X603167Y107608D01*
X603180Y107685D01*
X603181Y107854D01*
X603191Y108024D01*
X603183Y108101D01*
X603183Y108178D01*
X603157Y108346D01*
X603139Y108514D01*
X603119Y108589D01*
X603107Y108665D01*
X603054Y108826D01*
X603009Y108990D01*
X602977Y109060D01*
X602953Y109134D01*
X602898Y109240D01*
X602783Y109516D01*
X602716Y109648D01*
X602657Y109783D01*
X602614Y109845D01*
X602558Y109955D01*
X602414Y110150D01*
X602013Y111354D01*
X601960Y111480D01*
X601937Y111558D01*
X601458Y112715D01*
X601457Y112784D01*
X601441Y112858D01*
X601431Y112981D01*
X601373Y113216D01*
X601464Y114482D01*
X601462Y114619D01*
X601471Y114699D01*
X601471Y115951D01*
X601497Y116016D01*
X601510Y116090D01*
X601548Y116207D01*
X601617Y116666D01*
X601621Y116686D01*
X601780Y118902D01*
X601779Y118941D01*
X601784Y118980D01*
X601778Y119074D01*
X601775Y119395D01*
X601745Y119566D01*
X601739Y119660D01*
X601701Y119870D01*
X601875Y120669D01*
X601922Y121017D01*
X601937Y121099D01*
X601995Y121915D01*
X602091Y122106D01*
X602105Y122142D01*
X602125Y122176D01*
X602155Y122265D01*
X602275Y122563D01*
X602313Y122732D01*
X602343Y122822D01*
X602902Y125390D01*
X602907Y125429D01*
X602918Y125467D01*
X602925Y125560D01*
X602927Y125573D01*
X602935Y125615D01*
X602935Y125640D01*
X602967Y125879D01*
X602962Y126053D01*
X602970Y126147D01*
X602962Y126360D01*
X603248Y127126D01*
X603344Y127464D01*
X603370Y127543D01*
X603544Y128342D01*
X603666Y128517D01*
X603685Y128551D01*
X603709Y128582D01*
X603752Y128665D01*
X603913Y128944D01*
X603975Y129106D01*
X604018Y129190D01*
X604936Y131653D01*
X604947Y131690D01*
X604963Y131726D01*
X604983Y131818D01*
X605071Y132127D01*
X605090Y132300D01*
X605111Y132392D01*
X605134Y132604D01*
X605526Y133321D01*
X605669Y133643D01*
X605706Y133717D01*
X605992Y134483D01*
X606137Y134639D01*
X606161Y134670D01*
X606190Y134697D01*
X606244Y134774D01*
X606443Y135026D01*
X606527Y135178D01*
X606581Y135255D01*
X607841Y137562D01*
X607857Y137598D01*
X607878Y137631D01*
X607911Y137719D01*
X608042Y138013D01*
X608086Y138181D01*
X608119Y138269D01*
X608172Y138475D01*
X608662Y139130D01*
X608849Y139428D01*
X608897Y139496D01*
X609289Y140213D01*
X609455Y140347D01*
X609483Y140374D01*
X609515Y140397D01*
X609579Y140465D01*
X609812Y140687D01*
X609917Y140825D01*
X609982Y140894D01*
X611557Y142998D01*
X611578Y143031D01*
X611603Y143061D01*
X611649Y143143D01*
X611820Y143415D01*
X611887Y143575D01*
X611933Y143658D01*
X612015Y143855D01*
X612593Y144433D01*
X612821Y144701D01*
X612878Y144761D01*
X613367Y145416D01*
X613551Y145525D01*
X613583Y145547D01*
X613617Y145565D01*
X613691Y145624D01*
X613953Y145810D01*
X614077Y145932D01*
X614151Y145991D01*
X616009Y147849D01*
X616035Y147879D01*
X616064Y147905D01*
X616121Y147980D01*
X616329Y148225D01*
X616418Y148374D01*
X616475Y148449D01*
X616584Y148633D01*
X617239Y149122D01*
X617502Y149355D01*
X617567Y149407D01*
X618145Y149985D01*
X618342Y150067D01*
X618377Y150085D01*
X618414Y150098D01*
X618495Y150145D01*
X618601Y150200D01*
X618635Y150214D01*
X618657Y150228D01*
X618781Y150292D01*
X618921Y150395D01*
X619002Y150443D01*
X619037Y150469D01*
X619043Y150474D01*
X619051Y150479D01*
X619126Y150546D01*
X619178Y150585D01*
X619239Y150647D01*
X619407Y150795D01*
X619412Y150802D01*
X619418Y150808D01*
X619568Y150993D01*
X619719Y151177D01*
X619723Y151185D01*
X619728Y151192D01*
X619846Y151398D01*
X619965Y151605D01*
X619968Y151613D01*
X619972Y151620D01*
X620055Y151844D01*
X620139Y152066D01*
X620141Y152075D01*
X620144Y152083D01*
X620189Y152313D01*
X620237Y152550D01*
X620237Y152559D01*
X620239Y152567D01*
X620246Y152804D01*
X620255Y153043D01*
X620254Y153051D01*
X620254Y153060D01*
X620223Y153297D01*
X620193Y153532D01*
X620191Y153541D01*
X620190Y153549D01*
X620121Y153778D01*
X620053Y154005D01*
X620050Y154013D01*
X620047Y154022D01*
X619943Y154234D01*
X619839Y154450D01*
X619834Y154457D01*
X619830Y154465D01*
X619693Y154658D01*
X619556Y154854D01*
X619550Y154860D01*
X619545Y154867D01*
X619377Y155036D01*
X619211Y155207D01*
X619204Y155212D01*
X619198Y155218D01*
X619005Y155358D01*
X618814Y155499D01*
X618806Y155503D01*
X618799Y155508D01*
X618588Y155615D01*
X618375Y155724D01*
X618367Y155727D01*
X618359Y155731D01*
X618131Y155802D01*
X617905Y155875D01*
X617897Y155876D01*
X617888Y155879D01*
X617851Y155883D01*
X617417Y155948D01*
X617288Y155947D01*
X617211Y155955D01*
X581579Y155955D01*
X581465Y155946D01*
X581351Y155947D01*
X581220Y155926D01*
X581087Y155915D01*
X580977Y155888D01*
X580864Y155870D01*
X580737Y155829D01*
X580608Y155797D01*
X580504Y155752D01*
X580395Y155716D01*
X580277Y155654D01*
X580155Y155602D01*
X580059Y155541D01*
X579957Y155488D01*
X579884Y155429D01*
X579739Y155337D01*
X579497Y155121D01*
X579424Y155063D01*
X576761Y152399D01*
X566239Y152399D01*
X558799Y159839D01*
X558799Y170361D01*
X566239Y177801D01*
X576761Y177801D01*
X579424Y175137D01*
X579511Y175063D01*
X579592Y174982D01*
X579699Y174904D01*
X579800Y174818D01*
X579898Y174759D01*
X579990Y174692D01*
X580109Y174632D01*
X580223Y174563D01*
X580329Y174521D01*
X580431Y174469D01*
X580558Y174429D01*
X580681Y174380D01*
X580792Y174355D01*
X580901Y174321D01*
X580995Y174311D01*
X581162Y174273D01*
X581487Y174255D01*
X581579Y174245D01*
X649519Y174245D01*
X652880Y172853D01*
X655453Y170280D01*
X656845Y166919D01*
X656845Y162092D01*
X656855Y161962D01*
X656856Y161831D01*
X656875Y161716D01*
X656885Y161600D01*
X656916Y161474D01*
X656938Y161345D01*
X656975Y161234D01*
X657003Y161121D01*
X657055Y161002D01*
X657097Y160878D01*
X657152Y160775D01*
X657198Y160668D01*
X657268Y160558D01*
X657330Y160443D01*
X657400Y160350D01*
X657463Y160252D01*
X657550Y160155D01*
X657629Y160051D01*
X657714Y159971D01*
X657792Y159884D01*
X657893Y159802D01*
X657988Y159712D01*
X658085Y159647D01*
X658176Y159574D01*
X658289Y159510D01*
X658397Y159436D01*
X658503Y159388D01*
X658604Y159330D01*
X658727Y159285D01*
X658845Y159230D01*
X658957Y159199D01*
X659067Y159158D01*
X659195Y159133D01*
X659321Y159099D01*
X659406Y159092D01*
X659551Y159064D01*
X659703Y159059D01*
X660526Y158752D01*
X660864Y158656D01*
X660943Y158630D01*
X661742Y158456D01*
X661917Y158334D01*
X661951Y158315D01*
X661982Y158291D01*
X662065Y158248D01*
X662344Y158087D01*
X662506Y158025D01*
X662590Y157982D01*
X665053Y157064D01*
X665090Y157053D01*
X665126Y157037D01*
X665218Y157017D01*
X665527Y156929D01*
X665700Y156910D01*
X665792Y156889D01*
X666004Y156866D01*
X666721Y156474D01*
X667043Y156331D01*
X667117Y156294D01*
X667883Y156008D01*
X668039Y155863D01*
X668070Y155839D01*
X668097Y155810D01*
X668174Y155756D01*
X668426Y155557D01*
X668578Y155473D01*
X668655Y155419D01*
X670962Y154159D01*
X670998Y154143D01*
X671031Y154122D01*
X671119Y154089D01*
X671413Y153958D01*
X671581Y153914D01*
X671669Y153881D01*
X671875Y153828D01*
X672530Y153338D01*
X672828Y153151D01*
X672896Y153103D01*
X673613Y152711D01*
X673747Y152545D01*
X673774Y152517D01*
X673797Y152485D01*
X673865Y152421D01*
X674087Y152188D01*
X674225Y152083D01*
X674294Y152018D01*
X676398Y150443D01*
X676431Y150422D01*
X676461Y150397D01*
X676543Y150351D01*
X676815Y150180D01*
X676975Y150113D01*
X677058Y150067D01*
X677255Y149985D01*
X677833Y149407D01*
X678101Y149179D01*
X678161Y149122D01*
X678816Y148633D01*
X678925Y148449D01*
X678947Y148417D01*
X678965Y148383D01*
X679024Y148309D01*
X679210Y148047D01*
X679332Y147923D01*
X679391Y147849D01*
X681249Y145991D01*
X681279Y145965D01*
X681305Y145936D01*
X681380Y145879D01*
X681625Y145671D01*
X681774Y145582D01*
X681849Y145525D01*
X682033Y145416D01*
X682522Y144761D01*
X682755Y144498D01*
X682807Y144433D01*
X683385Y143855D01*
X683467Y143658D01*
X683485Y143623D01*
X683498Y143586D01*
X683545Y143505D01*
X683692Y143219D01*
X683795Y143079D01*
X683843Y142998D01*
X685418Y140894D01*
X685444Y140864D01*
X685466Y140832D01*
X685532Y140765D01*
X685745Y140524D01*
X685879Y140414D01*
X685945Y140347D01*
X686111Y140213D01*
X686503Y139496D01*
X686696Y139202D01*
X686738Y139130D01*
X687228Y138475D01*
X687281Y138269D01*
X687294Y138232D01*
X687301Y138193D01*
X687337Y138106D01*
X687441Y137802D01*
X687523Y137649D01*
X687559Y137562D01*
X688819Y135255D01*
X688840Y135222D01*
X688857Y135187D01*
X688913Y135111D01*
X689089Y134843D01*
X689207Y134715D01*
X689263Y134639D01*
X689408Y134483D01*
X689694Y133717D01*
X689843Y133398D01*
X689874Y133321D01*
X690266Y132604D01*
X690289Y132392D01*
X690296Y132353D01*
X690298Y132314D01*
X690321Y132224D01*
X690381Y131907D01*
X690441Y131744D01*
X690464Y131653D01*
X691382Y129190D01*
X691399Y129155D01*
X691411Y129117D01*
X691455Y129035D01*
X691592Y128743D01*
X691690Y128600D01*
X691734Y128517D01*
X691856Y128342D01*
X692030Y127543D01*
X692132Y127206D01*
X692152Y127126D01*
X692438Y126360D01*
X692430Y126147D01*
X692432Y126108D01*
X692429Y126069D01*
X692438Y125975D01*
X692453Y125654D01*
X692488Y125484D01*
X692498Y125390D01*
X693057Y122822D01*
X693068Y122784D01*
X693074Y122746D01*
X693107Y122658D01*
X693200Y122350D01*
X693277Y122194D01*
X693309Y122106D01*
X693405Y121915D01*
X693463Y121099D01*
X693517Y120751D01*
X693525Y120669D01*
X693699Y119870D01*
X693661Y119660D01*
X693657Y119622D01*
X693648Y119583D01*
X693644Y119489D01*
X693613Y119169D01*
X693624Y118996D01*
X693620Y118902D01*
X693779Y116686D01*
X693801Y116540D01*
X693814Y116393D01*
X693835Y116320D01*
X693854Y116199D01*
X693929Y115968D01*
X693929Y114699D01*
X693940Y114563D01*
X693936Y114482D01*
X694026Y113233D01*
X694005Y113167D01*
X693997Y113092D01*
X693967Y112972D01*
X693948Y112730D01*
X693463Y111558D01*
X693421Y111428D01*
X693387Y111354D01*
X692991Y110166D01*
X692947Y110113D01*
X692910Y110047D01*
X692837Y109948D01*
X692627Y109534D01*
X692617Y109516D01*
X692538Y109325D01*
X692526Y109306D01*
X692498Y109234D01*
X692461Y109166D01*
X692406Y109006D01*
X692343Y108848D01*
X692327Y108773D01*
X692302Y108699D01*
X692273Y108532D01*
X692237Y108366D01*
X692232Y108289D01*
X692219Y108213D01*
X692218Y108043D01*
X692209Y107874D01*
X692217Y107797D01*
X692217Y107720D01*
X692243Y107552D01*
X692261Y107383D01*
X692282Y107309D01*
X692294Y107232D01*
X692347Y107071D01*
X692392Y106908D01*
X692424Y106837D01*
X692448Y106764D01*
X692503Y106659D01*
X692617Y106384D01*
X692684Y106252D01*
X692743Y106116D01*
X692786Y106055D01*
X692842Y105945D01*
X692986Y105750D01*
X693387Y104546D01*
X693440Y104420D01*
X693463Y104342D01*
X693942Y103185D01*
X693943Y103116D01*
X693959Y103042D01*
X693969Y102919D01*
X694027Y102684D01*
X693936Y101418D01*
X693938Y101281D01*
X693929Y101201D01*
X693929Y99949D01*
X693903Y99884D01*
X693890Y99810D01*
X693852Y99693D01*
X693783Y99234D01*
X693779Y99214D01*
X693620Y96998D01*
X693621Y96959D01*
X693616Y96920D01*
X693622Y96826D01*
X693625Y96505D01*
X693655Y96334D01*
X693661Y96240D01*
X693699Y96030D01*
X693525Y95231D01*
X693478Y94883D01*
X693463Y94801D01*
X693405Y93985D01*
X693309Y93794D01*
X693295Y93758D01*
X693275Y93724D01*
X693274Y93719D01*
X693211Y93550D01*
X693125Y93337D01*
X693115Y93290D01*
X693104Y93262D01*
X693084Y93158D01*
X693057Y93078D01*
X692498Y90510D01*
X692493Y90471D01*
X692482Y90433D01*
X692475Y90340D01*
X692433Y90021D01*
X692438Y89847D01*
X692430Y89753D01*
X692438Y89540D01*
X692152Y88774D01*
X692056Y88436D01*
X692030Y88357D01*
X691856Y87558D01*
X691734Y87383D01*
X691715Y87349D01*
X691691Y87318D01*
X691648Y87235D01*
X691487Y86956D01*
X691425Y86794D01*
X691382Y86710D01*
X690464Y84247D01*
X690453Y84210D01*
X690437Y84174D01*
X690417Y84082D01*
X690329Y83773D01*
X690310Y83600D01*
X690289Y83508D01*
X690266Y83296D01*
X689874Y82579D01*
X689731Y82257D01*
X689694Y82183D01*
X689408Y81417D01*
X689263Y81261D01*
X689239Y81230D01*
X689210Y81203D01*
X689156Y81126D01*
X688957Y80874D01*
X688873Y80722D01*
X688819Y80645D01*
X687559Y78338D01*
X687543Y78302D01*
X687522Y78269D01*
X687489Y78181D01*
X687358Y77887D01*
X687314Y77719D01*
X687281Y77631D01*
X687228Y77425D01*
X686738Y76770D01*
X686551Y76472D01*
X686503Y76404D01*
X686111Y75687D01*
X685945Y75553D01*
X685917Y75526D01*
X685885Y75503D01*
X685821Y75435D01*
X685588Y75213D01*
X685483Y75075D01*
X685418Y75006D01*
X683843Y72902D01*
X683822Y72869D01*
X683797Y72839D01*
X683789Y72826D01*
X683787Y72822D01*
X683731Y72725D01*
X683580Y72485D01*
X683513Y72325D01*
X683467Y72242D01*
X683385Y72045D01*
X682807Y71467D01*
X682579Y71199D01*
X682522Y71139D01*
X682033Y70484D01*
X681849Y70375D01*
X681817Y70353D01*
X681783Y70335D01*
X681709Y70276D01*
X681447Y70090D01*
X681323Y69968D01*
X681249Y69909D01*
X679391Y68051D01*
X679365Y68021D01*
X679336Y67995D01*
X679280Y67920D01*
X679071Y67675D01*
X678982Y67526D01*
X678925Y67451D01*
X678816Y67268D01*
X678161Y66778D01*
X677898Y66545D01*
X677833Y66493D01*
X677255Y65915D01*
X677058Y65833D01*
X677023Y65815D01*
X676986Y65802D01*
X676905Y65755D01*
X676619Y65608D01*
X676479Y65505D01*
X676398Y65457D01*
X674293Y63882D01*
X674264Y63856D01*
X674232Y63834D01*
X674165Y63768D01*
X673924Y63555D01*
X673814Y63421D01*
X673747Y63355D01*
X673613Y63189D01*
X672896Y62797D01*
X672602Y62604D01*
X672530Y62562D01*
X671875Y62072D01*
X671669Y62019D01*
X671632Y62006D01*
X671593Y61999D01*
X671507Y61963D01*
X671202Y61859D01*
X671049Y61777D01*
X670962Y61741D01*
X668655Y60481D01*
X668622Y60460D01*
X668587Y60443D01*
X668511Y60387D01*
X668243Y60211D01*
X668115Y60093D01*
X668039Y60037D01*
X667883Y59892D01*
X667117Y59606D01*
X666798Y59457D01*
X666721Y59426D01*
X666004Y59034D01*
X665792Y59011D01*
X665753Y59004D01*
X665714Y59002D01*
X665624Y58979D01*
X665307Y58919D01*
X665145Y58859D01*
X665053Y58836D01*
X662590Y57918D01*
X662554Y57901D01*
X662517Y57889D01*
X662434Y57845D01*
X662143Y57708D01*
X662000Y57610D01*
X661917Y57566D01*
X661742Y57444D01*
X660943Y57270D01*
X660606Y57168D01*
X660526Y57148D01*
X659727Y56850D01*
X659625Y56836D01*
X659508Y56831D01*
X659380Y56804D01*
X659251Y56787D01*
X659139Y56754D01*
X659025Y56730D01*
X658903Y56682D01*
X658778Y56645D01*
X658674Y56593D01*
X658565Y56551D01*
X658453Y56485D01*
X658335Y56428D01*
X658240Y56360D01*
X658140Y56301D01*
X658039Y56218D01*
X657933Y56142D01*
X657850Y56060D01*
X657761Y55986D01*
X657675Y55887D01*
X657582Y55796D01*
X657514Y55701D01*
X657437Y55613D01*
X657368Y55502D01*
X657292Y55397D01*
X657239Y55293D01*
X657178Y55194D01*
X657128Y55073D01*
X657069Y54956D01*
X657034Y54845D01*
X656990Y54738D01*
X656960Y54611D01*
X656921Y54486D01*
X656911Y54401D01*
X656878Y54257D01*
X656853Y53878D01*
X656845Y53808D01*
X656845Y24892D01*
X656851Y24816D01*
X656849Y24740D01*
X656871Y24571D01*
X656885Y24400D01*
X656903Y24326D01*
X656913Y24251D01*
X656962Y24087D01*
X657003Y23921D01*
X657033Y23852D01*
X657055Y23778D01*
X657131Y23625D01*
X657198Y23468D01*
X657239Y23404D01*
X657272Y23335D01*
X657371Y23196D01*
X657463Y23052D01*
X657514Y22995D01*
X657558Y22933D01*
X657678Y22812D01*
X657792Y22684D01*
X657851Y22636D01*
X657905Y22582D01*
X658043Y22481D01*
X658176Y22374D01*
X658242Y22337D01*
X658303Y22292D01*
X658456Y22215D01*
X658604Y22130D01*
X658676Y22104D01*
X658744Y22069D01*
X658907Y22018D01*
X659067Y21959D01*
X659142Y21944D01*
X659214Y21921D01*
X659319Y21909D01*
X659551Y21864D01*
X659787Y21857D01*
X659892Y21845D01*
X704764Y21845D01*
X704878Y21854D01*
X704992Y21853D01*
X705123Y21874D01*
X705256Y21885D01*
X705366Y21912D01*
X705479Y21930D01*
X705606Y21971D01*
X705735Y22003D01*
X705840Y22048D01*
X705948Y22084D01*
X706066Y22145D01*
X706188Y22198D01*
X706284Y22259D01*
X706386Y22312D01*
X706459Y22371D01*
X706604Y22463D01*
X706846Y22679D01*
X706919Y22737D01*
X707427Y23245D01*
X707450Y23273D01*
X707477Y23297D01*
X707502Y23327D01*
X707532Y23355D01*
X707636Y23491D01*
X707746Y23621D01*
X707768Y23657D01*
X707787Y23681D01*
X707804Y23710D01*
X707832Y23747D01*
X707913Y23897D01*
X708001Y24044D01*
X708018Y24087D01*
X708031Y24109D01*
X708041Y24137D01*
X708065Y24182D01*
X708121Y24344D01*
X708184Y24502D01*
X708195Y24552D01*
X708203Y24572D01*
X708207Y24596D01*
X708225Y24648D01*
X708254Y24817D01*
X708291Y24983D01*
X708294Y25039D01*
X708297Y25056D01*
X708298Y25076D01*
X708308Y25135D01*
X708309Y25306D01*
X708318Y25476D01*
X708312Y25535D01*
X708313Y25549D01*
X708310Y25565D01*
X708311Y25628D01*
X708284Y25797D01*
X708266Y25967D01*
X708250Y26027D01*
X708248Y26038D01*
X708244Y26051D01*
X708234Y26115D01*
X708181Y26278D01*
X708136Y26442D01*
X708108Y26502D01*
X708106Y26510D01*
X708101Y26520D01*
X708080Y26584D01*
X708001Y26736D01*
X707930Y26891D01*
X707892Y26947D01*
X707889Y26954D01*
X707884Y26960D01*
X707852Y27022D01*
X707786Y27104D01*
X707655Y27300D01*
X707607Y27350D01*
X707603Y27356D01*
X707576Y27384D01*
X707492Y27472D01*
X707427Y27555D01*
X704652Y30330D01*
X702563Y35372D01*
X702563Y40828D01*
X704651Y45870D01*
X707427Y48645D01*
X707476Y48703D01*
X707532Y48755D01*
X707636Y48891D01*
X707746Y49021D01*
X707786Y49087D01*
X707832Y49147D01*
X707913Y49297D01*
X708001Y49444D01*
X708029Y49514D01*
X708065Y49582D01*
X708121Y49743D01*
X708184Y49902D01*
X708200Y49976D01*
X708225Y50048D01*
X708254Y50217D01*
X708291Y50383D01*
X708295Y50460D01*
X708308Y50535D01*
X708309Y50706D01*
X708318Y50876D01*
X708310Y50952D01*
X708311Y51028D01*
X708284Y51197D01*
X708266Y51367D01*
X708246Y51440D01*
X708234Y51515D01*
X708181Y51678D01*
X708136Y51842D01*
X708104Y51912D01*
X708080Y51984D01*
X708001Y52136D01*
X707930Y52291D01*
X707887Y52354D01*
X707852Y52422D01*
X707786Y52504D01*
X707654Y52700D01*
X707492Y52872D01*
X707427Y52955D01*
X704652Y55730D01*
X702563Y60772D01*
X702563Y66228D01*
X704652Y71270D01*
X707427Y74045D01*
X707476Y74103D01*
X707532Y74156D01*
X707636Y74291D01*
X707746Y74421D01*
X707786Y74486D01*
X707832Y74547D01*
X707913Y74697D01*
X708001Y74844D01*
X708029Y74915D01*
X708065Y74982D01*
X708121Y75143D01*
X708184Y75302D01*
X708200Y75376D01*
X708225Y75448D01*
X708254Y75617D01*
X708291Y75784D01*
X708295Y75860D01*
X708308Y75935D01*
X708309Y76106D01*
X708318Y76276D01*
X708310Y76352D01*
X708311Y76428D01*
X708284Y76597D01*
X708266Y76767D01*
X708246Y76840D01*
X708234Y76915D01*
X708181Y77078D01*
X708136Y77242D01*
X708104Y77312D01*
X708080Y77384D01*
X708001Y77535D01*
X707930Y77691D01*
X707887Y77754D01*
X707852Y77822D01*
X707786Y77904D01*
X707654Y78100D01*
X707493Y78272D01*
X707427Y78355D01*
X704651Y81130D01*
X702563Y86172D01*
X702563Y91628D01*
X704651Y96670D01*
X707427Y99445D01*
X707443Y99465D01*
X707458Y99478D01*
X707487Y99513D01*
X707532Y99555D01*
X707636Y99691D01*
X707746Y99821D01*
X707786Y99887D01*
X707832Y99947D01*
X707913Y100097D01*
X708001Y100244D01*
X708029Y100314D01*
X708065Y100382D01*
X708121Y100543D01*
X708184Y100702D01*
X708200Y100776D01*
X708225Y100848D01*
X708254Y101017D01*
X708291Y101183D01*
X708295Y101260D01*
X708308Y101335D01*
X708309Y101506D01*
X708318Y101676D01*
X708310Y101752D01*
X708311Y101828D01*
X708284Y101997D01*
X708266Y102167D01*
X708246Y102240D01*
X708234Y102315D01*
X708181Y102478D01*
X708136Y102642D01*
X708104Y102712D01*
X708080Y102784D01*
X708001Y102936D01*
X707930Y103091D01*
X707887Y103154D01*
X707852Y103222D01*
X707786Y103304D01*
X707654Y103500D01*
X707492Y103672D01*
X707427Y103755D01*
X704652Y106530D01*
X702563Y111572D01*
X702563Y117028D01*
X704651Y122070D01*
X707427Y124845D01*
X707476Y124903D01*
X707532Y124955D01*
X707636Y125091D01*
X707746Y125221D01*
X707786Y125287D01*
X707832Y125347D01*
X707913Y125497D01*
X708001Y125644D01*
X708029Y125714D01*
X708065Y125782D01*
X708121Y125943D01*
X708184Y126102D01*
X708200Y126176D01*
X708225Y126248D01*
X708254Y126417D01*
X708291Y126583D01*
X708295Y126660D01*
X708308Y126735D01*
X708309Y126906D01*
X708318Y127076D01*
X708310Y127152D01*
X708311Y127228D01*
X708284Y127397D01*
X708266Y127567D01*
X708246Y127640D01*
X708234Y127715D01*
X708181Y127878D01*
X708136Y128042D01*
X708104Y128112D01*
X708080Y128184D01*
X708001Y128336D01*
X707930Y128491D01*
X707887Y128554D01*
X707852Y128622D01*
X707786Y128704D01*
X707654Y128900D01*
X707492Y129072D01*
X707427Y129155D01*
X704652Y131930D01*
X702563Y136972D01*
X702563Y142428D01*
X704651Y147470D01*
X707427Y150245D01*
X707476Y150303D01*
X707532Y150355D01*
X707636Y150491D01*
X707746Y150621D01*
X707786Y150687D01*
X707832Y150747D01*
X707913Y150897D01*
X708001Y151044D01*
X708029Y151114D01*
X708065Y151182D01*
X708121Y151343D01*
X708184Y151502D01*
X708200Y151576D01*
X708225Y151648D01*
X708254Y151817D01*
X708291Y151983D01*
X708295Y152060D01*
X708308Y152135D01*
X708309Y152306D01*
X708318Y152476D01*
X708310Y152552D01*
X708311Y152628D01*
X708284Y152797D01*
X708266Y152967D01*
X708246Y153040D01*
X708234Y153115D01*
X708181Y153278D01*
X708136Y153442D01*
X708104Y153512D01*
X708080Y153584D01*
X708001Y153736D01*
X707930Y153891D01*
X707887Y153954D01*
X707852Y154022D01*
X707786Y154104D01*
X707654Y154300D01*
X707492Y154472D01*
X707427Y154555D01*
X704652Y157330D01*
X702563Y162372D01*
X702563Y167828D01*
X704651Y172870D01*
X707427Y175645D01*
X707436Y175656D01*
X707439Y175659D01*
X707454Y175677D01*
X707476Y175703D01*
X707532Y175755D01*
X707636Y175891D01*
X707746Y176021D01*
X707786Y176087D01*
X707832Y176147D01*
X707913Y176297D01*
X708001Y176444D01*
X708029Y176514D01*
X708065Y176582D01*
X708121Y176743D01*
X708184Y176902D01*
X708200Y176976D01*
X708225Y177048D01*
X708254Y177217D01*
X708291Y177383D01*
X708295Y177460D01*
X708308Y177535D01*
X708309Y177706D01*
X708318Y177876D01*
X708310Y177952D01*
X708311Y178028D01*
X708284Y178197D01*
X708266Y178367D01*
X708246Y178440D01*
X708234Y178515D01*
X708181Y178678D01*
X708136Y178842D01*
X708104Y178912D01*
X708080Y178984D01*
X708001Y179136D01*
X707930Y179291D01*
X707887Y179354D01*
X707852Y179422D01*
X707786Y179504D01*
X707654Y179700D01*
X707492Y179872D01*
X707427Y179955D01*
X704652Y182730D01*
X702563Y187772D01*
X702563Y193228D01*
X704633Y198226D01*
X704689Y198398D01*
X704751Y198567D01*
X704764Y198632D01*
X704785Y198695D01*
X704812Y198874D01*
X704846Y199051D01*
X704848Y199117D01*
X704858Y199183D01*
X704856Y199364D01*
X704861Y199544D01*
X704853Y199610D01*
X704852Y199677D01*
X704821Y199854D01*
X704797Y200033D01*
X704778Y200097D01*
X704766Y200162D01*
X704707Y200332D01*
X704655Y200506D01*
X704625Y200565D01*
X704603Y200628D01*
X704517Y200786D01*
X704438Y200949D01*
X704399Y201003D01*
X704367Y201061D01*
X704257Y201204D01*
X704152Y201351D01*
X704105Y201398D01*
X704065Y201451D01*
X703932Y201574D01*
X703805Y201702D01*
X703752Y201741D01*
X703703Y201786D01*
X703553Y201886D01*
X703407Y201992D01*
X703347Y202022D01*
X703292Y202059D01*
X703127Y202133D01*
X702966Y202215D01*
X702903Y202235D01*
X702842Y202262D01*
X702668Y202309D01*
X702496Y202363D01*
X702443Y202369D01*
X702366Y202390D01*
X701875Y202439D01*
X701841Y202437D01*
X701818Y202439D01*
X108866Y202439D01*
X108686Y202425D01*
X108506Y202418D01*
X108441Y202405D01*
X108375Y202399D01*
X108199Y202356D01*
X108022Y202320D01*
X107960Y202297D01*
X107896Y202281D01*
X107730Y202209D01*
X107561Y202146D01*
X107503Y202112D01*
X107442Y202086D01*
X107290Y201989D01*
X107134Y201899D01*
X107082Y201857D01*
X107026Y201821D01*
X106892Y201701D01*
X106752Y201586D01*
X106708Y201537D01*
X106658Y201492D01*
X106545Y201352D01*
X106426Y201217D01*
X106390Y201160D01*
X106348Y201108D01*
X106259Y200952D01*
X106163Y200799D01*
X106137Y200737D01*
X106104Y200680D01*
X106042Y200510D01*
X105972Y200344D01*
X105956Y200280D01*
X105933Y200217D01*
X105898Y200040D01*
X105856Y199865D01*
X105851Y199798D01*
X105838Y199733D01*
X105833Y199553D01*
X105819Y199373D01*
X105825Y199306D01*
X105823Y199240D01*
X105846Y199061D01*
X105862Y198881D01*
X105877Y198831D01*
X105887Y198751D01*
X106030Y198279D01*
X106045Y198248D01*
X106051Y198226D01*
X108205Y193026D01*
X108205Y187974D01*
X106271Y183306D01*
X102920Y179955D01*
X102871Y179897D01*
X102815Y179845D01*
X102712Y179709D01*
X102601Y179579D01*
X102561Y179513D01*
X102515Y179453D01*
X102434Y179303D01*
X102346Y179156D01*
X102318Y179086D01*
X102282Y179018D01*
X102226Y178857D01*
X102163Y178698D01*
X102147Y178624D01*
X102122Y178552D01*
X102093Y178383D01*
X102056Y178217D01*
X102052Y178140D01*
X102039Y178065D01*
X102038Y177894D01*
X102029Y177724D01*
X102037Y177648D01*
X102036Y177572D01*
X102063Y177403D01*
X102081Y177233D01*
X102101Y177160D01*
X102113Y177085D01*
X102166Y176922D01*
X102212Y176758D01*
X102243Y176688D01*
X102267Y176616D01*
X102346Y176464D01*
X102417Y176309D01*
X102460Y176246D01*
X102495Y176178D01*
X102561Y176096D01*
X102693Y175900D01*
X102767Y175821D01*
X102781Y175801D01*
X102860Y175721D01*
X102920Y175645D01*
X106271Y172294D01*
X108205Y167626D01*
X108205Y162574D01*
X106271Y157906D01*
X102920Y154555D01*
X102871Y154497D01*
X102815Y154445D01*
X102712Y154309D01*
X102601Y154179D01*
X102561Y154113D01*
X102515Y154053D01*
X102434Y153903D01*
X102346Y153756D01*
X102318Y153686D01*
X102282Y153618D01*
X102226Y153457D01*
X102163Y153298D01*
X102147Y153224D01*
X102122Y153152D01*
X102093Y152983D01*
X102056Y152817D01*
X102052Y152740D01*
X102039Y152665D01*
X102038Y152494D01*
X102029Y152324D01*
X102037Y152248D01*
X102036Y152172D01*
X102063Y152003D01*
X102081Y151833D01*
X102101Y151760D01*
X102113Y151685D01*
X102166Y151522D01*
X102212Y151358D01*
X102243Y151288D01*
X102267Y151216D01*
X102346Y151064D01*
X102417Y150909D01*
X102460Y150846D01*
X102495Y150778D01*
X102561Y150696D01*
X102693Y150500D01*
X102855Y150327D01*
X102920Y150245D01*
X106271Y146894D01*
X108205Y142226D01*
X108205Y137174D01*
X106271Y132506D01*
X102920Y129155D01*
X102871Y129097D01*
X102815Y129045D01*
X102712Y128909D01*
X102601Y128779D01*
X102561Y128713D01*
X102515Y128653D01*
X102434Y128503D01*
X102346Y128356D01*
X102318Y128286D01*
X102282Y128218D01*
X102226Y128057D01*
X102163Y127898D01*
X102147Y127824D01*
X102122Y127752D01*
X102093Y127583D01*
X102056Y127417D01*
X102052Y127340D01*
X102039Y127265D01*
X102038Y127094D01*
X102029Y126924D01*
X102037Y126848D01*
X102036Y126772D01*
X102063Y126603D01*
X102081Y126433D01*
X102101Y126360D01*
X102113Y126285D01*
X102166Y126122D01*
X102212Y125958D01*
X102243Y125888D01*
X102267Y125816D01*
X102346Y125664D01*
X102417Y125509D01*
X102460Y125446D01*
X102495Y125378D01*
X102561Y125296D01*
X102693Y125100D01*
X102855Y124927D01*
X102920Y124845D01*
X106271Y121494D01*
X108205Y116826D01*
X108205Y111774D01*
X106271Y107106D01*
X102920Y103755D01*
X102871Y103697D01*
X102815Y103645D01*
X102712Y103509D01*
X102601Y103379D01*
X102561Y103313D01*
X102515Y103253D01*
X102434Y103103D01*
X102346Y102956D01*
X102318Y102886D01*
X102282Y102818D01*
X102226Y102657D01*
X102163Y102498D01*
X102147Y102424D01*
X102122Y102352D01*
X102093Y102183D01*
X102056Y102017D01*
X102052Y101940D01*
X102039Y101865D01*
X102038Y101694D01*
X102029Y101524D01*
X102037Y101448D01*
X102036Y101372D01*
X102063Y101203D01*
X102081Y101033D01*
X102101Y100960D01*
X102113Y100885D01*
X102166Y100722D01*
X102212Y100558D01*
X102243Y100488D01*
X102267Y100416D01*
X102346Y100264D01*
X102417Y100109D01*
X102460Y100046D01*
X102495Y99978D01*
X102561Y99896D01*
X102693Y99700D01*
X102745Y99645D01*
X102763Y99619D01*
X102861Y99520D01*
X102920Y99445D01*
X106271Y96094D01*
X108205Y91426D01*
X108205Y86374D01*
X106271Y81706D01*
X102920Y78355D01*
X102871Y78297D01*
X102815Y78245D01*
X102712Y78109D01*
X102601Y77979D01*
X102561Y77913D01*
X102515Y77853D01*
X102434Y77703D01*
X102346Y77556D01*
X102318Y77486D01*
X102282Y77418D01*
X102226Y77257D01*
X102163Y77098D01*
X102147Y77024D01*
X102122Y76952D01*
X102093Y76783D01*
X102056Y76617D01*
X102052Y76540D01*
X102039Y76465D01*
X102038Y76294D01*
X102029Y76124D01*
X102037Y76048D01*
X102036Y75972D01*
X102063Y75803D01*
X102081Y75633D01*
X102101Y75560D01*
X102113Y75485D01*
X102166Y75322D01*
X102212Y75158D01*
X102243Y75088D01*
X102267Y75016D01*
X102346Y74864D01*
X102417Y74709D01*
X102460Y74646D01*
X102495Y74578D01*
X102561Y74496D01*
X102693Y74300D01*
X102855Y74127D01*
X102920Y74045D01*
X106271Y70694D01*
X108205Y66026D01*
X108205Y60974D01*
X106271Y56306D01*
X102920Y52955D01*
X102871Y52897D01*
X102815Y52845D01*
X102712Y52709D01*
X102601Y52579D01*
X102561Y52513D01*
X102515Y52453D01*
X102434Y52303D01*
X102346Y52156D01*
X102318Y52086D01*
X102282Y52018D01*
X102226Y51857D01*
X102163Y51698D01*
X102147Y51624D01*
X102122Y51552D01*
X102093Y51383D01*
X102056Y51217D01*
X102052Y51140D01*
X102039Y51065D01*
X102038Y50894D01*
X102029Y50724D01*
X102037Y50648D01*
X102036Y50572D01*
X102063Y50403D01*
X102081Y50233D01*
X102101Y50160D01*
X102113Y50085D01*
X102166Y49922D01*
X102212Y49758D01*
X102243Y49688D01*
X102267Y49616D01*
X102346Y49464D01*
X102417Y49309D01*
X102460Y49246D01*
X102495Y49178D01*
X102561Y49096D01*
X102693Y48900D01*
X102855Y48727D01*
X102920Y48645D01*
X106271Y45294D01*
X108205Y40626D01*
X108205Y35574D01*
X106271Y30906D01*
X102920Y27555D01*
X102875Y27502D01*
X102870Y27497D01*
X102866Y27492D01*
X102815Y27445D01*
X102712Y27309D01*
X102601Y27179D01*
X102565Y27119D01*
X102560Y27113D01*
X102557Y27107D01*
X102515Y27053D01*
X102434Y26903D01*
X102346Y26756D01*
X102321Y26693D01*
X102316Y26685D01*
X102313Y26677D01*
X102282Y26618D01*
X102226Y26457D01*
X102163Y26298D01*
X102149Y26233D01*
X102145Y26222D01*
X102143Y26212D01*
X102122Y26152D01*
X102093Y25983D01*
X102056Y25817D01*
X102053Y25752D01*
X102050Y25738D01*
X102050Y25726D01*
X102039Y25665D01*
X102038Y25494D01*
X102029Y25324D01*
X102035Y25263D01*
X102035Y25245D01*
X102037Y25229D01*
X102036Y25172D01*
X102063Y25003D01*
X102081Y24833D01*
X102096Y24778D01*
X102099Y24756D01*
X102105Y24737D01*
X102113Y24685D01*
X102166Y24522D01*
X102212Y24358D01*
X102234Y24310D01*
X102241Y24283D01*
X102252Y24262D01*
X102267Y24216D01*
X102346Y24064D01*
X102417Y23909D01*
X102444Y23869D01*
X102458Y23840D01*
X102475Y23817D01*
X102495Y23778D01*
X102561Y23696D01*
X102693Y23500D01*
X102722Y23468D01*
X102744Y23438D01*
X102862Y23319D01*
X102920Y23245D01*
X103428Y22737D01*
X103515Y22663D01*
X103596Y22582D01*
X103703Y22504D01*
X103804Y22418D01*
X103902Y22359D01*
X103994Y22292D01*
X104113Y22232D01*
X104227Y22163D01*
X104333Y22121D01*
X104435Y22069D01*
X104562Y22029D01*
X104685Y21980D01*
X104796Y21955D01*
X104905Y21921D01*
X104999Y21911D01*
X105167Y21873D01*
X105491Y21855D01*
X105583Y21845D01*
X152908Y21845D01*
X152984Y21851D01*
G37*
G36*
X66624Y10167D02*
X66624Y10167D01*
X66700Y10165D01*
X66869Y10187D01*
X67040Y10201D01*
X67114Y10219D01*
X67189Y10229D01*
X67353Y10278D01*
X67519Y10319D01*
X67588Y10349D01*
X67662Y10371D01*
X67815Y10447D01*
X67972Y10514D01*
X68036Y10555D01*
X68105Y10588D01*
X68244Y10687D01*
X68388Y10779D01*
X68445Y10830D01*
X68507Y10874D01*
X68628Y10994D01*
X68756Y11108D01*
X68804Y11167D01*
X68858Y11221D01*
X68959Y11359D01*
X69066Y11492D01*
X69103Y11558D01*
X69148Y11619D01*
X69225Y11772D01*
X69310Y11920D01*
X69336Y11992D01*
X69371Y12060D01*
X69422Y12223D01*
X69481Y12383D01*
X69496Y12458D01*
X69519Y12530D01*
X69531Y12635D01*
X69576Y12867D01*
X69583Y13103D01*
X69595Y13208D01*
X69595Y15226D01*
X71529Y19894D01*
X74880Y23245D01*
X74903Y23273D01*
X74930Y23297D01*
X74954Y23327D01*
X74985Y23356D01*
X75089Y23491D01*
X75199Y23621D01*
X75221Y23657D01*
X75240Y23681D01*
X75257Y23710D01*
X75285Y23747D01*
X75366Y23897D01*
X75454Y24044D01*
X75471Y24087D01*
X75484Y24109D01*
X75494Y24137D01*
X75518Y24182D01*
X75574Y24343D01*
X75637Y24502D01*
X75648Y24552D01*
X75655Y24572D01*
X75660Y24596D01*
X75678Y24648D01*
X75707Y24817D01*
X75744Y24984D01*
X75747Y25039D01*
X75750Y25056D01*
X75751Y25076D01*
X75761Y25135D01*
X75762Y25306D01*
X75771Y25476D01*
X75765Y25536D01*
X75765Y25549D01*
X75763Y25565D01*
X75764Y25628D01*
X75737Y25797D01*
X75719Y25967D01*
X75702Y26027D01*
X75701Y26038D01*
X75697Y26050D01*
X75687Y26115D01*
X75634Y26278D01*
X75588Y26442D01*
X75561Y26502D01*
X75559Y26510D01*
X75554Y26520D01*
X75533Y26584D01*
X75454Y26735D01*
X75383Y26891D01*
X75345Y26947D01*
X75342Y26954D01*
X75337Y26960D01*
X75305Y27022D01*
X75239Y27104D01*
X75107Y27300D01*
X75060Y27350D01*
X75056Y27356D01*
X75030Y27383D01*
X74945Y27472D01*
X74880Y27555D01*
X71529Y30906D01*
X69595Y35574D01*
X69595Y40626D01*
X71529Y45294D01*
X74880Y48645D01*
X74929Y48703D01*
X74985Y48756D01*
X75089Y48891D01*
X75199Y49021D01*
X75239Y49086D01*
X75285Y49147D01*
X75366Y49297D01*
X75454Y49444D01*
X75482Y49515D01*
X75518Y49582D01*
X75574Y49743D01*
X75637Y49902D01*
X75653Y49976D01*
X75678Y50048D01*
X75707Y50217D01*
X75744Y50384D01*
X75748Y50460D01*
X75761Y50535D01*
X75762Y50706D01*
X75771Y50876D01*
X75763Y50952D01*
X75764Y51028D01*
X75737Y51197D01*
X75719Y51367D01*
X75699Y51440D01*
X75687Y51515D01*
X75634Y51678D01*
X75588Y51842D01*
X75557Y51912D01*
X75533Y51984D01*
X75454Y52135D01*
X75383Y52291D01*
X75340Y52354D01*
X75305Y52422D01*
X75239Y52504D01*
X75107Y52700D01*
X74945Y52872D01*
X74880Y52955D01*
X71529Y56306D01*
X69595Y60974D01*
X69595Y66026D01*
X71529Y70694D01*
X74880Y74045D01*
X74929Y74103D01*
X74985Y74156D01*
X75089Y74291D01*
X75199Y74421D01*
X75239Y74486D01*
X75285Y74547D01*
X75366Y74697D01*
X75454Y74844D01*
X75482Y74915D01*
X75518Y74982D01*
X75574Y75143D01*
X75637Y75302D01*
X75653Y75376D01*
X75678Y75448D01*
X75707Y75617D01*
X75744Y75784D01*
X75748Y75860D01*
X75761Y75935D01*
X75762Y76106D01*
X75771Y76276D01*
X75763Y76352D01*
X75764Y76428D01*
X75737Y76597D01*
X75719Y76767D01*
X75699Y76840D01*
X75687Y76915D01*
X75634Y77078D01*
X75588Y77242D01*
X75557Y77312D01*
X75533Y77384D01*
X75454Y77535D01*
X75383Y77691D01*
X75340Y77754D01*
X75305Y77822D01*
X75239Y77904D01*
X75107Y78100D01*
X74945Y78272D01*
X74880Y78355D01*
X71529Y81706D01*
X69595Y86374D01*
X69595Y91426D01*
X71529Y96094D01*
X74880Y99445D01*
X74896Y99465D01*
X74911Y99478D01*
X74939Y99513D01*
X74985Y99556D01*
X75089Y99691D01*
X75199Y99821D01*
X75239Y99886D01*
X75285Y99947D01*
X75366Y100097D01*
X75454Y100244D01*
X75482Y100315D01*
X75518Y100382D01*
X75574Y100543D01*
X75637Y100702D01*
X75653Y100776D01*
X75678Y100848D01*
X75707Y101017D01*
X75744Y101184D01*
X75748Y101260D01*
X75761Y101335D01*
X75762Y101506D01*
X75771Y101676D01*
X75763Y101752D01*
X75764Y101828D01*
X75737Y101997D01*
X75719Y102167D01*
X75699Y102240D01*
X75687Y102315D01*
X75634Y102478D01*
X75588Y102642D01*
X75557Y102712D01*
X75533Y102784D01*
X75454Y102935D01*
X75383Y103091D01*
X75340Y103154D01*
X75305Y103222D01*
X75239Y103304D01*
X75107Y103500D01*
X74945Y103672D01*
X74880Y103755D01*
X71529Y107106D01*
X69595Y111774D01*
X69595Y116826D01*
X71529Y121494D01*
X74880Y124845D01*
X74929Y124903D01*
X74985Y124956D01*
X75089Y125091D01*
X75199Y125221D01*
X75239Y125286D01*
X75285Y125347D01*
X75366Y125497D01*
X75454Y125644D01*
X75482Y125715D01*
X75518Y125782D01*
X75574Y125943D01*
X75637Y126102D01*
X75653Y126176D01*
X75678Y126248D01*
X75707Y126417D01*
X75744Y126584D01*
X75748Y126660D01*
X75761Y126735D01*
X75762Y126906D01*
X75771Y127076D01*
X75763Y127152D01*
X75764Y127228D01*
X75737Y127397D01*
X75719Y127567D01*
X75699Y127640D01*
X75687Y127715D01*
X75634Y127878D01*
X75588Y128042D01*
X75557Y128112D01*
X75533Y128184D01*
X75454Y128335D01*
X75383Y128491D01*
X75340Y128554D01*
X75305Y128622D01*
X75239Y128704D01*
X75107Y128900D01*
X74945Y129072D01*
X74880Y129155D01*
X71529Y132506D01*
X69595Y137174D01*
X69595Y142226D01*
X71529Y146894D01*
X74880Y150245D01*
X74929Y150303D01*
X74985Y150356D01*
X75089Y150491D01*
X75199Y150621D01*
X75239Y150686D01*
X75285Y150747D01*
X75366Y150897D01*
X75454Y151044D01*
X75482Y151115D01*
X75518Y151182D01*
X75574Y151343D01*
X75637Y151502D01*
X75653Y151576D01*
X75678Y151648D01*
X75707Y151817D01*
X75744Y151984D01*
X75748Y152060D01*
X75761Y152135D01*
X75762Y152306D01*
X75771Y152476D01*
X75763Y152552D01*
X75764Y152628D01*
X75737Y152797D01*
X75719Y152967D01*
X75699Y153040D01*
X75687Y153115D01*
X75634Y153278D01*
X75588Y153442D01*
X75557Y153512D01*
X75533Y153584D01*
X75454Y153735D01*
X75383Y153891D01*
X75340Y153954D01*
X75305Y154022D01*
X75239Y154104D01*
X75107Y154300D01*
X74945Y154472D01*
X74880Y154555D01*
X71529Y157906D01*
X69595Y162574D01*
X69595Y167626D01*
X71529Y172294D01*
X74880Y175645D01*
X74889Y175656D01*
X74892Y175659D01*
X74907Y175678D01*
X74929Y175703D01*
X74985Y175756D01*
X75089Y175891D01*
X75199Y176021D01*
X75239Y176086D01*
X75285Y176147D01*
X75366Y176297D01*
X75454Y176444D01*
X75482Y176515D01*
X75518Y176582D01*
X75574Y176743D01*
X75637Y176902D01*
X75653Y176976D01*
X75678Y177048D01*
X75707Y177217D01*
X75744Y177384D01*
X75748Y177460D01*
X75761Y177535D01*
X75762Y177706D01*
X75771Y177876D01*
X75763Y177952D01*
X75764Y178028D01*
X75737Y178197D01*
X75719Y178367D01*
X75699Y178440D01*
X75687Y178515D01*
X75634Y178678D01*
X75588Y178842D01*
X75557Y178912D01*
X75533Y178984D01*
X75454Y179135D01*
X75383Y179291D01*
X75340Y179354D01*
X75305Y179422D01*
X75239Y179504D01*
X75107Y179700D01*
X74945Y179872D01*
X74880Y179955D01*
X71529Y183306D01*
X69595Y187974D01*
X69595Y193026D01*
X71749Y198226D01*
X71804Y198398D01*
X71867Y198567D01*
X71880Y198632D01*
X71900Y198695D01*
X71927Y198874D01*
X71962Y199051D01*
X71964Y199117D01*
X71974Y199183D01*
X71972Y199364D01*
X71977Y199544D01*
X71969Y199610D01*
X71968Y199677D01*
X71936Y199854D01*
X71913Y200033D01*
X71894Y200097D01*
X71882Y200162D01*
X71822Y200332D01*
X71770Y200506D01*
X71741Y200565D01*
X71719Y200628D01*
X71633Y200787D01*
X71553Y200949D01*
X71515Y201003D01*
X71483Y201061D01*
X71372Y201204D01*
X71268Y201351D01*
X71221Y201398D01*
X71180Y201451D01*
X71048Y201574D01*
X70921Y201702D01*
X70867Y201741D01*
X70819Y201786D01*
X70668Y201886D01*
X70522Y201992D01*
X70463Y202022D01*
X70408Y202059D01*
X70243Y202133D01*
X70082Y202215D01*
X70019Y202235D01*
X69958Y202262D01*
X69784Y202309D01*
X69611Y202363D01*
X69559Y202369D01*
X69481Y202390D01*
X68991Y202439D01*
X68957Y202437D01*
X68934Y202439D01*
X13208Y202439D01*
X13132Y202433D01*
X13056Y202435D01*
X12887Y202413D01*
X12716Y202399D01*
X12642Y202381D01*
X12567Y202371D01*
X12403Y202322D01*
X12237Y202281D01*
X12168Y202251D01*
X12094Y202229D01*
X11941Y202153D01*
X11784Y202086D01*
X11720Y202045D01*
X11651Y202012D01*
X11512Y201913D01*
X11368Y201821D01*
X11311Y201770D01*
X11249Y201726D01*
X11128Y201606D01*
X11000Y201492D01*
X10952Y201433D01*
X10898Y201379D01*
X10797Y201241D01*
X10690Y201108D01*
X10653Y201042D01*
X10608Y200981D01*
X10531Y200828D01*
X10446Y200680D01*
X10420Y200608D01*
X10385Y200540D01*
X10334Y200377D01*
X10275Y200217D01*
X10260Y200142D01*
X10237Y200070D01*
X10225Y199965D01*
X10180Y199733D01*
X10173Y199497D01*
X10161Y199392D01*
X10161Y13208D01*
X10167Y13132D01*
X10165Y13056D01*
X10187Y12887D01*
X10201Y12716D01*
X10219Y12642D01*
X10229Y12567D01*
X10278Y12403D01*
X10319Y12237D01*
X10349Y12168D01*
X10371Y12094D01*
X10447Y11941D01*
X10514Y11784D01*
X10555Y11720D01*
X10588Y11651D01*
X10687Y11512D01*
X10779Y11368D01*
X10830Y11311D01*
X10874Y11249D01*
X10994Y11128D01*
X11108Y11000D01*
X11167Y10952D01*
X11221Y10898D01*
X11359Y10797D01*
X11492Y10690D01*
X11558Y10653D01*
X11619Y10608D01*
X11772Y10531D01*
X11920Y10446D01*
X11992Y10420D01*
X12060Y10385D01*
X12223Y10334D01*
X12383Y10275D01*
X12458Y10260D01*
X12530Y10237D01*
X12635Y10225D01*
X12867Y10180D01*
X13103Y10173D01*
X13208Y10161D01*
X66548Y10161D01*
X66624Y10167D01*
G37*
%LPC*%
G36*
X327674Y145795D02*
X327674Y145795D01*
X323006Y147729D01*
X319433Y151302D01*
X317499Y155970D01*
X317499Y174230D01*
X319433Y178898D01*
X323006Y182471D01*
X327674Y184405D01*
X332726Y184405D01*
X337394Y182471D01*
X340745Y179120D01*
X340803Y179071D01*
X340856Y179015D01*
X340991Y178911D01*
X341121Y178801D01*
X341186Y178761D01*
X341247Y178715D01*
X341397Y178634D01*
X341544Y178546D01*
X341615Y178518D01*
X341682Y178482D01*
X341843Y178426D01*
X342002Y178363D01*
X342076Y178347D01*
X342148Y178322D01*
X342317Y178293D01*
X342484Y178256D01*
X342560Y178252D01*
X342635Y178239D01*
X342806Y178238D01*
X342976Y178229D01*
X343052Y178237D01*
X343128Y178236D01*
X343297Y178263D01*
X343467Y178281D01*
X343540Y178301D01*
X343615Y178313D01*
X343778Y178366D01*
X343942Y178412D01*
X344012Y178443D01*
X344084Y178467D01*
X344235Y178546D01*
X344391Y178617D01*
X344454Y178660D01*
X344522Y178695D01*
X344604Y178761D01*
X344800Y178893D01*
X344972Y179055D01*
X345055Y179120D01*
X348406Y182471D01*
X353074Y184405D01*
X358126Y184405D01*
X362794Y182471D01*
X366145Y179120D01*
X366203Y179071D01*
X366256Y179015D01*
X366391Y178911D01*
X366521Y178801D01*
X366586Y178761D01*
X366647Y178715D01*
X366797Y178634D01*
X366944Y178546D01*
X367015Y178518D01*
X367082Y178482D01*
X367243Y178426D01*
X367402Y178363D01*
X367476Y178347D01*
X367548Y178322D01*
X367717Y178293D01*
X367884Y178256D01*
X367960Y178252D01*
X368035Y178239D01*
X368206Y178238D01*
X368376Y178229D01*
X368452Y178237D01*
X368528Y178236D01*
X368697Y178263D01*
X368867Y178281D01*
X368940Y178301D01*
X369015Y178313D01*
X369178Y178366D01*
X369342Y178412D01*
X369412Y178443D01*
X369484Y178467D01*
X369635Y178546D01*
X369791Y178617D01*
X369854Y178660D01*
X369922Y178695D01*
X370004Y178761D01*
X370200Y178893D01*
X370372Y179055D01*
X370455Y179120D01*
X373806Y182471D01*
X378474Y184405D01*
X383526Y184405D01*
X388194Y182471D01*
X391545Y179120D01*
X391603Y179071D01*
X391656Y179015D01*
X391791Y178911D01*
X391921Y178801D01*
X391986Y178761D01*
X392047Y178715D01*
X392197Y178634D01*
X392344Y178546D01*
X392415Y178518D01*
X392482Y178482D01*
X392643Y178426D01*
X392802Y178363D01*
X392876Y178347D01*
X392948Y178322D01*
X393117Y178293D01*
X393284Y178256D01*
X393360Y178252D01*
X393435Y178239D01*
X393606Y178238D01*
X393776Y178229D01*
X393852Y178237D01*
X393928Y178236D01*
X394097Y178263D01*
X394267Y178281D01*
X394340Y178301D01*
X394415Y178313D01*
X394578Y178366D01*
X394742Y178412D01*
X394812Y178443D01*
X394884Y178467D01*
X395035Y178546D01*
X395191Y178617D01*
X395254Y178660D01*
X395322Y178695D01*
X395404Y178761D01*
X395600Y178893D01*
X395772Y179055D01*
X395855Y179120D01*
X399206Y182471D01*
X403874Y184405D01*
X408926Y184405D01*
X413594Y182471D01*
X416945Y179120D01*
X417003Y179071D01*
X417056Y179015D01*
X417191Y178911D01*
X417321Y178801D01*
X417386Y178761D01*
X417447Y178715D01*
X417597Y178634D01*
X417744Y178546D01*
X417815Y178518D01*
X417882Y178482D01*
X418043Y178426D01*
X418202Y178363D01*
X418276Y178347D01*
X418348Y178322D01*
X418517Y178293D01*
X418684Y178256D01*
X418760Y178252D01*
X418835Y178239D01*
X419006Y178238D01*
X419176Y178229D01*
X419252Y178237D01*
X419328Y178236D01*
X419497Y178263D01*
X419667Y178281D01*
X419740Y178301D01*
X419815Y178313D01*
X419978Y178366D01*
X420142Y178412D01*
X420212Y178443D01*
X420284Y178467D01*
X420435Y178546D01*
X420591Y178617D01*
X420654Y178660D01*
X420722Y178695D01*
X420804Y178761D01*
X421000Y178893D01*
X421172Y179055D01*
X421255Y179120D01*
X424606Y182471D01*
X429274Y184405D01*
X434326Y184405D01*
X438994Y182471D01*
X442345Y179120D01*
X442403Y179071D01*
X442456Y179015D01*
X442591Y178911D01*
X442721Y178801D01*
X442786Y178761D01*
X442847Y178715D01*
X442997Y178634D01*
X443144Y178546D01*
X443215Y178518D01*
X443282Y178482D01*
X443443Y178426D01*
X443602Y178363D01*
X443676Y178347D01*
X443748Y178322D01*
X443917Y178293D01*
X444084Y178256D01*
X444160Y178252D01*
X444235Y178239D01*
X444406Y178238D01*
X444576Y178229D01*
X444652Y178237D01*
X444728Y178236D01*
X444897Y178263D01*
X445067Y178281D01*
X445140Y178301D01*
X445215Y178313D01*
X445378Y178366D01*
X445542Y178412D01*
X445612Y178443D01*
X445684Y178467D01*
X445835Y178546D01*
X445991Y178617D01*
X446054Y178660D01*
X446122Y178695D01*
X446204Y178761D01*
X446400Y178893D01*
X446572Y179055D01*
X446655Y179120D01*
X450006Y182471D01*
X454674Y184405D01*
X459726Y184405D01*
X464394Y182471D01*
X467745Y179120D01*
X467803Y179071D01*
X467856Y179015D01*
X467991Y178911D01*
X468121Y178801D01*
X468186Y178761D01*
X468247Y178715D01*
X468397Y178634D01*
X468544Y178546D01*
X468615Y178518D01*
X468682Y178482D01*
X468843Y178426D01*
X469002Y178363D01*
X469076Y178347D01*
X469148Y178322D01*
X469317Y178293D01*
X469484Y178256D01*
X469560Y178252D01*
X469635Y178239D01*
X469806Y178238D01*
X469976Y178229D01*
X470052Y178237D01*
X470128Y178236D01*
X470297Y178263D01*
X470467Y178281D01*
X470540Y178301D01*
X470615Y178313D01*
X470778Y178366D01*
X470942Y178412D01*
X471012Y178443D01*
X471084Y178467D01*
X471235Y178546D01*
X471391Y178617D01*
X471454Y178660D01*
X471522Y178695D01*
X471604Y178761D01*
X471800Y178893D01*
X471972Y179055D01*
X472055Y179120D01*
X475406Y182471D01*
X480074Y184405D01*
X485126Y184405D01*
X489794Y182471D01*
X493367Y178898D01*
X495301Y174230D01*
X495301Y155970D01*
X493367Y151302D01*
X489794Y147729D01*
X485126Y145795D01*
X480074Y145795D01*
X475406Y147729D01*
X472055Y151080D01*
X471997Y151129D01*
X471945Y151185D01*
X471809Y151288D01*
X471679Y151399D01*
X471613Y151439D01*
X471553Y151485D01*
X471403Y151566D01*
X471256Y151654D01*
X471186Y151682D01*
X471118Y151718D01*
X470957Y151774D01*
X470798Y151837D01*
X470724Y151853D01*
X470652Y151878D01*
X470483Y151907D01*
X470317Y151944D01*
X470240Y151948D01*
X470165Y151961D01*
X469994Y151962D01*
X469824Y151971D01*
X469748Y151963D01*
X469672Y151964D01*
X469503Y151937D01*
X469333Y151919D01*
X469260Y151899D01*
X469185Y151887D01*
X469022Y151834D01*
X468858Y151788D01*
X468788Y151757D01*
X468716Y151733D01*
X468564Y151654D01*
X468409Y151583D01*
X468346Y151540D01*
X468278Y151505D01*
X468196Y151439D01*
X468000Y151307D01*
X467827Y151145D01*
X467745Y151080D01*
X464394Y147729D01*
X459726Y145795D01*
X454674Y145795D01*
X450006Y147729D01*
X446655Y151080D01*
X446597Y151129D01*
X446545Y151185D01*
X446409Y151288D01*
X446279Y151399D01*
X446213Y151439D01*
X446153Y151485D01*
X446003Y151566D01*
X445856Y151654D01*
X445786Y151682D01*
X445718Y151718D01*
X445557Y151774D01*
X445398Y151837D01*
X445324Y151853D01*
X445252Y151878D01*
X445083Y151907D01*
X444917Y151944D01*
X444840Y151948D01*
X444765Y151961D01*
X444594Y151962D01*
X444424Y151971D01*
X444348Y151963D01*
X444272Y151964D01*
X444103Y151937D01*
X443933Y151919D01*
X443860Y151899D01*
X443785Y151887D01*
X443622Y151834D01*
X443458Y151788D01*
X443388Y151757D01*
X443316Y151733D01*
X443164Y151654D01*
X443009Y151583D01*
X442946Y151540D01*
X442878Y151505D01*
X442796Y151439D01*
X442600Y151307D01*
X442427Y151145D01*
X442345Y151080D01*
X438994Y147729D01*
X434326Y145795D01*
X429274Y145795D01*
X424606Y147729D01*
X421255Y151080D01*
X421197Y151129D01*
X421145Y151185D01*
X421009Y151288D01*
X420879Y151399D01*
X420813Y151439D01*
X420753Y151485D01*
X420603Y151566D01*
X420456Y151654D01*
X420386Y151682D01*
X420318Y151718D01*
X420157Y151774D01*
X419998Y151837D01*
X419924Y151853D01*
X419852Y151878D01*
X419683Y151907D01*
X419517Y151944D01*
X419440Y151948D01*
X419365Y151961D01*
X419194Y151962D01*
X419024Y151971D01*
X418948Y151963D01*
X418872Y151964D01*
X418703Y151937D01*
X418533Y151919D01*
X418460Y151899D01*
X418385Y151887D01*
X418222Y151834D01*
X418058Y151788D01*
X417988Y151757D01*
X417916Y151733D01*
X417764Y151654D01*
X417609Y151583D01*
X417546Y151540D01*
X417478Y151505D01*
X417396Y151439D01*
X417200Y151307D01*
X417027Y151145D01*
X416945Y151080D01*
X413594Y147729D01*
X408926Y145795D01*
X403874Y145795D01*
X399206Y147729D01*
X395855Y151080D01*
X395797Y151129D01*
X395745Y151185D01*
X395609Y151288D01*
X395479Y151399D01*
X395413Y151439D01*
X395353Y151485D01*
X395203Y151566D01*
X395056Y151654D01*
X394986Y151682D01*
X394918Y151718D01*
X394757Y151774D01*
X394598Y151837D01*
X394524Y151853D01*
X394452Y151878D01*
X394283Y151907D01*
X394117Y151944D01*
X394040Y151948D01*
X393965Y151961D01*
X393794Y151962D01*
X393624Y151971D01*
X393548Y151963D01*
X393472Y151964D01*
X393303Y151937D01*
X393133Y151919D01*
X393060Y151899D01*
X392985Y151887D01*
X392822Y151834D01*
X392658Y151788D01*
X392588Y151757D01*
X392516Y151733D01*
X392364Y151654D01*
X392209Y151583D01*
X392146Y151540D01*
X392078Y151505D01*
X391996Y151439D01*
X391800Y151307D01*
X391627Y151145D01*
X391545Y151080D01*
X388194Y147729D01*
X383526Y145795D01*
X378474Y145795D01*
X373806Y147729D01*
X370455Y151080D01*
X370397Y151129D01*
X370345Y151185D01*
X370209Y151288D01*
X370079Y151399D01*
X370013Y151439D01*
X369953Y151485D01*
X369803Y151566D01*
X369656Y151654D01*
X369586Y151682D01*
X369518Y151718D01*
X369357Y151774D01*
X369198Y151837D01*
X369124Y151853D01*
X369052Y151878D01*
X368883Y151907D01*
X368717Y151944D01*
X368640Y151948D01*
X368565Y151961D01*
X368394Y151962D01*
X368224Y151971D01*
X368148Y151963D01*
X368072Y151964D01*
X367903Y151937D01*
X367733Y151919D01*
X367660Y151899D01*
X367585Y151887D01*
X367422Y151834D01*
X367258Y151788D01*
X367188Y151757D01*
X367116Y151733D01*
X366964Y151654D01*
X366809Y151583D01*
X366746Y151540D01*
X366678Y151505D01*
X366596Y151439D01*
X366400Y151307D01*
X366227Y151145D01*
X366145Y151080D01*
X362794Y147729D01*
X358126Y145795D01*
X353074Y145795D01*
X348406Y147729D01*
X345055Y151080D01*
X344997Y151129D01*
X344945Y151185D01*
X344809Y151288D01*
X344679Y151399D01*
X344613Y151439D01*
X344553Y151485D01*
X344403Y151566D01*
X344256Y151654D01*
X344186Y151682D01*
X344118Y151718D01*
X343957Y151774D01*
X343798Y151837D01*
X343724Y151853D01*
X343652Y151878D01*
X343483Y151907D01*
X343317Y151944D01*
X343240Y151948D01*
X343165Y151961D01*
X342994Y151962D01*
X342824Y151971D01*
X342748Y151963D01*
X342672Y151964D01*
X342503Y151937D01*
X342333Y151919D01*
X342260Y151899D01*
X342185Y151887D01*
X342022Y151834D01*
X341858Y151788D01*
X341788Y151757D01*
X341716Y151733D01*
X341564Y151654D01*
X341409Y151583D01*
X341346Y151540D01*
X341278Y151505D01*
X341196Y151439D01*
X341000Y151307D01*
X340827Y151145D01*
X340745Y151080D01*
X337394Y147729D01*
X332726Y145795D01*
X327674Y145795D01*
G37*
%LPD*%
G36*
X653267Y61862D02*
X653267Y61862D01*
X653344Y61875D01*
X653554Y61903D01*
X658866Y63058D01*
X658941Y63083D01*
X659144Y63140D01*
X664237Y65040D01*
X664308Y65074D01*
X664501Y65160D01*
X669272Y67765D01*
X669337Y67810D01*
X669516Y67922D01*
X673867Y71180D01*
X673925Y71233D01*
X674087Y71370D01*
X677930Y75214D01*
X677980Y75274D01*
X678120Y75433D01*
X681378Y79784D01*
X681419Y79852D01*
X681535Y80028D01*
X684140Y84799D01*
X684170Y84871D01*
X684260Y85063D01*
X686160Y90156D01*
X686180Y90232D01*
X686242Y90434D01*
X687397Y95746D01*
X687406Y95825D01*
X687438Y96033D01*
X687826Y101455D01*
X687824Y101545D01*
X687831Y101636D01*
X687818Y101746D01*
X687815Y101858D01*
X687795Y101946D01*
X687784Y102035D01*
X687749Y102141D01*
X687724Y102250D01*
X687687Y102332D01*
X687659Y102418D01*
X687604Y102515D01*
X687559Y102617D01*
X687506Y102690D01*
X687461Y102769D01*
X687388Y102853D01*
X687323Y102944D01*
X687257Y103005D01*
X687198Y103074D01*
X687110Y103142D01*
X687029Y103218D01*
X686951Y103265D01*
X686880Y103320D01*
X686780Y103370D01*
X686685Y103428D01*
X686601Y103459D01*
X686520Y103500D01*
X686412Y103529D01*
X686307Y103567D01*
X686218Y103581D01*
X686131Y103604D01*
X685993Y103615D01*
X685909Y103628D01*
X685862Y103626D01*
X685800Y103631D01*
X609600Y103631D01*
X609510Y103622D01*
X609420Y103623D01*
X609310Y103602D01*
X609199Y103591D01*
X609113Y103565D01*
X609024Y103548D01*
X608921Y103506D01*
X608814Y103473D01*
X608735Y103430D01*
X608651Y103396D01*
X608558Y103335D01*
X608460Y103281D01*
X608391Y103224D01*
X608316Y103174D01*
X608237Y103095D01*
X608151Y103024D01*
X608095Y102953D01*
X608031Y102889D01*
X607969Y102797D01*
X607899Y102710D01*
X607857Y102630D01*
X607807Y102555D01*
X607765Y102451D01*
X607713Y102353D01*
X607688Y102266D01*
X607654Y102182D01*
X607633Y102073D01*
X607602Y101966D01*
X607595Y101875D01*
X607577Y101787D01*
X607576Y101648D01*
X607569Y101564D01*
X607575Y101517D01*
X607574Y101455D01*
X607962Y96033D01*
X607975Y95956D01*
X608003Y95746D01*
X609158Y90434D01*
X609183Y90359D01*
X609240Y90156D01*
X611140Y85063D01*
X611156Y85030D01*
X611157Y85026D01*
X611163Y85015D01*
X611174Y84992D01*
X611260Y84799D01*
X613865Y80028D01*
X613910Y79963D01*
X614022Y79784D01*
X617280Y75433D01*
X617333Y75375D01*
X617470Y75214D01*
X621314Y71370D01*
X621374Y71320D01*
X621533Y71180D01*
X625884Y67922D01*
X625946Y67885D01*
X625961Y67873D01*
X625973Y67867D01*
X626128Y67765D01*
X630899Y65160D01*
X630971Y65130D01*
X631163Y65040D01*
X636256Y63140D01*
X636332Y63120D01*
X636534Y63058D01*
X641846Y61903D01*
X641925Y61894D01*
X642133Y61862D01*
X647555Y61474D01*
X647634Y61476D01*
X647845Y61474D01*
X653267Y61862D01*
G37*
G36*
X170667Y61862D02*
X170667Y61862D01*
X170744Y61875D01*
X170954Y61903D01*
X176266Y63058D01*
X176341Y63083D01*
X176544Y63140D01*
X181637Y65040D01*
X181708Y65074D01*
X181901Y65160D01*
X186672Y67765D01*
X186737Y67810D01*
X186916Y67922D01*
X191267Y71180D01*
X191325Y71233D01*
X191487Y71370D01*
X195330Y75214D01*
X195380Y75274D01*
X195520Y75433D01*
X198778Y79784D01*
X198819Y79852D01*
X198935Y80028D01*
X201540Y84799D01*
X201570Y84871D01*
X201660Y85063D01*
X203560Y90156D01*
X203580Y90232D01*
X203642Y90434D01*
X204797Y95746D01*
X204806Y95825D01*
X204838Y96033D01*
X205226Y101455D01*
X205224Y101545D01*
X205231Y101636D01*
X205218Y101746D01*
X205215Y101858D01*
X205195Y101946D01*
X205184Y102035D01*
X205149Y102141D01*
X205124Y102250D01*
X205087Y102332D01*
X205059Y102418D01*
X205004Y102515D01*
X204959Y102617D01*
X204906Y102690D01*
X204861Y102769D01*
X204788Y102853D01*
X204723Y102944D01*
X204657Y103005D01*
X204598Y103074D01*
X204510Y103142D01*
X204429Y103218D01*
X204351Y103265D01*
X204280Y103320D01*
X204180Y103370D01*
X204085Y103428D01*
X204001Y103459D01*
X203920Y103500D01*
X203812Y103529D01*
X203707Y103567D01*
X203618Y103581D01*
X203531Y103604D01*
X203393Y103615D01*
X203309Y103628D01*
X203262Y103626D01*
X203200Y103631D01*
X127000Y103631D01*
X126910Y103622D01*
X126820Y103623D01*
X126710Y103602D01*
X126599Y103591D01*
X126513Y103565D01*
X126424Y103548D01*
X126321Y103506D01*
X126214Y103473D01*
X126135Y103430D01*
X126051Y103396D01*
X125958Y103335D01*
X125860Y103281D01*
X125791Y103224D01*
X125716Y103174D01*
X125637Y103095D01*
X125551Y103024D01*
X125495Y102953D01*
X125431Y102889D01*
X125369Y102797D01*
X125299Y102710D01*
X125257Y102630D01*
X125207Y102555D01*
X125165Y102451D01*
X125113Y102353D01*
X125088Y102266D01*
X125054Y102182D01*
X125033Y102073D01*
X125002Y101966D01*
X124995Y101875D01*
X124977Y101787D01*
X124976Y101648D01*
X124969Y101564D01*
X124975Y101517D01*
X124974Y101455D01*
X125362Y96033D01*
X125375Y95956D01*
X125403Y95746D01*
X126558Y90434D01*
X126583Y90359D01*
X126640Y90156D01*
X128540Y85063D01*
X128556Y85030D01*
X128557Y85026D01*
X128563Y85015D01*
X128574Y84992D01*
X128660Y84799D01*
X131265Y80028D01*
X131310Y79963D01*
X131422Y79784D01*
X134680Y75433D01*
X134733Y75375D01*
X134870Y75214D01*
X138714Y71370D01*
X138774Y71320D01*
X138933Y71180D01*
X143284Y67922D01*
X143346Y67885D01*
X143361Y67873D01*
X143373Y67867D01*
X143528Y67765D01*
X148299Y65160D01*
X148371Y65130D01*
X148563Y65040D01*
X153656Y63140D01*
X153732Y63120D01*
X153934Y63058D01*
X159246Y61903D01*
X159325Y61894D01*
X159533Y61862D01*
X164955Y61474D01*
X165034Y61476D01*
X165245Y61474D01*
X170667Y61862D01*
G37*
G36*
X685890Y112278D02*
X685890Y112278D01*
X685980Y112277D01*
X686090Y112298D01*
X686201Y112309D01*
X686287Y112335D01*
X686376Y112352D01*
X686479Y112394D01*
X686586Y112427D01*
X686665Y112470D01*
X686749Y112504D01*
X686842Y112565D01*
X686940Y112619D01*
X687009Y112676D01*
X687084Y112726D01*
X687163Y112805D01*
X687249Y112876D01*
X687305Y112947D01*
X687370Y113011D01*
X687431Y113103D01*
X687501Y113190D01*
X687543Y113270D01*
X687593Y113345D01*
X687635Y113449D01*
X687687Y113547D01*
X687712Y113634D01*
X687746Y113718D01*
X687767Y113827D01*
X687798Y113934D01*
X687805Y114025D01*
X687823Y114113D01*
X687824Y114252D01*
X687831Y114336D01*
X687825Y114383D01*
X687826Y114445D01*
X687438Y119867D01*
X687425Y119944D01*
X687397Y120154D01*
X686242Y125466D01*
X686217Y125541D01*
X686160Y125744D01*
X684260Y130837D01*
X684226Y130908D01*
X684140Y131101D01*
X681535Y135872D01*
X681490Y135937D01*
X681378Y136116D01*
X678120Y140467D01*
X678067Y140525D01*
X677930Y140687D01*
X674087Y144530D01*
X674026Y144580D01*
X673867Y144720D01*
X669516Y147978D01*
X669448Y148019D01*
X669272Y148135D01*
X664501Y150740D01*
X664429Y150770D01*
X664237Y150860D01*
X659144Y152760D01*
X659068Y152780D01*
X658866Y152842D01*
X653554Y153997D01*
X653475Y154006D01*
X653267Y154038D01*
X647845Y154426D01*
X647766Y154424D01*
X647555Y154426D01*
X642133Y154038D01*
X642056Y154025D01*
X641846Y153997D01*
X636534Y152842D01*
X636459Y152817D01*
X636256Y152760D01*
X631163Y150860D01*
X631092Y150826D01*
X630899Y150740D01*
X626128Y148135D01*
X626063Y148090D01*
X625884Y147978D01*
X621533Y144720D01*
X621475Y144667D01*
X621314Y144530D01*
X617470Y140687D01*
X617420Y140626D01*
X617280Y140467D01*
X614022Y136116D01*
X613982Y136048D01*
X613865Y135872D01*
X611260Y131101D01*
X611230Y131029D01*
X611140Y130837D01*
X609240Y125744D01*
X609220Y125668D01*
X609158Y125466D01*
X608003Y120154D01*
X607994Y120075D01*
X607962Y119867D01*
X607574Y114445D01*
X607576Y114355D01*
X607569Y114264D01*
X607582Y114154D01*
X607585Y114042D01*
X607605Y113954D01*
X607616Y113865D01*
X607651Y113759D01*
X607676Y113650D01*
X607713Y113568D01*
X607741Y113482D01*
X607796Y113385D01*
X607842Y113283D01*
X607894Y113210D01*
X607939Y113131D01*
X608012Y113047D01*
X608077Y112956D01*
X608143Y112895D01*
X608202Y112827D01*
X608290Y112758D01*
X608372Y112682D01*
X608449Y112635D01*
X608520Y112580D01*
X608620Y112530D01*
X608715Y112472D01*
X608799Y112441D01*
X608881Y112400D01*
X608988Y112371D01*
X609093Y112333D01*
X609182Y112319D01*
X609269Y112296D01*
X609407Y112285D01*
X609491Y112272D01*
X609538Y112274D01*
X609600Y112269D01*
X685800Y112269D01*
X685890Y112278D01*
G37*
G36*
X203290Y112278D02*
X203290Y112278D01*
X203380Y112277D01*
X203490Y112298D01*
X203601Y112309D01*
X203687Y112335D01*
X203776Y112352D01*
X203879Y112394D01*
X203986Y112427D01*
X204065Y112470D01*
X204149Y112504D01*
X204242Y112565D01*
X204340Y112619D01*
X204409Y112676D01*
X204484Y112726D01*
X204563Y112805D01*
X204649Y112876D01*
X204705Y112947D01*
X204770Y113011D01*
X204831Y113103D01*
X204901Y113190D01*
X204943Y113270D01*
X204993Y113345D01*
X205035Y113449D01*
X205087Y113547D01*
X205112Y113634D01*
X205146Y113718D01*
X205167Y113827D01*
X205198Y113934D01*
X205205Y114025D01*
X205223Y114113D01*
X205224Y114252D01*
X205231Y114336D01*
X205225Y114383D01*
X205226Y114445D01*
X204838Y119867D01*
X204825Y119944D01*
X204797Y120154D01*
X203642Y125466D01*
X203617Y125541D01*
X203560Y125744D01*
X201660Y130837D01*
X201626Y130908D01*
X201540Y131101D01*
X198935Y135872D01*
X198890Y135937D01*
X198778Y136116D01*
X195520Y140467D01*
X195467Y140525D01*
X195330Y140687D01*
X191487Y144530D01*
X191426Y144580D01*
X191267Y144720D01*
X186916Y147978D01*
X186848Y148019D01*
X186672Y148135D01*
X181901Y150740D01*
X181829Y150770D01*
X181637Y150860D01*
X176544Y152760D01*
X176468Y152780D01*
X176266Y152842D01*
X170954Y153997D01*
X170875Y154006D01*
X170667Y154038D01*
X165245Y154426D01*
X165166Y154424D01*
X164955Y154426D01*
X159533Y154038D01*
X159456Y154025D01*
X159246Y153997D01*
X153934Y152842D01*
X153859Y152817D01*
X153656Y152760D01*
X148563Y150860D01*
X148492Y150826D01*
X148299Y150740D01*
X143528Y148135D01*
X143463Y148090D01*
X143284Y147978D01*
X138933Y144720D01*
X138875Y144667D01*
X138714Y144530D01*
X134870Y140687D01*
X134820Y140626D01*
X134680Y140467D01*
X131422Y136116D01*
X131382Y136048D01*
X131265Y135872D01*
X128660Y131101D01*
X128630Y131029D01*
X128540Y130837D01*
X126640Y125744D01*
X126620Y125668D01*
X126558Y125466D01*
X125403Y120154D01*
X125394Y120075D01*
X125362Y119867D01*
X124974Y114445D01*
X124976Y114355D01*
X124969Y114264D01*
X124982Y114154D01*
X124985Y114042D01*
X125005Y113954D01*
X125016Y113865D01*
X125051Y113759D01*
X125076Y113650D01*
X125113Y113568D01*
X125141Y113482D01*
X125196Y113385D01*
X125242Y113283D01*
X125294Y113210D01*
X125339Y113131D01*
X125412Y113047D01*
X125477Y112956D01*
X125543Y112895D01*
X125602Y112827D01*
X125690Y112758D01*
X125772Y112682D01*
X125849Y112635D01*
X125920Y112580D01*
X126020Y112530D01*
X126115Y112472D01*
X126199Y112441D01*
X126281Y112400D01*
X126388Y112371D01*
X126493Y112333D01*
X126582Y112319D01*
X126669Y112296D01*
X126807Y112285D01*
X126891Y112272D01*
X126938Y112274D01*
X127000Y112269D01*
X203200Y112269D01*
X203290Y112278D01*
G37*
G36*
X748668Y10167D02*
X748668Y10167D01*
X748744Y10165D01*
X748913Y10187D01*
X749084Y10201D01*
X749158Y10219D01*
X749233Y10229D01*
X749397Y10278D01*
X749563Y10319D01*
X749632Y10349D01*
X749706Y10371D01*
X749859Y10447D01*
X750016Y10514D01*
X750080Y10555D01*
X750149Y10588D01*
X750288Y10687D01*
X750432Y10779D01*
X750489Y10830D01*
X750551Y10874D01*
X750672Y10994D01*
X750800Y11108D01*
X750848Y11167D01*
X750902Y11221D01*
X751003Y11359D01*
X751110Y11492D01*
X751147Y11558D01*
X751192Y11619D01*
X751269Y11772D01*
X751354Y11920D01*
X751380Y11992D01*
X751415Y12060D01*
X751466Y12223D01*
X751525Y12383D01*
X751540Y12458D01*
X751563Y12530D01*
X751575Y12635D01*
X751620Y12867D01*
X751627Y13103D01*
X751639Y13208D01*
X751639Y199392D01*
X751633Y199468D01*
X751635Y199544D01*
X751613Y199713D01*
X751599Y199884D01*
X751581Y199958D01*
X751571Y200033D01*
X751522Y200197D01*
X751481Y200363D01*
X751451Y200432D01*
X751429Y200506D01*
X751353Y200659D01*
X751286Y200816D01*
X751245Y200880D01*
X751212Y200949D01*
X751113Y201088D01*
X751021Y201232D01*
X750970Y201289D01*
X750926Y201351D01*
X750806Y201472D01*
X750692Y201600D01*
X750633Y201648D01*
X750579Y201702D01*
X750441Y201803D01*
X750308Y201910D01*
X750242Y201947D01*
X750181Y201992D01*
X750028Y202069D01*
X749880Y202154D01*
X749808Y202180D01*
X749740Y202215D01*
X749577Y202266D01*
X749417Y202325D01*
X749342Y202340D01*
X749270Y202363D01*
X749165Y202375D01*
X748933Y202420D01*
X748697Y202427D01*
X748592Y202439D01*
X745982Y202439D01*
X745802Y202425D01*
X745622Y202418D01*
X745557Y202405D01*
X745490Y202399D01*
X745315Y202356D01*
X745138Y202320D01*
X745076Y202297D01*
X745011Y202281D01*
X744845Y202209D01*
X744677Y202146D01*
X744619Y202112D01*
X744558Y202086D01*
X744406Y201989D01*
X744250Y201899D01*
X744198Y201857D01*
X744142Y201821D01*
X744008Y201701D01*
X743868Y201586D01*
X743824Y201537D01*
X743774Y201492D01*
X743661Y201352D01*
X743541Y201217D01*
X743506Y201160D01*
X743464Y201108D01*
X743375Y200952D01*
X743279Y200799D01*
X743253Y200738D01*
X743220Y200680D01*
X743157Y200510D01*
X743087Y200344D01*
X743072Y200280D01*
X743049Y200217D01*
X743014Y200040D01*
X742972Y199865D01*
X742967Y199798D01*
X742954Y199733D01*
X742948Y199553D01*
X742935Y199373D01*
X742941Y199306D01*
X742939Y199240D01*
X742962Y199061D01*
X742978Y198881D01*
X742992Y198831D01*
X743003Y198751D01*
X743145Y198279D01*
X743160Y198248D01*
X743167Y198226D01*
X745237Y193228D01*
X745237Y187772D01*
X743148Y182730D01*
X740373Y179955D01*
X740324Y179897D01*
X740268Y179844D01*
X740164Y179709D01*
X740054Y179579D01*
X740014Y179514D01*
X739968Y179453D01*
X739887Y179303D01*
X739799Y179156D01*
X739771Y179085D01*
X739735Y179018D01*
X739679Y178857D01*
X739616Y178698D01*
X739600Y178624D01*
X739575Y178552D01*
X739546Y178383D01*
X739509Y178216D01*
X739505Y178140D01*
X739492Y178065D01*
X739491Y177894D01*
X739482Y177724D01*
X739490Y177648D01*
X739489Y177572D01*
X739516Y177403D01*
X739534Y177233D01*
X739554Y177160D01*
X739566Y177085D01*
X739619Y176922D01*
X739664Y176758D01*
X739696Y176688D01*
X739720Y176616D01*
X739799Y176465D01*
X739870Y176309D01*
X739913Y176246D01*
X739948Y176178D01*
X740014Y176096D01*
X740146Y175900D01*
X740220Y175821D01*
X740234Y175801D01*
X740312Y175722D01*
X740373Y175645D01*
X743149Y172870D01*
X745237Y167828D01*
X745237Y162372D01*
X743148Y157330D01*
X740373Y154555D01*
X740324Y154497D01*
X740268Y154444D01*
X740164Y154309D01*
X740054Y154179D01*
X740014Y154114D01*
X739968Y154053D01*
X739887Y153903D01*
X739799Y153756D01*
X739771Y153685D01*
X739735Y153618D01*
X739679Y153457D01*
X739616Y153298D01*
X739600Y153224D01*
X739575Y153152D01*
X739546Y152983D01*
X739509Y152816D01*
X739505Y152740D01*
X739492Y152665D01*
X739491Y152494D01*
X739482Y152324D01*
X739490Y152248D01*
X739489Y152172D01*
X739516Y152003D01*
X739534Y151833D01*
X739554Y151760D01*
X739566Y151685D01*
X739619Y151522D01*
X739664Y151358D01*
X739696Y151288D01*
X739720Y151216D01*
X739799Y151065D01*
X739870Y150909D01*
X739913Y150846D01*
X739948Y150778D01*
X740014Y150696D01*
X740146Y150500D01*
X740307Y150328D01*
X740373Y150245D01*
X743149Y147470D01*
X745237Y142428D01*
X745237Y136972D01*
X743148Y131930D01*
X740373Y129155D01*
X740324Y129097D01*
X740268Y129044D01*
X740164Y128909D01*
X740054Y128779D01*
X740014Y128714D01*
X739968Y128653D01*
X739887Y128503D01*
X739799Y128356D01*
X739771Y128285D01*
X739735Y128218D01*
X739679Y128057D01*
X739616Y127898D01*
X739600Y127824D01*
X739575Y127752D01*
X739546Y127583D01*
X739509Y127416D01*
X739505Y127340D01*
X739492Y127265D01*
X739491Y127094D01*
X739482Y126924D01*
X739490Y126848D01*
X739489Y126772D01*
X739516Y126603D01*
X739534Y126433D01*
X739554Y126360D01*
X739566Y126285D01*
X739619Y126122D01*
X739664Y125958D01*
X739696Y125888D01*
X739720Y125816D01*
X739799Y125665D01*
X739870Y125509D01*
X739913Y125446D01*
X739948Y125378D01*
X740014Y125296D01*
X740146Y125100D01*
X740307Y124928D01*
X740373Y124845D01*
X743149Y122070D01*
X745237Y117028D01*
X745237Y111572D01*
X743148Y106530D01*
X740373Y103755D01*
X740324Y103697D01*
X740268Y103644D01*
X740164Y103509D01*
X740054Y103379D01*
X740014Y103314D01*
X739968Y103253D01*
X739887Y103103D01*
X739799Y102956D01*
X739771Y102885D01*
X739735Y102818D01*
X739679Y102657D01*
X739616Y102498D01*
X739600Y102424D01*
X739575Y102352D01*
X739546Y102183D01*
X739509Y102016D01*
X739505Y101940D01*
X739492Y101865D01*
X739491Y101694D01*
X739482Y101524D01*
X739490Y101448D01*
X739489Y101372D01*
X739516Y101203D01*
X739534Y101033D01*
X739554Y100960D01*
X739566Y100885D01*
X739619Y100722D01*
X739664Y100558D01*
X739696Y100488D01*
X739720Y100416D01*
X739799Y100265D01*
X739870Y100109D01*
X739913Y100046D01*
X739948Y99978D01*
X740014Y99896D01*
X740146Y99700D01*
X740198Y99645D01*
X740215Y99619D01*
X740313Y99520D01*
X740373Y99445D01*
X743149Y96670D01*
X745237Y91628D01*
X745237Y86172D01*
X743149Y81130D01*
X740373Y78355D01*
X740324Y78297D01*
X740268Y78245D01*
X740164Y78109D01*
X740054Y77979D01*
X740014Y77913D01*
X739968Y77853D01*
X739887Y77703D01*
X739799Y77556D01*
X739771Y77486D01*
X739735Y77418D01*
X739679Y77257D01*
X739616Y77098D01*
X739600Y77024D01*
X739575Y76952D01*
X739546Y76783D01*
X739509Y76617D01*
X739505Y76540D01*
X739492Y76465D01*
X739491Y76294D01*
X739482Y76124D01*
X739490Y76048D01*
X739489Y75972D01*
X739516Y75803D01*
X739534Y75633D01*
X739554Y75560D01*
X739566Y75485D01*
X739619Y75322D01*
X739664Y75158D01*
X739696Y75088D01*
X739720Y75016D01*
X739799Y74864D01*
X739870Y74709D01*
X739913Y74646D01*
X739948Y74578D01*
X740014Y74496D01*
X740146Y74300D01*
X740308Y74128D01*
X740373Y74045D01*
X743148Y71270D01*
X745237Y66228D01*
X745237Y60772D01*
X743148Y55730D01*
X740373Y52955D01*
X740324Y52897D01*
X740268Y52844D01*
X740164Y52709D01*
X740054Y52579D01*
X740014Y52514D01*
X739968Y52453D01*
X739887Y52303D01*
X739799Y52156D01*
X739771Y52085D01*
X739735Y52018D01*
X739679Y51857D01*
X739616Y51698D01*
X739600Y51624D01*
X739575Y51552D01*
X739546Y51383D01*
X739509Y51216D01*
X739505Y51140D01*
X739492Y51065D01*
X739491Y50894D01*
X739482Y50724D01*
X739490Y50648D01*
X739489Y50572D01*
X739516Y50403D01*
X739534Y50233D01*
X739554Y50160D01*
X739566Y50085D01*
X739619Y49922D01*
X739664Y49758D01*
X739696Y49688D01*
X739720Y49616D01*
X739799Y49465D01*
X739870Y49309D01*
X739913Y49246D01*
X739948Y49178D01*
X740014Y49096D01*
X740146Y48900D01*
X740307Y48728D01*
X740373Y48645D01*
X743149Y45870D01*
X745237Y40828D01*
X745237Y35372D01*
X743148Y30330D01*
X740373Y27555D01*
X740328Y27502D01*
X740323Y27497D01*
X740319Y27492D01*
X740268Y27444D01*
X740164Y27309D01*
X740054Y27179D01*
X740018Y27119D01*
X740013Y27113D01*
X740010Y27107D01*
X739968Y27053D01*
X739887Y26903D01*
X739799Y26756D01*
X739774Y26693D01*
X739769Y26685D01*
X739766Y26677D01*
X739735Y26618D01*
X739679Y26457D01*
X739616Y26298D01*
X739602Y26233D01*
X739597Y26222D01*
X739596Y26212D01*
X739575Y26152D01*
X739546Y25983D01*
X739509Y25816D01*
X739506Y25752D01*
X739503Y25738D01*
X739502Y25726D01*
X739492Y25665D01*
X739491Y25494D01*
X739482Y25324D01*
X739488Y25263D01*
X739487Y25245D01*
X739489Y25229D01*
X739489Y25172D01*
X739516Y25003D01*
X739534Y24833D01*
X739549Y24778D01*
X739552Y24756D01*
X739558Y24737D01*
X739566Y24685D01*
X739619Y24522D01*
X739664Y24358D01*
X739687Y24309D01*
X739694Y24283D01*
X739705Y24262D01*
X739720Y24216D01*
X739799Y24065D01*
X739870Y23909D01*
X739897Y23869D01*
X739911Y23840D01*
X739928Y23817D01*
X739948Y23778D01*
X740014Y23696D01*
X740146Y23500D01*
X740175Y23468D01*
X740197Y23438D01*
X740314Y23319D01*
X740373Y23245D01*
X743149Y20470D01*
X745237Y15428D01*
X745237Y13208D01*
X745243Y13132D01*
X745241Y13056D01*
X745263Y12887D01*
X745277Y12716D01*
X745295Y12642D01*
X745305Y12567D01*
X745354Y12403D01*
X745395Y12237D01*
X745425Y12168D01*
X745447Y12094D01*
X745523Y11941D01*
X745590Y11784D01*
X745631Y11720D01*
X745664Y11651D01*
X745763Y11512D01*
X745855Y11368D01*
X745906Y11311D01*
X745950Y11249D01*
X746070Y11128D01*
X746184Y11000D01*
X746243Y10952D01*
X746297Y10898D01*
X746435Y10797D01*
X746568Y10690D01*
X746634Y10653D01*
X746695Y10608D01*
X746848Y10531D01*
X746996Y10446D01*
X747068Y10420D01*
X747136Y10385D01*
X747299Y10334D01*
X747459Y10275D01*
X747534Y10260D01*
X747606Y10237D01*
X747711Y10225D01*
X747943Y10180D01*
X748179Y10173D01*
X748284Y10161D01*
X748592Y10161D01*
X748668Y10167D01*
G37*
%LPC*%
G36*
X274139Y152399D02*
X274139Y152399D01*
X266699Y159839D01*
X266699Y170361D01*
X274139Y177801D01*
X284661Y177801D01*
X292101Y170361D01*
X292101Y159839D01*
X284661Y152399D01*
X274139Y152399D01*
G37*
%LPD*%
%LPC*%
G36*
X515439Y152399D02*
X515439Y152399D01*
X507999Y159839D01*
X507999Y170361D01*
X515439Y177801D01*
X525961Y177801D01*
X533401Y170361D01*
X533401Y159839D01*
X525961Y152399D01*
X515439Y152399D01*
G37*
%LPD*%
D10*
X330200Y82296D02*
X330200Y95504D01*
X355600Y95504D02*
X355600Y82296D01*
X482600Y82296D02*
X482600Y95504D01*
X482600Y158496D02*
X482600Y171704D01*
X381000Y95504D02*
X381000Y82296D01*
X406400Y82296D02*
X406400Y95504D01*
X457200Y95504D02*
X457200Y82296D01*
X431800Y82296D02*
X431800Y95504D01*
X457200Y158496D02*
X457200Y171704D01*
X431800Y171704D02*
X431800Y158496D01*
X406400Y158496D02*
X406400Y171704D01*
X381000Y171704D02*
X381000Y158496D01*
X355600Y158496D02*
X355600Y171704D01*
X330200Y171704D02*
X330200Y158496D01*
D11*
X279400Y38100D03*
X279400Y165100D03*
D12*
X241300Y165100D03*
X241300Y38100D03*
D11*
X520700Y38100D03*
X520700Y165100D03*
D12*
X571500Y165100D03*
X571500Y38100D03*
D10*
X95504Y190500D02*
X82296Y190500D01*
X82296Y165100D02*
X95504Y165100D01*
X95504Y139700D02*
X82296Y139700D01*
X82296Y114300D02*
X95504Y114300D01*
X95504Y88900D02*
X82296Y88900D01*
X82296Y63500D02*
X95504Y63500D01*
X95504Y38100D02*
X82296Y38100D01*
X82296Y12700D02*
X95504Y12700D01*
D13*
X716280Y12700D02*
X731520Y12700D01*
X731520Y38100D02*
X716280Y38100D01*
X716280Y63500D02*
X731520Y63500D01*
X731520Y88900D02*
X716280Y88900D01*
X716280Y114300D02*
X731520Y114300D01*
X731520Y139700D02*
X716280Y139700D01*
X716280Y165100D02*
X731520Y165100D01*
X731520Y190500D02*
X716280Y190500D01*
D14*
X165100Y12700D02*
X88900Y12700D01*
X165100Y12700D02*
X165100Y63500D01*
X165100Y12700D02*
X482600Y12700D01*
X647700Y12700D01*
X647700Y63500D01*
X647700Y12700D02*
X723900Y12700D01*
X482600Y12700D02*
X482600Y88900D01*
X241300Y165100D02*
X165100Y165100D01*
X165100Y152400D01*
X571500Y165100D02*
X647700Y165100D01*
X647700Y152400D01*
M02*
