M48
;GenerationSoftware,Autodesk,EAGLE,9.0.0*%
;CreationDate,2019-08-08T19:16:13Z*%
FMAT,2
ICI,OFF
METRIC,TZ,000.000
T2C0.813
T1C1.016
%
G90
M71
T1
X72390Y19050
X72390Y1270
X72390Y3810
X72390Y6350
X72390Y8890
X72390Y11430
X72390Y13970
X72390Y16510
T2
X45720Y16510
X43180Y16510
X40640Y16510
X38100Y16510
X35560Y16510
X33020Y16510
X27940Y3810
X27940Y16510
X24130Y16510
X24130Y3810
X52070Y3810
X33020Y8890
X57150Y16510
X57150Y3810
X8890Y19050
X8890Y16510
X8890Y13970
X8890Y11430
X8890Y8890
X8890Y6350
X8890Y3810
X8890Y1270
X35560Y8890
X48260Y8890
X48260Y16510
X38100Y8890
X40640Y8890
X45720Y8890
X43180Y8890
X52070Y16510
M30