G04 EAGLE Gerber X2 export*
G04 #@! %TF.Part,Single*
G04 #@! %TF.FileFunction,Legend,Top,1*
G04 #@! %TF.FilePolarity,Positive*
G04 #@! %TF.GenerationSoftware,Autodesk,EAGLE,9.0.0*
G04 #@! %TF.CreationDate,2019-08-08T19:16:13Z*
G75*
%MOMM*%
%FSLAX34Y34*%
%LPD*%
%AMOC8*
5,1,8,0,0,1.08239X$1,22.5*%
G01*
%ADD10C,0.152400*%
%ADD11C,0.127000*%
%ADD12R,0.609600X0.863600*%
%ADD13C,0.050800*%
%ADD14C,0.660400*%
%ADD15R,0.762000X0.660400*%
%ADD16R,0.660400X0.660400*%


D10*
X495300Y156210D02*
X317500Y156210D01*
X317500Y97790D02*
X495300Y97790D01*
X495300Y156210D01*
X317500Y156210D02*
X317500Y137160D01*
X317500Y116840D02*
X317500Y97790D01*
X317500Y116840D02*
X317747Y116843D01*
X317995Y116852D01*
X318242Y116867D01*
X318488Y116888D01*
X318734Y116915D01*
X318979Y116948D01*
X319224Y116987D01*
X319467Y117032D01*
X319709Y117083D01*
X319950Y117140D01*
X320189Y117202D01*
X320427Y117271D01*
X320663Y117345D01*
X320897Y117425D01*
X321129Y117510D01*
X321359Y117602D01*
X321587Y117698D01*
X321812Y117801D01*
X322035Y117908D01*
X322255Y118022D01*
X322472Y118140D01*
X322687Y118264D01*
X322898Y118393D01*
X323106Y118527D01*
X323311Y118666D01*
X323512Y118810D01*
X323710Y118958D01*
X323904Y119112D01*
X324094Y119270D01*
X324280Y119433D01*
X324462Y119600D01*
X324640Y119772D01*
X324814Y119948D01*
X324984Y120128D01*
X325149Y120313D01*
X325309Y120501D01*
X325465Y120693D01*
X325617Y120889D01*
X325763Y121088D01*
X325905Y121291D01*
X326041Y121498D01*
X326173Y121707D01*
X326299Y121920D01*
X326420Y122136D01*
X326536Y122354D01*
X326646Y122576D01*
X326751Y122800D01*
X326851Y123026D01*
X326945Y123255D01*
X327033Y123486D01*
X327116Y123720D01*
X327193Y123955D01*
X327264Y124192D01*
X327330Y124430D01*
X327389Y124670D01*
X327443Y124912D01*
X327491Y125155D01*
X327533Y125398D01*
X327569Y125643D01*
X327599Y125889D01*
X327623Y126135D01*
X327641Y126382D01*
X327653Y126629D01*
X327659Y126876D01*
X327659Y127124D01*
X327653Y127371D01*
X327641Y127618D01*
X327623Y127865D01*
X327599Y128111D01*
X327569Y128357D01*
X327533Y128602D01*
X327491Y128845D01*
X327443Y129088D01*
X327389Y129330D01*
X327330Y129570D01*
X327264Y129808D01*
X327193Y130045D01*
X327116Y130280D01*
X327033Y130514D01*
X326945Y130745D01*
X326851Y130974D01*
X326751Y131200D01*
X326646Y131424D01*
X326536Y131646D01*
X326420Y131864D01*
X326299Y132080D01*
X326173Y132293D01*
X326041Y132502D01*
X325905Y132709D01*
X325763Y132912D01*
X325617Y133111D01*
X325465Y133307D01*
X325309Y133499D01*
X325149Y133687D01*
X324984Y133872D01*
X324814Y134052D01*
X324640Y134228D01*
X324462Y134400D01*
X324280Y134567D01*
X324094Y134730D01*
X323904Y134888D01*
X323710Y135042D01*
X323512Y135190D01*
X323311Y135334D01*
X323106Y135473D01*
X322898Y135607D01*
X322687Y135736D01*
X322472Y135860D01*
X322255Y135978D01*
X322035Y136092D01*
X321812Y136199D01*
X321587Y136302D01*
X321359Y136398D01*
X321129Y136490D01*
X320897Y136575D01*
X320663Y136655D01*
X320427Y136729D01*
X320189Y136798D01*
X319950Y136860D01*
X319709Y136917D01*
X319467Y136968D01*
X319224Y137013D01*
X318979Y137052D01*
X318734Y137085D01*
X318488Y137112D01*
X318242Y137133D01*
X317995Y137148D01*
X317747Y137157D01*
X317500Y137160D01*
D11*
X345445Y132725D02*
X345445Y121285D01*
X339725Y127005D02*
X345445Y132725D01*
X347352Y127005D02*
X339725Y127005D01*
X351419Y123192D02*
X351419Y130818D01*
X353326Y132725D01*
X357139Y132725D01*
X359045Y130818D01*
X359045Y123192D01*
X357139Y121285D01*
X353326Y121285D01*
X351419Y123192D01*
X359045Y130818D01*
X363113Y128912D02*
X366926Y132725D01*
X366926Y121285D01*
X363113Y121285D02*
X370739Y121285D01*
X374807Y128912D02*
X378620Y132725D01*
X378620Y121285D01*
X374807Y121285D02*
X382433Y121285D01*
X386501Y121285D02*
X386501Y132725D01*
X394127Y121285D01*
X394127Y132725D01*
D10*
X266700Y58420D02*
X266600Y58422D01*
X266501Y58428D01*
X266401Y58438D01*
X266303Y58451D01*
X266204Y58469D01*
X266107Y58490D01*
X266011Y58515D01*
X265915Y58544D01*
X265821Y58577D01*
X265728Y58613D01*
X265637Y58653D01*
X265547Y58697D01*
X265459Y58744D01*
X265373Y58794D01*
X265289Y58848D01*
X265207Y58905D01*
X265128Y58965D01*
X265050Y59029D01*
X264976Y59095D01*
X264904Y59164D01*
X264835Y59236D01*
X264769Y59310D01*
X264705Y59388D01*
X264645Y59467D01*
X264588Y59549D01*
X264534Y59633D01*
X264484Y59719D01*
X264437Y59807D01*
X264393Y59897D01*
X264353Y59988D01*
X264317Y60081D01*
X264284Y60175D01*
X264255Y60271D01*
X264230Y60367D01*
X264209Y60464D01*
X264191Y60563D01*
X264178Y60661D01*
X264168Y60761D01*
X264162Y60860D01*
X264160Y60960D01*
X292100Y58420D02*
X292200Y58422D01*
X292299Y58428D01*
X292399Y58438D01*
X292497Y58451D01*
X292596Y58469D01*
X292693Y58490D01*
X292789Y58515D01*
X292885Y58544D01*
X292979Y58577D01*
X293072Y58613D01*
X293163Y58653D01*
X293253Y58697D01*
X293341Y58744D01*
X293427Y58794D01*
X293511Y58848D01*
X293593Y58905D01*
X293672Y58965D01*
X293750Y59029D01*
X293824Y59095D01*
X293896Y59164D01*
X293965Y59236D01*
X294031Y59310D01*
X294095Y59388D01*
X294155Y59467D01*
X294212Y59549D01*
X294266Y59633D01*
X294316Y59719D01*
X294363Y59807D01*
X294407Y59897D01*
X294447Y59988D01*
X294483Y60081D01*
X294516Y60175D01*
X294545Y60271D01*
X294570Y60367D01*
X294591Y60464D01*
X294609Y60563D01*
X294622Y60661D01*
X294632Y60761D01*
X294638Y60860D01*
X294640Y60960D01*
X294640Y142240D02*
X294638Y142340D01*
X294632Y142439D01*
X294622Y142539D01*
X294609Y142637D01*
X294591Y142736D01*
X294570Y142833D01*
X294545Y142929D01*
X294516Y143025D01*
X294483Y143119D01*
X294447Y143212D01*
X294407Y143303D01*
X294363Y143393D01*
X294316Y143481D01*
X294266Y143567D01*
X294212Y143651D01*
X294155Y143733D01*
X294095Y143812D01*
X294031Y143890D01*
X293965Y143964D01*
X293896Y144036D01*
X293824Y144105D01*
X293750Y144171D01*
X293672Y144235D01*
X293593Y144295D01*
X293511Y144352D01*
X293427Y144406D01*
X293341Y144456D01*
X293253Y144503D01*
X293163Y144547D01*
X293072Y144587D01*
X292979Y144623D01*
X292885Y144656D01*
X292789Y144685D01*
X292693Y144710D01*
X292596Y144731D01*
X292497Y144749D01*
X292399Y144762D01*
X292299Y144772D01*
X292200Y144778D01*
X292100Y144780D01*
X266700Y144780D02*
X266600Y144778D01*
X266501Y144772D01*
X266401Y144762D01*
X266303Y144749D01*
X266204Y144731D01*
X266107Y144710D01*
X266011Y144685D01*
X265915Y144656D01*
X265821Y144623D01*
X265728Y144587D01*
X265637Y144547D01*
X265547Y144503D01*
X265459Y144456D01*
X265373Y144406D01*
X265289Y144352D01*
X265207Y144295D01*
X265128Y144235D01*
X265050Y144171D01*
X264976Y144105D01*
X264904Y144036D01*
X264835Y143964D01*
X264769Y143890D01*
X264705Y143812D01*
X264645Y143733D01*
X264588Y143651D01*
X264534Y143567D01*
X264484Y143481D01*
X264437Y143393D01*
X264393Y143303D01*
X264353Y143212D01*
X264317Y143119D01*
X264284Y143025D01*
X264255Y142929D01*
X264230Y142833D01*
X264209Y142736D01*
X264191Y142637D01*
X264178Y142539D01*
X264168Y142439D01*
X264162Y142340D01*
X264160Y142240D01*
X266700Y58420D02*
X292100Y58420D01*
X264160Y60960D02*
X264160Y67310D01*
X265430Y68580D01*
X294640Y67310D02*
X294640Y60960D01*
X294640Y67310D02*
X293370Y68580D01*
X265430Y134620D02*
X264160Y135890D01*
X265430Y134620D02*
X265430Y68580D01*
X293370Y134620D02*
X294640Y135890D01*
X293370Y134620D02*
X293370Y68580D01*
X264160Y135890D02*
X264160Y142240D01*
X294640Y142240D02*
X294640Y135890D01*
X292100Y144780D02*
X266700Y144780D01*
D11*
X274183Y74298D02*
X277997Y70485D01*
X274183Y74298D02*
X285623Y74298D01*
X285623Y70485D02*
X285623Y78112D01*
X283716Y82179D02*
X276090Y82179D01*
X274183Y84086D01*
X274183Y87899D01*
X276090Y89805D01*
X283716Y89805D01*
X285623Y87899D01*
X285623Y84086D01*
X283716Y82179D01*
X276090Y89805D01*
X274183Y93873D02*
X285623Y93873D01*
X277997Y97686D02*
X274183Y93873D01*
X277997Y97686D02*
X274183Y101499D01*
X285623Y101499D01*
D12*
X279400Y149098D03*
X279400Y54102D03*
D10*
X256540Y142240D02*
X256538Y142340D01*
X256532Y142439D01*
X256522Y142539D01*
X256509Y142637D01*
X256491Y142736D01*
X256470Y142833D01*
X256445Y142929D01*
X256416Y143025D01*
X256383Y143119D01*
X256347Y143212D01*
X256307Y143303D01*
X256263Y143393D01*
X256216Y143481D01*
X256166Y143567D01*
X256112Y143651D01*
X256055Y143733D01*
X255995Y143812D01*
X255931Y143890D01*
X255865Y143964D01*
X255796Y144036D01*
X255724Y144105D01*
X255650Y144171D01*
X255572Y144235D01*
X255493Y144295D01*
X255411Y144352D01*
X255327Y144406D01*
X255241Y144456D01*
X255153Y144503D01*
X255063Y144547D01*
X254972Y144587D01*
X254879Y144623D01*
X254785Y144656D01*
X254689Y144685D01*
X254593Y144710D01*
X254496Y144731D01*
X254397Y144749D01*
X254299Y144762D01*
X254199Y144772D01*
X254100Y144778D01*
X254000Y144780D01*
X228600Y144780D02*
X228500Y144778D01*
X228401Y144772D01*
X228301Y144762D01*
X228203Y144749D01*
X228104Y144731D01*
X228007Y144710D01*
X227911Y144685D01*
X227815Y144656D01*
X227721Y144623D01*
X227628Y144587D01*
X227537Y144547D01*
X227447Y144503D01*
X227359Y144456D01*
X227273Y144406D01*
X227189Y144352D01*
X227107Y144295D01*
X227028Y144235D01*
X226950Y144171D01*
X226876Y144105D01*
X226804Y144036D01*
X226735Y143964D01*
X226669Y143890D01*
X226605Y143812D01*
X226545Y143733D01*
X226488Y143651D01*
X226434Y143567D01*
X226384Y143481D01*
X226337Y143393D01*
X226293Y143303D01*
X226253Y143212D01*
X226217Y143119D01*
X226184Y143025D01*
X226155Y142929D01*
X226130Y142833D01*
X226109Y142736D01*
X226091Y142637D01*
X226078Y142539D01*
X226068Y142439D01*
X226062Y142340D01*
X226060Y142240D01*
X226060Y60960D02*
X226062Y60860D01*
X226068Y60761D01*
X226078Y60661D01*
X226091Y60563D01*
X226109Y60464D01*
X226130Y60367D01*
X226155Y60271D01*
X226184Y60175D01*
X226217Y60081D01*
X226253Y59988D01*
X226293Y59897D01*
X226337Y59807D01*
X226384Y59719D01*
X226434Y59633D01*
X226488Y59549D01*
X226545Y59467D01*
X226605Y59388D01*
X226669Y59310D01*
X226735Y59236D01*
X226804Y59164D01*
X226876Y59095D01*
X226950Y59029D01*
X227028Y58965D01*
X227107Y58905D01*
X227189Y58848D01*
X227273Y58794D01*
X227359Y58744D01*
X227447Y58697D01*
X227537Y58653D01*
X227628Y58613D01*
X227721Y58577D01*
X227815Y58544D01*
X227911Y58515D01*
X228007Y58490D01*
X228104Y58469D01*
X228203Y58451D01*
X228301Y58438D01*
X228401Y58428D01*
X228500Y58422D01*
X228600Y58420D01*
X254000Y58420D02*
X254100Y58422D01*
X254199Y58428D01*
X254299Y58438D01*
X254397Y58451D01*
X254496Y58469D01*
X254593Y58490D01*
X254689Y58515D01*
X254785Y58544D01*
X254879Y58577D01*
X254972Y58613D01*
X255063Y58653D01*
X255153Y58697D01*
X255241Y58744D01*
X255327Y58794D01*
X255411Y58848D01*
X255493Y58905D01*
X255572Y58965D01*
X255650Y59029D01*
X255724Y59095D01*
X255796Y59164D01*
X255865Y59236D01*
X255931Y59310D01*
X255995Y59388D01*
X256055Y59467D01*
X256112Y59549D01*
X256166Y59633D01*
X256216Y59719D01*
X256263Y59807D01*
X256307Y59897D01*
X256347Y59988D01*
X256383Y60081D01*
X256416Y60175D01*
X256445Y60271D01*
X256470Y60367D01*
X256491Y60464D01*
X256509Y60563D01*
X256522Y60661D01*
X256532Y60761D01*
X256538Y60860D01*
X256540Y60960D01*
X254000Y144780D02*
X228600Y144780D01*
X256540Y142240D02*
X256540Y135890D01*
X255270Y134620D01*
X226060Y135890D02*
X226060Y142240D01*
X226060Y135890D02*
X227330Y134620D01*
X255270Y68580D02*
X256540Y67310D01*
X255270Y68580D02*
X255270Y134620D01*
X227330Y68580D02*
X226060Y67310D01*
X227330Y68580D02*
X227330Y134620D01*
X256540Y67310D02*
X256540Y60960D01*
X226060Y60960D02*
X226060Y67310D01*
X228600Y58420D02*
X254000Y58420D01*
D11*
X238881Y89158D02*
X235067Y92971D01*
X246507Y92971D01*
X246507Y89158D02*
X246507Y96785D01*
X244600Y100852D02*
X236974Y100852D01*
X235067Y102759D01*
X235067Y106572D01*
X236974Y108479D01*
X244600Y108479D01*
X246507Y106572D01*
X246507Y102759D01*
X244600Y100852D01*
X236974Y108479D01*
X236974Y112546D02*
X244600Y112546D01*
X236974Y112546D02*
X235067Y114453D01*
X235067Y118266D01*
X236974Y120172D01*
X244600Y120172D01*
X246507Y118266D01*
X246507Y114453D01*
X244600Y112546D01*
X236974Y120172D01*
X235067Y124240D02*
X246507Y124240D01*
X242694Y124240D02*
X246507Y129960D01*
X242694Y124240D02*
X238881Y129960D01*
D12*
X241300Y54102D03*
X241300Y149098D03*
D10*
X505460Y60960D02*
X505462Y60860D01*
X505468Y60761D01*
X505478Y60661D01*
X505491Y60563D01*
X505509Y60464D01*
X505530Y60367D01*
X505555Y60271D01*
X505584Y60175D01*
X505617Y60081D01*
X505653Y59988D01*
X505693Y59897D01*
X505737Y59807D01*
X505784Y59719D01*
X505834Y59633D01*
X505888Y59549D01*
X505945Y59467D01*
X506005Y59388D01*
X506069Y59310D01*
X506135Y59236D01*
X506204Y59164D01*
X506276Y59095D01*
X506350Y59029D01*
X506428Y58965D01*
X506507Y58905D01*
X506589Y58848D01*
X506673Y58794D01*
X506759Y58744D01*
X506847Y58697D01*
X506937Y58653D01*
X507028Y58613D01*
X507121Y58577D01*
X507215Y58544D01*
X507311Y58515D01*
X507407Y58490D01*
X507504Y58469D01*
X507603Y58451D01*
X507701Y58438D01*
X507801Y58428D01*
X507900Y58422D01*
X508000Y58420D01*
X533400Y58420D02*
X533500Y58422D01*
X533599Y58428D01*
X533699Y58438D01*
X533797Y58451D01*
X533896Y58469D01*
X533993Y58490D01*
X534089Y58515D01*
X534185Y58544D01*
X534279Y58577D01*
X534372Y58613D01*
X534463Y58653D01*
X534553Y58697D01*
X534641Y58744D01*
X534727Y58794D01*
X534811Y58848D01*
X534893Y58905D01*
X534972Y58965D01*
X535050Y59029D01*
X535124Y59095D01*
X535196Y59164D01*
X535265Y59236D01*
X535331Y59310D01*
X535395Y59388D01*
X535455Y59467D01*
X535512Y59549D01*
X535566Y59633D01*
X535616Y59719D01*
X535663Y59807D01*
X535707Y59897D01*
X535747Y59988D01*
X535783Y60081D01*
X535816Y60175D01*
X535845Y60271D01*
X535870Y60367D01*
X535891Y60464D01*
X535909Y60563D01*
X535922Y60661D01*
X535932Y60761D01*
X535938Y60860D01*
X535940Y60960D01*
X535940Y142240D02*
X535938Y142340D01*
X535932Y142439D01*
X535922Y142539D01*
X535909Y142637D01*
X535891Y142736D01*
X535870Y142833D01*
X535845Y142929D01*
X535816Y143025D01*
X535783Y143119D01*
X535747Y143212D01*
X535707Y143303D01*
X535663Y143393D01*
X535616Y143481D01*
X535566Y143567D01*
X535512Y143651D01*
X535455Y143733D01*
X535395Y143812D01*
X535331Y143890D01*
X535265Y143964D01*
X535196Y144036D01*
X535124Y144105D01*
X535050Y144171D01*
X534972Y144235D01*
X534893Y144295D01*
X534811Y144352D01*
X534727Y144406D01*
X534641Y144456D01*
X534553Y144503D01*
X534463Y144547D01*
X534372Y144587D01*
X534279Y144623D01*
X534185Y144656D01*
X534089Y144685D01*
X533993Y144710D01*
X533896Y144731D01*
X533797Y144749D01*
X533699Y144762D01*
X533599Y144772D01*
X533500Y144778D01*
X533400Y144780D01*
X508000Y144780D02*
X507900Y144778D01*
X507801Y144772D01*
X507701Y144762D01*
X507603Y144749D01*
X507504Y144731D01*
X507407Y144710D01*
X507311Y144685D01*
X507215Y144656D01*
X507121Y144623D01*
X507028Y144587D01*
X506937Y144547D01*
X506847Y144503D01*
X506759Y144456D01*
X506673Y144406D01*
X506589Y144352D01*
X506507Y144295D01*
X506428Y144235D01*
X506350Y144171D01*
X506276Y144105D01*
X506204Y144036D01*
X506135Y143964D01*
X506069Y143890D01*
X506005Y143812D01*
X505945Y143733D01*
X505888Y143651D01*
X505834Y143567D01*
X505784Y143481D01*
X505737Y143393D01*
X505693Y143303D01*
X505653Y143212D01*
X505617Y143119D01*
X505584Y143025D01*
X505555Y142929D01*
X505530Y142833D01*
X505509Y142736D01*
X505491Y142637D01*
X505478Y142539D01*
X505468Y142439D01*
X505462Y142340D01*
X505460Y142240D01*
X508000Y58420D02*
X533400Y58420D01*
X505460Y60960D02*
X505460Y67310D01*
X506730Y68580D01*
X535940Y67310D02*
X535940Y60960D01*
X535940Y67310D02*
X534670Y68580D01*
X506730Y134620D02*
X505460Y135890D01*
X506730Y134620D02*
X506730Y68580D01*
X534670Y134620D02*
X535940Y135890D01*
X534670Y134620D02*
X534670Y68580D01*
X505460Y135890D02*
X505460Y142240D01*
X535940Y142240D02*
X535940Y135890D01*
X533400Y144780D02*
X508000Y144780D01*
D11*
X515483Y74298D02*
X519297Y70485D01*
X515483Y74298D02*
X526923Y74298D01*
X526923Y70485D02*
X526923Y78112D01*
X525016Y82179D02*
X517390Y82179D01*
X515483Y84086D01*
X515483Y87899D01*
X517390Y89805D01*
X525016Y89805D01*
X526923Y87899D01*
X526923Y84086D01*
X525016Y82179D01*
X517390Y89805D01*
X515483Y93873D02*
X526923Y93873D01*
X519297Y97686D02*
X515483Y93873D01*
X519297Y97686D02*
X515483Y101499D01*
X526923Y101499D01*
D12*
X520700Y149098D03*
X520700Y54102D03*
D10*
X586740Y142240D02*
X586738Y142340D01*
X586732Y142439D01*
X586722Y142539D01*
X586709Y142637D01*
X586691Y142736D01*
X586670Y142833D01*
X586645Y142929D01*
X586616Y143025D01*
X586583Y143119D01*
X586547Y143212D01*
X586507Y143303D01*
X586463Y143393D01*
X586416Y143481D01*
X586366Y143567D01*
X586312Y143651D01*
X586255Y143733D01*
X586195Y143812D01*
X586131Y143890D01*
X586065Y143964D01*
X585996Y144036D01*
X585924Y144105D01*
X585850Y144171D01*
X585772Y144235D01*
X585693Y144295D01*
X585611Y144352D01*
X585527Y144406D01*
X585441Y144456D01*
X585353Y144503D01*
X585263Y144547D01*
X585172Y144587D01*
X585079Y144623D01*
X584985Y144656D01*
X584889Y144685D01*
X584793Y144710D01*
X584696Y144731D01*
X584597Y144749D01*
X584499Y144762D01*
X584399Y144772D01*
X584300Y144778D01*
X584200Y144780D01*
X558800Y144780D02*
X558700Y144778D01*
X558601Y144772D01*
X558501Y144762D01*
X558403Y144749D01*
X558304Y144731D01*
X558207Y144710D01*
X558111Y144685D01*
X558015Y144656D01*
X557921Y144623D01*
X557828Y144587D01*
X557737Y144547D01*
X557647Y144503D01*
X557559Y144456D01*
X557473Y144406D01*
X557389Y144352D01*
X557307Y144295D01*
X557228Y144235D01*
X557150Y144171D01*
X557076Y144105D01*
X557004Y144036D01*
X556935Y143964D01*
X556869Y143890D01*
X556805Y143812D01*
X556745Y143733D01*
X556688Y143651D01*
X556634Y143567D01*
X556584Y143481D01*
X556537Y143393D01*
X556493Y143303D01*
X556453Y143212D01*
X556417Y143119D01*
X556384Y143025D01*
X556355Y142929D01*
X556330Y142833D01*
X556309Y142736D01*
X556291Y142637D01*
X556278Y142539D01*
X556268Y142439D01*
X556262Y142340D01*
X556260Y142240D01*
X556260Y60960D02*
X556262Y60860D01*
X556268Y60761D01*
X556278Y60661D01*
X556291Y60563D01*
X556309Y60464D01*
X556330Y60367D01*
X556355Y60271D01*
X556384Y60175D01*
X556417Y60081D01*
X556453Y59988D01*
X556493Y59897D01*
X556537Y59807D01*
X556584Y59719D01*
X556634Y59633D01*
X556688Y59549D01*
X556745Y59467D01*
X556805Y59388D01*
X556869Y59310D01*
X556935Y59236D01*
X557004Y59164D01*
X557076Y59095D01*
X557150Y59029D01*
X557228Y58965D01*
X557307Y58905D01*
X557389Y58848D01*
X557473Y58794D01*
X557559Y58744D01*
X557647Y58697D01*
X557737Y58653D01*
X557828Y58613D01*
X557921Y58577D01*
X558015Y58544D01*
X558111Y58515D01*
X558207Y58490D01*
X558304Y58469D01*
X558403Y58451D01*
X558501Y58438D01*
X558601Y58428D01*
X558700Y58422D01*
X558800Y58420D01*
X584200Y58420D02*
X584300Y58422D01*
X584399Y58428D01*
X584499Y58438D01*
X584597Y58451D01*
X584696Y58469D01*
X584793Y58490D01*
X584889Y58515D01*
X584985Y58544D01*
X585079Y58577D01*
X585172Y58613D01*
X585263Y58653D01*
X585353Y58697D01*
X585441Y58744D01*
X585527Y58794D01*
X585611Y58848D01*
X585693Y58905D01*
X585772Y58965D01*
X585850Y59029D01*
X585924Y59095D01*
X585996Y59164D01*
X586065Y59236D01*
X586131Y59310D01*
X586195Y59388D01*
X586255Y59467D01*
X586312Y59549D01*
X586366Y59633D01*
X586416Y59719D01*
X586463Y59807D01*
X586507Y59897D01*
X586547Y59988D01*
X586583Y60081D01*
X586616Y60175D01*
X586645Y60271D01*
X586670Y60367D01*
X586691Y60464D01*
X586709Y60563D01*
X586722Y60661D01*
X586732Y60761D01*
X586738Y60860D01*
X586740Y60960D01*
X584200Y144780D02*
X558800Y144780D01*
X586740Y142240D02*
X586740Y135890D01*
X585470Y134620D01*
X556260Y135890D02*
X556260Y142240D01*
X556260Y135890D02*
X557530Y134620D01*
X585470Y68580D02*
X586740Y67310D01*
X585470Y68580D02*
X585470Y134620D01*
X557530Y68580D02*
X556260Y67310D01*
X557530Y68580D02*
X557530Y134620D01*
X586740Y67310D02*
X586740Y60960D01*
X556260Y60960D02*
X556260Y67310D01*
X558800Y58420D02*
X584200Y58420D01*
D11*
X569081Y89158D02*
X565267Y92971D01*
X576707Y92971D01*
X576707Y89158D02*
X576707Y96785D01*
X574800Y100852D02*
X567174Y100852D01*
X565267Y102759D01*
X565267Y106572D01*
X567174Y108479D01*
X574800Y108479D01*
X576707Y106572D01*
X576707Y102759D01*
X574800Y100852D01*
X567174Y108479D01*
X567174Y112546D02*
X574800Y112546D01*
X567174Y112546D02*
X565267Y114453D01*
X565267Y118266D01*
X567174Y120172D01*
X574800Y120172D01*
X576707Y118266D01*
X576707Y114453D01*
X574800Y112546D01*
X567174Y120172D01*
X565267Y124240D02*
X576707Y124240D01*
X572894Y124240D02*
X576707Y129960D01*
X572894Y124240D02*
X569081Y129960D01*
D12*
X571500Y54102D03*
X571500Y149098D03*
D10*
X78740Y0D02*
X73660Y0D01*
X0Y0D01*
X0Y21590D01*
X0Y25400D01*
X0Y29210D01*
X0Y46990D01*
X0Y50800D01*
X0Y54610D01*
X0Y72390D01*
X0Y76200D01*
X0Y80010D01*
X0Y97790D01*
X0Y101600D01*
X0Y105410D01*
X0Y123190D01*
X0Y127000D02*
X73660Y127000D01*
X73660Y21590D02*
X73660Y0D01*
X73660Y21590D02*
X73660Y25400D01*
X73660Y29210D01*
X73660Y46990D01*
X73660Y50800D01*
X73660Y54610D01*
X73660Y72390D01*
X73660Y76200D01*
X73660Y80010D01*
X73660Y97790D01*
X73660Y101600D01*
X73660Y105410D01*
X73660Y123190D01*
X73660Y127000D01*
X73660Y101600D02*
X0Y101600D01*
X0Y76200D02*
X73660Y76200D01*
X73660Y50800D02*
X0Y50800D01*
X0Y25400D02*
X73660Y25400D01*
D13*
X73660Y21590D02*
X0Y21590D01*
X0Y29210D02*
X73660Y29210D01*
X73660Y46990D02*
X0Y46990D01*
X0Y54610D02*
X73660Y54610D01*
X73660Y72390D02*
X0Y72390D01*
X0Y80010D02*
X73660Y80010D01*
X73660Y97790D02*
X0Y97790D01*
X0Y105410D02*
X73660Y105410D01*
D10*
X73660Y123190D02*
X0Y123190D01*
X0Y127000D01*
X0Y130810D01*
D13*
X73660Y130810D01*
D10*
X78740Y203200D02*
X78740Y0D01*
X0Y130810D02*
X0Y148590D01*
X0Y152400D02*
X73660Y152400D01*
X73660Y130810D02*
X73660Y127000D01*
X73660Y130810D02*
X73660Y148590D01*
X73660Y152400D01*
D13*
X73660Y148590D02*
X0Y148590D01*
D10*
X0Y152400D01*
X0Y156210D01*
X0Y173990D01*
X0Y177800D01*
X73660Y177800D01*
D13*
X73660Y156210D02*
X0Y156210D01*
D10*
X73660Y156210D02*
X73660Y152400D01*
X73660Y156210D02*
X73660Y173990D01*
X73660Y177800D01*
X0Y177800D02*
X0Y181610D01*
X0Y203200D01*
X73660Y203200D01*
X78740Y203200D01*
X73660Y181610D02*
X73660Y177800D01*
X73660Y181610D02*
X73660Y203200D01*
D13*
X73660Y181610D02*
X0Y181610D01*
X0Y173990D02*
X73660Y173990D01*
D11*
X59062Y159385D02*
X51435Y159385D01*
X59062Y167012D01*
X59062Y168918D01*
X57155Y170825D01*
X53342Y170825D01*
X51435Y168918D01*
X53342Y18425D02*
X51435Y16518D01*
X53342Y18425D02*
X57155Y18425D01*
X59062Y16518D01*
X59062Y14612D01*
X57155Y12705D01*
X59062Y10798D01*
X59062Y8892D01*
X57155Y6985D01*
X53342Y6985D01*
X51435Y8892D01*
X51435Y10798D01*
X53342Y12705D01*
X51435Y14612D01*
X51435Y16518D01*
X53342Y12705D02*
X57155Y12705D01*
X51435Y143518D02*
X53342Y145425D01*
X57155Y145425D01*
X59062Y143518D01*
X59062Y141612D01*
X57155Y139705D01*
X55248Y139705D01*
X57155Y139705D02*
X59062Y137798D01*
X59062Y135892D01*
X57155Y133985D01*
X53342Y133985D01*
X51435Y135892D01*
X57155Y120025D02*
X57155Y108585D01*
X51435Y114305D02*
X57155Y120025D01*
X59062Y114305D02*
X51435Y114305D01*
X51435Y94625D02*
X59062Y94625D01*
X51435Y94625D02*
X51435Y88905D01*
X55248Y90812D01*
X57155Y90812D01*
X59062Y88905D01*
X59062Y85092D01*
X57155Y83185D01*
X53342Y83185D01*
X51435Y85092D01*
X59062Y69225D02*
X55248Y67318D01*
X51435Y63505D01*
X51435Y59692D01*
X53342Y57785D01*
X57155Y57785D01*
X59062Y59692D01*
X59062Y61598D01*
X57155Y63505D01*
X51435Y63505D01*
X51435Y43825D02*
X59062Y43825D01*
X59062Y41918D01*
X51435Y34292D01*
X51435Y32385D01*
X51435Y192412D02*
X55248Y196225D01*
X55248Y184785D01*
X51435Y184785D02*
X59062Y184785D01*
D10*
X739140Y0D02*
X767080Y0D01*
X739140Y0D02*
X739140Y25400D01*
X767080Y25400D02*
X767080Y0D01*
X767080Y50800D02*
X739140Y50800D01*
X767080Y50800D02*
X767080Y76200D01*
X767080Y25400D02*
X739140Y25400D01*
X739140Y50800D01*
X767080Y50800D02*
X767080Y25400D01*
D14*
X774700Y63500D02*
X821690Y63500D01*
X821690Y38100D02*
X774700Y38100D01*
X774700Y12700D02*
X821690Y12700D01*
D10*
X739140Y50800D02*
X739140Y76200D01*
X739140Y101600D01*
X767080Y101600D01*
X739140Y101600D02*
X739140Y127000D01*
X767080Y127000D01*
X767080Y101600D01*
X767080Y76200D02*
X739140Y76200D01*
X767080Y76200D02*
X767080Y101600D01*
X739140Y127000D02*
X739140Y152400D01*
X767080Y152400D02*
X767080Y127000D01*
X767080Y177800D02*
X739140Y177800D01*
X739140Y203200D01*
X767080Y203200D01*
X767080Y177800D01*
X767080Y152400D02*
X739140Y152400D01*
X739140Y177800D01*
X767080Y177800D02*
X767080Y152400D01*
D14*
X774700Y190500D02*
X821690Y190500D01*
X821690Y165100D02*
X774700Y165100D01*
X774700Y139700D02*
X821690Y139700D01*
X821690Y114300D02*
X774700Y114300D01*
X774700Y88900D02*
X821690Y88900D01*
D11*
X744855Y192412D02*
X748668Y196225D01*
X748668Y184785D01*
X744855Y184785D02*
X752482Y184785D01*
X752482Y159385D02*
X744855Y159385D01*
X752482Y167012D01*
X752482Y168918D01*
X750575Y170825D01*
X746762Y170825D01*
X744855Y168918D01*
X746762Y145425D02*
X744855Y143518D01*
X746762Y145425D02*
X750575Y145425D01*
X752482Y143518D01*
X752482Y141612D01*
X750575Y139705D01*
X748668Y139705D01*
X750575Y139705D02*
X752482Y137798D01*
X752482Y135892D01*
X750575Y133985D01*
X746762Y133985D01*
X744855Y135892D01*
X750575Y120025D02*
X750575Y108585D01*
X744855Y114305D02*
X750575Y120025D01*
X752482Y114305D02*
X744855Y114305D01*
X744855Y94625D02*
X752482Y94625D01*
X744855Y94625D02*
X744855Y88905D01*
X748668Y90812D01*
X750575Y90812D01*
X752482Y88905D01*
X752482Y85092D01*
X750575Y83185D01*
X746762Y83185D01*
X744855Y85092D01*
X752482Y69225D02*
X748668Y67318D01*
X744855Y63505D01*
X744855Y59692D01*
X746762Y57785D01*
X750575Y57785D01*
X752482Y59692D01*
X752482Y61598D01*
X750575Y63505D01*
X744855Y63505D01*
X744855Y43825D02*
X752482Y43825D01*
X752482Y41918D01*
X744855Y34292D01*
X744855Y32385D01*
X746762Y18425D02*
X744855Y16518D01*
X746762Y18425D02*
X750575Y18425D01*
X752482Y16518D01*
X752482Y14612D01*
X750575Y12705D01*
X752482Y10798D01*
X752482Y8892D01*
X750575Y6985D01*
X746762Y6985D01*
X744855Y8892D01*
X744855Y10798D01*
X746762Y12705D01*
X744855Y14612D01*
X744855Y16518D01*
X746762Y12705D02*
X750575Y12705D01*
D15*
X770890Y63500D03*
X770890Y38100D03*
X770890Y12700D03*
X770890Y190500D03*
X770890Y165100D03*
X770890Y139700D03*
X770890Y114300D03*
X770890Y88900D03*
D16*
X735838Y12700D03*
X735838Y38100D03*
X735838Y63500D03*
X735838Y88900D03*
X735838Y114300D03*
X735838Y139700D03*
X735838Y165100D03*
X735838Y190500D03*
M02*
