G04 EAGLE Gerber X2 export*
G04 #@! %TF.Part,Single*
G04 #@! %TF.FileFunction,Soldermask,Top,1*
G04 #@! %TF.FilePolarity,Negative*
G04 #@! %TF.GenerationSoftware,Autodesk,EAGLE,9.0.0*
G04 #@! %TF.CreationDate,2019-08-08T19:16:13Z*
G75*
%MOMM*%
%FSLAX34Y34*%
%LPD*%
%AMOC8*
5,1,8,0,0,1.08239X$1,22.5*%
G01*
%ADD10C,1.524000*%
%ADD11P,1.649562X8X112.500000*%
%ADD12P,1.649562X8X292.500000*%
%ADD13C,1.727200*%

G36*
X653340Y60848D02*
X653340Y60848D01*
X653687Y60902D01*
X653770Y60910D01*
X659082Y62066D01*
X659418Y62168D01*
X659499Y62188D01*
X664592Y64088D01*
X664911Y64237D01*
X664988Y64269D01*
X669759Y66874D01*
X670053Y67067D01*
X670125Y67109D01*
X674476Y70366D01*
X674740Y70600D01*
X674805Y70651D01*
X678649Y74495D01*
X678876Y74763D01*
X678934Y74824D01*
X682191Y79175D01*
X682378Y79473D01*
X682426Y79541D01*
X685031Y84312D01*
X685175Y84634D01*
X685212Y84708D01*
X687112Y89801D01*
X687175Y90026D01*
X687203Y90100D01*
X687215Y90161D01*
X687234Y90218D01*
X688390Y95530D01*
X688437Y95879D01*
X688452Y95960D01*
X688840Y101383D01*
X688838Y101519D01*
X688847Y101600D01*
X688847Y114300D01*
X688836Y114436D01*
X688840Y114517D01*
X688452Y119940D01*
X688398Y120287D01*
X688390Y120370D01*
X687234Y125682D01*
X687132Y126018D01*
X687112Y126099D01*
X685212Y131192D01*
X685063Y131511D01*
X685031Y131588D01*
X682426Y136359D01*
X682233Y136653D01*
X682191Y136725D01*
X678934Y141076D01*
X678700Y141340D01*
X678649Y141405D01*
X674805Y145249D01*
X674537Y145476D01*
X674476Y145534D01*
X670125Y148791D01*
X669827Y148978D01*
X669759Y149026D01*
X664988Y151631D01*
X664666Y151775D01*
X664592Y151812D01*
X659499Y153712D01*
X659161Y153808D01*
X659082Y153834D01*
X653770Y154990D01*
X653421Y155037D01*
X653340Y155052D01*
X647917Y155440D01*
X647566Y155436D01*
X647483Y155440D01*
X642060Y155052D01*
X641713Y154998D01*
X641630Y154990D01*
X636318Y153834D01*
X635982Y153732D01*
X635901Y153712D01*
X630808Y151812D01*
X630489Y151663D01*
X630412Y151631D01*
X625641Y149026D01*
X625347Y148833D01*
X625275Y148791D01*
X620924Y145534D01*
X620660Y145300D01*
X620595Y145249D01*
X616751Y141405D01*
X616524Y141137D01*
X616466Y141076D01*
X613209Y136725D01*
X613022Y136427D01*
X612974Y136359D01*
X610369Y131588D01*
X610225Y131266D01*
X610188Y131192D01*
X608288Y126099D01*
X608192Y125761D01*
X608166Y125682D01*
X607010Y120370D01*
X606964Y120021D01*
X606948Y119940D01*
X606561Y114517D01*
X606562Y114381D01*
X606553Y114300D01*
X606553Y101600D01*
X606564Y101464D01*
X606561Y101383D01*
X606948Y95960D01*
X607002Y95613D01*
X607010Y95530D01*
X608166Y90218D01*
X608268Y89882D01*
X608288Y89801D01*
X610188Y84708D01*
X610337Y84389D01*
X610369Y84312D01*
X612974Y79541D01*
X613167Y79247D01*
X613209Y79175D01*
X616466Y74824D01*
X616700Y74560D01*
X616751Y74495D01*
X620595Y70651D01*
X620863Y70424D01*
X620924Y70366D01*
X625275Y67109D01*
X625410Y67024D01*
X625451Y66994D01*
X625484Y66977D01*
X625573Y66922D01*
X625641Y66874D01*
X630412Y64269D01*
X630734Y64125D01*
X630808Y64088D01*
X635901Y62188D01*
X636239Y62092D01*
X636318Y62066D01*
X641630Y60910D01*
X641979Y60864D01*
X642060Y60848D01*
X647483Y60461D01*
X647834Y60464D01*
X647917Y60461D01*
X653340Y60848D01*
G37*
G36*
X170740Y60848D02*
X170740Y60848D01*
X171087Y60902D01*
X171170Y60910D01*
X176482Y62066D01*
X176818Y62168D01*
X176899Y62188D01*
X181992Y64088D01*
X182311Y64237D01*
X182388Y64269D01*
X187159Y66874D01*
X187453Y67067D01*
X187525Y67109D01*
X191876Y70366D01*
X192140Y70600D01*
X192205Y70651D01*
X196049Y74495D01*
X196276Y74763D01*
X196334Y74824D01*
X199591Y79175D01*
X199778Y79473D01*
X199826Y79541D01*
X202431Y84312D01*
X202575Y84634D01*
X202612Y84708D01*
X204512Y89801D01*
X204575Y90026D01*
X204603Y90100D01*
X204615Y90161D01*
X204634Y90218D01*
X205790Y95530D01*
X205837Y95879D01*
X205852Y95960D01*
X206240Y101383D01*
X206238Y101519D01*
X206247Y101600D01*
X206247Y114300D01*
X206236Y114436D01*
X206240Y114517D01*
X205852Y119940D01*
X205798Y120287D01*
X205790Y120370D01*
X204634Y125682D01*
X204532Y126018D01*
X204512Y126099D01*
X202612Y131192D01*
X202463Y131511D01*
X202431Y131588D01*
X199826Y136359D01*
X199633Y136653D01*
X199591Y136725D01*
X196334Y141076D01*
X196100Y141340D01*
X196049Y141405D01*
X192205Y145249D01*
X191937Y145476D01*
X191876Y145534D01*
X187525Y148791D01*
X187227Y148978D01*
X187159Y149026D01*
X182388Y151631D01*
X182066Y151775D01*
X181992Y151812D01*
X176899Y153712D01*
X176561Y153808D01*
X176482Y153834D01*
X171170Y154990D01*
X170821Y155037D01*
X170740Y155052D01*
X165317Y155440D01*
X164966Y155436D01*
X164883Y155440D01*
X159460Y155052D01*
X159113Y154998D01*
X159030Y154990D01*
X153718Y153834D01*
X153382Y153732D01*
X153301Y153712D01*
X148208Y151812D01*
X147889Y151663D01*
X147812Y151631D01*
X143041Y149026D01*
X142747Y148833D01*
X142675Y148791D01*
X138324Y145534D01*
X138060Y145300D01*
X137995Y145249D01*
X134151Y141405D01*
X133924Y141137D01*
X133866Y141076D01*
X130609Y136725D01*
X130422Y136427D01*
X130374Y136359D01*
X127769Y131588D01*
X127625Y131266D01*
X127588Y131192D01*
X125688Y126099D01*
X125592Y125761D01*
X125566Y125682D01*
X124410Y120370D01*
X124364Y120021D01*
X124348Y119940D01*
X123961Y114517D01*
X123962Y114381D01*
X123953Y114300D01*
X123953Y101600D01*
X123964Y101464D01*
X123961Y101383D01*
X124348Y95960D01*
X124402Y95613D01*
X124410Y95530D01*
X125566Y90218D01*
X125668Y89882D01*
X125688Y89801D01*
X127588Y84708D01*
X127737Y84389D01*
X127769Y84312D01*
X130374Y79541D01*
X130567Y79247D01*
X130609Y79175D01*
X133866Y74824D01*
X134100Y74560D01*
X134151Y74495D01*
X137995Y70651D01*
X138263Y70424D01*
X138324Y70366D01*
X142675Y67109D01*
X142810Y67024D01*
X142851Y66994D01*
X142884Y66977D01*
X142973Y66922D01*
X143041Y66874D01*
X147812Y64269D01*
X148134Y64125D01*
X148208Y64088D01*
X153301Y62188D01*
X153639Y62092D01*
X153718Y62066D01*
X159030Y60910D01*
X159379Y60864D01*
X159460Y60848D01*
X164883Y60461D01*
X165234Y60464D01*
X165317Y60461D01*
X170740Y60848D01*
G37*
D10*
X330200Y82296D02*
X330200Y95504D01*
X355600Y95504D02*
X355600Y82296D01*
X482600Y82296D02*
X482600Y95504D01*
X482600Y158496D02*
X482600Y171704D01*
X381000Y95504D02*
X381000Y82296D01*
X406400Y82296D02*
X406400Y95504D01*
X457200Y95504D02*
X457200Y82296D01*
X431800Y82296D02*
X431800Y95504D01*
X457200Y158496D02*
X457200Y171704D01*
X431800Y171704D02*
X431800Y158496D01*
X406400Y158496D02*
X406400Y171704D01*
X381000Y171704D02*
X381000Y158496D01*
X355600Y158496D02*
X355600Y171704D01*
X330200Y171704D02*
X330200Y158496D01*
D11*
X279400Y38100D03*
X279400Y165100D03*
D12*
X241300Y165100D03*
X241300Y38100D03*
D11*
X520700Y38100D03*
X520700Y165100D03*
D12*
X571500Y165100D03*
X571500Y38100D03*
D10*
X95504Y190500D02*
X82296Y190500D01*
X82296Y165100D02*
X95504Y165100D01*
X95504Y139700D02*
X82296Y139700D01*
X82296Y114300D02*
X95504Y114300D01*
X95504Y88900D02*
X82296Y88900D01*
X82296Y63500D02*
X95504Y63500D01*
X95504Y38100D02*
X82296Y38100D01*
X82296Y12700D02*
X95504Y12700D01*
D13*
X716280Y12700D02*
X731520Y12700D01*
X731520Y38100D02*
X716280Y38100D01*
X716280Y63500D02*
X731520Y63500D01*
X731520Y88900D02*
X716280Y88900D01*
X716280Y114300D02*
X731520Y114300D01*
X731520Y139700D02*
X716280Y139700D01*
X716280Y165100D02*
X731520Y165100D01*
X731520Y190500D02*
X716280Y190500D01*
M02*
