M48
;GenerationSoftware,Autodesk,EAGLE,9.0.0*%
;CreationDate,2019-08-08T19:05:00Z*%
FMAT,2
ICI,OFF
METRIC,TZ,000.000
T5C0.600
T4C0.813
T3C0.914
T2C1.016
T1C1.100
%
G90
M71
T1
X19050Y5640
X19050Y40640
X19050Y35640
T2
X39370Y25400
X39370Y22860
X39370Y20320
X13970Y12700
X13970Y22860
X13970Y25400
X13970Y27940
X39370Y17780
X39370Y27940
X39370Y30480
X39370Y33020
X39370Y35560
X13970Y15240
X13970Y17780
X12421Y9601
X12421Y3099
X7899Y9601
X7899Y3099
T3
X31750Y29210
X31750Y21590
X27940Y16510
X27940Y8890
T4
X6350Y33020
X6350Y30480
X6350Y27940
X6350Y25400
X6350Y22860
X6350Y20320
X6350Y17780
X24130Y35560
X31750Y33020
X31750Y35560
X24130Y33020
X31750Y38100
X31750Y40640
X6350Y35560
X24130Y38100
X24130Y40640
X24130Y30480
X13970Y43180
X13970Y30480
X24130Y17780
T5
X24130Y6350
X24130Y15240
X27940Y40640
X27940Y29210
M30