G04 EAGLE Gerber X2 export*
G04 #@! %TF.Part,Single*
G04 #@! %TF.FileFunction,Soldermask,Top,1*
G04 #@! %TF.FilePolarity,Negative*
G04 #@! %TF.GenerationSoftware,Autodesk,EAGLE,9.0.0*
G04 #@! %TF.CreationDate,2019-08-08T19:05:01Z*
G75*
%MOMM*%
%FSLAX34Y34*%
%LPD*%
%AMOC8*
5,1,8,0,0,1.08239X$1,22.5*%
G01*
%ADD10R,21.590000X6.350000*%
%ADD11C,1.524000*%
%ADD12P,1.649562X8X112.500000*%
%ADD13C,1.853200*%
%ADD14C,1.727200*%
%ADD15P,1.759533X8X112.500000*%
%ADD16P,1.649562X8X292.500000*%
%ADD17P,1.759533X8X292.500000*%
%ADD18C,2.082800*%
%ADD19P,2.034460X8X22.500000*%


D10*
X184150Y-19050D03*
D11*
X310896Y330200D02*
X324104Y330200D01*
X324104Y355600D02*
X310896Y355600D01*
X247904Y355600D02*
X234696Y355600D01*
X234696Y330200D02*
X247904Y330200D01*
X310896Y381000D02*
X324104Y381000D01*
X324104Y406400D02*
X310896Y406400D01*
X247904Y381000D02*
X234696Y381000D01*
X234696Y406400D02*
X247904Y406400D01*
D12*
X241300Y177800D03*
X241300Y304800D03*
D13*
X190500Y56400D03*
X190500Y406400D03*
X190500Y356400D03*
D14*
X147320Y228600D02*
X132080Y228600D01*
X132080Y254000D02*
X147320Y254000D01*
X147320Y279400D02*
X132080Y279400D01*
D15*
X317500Y215900D03*
X317500Y292100D03*
D16*
X139700Y431800D03*
X139700Y304800D03*
D11*
X70104Y355600D02*
X56896Y355600D01*
X56896Y330200D02*
X70104Y330200D01*
X70104Y304800D02*
X56896Y304800D01*
X56896Y279400D02*
X70104Y279400D01*
X70104Y254000D02*
X56896Y254000D01*
X56896Y228600D02*
X70104Y228600D01*
X70104Y203200D02*
X56896Y203200D01*
X56896Y177800D02*
X70104Y177800D01*
D14*
X386080Y177800D02*
X401320Y177800D01*
X401320Y203200D02*
X386080Y203200D01*
X386080Y228600D02*
X401320Y228600D01*
X401320Y254000D02*
X386080Y254000D01*
X386080Y279400D02*
X401320Y279400D01*
X401320Y304800D02*
X386080Y304800D01*
X386080Y330200D02*
X401320Y330200D01*
X401320Y355600D02*
X386080Y355600D01*
D17*
X279400Y165100D03*
X279400Y88900D03*
D14*
X147320Y127000D02*
X132080Y127000D01*
X132080Y152400D02*
X147320Y152400D01*
X147320Y177800D02*
X132080Y177800D01*
D18*
X124206Y96012D03*
X124206Y30988D03*
X78994Y96012D03*
X78994Y30988D03*
D19*
X279400Y292100D03*
X279400Y406400D03*
X241300Y152400D03*
X241300Y63500D03*
M02*
